<svg xmlns="http://www.w3.org/2000/svg" xmlns:xlink="http://www.w3.org/1999/xlink" width="278.916" height="408.478" viewBox="0 0 278.916 408.478">
  <defs>
    <clipPath id="clip-path">
      <rect id="Rectángulo_341021" data-name="Rectángulo 341021" width="278.916" height="408.478" fill="none"/>
    </clipPath>
    <clipPath id="clip-path-2">
      <rect id="Rectángulo_341020" data-name="Rectángulo 341020" width="278.916" height="408.479" fill="none"/>
    </clipPath>
    <clipPath id="clip-path-3">
      <rect id="Rectángulo_341017" data-name="Rectángulo 341017" width="14.016" height="21.178" fill="none"/>
    </clipPath>
    <clipPath id="clip-path-4">
      <rect id="Rectángulo_341018" data-name="Rectángulo 341018" width="14.013" height="21.183" fill="none"/>
    </clipPath>
    <clipPath id="clip-path-5">
      <rect id="Rectángulo_341019" data-name="Rectángulo 341019" width="138.332" height="65.289" fill="none"/>
    </clipPath>
  </defs>
  <g id="Grupo_970515" data-name="Grupo 970515" transform="translate(44.083 52.561)">
    <g id="Grupo_965388" data-name="Grupo 965388" transform="translate(-44.083 -52.561)" clip-path="url(#clip-path)">
      <g id="Grupo_965387" data-name="Grupo 965387" transform="translate(0 -0.001)">
        <g id="Grupo_965386" data-name="Grupo 965386" clip-path="url(#clip-path-2)">
          <path id="Trazado_729972" data-name="Trazado 729972" d="M783.149,952.966c.318,5.917,1.077,12.478,2.147,19.414h27.348c-2.215-13-3.73-21.029-3.73-21.029,0-9.624-11.044-117.682-17.537-138.468s-44.168-24.725-44.168-24.725-4.548,57.207,3.9,77.879,32.044,86.929,32.044,86.929" transform="translate(-533.727 -563.9)" fill="#f19367"/>
          <path id="Trazado_729973" data-name="Trazado 729973" d="M45.518,972.379c6.278-50.486,12.727-98.98,16.07-114.024,7.793-35.081,3.937-70.2,3.937-70.2s-35.762,1.993-42.91,42.912c-3.425,19.636-5.21,80.995-6.137,141.309Z" transform="translate(-11.789 -563.9)" fill="#f19367"/>
          <path id="Trazado_729974" data-name="Trazado 729974" d="M18.753,1239.309c10.888,2.176,25.077,3.3,32.349,3.77.67-5.2,1.333-10.3,1.983-15.26L19.491,1210.3c-.277,9.328-.525,19.067-.738,29.012" transform="translate(-13.417 -865.927)" fill="#bd502a"/>
          <path id="Trazado_729975" data-name="Trazado 729975" d="M38.343,999.7c-5.716.713-24.383-3.577-30.749-5.106,11.351,13.165,43.127,12.122,43.127,12.122,4.584-17.653,7.532-54.22,7.532-54.22V889.184C46.9,916.725,26.394,965.4,29.685,963.567c3.464-1.93,16.019-5,16.019-5s-8.226,19.049-11.085,22.952,10.655,17.321,3.725,18.184" transform="translate(-5.433 -636.181)" fill="#7a94a1"/>
          <path id="Trazado_729976" data-name="Trazado 729976" d="M837.616,1203.639c8.018.443,19.788.344,29.076-2.828-.987-11.177-2.677-27.958-4.691-45.749l-33.965,22.062c3.641,10,7.056,19.481,9.58,26.515" transform="translate(-592.433 -826.408)" fill="#bd502a"/>
          <path id="Trazado_729977" data-name="Trazado 729977" d="M776.072,998.661c-1.015-2.6,18.339-38.1,20.5-52.391s-2.6-9.531-2.6-9.531c-6.929,21.218-23.382,38.537-23.382,38.537s6.061-29.878,6.061-35.067c0-5.205-21.649-50.667-21.649-50.667l-5.289,13.767-3.728,52.624,23.737,50.453a48.337,48.337,0,0,0,22.627-1.858c-6.58-1.665-15.638-4.227-16.282-5.868" transform="translate(-533.732 -636.437)" fill="#7a94a1"/>
          <path id="Trazado_729978" data-name="Trazado 729978" d="M345.7,649.654c-.709-3.269-1.46-5.268-2.14-5.635-4.763-2.594-58.457-18.185-58.457-18.185-3.032-5.191-3.23-32.041-3.23-32.041l-22.85-8.542v-.125l-.169.063-.164-.063v.125l-22.853,8.542s-.2,26.849-3.227,32.041c0,0-53.7,15.591-58.46,18.185-.679.367-1.383,2.366-2.022,5.635Z" transform="translate(-123.153 -418.638)" fill="#e57a4e"/>
          <path id="Trazado_729979" data-name="Trazado 729979" d="M428.822,621.934a32.3,32.3,0,0,0,13.316-6.567c-.973-9.52-1.062-21.573-1.062-21.573l-22.85-8.542v-.125l-.169.063-.164-.063v.125l-22.852,8.542s-.042,5.86-.4,12.63c7.71,5.447,25.576,17.181,34.177,15.51" transform="translate(-282.356 -418.638)" fill="#bd502a"/>
          <path id="Trazado_729980" data-name="Trazado 729980" d="M45.288,886.882c2.742-10.553,4.894-27.858,6.185-40.077a206.291,206.291,0,0,0,7.094,24.071s1.884,33.256,4.138,53.946H209.1c-.329-14.057-.345-26.646.162-35.756,0,0,5.424-17.937,10.162-38L236,886.292c24.551,3.929,42.435-13.04,42.435-13.04S271,778.013,262.845,764.535c-11.018-18.221-43.727-23.567-43.855-23.588l-57.777-19.259s-24.073,27.146-51.019,0L49.8,740.6s-.05.229-.125.6c-50.748,4.835-45.991,82.8-45.991,82.8L0,871.632c8.662,16.456,45.288,15.249,45.288,15.249" transform="translate(0 -516.343)" fill="#95b1c1"/>
          <path id="Trazado_729981" data-name="Trazado 729981" d="M190.411,1231.7h33.907c1.067-2.385,1.686-3.82,1.686-3.82-11.26-15.594-33.8-47.2-33.8-47.2,5.928,2.921,96.155,34.209,101.349,33.776s5.2-2.6,5.2-2.6c-23.528-4.409-98.224-48.137-120.257-61.249a208.069,208.069,0,0,0,7.78,27.147s1.884,33.256,4.138,53.947" transform="translate(-127.706 -823.219)" fill="#7a94a1"/>
          <path id="Trazado_729982" data-name="Trazado 729982" d="M664.944,357.813s5.828-10.233,14.9-10.379c5.39-.083,3.8,22.051-1.756,27.766s-13.635,3.814-15.432-1.251Z" transform="translate(-474.111 -248.577)" fill="#f19367"/>
          <g id="Grupo_965379" data-name="Grupo 965379" transform="translate(192.077 103.969)" opacity="0.4">
            <g id="Grupo_965378" data-name="Grupo 965378">
              <g id="Grupo_965377" data-name="Grupo 965377" clip-path="url(#clip-path-3)">
                <path id="Trazado_729983" data-name="Trazado 729983" d="M675.063,386.077s6.776,2.384,9.7-3.263,5.763-12.435,3.5-17.416c0,0-6.249,1.453-12.025,13.113,0,0,4.235,5.265-1.172,7.566" transform="translate(-675.063 -365.399)" fill="#c6442b"/>
              </g>
            </g>
          </g>
          <path id="Trazado_729984" data-name="Trazado 729984" d="M687.529,371.109c-.06-1.069-.119-2.134-.237-3.19a14.465,14.465,0,0,0-.6-3.046,1.477,1.477,0,0,0-.318-.534c-.137-.059-.053-.08-.279.036l-.708.374-.613.442c-.4.279-.814.586-1.221.928s-.83.635-1.2,1.008L681.2,368.2c-.384.356-.719.762-1.083,1.141-.345.393-.735.749-1.045,1.171s-.659.812-.988,1.219a27.715,27.715,0,0,0-1.794,2.563,11.384,11.384,0,0,0-.735,1.374l-.7,1.4-.085-.519a9.644,9.644,0,0,1,1.3,2.349,6.266,6.266,0,0,1,.355,1.3,3.907,3.907,0,0,1,.065.681,4.09,4.09,0,0,1-.038.689,4.64,4.64,0,0,1-.159.675l-.294.627-.419.539a3.442,3.442,0,0,1-.5.446,5.521,5.521,0,0,1-1.115.681c-.4.163-.817.276-1.217.413.378-.2.761-.382,1.122-.592a5.291,5.291,0,0,0,.97-.768,3.025,3.025,0,0,0,.4-.454l.306-.509a3.954,3.954,0,0,0,.266-1.126,3.555,3.555,0,0,0-.013-.582,3.231,3.231,0,0,0-.1-.58,5.628,5.628,0,0,0-.4-1.123,8.864,8.864,0,0,0-1.31-2.01l-.212-.245.127-.274.695-1.487a12.326,12.326,0,0,1,.738-1.463,28.753,28.753,0,0,1,1.807-2.724c.338-.426.663-.864,1.012-1.281.334-.431.744-.792,1.113-1.19.385-.383.743-.793,1.15-1.153l1.219-1.08c.394-.373.849-.679,1.274-1.016a9.937,9.937,0,0,1,1.372-.945l.728-.434.733-.32a1.07,1.07,0,0,1,.588-.119.972.972,0,0,1,.6.3,2.166,2.166,0,0,1,.453.855,11.222,11.222,0,0,1,.337,3.269,28.635,28.635,0,0,1-.2,3.212" transform="translate(-481.334 -260.047)" fill="#874237"/>
          <path id="Trazado_729985" data-name="Trazado 729985" d="M698.8,387.089a2.2,2.2,0,0,0-.287-.25,9.127,9.127,0,0,0-.747-.53c-.169-.08-.355-.152-.531-.248a2.278,2.278,0,0,0-.6-.207,4.713,4.713,0,0,0-.645-.168l-.7-.064a1.759,1.759,0,0,0-.708-.027c-.238.027-.476.017-.708.026a4.254,4.254,0,0,0-.676.026c-.214.041-.421.064-.614.085a8.822,8.822,0,0,1-1.353.062,7.329,7.329,0,0,1,1.163-.729c.183-.1.385-.2.6-.3a2.594,2.594,0,0,1,.727-.2c.26-.044.53-.109.808-.138a2.343,2.343,0,0,1,.855-.01l.864.132a3.468,3.468,0,0,1,.792.326,3.548,3.548,0,0,1,1.178.917,3.223,3.223,0,0,1,.491.921,1.256,1.256,0,0,1,.082.373" transform="translate(-494.558 -275.014)" fill="#874237"/>
          <path id="Trazado_729986" data-name="Trazado 729986" d="M345.012,264.814s27.434-13.175,36.881-27.976c7.765-10.387,14.161-63.347,15.053-71.565.029-.277.06-.545.089-.814s.042-.407.042-.407l-.013.008c.148-1.7.242-3.414.242-5.155a57.413,57.413,0,0,0-114.825,0,58.179,58.179,0,0,0,.326,6.1h0s6.585,60.456,15.093,71.831c10,16.966,36.881,27.976,36.881,27.976a17.03,17.03,0,0,0,10.235,0" transform="translate(-202.107 -72.614)" fill="#f19367"/>
          <path id="Trazado_729987" data-name="Trazado 729987" d="M250.062,366.309s-5.828-10.231-14.9-10.373c-5.388-.081-3.795,22.048,1.756,27.762s13.637,3.809,15.432-1.25Z" transform="translate(-165.875 -254.659)" fill="#f19367"/>
          <g id="Grupo_965382" data-name="Grupo 965382" transform="translate(68.93 106.382)" opacity="0.4">
            <g id="Grupo_965381" data-name="Grupo 965381">
              <g id="Grupo_965380" data-name="Grupo 965380" clip-path="url(#clip-path-4)">
                <path id="Trazado_729988" data-name="Trazado 729988" d="M256.268,394.565s-6.775,2.382-9.695-3.267-5.763-12.434-3.5-17.418c0,0,6.248,1.456,12.025,13.118,0,0-4.234,5.254,1.169,7.566" transform="translate(-242.255 -373.881)" fill="#c6442b"/>
              </g>
            </g>
          </g>
          <path id="Trazado_729989" data-name="Trazado 729989" d="M241.393,379.585a28.733,28.733,0,0,1-.2-3.213,11.28,11.28,0,0,1,.338-3.27,2.192,2.192,0,0,1,.455-.856.976.976,0,0,1,.6-.3,1.064,1.064,0,0,1,.588.121l.733.321.728.434a9.94,9.94,0,0,1,1.372.945c.426.337.881.644,1.275,1.018l1.219,1.08c.408.361.765.771,1.151,1.154.369.4.78.76,1.113,1.191l1.012,1.284a29,29,0,0,1,1.806,2.725,12.343,12.343,0,0,1,.738,1.465l.693,1.488.127.274-.212.244a8.82,8.82,0,0,0-1.31,2.008,5.552,5.552,0,0,0-.4,1.123,3.218,3.218,0,0,0-.1.579,3.275,3.275,0,0,0-.013.581,3.921,3.921,0,0,0,.267,1.126l.306.508a3.074,3.074,0,0,0,.4.453,5.331,5.331,0,0,0,.969.768c.361.209.744.391,1.122.592-.4-.137-.817-.249-1.216-.413a5.58,5.58,0,0,1-1.115-.681,3.489,3.489,0,0,1-.5-.446l-.42-.539-.294-.627a4.524,4.524,0,0,1-.16-.675,3.916,3.916,0,0,1-.038-.688,3.955,3.955,0,0,1,.064-.681,6.265,6.265,0,0,1,.356-1.3,9.646,9.646,0,0,1,1.3-2.347l-.085.518-.7-1.4a11.379,11.379,0,0,0-.734-1.375,27.562,27.562,0,0,0-1.794-2.566c-.328-.407-.669-.8-.988-1.219s-.7-.78-1.045-1.173c-.362-.378-.7-.785-1.083-1.142l-1.152-1.072c-.373-.373-.8-.674-1.2-1.009s-.818-.649-1.222-.929l-.613-.442-.708-.376c-.225-.116-.143-.094-.279-.036a1.458,1.458,0,0,0-.318.534,14.4,14.4,0,0,0-.6,3.047c-.118,1.056-.177,2.121-.237,3.191" transform="translate(-172.567 -266.109)" fill="#874237"/>
          <path id="Trazado_729990" data-name="Trazado 729990" d="M248.758,395.58a1.256,1.256,0,0,1,.082-.373,3.22,3.22,0,0,1,.491-.92,3.528,3.528,0,0,1,1.178-.918,3.478,3.478,0,0,1,.79-.326l.864-.132a2.35,2.35,0,0,1,.855.01c.278.029.548.094.808.139a2.575,2.575,0,0,1,.726.2c.219.1.42.2.6.3a7.284,7.284,0,0,1,1.162.729,8.821,8.821,0,0,1-1.352-.062c-.193-.021-.4-.044-.615-.086a4.238,4.238,0,0,0-.675-.025c-.231-.009-.469,0-.707-.026a1.765,1.765,0,0,0-.707.028l-.7.064a4.686,4.686,0,0,0-.643.168,2.293,2.293,0,0,0-.6.206c-.176.1-.363.168-.532.249a9.069,9.069,0,0,0-.746.53,2.178,2.178,0,0,0-.287.25" transform="translate(-177.978 -281.09)" fill="#874237"/>
          <path id="Trazado_729991" data-name="Trazado 729991" d="M501.725,482.271s0,10.126-2.069,11.211.11-5.874,2.069-11.211" transform="translate(-356.889 -345.048)" fill="#521b14"/>
          <path id="Trazado_729992" data-name="Trazado 729992" d="M455.627,527.549s-12.654.747-28.579-5.33a.7.7,0,0,0-.929.3c-.4.589-.376,8.693,14.6,12.484,0,0,10.509,1.631,15.43-6.713,0,0-.008-.944-.52-.741" transform="translate(-304.801 -373.579)" fill="#6f0b17"/>
          <path id="Trazado_729993" data-name="Trazado 729993" d="M427.755,533.627c1.067,2.726,4.243,6.7,12.889,9.183-.73-3.172-3.428-10.071-12.889-9.183" transform="translate(-306.045 -381.736)" fill="#e24464"/>
          <path id="Trazado_729994" data-name="Trazado 729994" d="M528.353,366.494s2.562-8.226,8.268-12.846c8.15-6.609,22.938-4.04,22.161,8.348,0,0-.564,11.42-10.9,12.917-8.359,1.209-16.43-2.5-19.531-8.419" transform="translate(-378.019 -250.49)" fill="#fff"/>
          <path id="Trazado_729995" data-name="Trazado 729995" d="M528.353,363.876a18.069,18.069,0,0,1,.489-1.917A29.183,29.183,0,0,1,530.8,357.1a26.319,26.319,0,0,1,1.83-3.033L533.8,352.5c.414-.527.945-.979,1.432-1.483l.757-.747.872-.654c.282-.2.539-.419.846-.618l1.011-.558a16.987,16.987,0,0,1,4.256-1.594,20.4,20.4,0,0,1,2.246-.344c.753-.061,1.51-.04,2.256-.053a15.448,15.448,0,0,1,4.307.88,10.02,10.02,0,0,1,1.919.889,8.585,8.585,0,0,1,1.662,1.164l.74.635c.221.233.416.485.612.726l.567.712c.164.248.288.517.427.765a10.85,10.85,0,0,1,1.08,2.869,19.247,19.247,0,0,1,.179,2.312c-.106,1.277-.189,1.978-.189,1.978l-.244-1.944c-.089-.607-.36-1.314-.552-2.122a12.071,12.071,0,0,0-1.333-2.422c-.15-.2-.28-.421-.448-.616l-.57-.551c-.2-.182-.371-.387-.577-.568l-.687-.483a7.054,7.054,0,0,0-1.5-.863,10.38,10.38,0,0,0-1.692-.657,13.283,13.283,0,0,0-1.841-.417c-.631-.1-1.286-.1-1.934-.179-.656.03-1.318.02-1.978.084a19.5,19.5,0,0,0-1.968.336,14.96,14.96,0,0,0-3.712,1.308l-.842.426c-.286.162-.577.377-.862.561l-.8.531-.713.639c-.466.431-.959.819-1.388,1.262l-1.217,1.351a15.072,15.072,0,0,0-1.074,1.363c-.331.455-.694.868-.97,1.316-.556.889-1.126,1.68-1.536,2.437-.44.742-.811,1.4-1.095,1.953-.59,1.1-.889,1.754-.889,1.754" transform="translate(-378.019 -247.872)" fill="#0e1115"/>
          <path id="Trazado_729996" data-name="Trazado 729996" d="M570.136,372.754c1.691-7.594,6.974-12.87,11.8-11.8,3.629.814,5.961,5,6.17,10.253-.571,3.173-2.732,10.217-10.7,11.367a22.048,22.048,0,0,1-7.068-.133,19.109,19.109,0,0,1-.2-9.687" transform="translate(-407.54 -258.151)" fill="#1d4b78"/>
          <path id="Trazado_729997" data-name="Trazado 729997" d="M573.011,369.005c-.454,1.067.785,2.614,2.771,3.454s3.958.668,4.411-.4-.787-2.619-2.771-3.459-3.958-.663-4.412.4" transform="translate(-409.904 -263.343)" fill="#fff"/>
          <path id="Trazado_729998" data-name="Trazado 729998" d="M329.332,357.766s2.564-8.223,8.268-12.846c8.15-6.611,22.938-4.032,22.161,8.353,0,0-.564,11.42-10.9,12.918-8.359,1.2-16.43-2.5-19.531-8.424" transform="translate(-235.626 -244.246)" fill="#fff"/>
          <path id="Trazado_729999" data-name="Trazado 729999" d="M329.332,355.15a18.2,18.2,0,0,1,.489-1.917,29.187,29.187,0,0,1,1.958-4.864,26.457,26.457,0,0,1,1.83-3.033l1.174-1.563c.415-.527.945-.979,1.432-1.483l.757-.749.872-.654c.281-.2.538-.418.845-.617l1.01-.557a16.952,16.952,0,0,1,4.257-1.594,20.659,20.659,0,0,1,2.246-.344c.753-.059,1.51-.039,2.256-.051a15.394,15.394,0,0,1,4.306.882,9.995,9.995,0,0,1,1.919.889,8.6,8.6,0,0,1,1.662,1.164q.374.322.74.635c.219.233.415.485.611.726l.566.713c.165.247.288.517.427.765a10.862,10.862,0,0,1,1.08,2.868,19.256,19.256,0,0,1,.179,2.312c-.106,1.277-.189,1.978-.189,1.978l-.244-1.943c-.089-.607-.36-1.314-.552-2.123a12.1,12.1,0,0,0-1.333-2.421c-.149-.2-.279-.421-.448-.617-.187-.18-.376-.364-.57-.55s-.372-.388-.577-.568l-.686-.483a7.078,7.078,0,0,0-1.5-.864,10.381,10.381,0,0,0-1.692-.658,13.285,13.285,0,0,0-1.84-.419c-.631-.1-1.287-.1-1.934-.179-.655.029-1.318.018-1.979.083a19.583,19.583,0,0,0-1.968.335,14.941,14.941,0,0,0-3.712,1.307l-.841.426c-.287.161-.577.376-.862.56l-.8.531-.713.64c-.466.431-.958.819-1.388,1.262q-.622.692-1.218,1.352a15.187,15.187,0,0,0-1.073,1.364c-.331.454-.695.868-.97,1.315-.556.89-1.126,1.68-1.536,2.437-.44.741-.811,1.4-1.1,1.953-.591,1.1-.89,1.754-.89,1.754" transform="translate(-235.626 -241.63)" fill="#0e1115"/>
          <path id="Trazado_730000" data-name="Trazado 730000" d="M371.117,364.038c1.694-7.587,6.974-12.868,11.8-11.79,3.629.805,5.964,4.988,6.173,10.253-.574,3.165-2.732,10.209-10.7,11.365a22.266,22.266,0,0,1-7.069-.133,19.207,19.207,0,0,1-.2-9.694" transform="translate(-265.15 -251.921)" fill="#1d4b78"/>
          <path id="Trazado_730001" data-name="Trazado 730001" d="M374,360.275c-.456,1.067.785,2.614,2.771,3.454s3.958.668,4.409-.394-.785-2.617-2.771-3.456-3.958-.668-4.41.4" transform="translate(-267.514 -257.096)" fill="#fff"/>
          <path id="Trazado_730002" data-name="Trazado 730002" d="M355.573,443.957a7.946,7.946,0,0,1,.541-.777c.182-.213.373-.482.616-.733l.754-.79.814-.728c.258-.234.534-.415.753-.589a7.6,7.6,0,0,1,.8-.514,7.776,7.776,0,0,1-.54.778c-.182.213-.372.483-.615.733l-.755.789-.815.727c-.259.233-.534.416-.753.59a7.841,7.841,0,0,1-.795.514" transform="translate(-254.401 -314.681)" fill="#79332d"/>
          <path id="Trazado_730003" data-name="Trazado 730003" d="M363.208,442.871s-.175.525-.5,1.276c-.176.368-.356.813-.594,1.264l-.743,1.415c-.278.467-.557.934-.818,1.373s-.545.825-.768,1.167c-.467.674-.825,1.1-.825,1.1s.174-.526.5-1.276c.176-.37.355-.814.595-1.265l.743-1.414.818-1.373c.26-.439.546-.825.768-1.167.468-.674.824-1.1.824-1.1" transform="translate(-256.821 -316.859)" fill="#79332d"/>
          <path id="Trazado_730004" data-name="Trazado 730004" d="M376.45,447.088a5.76,5.76,0,0,1-.24.772c-.1.218-.184.487-.322.748l-.431.821-.505.777c-.158.25-.351.456-.493.646a5.716,5.716,0,0,1-.557.587,5.681,5.681,0,0,1,.24-.773c.1-.218.182-.487.322-.747l.431-.821.505-.778c.16-.248.352-.456.495-.646a5.712,5.712,0,0,1,.556-.588" transform="translate(-267.514 -319.876)" fill="#79332d"/>
          <path id="Trazado_730005" data-name="Trazado 730005" d="M601.675,453.142a7.98,7.98,0,0,1-.8-.513c-.219-.175-.495-.357-.754-.589l-.815-.727c-.257-.268-.514-.538-.755-.788s-.434-.521-.615-.733a7.741,7.741,0,0,1-.541-.777,7.694,7.694,0,0,1,.8.512c.219.175.5.356.754.59l.815.727c.256.269.514.537.755.789s.434.52.616.733a7.862,7.862,0,0,1,.541.776" transform="translate(-427.419 -321.255)" fill="#79332d"/>
          <path id="Trazado_730006" data-name="Trazado 730006" d="M594.1,452.058s.356.423.824,1.1c.222.342.508.728.768,1.166l.818,1.373.743,1.415c.24.45.418.9.595,1.264.33.75.5,1.276.5,1.276s-.358-.423-.825-1.1c-.223-.343-.509-.727-.768-1.167l-.818-1.373L595.2,454.6c-.238-.451-.418-.9-.594-1.265-.33-.75-.5-1.275-.5-1.275" transform="translate(-425.059 -323.432)" fill="#79332d"/>
          <path id="Trazado_730007" data-name="Trazado 730007" d="M585.14,456.277a5.821,5.821,0,0,1,.556.586c.143.19.334.4.495.646l.505.776c.146.279.293.557.431.819s.226.529.322.747a5.614,5.614,0,0,1,.24.772,5.761,5.761,0,0,1-.557-.586c-.142-.191-.336-.4-.494-.646l-.505-.776c-.146-.279-.293-.559-.43-.821s-.226-.529-.322-.746a5.772,5.772,0,0,1-.24-.772" transform="translate(-418.649 -326.451)" fill="#79332d"/>
          <path id="Trazado_730008" data-name="Trazado 730008" d="M325.544,286.077s16.111-12.435,26.345-9.789c0,0,4.7,6.311,4.963,8.7,0,0-11.934-2.615-31.308,1.086" transform="translate(-232.916 -197.41)" fill="#2a1816"/>
          <path id="Trazado_730009" data-name="Trazado 730009" d="M534.606,292.966s16.111-12.435,26.346-9.8c0,0,4.7,6.309,4.96,8.706,0,0-11.929-2.616-31.306,1.091" transform="translate(-382.493 -202.335)" fill="#2a1816"/>
          <path id="Trazado_730010" data-name="Trazado 730010" d="M349.794,523.02a17.154,17.154,0,0,0,8.38.483c-38.453-12.833-54.7-61.118-54.7-61.118h0c2.563,14.149,5.829,27.827,9.443,32.659,10,16.966,36.88,27.976,36.88,27.976" transform="translate(-217.124 -330.82)" fill="#df7549"/>
          <path id="Trazado_730011" data-name="Trazado 730011" d="M246.8,110.1s5.889-16.8,8.065-28.117,4.722-24.958,10.164-26.92S299.338,65.531,308.7,67.391c26.482,5.286,38.582-8.647,38.582-8.647s9.559,15.4,8,23.241-1,21.146,1.772,23.961l5.153-4.672s10.616-32.519,7.748-41.659c0,0-3.676-15.952-9.413-21.613,0,0,7.563-14.97-8.08-20.9A159.069,159.069,0,0,0,305.787.392C279.478-4.4,247.463,36.124,247.463,36.124S234.639,42.2,229.826,53.516c-3.335,7.838,4.813,47.758,4.813,47.758s10.525,4.487,12.163,8.828" transform="translate(-163.86 0.002)" fill="#2a1816"/>
          <path id="Trazado_730012" data-name="Trazado 730012" d="M427.577,522.23a.689.689,0,0,0-.821.177c5.951,7.665,24.011,7.908,25.3,7.793.723-.054,1.247-1.424,1.571-2.624a79.966,79.966,0,0,1-26.051-5.346" transform="translate(-305.33 -373.59)" fill="#fff"/>
          <path id="Trazado_730013" data-name="Trazado 730013" d="M413.149,22.256a16.191,16.191,0,0,0-7.411-5.158A159.073,159.073,0,0,0,359.065.391c-21.712-3.956-47.291,22.938-55.575,32.463,22.79-17.386,31.744-21.8,38.932-25.057s50.62,26.452,66.136,21.078c4.485-1.552,5.458-3.971,4.591-6.619" transform="translate(-217.137 0.003)" fill="#3d2322"/>
          <g id="Grupo_965385" data-name="Grupo 965385" transform="translate(65.165 44.815)" opacity="0.6">
            <g id="Grupo_965384" data-name="Grupo 965384">
              <g id="Grupo_965383" data-name="Grupo 965383" clip-path="url(#clip-path-5)">
                <path id="Trazado_730014" data-name="Trazado 730014" d="M357.4,199.226c4.247-32.628-7.185-50.651-31.464-37.264s-45.611-3.922-58.766-3.922-8.894,21.185-22.934,38.235c-10.78,13.09-10.662-20.679-10.028-37.079a28.151,28.151,0,0,0-4.38,7.01c-3.335,7.838,4.813,47.758,4.813,47.758s10.524,4.487,12.163,8.828c0,0,5.889-16.8,8.065-28.117s4.722-24.958,10.164-26.92,34.306,10.465,43.664,12.325c26.482,5.286,38.582-8.647,38.582-8.647s9.559,15.4,8,23.241-1,21.146,1.772,23.961l5.153-4.672s2.813-8.625,5.153-18.238c-7.892,14.616-9.959,3.5-9.959,3.5" transform="translate(-229.025 -157.503)" fill="#170e0d"/>
              </g>
            </g>
          </g>
        </g>
      </g>
    </g>
  </g>
</svg>
