<svg xmlns="http://www.w3.org/2000/svg" width="316.091" height="304" viewBox="0 0 316.091 304">
  <g id="Grupo_11572" data-name="Grupo 11572" transform="translate(-1105 -13452)">
    <circle id="Elipse_941" data-name="Elipse 941" cx="131.5" cy="131.5" r="131.5" transform="translate(1105 13493)" fill="#fae7b7"/>
    <g id="Grupo_11570" data-name="Grupo 11570" transform="translate(1034.104 12346.941)">
      <g id="Grupo_11567" data-name="Grupo 11567" transform="translate(108.786 1155.414)">
        <path id="Trazado_28317" data-name="Trazado 28317" d="M355.781,1919.559c-10.02,1.125-18.711,3.642-21.442,7.1s.5,7.868,10.39,11.362,26.444,6.077,43.2,6.257,33.713-2.043,42.848-4.819,10.447-6.1,2.1-9.611-26.362-7.2-41.042-9.175S365.8,1918.434,355.781,1919.559Z" transform="translate(-265.417 -1722.909)" fill="#131313" fill-rule="evenodd"/>
        <path id="Trazado_28318" data-name="Trazado 28318" d="M191.353,1719.364c-28.96.936-39.7,1.573-48.058,4.434s-14.328,7.948-15.364,12.8,2.863,9.466,7.757,11.714,10.782,2.129,13.964,2.308,3.66.656,3.3.934-1.565.355-4.395.633-7.285.755-13.134,1.75a109.22,109.22,0,0,0-18.5,4.536c-5.411,2.029-8.992,4.575-7.957,7.042s6.684,4.854,12.174,6.047,10.822,1.193,14,1.552,4.217,1.074,4.177,1.711-1.154,1.193.477,2.267,6.008,2.666,11.379,3.461,11.737.8,18.938.955,15.238.477,19.376,1.233,4.376,1.95,5.252,2.785,2.387,1.313,8.673,1.671,17.347.6,30.874.716,29.521.12,43.645-.6,26.378-2.149,30.993-4.257,1.592-4.894-1.79-7.281-7.122-4.376-6.714-5.748,4.963-2.127,13.079-2.6,19.794-.677,29.541-1.155,17.565-1.233,21.424-2.824,3.76-4.019.687-5.512-9.121-2.05-11.309-2.607-.517-1.114,4.147-1.452,12.323-.456,18.317-2.044,10.324-4.645,10.658-8.083-3.326-7.257-8.9-10.042-13.05-4.536-24.03-5.363-25.459-.732-32.605-2.642-6.958-5.827-30.453-7.167S220.312,1718.429,191.353,1719.364Z" transform="translate(-108.786 -1582.784)" fill="#131313" fill-rule="evenodd"/>
        <g id="Grupo_11566" data-name="Grupo 11566" transform="translate(36.085)">
          <g id="Grupo_11563" data-name="Grupo 11563">
            <ellipse id="Elipse_942" data-name="Elipse 942" cx="51.066" cy="11.725" rx="51.066" ry="11.725" transform="translate(1.888 0.899)" fill="#303000"/>
            <path id="Trazado_28319" data-name="Trazado 28319" d="M336.367,1311.637c0,6.724-22.863,12.174-51.066,12.174s-51.066-5.451-51.066-12.174v137.738c0,9.295,22.863,16.829,51.066,16.829s51.066-7.535,51.066-16.829Z" transform="translate(-232.347 -1299.463)" fill="#565624" fill-rule="evenodd"/>
            <path id="Trazado_28320" data-name="Trazado 28320" d="M229.887,1405.3a3.842,3.842,0,0,1,0-.929v-4a6.229,6.229,0,0,0,0,8.933V1405.3Zm102.132-4.881v8.842a6.208,6.208,0,0,0,0-8.842Zm-.009,4.417c0-.065,0-.131-.005-.2h.014v4.622c-6.115,7.168-26.687,12.52-51.105,12.52-24.365,0-44.871-5.329-51.027-12.473V1405.3c.907,7.4,23.414,13.323,51.047,13.323C309.142,1418.624,332.009,1412.45,332.009,1404.836Z" transform="translate(-227.999 -1361.341)" fill="#66662b" fill-rule="evenodd"/>
            <path id="Trazado_28321" data-name="Trazado 28321" d="M229.918,1664.5a4.493,4.493,0,0,1,0-1.01v-4.347a7.2,7.2,0,0,0,0,9.718V1664.5Zm102.132-5.309v9.619a7.177,7.177,0,0,0,0-9.619Zm-.009,4.8c0-.071,0-.142,0-.213h.014v5.028c-6.115,7.8-26.687,13.619-51.105,13.619-24.365,0-44.87-5.8-51.026-13.568V1664.5c.907,8.049,23.414,14.493,51.047,14.493C309.173,1679,332.04,1672.282,332.04,1664Z" transform="translate(-228.021 -1541.784)" fill="#66662b" fill-rule="evenodd"/>
            <path id="Trazado_28322" data-name="Trazado 28322" d="M344.02,1518.638h0c2.186,0,3,1.567,3.974,3.084l20.063,31.137c.977,1.517-.48,5.5-2.646,5.793-20.949,2.884-22.472,2.655-43.47,0-2.168-.274-2.992-4.191-2.014-5.709l20.118-31.221C341.023,1520.2,341.834,1518.638,344.02,1518.638Z" transform="translate(-291.817 -1443.806)" fill="#fc0" fill-rule="evenodd"/>
            <path id="Trazado_28323" data-name="Trazado 28323" d="M344.505,1301.49c-2.81-4.67-22.575-8.288-46.539-8.288-25.488,0-46.225,4.093-46.866,9.19,7.136,3.736,24.676,6.923,46.438,6.923S338.686,1305.7,344.505,1301.49Z" transform="translate(-244.108 -1286.608)" fill="#66662b" fill-rule="evenodd"/>
            <path id="Trazado_28324" data-name="Trazado 28324" d="M489.775,1308.532v-2.342h-3.833a17.028,17.028,0,0,0-6.935,0h-3.873v2.657c0,1.664,3.287,3.014,7.341,3.014s7.34-1.349,7.34-3.014A1.276,1.276,0,0,0,489.775,1308.532Z" transform="translate(-400.328 -1295.416)" fill="#303000" fill-rule="evenodd"/>
            <path id="Trazado_28325" data-name="Trazado 28325" d="M482.567,1302.968c4.021,0,7.3-1.394,7.3-3.1s-3.28-3.1-7.3-3.1-7.3,1.394-7.3,3.1S478.546,1302.968,482.567,1302.968Z" transform="translate(-400.42 -1289.091)" fill="#7b7b36" fill-rule="evenodd"/>
            <path id="Trazado_28326" data-name="Trazado 28326" d="M334.573,1283.591c0,5.521-22.06,10-49.272,10s-49.272-4.475-49.272-10,22.06-10,49.272-10,49.272,4.476,49.272,10Zm1.793,0c0-6.724-22.863-12.174-51.066-12.174s-51.066,5.451-51.066,12.174,22.843,12.286,51.046,12.286S336.367,1290.315,336.367,1283.591Z" transform="translate(-232.347 -1271.417)" fill="#7b7b36" fill-rule="evenodd"/>
            <path id="Trazado_28327" data-name="Trazado 28327" d="M460.583,1337.084a28.871,28.871,0,0,1-5.614,3.307,47.832,47.832,0,0,1-7.425,2.093L415.8,1480.1c8.355-.636,16.71-1.273,24.175-3.307s14.039-5.465,20.613-8.9Z" transform="translate(-358.951 -1317.207)" fill-rule="evenodd" opacity="0.13"/>
            <path id="Trazado_28328" data-name="Trazado 28328" d="M243.968,1334.717a42.615,42.615,0,0,0,9.151,4.5,85.41,85.41,0,0,0,12.294,2.865,30.7,30.7,0,0,0,5.769.517q.418,67.138.836,134.276c-5.53-.995-11.061-1.99-15.735-3.879s-8.494-4.675-12.314-7.46Z" transform="translate(-239.134 -1315.557)" fill="#fff" fill-rule="evenodd" opacity="0.13"/>
            <path id="Trazado_28329" data-name="Trazado 28329" d="M297.591,1358.672q-.194,64.468-.388,128.935a25.236,25.236,0,0,0,3.939,1.313,5.62,5.62,0,0,0,2.507-.119q-.239-64.572-.477-129.144c-1.114-.1-2.228-.2-3.158-.363A19.161,19.161,0,0,1,297.591,1358.672Z" transform="translate(-276.255 -1332.26)" fill="#fff" fill-rule="evenodd" opacity="0.29"/>
            <path id="Trazado_28330" data-name="Trazado 28330" d="M284.052,1300.116l39.985,11.219c-9.509,1.193-19.018,2.387-29.561,2.009s-22.121-2.327-27.89-4.078-5.729-3.3-1.85-4.794S276.333,1301.548,284.052,1300.116Z" transform="translate(-251.716 -1291.429)" fill="#131313" fill-rule="evenodd" opacity="0.13"/>
            <path id="Trazado_28331" data-name="Trazado 28331" d="M385.141,1553.661l-15.875,30.2a108.031,108.031,0,0,0,11.757.318c4.6-.159,10.2-.716,13.706-1.213s4.894-.935,5.749-1.552a2.623,2.623,0,0,0,1.154-2.327c-.02-.915-.378-1.95-3.183-6.206S390.392,1561.141,385.141,1553.661Z" transform="translate(-326.505 -1468.228)" fill="#b30000" fill-rule="evenodd" opacity="0.18"/>
            <path id="Trazado_28332" data-name="Trazado 28332" d="M396.445,1597.64a2.174,2.174,0,1,0-2.174-2.174A2.178,2.178,0,0,0,396.445,1597.64Z" transform="translate(-343.942 -1495.863)" fill="#131313" fill-rule="evenodd"/>
            <path id="Trazado_28333" data-name="Trazado 28333" d="M369.668,1574.5l-5.859-7.428a12.855,12.855,0,0,0-4.9,10.112h9.46A3.413,3.413,0,0,1,369.668,1574.5Z" transform="translate(-319.282 -1477.577)" fill="#131313" fill-rule="evenodd"/>
            <path id="Trazado_28334" data-name="Trazado 28334" d="M414.3,1567.068l-5.859,7.428a3.412,3.412,0,0,1,1.3,2.684h9.46A12.855,12.855,0,0,0,414.3,1567.068Z" transform="translate(-353.826 -1477.577)" fill="#131313" fill-rule="evenodd"/>
            <path id="Trazado_28335" data-name="Trazado 28335" d="M393.771,1619.081l-4.072-8.539a3.411,3.411,0,0,1-2.983-.019l-4.182,8.486A12.854,12.854,0,0,0,393.771,1619.081Z" transform="translate(-335.757 -1507.878)" fill="#131313" fill-rule="evenodd"/>
          </g>
          <g id="Grupo_11564" data-name="Grupo 11564" transform="translate(101.334 11.577)">
            <ellipse id="Elipse_943" data-name="Elipse 943" cx="51.066" cy="11.725" rx="51.066" ry="11.725" transform="translate(1.888 0.899)" fill="#303000"/>
            <path id="Trazado_28336" data-name="Trazado 28336" d="M671.142,1349.885c0,6.724-22.863,12.175-51.066,12.175s-51.066-5.451-51.066-12.175v137.738c0,9.295,22.863,16.829,51.066,16.829s51.066-7.535,51.066-16.829Z" transform="translate(-567.122 -1337.711)" fill="#565624" fill-rule="evenodd"/>
            <path id="Trazado_28337" data-name="Trazado 28337" d="M564.662,1443.549a3.837,3.837,0,0,1,0-.929v-4a6.229,6.229,0,0,0,0,8.933v-4.009Zm102.132-4.881v8.842a6.208,6.208,0,0,0,0-8.842Zm-.009,4.417q0-.1-.005-.2h.014v4.622c-6.115,7.168-26.687,12.52-51.105,12.52-24.365,0-44.871-5.329-51.026-12.473v-4.009c.907,7.4,23.414,13.323,51.047,13.323C643.917,1456.872,666.784,1450.7,666.784,1443.084Z" transform="translate(-562.774 -1399.589)" fill="#66662b" fill-rule="evenodd"/>
            <path id="Trazado_28338" data-name="Trazado 28338" d="M564.693,1702.752a4.5,4.5,0,0,1,0-1.01V1697.4a7.2,7.2,0,0,0,0,9.718v-4.361Zm102.132-5.309v9.619a7.176,7.176,0,0,0,0-9.619Zm-.009,4.8c0-.071,0-.142-.005-.213h.015v5.027c-6.115,7.8-26.687,13.619-51.105,13.619-24.365,0-44.871-5.8-51.026-13.568v-4.361c.907,8.049,23.414,14.493,51.047,14.493C643.948,1717.245,666.815,1710.53,666.815,1702.247Z" transform="translate(-562.796 -1580.032)" fill="#66662b" fill-rule="evenodd"/>
            <path id="Trazado_28339" data-name="Trazado 28339" d="M678.795,1556.886h0c2.186,0,3,1.567,3.974,3.084l20.063,31.136c.977,1.517-.48,5.5-2.646,5.793-20.949,2.884-22.472,2.655-43.47,0-2.168-.274-2.992-4.191-2.014-5.708l20.118-31.221C675.8,1558.453,676.609,1556.886,678.795,1556.886Z" transform="translate(-626.592 -1482.054)" fill="#fc0" fill-rule="evenodd"/>
            <path id="Trazado_28340" data-name="Trazado 28340" d="M679.28,1339.738c-2.81-4.67-22.574-8.288-46.538-8.288-25.488,0-46.224,4.093-46.866,9.191,7.136,3.736,24.676,6.923,46.438,6.923S673.461,1343.943,679.28,1339.738Z" transform="translate(-578.883 -1324.856)" fill="#66662b" fill-rule="evenodd"/>
            <path id="Trazado_28341" data-name="Trazado 28341" d="M648.488,1345.794v-2.342h-3.833a17.023,17.023,0,0,0-6.935,0h-3.873v2.657c0,1.665,3.286,3.014,7.34,3.014s7.34-1.349,7.34-3.014A1.291,1.291,0,0,0,648.488,1345.794Z" transform="translate(-612.334 -1332.977)" fill="#303000" fill-rule="evenodd"/>
            <path id="Trazado_28342" data-name="Trazado 28342" d="M641.279,1340.23c4.021,0,7.3-1.394,7.3-3.1s-3.28-3.1-7.3-3.1-7.3,1.393-7.3,3.1S637.258,1340.23,641.279,1340.23Z" transform="translate(-612.425 -1326.652)" fill="#7b7b36" fill-rule="evenodd"/>
            <path id="Trazado_28343" data-name="Trazado 28343" d="M669.348,1321.839c0,5.521-22.06,10-49.272,10s-49.272-4.475-49.272-10,22.06-10,49.272-10,49.272,4.476,49.272,10Zm1.793,0c0-6.723-22.863-12.174-51.066-12.174s-51.066,5.451-51.066,12.174,22.843,12.286,51.046,12.286S671.142,1328.563,671.142,1321.839Z" transform="translate(-567.122 -1309.665)" fill="#7b7b36" fill-rule="evenodd"/>
            <path id="Trazado_28344" data-name="Trazado 28344" d="M795.357,1375.332a28.874,28.874,0,0,1-5.614,3.307,47.839,47.839,0,0,1-7.425,2.094q-15.874,68.809-31.749,137.618c8.355-.637,16.71-1.273,24.175-3.307s14.039-5.465,20.613-8.9Z" transform="translate(-693.725 -1355.455)" fill-rule="evenodd" opacity="0.13"/>
            <path id="Trazado_28345" data-name="Trazado 28345" d="M578.743,1372.966a42.632,42.632,0,0,0,9.151,4.5,85.388,85.388,0,0,0,12.294,2.864,30.692,30.692,0,0,0,5.769.517q.418,67.138.835,134.277c-5.53-.995-11.06-1.99-15.735-3.879s-8.494-4.675-12.314-7.46Z" transform="translate(-573.909 -1353.805)" fill="#fff" fill-rule="evenodd" opacity="0.13"/>
            <path id="Trazado_28346" data-name="Trazado 28346" d="M632.366,1396.92q-.194,64.468-.388,128.935a25.235,25.235,0,0,0,3.939,1.313,5.616,5.616,0,0,0,2.507-.119q-.239-64.572-.478-129.144c-1.114-.1-2.228-.2-3.158-.363A19.189,19.189,0,0,1,632.366,1396.92Z" transform="translate(-611.03 -1370.509)" fill="#fff" fill-rule="evenodd" opacity="0.29"/>
            <path id="Trazado_28347" data-name="Trazado 28347" d="M700.255,1336.393l-39.984,11.219c9.509,1.193,19.018,2.387,29.561,2.009s22.121-2.328,27.89-4.078,5.729-3.3,1.85-4.794S707.974,1337.825,700.255,1336.393Z" transform="translate(-630.759 -1328.303)" fill="#131313" fill-rule="evenodd" opacity="0.13"/>
            <path id="Trazado_28348" data-name="Trazado 28348" d="M719.915,1591.909l-15.874,30.2a108.093,108.093,0,0,0,11.757.318c4.6-.159,10.2-.716,13.706-1.213s4.894-.935,5.749-1.552a2.623,2.623,0,0,0,1.154-2.328c-.02-.915-.378-1.949-3.183-6.206S725.167,1599.389,719.915,1591.909Z" transform="translate(-661.281 -1506.476)" fill="#b30000" fill-rule="evenodd" opacity="0.18"/>
            <path id="Trazado_28349" data-name="Trazado 28349" d="M731.219,1635.889a2.174,2.174,0,1,0-2.174-2.174A2.178,2.178,0,0,0,731.219,1635.889Z" transform="translate(-678.716 -1534.112)" fill="#131313" fill-rule="evenodd"/>
            <path id="Trazado_28350" data-name="Trazado 28350" d="M704.443,1612.745l-5.859-7.428a12.855,12.855,0,0,0-4.9,10.112h9.46A3.412,3.412,0,0,1,704.443,1612.745Z" transform="translate(-654.057 -1515.825)" fill="#131313" fill-rule="evenodd"/>
            <path id="Trazado_28351" data-name="Trazado 28351" d="M749.079,1605.316l-5.859,7.428a3.411,3.411,0,0,1,1.3,2.684h9.46A12.856,12.856,0,0,0,749.079,1605.316Z" transform="translate(-688.6 -1515.825)" fill="#131313" fill-rule="evenodd"/>
            <path id="Trazado_28352" data-name="Trazado 28352" d="M728.547,1657.33l-4.073-8.539a3.411,3.411,0,0,1-2.982-.019l-4.182,8.485A12.856,12.856,0,0,0,728.547,1657.33Z" transform="translate(-670.532 -1546.127)" fill="#131313" fill-rule="evenodd"/>
          </g>
          <g id="Grupo_11565" data-name="Grupo 11565" transform="translate(36.881 31.629)">
            <ellipse id="Elipse_944" data-name="Elipse 944" cx="51.066" cy="11.725" rx="51.066" ry="11.725" transform="translate(1.888 0.899)" fill="#303000"/>
            <path id="Trazado_28353" data-name="Trazado 28353" d="M458.211,1416.13c0,6.724-22.863,12.174-51.066,12.174s-51.066-5.451-51.066-12.174v137.738c0,9.294,22.863,16.829,51.066,16.829s51.066-7.535,51.066-16.829Z" transform="translate(-354.191 -1403.956)" fill="#565624" fill-rule="evenodd"/>
            <path id="Trazado_28354" data-name="Trazado 28354" d="M351.731,1509.793a3.8,3.8,0,0,1,0-.929v-4a6.229,6.229,0,0,0,0,8.933v-4.009Zm102.132-4.881v8.842a6.208,6.208,0,0,0,0-8.842Zm-.009,4.416c0-.065,0-.13,0-.2h.014v4.622c-6.115,7.168-26.687,12.52-51.105,12.52-24.365,0-44.87-5.329-51.026-12.473v-4.009c.907,7.4,23.414,13.323,51.047,13.323C430.986,1523.117,453.853,1516.943,453.853,1509.329Z" transform="translate(-349.843 -1465.834)" fill="#8f8f39" fill-rule="evenodd"/>
            <path id="Trazado_28355" data-name="Trazado 28355" d="M351.761,1769a4.5,4.5,0,0,1,0-1.01v-4.347a7.2,7.2,0,0,0,0,9.718V1769Zm102.132-5.309v9.619a7.176,7.176,0,0,0,0-9.619Zm-.009,4.8c0-.071,0-.142,0-.213h.014v5.028c-6.115,7.8-26.687,13.619-51.105,13.619-24.365,0-44.871-5.8-51.026-13.568V1769c.907,8.049,23.414,14.493,51.047,14.493C431.016,1783.489,453.883,1776.774,453.883,1768.491Z" transform="translate(-349.864 -1646.276)" fill="#8f8f39" fill-rule="evenodd"/>
            <path id="Trazado_28356" data-name="Trazado 28356" d="M465.863,1623.131h0c2.186,0,3,1.567,3.975,3.084l20.063,31.137c.977,1.517-.48,5.5-2.646,5.793-20.949,2.884-22.472,2.655-43.47,0-2.168-.274-2.992-4.191-2.014-5.709l20.118-31.221C462.867,1624.7,463.677,1623.131,465.863,1623.131Z" transform="translate(-413.661 -1548.299)" fill="#fc0" fill-rule="evenodd"/>
            <path id="Trazado_28357" data-name="Trazado 28357" d="M466.349,1405.983c-2.81-4.67-22.574-8.288-46.539-8.288-25.487,0-46.224,4.093-46.865,9.19,7.136,3.737,24.676,6.923,46.438,6.923S460.53,1410.188,466.349,1405.983Z" transform="translate(-365.952 -1391.101)" fill="#66662b" fill-rule="evenodd"/>
            <path id="Trazado_28358" data-name="Trazado 28358" d="M435.557,1412.039V1409.7h-3.833a17.006,17.006,0,0,0-6.935,0h-3.873v2.657c0,1.665,3.286,3.014,7.34,3.014s7.34-1.349,7.34-3.014A1.289,1.289,0,0,0,435.557,1412.039Z" transform="translate(-399.403 -1399.221)" fill="#303000" fill-rule="evenodd"/>
            <ellipse id="Elipse_945" data-name="Elipse 945" cx="7.301" cy="3.102" rx="7.301" ry="3.102" transform="translate(21.553 7.374)" fill="#8f8f39"/>
            <path id="Trazado_28359" data-name="Trazado 28359" d="M456.417,1388.084c0,5.521-22.06,10-49.272,10s-49.272-4.475-49.272-10,22.06-10,49.272-10,49.272,4.475,49.272,10Zm1.793,0c0-6.724-22.863-12.174-51.066-12.174s-51.066,5.451-51.066,12.174,22.843,12.286,51.046,12.286S458.211,1394.808,458.211,1388.084Z" transform="translate(-354.191 -1375.91)" fill="#8f8f39" fill-rule="evenodd"/>
            <path id="Trazado_28360" data-name="Trazado 28360" d="M582.427,1441.577a28.908,28.908,0,0,1-5.614,3.307,47.878,47.878,0,0,1-7.425,2.094q-15.875,68.809-31.749,137.618c8.355-.636,16.71-1.273,24.174-3.307s14.039-5.466,20.613-8.9Z" transform="translate(-480.794 -1421.7)" fill-rule="evenodd" opacity="0.13"/>
            <path id="Trazado_28361" data-name="Trazado 28361" d="M365.812,1439.211a42.621,42.621,0,0,0,9.151,4.5,85.39,85.39,0,0,0,12.294,2.865,30.683,30.683,0,0,0,5.769.517q.418,67.138.835,134.276c-5.53-.994-11.06-1.989-15.735-3.879s-8.494-4.675-12.314-7.46Z" transform="translate(-360.978 -1420.05)" fill="#fff" fill-rule="evenodd" opacity="0.13"/>
            <path id="Trazado_28362" data-name="Trazado 28362" d="M419.435,1463.165q-.194,64.468-.388,128.935a25.275,25.275,0,0,0,3.939,1.313,5.612,5.612,0,0,0,2.506-.12q-.238-64.571-.477-129.144c-1.114-.1-2.228-.2-3.158-.363A19.269,19.269,0,0,1,419.435,1463.165Z" transform="translate(-398.099 -1436.754)" fill="#fff" fill-rule="evenodd" opacity="0.29"/>
            <path id="Trazado_28363" data-name="Trazado 28363" d="M487.324,1402.637l-39.984,11.22c9.509,1.193,19.017,2.387,29.561,2.009s22.121-2.328,27.89-4.078,5.729-3.3,1.85-4.794S495.043,1404.069,487.324,1402.637Z" transform="translate(-417.828 -1394.547)" fill="#131313" fill-rule="evenodd" opacity="0.13"/>
            <path id="Trazado_28364" data-name="Trazado 28364" d="M506.984,1658.154l-15.874,30.2a108.146,108.146,0,0,0,11.757.318c4.6-.159,10.2-.716,13.706-1.214s4.894-.935,5.749-1.552a2.623,2.623,0,0,0,1.154-2.327c-.02-.915-.378-1.95-3.183-6.206S512.236,1665.634,506.984,1658.154Z" transform="translate(-448.349 -1572.721)" fill="#b30000" fill-rule="evenodd" opacity="0.18"/>
            <path id="Trazado_28365" data-name="Trazado 28365" d="M518.288,1702.133a2.174,2.174,0,1,0-2.174-2.174A2.178,2.178,0,0,0,518.288,1702.133Z" transform="translate(-465.785 -1600.356)" fill="#131313" fill-rule="evenodd"/>
            <path id="Trazado_28366" data-name="Trazado 28366" d="M491.512,1678.99l-5.859-7.428a12.855,12.855,0,0,0-4.9,10.112h9.46A3.413,3.413,0,0,1,491.512,1678.99Z" transform="translate(-441.126 -1582.07)" fill="#131313" fill-rule="evenodd"/>
            <path id="Trazado_28367" data-name="Trazado 28367" d="M536.148,1671.561l-5.859,7.428a3.413,3.413,0,0,1,1.3,2.684h9.46A12.856,12.856,0,0,0,536.148,1671.561Z" transform="translate(-475.669 -1582.07)" fill="#131313" fill-rule="evenodd"/>
            <path id="Trazado_28368" data-name="Trazado 28368" d="M515.615,1723.575l-4.073-8.539a3.412,3.412,0,0,1-2.982-.019l-4.182,8.485A12.856,12.856,0,0,0,515.615,1723.575Z" transform="translate(-457.601 -1612.372)" fill="#131313" fill-rule="evenodd"/>
          </g>
          <path id="Trazado_28369" data-name="Trazado 28369" d="M692.706,1423.928l18.983,132.055c-2.517.029-5.035.058-7.119.05s-3.735-.055-5.26-.12-2.922-.146-4.058-.224-2.012-.149-2.887-.221Q692.535,1489.7,692.706,1423.928Z" transform="translate(-551.805 -1377.764)" fill-rule="evenodd" opacity="0.5"/>
          <path id="Trazado_28370" data-name="Trazado 28370" d="M332.265,1435.363l-10.338,115.052c1.919.3,3.838.594,5.237.8s2.277.306,3.041.392,1.411.152,2.06.219Z" transform="translate(-293.496 -1385.738)" fill-rule="evenodd" opacity="0.5"/>
          <path id="Trazado_28371" data-name="Trazado 28371" d="M547.017,1321.469c.892,2.217,2.651,6.6,4.41,10.985l2.387.149q-.4-4.177-.8-8.353a5.755,5.755,0,0,1,.222-1.286,2.558,2.558,0,0,1,.544-.832q.016-4.505.032-9.01c-.186.454-.373.907-.589,1.347a4.094,4.094,0,0,1-.893,1.267,9.994,9.994,0,0,1-1.686,1.152c-.644.379-1.322.763-2.089,1.141s-1.625.749-2.483,1.12C546.1,1319.2,546.125,1319.252,547.017,1321.469Z" transform="translate(-449.795 -1300.498)" fill-rule="evenodd" opacity="0.5"/>
        </g>
        <path id="Trazado_28372" data-name="Trazado 28372" d="M145.3,1843.08a124.281,124.281,0,0,0-14.622,2.615c-5.192,1.259-8.1,2.519-9.528,3.8s-1.392,2.576.657,3.549,6.107,1.622,11.06,1.985,10.8.439,14.78.534,6.087.21,6.565.954-.676,2.118-1.412,3.282-1.055,2.118.875,2.71,6.107.821,11.339.954,11.518.172,16.392.42a46.2,46.2,0,0,1,10.378,1.354c2.043.647,2.668,1.484,2.9,2.064s.076.9.818.636,2.383-1.119,2.428-2.042-1.507-1.915-4.868-2.583a96.2,96.2,0,0,0-13.647-1.183c-5.112-.172-10.165-.172-12.015-1.068s-.5-2.691,1.313-4.37,4.078-3.244,3.839-4.16-2.984-1.183-8.036-1.2-12.413.21-19.1.267-12.692-.057-13.467-1.164,3.68-3.206,7.7-4.79S147.254,1842.985,145.3,1843.08Z" transform="translate(-116.72 -1670.038)" fill="#4c4c4c" fill-rule="evenodd"/>
        <path id="Trazado_28373" data-name="Trazado 28373" d="M413.007,1910.13c3.163,1.163,11.856,2.639,22.887,2.974a243.3,243.3,0,0,0,32.773-1.488c8.375-1.017,11.757-2.245,12.175-4.087s-2.129-4.3-3.09-6.317-.337-3.6,2.9-4.576,9.085-1.345,14.734-1.788,11.1-.959,13.427-2.085,1.532-2.86.438-4.3-2.486-2.583-2.506-3.653,1.333-2.067,2.069-2.657.855-.775-.02-.646a11.362,11.362,0,0,0-3.939,1.347c-1.193.775-1.711,1.882-1.293,2.934s1.77,2.048.477,2.915-5.232,1.605-11,2.454-13.368,1.808-17.943,2.8-6.127,2.03-6.216,3.082,1.283,2.122,1.826,3.9.258,4.258-5.893,5.768-18.165,2.047-27.515,1.978-16.033-.743-20.559-.656S409.843,1908.967,413.007,1910.13Z" transform="translate(-319.911 -1696.81)" fill="#4c4c4c" fill-rule="evenodd"/>
        <ellipse id="Elipse_946" data-name="Elipse 946" cx="8.594" cy="3.531" rx="8.594" ry="3.531" transform="translate(176.805 205.49)"/>
        <path id="Trazado_28374" data-name="Trazado 28374" d="M765.91,1948.624c1.775,0,3.223-.777,3.223-1.73s-1.448-1.731-3.223-1.731-3.222.778-3.222,1.731S764.136,1948.624,765.91,1948.624Z" transform="translate(-564.757 -1741.225)" fill-rule="evenodd"/>
        <path id="Trazado_28375" data-name="Trazado 28375" d="M771.857,1894.23c3.747,0,6.8-1.314,6.8-2.924s-3.056-2.924-6.8-2.924-6.8,1.314-6.8,2.924S768.11,1894.23,771.857,1894.23Z" transform="translate(-566.406 -1701.63)" fill-rule="evenodd"/>
        <path id="Trazado_28376" data-name="Trazado 28376" d="M987.168,1845c2.235,0,4.058-.885,4.058-1.969s-1.823-1.969-4.058-1.969-4.058.885-4.058,1.969S984.933,1845,987.168,1845Z" transform="translate(-718.458 -1668.636)" fill-rule="evenodd"/>
        <ellipse id="Elipse_947" data-name="Elipse 947" cx="7.042" cy="2.865" rx="7.042" ry="2.865" transform="translate(51.361 201.074)"/>
        <path id="Trazado_28377" data-name="Trazado 28377" d="M244.479,1954.55c2.564,0,4.655-1.046,4.655-2.327s-2.091-2.327-4.655-2.327-4.655,1.045-4.655,2.327S241.915,1954.55,244.479,1954.55Z" transform="translate(-200.16 -1744.525)" fill-rule="evenodd"/>
        <path id="Trazado_28378" data-name="Trazado 28378" d="M167.206,1821.857c2.137,0,3.879-.911,3.879-2.029s-1.742-2.029-3.879-2.029-3.879.911-3.879,2.029S165.07,1821.857,167.206,1821.857Z" transform="translate(-146.818 -1652.413)" fill-rule="evenodd"/>
        <path id="Trazado_28379" data-name="Trazado 28379" d="M947.039,1784.6a7.616,7.616,0,0,1,3.476,3.63c.448,1.363-.1,2.735-1.845,3.959a23.485,23.485,0,0,1-7.932,3,77,77,0,0,1-9.564,1.263c-2.78.234-4.8.373-5,.174s1.407-.736,4.262-1.308a73.036,73.036,0,0,0,9.787-2.218c2.835-1.04,4.406-2.512,4.864-3.969a4.751,4.751,0,0,0-.9-3.964c-.7-1.064-1.447-1.751-.955-1.855A8.327,8.327,0,0,1,947.039,1784.6Z" transform="translate(-678.742 -1628.358)" fill="#4c4c4c" fill-rule="evenodd"/>
      </g>
      <g id="Grupo_11569" data-name="Grupo 11569" transform="translate(257.27 1105.058)">
        <g id="Grupo_11568" data-name="Grupo 11568" transform="translate(0 0)">
          <path id="Trazado_28380" data-name="Trazado 28380" d="M618.534,1118.331l-19.2,3.529,19.533,1.614Q618.7,1120.9,618.534,1118.331Z" transform="translate(-599.331 -1114.313)" fill="#666" fill-rule="evenodd"/>
          <path id="Trazado_28381" data-name="Trazado 28381" d="M657.747,1108.232c1.376-2.278,4.76-3.316,7.963-3.158s6.226,1.512,9.216,5.96,5.948,11.993,10.969,17.074,12.1,7.7,18.149,11.036,11.054,7.4,17.641,10.2,14.753,4.331,22.919,5.865a27.117,27.117,0,0,1-6.226,4.737c-2.075.947-4.151.947-7.106-.136a83.393,83.393,0,0,1-10.625-5.414c.226,1.579.451,3.158-.474,3.677s-3-.023-4.715-.925a20.705,20.705,0,0,1-4.421-3.429c-5.55,1.669-11.1,3.339-17.1,3.632a50.331,50.331,0,0,1-17.483-2.459c-5.03-1.669-8.64-3.925-10.647-7.918s-2.414-9.723-2.133-14.668a74.771,74.771,0,0,1,2.215-13.266c-2.752-.5-5.5-.993-7.2-3S656.371,1110.511,657.747,1108.232Z" transform="translate(-639.541 -1105.058)" fill="#ccc" fill-rule="evenodd"/>
          <path id="Trazado_28382" data-name="Trazado 28382" d="M671.025,1122.083a1.566,1.566,0,1,0-1.624-1.565A1.6,1.6,0,0,0,671.025,1122.083Z" transform="translate(-648.191 -1114.747)" fill="#303030" fill-rule="evenodd"/>
          <path id="Trazado_28383" data-name="Trazado 28383" d="M676.883,1119.855a.809.809,0,1,0-1-.787A.914.914,0,0,0,676.883,1119.855Z" transform="translate(-652.713 -1114.279)" fill="#fff" fill-rule="evenodd"/>
          <path id="Trazado_28384" data-name="Trazado 28384" d="M686.558,1162.318c-.294,1.641-.109,3.807-.774,4.473s-2.182-.17-2.987-2.089-.9-4.922-1.238-6.361c-.3-1.266-.79-1.323-1.4-.6a59.956,59.956,0,0,0-1.279,9.1c-.281,4.945.125,10.675,2.133,14.668s5.617,6.249,10.648,7.918a50.333,50.333,0,0,0,17.483,2.459c6-.293,11.55-1.962,17.1-3.632a20.7,20.7,0,0,0,4.421,3.429c1.714.9,3.79,1.444,4.714.925s.7-2.1.474-3.677a83.371,83.371,0,0,0,10.625,5.414c2.955,1.083,5.031,1.083,7.106.136a27.133,27.133,0,0,0,6.226-4.737c-8.166-1.534-16.332-3.068-22.919-5.865s-11.595-6.858-17.64-10.2-13.129-5.955-18.149-11.036a39.462,39.462,0,0,1-5.836-8.057,3.647,3.647,0,0,0-1.046.13c-.8.263-.8.975-.139,2.213a35,35,0,0,0,3.56,4.891c1.563,1.888,3.358,3.9,4.117,5.711s.48,3.42-1.238,3.188-4.875-2.306-7.135-4.659-3.622-4.984-4.69-5.742S686.851,1160.678,686.558,1162.318Z" transform="translate(-654.746 -1139.596)" fill="#131313" fill-rule="evenodd"/>
          <path id="Trazado_28385" data-name="Trazado 28385" d="M695.477,1224.4a71.13,71.13,0,0,0,.761,8.975,14.473,14.473,0,0,0,2.051,5.52,3.283,3.283,0,0,0,2.325,1.642,2.794,2.794,0,0,0,1.881-.536c.444-.329.639-.706.895-.883a.465.465,0,0,1,.742.215,4.244,4.244,0,0,1,0,2.212,25.426,25.426,0,0,0-.609,3.828,2.231,2.231,0,0,0,1.089,2.23,1.739,1.739,0,0,0,2.094-.6,4.7,4.7,0,0,0,.311-3.136c-.195-1.189-.609-2.329-.664-2.936s.25-.682.432-.405.244.9.505,1.451a2.091,2.091,0,0,0,1.2,1.135,1.533,1.533,0,0,0,1.449-.565,7.558,7.558,0,0,0,1.364-2.034,4.314,4.314,0,0,0,.584-2.128c-.1-.443-.584-.456-1.071-.469L703,1235.869a26.22,26.22,0,0,1-4.76-5.012A27.452,27.452,0,0,1,695.477,1224.4Z" transform="translate(-666.374 -1188.279)" fill="#131313" fill-rule="evenodd"/>
          <path id="Trazado_28386" data-name="Trazado 28386" d="M735.105,1270.423q.233,9.523.464,19.046l-10.029,1.273a10.964,10.964,0,0,1,2.29,1.137,1.394,1.394,0,0,1,.6,1.647,11.333,11.333,0,0,1-1.54,2.665c2.058-.713,4.117-1.426,5.378-1.129s1.726,1.6,2.19,2.911l2.089-8.352q.627-9.269,1.254-18.537Z" transform="translate(-687.338 -1220.368)" fill="#131313" fill-rule="evenodd"/>
          <path id="Trazado_28387" data-name="Trazado 28387" d="M748.464,1270.964l.288,19.647,1.151-.448,1.254-18.537Z" transform="translate(-703.323 -1220.746)" fill="#131313" fill-rule="evenodd"/>
        </g>
        <path id="Trazado_28388" data-name="Trazado 28388" d="M688.656,1204.467a18.539,18.539,0,0,0-.432,6.741,13.852,13.852,0,0,0,2.737,5.8,7.324,7.324,0,0,0,2.966,2.221c-.794-2.472-1.589-4.944-2.446-7.318s-1.779-4.651-2.7-6.927Z" transform="translate(-661.2 -1174.377)" fill="#4c4c4c" fill-rule="evenodd"/>
        <path id="Trazado_28389" data-name="Trazado 28389" d="M711.558,1221.264a12.269,12.269,0,0,0,1.452,5.749,14.364,14.364,0,0,0,5.331,4.7,23.564,23.564,0,0,0,6.226,2.019c-3.322-2.566-6.644-5.132-8.813-7.211A25,25,0,0,1,711.558,1221.264Z" transform="translate(-677.588 -1186.089)" fill="#4c4c4c" fill-rule="evenodd"/>
        <path id="Trazado_28390" data-name="Trazado 28390" d="M750.469,1242.669a8.358,8.358,0,0,0,3.7,2.386,10.564,10.564,0,0,0,4.21-.01l-10.29-5.862A17.743,17.743,0,0,0,750.469,1242.669Z" transform="translate(-703.059 -1198.584)" fill="#4c4c4c" fill-rule="evenodd"/>
      </g>
      <path id="Trazado_28391" data-name="Trazado 28391" d="M694.393,1110.153c1.92,2.5,2.7,5.62,3.222,8.733s.806,6.217,2.715,9.33c1.669,2.721,4.584,5.449,7.655,8.178,1.184-.184,1.312-1.611.65-3.19-.759-1.811-2.554-3.823-4.117-5.711a34.975,34.975,0,0,1-3.56-4.891c-.665-1.238-.665-1.95.139-2.213a3.644,3.644,0,0,1,1.046-.13c-1.92-3.324-3.522-6.62-5.133-9.017-2.717-4.043-5.461-5.53-8.343-5.886A22.1,22.1,0,0,1,694.393,1110.153Z" transform="translate(-404.356 -0.208)" fill="#999" fill-rule="evenodd"/>
    </g>
  </g>
</svg>
