<svg xmlns="http://www.w3.org/2000/svg" xmlns:xlink="http://www.w3.org/1999/xlink" width="339.798" height="263" viewBox="0 0 339.798 263">
  <defs>
    <linearGradient id="linear-gradient" x1="0.783" y1="1.129" x2="0.323" y2="0.131" gradientUnits="objectBoundingBox">
      <stop offset="0" stop-color="#826c49"/>
      <stop offset="1" stop-color="#a0b291"/>
    </linearGradient>
    <linearGradient id="linear-gradient-2" x1="0.5" y1="0.457" x2="0.5" y2="0.651" xlink:href="#linear-gradient"/>
  </defs>
  <g id="Grupo_11559" data-name="Grupo 11559" transform="translate(-1105 -12990)">
    <circle id="Elipse_941" data-name="Elipse 941" cx="131.5" cy="131.5" r="131.5" transform="translate(1105 12990)" fill="#fae7b7"/>
    <g id="Grupo_11493" data-name="Grupo 11493" transform="translate(18.356 11842.471)">
      <g id="Grupo_11492" data-name="Grupo 11492" transform="translate(1137.633 1162.899)">
        <path id="Trazado_27915" data-name="Trazado 27915" d="M1295.922,1582.894c20.114-.791,40.518-1.6,60.833-.79s40.541,3.232,53.462,7.555,18.537,10.545,19.778,14.908-1.9,6.868-5.031,9.373c7.739,0,15.478,0,24.9,2.909s20.514,8.727,24.241,15.191.084,13.575-4.648,18.181-10.552,6.707-16.373,8.808c2.177.727,4.354,1.454,4.612,3.313s-1.4,4.848-4.689,7.6a36.923,36.923,0,0,1-12.211,6.424c-4.015,1.172-7.134,1.01-9.089.041s-2.749-2.747-3.542-4.525c-11.365,5.6-22.73,11.194-44.794,15.216s-54.827,6.471-85.967,2.865-60.656-13.268-76.129-21.169-16.9-14.042-15.5-19.9,5.632-11.434,15.547-13.9,25.514-1.818,41.112-1.172c-8.276-3.071-16.553-6.141-19.53-9.495s-.656-6.989,2.682-9.171,7.693-2.909,11.963-3.192a119.831,119.831,0,0,1,12.636.04c-15.755-2.343-31.511-4.687-37.18-9.148s-1.254-11.042,10.867-14.719S1275.808,1583.684,1295.922,1582.894Z" transform="translate(-1186.826 -1467.188)" fill="#705532" fill-rule="evenodd"/>
        <path id="Trazado_27916" data-name="Trazado 27916" d="M1218.72,1704.81a23.577,23.577,0,0,1,14.768,3.614c3.567,2.481,5.021,5.826.124,8.415s-16.143,4.423-22.388,3.237-7.49-5.393-5.435-8.791S1213.2,1705.3,1218.72,1704.81Z" transform="translate(-1186.482 -1556.51)" fill="#705532" fill-rule="evenodd"/>
        <path id="Trazado_27917" data-name="Trazado 27917" d="M1157.007,1769.268c3.082-1.456,7.314-1.888,9.321-.917s1.785,3.344.023,5.745-5.065,4.828-8.036,5.1-5.611-1.619-5.965-3.8S1153.925,1770.725,1157.007,1769.268Z" transform="translate(-1148.293 -1602.354)" fill="#705532" fill-rule="evenodd"/>
        <path id="Trazado_27918" data-name="Trazado 27918" d="M1933.965,1949.127c1.033-2.589,7.477-5.394,12.69-6.8s9.194-1.4,11.318.324,2.388,5.179-.636,7.768-9.338,4.315-14.683,3.992S1932.931,1951.717,1933.965,1949.127Z" transform="translate(-1716.021 -1728.383)" fill="#705532" fill-rule="evenodd"/>
        <path id="Trazado_27919" data-name="Trazado 27919" d="M1167.773,1252.521c-46.6-4.607-34.055-93.873,2.958-89.464l100.177,11.932-2.958,89.464Z" transform="translate(-1137.633 -1162.899)" fill="#445367" fill-rule="evenodd"/>
        <ellipse id="Elipse_931" data-name="Elipse 931" cx="44.779" cy="30.883" rx="44.779" ry="30.883" transform="translate(98.152 99.565) rotate(-86.385)" fill="#999"/>
        <ellipse id="Elipse_932" data-name="Elipse 932" cx="41.134" cy="27.8" rx="41.134" ry="27.8" transform="translate(102.118 96.188) rotate(-86.511)" fill="#403720"/>
        <path id="Trazado_27920" data-name="Trazado 27920" d="M1536.181,1458.656c15.925,1.665,31.851,3.33,43.488,7.246a50.1,50.1,0,0,1,24.718,17.417c5.732,7.336,9.846,15.842,13.614,25.4s7.191,20.177,10.613,30.794c-5.529,2.386-11.058,4.771-18.062,5.785s-15.481.656-22.8.119-13.479-1.253-19.64-1.968c.093-12.145.187-24.29-1.567-35.55s-5.354-21.638-8.955-32.016c-.517-.113-1.034-.226-1.644-.3a17.446,17.446,0,0,1-2.314-.349,20.561,20.561,0,0,1-3.476-1.208,21.932,21.932,0,0,1-3.279-1.868,25.77,25.77,0,0,1-3.424-2.732,27.276,27.276,0,0,1-3.94-4.617A52.673,52.673,0,0,1,1536.181,1458.656Z" transform="translate(-1427.159 -1377.753)" fill-rule="evenodd" fill="url(#linear-gradient)"/>
        <path id="Trazado_27921" data-name="Trazado 27921" d="M1150,1300.271a75.368,75.368,0,0,0,0,14.549,58.429,58.429,0,0,0,4.539,16.676,32.119,32.119,0,0,0,9.018,12.167c3.518,2.723,7.407,3.914,23.2,6.211s43.5,5.7,71.212,9.1a35.671,35.671,0,0,1-6.222-7.019,69.1,69.1,0,0,1-4.981-10.593c-18.448-5.529-36.9-11.058-53.024-17.907S1163.809,1308.44,1150,1300.271Z" transform="translate(-1146.355 -1262.693)" fill-rule="evenodd" opacity="0.24"/>
        <path id="Trazado_27922" data-name="Trazado 27922" d="M1280.582,1183.032c-28.172-3.871-56.344-7.742-71.515-9.635s-17.337-1.808-19.152-1.468a11.241,11.241,0,0,0-5.356,2.574,45,45,0,0,0-6.907,7.04,64.782,64.782,0,0,0-5.284,8.253l89.429,23.1a40.487,40.487,0,0,1,3.216-11.188,56.174,56.174,0,0,1,7.984-11.741A51.023,51.023,0,0,1,1280.582,1183.032Z" transform="translate(-1162.866 -1169.32)" fill="#fff" fill-rule="evenodd" opacity="0.16"/>
        <path id="Trazado_27923" data-name="Trazado 27923" d="M1270.324,1231.135l-88.319-18.89-2.325,3.539,88.3,22.142Z" transform="translate(-1168.178 -1198.747)" fill="#fff" fill-rule="evenodd" opacity="0.16"/>
        <path id="Trazado_27924" data-name="Trazado 27924" d="M1574.026,1246.817c-3.491-15.445-13.26-26.414-25.126-26.414q-.287,0-.573.009c-15.119.45-27.872,18.671-28.614,41.084a56.458,56.458,0,0,0,2.456,18.8q.626-.824,1.312-1.718c5.575-7.273,14.246-18.238,23.758-25.253a40.794,40.794,0,0,1,8.508-4.951C1561.782,1245.886,1567.886,1245.737,1574.026,1246.817Z" transform="translate(-1415.172 -1204.673)" fill="#141005" fill-rule="evenodd"/>
        <path id="Trazado_27925" data-name="Trazado 27925" d="M1435.212,1677.724c-2.779,2.808-7.619,6.125-14.552,8.508s-15.96,3.829-25.595,4.254-19.877-.17-27.358-1.829-12.2-4.382-13.175-6.466,1.8-3.531,4.574-4.977c-12.91-4.764-25.821-9.529-35.476-12.124s-16.054-3.02-20.824-1.829-7.909,4-7.632,6.551,3.969,4.849,9.467,6.466,12.8,2.553,19.028,3.4,11.371,1.616,16.517,2.382c-6.469-.766-12.937-1.531-18.491-2.084s-10.192-.893-15.683-.936-11.832.213-17.929.34-11.949.128-17.446,1.489-10.638,4.084-12.955,7.487-1.811,7.487.675,11.1,6.952,6.764,13.351,9.614a149.553,149.553,0,0,0,20.853,7.019c6.12,1.617,10.026,2.3,13.931,2.978-1.851-2.212-3.7-4.424-4.3-6.849a6.893,6.893,0,0,1,2.685-7.232c2.637-2.17,7.263-3.871,12.014-4.51s9.628-.213,14.5.213c-4.49,0-8.979,0-12.61,1.914s-6.4,5.743-6.4,9.4,2.77,7.147,8.9,9.572a88.067,88.067,0,0,0,27.968,6.423c11.926.6,31.763,1.957,46.435.723,14.584-1.226,48.606-4.941,50.857-15.4.395-1.835-1.821-1.914-4.85-2.425a250.185,250.185,0,0,0,24.607-5.913,174.671,174.671,0,0,0,29.529-11.7,60.483,60.483,0,0,0,16.706-12.5,11.233,11.233,0,0,0-1.5-6.6c-3.727-6.464-14.823-12.282-24.241-15.191s-17.156-2.909-24.9-2.909c3.136-2.5,6.272-5.01,5.031-9.373a15.436,15.436,0,0,0-4.878-6.928,16.564,16.564,0,0,1-.358,1.957,31.7,31.7,0,0,1-6.985,12.49c-3.582,4.093-8.27,7.666-13.188,11.079a99.872,99.872,0,0,1-16.212,9.43,76.935,76.935,0,0,1-20.537,6.055,118.382,118.382,0,0,1-19.467.629c-4.846-.127-7.171-.127-8.067.3s-.363,1.276,3.016,2.127a92.516,92.516,0,0,0,16.289,2c6.684.3,13.828.042,19.728-1.4a42.107,42.107,0,0,0,14.209-6.636,78.13,78.13,0,0,0,8.946-7.487A15.751,15.751,0,0,1,1435.212,1677.724Z" transform="translate(-1223.76 -1509.335)" fill-rule="evenodd" fill="url(#linear-gradient-2)"/>
        <path id="Trazado_27926" data-name="Trazado 27926" d="M1433.81,1625.622c.007-9.505-.231-18.9-1.607-27.77a124.562,124.562,0,0,0-3.464-15.325c-8.978.215-17.931.568-26.828.918-12.034.473-23.965.939-34.2,2.026-11.031,2.354-17.389,5.569-16.346,9.772,1.309,5.275,14.276,12.105,27.646,14.542s27.145.48,33.963-2.072,6.682-5.7,3.945-7.785-8.075-3.106-12.784-3.744-8.789-.893-12.87-1.149a184.761,184.761,0,0,1,20.092.936c5.987.766,10.91,2.212,13.9,3.914s4.048,3.658,2.858,5.7-4.627,4.169-10.818,5.913-15.135,3.105-24.079,4.467a20.868,20.868,0,0,0,9.891,6.381c5.238,1.617,13.387,2.467,23.352,2.978C1428.814,1625.444,1431.272,1625.545,1433.81,1625.622Z" transform="translate(-1292.815 -1467.739)" fill="#9f8e66" fill-rule="evenodd"/>
        <path id="Trazado_27927" data-name="Trazado 27927" d="M1809.767,1585.987a132.721,132.721,0,0,1,6.981,15.236c2.764,7.012,5.341,14.592,7.869,22.323q.376-.108.741-.219c8.139-2.467,12.343-5.956,14.139-9.359a8.6,8.6,0,0,0-.229-8.849c-1.412-2.127-3.627-3.063-5.84-4,3.115.341,6.231.681,8.6,1.787a8.288,8.288,0,0,1,4.636,5.275c.646,2.3.315,5.02-.016,7.742,3.564-1.106,7.128-2.212,9.573-4.637s3.772-6.168,2.337-11.273a26.187,26.187,0,0,0-1.589-4.115,55.769,55.769,0,0,0-7.672-3.177C1839.352,1589.4,1825.078,1587.193,1809.767,1585.987Z" transform="translate(-1625.907 -1470.253)" fill="#9f8e66" fill-rule="evenodd"/>
        <path id="Trazado_27928" data-name="Trazado 27928" d="M1574.176,1512.044a124.593,124.593,0,0,1,3.464,15.325c1.376,8.872,1.614,18.265,1.607,27.77,0,2.6-.022,5.209-.042,7.818,6.16.716,12.347,2.453,19.666,2.989,18.21,1.335,24.629.771,41.727-6.607-.913-2.83-2.716-5.98-3.635-8.79-2.528-7.731-5.105-15.31-7.869-22.323a132.721,132.721,0,0,0-6.981-15.236q-1.081-1.97-2.247-3.856.791,1.925,1.52,3.8c1.139,2.938,2.137,5.761,2.9,8.386a59.788,59.788,0,0,1,2.379,15.953c.081,4.211-.183,7.359-1.589,9.848s-3.951,4.318-7.608,5.211a24.311,24.311,0,0,1-13.084-.7,32.2,32.2,0,0,1-11.9-7.359,17.8,17.8,0,0,1-4.379-7.594c3.646,2.467,7.293,4.935,10.969,5.892s7.382.4,9.978-2.34,4.082-7.678,4.07-12.707a31.14,31.14,0,0,0-3.922-14.552q-.213-.391-.436-.775a68.082,68.082,0,0,0-8.543-11,59.69,59.69,0,0,1,5.616,10.887,23.829,23.829,0,0,1,.8,2.853,21.778,21.778,0,0,1-1.261,13.294,8.525,8.525,0,0,1-7.084,5.126c-2.834.255-5.887-.766-8.724-2.255a24.829,24.829,0,0,1-7.348-5.68c-1.89-2.233-3.05-4.743-4.367-8.54-.516-1.487-1.057-3.172-1.552-4.889a56,56,0,0,1-1.723-7.607c-.482-3.616.03-5.764.972-6.051s2.313,1.287,3.593,3.467a71.792,71.792,0,0,1,3.662,7.753,59.9,59.9,0,0,0-3.384-10.093,21.427,21.427,0,0,0-1.553-2.68,18.573,18.573,0,0,0-2.221-2.687,15.919,15.919,0,0,0-1.409-1.248,20.767,20.767,0,0,0-5.372-2.875l-.5-.2.5.284a17.227,17.227,0,0,1,1.712,1.1c.714.532,1.395,1.17,1.471,1.584s-.451.606-2.078.691c-.357.019-.766.032-1.218.033a20.859,20.859,0,0,1-5.976-.825,26.712,26.712,0,0,1-8.249-4.439c-.8-.617-1.537-1.256-2.241-1.909q-.423-.392-.829-.792a28.153,28.153,0,0,0,3.094,3.43,25.754,25.754,0,0,0,3.424,2.732,21.932,21.932,0,0,0,3.279,1.868,20.526,20.526,0,0,0,3.476,1.207,17.373,17.373,0,0,0,2.314.349c.61.075,1.127.188,1.644.3q.587,1.69,1.17,3.381c1.511,4.385,2.986,8.787,4.286,13.272Z" transform="translate(-1438.253 -1397.256)" fill="#705532" fill-rule="evenodd"/>
        <path id="Trazado_27929" data-name="Trazado 27929" d="M1664.695,1680.978a139.508,139.508,0,0,0,.673,16.087c.586,4.175,1.714,6.571,6.725,8.379a52.432,52.432,0,0,0,20.965,2.192,33.562,33.562,0,0,0,15.283-5.834,12.831,12.831,0,0,0,4.526-4.743c-5.267,1.7-10.535,3.4-15.975,3.658a32.808,32.808,0,0,1-15.569-3.148,34.371,34.371,0,0,1-10.526-8.381A71.033,71.033,0,0,1,1664.695,1680.978Z" transform="translate(-1520.519 -1539.26)" fill="#98774c" fill-rule="evenodd"/>
        <path id="Trazado_27930" data-name="Trazado 27930" d="M2041.2,1584.381c-.748-.185-1.258.09-1.862,1.126a32.118,32.118,0,0,0-1.669,3.768c-.367.934-1.18,2.506-1.214,2.579l1.091,1.1a84.875,84.875,0,0,1-4.118,8.331c-1.394,2.291-2.43,3.1-4.042,3.6a44.74,44.74,0,0,0-6.205,1.688c-2.407,1.025-5.033,2.9-8.037,7.71s-6.385,12.546-9.766,20.284c6.933,1.24,12.576,4.427,18.873,8.043a29.246,29.246,0,0,1,5.52,4.59c3.9-7.469,7.8-14.938,9.68-20.328s1.738-8.7,1.073-11.316a49.128,49.128,0,0,0-2.444-6.167c-.594-1.634-.6-2.984.323-5.522a88.55,88.55,0,0,1,3.987-8.825l1.5.24c.034-.072.675-1.307,1.171-2.174a32.017,32.017,0,0,0,1.885-3.656c.431-1.126.335-1.714-.258-2.224C2046.422,1587,2041.53,1584.463,2041.2,1584.381Z" transform="translate(-1768.005 -1469.047)" fill="#303000" fill-rule="evenodd"/>
        <path id="Trazado_27931" data-name="Trazado 27931" d="M2095.466,1620.582a49.009,49.009,0,0,0-2.445-6.167c-.594-1.635-.595-2.985.324-5.522a90.693,90.693,0,0,1,4.045-8.825l1.5.24c.035-.073.617-1.308,1.114-2.175a32.1,32.1,0,0,0,1.885-3.656c.431-1.126.335-1.714-.258-2.224-.1-.087-.878-.511-1.818-1.006-3.916,7.194-7.567,14.116-9.125,18.88-1.782,5.455-.82,8.081-.233,11.294s.8,7.009-1.877,13.361a120.734,120.734,0,0,1-7.573,14.088,44.545,44.545,0,0,1,3.7,3.357c3.9-7.469,7.8-14.938,9.68-20.328S2096.13,1623.2,2095.466,1620.582Z" transform="translate(-1822.953 -1474.074)" fill="#242404" fill-rule="evenodd"/>
        <path id="Trazado_27932" data-name="Trazado 27932" d="M2048.665,1684.46c3.085-1.5,8.36-1.452,11.393-.566s3.823,2.6,3.5,5.221a21.9,21.9,0,0,1-3.5,8.652,11.35,11.35,0,0,1-5.74,4.666,8.509,8.509,0,0,1-5.291-.137c-1.344-.478-2.077-1.154-1.964-3.647s1.072-6.8.667-8.2-2.172.118-2.608-.655S2045.58,1685.964,2048.665,1684.46Z" transform="translate(-1796.807 -1540.925)" fill="#404000" fill-rule="evenodd"/>
        <path id="Trazado_27933" data-name="Trazado 27933" d="M2068.156,1669.847c-.876-.323-2.84.376-4.291,1.115a5.548,5.548,0,0,0-2.7,2.261c-.306.742.019,1.445,1.364,1.378a10.1,10.1,0,0,0,5-2C2068.821,1671.514,2069.033,1670.17,2068.156,1669.847Z" transform="translate(-1808.463 -1531.114)" fill="#fff" fill-rule="evenodd"/>
        <path id="Trazado_27934" data-name="Trazado 27934" d="M2026.62,1753.592c-.36-2.162-2.755-3.535-4.253-3.773s-2.1.658-3.641,1.176a22.273,22.273,0,0,1-7.027.557,41.08,41.08,0,0,1-9.585-1.308,15.841,15.841,0,0,1-6.938-3.759,6,6,0,0,1-1.668-4.442c.017-1.393.337-2.614-1.966-.664s-7.228,7.071-6.51,11.435,7.081,7.97,14.455,9.317,15.76.438,20.79-1.494S2026.98,1755.754,2026.62,1753.592Z" transform="translate(-1753.177 -1582.401)" fill="#906e42" fill-rule="evenodd"/>
        <path id="Trazado_27935" data-name="Trazado 27935" d="M1712.477,1836.965a17.14,17.14,0,0,1,2.463-6.58,29.76,29.76,0,0,1,5.08-5.642,25.087,25.087,0,0,1,4.349,3.457,14.479,14.479,0,0,1,2.357,3.972,38.947,38.947,0,0,1-6.333,5.6,30.952,30.952,0,0,1-7.192,3.085A6.541,6.541,0,0,1,1712.477,1836.965Z" transform="translate(-1555.193 -1643.698)" fill="#4c4c4c" fill-rule="evenodd"/>
        <path id="Trazado_27936" data-name="Trazado 27936" d="M1568.923,1780.4c2.067-5.693,4.134-11.387,8.107-16.335a50.157,50.157,0,0,1,14.768-11.792,55.222,55.222,0,0,1,12.826-4.791l1.076,7.3,3.313-4.524c.341,1.352.681,2.7,1.464,6.15a78.343,78.343,0,0,1,2.187,14.676c.18,5.693-.685,11.542-1.55,17.39a68.348,68.348,0,0,1-13.078,2.536,37.453,37.453,0,0,1-15.609-1.889C1577.439,1787.236,1573.181,1783.82,1568.923,1780.4Z" transform="translate(-1450.945 -1587.575)" fill="#999eb4" fill-rule="evenodd"/>
        <path id="Trazado_27937" data-name="Trazado 27937" d="M1616.146,1747.687c.52,3.709,1.035,7.259,1.508,9.3.528,2.277,1,2.665,1.333,2.633s.516-.485.469-1.268a19.138,19.138,0,0,0-.608-3.008,13.894,13.894,0,0,1,1.638-1.592c.424-.3.666-.246,1.057,1.2a56.114,56.114,0,0,1,1.27,7.317q.047.421.089.847a24.958,24.958,0,0,1-.425,8.6,17,17,0,0,1-4.613,8.249c-2.034,1.759-4.334,2.018-7.223,1.63a40.107,40.107,0,0,1-9.421-2.691,23.353,23.353,0,0,1-7.269-4.348,10.861,10.861,0,0,1-2.643-4.891,11.439,11.439,0,0,0,.77,5.486,17.647,17.647,0,0,0,5.427,6.237,24.616,24.616,0,0,0,10.4,4.865,21.81,21.81,0,0,0,11.221-.854c2.523-1.087,2.968-2.743,3.413-4.4-.253,1.76-.507,3.519-2.753,5.1s-6.487,2.976-11.3,3.157a46.616,46.616,0,0,1-15.137-2.407,77.211,77.211,0,0,1-7.552-2.838,32.577,32.577,0,0,0,24.5,7.005,68.348,68.348,0,0,0,13.078-2.536c.865-5.848,1.73-11.7,1.55-17.39a60.6,60.6,0,0,0-.812-7.849c-.438-2.662-.967-5.029-1.375-6.827-.782-3.445-1.123-4.8-1.464-6.15l-3.313,4.524-1.076-7.3Z" transform="translate(-1463.203 -1587.575)" fill="#c7c7c7" fill-rule="evenodd"/>
        <path id="Trazado_27938" data-name="Trazado 27938" d="M1657.068,1792.973a11.8,11.8,0,0,1,4.79,1.527,5.358,5.358,0,0,1,2.527,4.335,6.348,6.348,0,0,1-2.775,4.632,4.866,4.866,0,0,1-4.689.582,12.14,12.14,0,0,1-3.945-3.468,16.065,16.065,0,0,0,4.9,5.26,11.187,11.187,0,0,0,7.984,1.358,7.608,7.608,0,0,0,5.5-4.982,7.421,7.421,0,0,0-1.823-6.806,10.172,10.172,0,0,0-6.285-2.956A19.478,19.478,0,0,0,1657.068,1792.973Z" transform="translate(-1512.006 -1620.182)" fill="#848aa2" fill-rule="evenodd"/>
        <path id="Trazado_27939" data-name="Trazado 27939" d="M1679.331,1758.742a3.572,3.572,0,0,0-2.355,1.178,1.068,1.068,0,0,0,.574,1.617,2.692,2.692,0,0,0,2.264-.239,1.52,1.52,0,0,0,.624-1.553A1.016,1.016,0,0,0,1679.331,1758.742Z" transform="translate(-1529.301 -1595.751)" fill="#131313" fill-rule="evenodd"/>
        <path id="Trazado_27940" data-name="Trazado 27940" d="M1719.792,1868.067a14.822,14.822,0,0,1,6.577-3.481,30.409,30.409,0,0,1,8.5-.4,36.713,36.713,0,0,1,1.984,6.741,17.249,17.249,0,0,1-.266,5.447,42.755,42.755,0,0,1-9.681-.725,41.5,41.5,0,0,1-8.9-3.623A6.341,6.341,0,0,1,1719.792,1868.067Z" transform="translate(-1559.245 -1672.275)" fill="#999eb4" fill-rule="evenodd"/>
        <path id="Trazado_27941" data-name="Trazado 27941" d="M1758.234,1868.974a5.4,5.4,0,0,1-1.948,3.623,2.192,2.192,0,0,1-1.851.673l2.535.776a5.292,5.292,0,0,1-.023,2.3c1.1.028,2.205.028,3.311.028a17.25,17.25,0,0,0,.266-5.448,36.72,36.72,0,0,0-1.984-6.741,32.809,32.809,0,0,0-7.953.279,18.935,18.935,0,0,1,4.292.912C1757.01,1866.178,1758.208,1867.55,1758.234,1868.974Z" transform="translate(-1582.915 -1672.276)" fill="#c7c7c7" fill-rule="evenodd"/>
        <path id="Trazado_27942" data-name="Trazado 27942" d="M1719.7,1873.206a2.007,2.007,0,0,1,.115-1.335c.033-.08.07-.162.112-.244a9.621,9.621,0,0,1,2.675-2.913,27.452,27.452,0,0,1,2.894-1.9,15.116,15.116,0,0,0-5.3,2.861q-.215.19-.4.378a6.341,6.341,0,0,0-1.789,3.96c.491.245.981.49,1.473.731.815.4,1.634.791,2.459,1.157a15.545,15.545,0,0,1-1.337-1.26A3.614,3.614,0,0,1,1719.7,1873.206Z" transform="translate(-1559.245 -1674.259)" fill="#5a6077" fill-rule="evenodd"/>
        <path id="Trazado_27943" data-name="Trazado 27943" d="M1593.161,1765.63a26.5,26.5,0,0,0-5.948,2.9,53.07,53.07,0,0,0-7.049,5.939,24.383,24.383,0,0,0-5.266,6.961,69.592,69.592,0,0,0-3.6,10.364,110.76,110.76,0,0,1,6.308-11.218,54.445,54.445,0,0,1,7.019-8.384,41.344,41.344,0,0,1,5.19-4.309C1591.168,1766.924,1592.165,1766.277,1593.161,1765.63Z" transform="translate(-1452.673 -1600.755)" fill="#fff" fill-rule="evenodd"/>
        <path id="Trazado_27944" data-name="Trazado 27944" d="M1656.261,1787.562a11.864,11.864,0,0,0-.866,3.768,20.41,20.41,0,0,0,.509,4.434,20.88,20.88,0,0,0,.608,2.33l-1.2.091a18.064,18.064,0,0,1-2.023-4.781,6.011,6.011,0,0,1,.534-4.085A4.658,4.658,0,0,1,1656.261,1787.562Z" transform="translate(-1512.137 -1616.688)" fill="#5a6077" fill-rule="evenodd"/>
        <path id="Trazado_27945" data-name="Trazado 27945" d="M1661.541,1799.959a4.2,4.2,0,0,1,4.29,4.313,4.553,4.553,0,0,1-4.575,4.313,4.2,4.2,0,0,1-4.29-4.313A4.553,4.553,0,0,1,1661.541,1799.959Z" transform="translate(-1514.902 -1625.694)" fill="#131313" fill-rule="evenodd"/>
        <path id="Trazado_27946" data-name="Trazado 27946" d="M1668.775,1799.352a1.7,1.7,0,0,1,1.65,1.815,1.837,1.837,0,0,1-1.77,1.815,1.7,1.7,0,0,1-1.65-1.815A1.837,1.837,0,0,1,1668.775,1799.352Z" transform="translate(-1522.196 -1625.253)" fill="#fff" fill-rule="evenodd"/>
        <path id="Trazado_27947" data-name="Trazado 27947" d="M1882.9,1754.089c-1.3-4.4-2.61-8.792-5.425-12.613a35.182,35.182,0,0,0-10.8-9.1,39.97,39.97,0,0,0-9.659-3.7l-1.2,5.635-2.328-3.493c-.332,1.044-.664,2.089-1.444,4.749a62.712,62.712,0,0,0-2.438,11.332,75.678,75.678,0,0,0,.309,13.428,50.831,50.831,0,0,0,9.968,1.958,29.585,29.585,0,0,0,12.149-1.459C1875.971,1759.364,1879.433,1756.726,1882.9,1754.089Z" transform="translate(-1654.701 -1573.907)" fill="#999eb4" fill-rule="evenodd"/>
        <path id="Trazado_27948" data-name="Trazado 27948" d="M1857.568,1728.827c-.591,2.864-1.17,5.6-1.639,7.178-.524,1.758-.911,2.058-1.164,2.033s-.373-.375-.3-.979a15.413,15.413,0,0,1,.623-2.323,9.726,9.726,0,0,0-1.183-1.229c-.312-.23-.5-.19-.878.929a45.07,45.07,0,0,0-1.354,5.65q-.058.325-.112.654a19.215,19.215,0,0,0-.11,6.639,12.116,12.116,0,0,0,3.141,6.369c1.48,1.359,3.243,1.558,5.494,1.259a32.6,32.6,0,0,0,7.412-2.078,19.653,19.653,0,0,0,5.835-3.357,9.11,9.11,0,0,0,2.29-3.777,9.115,9.115,0,0,1-.874,4.236,15.007,15.007,0,0,1-4.509,4.816,20.476,20.476,0,0,1-8.277,3.756,16.561,16.561,0,0,1-8.62-.659,3.907,3.907,0,0,1-2.411-3.4,4.575,4.575,0,0,0,1.866,3.936,16.5,16.5,0,0,0,8.561,2.438,37.1,37.1,0,0,0,11.811-1.858,63.532,63.532,0,0,0,5.976-2.191,31.375,31.375,0,0,1-7.125,3.95,29.585,29.585,0,0,1-12.149,1.459,50.831,50.831,0,0,1-9.968-1.958,75.678,75.678,0,0,1-.309-13.428,48.067,48.067,0,0,1,1.028-6.061c.474-2.055,1-3.884,1.41-5.271.78-2.66,1.112-3.7,1.444-4.749l2.328,3.493,1.2-5.635Z" transform="translate(-1654.701 -1573.907)" fill="#fff" fill-rule="evenodd"/>
        <path id="Trazado_27949" data-name="Trazado 27949" d="M1884.438,1737.363a2.555,2.555,0,0,1,1.759.909.866.866,0,0,1-.526,1.249,2.037,2.037,0,0,1-1.735-.185,1.109,1.109,0,0,1-.4-1.2A.849.849,0,0,1,1884.438,1737.363Z" transform="translate(-1679.469 -1580.22)" fill="#131313" fill-rule="evenodd"/>
        <path id="Trazado_27950" data-name="Trazado 27950" d="M1913.518,1742.681a18.913,18.913,0,0,1,4.445,2.238,37.179,37.179,0,0,1,5.139,4.586,17.154,17.154,0,0,1,3.71,5.375,50.774,50.774,0,0,1,2.249,8,78.823,78.823,0,0,0-4.3-8.662,38.176,38.176,0,0,0-4.992-6.474,28.978,28.978,0,0,0-3.787-3.327C1914.991,1743.68,1914.254,1743.18,1913.518,1742.681Z" transform="translate(-1701.277 -1584.084)" fill="#fff" fill-rule="evenodd"/>
        <path id="Trazado_27951" data-name="Trazado 27951" d="M1870.112,1753.206c-.131,2.627-.262,5.254.469,7.358a7.425,7.425,0,0,0,3.822,4.324,6.8,6.8,0,0,0,4.325.035,16.667,16.667,0,0,1-5.351,2.848c-2.122.569-4.75.569-6.319-.7s-2.076-3.8-1.39-6.323S1868.232,1755.717,1870.112,1753.206Z" transform="translate(-1666.299 -1591.73)" fill="#c7c7c7" fill-rule="evenodd"/>
        <path id="Trazado_27952" data-name="Trazado 27952" d="M1851.453,1783.444a17.253,17.253,0,0,1-.1-5.126,24.645,24.645,0,0,0-1.66,5.387c-.106.587-.192,1.2-.261,1.822q-.007.225-.013.451c-.027,1.125-.015,2.256.024,3.391.08,2.329.272,4.675.464,7.021a50.822,50.822,0,0,0,9.968,1.958,29.589,29.589,0,0,0,12.149-1.459,31.386,31.386,0,0,0,7.125-3.95,63.529,63.529,0,0,1-5.976,2.191,37.107,37.107,0,0,1-11.81,1.859,16.5,16.5,0,0,1-8.562-2.438,4.576,4.576,0,0,1-1.866-3.936,3.908,3.908,0,0,0,2.411,3.4,16.569,16.569,0,0,0,8.62.659,20.476,20.476,0,0,0,8.277-3.756,15.007,15.007,0,0,0,4.509-4.816,9.115,9.115,0,0,0,.874-4.236,9.109,9.109,0,0,1-2.29,3.776,19.648,19.648,0,0,1-5.835,3.357,32.6,32.6,0,0,1-7.412,2.078c-2.25.3-4.014.1-5.494-1.259a8.205,8.205,0,0,1-1.406-1.762,13.45,13.45,0,0,1-1.327-2.972A14.282,14.282,0,0,1,1851.453,1783.444Z" transform="translate(-1654.701 -1609.972)" fill="#5a6077" fill-rule="evenodd"/>
        <path id="Trazado_27953" data-name="Trazado 27953" d="M1902.061,1750.121a7.775,7.775,0,0,1,.381,2.463,14.316,14.316,0,0,1-.505,2.9,15,15,0,0,1-.477,1.523l.745.059a13.01,13.01,0,0,0,1.465-3.125,4.014,4.014,0,0,0-.161-2.67A2.665,2.665,0,0,0,1902.061,1750.121Z" transform="translate(-1692.518 -1589.489)" fill="#5a6077" fill-rule="evenodd"/>
        <path id="Trazado_27954" data-name="Trazado 27954" d="M1886.353,1756.745a3.384,3.384,0,0,0-3.4,3.2,3.124,3.124,0,0,0,3.188,3.2,3.384,3.384,0,0,0,3.4-3.2A3.124,3.124,0,0,0,1886.353,1756.745Z" transform="translate(-1679.072 -1594.301)" fill="#131313" fill-rule="evenodd"/>
        <path id="Trazado_27955" data-name="Trazado 27955" d="M1892.083,1756.294a1.365,1.365,0,0,0-1.316,1.349,1.261,1.261,0,0,0,1.226,1.349,1.365,1.365,0,0,0,1.316-1.349A1.26,1.26,0,0,0,1892.083,1756.294Z" transform="translate(-1684.75 -1593.973)" fill="#fff" fill-rule="evenodd"/>
        <path id="Trazado_27956" data-name="Trazado 27956" d="M1404.819,1744.706a47.973,47.973,0,0,0-10.806,3.751c-3.575,1.825-6.433,4.193-7.229,5.631s.471,1.945,1.739,2.452q-.075,2.555-.15,5.11l11.274-.548-2.226,5.014,6.274.465q.007,2.6.013,5.2a25.122,25.122,0,0,0,7.576-.815,14.3,14.3,0,0,0,5.83-3.946,16.5,16.5,0,0,0,3.41-5.534,25.5,25.5,0,0,0,1.339-5.817,5.99,5.99,0,0,0-.145-2.831,1.944,1.944,0,0,0-1.191-1.165,3.166,3.166,0,0,0-2.6,0,13.368,13.368,0,0,0-3.261,2.728l.737-3.405-4.639,2.743-4.482,3.519,7.038-6.744-5.545,1.776,3.032-2.652-1.763-.149a7.84,7.84,0,0,0,1.706-2.467,1.988,1.988,0,0,0-.581-2.452C1409.341,1744.061,1407.757,1744.063,1404.819,1744.706Z" transform="translate(-1318.45 -1585.191)" fill="#e6e6e6" fill-rule="evenodd"/>
        <path id="Trazado_27957" data-name="Trazado 27957" d="M1411.3,1749.013a28.978,28.978,0,0,0-9.2,1.926,32.416,32.416,0,0,0-8.7,4.714c-1.724,1.452-1.754,2.4-.665,3s3.3.845,6.273.287a31.22,31.22,0,0,0,9.271-3.441,11.35,11.35,0,0,0,4.515-4.43C1413.391,1749.842,1413.234,1749.066,1411.3,1749.013Z" transform="translate(-1322.411 -1588.682)" fill="#4c4c4c" fill-rule="evenodd"/>
        <path id="Trazado_27958" data-name="Trazado 27958" d="M1418.263,1766.467l-.068-1.674-5.545,1.776,3.032-2.652-.763-.064c-1.787,1.644-3.57,3.247-5.32,4.556a21.2,21.2,0,0,1-7.005,3.555,84.453,84.453,0,0,1-9.288,2.007l-.057,1.953,6.942.8,2.106,3.662,6.274.465.006,2.239a7.837,7.837,0,0,0,3.469-.391,19.991,19.991,0,0,0,6.778-4.421,12.339,12.339,0,0,0,3.465-6.152,39.766,39.766,0,0,0,.873-6.317,3.182,3.182,0,0,0-.358.138,13.368,13.368,0,0,0-3.261,2.728l.737-3.405Z" transform="translate(-1323.325 -1599.464)" fill="#ec3000" fill-rule="evenodd"/>
        <path id="Trazado_27959" data-name="Trazado 27959" d="M1397.4,1771.787l-4.258-.333-.209-1.726a8.023,8.023,0,0,1-4.167-.563c-1.089-.6-1.059-1.549.665-3a21.257,21.257,0,0,1,2.834-1.939l-.09-.746c-2.693,1.62-4.739,3.43-5.392,4.611-.8,1.438.472,1.945,1.738,2.452l-.093,3.157-.057,1.953,6.942.8,2.106,3.662,6.274.465.006,2.239.008,2.963a25.122,25.122,0,0,0,7.576-.815,11.781,11.781,0,0,0,1.8-.773l.117-3.092-2.37-.567-2.851-.682,4.359-8.782-9.3,5.4,1.337-4.138Z" transform="translate(-1318.45 -1599.193)" fill-rule="evenodd" opacity="0.2"/>
        <path id="Trazado_27960" data-name="Trazado 27960" d="M1384.536,1815.833c2.1-1.355,6.911-1.977,11.721-2.6.707.755,1.413,1.51,3.986,2.053a43.36,43.36,0,0,0,10.13.654,18.5,18.5,0,0,0,6.717-1.75c3.485.646,6.97,1.292,8.342,2.636s.628,3.384-3.453,5.031-11.5,2.9-18.447,2.754-13.415-1.7-16.953-3.516S1382.434,1817.189,1384.536,1815.833Z" transform="translate(-1316.117 -1635.339)" fill="#987a4f" fill-rule="evenodd"/>
        <path id="Trazado_27961" data-name="Trazado 27961" d="M1350.711,1855.036c-.9-.977-2.717-2.534-3.8-3.461s-1.434-1.225-2.022-.447a23.47,23.47,0,0,0-2.025,4.14c-.612,1.507-1.009,2.666-.8,3.246s1.019.58,2.472.3,3.547-.844,4.824-1.225,1.736-.58,1.98-.878S1351.608,1856.013,1350.711,1855.036Z" transform="translate(-1286.099 -1662.541)" fill="#ffffca" fill-rule="evenodd"/>
        <path id="Trazado_27962" data-name="Trazado 27962" d="M1525.723,1868.6c-1.308,0-3.68.3-5.093.478s-1.868.235-1.781,1.207a22.355,22.355,0,0,0,1.269,4.348c.554,1.489,1.034,2.579,1.572,2.821s1.133-.366,2.012-1.646,2.04-3.232,2.724-4.449.888-1.7.869-2.082S1527.03,1868.6,1525.723,1868.6Z" transform="translate(-1414.561 -1675.561)" fill="#ffffca" fill-rule="evenodd"/>
        <path id="Trazado_27963" data-name="Trazado 27963" d="M1540.426,1804.494c-.847,0-2.383.195-3.3.31s-1.21.152-1.154.782a14.453,14.453,0,0,0,.822,2.817c.359.965.67,1.671,1.018,1.828s.734-.237,1.3-1.066,1.322-2.094,1.764-2.881.575-1.1.563-1.349S1541.273,1804.493,1540.426,1804.494Z" transform="translate(-1427.004 -1628.988)" fill="#ffffca" fill-rule="evenodd"/>
        <path id="Trazado_27964" data-name="Trazado 27964" d="M2029.924,1801.849c-.9-.977-2.717-2.534-3.8-3.461s-1.434-1.225-2.022-.447a23.489,23.489,0,0,0-2.025,4.14c-.612,1.507-1.009,2.666-.8,3.246s1.019.58,2.471.3,3.547-.844,4.823-1.225,1.736-.58,1.98-.878S2030.82,1802.827,2029.924,1801.849Z" transform="translate(-1779.516 -1623.904)" fill="#ffffca" fill-rule="evenodd"/>
        <path id="Trazado_27965" data-name="Trazado 27965" d="M2136.887,1759.433c-1.308,0-3.68.3-5.093.478s-1.868.235-1.781,1.207a22.328,22.328,0,0,0,1.269,4.348c.554,1.489,1.034,2.58,1.572,2.821s1.133-.366,2.011-1.646,2.041-3.233,2.724-4.449.887-1.7.868-2.082S2138.194,1759.431,2136.887,1759.433Z" transform="translate(-1858.543 -1596.253)" fill="#ffffca" fill-rule="evenodd"/>
        <path id="Trazado_27966" data-name="Trazado 27966" d="M1979.353,1786.927c-.481.757-1.2,2.228-1.633,3.1s-.568,1.158-.036,1.43a12.49,12.49,0,0,0,2.7.7c.97.172,1.708.255,2.031.024s.23-.777-.1-1.708-.91-2.249-1.283-3.047-.545-1.074-.751-1.191S1979.834,1786.17,1979.353,1786.927Z" transform="translate(-1747.64 -1615.694)" fill="#ffffca" fill-rule="evenodd"/>
        <path id="Trazado_27967" data-name="Trazado 27967" d="M1569.046,1690.178a2.339,2.339,0,0,0,.233-2.838,1.8,1.8,0,0,0-2.4-.858,2.41,2.41,0,0,0-.432,2.877A2.012,2.012,0,0,0,1569.046,1690.178Z" transform="translate(-1448.935 -1543.103)" fill="#565600" fill-rule="evenodd"/>
        <path id="Trazado_27968" data-name="Trazado 27968" d="M1468.665,1659.364l-1.122,2.378,12.282,5.86-.99,9.914c5.454,1.389,10.909,2.778,15.9,2.918s9.516-.97,14.042-2.08c-3.882-8.4-7.764-16.793-11.889-22.326a31.288,31.288,0,0,0-11.959-9.881,43.507,43.507,0,0,0-8.589-3.05l-.517,1.1C1476.257,1644.445,1472.227,1660.269,1468.665,1659.364Z" transform="translate(-1377.297 -1511.741)" fill="#a9662b" fill-rule="evenodd"/>
        <path id="Trazado_27969" data-name="Trazado 27969" d="M1479.1,1651.366l-4.967,16.027,13.958-4.727-7.609,3.833,9.52-2.357-15.817,7.122,1.649,3.549c3,.911,6.007,1.823,8.619,2.326a20.719,20.719,0,0,0,6.678.342,18.889,18.889,0,0,0,4.791-1.467l-4.61-8.5,6.488,8.256a49.144,49.144,0,0,0-1.274-7.034,83.942,83.942,0,0,0-7.348-12.7,31.288,31.288,0,0,0-11.959-9.881,43.507,43.507,0,0,0-8.589-3.05l-11.7,6.84c.658.379,4.722,7.953,3.817,9.871,2.346,1.3,4.545,2.482,6.3,3.276a23.747,23.747,0,0,0,5.853,1.835Z" transform="translate(-1369.585 -1511.741)" fill="#c7943f" fill-rule="evenodd"/>
        <path id="Trazado_27970" data-name="Trazado 27970" d="M1498.126,1667.565c-2.268-3.429-4.536-6.858-6.536-9.268a28.276,28.276,0,0,0-5.5-5.1,26.435,26.435,0,0,0-5.769-3.383,48.961,48.961,0,0,0-7.39-2.064l-9.44,5.424,8.163,10.783,7.008-13.552c-.765,4.473-1.531,8.947-1.649,11.228s.411,2.369,1.788.514,3.6-5.652,5.825-9.449l-3.157,13.994,4.753-12.656c1.592,1.908,3.185,3.817,4.252,5.067s1.611,1.842,1.692,2.373-.3,1-1.471,1.8-3.142,1.936-5.11,3.069l8.985-1.237-2.53,2.644,3.851-1.219-1.842,3.257Z" transform="translate(-1374.353 -1515.122)" fill="#e4c04b" fill-rule="evenodd"/>
        <path id="Trazado_27971" data-name="Trazado 27971" d="M1605.631,1454.357c-.537-1.245-1.76-3.364-2.488-4.626s-.963-1.668-1.751-1.126a22.514,22.514,0,0,0-3.164,3.262c-1.034,1.231-1.762,2.2-1.746,2.829s.773.907,2.217,1.14,3.573.417,4.882.494,1.8.045,2.119-.156S1606.168,1455.6,1605.631,1454.357Z" transform="translate(-1470.965 -1370.28)" fill="#ffffca" fill-rule="evenodd"/>
        <path id="Trazado_27972" data-name="Trazado 27972" d="M1666.114,1487.908c-1.72-.831-5.006-1.941-6.964-2.6s-2.588-.873-3.025.5a34.5,34.5,0,0,0-.8,6.708c-.117,2.373-.1,4.158.465,4.829s1.7.227,3.578-.949,4.515-3.083,6.1-4.3,2.128-1.734,2.322-2.27S1667.834,1488.74,1666.114,1487.908Z" transform="translate(-1513.67 -1396.738)" fill="#ffffca" fill-rule="evenodd"/>
        <path id="Trazado_27973" data-name="Trazado 27973" d="M1596.007,1470.3c.88-.415,2.75-.266,4.511-.037a30.906,30.906,0,0,1,4.471.856c1.057.319,1.517.649,1.281.968s-1.168.627-3.106.723a20.431,20.431,0,0,1-6.4-.569C1595.234,1471.691,1595.126,1470.713,1596.007,1470.3Z" transform="translate(-1470.217 -1386.02)" fill="#a5ab83" fill-rule="evenodd"/>
        <path id="Trazado_27974" data-name="Trazado 27974" d="M1650,1501.6c-.549,1.425.121,4.276,1.18,6.246s2.509,3.059,3.715,2.9,2.171-1.576,2-3.545a9.466,9.466,0,0,0-3.031-5.76C1652.317,1500.179,1650.548,1500.179,1650,1501.6Z" transform="translate(-1509.7 -1408.161)" fill="#a39d77" fill-rule="evenodd"/>
        <path id="Trazado_27975" data-name="Trazado 27975" d="M1761.355,1547.771c-.463-1.074-1.519-2.9-2.148-3.992s-.831-1.44-1.511-.972a19.445,19.445,0,0,0-2.73,2.815c-.892,1.062-1.52,1.9-1.507,2.441s.667.783,1.913.983,3.083.36,4.213.427,1.553.039,1.828-.134S1761.818,1548.845,1761.355,1547.771Z" transform="translate(-1585.002 -1438.737)" fill="#ffffca" fill-rule="evenodd"/>
        <path id="Trazado_27976" data-name="Trazado 27976" d="M1751.277,1556.143a6.385,6.385,0,0,1,3.066,1.57,7.043,7.043,0,0,1,2.182,3.175c.182.9-.386,1.358-1.636,1.1a9.7,9.7,0,0,1-4.159-2.244,2.729,2.729,0,0,1-.823-2.694A1.1,1.1,0,0,1,1751.277,1556.143Z" transform="translate(-1582.358 -1448.559)" fill="#9c875f" fill-rule="evenodd"/>
        <path id="Trazado_27977" data-name="Trazado 27977" d="M1345.08,1876.073c-1.131-.936-4.433-1.7-7.424-2.191s-5.669-.7-7.051-.128-1.467,1.936,1,2.978a29.223,29.223,0,0,0,10.531,1.574C1345.173,1878.115,1346.211,1877.009,1345.08,1876.073Z" transform="translate(-1277.118 -1679.052)" fill="#a0946c" fill-rule="evenodd"/>
        <path id="Trazado_27978" data-name="Trazado 27978" d="M1415.209,1819.776a16.521,16.521,0,0,0,6.78,3.18,51.026,51.026,0,0,0,11.55.745,19.384,19.384,0,0,0,6.877-1.3,15.241,15.241,0,0,0,3.457-2.116c-1.424,1.829-2.847,3.658-5.657,4.7s-7.008,1.3-10.939,1.085-7.6-.893-9.564-2.021S1415.478,1821.35,1415.209,1819.776Z" transform="translate(-1339.279 -1640.09)" fill="#a4a981" fill-rule="evenodd"/>
        <path id="Trazado_27979" data-name="Trazado 27979" d="M1478.332,1834a10.1,10.1,0,0,1-3.9,2.967,24.729,24.729,0,0,1-6.7,1.17c-2.29.159-4.275.181-6.26.2a32.269,32.269,0,0,0,6.434,1.5c2.467.266,5.416.181,7.233-.85S1477.645,1835.983,1478.332,1834Z" transform="translate(-1372.888 -1650.426)" fill="#a4a981" fill-rule="evenodd"/>
        <path id="Trazado_27980" data-name="Trazado 27980" d="M1577.07,1903.753a63.608,63.608,0,0,0,10.332,3.935,28.891,28.891,0,0,0,10.052.585,86.684,86.684,0,0,0,10.377-1.968,74.753,74.753,0,0,1-11.673,3.286,21.559,21.559,0,0,1-10.5-.617C1582.505,1907.88,1579.788,1905.816,1577.07,1903.753Z" transform="translate(-1456.864 -1701.095)" fill="#826338" fill-rule="evenodd"/>
        <path id="Trazado_27981" data-name="Trazado 27981" d="M1663.637,1916.769a55.971,55.971,0,0,0,9.268-1.776,52.275,52.275,0,0,0,8.413-3.775c-1.118,1.68-2.236,3.36-4.574,4.382a25.546,25.546,0,0,1-8.286,1.468A21.668,21.668,0,0,1,1663.637,1916.769Z" transform="translate(-1519.75 -1706.518)" fill="#826338" fill-rule="evenodd"/>
        <path id="Trazado_27982" data-name="Trazado 27982" d="M1563.037,1872.247a42.6,42.6,0,0,1-5.7-3.743,5.267,5.267,0,0,1-2.058-3.212,3.967,3.967,0,0,1,.669-2.361,8.94,8.94,0,0,0-1.63,2.914,2.971,2.971,0,0,0,1.329,3.435C1557.166,1870.375,1560.1,1871.311,1563.037,1872.247Z" transform="translate(-1440.244 -1671.44)" fill="#826338" fill-rule="evenodd"/>
        <path id="Trazado_27983" data-name="Trazado 27983" d="M1836.607,1841.47a4.272,4.272,0,0,0,.1,3.042,6.3,6.3,0,0,0,3.707,2.435,23.958,23.958,0,0,0,7.185.925,48.39,48.39,0,0,0,8.206-.872c2.5-.468,4.543-1.021,6.586-1.574a27.666,27.666,0,0,1-7.555,3.3,48.94,48.94,0,0,1-11.185,1.244c-3.537-.011-6.228-.457-7.728-1.181a2.339,2.339,0,0,1-1.494-2.988A17.968,17.968,0,0,1,1836.607,1841.47Z" transform="translate(-1643.743 -1655.849)" fill="#826338" fill-rule="evenodd"/>
        <path id="Trazado_27984" data-name="Trazado 27984" d="M1960.338,1813.711a4.971,4.971,0,0,1-.239,3.584,16.894,16.894,0,0,1-3.673,4.084c-1.393,1.223-2.586,2.138-3.779,3.052a43.282,43.282,0,0,0,7.27-3.776c1.614-1.223,2.014-2.393,1.881-3.541A9.278,9.278,0,0,0,1960.338,1813.711Z" transform="translate(-1729.703 -1635.684)" fill="#826338" fill-rule="evenodd"/>
        <path id="Trazado_27985" data-name="Trazado 27985" d="M1880.716,1861.765a101.225,101.225,0,0,1-11.219,3.8,52.959,52.959,0,0,1-9.243,1.3c-2.581.181-4.589.287-6.6.394a36.2,36.2,0,0,0,8.1,1.361,25.888,25.888,0,0,0,9.734-1.616A47.766,47.766,0,0,0,1880.716,1861.765Z" transform="translate(-1657.791 -1670.593)" fill="#826338" fill-rule="evenodd"/>
        <path id="Trazado_27986" data-name="Trazado 27986" d="M2026.4,1767.62a97.269,97.269,0,0,1-14.049.276,23.574,23.574,0,0,1-10.808-3.19,13.179,13.179,0,0,1-4.286-4.648c3.615,2.212,7.229,4.424,12.018,5.679a69.323,69.323,0,0,0,14.466,1.659C2027.461,1767.5,2028.927,1767.418,2026.4,1767.62Z" transform="translate(-1762.114 -1596.708)" fill="#a4a981" fill-rule="evenodd"/>
        <path id="Trazado_27987" data-name="Trazado 27987" d="M2068.371,1792.483a79.054,79.054,0,0,1-10.5,1.957,57.251,57.251,0,0,1-9.585-.17,19.441,19.441,0,0,0,6.619,2.584,16.341,16.341,0,0,0,7.549-1A26.348,26.348,0,0,0,2068.371,1792.483Z" transform="translate(-1799.182 -1620.263)" fill="#a4a981" fill-rule="evenodd"/>
        <path id="Trazado_27988" data-name="Trazado 27988" d="M1997.928,1715.271a16.257,16.257,0,0,0-3.144,3.552,6.556,6.556,0,0,0-.713,3.392,9.572,9.572,0,0,0,.311,2.116c-1.406-1.127-2.812-2.255-3.022-3.456s.773-2.478,2.068-3.425A19.376,19.376,0,0,1,1997.928,1715.271Z" transform="translate(-1757.805 -1564.172)" fill="#a4a981" fill-rule="evenodd"/>
        <path id="Trazado_27989" data-name="Trazado 27989" d="M1563.151,1865.966c3.309,2.978,6.618,5.956,10.222,7.891a31.264,31.264,0,0,0,10.916,3.254,44.438,44.438,0,0,0,8.289.255,22.393,22.393,0,0,0,3.887-.553c-6.775-1.191-13.55-2.382-18.275-3.765a40.771,40.771,0,0,1-9.563-4.169C1566.462,1867.668,1564.807,1866.817,1563.151,1865.966Z" transform="translate(-1446.752 -1673.645)" fill="#826338" fill-rule="evenodd"/>
        <path id="Trazado_27990" data-name="Trazado 27990" d="M1907.757,1819.527a65.437,65.437,0,0,1-6.788,4.041,39.913,39.913,0,0,1-8.415,2.648c-2.665.585-5,.989-7.342,1.393a54.086,54.086,0,0,0,8.143-.16,24.757,24.757,0,0,0,8.926-2.616,41.439,41.439,0,0,0,7.942-6.221C1909.741,1818.613,1909.26,1818.613,1907.757,1819.527Z" transform="translate(-1680.714 -1639.245)" fill="#826338" fill-rule="evenodd"/>
        <path id="Trazado_27991" data-name="Trazado 27991" d="M1715.807,1898.262a50.882,50.882,0,0,1-5.792-.309,42.41,42.41,0,0,1-6.619-1.425,33.225,33.225,0,0,1-3.979-1.489c-.852-.372-1.293-.564-1.614-.49a15.026,15.026,0,0,1-1.864.888c-1.343.473-3.828,1.079-5.271,1.43s-1.844.447-2.245.542a25.945,25.945,0,0,0,4.78.091c1.673-.165,3.467-.622,4.835-.708a9.143,9.143,0,0,1,3.808.7,49.079,49.079,0,0,0,5.472,1.606,20.641,20.641,0,0,0,5.276.383,23.909,23.909,0,0,0,3.888-.542,18.053,18.053,0,0,0,2.034-.574C1717.857,1898.325,1717.2,1898.283,1715.807,1898.262Z" transform="translate(-1537.757 -1694.398)" fill="#826338" fill-rule="evenodd"/>
        <path id="Trazado_27992" data-name="Trazado 27992" d="M1678.908,1555.9c1.462,6.121,2.923,12.243,2.923,16.691s-1.461,7.223-3.365,7.733-4.249-1.245-5.864-3.162-2.5-4-3.345-4.346-1.654,1.041-2.75,1.2-2.48-.9-3.768-2.265a45.119,45.119,0,0,1-3.672-4.713,16.968,16.968,0,0,0,4.249,3.877,2.981,2.981,0,0,0,3.711-.53c.923-1.02,1.384-2.857,2.365-2.448s2.48,3.06,3.884,4.958,2.711,3.04,3.9,2.551,2.269-2.612,2.538-6.142S1679.447,1560.833,1678.908,1555.9Z" transform="translate(-1516.43 -1448.392)" fill="#fff" fill-rule="evenodd" opacity="0.38"/>
        <path id="Trazado_27993" data-name="Trazado 27993" d="M1756.165,1612.063c1.038,4.877,2.076,9.754,2.509,13.814s.26,7.3-.433,9.009a2.169,2.169,0,0,1-3,1.469c-1.1-.4-2.077-1.357-2.874-.99s-1.413,2.061-2.528,3.449a7.672,7.672,0,0,1-4.326,2.765,8.722,8.722,0,0,1-4.855-.878c-1.682-.684-3.47-1.561-5.259-2.438a31.624,31.624,0,0,0,7.3,1.143c2.221-.041,4.124-.714,5.24-2.785s1.442-5.54,2.528-6.152,2.932,1.632,4.163,2.346,1.846-.1,2.173-2.04a44.077,44.077,0,0,0,.212-8.3C1756.857,1619.164,1756.511,1615.613,1756.165,1612.063Z" transform="translate(-1571.882 -1489.196)" fill="#fff" fill-rule="evenodd" opacity="0.38"/>
      </g>
      <path id="Trazado_27994" data-name="Trazado 27994" d="M1438.263,1584.3c-3.492-1.222-9.907-3.528-16.516-4.283a45.733,45.733,0,0,0-18.6,1.73,33.972,33.972,0,0,0-10.567,5.7c-1.811,1.428-1.863,1.7-1.889,1.812s-.026.055-.026,0c5.82.714,11.64,1.427,17.978,1.826a116.962,116.962,0,0,0,19.026-.151,91.334,91.334,0,0,0,15.456-3.322l7.14.165a7.081,7.081,0,0,1,.388-1.784,3.677,3.677,0,0,1,1.371-1.661,14.981,14.981,0,0,0,2.147-1.455c.284-.4-.259-.672-1.708-.576a22.727,22.727,0,0,0-5.549,1.208,15.673,15.673,0,0,0-4.023,2.292A45.792,45.792,0,0,1,1438.263,1584.3Z" transform="translate(-183.817 -302.81)" fill="#999eb4" fill-rule="evenodd"/>
      <path id="Trazado_27995" data-name="Trazado 27995" d="M1423.628,1593.349a2.569,2.569,0,0,0-1.295-.628c-.417-.042-.781.119-.663.316a5.041,5.041,0,0,0,1.207.7,2.859,2.859,0,0,1,1.154,1.051c.291.48.5,1.139.666,1.359s.3,0,.3-.336a2.81,2.81,0,0,0-.369-1.235A4.25,4.25,0,0,0,1423.628,1593.349Z" transform="translate(-206.324 -312.241)" fill="#131313" fill-rule="evenodd"/>
      <path id="Trazado_27996" data-name="Trazado 27996" d="M1425.1,1594.2a3.1,3.1,0,0,0-1.634.433,6.187,6.187,0,0,0-1.58,1.344c-.391.464-.585.849-.423.821a6.941,6.941,0,0,0,1.229-.913,6.983,6.983,0,0,1,1.681-1.112,11.752,11.752,0,0,1,1.216-.267C1425.735,1594.422,1425.515,1594.229,1425.1,1594.2Z" transform="translate(-206.146 -313.315)" fill="#131313" fill-rule="evenodd"/>
      <path id="Trazado_27997" data-name="Trazado 27997" d="M1401,1609.131a6.863,6.863,0,0,1,1.939-2.037,4.627,4.627,0,0,1,2.426-.469c.7.035,1.138.172,1.229.391s-.168.522-.621.741-1.1.357-1.57.619a3.49,3.49,0,0,0-1.061,1.035Z" transform="translate(-191.323 -322.34)" fill="#131313" fill-rule="evenodd"/>
      <path id="Trazado_27998" data-name="Trazado 27998" d="M1395.113,1593.425a18.054,18.054,0,0,1,3.277-2.649c.416-.3.854-.62,1.31-.949a1.307,1.307,0,0,1-.47-.326c-.118-.2.246-.358.663-.316a1.789,1.789,0,0,1,.513.138q.321-.227.649-.454c.51-.352,1.031-.7,1.552-1.023-1.021.354-1.975.741-2.862,1.145a34.335,34.335,0,0,0-7.1,4.347c-1.811,1.428-1.863,1.7-1.889,1.812v0q1.4.172,2.8.342a11.463,11.463,0,0,1,1.194-1.465A2.672,2.672,0,0,1,1395.113,1593.425Z" transform="translate(-183.884 -308.705)" fill="#c7c7c7" fill-rule="evenodd"/>
      <path id="Trazado_27999" data-name="Trazado 27999" d="M1440.453,1587.4a4.751,4.751,0,0,1-2.439,3.807,11.061,11.061,0,0,1-4.018.985c2,.189,4.033.354,6.125.486a116.962,116.962,0,0,0,19.026-.151,91.329,91.329,0,0,0,15.456-3.322l7.14.165a7.07,7.07,0,0,1,.388-1.784,3.675,3.675,0,0,1,1.371-1.661,14.981,14.981,0,0,0,2.147-1.455c.284-.4-.259-.672-1.708-.576a22.727,22.727,0,0,0-5.549,1.208,15.67,15.67,0,0,0-4.022,2.292,45.775,45.775,0,0,1-4.63-1.5c-2.274-.8-5.787-2.051-9.786-3.038-1.445-.357-2.953-.679-4.489-.931q.794.194,1.619.41c.676.177,1.37.363,2.059.557a41.332,41.332,0,0,1,5.561,1.892c1.8.832,2.327,1.6,2.624,2.466a2.37,2.37,0,0,1-.452,2.64c-.814.815-2.507,1.483-5.469,1.881a98.96,98.96,0,0,1-10.524.57,67.315,67.315,0,0,1-7.457-.183,14.619,14.619,0,0,1-3.609-.844,7.171,7.171,0,0,0,2.367-1.99,3.246,3.246,0,0,0,.3-2.877,4.04,4.04,0,0,0-2.32-2.144,5.875,5.875,0,0,0-.977-.283,16.732,16.732,0,0,0-2.592-.242,8,8,0,0,1,1.912.292,2.787,2.787,0,0,1,.8.408A3.239,3.239,0,0,1,1440.453,1587.4Z" transform="translate(-215.294 -304.403)" fill="#c7c7c7" fill-rule="evenodd"/>
      <path id="Trazado_28000" data-name="Trazado 28000" d="M1474.98,1599.492a10.667,10.667,0,0,1,4.4.048,18.253,18.253,0,0,1,4.63,1.956,6.007,6.007,0,0,1-.368,2.491,13.4,13.4,0,0,1-1.843,2.738,11.349,11.349,0,0,0-2.49-2.7,58.133,58.133,0,0,0-5.31-3.438C1474.029,1600.164,1474.055,1599.739,1474.98,1599.492Z" transform="translate(-244.358 -317.015)" fill="#4c4c4c" fill-rule="evenodd"/>
      <path id="Trazado_28001" data-name="Trazado 28001" d="M1373.084,1610.859c3.046.427,7.714,1.1,12.468,1.573s9.591.734,12.57.863,4.1.122,5.217.116c-4.883.329-9.766.658-14.853.527a88.152,88.152,0,0,1-13.959-1.441,29.574,29.574,0,0,1-7.333-2.422C1368.616,1610.253,1370.038,1610.432,1373.084,1610.859Z" transform="translate(-166.765 -324.853)" fill="#705532" fill-rule="evenodd"/>
      <path id="Trazado_28002" data-name="Trazado 28002" d="M1559.479,1608.312c-1.908,0-4.4.09-6.549.116s-3.935-.016-5.726-.057c-2.814.724-5.628,1.449-7.84,1.957s-3.821.8-5.429,1.09c2.723-.229,5.445-.458,7.692-.82a49.6,49.6,0,0,0,5.791-1.35c3.1.11,6.208.22,8.976.1a73.131,73.131,0,0,0,7.631-.837C1562.706,1608.41,1561.387,1608.314,1559.479,1608.312Z" transform="translate(-287.895 -323.572)" fill="#705532" fill-rule="evenodd"/>
      <path id="Trazado_28003" data-name="Trazado 28003" d="M1519.879,1621.636c-2.483.4-4.966.8-7.993,1.1s-6.6.528-10.166.748a40.694,40.694,0,0,0,9.778.707A29.152,29.152,0,0,0,1519.879,1621.636Z" transform="translate(-264.493 -333.251)" fill="#705532" fill-rule="evenodd"/>
      <path id="Trazado_28004" data-name="Trazado 28004" d="M1417.375,1630.079c-2.826.048-6.409.158-10.147-.055s-7.631-.748-11.524-1.283a29.587,29.587,0,0,0,9.442,2.848,61.7,61.7,0,0,0,12.242-.4,67.979,67.979,0,0,0,6.952-1.133C1422.271,1630.045,1420.2,1630.031,1417.375,1630.079Z" transform="translate(-187.477 -338.413)" fill="#705532" fill-rule="evenodd"/>
      <path id="Trazado_28005" data-name="Trazado 28005" d="M1472.654,1582.522a49.014,49.014,0,0,0-9.248-.055c-1.471.276,0,.854,3.192,1.3a98.313,98.313,0,0,0,10.734.788c2.629.015,2.975-.276,1.99-.713A24.408,24.408,0,0,0,1472.654,1582.522Z" transform="translate(-236.244 -304.658)" fill="#fff" fill-rule="evenodd"/>
    </g>
  </g>
</svg>
