<svg xmlns="http://www.w3.org/2000/svg" width="182" height="182" viewBox="0 0 182 182">
  <g id="Grupo_15353" data-name="Grupo 15353" transform="translate(-426 -2533)">
    <g id="Elipse_642" data-name="Elipse 642" transform="translate(426 2533)" fill="#fdf8eb" stroke="#fdac29" stroke-width="3">
      <circle cx="91" cy="91" r="91" stroke="none"/>
      <circle cx="91" cy="91" r="89.5" fill="none"/>
    </g>
    <g id="Grupo_15342" data-name="Grupo 15342" transform="translate(196.636 2245.842)">
      <g id="Grupo_15266" data-name="Grupo 15266" transform="translate(250.927 397.792)">
        <path id="Trazado_31210" data-name="Trazado 31210" d="M284.387,862.7a6.482,6.482,0,1,1,6.482-6.482A6.489,6.489,0,0,1,284.387,862.7Zm0-11.439a4.957,4.957,0,1,0,4.957,4.957A4.963,4.963,0,0,0,284.387,851.259Z" transform="translate(-277.905 -849.734)" fill="#6d2007"/>
      </g>
      <g id="Grupo_15270" data-name="Grupo 15270" transform="translate(256.531 395.03)">
        <g id="Grupo_15267" data-name="Grupo 15267" transform="translate(0.762 0.762)">
          <path id="Trazado_31211" data-name="Trazado 31211" d="M336.462,855.6A8.517,8.517,0,0,1,328,847.09V836.646A2.65,2.65,0,0,1,330.635,834h17.59a2.806,2.806,0,0,1,.291.022,2.639,2.639,0,0,1,2.358,2.624V847.09A8.529,8.529,0,0,1,342.4,855.6Z" transform="translate(-328 -834)" fill="#fff2db"/>
        </g>
        <g id="Grupo_15269" data-name="Grupo 15269" transform="translate(0)">
          <g id="Grupo_15268" data-name="Grupo 15268">
            <path id="Trazado_31212" data-name="Trazado 31212" d="M342.987,829.525a2.043,2.043,0,0,1,.209.018,1.883,1.883,0,0,1,1.677,1.866v10.444a7.78,7.78,0,0,1-7.713,7.75h-5.936a7.745,7.745,0,0,1-7.7-7.75V831.409a1.884,1.884,0,0,1,1.872-1.884h17.57m.02-1.525H325.4a3.413,3.413,0,0,0-3.4,3.409v10.444a9.281,9.281,0,0,0,9.224,9.275h5.936a9.292,9.292,0,0,0,9.238-9.275V831.409a3.4,3.4,0,0,0-3.041-3.382,3.558,3.558,0,0,0-.37-.026Z" transform="translate(-322 -828)" fill="#6d2007"/>
          </g>
        </g>
      </g>
      <g id="Grupo_15271" data-name="Grupo 15271" transform="translate(261.233 396.555)">
        <path id="Trazado_31213" data-name="Trazado 31213" d="M359,841.893v10.445a7.783,7.783,0,0,0,7.324,7.74h3.135a7.78,7.78,0,0,0,7.713-7.75V841.884A1.929,1.929,0,0,0,375.486,840H360.864a1.843,1.843,0,0,0-.65.13A1.881,1.881,0,0,0,359,841.893Z" transform="translate(-359 -840)" fill="#ffb326"/>
      </g>
      <g id="Grupo_15272" data-name="Grupo 15272" transform="translate(260.216 396.682)">
        <path id="Trazado_31214" data-name="Trazado 31214" d="M351,842.883v10.445a7.5,7.5,0,0,0,6.669,7.75h2.871c3.878,0,7.107-3.527,7.107-7.76V842.874A1.9,1.9,0,0,0,366.061,841H352.668a1.461,1.461,0,0,0-.575.125A1.86,1.86,0,0,0,351,842.883Z" transform="translate(-351 -841)" fill="#ffe245"/>
      </g>
      <g id="Grupo_15273" data-name="Grupo 15273" transform="translate(267.205 400.24)">
        <rect id="Rectángulo_3739" data-name="Rectángulo 3739" width="4" height="5" transform="translate(1.159 0.918)" fill="#fff"/>
        <path id="Trazado_31215" data-name="Trazado 31215" d="M411.591,875.989h-4.829a.762.762,0,0,1-.762-.762v-5.464a.762.762,0,0,1,.762-.762h4.829a.762.762,0,0,1,.762.762v5.464A.762.762,0,0,1,411.591,875.989Zm-4.066-1.525h3.3v-3.939h-3.3Z" transform="translate(-406 -869)" fill="#6d2007"/>
      </g>
      <g id="Grupo_15274" data-name="Grupo 15274" transform="translate(269.62 395.411)">
        <line id="Línea_49" data-name="Línea 49" y2="8" transform="translate(0.745 -0.253)" fill="#ffae0b"/>
        <path id="Trazado_31216" data-name="Trazado 31216" d="M425.762,838.5a.762.762,0,0,1-.762-.762v-5.973a.762.762,0,1,1,1.525,0v5.973A.762.762,0,0,1,425.762,838.5Z" transform="translate(-425 -831)" fill="#6d2007"/>
      </g>
      <g id="Grupo_15275" data-name="Grupo 15275" transform="translate(258.71 388.224)">
        <line id="Línea_50" data-name="Línea 50" x1="3.624" y1="6.419" transform="translate(0.763 0.763)" fill="#fff"/>
        <path id="Trazado_31217" data-name="Trazado 31217" d="M343.539,782.387a.762.762,0,0,1-.665-.388l-3.624-6.419a.762.762,0,1,1,1.328-.75l3.624,6.419a.763.763,0,0,1-.663,1.137Z" transform="translate(-339.152 -774.442)" fill="#6d2007"/>
      </g>
      <g id="Grupo_15279" data-name="Grupo 15279" transform="translate(280.11 332)">
        <g id="Grupo_15276" data-name="Grupo 15276" transform="translate(5.194 0.816)">
          <path id="Trazado_31218" data-name="Trazado 31218" d="M554.979,365.942V349.45a12.612,12.612,0,0,0-6.554-11.013c6.782-.008,18.7-.014,26.275-.016a.675.675,0,0,0,.148.027,11.048,11.048,0,0,1,10.248,11v16.493Z" transform="translate(-548.425 -338.42)" fill="#c7cfd1"/>
        </g>
        <g id="Grupo_15278" data-name="Grupo 15278" transform="translate(0)">
          <g id="Grupo_15277" data-name="Grupo 15277">
            <path id="Trazado_31219" data-name="Trazado 31219" d="M538.924,333.578a1.555,1.555,0,0,0,.192.026,10.259,10.259,0,0,1,9.538,10.242v15.73H520.062v-15.73a13.342,13.342,0,0,0-4.854-10.254c6.911-.007,17-.011,23.715-.014m.585-1.578h0Zm0,.053s-31.864.011-31.957.029a11.808,11.808,0,0,1,10.986,11.763v17.022a.909.909,0,0,1-.04.233H550.18V343.846a11.788,11.788,0,0,0-10.963-11.763,1.5,1.5,0,0,1,.292-.029Z" transform="translate(-507.552 -332)" fill="#6d2007"/>
          </g>
        </g>
      </g>
      <g id="Grupo_15280" data-name="Grupo 15280" transform="translate(310.328 396.809)">
        <path id="Trazado_31220" data-name="Trazado 31220" d="M772.718,864.266H752.366L754.942,848h15.2Z" transform="translate(-751.473 -847.238)" fill="#6b94b7"/>
        <path id="Trazado_31221" data-name="Trazado 31221" d="M767.479,859.791H745.341L748.159,842h16.5Zm-20.352-1.525h18.567l-2.335-14.741h-13.9Z" transform="translate(-745.341 -842)" fill="#6d2007"/>
      </g>
      <g id="Grupo_15281" data-name="Grupo 15281" transform="translate(302.914 412.312)">
        <path id="Trazado_31222" data-name="Trazado 31222" d="M729.725,972.763a1.294,1.294,0,0,1-1.09,1.43H694.109a1.307,1.307,0,0,1-1.109-1.43v-1.387A1.252,1.252,0,0,1,694.109,970h34.526a1.238,1.238,0,0,1,1.09,1.377Z" transform="translate(-692.238 -969.238)" fill="#6b94b7"/>
        <path id="Trazado_31223" data-name="Trazado 31223" d="M723.4,969.718H688.872A2.054,2.054,0,0,1,687,967.526v-1.387A2,2,0,0,1,688.872,964H723.4a1.99,1.99,0,0,1,1.852,2.139v1.387A2.022,2.022,0,0,1,723.4,969.718Zm-34.526-4.193c-.145,0-.347.234-.347.614v1.387c0,.408.228.668.347.668H723.4c.112,0,.327-.26.327-.668v-1.387c0-.362-.172-.614-.327-.614Z" transform="translate(-687 -964)" fill="#6d2007"/>
      </g>
      <g id="Grupo_15284" data-name="Grupo 15284" transform="translate(305.588 396.047)">
        <g id="Grupo_15282" data-name="Grupo 15282" transform="translate(0.762 0.762)">
          <path id="Trazado_31224" data-name="Trazado 31224" d="M714.809,859.791a.75.75,0,0,1-.753-.869l2.576-16.3a.747.747,0,0,1,.753-.626h15.2a.749.749,0,0,1,.753.628l2.576,16.305a.737.737,0,0,1-.173.6.752.752,0,0,1-.58.255Z" transform="translate(-714.046 -842)" fill="#e0edf2"/>
        </g>
        <g id="Grupo_15283" data-name="Grupo 15283" transform="translate(0)">
          <path id="Trazado_31225" data-name="Trazado 31225" d="M727.346,837.525l1.168,7.37,1.408,8.9H709.571l1.408-8.9,1.168-7.37h15.209M727.346,836h-15.2a1.511,1.511,0,0,0-1.506,1.272l-1.168,7.386-1.408,8.916a1.508,1.508,0,0,0,1.506,1.742h20.352a1.512,1.512,0,0,0,1.506-1.75l-1.408-8.917-1.168-7.377A1.51,1.51,0,0,0,727.346,836Z" transform="translate(-708.046 -836)" fill="#6d2007"/>
        </g>
      </g>
      <g id="Grupo_15285" data-name="Grupo 15285" transform="translate(297.576 412.312)">
        <path id="Trazado_31226" data-name="Trazado 31226" d="M687.725,972.763c0,.784-.424,1.43-1.034,1.43H652.165a1.347,1.347,0,0,1-1.165-1.43v-1.387A1.292,1.292,0,0,1,652.165,970h34.526c.61,0,1.034.593,1.034,1.377Z" transform="translate(-650.238 -969.238)" fill="#e0edf2"/>
        <path id="Trazado_31227" data-name="Trazado 31227" d="M681.454,969.718H646.927A2.1,2.1,0,0,1,645,967.526v-1.387A2.044,2.044,0,0,1,646.927,964h34.526a1.946,1.946,0,0,1,1.8,2.139v1.387A1.979,1.979,0,0,1,681.454,969.718Zm-34.526-4.193c-.164,0-.4.239-.4.614v1.387c0,.393.261.668.4.668h34.526c.093,0,.271-.26.271-.668v-1.387c0-.362-.143-.614-.271-.614Z" transform="translate(-645 -964)" fill="#6d2007"/>
      </g>
      <g id="Grupo_15286" data-name="Grupo 15286" transform="translate(308.287 399.096)">
        <path id="Trazado_31228" data-name="Trazado 31228" d="M747.286,867.37h-18l1.168-7.37h15.669Z" transform="translate(-729.282 -860)" fill="#aeb7c2"/>
      </g>
      <g id="Grupo_15289" data-name="Grupo 15289" transform="translate(281.853 342.238)">
        <g id="Grupo_15287" data-name="Grupo 15287" transform="translate(0.763 0.762)">
          <path id="Rectángulo_3740" data-name="Rectángulo 3740" d="M29.868,0H50.758A29.868,29.868,0,0,1,80.626,29.868v0A29.868,29.868,0,0,1,50.758,59.736H29.868A29.868,29.868,0,0,1,0,29.868v0A29.868,29.868,0,0,1,29.868,0Z" fill="#00b565"/>
        </g>
        <g id="Grupo_15288" data-name="Grupo 15288" transform="translate(0 0)">
          <path id="Trazado_31229" data-name="Trazado 31229" d="M594.031,414.089a7.863,7.863,0,0,1,7.863,7.863v42.485a7.863,7.863,0,0,1-7.863,7.863H530.656a7.863,7.863,0,0,1-7.863-7.863V421.952a7.863,7.863,0,0,1,7.863-7.863h63.375m0-1.525H530.656a9.4,9.4,0,0,0-9.388,9.388v42.485a9.4,9.4,0,0,0,9.388,9.388h63.375a9.4,9.4,0,0,0,9.388-9.388V421.952a9.4,9.4,0,0,0-9.388-9.388Z" transform="translate(-521.268 -412.564)" fill="#6d2007"/>
        </g>
      </g>
      <g id="Grupo_15292" data-name="Grupo 15292" transform="translate(276.355 342.166)">
        <g id="Grupo_15290" data-name="Grupo 15290" transform="translate(0.762 0.762)">
          <path id="Trazado_31230" data-name="Trazado 31230" d="M492.608,477.726A8.605,8.605,0,0,1,484,469.137V426.652A8.627,8.627,0,0,1,492.608,418h63.375a8.4,8.4,0,0,1,2.908.506,8.672,8.672,0,0,1,5.676,8.146v42.485a8.584,8.584,0,0,1-8.584,8.589Z" transform="translate(-484 -418)" fill="#f8fcff"/>
        </g>
        <g id="Grupo_15291" data-name="Grupo 15291" transform="translate(0 0)">
          <path id="Trazado_31231" data-name="Trazado 31231" d="M550.746,413.525a7.641,7.641,0,0,1,2.646.46,7.9,7.9,0,0,1,5.174,7.43V463.9a7.8,7.8,0,0,1-7.821,7.827H487.37a7.817,7.817,0,0,1-7.846-7.827V421.415a7.871,7.871,0,0,1,7.846-7.89h63.317m.058-1.525H487.37a9.39,9.39,0,0,0-9.37,9.415V463.9a9.342,9.342,0,0,0,9.37,9.351h63.375a9.322,9.322,0,0,0,9.346-9.351V421.415a9.437,9.437,0,0,0-6.177-8.863,9.153,9.153,0,0,0-3.169-.552Z" transform="translate(-478 -412)" fill="#6d2007"/>
        </g>
      </g>
      <g id="Grupo_15293" data-name="Grupo 15293" transform="translate(281.057 344.199)">
        <path id="Trazado_31232" data-name="Trazado 31232" d="M590.865,435.382v42.485a7.8,7.8,0,0,1-7.821,7.827h-62.9A7.845,7.845,0,0,1,515,478.336V435.851A7.831,7.831,0,0,1,522.837,428h62.874A7.733,7.733,0,0,1,590.865,435.382Z" transform="translate(-515 -428)" fill="#e0edf2"/>
      </g>
      <g id="Grupo_15296" data-name="Grupo 15296" transform="translate(276.355 342.166)">
        <g id="Grupo_15294" data-name="Grupo 15294" transform="translate(0.762 0.762)">
          <path id="Trazado_31233" data-name="Trazado 31233" d="M484,466.162v-39.51a8.663,8.663,0,0,1,5.159-7.931,8.418,8.418,0,0,1,3.449-.721h63.375a8.606,8.606,0,0,1,8.584,8.652v39.51Z" transform="translate(-484 -418)" fill="#c5ffe7"/>
        </g>
        <g id="Grupo_15295" data-name="Grupo 15295" transform="translate(0 0)">
          <path id="Trazado_31234" data-name="Trazado 31234" d="M550.746,413.525a7.85,7.85,0,0,1,7.821,7.89v38.747H479.525V421.415a7.909,7.909,0,0,1,4.7-7.234,7.693,7.693,0,0,1,3.141-.656h63.317m.058-1.525H487.37a9.177,9.177,0,0,0-3.76.787A9.425,9.425,0,0,0,478,421.415v40.272h82.092V421.415A9.37,9.37,0,0,0,550.746,412Z" transform="translate(-478 -412)" fill="#6d2007"/>
        </g>
      </g>
      <g id="Grupo_15297" data-name="Grupo 15297" transform="translate(281.057 343.691)">
        <path id="Trazado_31235" data-name="Trazado 31235" d="M590.865,431.89v38.747H515V431.89a7.905,7.905,0,0,1,4.7-7.234,7.675,7.675,0,0,1,3.137-.656h60.206A7.85,7.85,0,0,1,590.865,431.89Z" transform="translate(-515 -424)" fill="#43ffc5"/>
      </g>
      <g id="Grupo_15298" data-name="Grupo 15298" transform="translate(313.951 394.079)">
        <circle id="Elipse_991" data-name="Elipse 991" cx="2.23" cy="2.23" r="2.23" transform="translate(0.36 4.729) rotate(-78.409)" fill="#fff"/>
        <path id="Trazado_31236" data-name="Trazado 31236" d="M776.847,826.5a2.992,2.992,0,1,1,2.992-2.992A3,3,0,0,1,776.847,826.5Zm0-4.46a1.467,1.467,0,1,0,1.468,1.467A1.469,1.469,0,0,0,776.847,822.04Z" transform="translate(-773.855 -820.515)" fill="#6d2007"/>
      </g>
      <g id="Grupo_15299" data-name="Grupo 15299" transform="translate(336.484 359.223)">
        <circle id="Elipse_992" data-name="Elipse 992" cx="3.716" cy="3.716" r="3.716" transform="translate(0.762 0.762)" fill="#ffdc80"/>
        <path id="Trazado_31237" data-name="Trazado 31237" d="M955.655,555.18a4.479,4.479,0,1,1,4.479-4.479A4.484,4.484,0,0,1,955.655,555.18Zm0-7.433a2.954,2.954,0,1,0,2.954,2.954A2.957,2.957,0,0,0,955.655,547.747Z" transform="translate(-951.176 -546.222)" fill="#6d2007"/>
      </g>
      <g id="Grupo_15300" data-name="Grupo 15300" transform="translate(287.537 396.174)">
        <rect id="Rectángulo_3741" data-name="Rectángulo 3741" width="10" height="10" rx="5" transform="translate(0.827 0.985)" fill="#ffdc80"/>
        <path id="Trazado_31238" data-name="Trazado 31238" d="M575.771,848.564h-7.978A1.8,1.8,0,0,1,566,846.771v-7.978A1.8,1.8,0,0,1,567.793,837h7.978a1.8,1.8,0,0,1,1.793,1.793v7.978A1.8,1.8,0,0,1,575.771,848.564Zm-7.978-10.039a.268.268,0,0,0-.268.268v7.978a.268.268,0,0,0,.268.268h7.978a.268.268,0,0,0,.268-.268v-7.978a.268.268,0,0,0-.268-.268Z" transform="translate(-566 -837)" fill="#6d2007"/>
      </g>
      <g id="Grupo_15301" data-name="Grupo 15301" transform="translate(256.658 416.506)">
        <line id="Línea_51" data-name="Línea 51" x1="93" transform="translate(0.706 0.652)" fill="#fff"/>
        <path id="Trazado_31239" data-name="Trazado 31239" d="M416.656,998.525H323.762a.762.762,0,1,1,0-1.525h92.893a.762.762,0,1,1,0,1.525Z" transform="translate(-323 -997)" fill="#6d2007"/>
      </g>
      <g id="Grupo_15302" data-name="Grupo 15302" transform="translate(270.001 416.506)">
        <line id="Línea_52" data-name="Línea 52" x1="2" transform="translate(0.363 0.652)" fill="#fff"/>
        <path id="Trazado_31240" data-name="Trazado 31240" d="M430.8,998.525h-2.033a.762.762,0,1,1,0-1.525H430.8a.762.762,0,1,1,0,1.525Z" transform="translate(-428 -997)" fill="#6d2007"/>
      </g>
      <g id="Grupo_15303" data-name="Grupo 15303" transform="translate(321.213 370.885)">
        <rect id="Rectángulo_3742" data-name="Rectángulo 3742" width="5" height="14" transform="translate(0.151 1.273)" fill="#fff"/>
        <path id="Trazado_31241" data-name="Trazado 31241" d="M836.337,654.9h-4.575a.762.762,0,0,1-.763-.762V638.762a.762.762,0,0,1,.763-.762h4.575a.763.763,0,0,1,.762.762v15.376A.763.763,0,0,1,836.337,654.9Zm-3.812-1.525h3.05V639.525h-3.05Z" transform="translate(-831 -638)" fill="#6d2007"/>
      </g>
      <g id="Grupo_15304" data-name="Grupo 15304" transform="translate(313.08 379.4)">
        <rect id="Rectángulo_3743" data-name="Rectángulo 3743" width="5" height="6" transform="translate(0.284 0.759)" fill="#fff"/>
        <path id="Trazado_31242" data-name="Trazado 31242" d="M772.337,713.387h-4.575a.762.762,0,0,1-.763-.762v-6.862a.762.762,0,0,1,.763-.762h4.575a.763.763,0,0,1,.763.762v6.862A.763.763,0,0,1,772.337,713.387Zm-3.812-1.525h3.05v-5.337h-3.05Z" transform="translate(-767 -705)" fill="#6d2007"/>
      </g>
      <g id="Grupo_15305" data-name="Grupo 15305" transform="translate(304.947 376.223)">
        <rect id="Rectángulo_3744" data-name="Rectángulo 3744" width="4" height="9" transform="translate(1.417 0.936)" fill="#fff"/>
        <path id="Trazado_31243" data-name="Trazado 31243" d="M708.337,691.564h-4.575A.762.762,0,0,1,703,690.8V680.762a.762.762,0,0,1,.762-.762h4.575a.763.763,0,0,1,.763.762V690.8A.763.763,0,0,1,708.337,691.564Zm-3.812-1.525h3.05v-8.514h-3.05Z" transform="translate(-703 -680)" fill="#6d2007"/>
      </g>
      <g id="Grupo_15306" data-name="Grupo 15306" transform="translate(337.352 381.814)">
        <rect id="Rectángulo_3745" data-name="Rectángulo 3745" width="5" height="4" transform="translate(1.013 0.344)" fill="#fff"/>
        <path id="Trazado_31244" data-name="Trazado 31244" d="M963.337,729.973h-4.575a.762.762,0,0,1-.763-.762v-4.448a.762.762,0,0,1,.763-.762h4.575a.762.762,0,0,1,.762.762v4.448A.763.763,0,0,1,963.337,729.973Zm-3.812-1.525h3.05v-2.923h-3.05Z" transform="translate(-958 -724)" fill="#6d2007"/>
      </g>
      <g id="Grupo_15307" data-name="Grupo 15307" transform="translate(329.346 372.919)">
        <rect id="Rectángulo_3746" data-name="Rectángulo 3746" width="3" height="13" transform="translate(2.019 0.24)" fill="#fff"/>
        <path id="Trazado_31245" data-name="Trazado 31245" d="M900.337,668.868h-4.575a.762.762,0,0,1-.762-.762V654.762a.762.762,0,0,1,.762-.762h4.575a.763.763,0,0,1,.762.762v13.343A.762.762,0,0,1,900.337,668.868Zm-3.812-1.525h3.05V655.525h-3.05Z" transform="translate(-895 -654)" fill="#6d2007"/>
      </g>
      <g id="Grupo_15309" data-name="Grupo 15309" transform="translate(281.565 342.547)" opacity="0.38">
        <g id="Grupo_15308" data-name="Grupo 15308" transform="translate(0 0)">
          <path id="Trazado_31246" data-name="Trazado 31246" d="M550.756,452.886a4.437,4.437,0,0,1-4.416,4.431H523.455A4.5,4.5,0,0,1,519,452.857V420a11.644,11.644,0,0,1,.867-4.354,7.853,7.853,0,0,1,3.176-.641h27.726v22.017C550.769,437.085,550.755,446.951,550.756,452.886Z" transform="translate(-519 -415)" fill="#00471c"/>
        </g>
      </g>
      <g id="Grupo_15310" data-name="Grupo 15310" transform="translate(306.351 344.761)">
        <path id="Trazado_31247" data-name="Trazado 31247" d="M714.808,454.433a.762.762,0,0,1-.578-1.26l10.212-11.867a.762.762,0,0,1,1.029-.118l11.646,8.532L757.042,432.6a.762.762,0,0,1,.994,1.157l-20.383,17.513a.763.763,0,0,1-.948.037l-11.566-8.473-9.752,11.332A.761.761,0,0,1,714.808,454.433Z" transform="translate(-714.046 -432.418)" fill="#6d2007"/>
      </g>
      <g id="Grupo_15311" data-name="Grupo 15311" transform="translate(326.141 360.146)">
        <circle id="Elipse_993" data-name="Elipse 993" cx="1.982" cy="1.982" r="1.982" transform="translate(0 2.803) rotate(-45)" fill="#fcf"/>
        <path id="Trazado_31248" data-name="Trazado 31248" d="M872.985,559.437a2.745,2.745,0,1,1,2.745-2.745A2.748,2.748,0,0,1,872.985,559.437Zm0-3.964a1.22,1.22,0,1,0,1.22,1.22A1.221,1.221,0,0,0,872.985,555.473Z" transform="translate(-870.181 -553.889)" fill="#6d2007"/>
      </g>
      <g id="Grupo_15312" data-name="Grupo 15312" transform="translate(314.581 351.754)">
        <circle id="Elipse_994" data-name="Elipse 994" cx="1.982" cy="1.982" r="1.982" transform="translate(0.762 0.762)" fill="#fcf"/>
        <path id="Trazado_31249" data-name="Trazado 31249" d="M781.555,492.941A2.745,2.745,0,1,1,784.3,490.2,2.748,2.748,0,0,1,781.555,492.941Zm0-3.964a1.22,1.22,0,1,0,1.22,1.22A1.221,1.221,0,0,0,781.555,488.977Z" transform="translate(-778.81 -487.452)" fill="#6d2007"/>
      </g>
      <g id="Grupo_15313" data-name="Grupo 15313" transform="translate(303.783 362.904)">
        <circle id="Elipse_995" data-name="Elipse 995" cx="1.982" cy="1.982" r="1.982" transform="matrix(0.231, -0.973, 0.973, 0.231, 0.358, 4.215)" fill="#e99cdd"/>
        <path id="Trazado_31250" data-name="Trazado 31250" d="M696.588,580.678a2.745,2.745,0,1,1,2.745-2.745A2.748,2.748,0,0,1,696.588,580.678Zm0-3.964a1.22,1.22,0,1,0,1.22,1.22A1.221,1.221,0,0,0,696.588,576.714Z" transform="translate(-693.844 -575.189)" fill="#6d2007"/>
      </g>
      <g id="Grupo_15314" data-name="Grupo 15314" transform="translate(333.785 339.389)">
        <circle id="Elipse_996" data-name="Elipse 996" cx="17.409" cy="17.409" r="17.409" transform="translate(0.762 0.762)" fill="#e0edf2"/>
        <path id="Trazado_31251" data-name="Trazado 31251" d="M948.106,426.485a18.171,18.171,0,1,1,18.171-18.171A18.192,18.192,0,0,1,948.106,426.485Zm0-34.817a16.646,16.646,0,1,0,16.646,16.646A16.665,16.665,0,0,0,948.106,391.668Z" transform="translate(-929.935 -390.143)" fill="#6d2007"/>
      </g>
      <g id="Grupo_15315" data-name="Grupo 15315" transform="translate(333.108 338.829)">
        <circle id="Elipse_997" data-name="Elipse 997" cx="13.327" cy="13.327" r="13.327" transform="translate(0 18.848) rotate(-45)" fill="#43ffc5"/>
        <path id="Trazado_31252" data-name="Trazado 31252" d="M976.14,451.362a14.09,14.09,0,1,1,14.09-14.09A14.106,14.106,0,0,1,976.14,451.362Zm0-26.655A12.565,12.565,0,1,0,988.7,437.272,12.579,12.579,0,0,0,976.14,424.707Z" transform="translate(-957.292 -418.424)" fill="#6d2007"/>
      </g>
      <g id="Grupo_15316" data-name="Grupo 15316" transform="translate(368.612 356.399)">
        <line id="Línea_53" data-name="Línea 53" x1="5" transform="translate(0.752 0.76)" fill="#ffdc80"/>
        <path id="Trazado_31253" data-name="Trazado 31253" d="M1210.1,525.525h-5.337a.762.762,0,1,1,0-1.525h5.337a.762.762,0,0,1,0,1.525Z" transform="translate(-1204 -524)" fill="#6d2007"/>
      </g>
      <g id="Grupo_15319" data-name="Grupo 15319" transform="translate(373.441 352.332)">
        <g id="Grupo_15317" data-name="Grupo 15317" transform="translate(0.762 0.762)">
          <path id="Trazado_31254" data-name="Trazado 31254" d="M1251.534,506.514a3.476,3.476,0,0,1-1.874-.538,3.54,3.54,0,0,1-1.66-3.045v-1.364a3.523,3.523,0,0,1,3.534-3.568h15.959a3.592,3.592,0,0,1,3.561,2.964,3.234,3.234,0,0,1,.074.6v1.364a3.622,3.622,0,0,1-3.635,3.583Z" transform="translate(-1248 -498)" fill="#ffc49c"/>
        </g>
        <g id="Grupo_15318" data-name="Grupo 15318" transform="translate(0 0)">
          <path id="Trazado_31255" data-name="Trazado 31255" d="M1262.255,493.525a2.84,2.84,0,0,1,2.81,2.331,2.548,2.548,0,0,1,.063.474v1.364a2.855,2.855,0,0,1-2.873,2.82H1246.3a2.706,2.706,0,0,1-1.469-.422,2.794,2.794,0,0,1-1.3-2.4V496.33a2.756,2.756,0,0,1,2.771-2.805h15.909m.05-1.525H1246.3a4.286,4.286,0,0,0-4.3,4.33v1.364a4.3,4.3,0,0,0,2.017,3.691,4.237,4.237,0,0,0,2.279.654h15.959a4.385,4.385,0,0,0,4.4-4.345V496.33a4.064,4.064,0,0,0-.087-.743,4.353,4.353,0,0,0-4.311-3.588Z" transform="translate(-1242 -492)" fill="#6d2007"/>
        </g>
      </g>
      <g id="Grupo_15320" data-name="Grupo 15320" transform="translate(376.236 355.763)">
        <path id="Trazado_31256" data-name="Trazado 31256" d="M1284.326,519.9v1.364a2.855,2.855,0,0,1-2.873,2.82h-15.959a2.74,2.74,0,0,1-1.48-.422,2.707,2.707,0,0,1-.021-.48v-1.365a2.782,2.782,0,0,1,2.792-2.816h15.959a2.879,2.879,0,0,1,1.519.42A2.585,2.585,0,0,1,1284.326,519.9Z" transform="translate(-1263.993 -519)" fill="#f19a6a"/>
      </g>
      <g id="Grupo_15321" data-name="Grupo 15321" transform="translate(377.381 353.476)">
        <line id="Línea_54" data-name="Línea 54" y2="6" transform="translate(0.983 1.682)" fill="#ffdc80"/>
        <path id="Trazado_31257" data-name="Trazado 31257" d="M1273.762,509.133a.762.762,0,0,1-.762-.762v-6.608a.762.762,0,0,1,1.525,0v6.608A.762.762,0,0,1,1273.762,509.133Z" transform="translate(-1273 -501)" fill="#6d2007"/>
      </g>
      <g id="Grupo_15322" data-name="Grupo 15322" transform="translate(393.265 353.095)">
        <line id="Línea_55" data-name="Línea 55" y2="7" transform="translate(1.099 1.064)" fill="#ffdc80"/>
        <path id="Trazado_31258" data-name="Trazado 31258" d="M1398.763,506.133a.762.762,0,0,1-.762-.762v-6.608a.762.762,0,1,1,1.525,0v6.608A.762.762,0,0,1,1398.763,506.133Z" transform="translate(-1398 -498)" fill="#6d2007"/>
      </g>
      <g id="Grupo_15325" data-name="Grupo 15325" transform="translate(269.295 332.053)">
        <g id="Grupo_15323" data-name="Grupo 15323" transform="translate(0.762 0.763)">
          <path id="Trazado_31259" data-name="Trazado 31259" d="M432.082,385.952a3.643,3.643,0,0,1-3.639-3.639V349.45a11.056,11.056,0,0,1,10.257-11l.4-.027c7.59,0,19.334.008,26.045.016a12.6,12.6,0,0,0-6.536,11.013v17.022c0,.068,0,9.906,0,15.84a3.639,3.639,0,0,1-3.639,3.64Z" transform="translate(-428.443 -338.42)" fill="#fff"/>
        </g>
        <g id="Grupo_15324" data-name="Grupo 15324" transform="translate(0 0)">
          <path id="Trazado_31260" data-name="Trazado 31260" d="M433.885,333.943c6.72,0,16.707.007,23.557.014a13.326,13.326,0,0,0-4.836,10.254v17.022c0,.068,0,9.906,0,15.84a2.877,2.877,0,0,1-2.877,2.877H426.845a2.88,2.88,0,0,1-2.877-2.877V344.21a10.267,10.267,0,0,1,9.547-10.242l.369-.025m-.762-1.525a1.453,1.453,0,0,1,.287.029,11.792,11.792,0,0,0-10.967,11.763v32.863a4.4,4.4,0,0,0,4.4,4.4H449.73a4.4,4.4,0,0,0,4.4-4.4c0-5.934,0-15.772,0-15.84V344.21A11.792,11.792,0,0,1,465.1,332.447c-.093-.019-31.975-.029-31.975-.029Z" transform="translate(-422.443 -332.418)" fill="#6d2007"/>
        </g>
      </g>
      <g id="Grupo_15326" data-name="Grupo 15326" transform="translate(247 416.633)">
        <line id="Línea_56" data-name="Línea 56" x1="3" transform="translate(1.364 0.525)" fill="#ababb0"/>
        <path id="Trazado_31261" data-name="Trazado 31261" d="M251.321,999.525h-3.558a.762.762,0,1,1,0-1.525h3.558a.762.762,0,1,1,0,1.525Z" transform="translate(-247 -998)" fill="#6d2007"/>
      </g>
      <g id="Grupo_15327" data-name="Grupo 15327" transform="translate(274.957 353.73)">
        <line id="Línea_57" data-name="Línea 57" x2="20" transform="translate(0.407 1.428)" fill="#fff"/>
        <path id="Trazado_31262" data-name="Trazado 31262" d="M486.951,504.525H467.762a.762.762,0,0,1,0-1.525h19.189a.762.762,0,0,1,0,1.525Z" transform="translate(-467 -503)" fill="#bcbcbc"/>
      </g>
      <g id="Grupo_15328" data-name="Grupo 15328" transform="translate(274.83 358.178)">
        <line id="Línea_58" data-name="Línea 58" x2="20" transform="translate(0.534 0.98)" fill="#fff"/>
        <path id="Trazado_31263" data-name="Trazado 31263" d="M486.078,539.525H466.762a.762.762,0,1,1,0-1.525h19.316a.762.762,0,0,1,0,1.525Z" transform="translate(-466 -538)" fill="#bcbcbc"/>
      </g>
      <g id="Grupo_15329" data-name="Grupo 15329" transform="translate(274.703 362.498)">
        <line id="Línea_59" data-name="Línea 59" x2="20" transform="translate(0.661 0.66)" fill="#fff"/>
        <path id="Trazado_31264" data-name="Trazado 31264" d="M485.078,573.525H465.762a.762.762,0,0,1,0-1.525h19.316a.762.762,0,1,1,0,1.525Z" transform="translate(-465 -572)" fill="#bcbcbc"/>
      </g>
      <g id="Grupo_15330" data-name="Grupo 15330" transform="translate(274.83 366.311)">
        <line id="Línea_60" data-name="Línea 60" x2="11" transform="translate(0.534 0.847)" fill="#fff"/>
        <path id="Trazado_31265" data-name="Trazado 31265" d="M476.547,603.525h-9.785a.762.762,0,1,1,0-1.525h9.785a.762.762,0,0,1,0,1.525Z" transform="translate(-466 -602)" fill="#bcbcbc"/>
      </g>
      <g id="Grupo_15333" data-name="Grupo 15333" transform="translate(274.768 342.845)">
        <g id="Grupo_15331" data-name="Grupo 15331" transform="translate(0 0.115)">
          <path id="Trazado_31266" data-name="Trazado 31266" d="M468.507,425.965v-5.584h-1.994v-1.137h5.341v1.137h-1.99v5.584Z" transform="translate(-466.386 -419.117)" fill="#6d2007"/>
          <path id="Trazado_31267" data-name="Trazado 31267" d="M468.991,425.219h-1.357a.127.127,0,0,1-.127-.127v-5.457H465.64a.127.127,0,0,1-.127-.127v-1.137a.127.127,0,0,1,.127-.127h5.341a.127.127,0,0,1,.127.127v1.137a.127.127,0,0,1-.127.127h-1.863v5.457A.127.127,0,0,1,468.991,425.219Zm-1.23-.254h1.1v-5.457a.127.127,0,0,1,.127-.127h1.863V418.5h-5.087v.883h1.867a.127.127,0,0,1,.127.127Z" transform="translate(-465.513 -418.244)" fill="#6d2007"/>
        </g>
        <g id="Grupo_15332" data-name="Grupo 15332" transform="translate(6.674)">
          <path id="Trazado_31268" data-name="Trazado 31268" d="M520.471,420.29l-1.32-.307a2.188,2.188,0,0,1,2.425-1.641,2.667,2.667,0,0,1,1.786.52,1.571,1.571,0,0,1,.6,1.222,1.465,1.465,0,0,1-.275.869,2.329,2.329,0,0,1-.825.681,2.124,2.124,0,0,1,1,.649,1.6,1.6,0,0,1,.335,1.034,1.779,1.779,0,0,1-.649,1.43,2.957,2.957,0,0,1-1.942.546,3.342,3.342,0,0,1-1.664-.351,2.2,2.2,0,0,1-.917-1.313l1.242-.408a1.307,1.307,0,0,0,.511.784,1.586,1.586,0,0,0,.786.179,1.328,1.328,0,0,0,.935-.277.852.852,0,0,0,.293-.635.8.8,0,0,0-.332-.665,1.648,1.648,0,0,0-1-.252h-.307V421.34h.156a1.436,1.436,0,0,0,.954-.28.925.925,0,0,0,.33-.743.817.817,0,0,0-.268-.619,1.079,1.079,0,0,0-.768-.252A1.042,1.042,0,0,0,520.471,420.29Z" transform="translate(-518.905 -418.215)" fill="#6d2007"/>
          <path id="Trazado_31269" data-name="Trazado 31269" d="M520.74,424.546a3.479,3.479,0,0,1-1.728-.368,2.326,2.326,0,0,1-.975-1.385.127.127,0,0,1,.081-.159l1.242-.408a.127.127,0,0,1,.161.082,1.2,1.2,0,0,0,.452.712,1.47,1.47,0,0,0,.724.163,1.219,1.219,0,0,0,.848-.243.724.724,0,0,0,.254-.543.669.669,0,0,0-.282-.564,1.54,1.54,0,0,0-.925-.226h-.307a.127.127,0,0,1-.127-.127v-1.013a.127.127,0,0,1,.127-.127h.156a1.323,1.323,0,0,0,.871-.25.8.8,0,0,0,.285-.646.689.689,0,0,0-.228-.526.963.963,0,0,0-.681-.218.92.92,0,0,0-.969.751.127.127,0,0,1-.151.089l-1.32-.307a.127.127,0,0,1-.094-.156,2.31,2.31,0,0,1,2.548-1.736,2.8,2.8,0,0,1,1.869.551,1.7,1.7,0,0,1,.647,1.318,1.6,1.6,0,0,1-.3.942,2.265,2.265,0,0,1-.637.584,2.09,2.09,0,0,1,.812.593,1.735,1.735,0,0,1,.362,1.113,1.908,1.908,0,0,1-.694,1.528A3.09,3.09,0,0,1,520.74,424.546Zm-2.42-1.71a2,2,0,0,0,.819,1.123,3.24,3.24,0,0,0,1.6.334,2.852,2.852,0,0,0,1.86-.516,1.643,1.643,0,0,0,.6-1.333,1.488,1.488,0,0,0-.307-.954,2.013,2.013,0,0,0-.946-.608.127.127,0,0,1-.019-.232,2.216,2.216,0,0,0,.781-.642,1.346,1.346,0,0,0,.252-.8,1.438,1.438,0,0,0-.559-1.126,2.561,2.561,0,0,0-1.7-.489,2.066,2.066,0,0,0-2.266,1.421l1.076.25a1.145,1.145,0,0,1,1.177-.82,1.205,1.205,0,0,1,.855.287.943.943,0,0,1,.308.712,1.051,1.051,0,0,1-.375.84,1.564,1.564,0,0,1-1.036.31h-.029v.759h.18a1.775,1.775,0,0,1,1.079.278.919.919,0,0,1,.383.766.978.978,0,0,1-.333.727,1.452,1.452,0,0,1-1.023.312,1.717,1.717,0,0,1-.848-.2,1.3,1.3,0,0,1-.529-.735Z" transform="translate(-518.032 -417.342)" fill="#6d2007"/>
        </g>
      </g>
      <g id="Grupo_15334" data-name="Grupo 15334" transform="translate(351.154 352.797)">
        <circle id="Elipse_998" data-name="Elipse 998" cx="4.152" cy="4.152" r="4.152" transform="translate(0.762 0.762)" fill="#fcf"/>
        <path id="Trazado_31270" data-name="Trazado 31270" d="M1071.533,505.486a4.914,4.914,0,1,1,4.914-4.914A4.92,4.92,0,0,1,1071.533,505.486Zm0-8.3a3.389,3.389,0,1,0,3.389,3.389A3.393,3.393,0,0,0,1071.533,497.183Z" transform="translate(-1066.619 -495.658)" fill="#6d2007"/>
      </g>
      <g id="Grupo_15335" data-name="Grupo 15335" transform="translate(338.655 355.702)">
        <line id="Línea_61" data-name="Línea 61" x1="12.516" y1="1.056" transform="translate(0.763 0.763)" fill="#43ffc5"/>
        <path id="Trazado_31271" data-name="Trazado 31271" d="M981.539,521.1l-.065,0-12.516-1.056a.762.762,0,1,1,.128-1.519l12.516,1.056a.762.762,0,0,1-.063,1.522Z" transform="translate(-968.26 -518.515)" fill="#6d2007"/>
      </g>
      <g id="Grupo_15336" data-name="Grupo 15336" transform="translate(341.686 347.546)" opacity="0.85">
        <path id="Trazado_31272" data-name="Trazado 31272" d="M1002.336,474.782a10.225,10.225,0,0,1,0-20.449,1.525,1.525,0,1,1,0,3.05,7.175,7.175,0,0,0,0,14.349,1.525,1.525,0,0,1,0,3.05Z" transform="translate(-992.111 -454.333)" fill="#fff"/>
      </g>
      <g id="Grupo_15337" data-name="Grupo 15337" transform="translate(354.775 348.24)" opacity="0.85">
        <path id="Trazado_31273" data-name="Trazado 31273" d="M1098.37,463.678a1.518,1.518,0,0,1-.8-.23,7.231,7.231,0,0,0-1.433-.685,1.525,1.525,0,1,1,1.006-2.879,10.271,10.271,0,0,1,2.038.975,1.525,1.525,0,0,1-.807,2.82Z" transform="translate(-1095.111 -459.798)" fill="#fff"/>
      </g>
      <g id="Grupo_15338" data-name="Grupo 15338" transform="translate(297.576 386.389)">
        <line id="Línea_62" data-name="Línea 62" x1="49" transform="translate(0.788 0.769)" fill="#fff"/>
        <path id="Trazado_31274" data-name="Trazado 31274" d="M694.941,761.525H645.762a.762.762,0,1,1,0-1.525h49.179a.762.762,0,1,1,0,1.525Z" transform="translate(-645 -760)" fill="#6d2007"/>
      </g>
      <g id="Grupo_15339" data-name="Grupo 15339" transform="translate(349.551 386.262)">
        <line id="Línea_63" data-name="Línea 63" x2="1" transform="translate(0.814 -0.103)" fill="#fff"/>
        <path id="Trazado_31275" data-name="Trazado 31275" d="M1056.287,760.525h-1.525a.762.762,0,0,1,0-1.525h1.525a.762.762,0,0,1,0,1.525Z" transform="translate(-1054 -759)" fill="#6d2007"/>
      </g>
      <g id="Grupo_15340" data-name="Grupo 15340" transform="translate(259.326 396.555)">
        <line id="Línea_64" data-name="Línea 64" x2="6" transform="translate(1.038 1.603)" fill="#ffc49c"/>
        <path id="Trazado_31276" data-name="Trazado 31276" d="M350.989,841.525h-6.227a.762.762,0,1,1,0-1.525h6.227a.762.762,0,0,1,0,1.525Z" transform="translate(-344 -840)" fill="#fff2db"/>
      </g>
      <g id="Grupo_15341" data-name="Grupo 15341" transform="translate(278.134 391.853)">
        <line id="Línea_65" data-name="Línea 65" x2="5" transform="translate(1.231 0.305)" fill="#ffc49c"/>
        <path id="Trazado_31277" data-name="Trazado 31277" d="M498.989,804.525h-6.227a.762.762,0,0,1,0-1.525h6.227a.762.762,0,0,1,0,1.525Z" transform="translate(-492 -803)" fill="#fff2db"/>
      </g>
    </g>
  </g>
</svg>
