<svg id="Grupo_11488" data-name="Grupo 11488" xmlns="http://www.w3.org/2000/svg" xmlns:xlink="http://www.w3.org/1999/xlink" width="1076" height="430.4" viewBox="0 0 1076 430.4">
  <defs>
    <linearGradient id="linear-gradient" x1="0.5" y1="-0.001" x2="0.5" y2="1" gradientUnits="objectBoundingBox">
      <stop offset="0" stop-color="#87b7df"/>
      <stop offset="1" stop-color="#ffc8fa"/>
    </linearGradient>
    <linearGradient id="linear-gradient-2" x1="0.5" x2="0.5" y2="1.011" gradientUnits="objectBoundingBox">
      <stop offset="0" stop-color="#be9cc0"/>
      <stop offset="1" stop-color="#576f97"/>
    </linearGradient>
    <linearGradient id="linear-gradient-3" x1="0.5" x2="0.5" y2="1.589" gradientUnits="objectBoundingBox">
      <stop offset="0" stop-color="#232b73"/>
      <stop offset="1" stop-color="#597399"/>
    </linearGradient>
  </defs>
  <rect id="Rectángulo_3436" data-name="Rectángulo 3436" width="1076" height="308.034" fill="url(#linear-gradient)"/>
  <path id="Trazado_27655" data-name="Trazado 27655" d="M1015.662,909.2a51.442,51.442,0,0,0-45.033,3.278,56.263,56.263,0,0,0-26.751,38.179c-50.19-24.111-109.614-7.525-141.776,39.573a87.451,87.451,0,0,0-86.5,1.581c-64.983-41.986-198.143-54.707-261.69-16.657-23.877-60.015-105.373-57.621-144.473-28.9C261.877,845.469,138.05,839.121,70.471,906.38,77.915,873.89,43.575,843.9,0,839.121v207.672H1076V866.9A105.648,105.648,0,0,0,1015.662,909.2Z" transform="translate(0 -722.619)" fill="#fff" fill-rule="evenodd" opacity="0.13"/>
  <g id="Grupo_11436" data-name="Grupo 11436" transform="translate(715.366 41.001)">
    <path id="Trazado_27656" data-name="Trazado 27656" d="M5656.585,349.15a67.158,67.158,0,1,0,51.037,80.114A67.2,67.2,0,0,0,5656.585,349.15Z" transform="translate(-5516.178 -340.288)" fill="#fff5d8" fill-rule="evenodd" opacity="0.19"/>
    <path id="Trazado_27657" data-name="Trazado 27657" d="M5824.548,550.458a39.12,39.12,0,1,0,29.729,46.668A39.144,39.144,0,0,0,5824.548,550.458Z" transform="translate(-5690.221 -514.226)" fill="#fff9e9" fill-rule="evenodd"/>
    <path id="Trazado_27658" data-name="Trazado 27658" d="M5399.646,1073.609a18.278,18.278,0,1,0,13.891,21.8A18.289,18.289,0,0,0,5399.646,1073.609Z" transform="translate(-5346.167 -965.174)" fill="#fff5d8" fill-rule="evenodd" opacity="0.26"/>
    <path id="Trazado_27659" data-name="Trazado 27659" d="M5167.868,1283.245a12.622,12.622,0,1,0,9.593,15.057A12.629,12.629,0,0,0,5167.868,1283.245Z" transform="translate(-5152.499 -1145.821)" fill="#fff5d8" fill-rule="evenodd" opacity="0.26"/>
    <path id="Trazado_27660" data-name="Trazado 27660" d="M6580.96,295.617a12.622,12.622,0,1,0,9.593,15.057A12.63,12.63,0,0,0,6580.96,295.617Z" transform="translate(-6369.399 -295.314)" fill="#fff5d8" fill-rule="evenodd" opacity="0.26"/>
  </g>
  <path id="Trazado_27661" data-name="Trazado 27661" d="M5273.089,1596.288c-20.464,4.3-45.273,18.139-77.63,46.5-34.84,21.78-73.914,21.866-109.116,10.827-48.921-11.106-157.528,6.339-212.588,29.088h399.334Z" transform="translate(-4197.089 -1374.661)" fill="#808aa8" fill-rule="evenodd"/>
  <rect id="Rectángulo_3437" data-name="Rectángulo 3437" width="1076" height="122.365" transform="translate(0 308.035)" fill="url(#linear-gradient-2)"/>
  <g id="iceberg" transform="translate(0 133.102)">
    <path id="Trazado_27662" data-name="Trazado 27662" d="M496.543,2157.142l-65.422-3.269-5.7-.284-110.8-2.477h0l-15.978-1.252h0l-107.78.585h0l-10.405.056L55.85,2149.062l-.018-.235-9.319.127-11-.127L0,2149.557v28.706l39.777.238,127.82,3.092,32.4-2.265,124.1.741,112.867-5.277,61.337-3.257,6.618-5.136h0Zm-205.081,3.453-8.115-.048,1.682-.617,9.758-.137Z" transform="translate(0 -1983.589)" fill="#636c93" fill-rule="evenodd" opacity="0.3"/>
    <g id="Grupo_11439" data-name="Grupo 11439">
      <g id="Grupo_11437" data-name="Grupo 11437" transform="translate(0 159.876)">
        <path id="Trazado_27663" data-name="Trazado 27663" d="M437.22,2222.915l-150.063.581,11.591,2.761-105.93-1.46-133.083.516L0,2223.977v12.513l36.039.731,146.873-1.674,119.751.642,16.189-1.252,112.264-2.477,72.06-3.554,8.485-9.256Z" transform="translate(0 -2204.456)" fill="#bbc8d9" fill-rule="evenodd"/>
        <path id="Trazado_27664" data-name="Trazado 27664" d="M2099.977,2258.083l-16.19,1.252-3.913-9.933-11.591-2.761,29.317-.113Z" transform="translate(-1781.125 -2227.602)" fill="#90a6c4" fill-rule="evenodd"/>
        <path id="Trazado_27665" data-name="Trazado 27665" d="M0,2252.335v12.271l56.631.762.688-9.038Z" transform="translate(0 -2232.602)" fill="#d4dde8" fill-rule="evenodd"/>
        <path id="Trazado_27666" data-name="Trazado 27666" d="M3221.5,2219.647l-74.44,4.968-.333,7.558,66.288-3.27Z" transform="translate(-2709.841 -2204.453)" fill="#90a6c4" fill-rule="evenodd"/>
        <path id="Trazado_27667" data-name="Trazado 27667" d="M1383.958,2276.579l-1.519-8.117,106.813-1.231,3.913,9.933Z" transform="translate(-1190.503 -2245.43)" fill="#d4dde8" fill-rule="evenodd"/>
        <path id="Trazado_27668" data-name="Trazado 27668" d="M511.661,2125.4l-6.706-5.136-62.149-3.257-114.361-5.277-125.74.741-32.831-2.265L40.362,2113.3,0,2113.538v18.449l59.736,2.031,133.083-.784,105.93,2.222-11.591-4.2,150.063-.885Z" transform="translate(0 -2110.208)" fill="#f7f7f8" fill-rule="evenodd"/>
      </g>
      <g id="Grupo_11438" data-name="Grupo 11438">
        <path id="Trazado_27669" data-name="Trazado 27669" d="M0,1132.693H475.411l-28.317-23.031-44.125-21.592-46.82,9.434-62.292-9.12-47.341-24.32-16.2-40.531-44.85-51.84-32.393-13.01L74.59,971.692,0,1004.767Z" transform="translate(0 -958.682)" fill="#f7f7f8" fill-rule="evenodd"/>
        <path id="Trazado_27670" data-name="Trazado 27670" d="M74.59,971.692,0,1004.767v40.478l83.444-21.316,69.634-65.248Z" transform="translate(0 -958.682)" fill="#fff" fill-rule="evenodd"/>
        <path id="Trazado_27671" data-name="Trazado 27671" d="M1066.867,958.682l14.142,37.94-19.9,49.066V1105.7l17.373,27h122.6l-38.556-25.423-2.226-43.206-16.2-40.531-44.849-51.841Z" transform="translate(-913.789 -958.682)" fill="#c7d6e6" fill-rule="evenodd"/>
        <path id="Trazado_27672" data-name="Trazado 27672" d="M447.306,1434.088,469,1516.647l-.348-88.012Z" transform="translate(-385.203 -1363.388)" fill="#fff" fill-rule="evenodd"/>
        <path id="Trazado_27673" data-name="Trazado 27673" d="M0,1949.761H139.293l-18.5-7.976-60.766-4.8-36.273-29.5L0,1930.294Z" transform="translate(0 -1775.75)" fill="#e2ebf4" fill-rule="evenodd"/>
        <path id="Trazado_27674" data-name="Trazado 27674" d="M173.828,1034.414h38.716l50.984-28.879-39.244,6.505Z" transform="translate(-149.694 -999.03)" fill="#eff2f4" fill-rule="evenodd"/>
        <path id="Trazado_27675" data-name="Trazado 27675" d="M1405.3,1132.64l14.7,41.1-14.7,38.042,18.188,41.451v-43.154l20.513-28-3.49-8.734Z" transform="translate(-1210.191 -1108.488)" fill="#b0c5dc" fill-rule="evenodd"/>
        <path id="Trazado_27676" data-name="Trazado 27676" d="M1206.645,1949.76l-21.9-17.813-32.687-24.469L1139.066,1940l6.278,9.757Z" transform="translate(-980.92 -1775.75)" fill="#b0c5dc" fill-rule="evenodd"/>
        <path id="Trazado_27677" data-name="Trazado 27677" d="M1802.874,1732.425l12.132,24.641,13.268,29.271h-11.948L1774.01,1762.9v-45.191Z" transform="translate(-1527.709 -1612.325)" fill="#e2ebf4" fill-rule="evenodd"/>
        <path id="Trazado_27678" data-name="Trazado 27678" d="M2335.814,2138.1l9.616-11.916,32.708,5.958,77.754,5.958Z" transform="translate(-2011.513 -1964.093)" fill="#c7d6e6" fill-rule="evenodd"/>
        <path id="Trazado_27679" data-name="Trazado 27679" d="M1883.678,1823.711l18.126,9.6,62.292,9.12-31.848,35.19h-23.736l-9.042-19.629-32.287-22.653,25.587,10.559Z" transform="translate(-1607.946 -1703.612)" fill="#c7d6e6" fill-rule="evenodd"/>
        <path id="Trazado_27680" data-name="Trazado 27680" d="M2417.023,1912.911l48.127-9.55,63.392-1.507-47.536-23.261-43.409,11.1Z" transform="translate(-2081.447 -1750.873)" fill="#fff" fill-rule="evenodd"/>
        <path id="Trazado_27681" data-name="Trazado 27681" d="M2412.3,2127.5c0,1.27,5.783,11.734,5.783,11.734h33.335l-7.414-5.958Z" transform="translate(-2077.381 -1965.224)" fill="#e2ebf4" fill-rule="evenodd"/>
      </g>
    </g>
  </g>
  <g id="Grupo_11442" data-name="Grupo 11442" transform="translate(232.816 298.777)">
    <g id="Grupo_11440" data-name="Grupo 11440">
      <path id="Trazado_27682" data-name="Trazado 27682" d="M1676.884,2229.15l14.879-4.391,12.74-15.2,5.165-9.964,5.681-2.364,13.256-39.347,6.025-5.911h5.853l4.993,5.573,4.648,27.695,3.443,1.182,5.337,26.344,16.484,5.91,7.575-1.013,7.058,2.7,9.813,8.781Z" transform="translate(-1676.884 -2151.976)" fill="#fff" fill-rule="evenodd"/>
      <path id="Trazado_27683" data-name="Trazado 27683" d="M1832.914,2394.136l9.707-4.983,6.72-12.577,4.667-5.615,4.293-20.887,5.413-6.513-7.654,34.363v9.881l2.614,6.331Z" transform="translate(-1811.251 -2316.962)" fill="#e0e7f3" fill-rule="evenodd"/>
      <path id="Trazado_27684" data-name="Trazado 27684" d="M2078.025,2151.979l-1.3,8.632.651,11.454.651,12.128-3.542,8.983-2.24,10.688,5.842-7.029,2.558,3.078v9.882l7.094,10.556v8.8h23.894l4.226-10.47-16.484-5.91-5.337-26.344-3.443-1.182-4.648-27.695-4.993-5.573Z" transform="translate(-2017.352 -2151.979)" fill="#c2cfe3" fill-rule="evenodd"/>
      <path id="Trazado_27685" data-name="Trazado 27685" d="M2355.938,2636.6l4.226-10.471,7.575-1.013,7.058,2.7,9.813,8.782Z" transform="translate(-2261.659 -2559.428)" fill="#f6f6f7" fill-rule="evenodd"/>
      <path id="Trazado_27686" data-name="Trazado 27686" d="M2403.541,2625.813l5.192-.695,7.058,2.7,7.583,6.786-9.917-1.191Z" transform="translate(-2302.653 -2559.428)" fill="#fff" fill-rule="evenodd"/>
      <path id="Trazado_27687" data-name="Trazado 27687" d="M2134.965,2151.979s3.985,18.738,3.985,20.759v15.048l13.221,18.99-4.122-20.348-3.443-1.182-4.649-27.695Z" transform="translate(-2071.366 -2151.979)" fill="#a8bcd7" fill-rule="evenodd"/>
      <path id="Trazado_27688" data-name="Trazado 27688" d="M2167.324,2540.371l3.14-6.74-9.487-20.258,18.481,20.258v6.74Z" transform="translate(-2093.766 -2463.197)" fill="#a8bcd7" fill-rule="evenodd"/>
      <path id="Trazado_27689" data-name="Trazado 27689" d="M1818.46,2499.775l14.514-9.042,4.295-12.784-5.681,2.364-4.9,9.964Z" transform="translate(-1798.804 -2432.691)" fill="#f6f6f7" fill-rule="evenodd"/>
      <path id="Trazado_27690" data-name="Trazado 27690" d="M2066.86,2590.612l9.456-10.091v-8.808l6.786,10.1v8.8Z" transform="translate(-2012.716 -2513.438)" fill="#e0e7f3" fill-rule="evenodd"/>
    </g>
    <g id="Grupo_11441" data-name="Grupo 11441" transform="translate(0 77.174)">
      <path id="Trazado_27691" data-name="Trazado 27691" d="M1693.755,2733.684l7.575-2.281,16.484,13.307,1.581,17.569h50.439l2.382-10.345,12.74-34.218,14.879-9.885H1676.884l9.812,19.77Z" transform="translate(-1676.884 -2707.831)" fill="#545454" fill-rule="evenodd" opacity="0.04"/>
      <path id="Trazado_27692" data-name="Trazado 27692" d="M2223.484,2744.331l-1.776,17.948h3.622l.208-2.272,4.667-12.641,6.72-28.316,9.707-11.218H2220.87l2.614,14.252Z" transform="translate(-2145.344 -2707.831)" fill="#123d87" fill-rule="evenodd" opacity="0.04"/>
      <path id="Trazado_27693" data-name="Trazado 27693" d="M1871.022,2762.279h17.148v-10.868l-7.094-23.766v-19.814h-23.894l-4.226,23.573,16.484,13.307Z" transform="translate(-1828.511 -2707.831)" fill="#053a85" fill-rule="evenodd" opacity="0.04"/>
      <path id="Trazado_27694" data-name="Trazado 27694" d="M1705.555,2707.831l-4.226,23.573-7.575,2.281-7.058-6.083-9.812-19.771Z" transform="translate(-1676.884 -2707.831)" fill="#3b4467" fill-rule="evenodd" opacity="0.04"/>
      <path id="Trazado_27695" data-name="Trazado 27695" d="M1712.778,2759.995l-5.191,1.563-7.059-6.083-7.583-15.277,9.916,2.681Z" transform="translate(-1690.716 -2735.704)" fill="#545454" fill-rule="evenodd" opacity="0.04"/>
      <path id="Trazado_27696" data-name="Trazado 27696" d="M1981.7,3074.762l-1.258-4.069.366,4.069Z" transform="translate(-1938.294 -3020.314)" fill="#04357a" fill-rule="evenodd" opacity="0.04"/>
      <path id="Trazado_27697" data-name="Trazado 27697" d="M1962.41,2762.279,1954.241,2723l3.14-15.174h-12.134V2723l15.913,39.274Z" transform="translate(-1907.988 -2707.831)" fill="#04357a" fill-rule="evenodd" opacity="0.04"/>
      <path id="Trazado_27698" data-name="Trazado 27698" d="M2309.835,2903.184l2.259-10.345,8.229-21.386-14.514,20.359-1.7,11.373Z" transform="translate(-2217.029 -2848.736)" fill="#3b4467" fill-rule="evenodd" opacity="0.04"/>
      <path id="Trazado_27699" data-name="Trazado 27699" d="M2071.735,2707.831l-9.456,22.717v19.831l-6.785-22.733v-19.815Z" transform="translate(-2002.928 -2707.831)" fill="#123d87" fill-rule="evenodd" opacity="0.04"/>
    </g>
  </g>
  <g id="Grupo_11446" data-name="Grupo 11446" transform="translate(367.668 246.957)">
    <g id="Grupo_11443" data-name="Grupo 11443" transform="translate(2.965 107.095)">
      <path id="Trazado_27700" data-name="Trazado 27700" d="M2681.852,2583.65l12.886,27.4,16.528,13.106.726,2.281h94.138L2828.081,2591l3.41-7.251,15.4-33.662H2669.525l1.961,17.382Z" transform="translate(-2669.525 -2550.091)" fill="#4f578c" fill-rule="evenodd" opacity="0.09"/>
      <path id="Trazado_27701" data-name="Trazado 27701" d="M3387.583,2588.428l-5.125,16.21-2.783,21.8h39.548L3439.635,2591l18.806-40.914h-77.815l4.546,21.561Z" transform="translate(-3281.079 -2550.091)" fill="#3e4877" fill-rule="evenodd" opacity="0.09"/>
      <path id="Trazado_27702" data-name="Trazado 27702" d="M3493.486,2916.662l3.592-29.558-6.957,24.3-1.114,5.254Z" transform="translate(-3375.232 -2840.313)" fill="#343f6a" fill-rule="evenodd" opacity="0.09"/>
      <path id="Trazado_27703" data-name="Trazado 27703" d="M3387.583,2588.428l-5.125,16.21-2.783,21.8h1.683l7.157-24.275,8.2-12.152,6.211-30.115,11.429-9.806h-33.728l4.546,21.561Z" transform="translate(-3281.079 -2550.091)" fill="#343f6a" fill-rule="evenodd" opacity="0.09"/>
      <path id="Trazado_27704" data-name="Trazado 27704" d="M3654.968,2880.21l20.411-35.435-12.55,7.361-9.4,28.074Z" transform="translate(-3516.824 -2803.861)" fill="#343f6a" fill-rule="evenodd" opacity="0.09"/>
      <path id="Trazado_27705" data-name="Trazado 27705" d="M3706.4,2550.091l2.048,48.274L3721,2591l18.806-40.914Z" transform="translate(-3562.441 -2550.091)" fill="#343f6a" fill-rule="evenodd" opacity="0.09"/>
      <path id="Trazado_27706" data-name="Trazado 27706" d="M3667.944,2586.148l7.2,40.914h3.8l14.173-40.914Z" transform="translate(-3529.325 -2581.142)" fill="#343f6a" fill-rule="evenodd" opacity="0.09"/>
      <path id="Trazado_27707" data-name="Trazado 27707" d="M3356.959,2964.772l2.783-21.8-6.445,21.8Z" transform="translate(-3258.363 -2888.424)" fill="#343f6a" fill-rule="evenodd" opacity="0.09"/>
      <path id="Trazado_27708" data-name="Trazado 27708" d="M2960.037,2624.158l-1.011-27.277,1.011-20.076-1.633-26.714h25.342l-14.409,20.457Z" transform="translate(-2918.297 -2550.091)" fill="#535d9f" fill-rule="evenodd" opacity="0.09"/>
      <path id="Trazado_27709" data-name="Trazado 27709" d="M2785.717,2550.091c.962,2.045,9.6,8.4,9.6,8.4l4.24,9.018,4.8-10.2.93-7.218Z" transform="translate(-2769.585 -2550.091)" fill="#535d9f" fill-rule="evenodd" opacity="0.09"/>
      <path id="Trazado_27710" data-name="Trazado 27710" d="M2683.65,2675.287l14.592,14.086,9.021,19.021-.361,10.472-12.886-27.4Z" transform="translate(-2681.689 -2657.905)" fill="#535d9f" fill-rule="evenodd" opacity="0.09"/>
      <path id="Trazado_27711" data-name="Trazado 27711" d="M2887.167,2743.208l6.661-20.252,4.492-24.01.37,6.047-1.011,20.077,1.011,27.277Z" transform="translate(-2856.95 -2678.279)" fill="#535d9f" fill-rule="evenodd" opacity="0.09"/>
      <path id="Trazado_27712" data-name="Trazado 27712" d="M3047.215,2626.44h3.373l6.814-15.387,14.119-15.929,15.854-24.367-.513-20.666h-18.583l3.241,20.458-20.011,34.089Z" transform="translate(-2994.777 -2550.091)" fill="#535d9f" fill-rule="evenodd" opacity="0.09"/>
      <path id="Trazado_27713" data-name="Trazado 27713" d="M3285.013,3028.148l2.234-11.584-4.305,11.584Z" transform="translate(-3197.776 -2951.8)" fill="#535d9f" fill-rule="evenodd" opacity="0.09"/>
    </g>
    <g id="Grupo_11445" data-name="Grupo 11445">
      <path id="Trazado_27714" data-name="Trazado 27714" d="M2822.851,2494.214l-13.71.741-49.708-1.508-40.53.577-5.479-1.127-38-2.229-24.388-3.2-2.872-8.334,25.194,2.939,50.788.523-3.923,2.486,35.851-1.316,45.042.465,21.73-1.291Z" transform="translate(-2648.168 -2381.892)" fill="#bbc8d9" fill-rule="evenodd"/>
      <path id="Trazado_27715" data-name="Trazado 27715" d="M3118.178,2513.732l5.48,1.127,5.248-9.62v-1.807l-9.923-.1Z" transform="translate(-3052.922 -2402.726)" fill="#90a6c4" fill-rule="evenodd"/>
      <path id="Trazado_27716" data-name="Trazado 27716" d="M3755.946,2529.454l6.856.208,13.829-.737v-9.482l-20.912,2.086Z" transform="translate(-3601.948 -2416.603)" fill="#d4dde8" fill-rule="evenodd"/>
      <path id="Trazado_27717" data-name="Trazado 27717" d="M2648.168,2479.135l25.194,4.472.113,6.8-22.435-2.943Z" transform="translate(-2648.168 -2381.892)" fill="#90a6c4" fill-rule="evenodd"/>
      <path id="Trazado_27718" data-name="Trazado 27718" d="M3194.607,2537.261l.514-7.307-36.14,1.987-1.334,5.847Z" transform="translate(-3086.911 -2425.655)" fill="#d4dde8" fill-rule="evenodd"/>
      <path id="Trazado_27719" data-name="Trazado 27719" d="M2822.851,2399.885l-21.73,2.161-45.042-.707-35.851,2,3.923-3.783-50.788-.8-25.194-4.472,2.269-4.625,21.035-2.932,38.7-4.751,42.556.667,11.112-2.039,43.833,2.784,15.173.042,5.645,6.094Z" transform="translate(-2648.168 -2297.045)" fill="#f7f7f8" fill-rule="evenodd"/>
      <g id="Grupo_11444" data-name="Grupo 11444" transform="translate(15.025)">
        <path id="Trazado_27720" data-name="Trazado 27720" d="M2756.391,1872l1.648-10.011,8.711-9.316,10.831-15.783,13.891-7.548,6.828-14.7,8.005-16.865,8.241-6.518,8.594-12.524,5.062,2.23,9.771,14.239,8.358,3.259,13.3,19.385,7.181,1.2,14.362,29.388h8.477l2.866,4.176L2905.459,1872Z" transform="translate(-2756.391 -1778.73)" fill="#fff" fill-rule="evenodd"/>
        <path id="Trazado_27721" data-name="Trazado 27721" d="M3264.885,1790.948l1.375,27.5,9.814,14.3,3.419,18.355,4.307,9.336-2.027,9.661-3.82,12.418h65.4l-15.806-23.563h-4.238l-18.6-29.388-7.181-1.2-13.3-19.385-8.358-3.259-9.771-14.239Z" transform="translate(-3194.286 -1789.251)" fill="#dce7ef" fill-rule="evenodd"/>
        <path id="Trazado_27722" data-name="Trazado 27722" d="M3343.995,1897.354l8.3,14.246,6.682,21.6,5.847,14-3.341-18.837v-14.452l-9.128-13.3Z" transform="translate(-3262.413 -1880.884)" fill="#bfd2e2" fill-rule="evenodd"/>
        <path id="Trazado_27723" data-name="Trazado 27723" d="M3345.476,2092.016l8.51,19.779,6.89,7,5.221,17.346,9.605,5.647h-28.348l3.82-12.418,2.026-9.661-4.307-9.336Z" transform="translate(-3263.688 -2048.52)" fill="#cedce8" fill-rule="evenodd"/>
        <path id="Trazado_27724" data-name="Trazado 27724" d="M3551.735,2069.1l12.291,25.149,6.31,4.239Z" transform="translate(-3441.31 -2028.787)" fill="#bfd2e2" fill-rule="evenodd"/>
        <path id="Trazado_27725" data-name="Trazado 27725" d="M3627.862,2304.335l8.031-23.563h4.238l15.806,23.563Z" transform="translate(-3506.868 -2211.069)" fill="#cedce8" fill-rule="evenodd"/>
        <path id="Trazado_27726" data-name="Trazado 27726" d="M3265.265,1845.527c.309,6.171-.379,26.62-.379,26.62l7.983,10.6,6.625,15.359-3.419-18.355-9.814-14.3Z" transform="translate(-3194.287 -1836.253)" fill="#edf3f8" fill-rule="evenodd"/>
        <path id="Trazado_27727" data-name="Trazado 27727" d="M3000.562,2143.24l-.85,15.71.85,11.562-1.372,15.386h21.3l-12.111-11.782Z" transform="translate(-2965.48 -2092.632)" fill="#dce7ef" fill-rule="evenodd"/>
        <path id="Trazado_27728" data-name="Trazado 27728" d="M2854.048,2388.256c.809-1.177,8.066-4.84,8.066-4.84l3.564-5.194,4.033,5.876.781,4.157Z" transform="translate(-2840.49 -2294.99)" fill="#edf3f8" fill-rule="evenodd"/>
        <path id="Trazado_27729" data-name="Trazado 27729" d="M2768.263,2222.706l12.264-8.112,7.582-10.956-.3-6.031-10.831,15.783Z" transform="translate(-2766.615 -2139.451)" fill="#f9f9fa" fill-rule="evenodd"/>
        <path id="Trazado_27730" data-name="Trazado 27730" d="M2939.315,2148.5l5.6,11.665,3.776,13.829.31-3.484-.85-11.562.85-15.71Z" transform="translate(-2913.918 -2092.632)" fill="#edf3f8" fill-rule="evenodd"/>
        <path id="Trazado_27731" data-name="Trazado 27731" d="M3042.509,1897.023l18.431-28.089-8.241,6.518Z" transform="translate(-3002.784 -1856.41)" fill="#f9f9fa" fill-rule="evenodd"/>
        <path id="Trazado_27732" data-name="Trazado 27732" d="M3057.474,2076.873l5.881,20.458,16.818,19.633-2.724,11.782h15.618l.432-11.9-13.325-14.033-11.867-9.174Z" transform="translate(-3015.672 -2035.479)" fill="#edf3f8" fill-rule="evenodd"/>
        <path id="Trazado_27733" data-name="Trazado 27733" d="M3193.158,1825.5l2.1-15.727,1.706,12.187-.584,17.392,6.212,22.077-9.436-17.4-5.949-4.959Z" transform="translate(-3127.395 -1805.464)" fill="#f9f9fa" fill-rule="evenodd"/>
      </g>
      <path id="Trazado_27734" data-name="Trazado 27734" d="M3906.335,2464.7v-9.484l5.644-10.355-.454,11.365Z" transform="translate(-3731.653 -2352.374)" fill="#90a6c4" fill-rule="evenodd"/>
    </g>
  </g>
  <g id="Grupo_11447" data-name="Grupo 11447" transform="translate(322.747 333.33)">
    <path id="Trazado_27735" data-name="Trazado 27735" d="M2358.5,2446.558l-.772.44c-4.713.237-30.318,1.541-33.1-.724Z" transform="translate(-2324.619 -2439.968)" fill="#756590" fill-rule="evenodd"/>
    <path id="Trazado_27736" data-name="Trazado 27736" d="M2341.651,2407.351l-15.364-.116,8.662-1.388,3.764-2.289,2.5-2.5,4.281-.211,8.832,3.364,5.593,3.279Z" transform="translate(-2326.056 -2400.847)" fill="#fff" fill-rule="evenodd"/>
  </g>
  <g id="Grupo_11450" data-name="Grupo 11450" transform="translate(535.648 370.841)">
    <g id="Grupo_11448" data-name="Grupo 11448">
      <path id="Trazado_27737" data-name="Trazado 27737" d="M3900.74,2682.235l21.179-4.931,19.958,11.286,12.81,12.037h-63.55l-.245-6.424Z" transform="translate(-3886.334 -2676.432)" fill="#f5f6f6" fill-rule="evenodd"/>
      <path id="Trazado_27738" data-name="Trazado 27738" d="M3858.062,2806.665l4.35-6.228,14.795,3.114,35.171,3.114Z" transform="translate(-3858.062 -2782.469)" fill="#b8d2e0" fill-rule="evenodd"/>
      <path id="Trazado_27739" data-name="Trazado 27739" d="M3894.791,2688.96l21.77-4.992,28.674-.787-21.5-12.159-19.635,5.8Z" transform="translate(-3889.692 -2671.022)" fill="#fff" fill-rule="evenodd"/>
      <path id="Trazado_27740" data-name="Trazado 27740" d="M3892.656,2801.13c0,.663,2.616,6.132,2.616,6.132h15.079l-3.354-3.114Z" transform="translate(-3887.853 -2783.066)" fill="#dbeaf2" fill-rule="evenodd"/>
    </g>
    <g id="Grupo_11449" data-name="Grupo 11449" transform="translate(0 24.196)">
      <path id="Trazado_27741" data-name="Trazado 27741" d="M3900.74,2850.836l21.179,1.485,19.958-3.4,12.81-3.626h-63.55l-.245,1.935Z" transform="translate(-3886.334 -2845.296)" fill="#756590" fill-rule="evenodd"/>
      <path id="Trazado_27742" data-name="Trazado 27742" d="M3858.062,2845.3l4.35,1.875,14.795-.937,35.171-.938Z" transform="translate(-3858.062 -2845.296)" fill="#756590" fill-rule="evenodd"/>
      <path id="Trazado_27743" data-name="Trazado 27743" d="M3894.791,2858.873l21.77,1.5,28.674.238-21.5,3.662-19.635-1.748Z" transform="translate(-3889.692 -2856.988)" fill="#756590" fill-rule="evenodd"/>
      <path id="Trazado_27744" data-name="Trazado 27744" d="M3892.656,2847.143a21.02,21.02,0,0,1,2.616-1.847h15.079l-3.354.938Z" transform="translate(-3887.853 -2845.296)" fill="#756590" fill-rule="evenodd"/>
    </g>
  </g>
  <g id="Grupo_11453" data-name="Grupo 11453" transform="translate(203.905 390.249)">
    <g id="Grupo_11451" data-name="Grupo 11451">
      <path id="Trazado_27745" data-name="Trazado 27745" d="M1504.168,2816.877l17.627-2.67,16.613,6.11,10.661,6.518h-52.894l-.2-3.478Z" transform="translate(-1492.177 -2813.735)" fill="#f5f6f6" fill-rule="evenodd"/>
      <path id="Trazado_27746" data-name="Trazado 27746" d="M1468.644,2884.244l3.62-3.372,12.315,1.686,29.274,1.686Z" transform="translate(-1468.644 -2871.144)" fill="#b8d2e0" fill-rule="evenodd"/>
      <path id="Trazado_27747" data-name="Trazado 27747" d="M1499.217,2820.518l18.12-2.7,23.866-.427-17.9-6.582-16.343,3.142Z" transform="translate(-1494.972 -2810.806)" fill="#fff" fill-rule="evenodd"/>
      <path id="Trazado_27748" data-name="Trazado 27748" d="M1497.439,2881.245a26.65,26.65,0,0,0,2.177,3.32h12.551l-2.791-1.686Z" transform="translate(-1493.441 -2871.466)" fill="#dbeaf2" fill-rule="evenodd"/>
    </g>
    <g id="Grupo_11452" data-name="Grupo 11452" transform="translate(0 13.099)">
      <path id="Trazado_27749" data-name="Trazado 27749" d="M1504.168,2908.155l17.627.8,16.613-1.841,10.661-1.964h-52.894l-.2,1.048Z" transform="translate(-1492.177 -2905.155)" fill="#636c93" fill-rule="evenodd"/>
      <path id="Trazado_27750" data-name="Trazado 27750" d="M1468.644,2905.155l3.62,1.016,12.315-.508,29.274-.508Z" transform="translate(-1468.644 -2905.155)" fill="#636c93" fill-rule="evenodd"/>
      <path id="Trazado_27751" data-name="Trazado 27751" d="M1499.217,2912.509l18.12.814,23.866.129-17.9,1.983-16.343-.947Z" transform="translate(-1494.972 -2911.488)" fill="#636c93" fill-rule="evenodd"/>
      <path id="Trazado_27752" data-name="Trazado 27752" d="M1497.439,2906.155a19.53,19.53,0,0,1,2.177-1h12.551l-2.791.508Z" transform="translate(-1493.441 -2905.155)" fill="#636c93" fill-rule="evenodd"/>
    </g>
  </g>
  <g id="Grupo_11456" data-name="Grupo 11456" transform="translate(315.875 346.13)">
    <g id="Grupo_11454" data-name="Grupo 11454">
      <path id="Trazado_27753" data-name="Trazado 27753" d="M2286.234,2494.936l5.515-.835,5.2,1.912,3.335,2.039h-16.548l-.064-1.088Z" transform="translate(-2282.483 -2493.953)" fill="#f5f6f6" fill-rule="evenodd"/>
      <path id="Trazado_27754" data-name="Trazado 27754" d="M2275.122,2516.011l1.133-1.055,3.853.528,9.158.528Z" transform="translate(-2275.122 -2511.913)" fill="#b8d2e0" fill-rule="evenodd"/>
      <path id="Trazado_27755" data-name="Trazado 27755" d="M2284.687,2496.076l5.669-.845,7.467-.134-5.6-2.059-5.113.983Z" transform="translate(-2283.359 -2493.038)" fill="#fff" fill-rule="evenodd"/>
      <path id="Trazado_27756" data-name="Trazado 27756" d="M2284.128,2515.073a8.319,8.319,0,0,0,.682,1.039h3.926l-.873-.528Z" transform="translate(-2282.877 -2512.014)" fill="#dbeaf2" fill-rule="evenodd"/>
    </g>
    <g id="Grupo_11455" data-name="Grupo 11455" transform="translate(0 4.098)">
      <path id="Trazado_27757" data-name="Trazado 27757" d="M2286.234,2523.494l5.515.252,5.2-.576,3.335-.614h-16.548l-.064.328Z" transform="translate(-2282.483 -2522.555)" fill="#636c93" fill-rule="evenodd"/>
      <path id="Trazado_27758" data-name="Trazado 27758" d="M2275.122,2522.555l1.133.318,3.853-.159,9.158-.159Z" transform="translate(-2275.122 -2522.555)" fill="#636c93" fill-rule="evenodd"/>
      <path id="Trazado_27759" data-name="Trazado 27759" d="M2284.687,2524.854l5.669.255,7.467.04-5.6.62-5.113-.3Z" transform="translate(-2283.359 -2524.535)" fill="#636c93" fill-rule="evenodd"/>
      <path id="Trazado_27760" data-name="Trazado 27760" d="M2284.128,2522.868a6.127,6.127,0,0,1,.682-.313h3.926l-.873.159Z" transform="translate(-2282.877 -2522.556)" fill="#636c93" fill-rule="evenodd"/>
    </g>
  </g>
  <g id="Grupo_11459" data-name="Grupo 11459" transform="translate(594.531 321.469)">
    <g id="Grupo_11457" data-name="Grupo 11457">
      <path id="Trazado_27761" data-name="Trazado 27761" d="M4326.534,2321.639l19.858-2.738,12.979,6.268,6.6,6.686h-54.261l2.1-3.568Z" transform="translate(-4307.611 -2318.417)" fill="#f5f6f6" fill-rule="evenodd"/>
      <path id="Trazado_27762" data-name="Trazado 27762" d="M4282.172,2390.747l5.957-3.459,11.512,1.729,28.909,1.73Z" transform="translate(-4282.172 -2377.308)" fill="#b8d2e0" fill-rule="evenodd"/>
      <path id="Trazado_27763" data-name="Trazado 27763" d="M4329.768,2325.375l20.385-2.772,24.767-.437-13.982-6.753-18.855,3.223Z" transform="translate(-4323.16 -2315.413)" fill="#fff" fill-rule="evenodd"/>
      <path id="Trazado_27764" data-name="Trazado 27764" d="M4327,2387.669a15.955,15.955,0,0,0,.026,3.406H4339.9l-1.743-1.73Z" transform="translate(-4320.688 -2377.637)" fill="#dbeaf2" fill-rule="evenodd"/>
    </g>
    <g id="Grupo_11458" data-name="Grupo 11458" transform="translate(0 13.438)">
      <path id="Trazado_27765" data-name="Trazado 27765" d="M4312.3,2415.277l17.548.825,18.266-1.889,12.242-2.014H4306.1l-.906,1.075Z" transform="translate(-4301.996 -2412.2)" fill="#82759b" fill-rule="evenodd"/>
      <path id="Trazado_27766" data-name="Trazado 27766" d="M4282.176,2412.2l3.039,1.042,12.97-.521,30.369-.521Z" transform="translate(-4282.176 -2412.2)" fill="#82759b" fill-rule="evenodd"/>
      <path id="Trazado_27767" data-name="Trazado 27767" d="M4308.651,2419.74l18.046.835,24.4.132-19.678,2.034-16.137-.971Z" transform="translate(-4304.976 -2418.694)" fill="#82759b" fill-rule="evenodd"/>
      <path id="Trazado_27768" data-name="Trazado 27768" d="M4306.927,2413.226c.072-.112,2.9-1.026,2.9-1.026H4322.7l-3.2.521Z" transform="translate(-4303.491 -2412.2)" fill="#82759b" fill-rule="evenodd"/>
    </g>
  </g>
  <g id="Grupo_11462" data-name="Grupo 11462" transform="translate(52.359 266.818)">
    <g id="Grupo_11460" data-name="Grupo 11460" transform="translate(0)">
      <path id="Trazado_27769" data-name="Trazado 27769" d="M500.072,1998.955l-14.879-4.391-12.74-15.2-5.165-9.964-5.681-2.364-13.256-39.347-6.025-5.911h-5.853l-4.993,5.573-4.648,27.695-3.443,1.182-5.337,26.344-16.484,5.91-7.575-1.013-7.058,2.7-9.813,8.782Z" transform="translate(-377.121 -1921.781)" fill="#fff" fill-rule="evenodd"/>
      <path id="Trazado_27770" data-name="Trazado 27770" d="M915.609,2163.941l-9.707-4.983-6.72-12.577-4.667-5.614-4.293-20.887-5.413-6.513,7.654,34.363v9.881l-2.613,6.331Z" transform="translate(-814.322 -2086.767)" fill="#e0e7f3" fill-rule="evenodd"/>
      <path id="Trazado_27771" data-name="Trazado 27771" d="M591.028,1921.785l1.3,8.632-.651,11.454L591.028,1954l3.542,8.984,2.24,10.688-5.842-7.029-2.558,3.078v9.882l-7.093,10.556v8.8H557.421l-4.226-10.47,16.485-5.91,5.337-26.344,3.443-1.182,4.648-27.695,4.993-5.573Z" transform="translate(-528.75 -1921.784)" fill="#c2cfe3" fill-rule="evenodd"/>
      <path id="Trazado_27772" data-name="Trazado 27772" d="M405.793,2406.408l-4.226-10.47-7.575-1.013-7.058,2.7-9.813,8.782Z" transform="translate(-377.121 -2329.234)" fill="#f6f6f7" fill-rule="evenodd"/>
      <path id="Trazado_27773" data-name="Trazado 27773" d="M413.016,2395.619l-5.192-.694-7.058,2.7-7.583,6.786,9.916-1.191Z" transform="translate(-390.953 -2329.234)" fill="#fff" fill-rule="evenodd"/>
      <path id="Trazado_27774" data-name="Trazado 27774" d="M697.883,1921.785s-3.985,18.738-3.985,20.759v15.048l-13.221,18.99,4.122-20.348,3.443-1.182,4.648-27.695Z" transform="translate(-638.532 -1921.784)" fill="#a8bcd7" fill-rule="evenodd"/>
      <path id="Trazado_27775" data-name="Trazado 27775" d="M657.619,2310.176l-3.14-6.74,9.487-20.258-18.481,20.258v6.74Z" transform="translate(-608.226 -2233.002)" fill="#a8bcd7" fill-rule="evenodd"/>
      <path id="Trazado_27776" data-name="Trazado 27776" d="M1004.45,2269.58l-14.514-9.042-4.294-12.784,5.681,2.364,4.9,9.964Z" transform="translate(-901.156 -2202.496)" fill="#f6f6f7" fill-rule="evenodd"/>
      <path id="Trazado_27777" data-name="Trazado 27777" d="M771.973,2360.417l-9.456-10.09v-8.808l-6.786,10.1v8.8Z" transform="translate(-703.166 -2283.243)" fill="#e0e7f3" fill-rule="evenodd"/>
    </g>
    <g id="Grupo_11461" data-name="Grupo 11461" transform="translate(0 77.174)">
      <path id="Trazado_27778" data-name="Trazado 27778" d="M404.74,2551.616l1.706,12.428h51.379l1.317-24.546,16.485-22.321L483.2,2521l7.059-10.2,9.812-33.163H377.121L392,2494.217Z" transform="translate(-377.121 -2477.636)" fill="#545454" fill-rule="evenodd" opacity="0.04"/>
      <path id="Trazado_27779" data-name="Trazado 27779" d="M549.582,2543.952,554,2564.044h3.784l-1.485-25.181v-37.32l2.613-23.907H533.154l9.707,18.818Z" transform="translate(-511.491 -2477.636)" fill="#123d87" fill-rule="evenodd" opacity="0.04"/>
      <path id="Trazado_27780" data-name="Trazado 27780" d="M850.4,2564.044l1.317-24.546,16.485-22.321-4.226-39.542H840.078v33.237l-7.094,39.865v13.306Z" transform="translate(-769.693 -2477.636)" fill="#053a85" fill-rule="evenodd" opacity="0.04"/>
      <path id="Trazado_27781" data-name="Trazado 27781" d="M1056.177,2477.636l4.226,39.542,7.575,3.826,7.058-10.2,9.813-33.164Z" transform="translate(-961.897 -2477.636)" fill="#3b4467" fill-rule="evenodd" opacity="0.04"/>
      <path id="Trazado_27782" data-name="Trazado 27782" d="M1103.781,2565.137l5.191,2.622,7.059-10.2,7.583-25.626-9.916,4.5Z" transform="translate(-1002.892 -2524.392)" fill="#545454" fill-rule="evenodd" opacity="0.04"/>
      <path id="Trazado_27783" data-name="Trazado 27783" d="M956.856,3088.214l.1-1.9-.35,1.9Z" transform="translate(-876.153 -3001.806)" fill="#04357a" fill-rule="evenodd" opacity="0.04"/>
      <path id="Trazado_27784" data-name="Trazado 27784" d="M875.109,2564.044h1.828l14.723-60.955v-25.453H879.527l3.14,25.453Z" transform="translate(-805.969 -2477.636)" fill="#04357a" fill-rule="evenodd" opacity="0.04"/>
      <path id="Trazado_27785" data-name="Trazado 27785" d="M528.544,2800.4h5.926l-1.259-14.151L518.7,2752.1l8.229,35.874Z" transform="translate(-499.041 -2713.994)" fill="#3b4467" fill-rule="evenodd" opacity="0.04"/>
      <path id="Trazado_27786" data-name="Trazado 27786" d="M767.1,2477.636l9.456,38.106v33.264l6.785-38.133v-33.238Z" transform="translate(-712.954 -2477.636)" fill="#123d87" fill-rule="evenodd" opacity="0.04"/>
    </g>
  </g>
  <g id="Grupo_11466" data-name="Grupo 11466" transform="translate(856.278 237.542)">
    <g id="Grupo_11463" data-name="Grupo 11463" transform="translate(0 76.765)">
      <path id="Trazado_27787" data-name="Trazado 27787" d="M6167.427,2263.829l21.218,70.784,4.7,15.247h13.9l6.6,30.062h167l6.31-20.472v-95.621Z" transform="translate(-6167.427 -2263.829)" fill="#4f578c" fill-rule="evenodd" opacity="0.09"/>
      <path id="Trazado_27788" data-name="Trazado 27788" d="M6265.081,2344.442l3.323-35.275,6.264-45.339h-107.24l25.918,86.032h6.949l8.545,30.062h63.42l-.117-1.394Z" transform="translate(-6167.427 -2263.829)" fill="#3e4877" fill-rule="evenodd" opacity="0.09"/>
      <path id="Trazado_27789" data-name="Trazado 27789" d="M6719.9,2990.193h1.911l-3.321-17.7Z" transform="translate(-6641.982 -2874.1)" fill="#343f6a" fill-rule="evenodd" opacity="0.09"/>
      <path id="Trazado_27790" data-name="Trazado 27790" d="M6641.938,2344.442l3.323-35.275,6.264-45.339h-46.482l15.75,20.62,8.559,63.326,11.3,25.552,1.275,6.595h7.189l-.117-1.394Z" transform="translate(-6544.286 -2263.829)" fill="#343f6a" fill-rule="evenodd" opacity="0.09"/>
      <path id="Trazado_27791" data-name="Trazado 27791" d="M6404.157,2883.481l8.545,30.061h5l-3.2-14.583Z" transform="translate(-6371.29 -2797.449)" fill="#343f6a" fill-rule="evenodd" opacity="0.09"/>
      <path id="Trazado_27792" data-name="Trazado 27792" d="M6213.467,2263.829l-13.168,86.033h-6.949l-25.917-86.033Z" transform="translate(-6167.431 -2263.829)" fill="#343f6a" fill-rule="evenodd" opacity="0.09"/>
      <path id="Trazado_27793" data-name="Trazado 27793" d="M6921.77,3091.359h.153l-.27-1.393Z" transform="translate(-6816.937 -2975.266)" fill="#343f6a" fill-rule="evenodd" opacity="0.09"/>
      <path id="Trazado_27794" data-name="Trazado 27794" d="M7310.978,2320l2.251-56.173H7278.3l19.858,43.016,8.308,73.077h5.472l.43-17.7Z" transform="translate(-7124.071 -2263.829)" fill="#535d9f" fill-rule="evenodd" opacity="0.09"/>
      <path id="Trazado_27795" data-name="Trazado 27795" d="M7574.909,2279.006l6.614,21.457,5.844-18.961s6.867-7.717,10.749-13.312v-4.361h-24.487Z" transform="translate(-7378.393 -2263.829)" fill="#535d9f" fill-rule="evenodd" opacity="0.09"/>
      <path id="Trazado_27796" data-name="Trazado 27796" d="M7674.119,2818.276l.224,9.925h4l6.31-20.473v-23.347Z" transform="translate(-7464.932 -2712.108)" fill="#535d9f" fill-rule="evenodd" opacity="0.09"/>
      <path id="Trazado_27797" data-name="Trazado 27797" d="M7514.155,2576.835l-.509,12.716,1.394,42.216-.43,17.7h10.511l-4.774-22.147Z" transform="translate(-7326.739 -2533.378)" fill="#535d9f" fill-rule="evenodd" opacity="0.09"/>
      <path id="Trazado_27798" data-name="Trazado 27798" d="M7030.669,2306.847l4.467-43.018h-25.608l-.708,43.456,21.849,51.239,12.432,21.4h15.326l-.18-1.394Z" transform="translate(-6892.002 -2263.829)" fill="#535d9f" fill-rule="evenodd" opacity="0.09"/>
    </g>
    <g id="Grupo_11465" data-name="Grupo 11465" transform="translate(0)">
      <path id="Trazado_27799" data-name="Trazado 27799" d="M6429.477,2251l-69.994.393,5.406,1.868-49.408-.989-62.074.349-29.947-.971v8.474l18.895.557,68.506-1.133,55.855.434,7.551-.847,52.363-1.676,8.773-.628v-6.209Z" transform="translate(-6215.68 -2175.688)" fill="#bbc8d9" fill-rule="evenodd"/>
      <path id="Trazado_27800" data-name="Trazado 27800" d="M7217.962,2263.428l-7.552.847-7.232-7.232v-1.358l13.675-.077Z" transform="translate(-7059.376 -2179.984)" fill="#90a6c4" fill-rule="evenodd"/>
      <path id="Trazado_27801" data-name="Trazado 27801" d="M6251.962,2275.246l-9.449.156-19.058-.554v-7.128l28.819,1.568Z" transform="translate(-6215.675 -2190.415)" fill="#d4dde8" fill-rule="evenodd"/>
      <path id="Trazado_27802" data-name="Trazado 27802" d="M7706.356,2258.078l-.156,5.115,6.081-.435V2257.5Z" transform="translate(-7492.559 -2181.618)" fill="#90a6c4" fill-rule="evenodd"/>
      <path id="Trazado_27803" data-name="Trazado 27803" d="M6883.993,2281.114l-.708-5.493,49.806,1.493,1.839,4.4Z" transform="translate(-6783.896 -2197.22)" fill="#d4dde8" fill-rule="evenodd"/>
      <path id="Trazado_27804" data-name="Trazado 27804" d="M6330.488,2164.39l-58.648.5-15.313-1.533-60.408,2.093-20.912.032-7.778,4.581,7.778,7.784,29.948,1.624,62.074-.531,49.408,1.5-5.406-2.844,69.993-.6,5.927-.574v-8.215l-3.321-.253Z" transform="translate(-6167.428 -2100.543)" fill="#f7f7f8" fill-rule="evenodd"/>
      <g id="Grupo_11464" data-name="Grupo 11464" transform="translate(22.371)">
        <path id="Trazado_27805" data-name="Trazado 27805" d="M6504.8,1754.64l-19.144-5.674-9.41-11.05-11.033-12.678-11.356-4.9-11.843-9.414-6.977,1.677-13.465,10.7-11.519,2.45-18.333,14.572-9.9.9-19.793,22.091h-11.682l-3.951,3.14-17.832,14.573h197.351v-10.918l-6.189-3.61Z" transform="translate(-6328.562 -1710.924)" fill="#fff" fill-rule="evenodd"/>
        <path id="Trazado_27806" data-name="Trazado 27806" d="M6436.7,1720.108l-1.9,20.67-13.525,10.751-4.712,13.8-5.936,7.018,2.793,7.262,5.264,9.335h-90.132l21.783-17.713h5.84l25.634-22.091,9.9-.9,18.333-14.572,11.519-2.45,13.466-10.7Z" transform="translate(-6328.562 -1718.833)" fill="#dce7ef" fill-rule="evenodd"/>
        <path id="Trazado_27807" data-name="Trazado 27807" d="M6820.415,1800.093l-11.436,10.709-9.209,16.24-8.058,10.523,4.6-14.16v-10.863l12.58-10Z" transform="translate(-6727.409 -1787.713)" fill="#bfd2e2" fill-rule="evenodd"/>
        <path id="Trazado_27808" data-name="Trazado 27808" d="M6738.022,1946.422l-11.729,14.868-9.5,5.261-7.194,13.039-13.238,4.245h39.067l-5.265-9.334-2.793-7.262,5.936-7.018Z" transform="translate(-6645.3 -1913.725)" fill="#cedce8" fill-rule="evenodd"/>
        <path id="Trazado_27809" data-name="Trazado 27809" d="M6553.157,1929.2l-16.938,18.9-8.7,3.187Z" transform="translate(-6499.899 -1898.893)" fill="#bfd2e2" fill-rule="evenodd"/>
        <path id="Trazado_27810" data-name="Trazado 27810" d="M6367.252,2106.023l-11.068-17.713h-5.84l-21.783,17.713Z" transform="translate(-6328.562 -2035.915)" fill="#cedce8" fill-rule="evenodd"/>
        <path id="Trazado_27811" data-name="Trazado 27811" d="M6982.078,1761.135c-.426,4.639.522,20.01.522,20.01l-11,7.967-9.131,11.545,4.712-13.8,13.525-10.751Z" transform="translate(-6874.457 -1754.164)" fill="#edf3f8" fill-rule="evenodd"/>
        <path id="Trazado_27812" data-name="Trazado 27812" d="M7289.687,1984.927l1.171,11.81-1.171,8.691,1.891,11.565h-29.354l16.69-8.856Z" transform="translate(-7132.595 -1946.885)" fill="#dce7ef" fill-rule="evenodd"/>
        <path id="Trazado_27813" data-name="Trazado 27813" d="M7533.1,2169.107c-1.114-.885-11.116-3.638-11.116-3.638l-4.912-3.9-5.558,4.417-1.077,3.125Z" transform="translate(-7346.348 -2098.998)" fill="#edf3f8" fill-rule="evenodd"/>
        <path id="Trazado_27814" data-name="Trazado 27814" d="M7595.318,2025.8l-.418,4.534,10.449,8.235,11.085,4v-1.294l-6.189-3.61Z" transform="translate(-7419.083 -1982.079)" fill="#f9f9fa" fill-rule="evenodd"/>
        <path id="Trazado_27815" data-name="Trazado 27815" d="M7473.374,1988.882l-7.716,8.768-5.2,10.4-.427-2.619,1.171-8.691-1.171-11.81Z" transform="translate(-7302.936 -1946.885)" fill="#edf3f8" fill-rule="evenodd"/>
        <path id="Trazado_27816" data-name="Trazado 27816" d="M7256.391,1799.844l-25.4-21.114,11.357,4.9Z" transform="translate(-7105.698 -1769.316)" fill="#f9f9fa" fill-rule="evenodd"/>
        <path id="Trazado_27817" data-name="Trazado 27817" d="M7085.376,1935.038l-8.1,15.378-23.179,14.758,3.755,8.856h-21.523l-.6-8.947,18.364-10.549,16.354-6.9Z" transform="translate(-6937.547 -1903.923)" fill="#edf3f8" fill-rule="evenodd"/>
        <path id="Trazado_27818" data-name="Trazado 27818" d="M7074.818,1746.081l-2.9-11.822-2.352,9.161.806,13.073-8.561,16.6,13-13.079,8.2-3.728Z" transform="translate(-6960.011 -1731.019)" fill="#f9f9fa" fill-rule="evenodd"/>
      </g>
      <path id="Trazado_27819" data-name="Trazado 27819" d="M6175.211,2226.568v-7.129l-7.778-7.784.625,8.543Z" transform="translate(-6167.432 -2142.134)" fill="#90a6c4" fill-rule="evenodd"/>
    </g>
  </g>
  <g id="Grupo_11467" data-name="Grupo 11467" transform="translate(138.715 406.079)">
    <path id="Trazado_27820" data-name="Trazado 27820" d="M1032.986,2970.537l-.772.44c-4.713.236-30.318,1.541-33.1-.724Z" transform="translate(-999.109 -2963.946)" fill="#756590" fill-rule="evenodd"/>
    <path id="Trazado_27821" data-name="Trazado 27821" d="M1016.141,2931.329l-15.364-.116,8.662-1.388,3.764-2.289,2.5-2.5,4.281-.211,8.832,3.364,5.593,3.279Z" transform="translate(-1000.546 -2924.824)" fill="#fff" fill-rule="evenodd"/>
  </g>
  <g id="Grupo_11470" data-name="Grupo 11470" transform="translate(173.08 354.97)">
    <g id="Grupo_11468" data-name="Grupo 11468">
      <path id="Trazado_27822" data-name="Trazado 27822" d="M1262.225,2561.063l7.742-1.917,7.3,4.387,4.682,4.679h-23.231l-.089-2.5Z" transform="translate(-1256.959 -2558.807)" fill="#f5f6f6" fill-rule="evenodd"/>
      <path id="Trazado_27823" data-name="Trazado 27823" d="M1246.624,2609.433l1.59-2.421,5.408,1.21,12.857,1.211Z" transform="translate(-1246.624 -2600.028)" fill="#b8d2e0" fill-rule="evenodd"/>
      <path id="Trazado_27824" data-name="Trazado 27824" d="M1260.051,2563.677l7.958-1.94,10.482-.306-7.86-4.726-7.178,2.256Z" transform="translate(-1258.187 -2556.704)" fill="#fff" fill-rule="evenodd"/>
      <path id="Trazado_27825" data-name="Trazado 27825" d="M1259.27,2607.281a22.833,22.833,0,0,0,.957,2.384h5.512l-1.226-1.21Z" transform="translate(-1257.514 -2600.259)" fill="#dbeaf2" fill-rule="evenodd"/>
    </g>
    <g id="Grupo_11469" data-name="Grupo 11469" transform="translate(0 9.406)">
      <path id="Trazado_27826" data-name="Trazado 27826" d="M1262.225,2626.6l7.742.577,7.3-1.321,4.682-1.41h-23.231l-.089.752Z" transform="translate(-1256.959 -2624.45)" fill="#756590" fill-rule="evenodd"/>
      <path id="Trazado_27827" data-name="Trazado 27827" d="M1246.624,2624.45l1.59.729,5.408-.364,12.857-.365Z" transform="translate(-1246.624 -2624.45)" fill="#756590" fill-rule="evenodd"/>
      <path id="Trazado_27828" data-name="Trazado 27828" d="M1260.051,2629.728l7.958.584,10.482.092-7.86,1.424-7.178-.68Z" transform="translate(-1258.187 -2628.995)" fill="#756590" fill-rule="evenodd"/>
      <path id="Trazado_27829" data-name="Trazado 27829" d="M1259.27,2625.168a7.709,7.709,0,0,1,.957-.718h5.512l-1.226.365Z" transform="translate(-1257.514 -2624.45)" fill="#756590" fill-rule="evenodd"/>
    </g>
  </g>
  <g id="Grupo_11473" data-name="Grupo 11473" transform="translate(604.001 380.613)">
    <g id="Grupo_11471" data-name="Grupo 11471">
      <path id="Trazado_27830" data-name="Trazado 27830" d="M4365.985,2745.767l7.742-1.917,7.3,4.387,4.682,4.679h-23.231l-.09-2.5Z" transform="translate(-4360.718 -2743.511)" fill="#f5f6f6" fill-rule="evenodd"/>
      <path id="Trazado_27831" data-name="Trazado 27831" d="M4350.383,2794.137l1.59-2.421,5.408,1.21,12.857,1.211Z" transform="translate(-4350.383 -2784.731)" fill="#b8d2e0" fill-rule="evenodd"/>
      <path id="Trazado_27832" data-name="Trazado 27832" d="M4363.81,2748.381l7.958-1.941,10.482-.306-7.861-4.726-7.178,2.256Z" transform="translate(-4361.946 -2741.408)" fill="#fff" fill-rule="evenodd"/>
      <path id="Trazado_27833" data-name="Trazado 27833" d="M4363.029,2791.985a22.811,22.811,0,0,0,.957,2.384h5.512l-1.226-1.21Z" transform="translate(-4361.273 -2784.963)" fill="#dbeaf2" fill-rule="evenodd"/>
    </g>
    <g id="Grupo_11472" data-name="Grupo 11472" transform="translate(0 9.406)">
      <path id="Trazado_27834" data-name="Trazado 27834" d="M4365.985,2811.307l7.742.577,7.3-1.321,4.682-1.41h-23.231l-.09.752Z" transform="translate(-4360.718 -2809.154)" fill="#756590" fill-rule="evenodd"/>
      <path id="Trazado_27835" data-name="Trazado 27835" d="M4350.383,2809.154l1.59.729,5.408-.364,12.857-.365Z" transform="translate(-4350.383 -2809.154)" fill="#756590" fill-rule="evenodd"/>
      <path id="Trazado_27836" data-name="Trazado 27836" d="M4363.81,2814.431l7.958.585,10.482.092-7.861,1.423-7.178-.68Z" transform="translate(-4361.946 -2813.698)" fill="#756590" fill-rule="evenodd"/>
      <path id="Trazado_27837" data-name="Trazado 27837" d="M4363.029,2809.872a7.731,7.731,0,0,1,.957-.718h5.512l-1.226.365Z" transform="translate(-4361.273 -2809.154)" fill="#756590" fill-rule="evenodd"/>
    </g>
  </g>
  <g id="Grupo_11476" data-name="Grupo 11476" transform="translate(905.921 365.433)">
    <g id="Grupo_11474" data-name="Grupo 11474">
      <path id="Trazado_27838" data-name="Trazado 27838" d="M6560.511,2638.139l17.627-2.67,16.613,6.11,10.661,6.518h-52.894l-.2-3.478Z" transform="translate(-6548.52 -2634.997)" fill="#f5f6f6" fill-rule="evenodd"/>
      <path id="Trazado_27839" data-name="Trazado 27839" d="M6524.987,2705.506l3.621-3.372,12.314,1.686,29.274,1.686Z" transform="translate(-6524.987 -2692.406)" fill="#b8d2e0" fill-rule="evenodd"/>
      <path id="Trazado_27840" data-name="Trazado 27840" d="M6555.56,2641.779l18.12-2.7,23.866-.427-17.9-6.583-16.343,3.142Z" transform="translate(-6551.315 -2632.068)" fill="#fff" fill-rule="evenodd"/>
      <path id="Trazado_27841" data-name="Trazado 27841" d="M6553.782,2702.506a26.631,26.631,0,0,0,2.177,3.32h12.551l-2.791-1.686Z" transform="translate(-6549.784 -2692.727)" fill="#dbeaf2" fill-rule="evenodd"/>
    </g>
    <g id="Grupo_11475" data-name="Grupo 11475" transform="translate(0 13.099)">
      <path id="Trazado_27842" data-name="Trazado 27842" d="M6560.511,2729.417l17.627.8,16.613-1.84,10.661-1.964h-52.894l-.2,1.048Z" transform="translate(-6548.52 -2726.417)" fill="#636c93" fill-rule="evenodd"/>
      <path id="Trazado_27843" data-name="Trazado 27843" d="M6524.987,2726.417l3.621,1.016,12.314-.508,29.274-.508Z" transform="translate(-6524.987 -2726.417)" fill="#636c93" fill-rule="evenodd"/>
      <path id="Trazado_27844" data-name="Trazado 27844" d="M6555.56,2733.771l18.12.814,23.866.129-17.9,1.983-16.343-.947Z" transform="translate(-6551.315 -2732.75)" fill="#636c93" fill-rule="evenodd"/>
      <path id="Trazado_27845" data-name="Trazado 27845" d="M6553.782,2727.417a19.53,19.53,0,0,1,2.177-1h12.551l-2.791.508Z" transform="translate(-6549.784 -2726.417)" fill="#636c93" fill-rule="evenodd"/>
    </g>
  </g>
  <g id="Grupo_11479" data-name="Grupo 11479" transform="translate(989.603 346.16)">
    <g id="Grupo_11477" data-name="Grupo 11477">
      <path id="Trazado_27846" data-name="Trazado 27846" d="M7138.833,2495.154l5.515-.835,5.2,1.912,3.334,2.039h-16.548l-.064-1.088Z" transform="translate(-7135.082 -2494.171)" fill="#f5f6f6" fill-rule="evenodd"/>
      <path id="Trazado_27847" data-name="Trazado 27847" d="M7127.722,2516.229l1.132-1.055,3.853.528,9.159.528Z" transform="translate(-7127.722 -2512.131)" fill="#b8d2e0" fill-rule="evenodd"/>
      <path id="Trazado_27848" data-name="Trazado 27848" d="M7137.287,2496.293l5.669-.845,7.466-.133-5.6-2.059-5.113.983Z" transform="translate(-7135.958 -2493.256)" fill="#fff" fill-rule="evenodd"/>
      <path id="Trazado_27849" data-name="Trazado 27849" d="M7136.728,2515.29a8.318,8.318,0,0,0,.682,1.039h3.926l-.873-.528Z" transform="translate(-7135.477 -2512.231)" fill="#dbeaf2" fill-rule="evenodd"/>
    </g>
    <g id="Grupo_11478" data-name="Grupo 11478" transform="translate(0 4.098)">
      <path id="Trazado_27850" data-name="Trazado 27850" d="M7138.833,2523.712l5.515.252,5.2-.576,3.334-.614h-16.548l-.064.328Z" transform="translate(-7135.082 -2522.773)" fill="#636c93" fill-rule="evenodd"/>
      <path id="Trazado_27851" data-name="Trazado 27851" d="M7127.722,2522.773l1.132.318,3.853-.159,9.159-.158Z" transform="translate(-7127.722 -2522.773)" fill="#636c93" fill-rule="evenodd"/>
      <path id="Trazado_27852" data-name="Trazado 27852" d="M7137.287,2525.072l5.669.255,7.466.04-5.6.621-5.113-.3Z" transform="translate(-7135.958 -2524.752)" fill="#636c93" fill-rule="evenodd"/>
      <path id="Trazado_27853" data-name="Trazado 27853" d="M7136.728,2523.085a6.131,6.131,0,0,1,.682-.312h3.926l-.873.159Z" transform="translate(-7135.477 -2522.773)" fill="#636c93" fill-rule="evenodd"/>
    </g>
  </g>
  <g id="Grupo_11482" data-name="Grupo 11482" transform="translate(35.324 368.115)">
    <g id="Grupo_11480" data-name="Grupo 11480">
      <path id="Trazado_27854" data-name="Trazado 27854" d="M298.786,2657.615l19.858-2.738,12.979,6.268,6.6,6.686H283.964l2.1-3.568Z" transform="translate(-279.863 -2654.393)" fill="#f5f6f6" fill-rule="evenodd"/>
      <path id="Trazado_27855" data-name="Trazado 27855" d="M254.424,2726.723l5.957-3.459,11.511,1.73,28.909,1.73Z" transform="translate(-254.424 -2713.284)" fill="#b8d2e0" fill-rule="evenodd"/>
      <path id="Trazado_27856" data-name="Trazado 27856" d="M302.02,2661.352l20.385-2.773,24.767-.437-13.982-6.752-18.855,3.222Z" transform="translate(-295.412 -2651.39)" fill="#fff" fill-rule="evenodd"/>
      <path id="Trazado_27857" data-name="Trazado 27857" d="M299.25,2723.645a15.946,15.946,0,0,0,.025,3.406H312.15l-1.742-1.73Z" transform="translate(-292.94 -2713.613)" fill="#dbeaf2" fill-rule="evenodd"/>
    </g>
    <g id="Grupo_11481" data-name="Grupo 11481" transform="translate(0 13.438)">
      <path id="Trazado_27858" data-name="Trazado 27858" d="M284.553,2751.253l17.549.825,18.266-1.888,12.242-2.014H278.349l-.906,1.075Z" transform="translate(-274.248 -2748.176)" fill="#82759b" fill-rule="evenodd"/>
      <path id="Trazado_27859" data-name="Trazado 27859" d="M254.428,2748.176l3.038,1.042,12.97-.521,30.368-.521Z" transform="translate(-254.428 -2748.176)" fill="#82759b" fill-rule="evenodd"/>
      <path id="Trazado_27860" data-name="Trazado 27860" d="M280.9,2755.717l18.046.835,24.4.132-19.678,2.034-16.137-.97Z" transform="translate(-277.227 -2754.67)" fill="#82759b" fill-rule="evenodd"/>
      <path id="Trazado_27861" data-name="Trazado 27861" d="M279.179,2749.2c.072-.112,2.9-1.026,2.9-1.026h12.875l-3.2.521Z" transform="translate(-275.743 -2748.176)" fill="#82759b" fill-rule="evenodd"/>
    </g>
  </g>
  <g id="Grupo_11483" data-name="Grupo 11483" transform="translate(229.485 270.115)">
    <path id="Trazado_27862" data-name="Trazado 27862" d="M1659.52,2019.713q10.018-17.269,9.805-33.477-4.106-.59-5.34-1.921C1664.582,1989.748,1650.211,1998.273,1659.52,2019.713Z" transform="translate(-1655.89 -1978.93)" fill="#303030" fill-rule="evenodd"/>
    <path id="Trazado_27863" data-name="Trazado 27863" d="M1727.422,2243.589a2.448,2.448,0,0,0-2.823-1.4,1.959,1.959,0,0,0-1.859,2.19c.227,1.016.138,1.3,1.4,1.132a39.771,39.771,0,0,0,6.206.68C1730.347,2244.9,1728.918,2244.317,1727.422,2243.589Z" transform="translate(-1713.009 -2200.967)" fill="#1a1a1a" fill-rule="evenodd"/>
    <path id="Trazado_27864" data-name="Trazado 27864" d="M1711.228,1951.186c.189,3.444,5.9,3.808,7.989,3.721a6.443,6.443,0,0,1,1.22-4.849c1.222-1.749,8.183-1.88,8.394-2.722-.651-.538-7.4.241-9.7-1.039a5.888,5.888,0,0,0-5.075-.349C1712.355,1946.679,1711.057,1948.059,1711.228,1951.186Z" transform="translate(-1703.115 -1945.528)" fill="#303030" fill-rule="evenodd"/>
    <path id="Trazado_27865" data-name="Trazado 27865" d="M1680.434,2006.007a12.562,12.562,0,0,1,.145-2.9c.5-2.791,2.059-5.581,3.865-5.345,1.268.166,2.658,1.683,3.893,3.864,4.674,8.255,2.589,21.627-1.822,29.675l-.871,1.821a8.268,8.268,0,0,0-3.608.4q.329,1.522.329,1.522-4.853-1.583-6.7,0-2.178-9.264-1.15-11.585c3.778,1.577,5.749-4.644,5.912-17.111Q1680.432,2006.174,1680.434,2006.007Z" transform="translate(-1671.232 -1990.494)" fill="#fbf0e1" fill-rule="evenodd"/>
    <path id="Trazado_27866" data-name="Trazado 27866" d="M1691.544,2260.526c-3.6-1.223-5.863-.809-6.7.158.6.688,1.134.684,2.8.911a28.768,28.768,0,0,0,5.647.563C1693.127,2261.341,1692.826,2260.885,1691.544,2260.526Z" transform="translate(-1680.41 -2216.141)" fill="#303030" fill-rule="evenodd"/>
    <path id="Trazado_27867" data-name="Trazado 27867" d="M1718.966,2006.007a12.555,12.555,0,0,1,.145-2.9c.5-2.791,2.059-5.581,3.865-5.345,1.268.166,2.659,1.683,3.893,3.864a19.717,19.717,0,0,1,2.17,6.142c-3.286,5.815-6.737,0-10.1,0,.013-.48.022-.923.029-1.422C1718.964,2006.23,1718.965,2006.118,1718.966,2006.007Z" transform="translate(-1709.764 -1990.494)" fill="#f6cb96" fill-rule="evenodd"/>
    <path id="Trazado_27868" data-name="Trazado 27868" d="M1711.312,1957.325c1.959,1.766,2.622,1.98,2.708,1.447-1.532-1.565-1.614-3.237-.965-5.82Q1711.253,1954.188,1711.312,1957.325Z" transform="translate(-1703.198 -1951.921)" fill="#ff9a5c" fill-rule="evenodd"/>
    <path id="Trazado_27869" data-name="Trazado 27869" d="M1792.744,1959.231a13.032,13.032,0,0,0-3.06.741,12.581,12.581,0,0,0,3.1-.355,13.014,13.014,0,0,0,3.061-.74A12.59,12.59,0,0,0,1792.744,1959.231Z" transform="translate(-1770.692 -1956.994)" fill="#ff9a5c" fill-rule="evenodd"/>
    <path id="Trazado_27870" data-name="Trazado 27870" d="M1737.488,1997.45c1.153-.549,3.389,1.525,4.451,3.841C1742.456,2009.049,1733.423,1999.386,1737.488,1997.45Z" transform="translate(-1724.834 -1990.165)" fill="#ff9a5c" fill-rule="evenodd"/>
    <path id="Trazado_27871" data-name="Trazado 27871" d="M1756.955,1955.378c-.349-.087-.587-.341-.53-.567s.385-.337.735-.25.586.341.529.567S1757.3,1955.465,1756.955,1955.378Z" transform="translate(-1742.043 -1953.282)" fill="#fff5d8" fill-rule="evenodd"/>
    <path id="Trazado_27872" data-name="Trazado 27872" d="M1721.824,2193.7c-.5-1.8,1.124-7.647,2.35-11.48-1.63,2.706-4.7,7.817-4.016,11.038C1720.528,2193.355,1721.552,2193.612,1721.824,2193.7Z" transform="translate(-1710.733 -2149.359)" fill="#ecdac1" fill-rule="evenodd"/>
    <path id="Trazado_27873" data-name="Trazado 27873" d="M1657.091,2236.446q-.54-2.453-.738-3.645C1656.659,2235.126,1647.919,2240.273,1657.091,2236.446Z" transform="translate(-1652.887 -2192.916)" fill="#303030" fill-rule="evenodd"/>
  </g>
  <g id="Grupo_11484" data-name="Grupo 11484" transform="translate(255.201 287.262)">
    <path id="Trazado_27874" data-name="Trazado 27874" d="M1842.275,2115.584q6.287-10.836,6.154-21.008a5.911,5.911,0,0,1-3.351-1.205C1845.451,2096.781,1836.433,2102.13,1842.275,2115.584Z" transform="translate(-1839.996 -2089.992)" fill="#303030" fill-rule="evenodd"/>
    <path id="Trazado_27875" data-name="Trazado 27875" d="M1884.884,2256.074a1.535,1.535,0,0,0-1.771-.88,1.229,1.229,0,0,0-1.167,1.375c.143.638.087.815.88.71a24.93,24.93,0,0,0,3.9.427C1886.719,2256.9,1885.823,2256.531,1884.884,2256.074Z" transform="translate(-1875.839 -2229.327)" fill="#1a1a1a" fill-rule="evenodd"/>
    <path id="Trazado_27876" data-name="Trazado 27876" d="M1874.724,2072.583c.119,2.161,3.7,2.39,5.014,2.335a4.04,4.04,0,0,1,.765-3.043c.767-1.1,5.134-1.18,5.267-1.708-.408-.338-4.646.151-6.087-.653a3.7,3.7,0,0,0-3.185-.219C1875.431,2069.754,1874.616,2070.62,1874.724,2072.583Z" transform="translate(-1869.632 -2069.032)" fill="#303030" fill-rule="evenodd"/>
    <path id="Trazado_27877" data-name="Trazado 27877" d="M1855.4,2106.985a7.859,7.859,0,0,1,.091-1.823c.314-1.751,1.292-3.5,2.425-3.354.795.1,1.668,1.057,2.443,2.425,2.933,5.18,1.624,13.571-1.144,18.621q-.545,1.143-.546,1.143a5.2,5.2,0,0,0-2.264.249q.207.956.206.955-3.044-.993-4.2,0-1.366-5.813-.722-7.27c2.371.989,3.608-2.914,3.71-10.737C1855.4,2107.125,1855.4,2107.055,1855.4,2106.985Z" transform="translate(-1849.625 -2097.25)" fill="#fbf0e1" fill-rule="evenodd"/>
    <path id="Trazado_27878" data-name="Trazado 27878" d="M1862.37,2266.7c-2.258-.768-3.678-.508-4.2.1.378.432.711.43,1.755.572a18,18,0,0,0,3.544.353C1863.364,2267.213,1863.176,2266.926,1862.37,2266.7Z" transform="translate(-1855.383 -2238.849)" fill="#303030" fill-rule="evenodd"/>
    <path id="Trazado_27879" data-name="Trazado 27879" d="M1879.58,2106.985a7.853,7.853,0,0,1,.091-1.823c.314-1.751,1.292-3.5,2.425-3.354.795.1,1.668,1.057,2.443,2.425a12.362,12.362,0,0,1,1.362,3.854c-2.062,3.65-4.228,0-6.341,0,.008-.3.014-.579.018-.892C1879.579,2107.125,1879.58,2107.055,1879.58,2106.985Z" transform="translate(-1873.805 -2097.25)" fill="#fbf0e1" fill-rule="evenodd"/>
    <path id="Trazado_27880" data-name="Trazado 27880" d="M1874.776,2076.437c1.229,1.108,1.645,1.243,1.7.908-.962-.982-1.013-2.031-.606-3.652A3.016,3.016,0,0,0,1874.776,2076.437Z" transform="translate(-1869.684 -2073.046)" fill="#f9d7c5" fill-rule="evenodd"/>
    <path id="Trazado_27881" data-name="Trazado 27881" d="M1925.877,2077.632a8.122,8.122,0,0,0-1.921.465,7.941,7.941,0,0,0,1.947-.223,8.154,8.154,0,0,0,1.921-.465A7.885,7.885,0,0,0,1925.877,2077.632Z" transform="translate(-1912.038 -2076.228)" fill="#f9d7c5" fill-rule="evenodd"/>
    <path id="Trazado_27882" data-name="Trazado 27882" d="M1891.2,2101.613c.724-.344,2.127.958,2.793,2.411C1894.321,2108.892,1888.652,2102.829,1891.2,2101.613Z" transform="translate(-1883.262 -2097.042)" fill="#fbf0e1" fill-rule="evenodd"/>
    <path id="Trazado_27883" data-name="Trazado 27883" d="M1903.419,2075.211c-.219-.054-.368-.214-.332-.355s.242-.211.461-.157.368.214.332.355S1903.638,2075.267,1903.419,2075.211Z" transform="translate(-1894.061 -2073.896)" fill="#fff5d8" fill-rule="evenodd"/>
    <path id="Trazado_27884" data-name="Trazado 27884" d="M1881.373,2224.767c-.315-1.127.705-4.8,1.475-7.2-1.024,1.7-2.952,4.906-2.52,6.927C1880.559,2224.55,1881.2,2224.711,1881.373,2224.767Z" transform="translate(-1874.413 -2196.941)" fill="#ecdac1" fill-rule="evenodd"/>
    <path id="Trazado_27885" data-name="Trazado 27885" d="M1840.749,2251.591q-.338-1.54-.463-2.288C1840.477,2250.762,1834.993,2253.992,1840.749,2251.591Z" transform="translate(-1838.11 -2224.274)" fill="#303030" fill-rule="evenodd"/>
  </g>
  <g id="Grupo_11485" data-name="Grupo 11485" transform="translate(498.085 292.831)">
    <path id="Trazado_27886" data-name="Trazado 27886" d="M3595.851,2202.435q12.6-21.716,12.331-42.1-5.164-.744-6.715-2.416C3602.216,2164.754,3584.146,2175.474,3595.851,2202.435Z" transform="translate(-3591.286 -2151.15)" fill="#303030" fill-rule="evenodd"/>
    <path id="Trazado_27887" data-name="Trazado 27887" d="M3681.238,2483.959c-.334-1.271-1.967-2.012-3.55-1.763s-2.622,1.476-2.338,2.754.174,1.633,1.764,1.423a50.088,50.088,0,0,0,7.805.855C3684.917,2485.613,3683.12,2484.875,3681.238,2483.959Z" transform="translate(-3663.114 -2430.361)" fill="#1a1a1a" fill-rule="evenodd"/>
    <path id="Trazado_27888" data-name="Trazado 27888" d="M3660.876,2116.263c.237,4.331,7.418,4.788,10.047,4.679a8.1,8.1,0,0,1,1.533-6.1c1.538-2.2,10.29-2.364,10.555-3.423-.818-.676-9.31.3-12.2-1.307a7.409,7.409,0,0,0-6.381-.439C3662.294,2110.594,3660.66,2112.33,3660.876,2116.263Z" transform="translate(-3650.674 -2109.147)" fill="#303030" fill-rule="evenodd"/>
    <path id="Trazado_27889" data-name="Trazado 27889" d="M3622.15,2185.2a15.83,15.83,0,0,1,.183-3.654c.631-3.509,2.59-7.017,4.86-6.72,1.594.209,3.342,2.117,4.895,4.858,5.877,10.382,3.255,27.2-2.291,37.317l-1.095,2.29a10.39,10.39,0,0,0-4.537.5q.414,1.914.413,1.914-6.1-1.989-8.42,0-2.739-11.649-1.447-14.568c4.75,1.982,7.229-5.839,7.434-21.518C3622.146,2185.48,3622.148,2185.34,3622.15,2185.2Z" transform="translate(-3610.577 -2165.692)" fill="#fbf0e1" fill-rule="evenodd"/>
    <path id="Trazado_27890" data-name="Trazado 27890" d="M3636.121,2505.255c-4.525-1.538-7.372-1.018-8.421.2.758.865,1.425.861,3.518,1.147a36.139,36.139,0,0,0,7.1.707C3638.113,2506.279,3637.735,2505.706,3636.121,2505.255Z" transform="translate(-3622.12 -2449.441)" fill="#303030" fill-rule="evenodd"/>
    <path id="Trazado_27891" data-name="Trazado 27891" d="M3670.607,2185.2a15.83,15.83,0,0,1,.183-3.654c.631-3.509,2.59-7.017,4.86-6.72,1.594.209,3.343,2.117,4.895,4.858a24.79,24.79,0,0,1,2.728,7.724c-4.132,7.313-8.471,0-12.707,0,.015-.6.028-1.161.035-1.79C3670.6,2185.48,3670.606,2185.34,3670.607,2185.2Z" transform="translate(-3659.035 -2165.692)" fill="#f6cb96" fill-rule="evenodd"/>
    <path id="Trazado_27892" data-name="Trazado 27892" d="M3660.982,2123.983c2.462,2.221,3.3,2.49,3.405,1.82-1.927-1.968-2.029-4.07-1.214-7.319Q3660.908,2120.037,3660.982,2123.983Z" transform="translate(-3650.779 -2117.189)" fill="#ff9a5c" fill-rule="evenodd"/>
    <path id="Trazado_27893" data-name="Trazado 27893" d="M3763.38,2126.379a16.341,16.341,0,0,0-3.849.932,15.846,15.846,0,0,0,3.9-.446,16.342,16.342,0,0,0,3.848-.932A15.859,15.859,0,0,0,3763.38,2126.379Z" transform="translate(-3735.648 -2123.567)" fill="#ff9a5c" fill-rule="evenodd"/>
    <path id="Trazado_27894" data-name="Trazado 27894" d="M3693.895,2174.437c1.45-.69,4.263,1.919,5.6,4.831C3700.142,2189.023,3688.782,2176.872,3693.895,2174.437Z" transform="translate(-3677.982 -2165.276)" fill="#ff9a5c" fill-rule="evenodd"/>
    <path id="Trazado_27895" data-name="Trazado 27895" d="M3718.376,2121.532c-.438-.11-.737-.429-.666-.713s.484-.425.924-.314.737.429.666.712S3718.815,2121.642,3718.376,2121.532Z" transform="translate(-3699.624 -2118.896)" fill="#fff5d8" fill-rule="evenodd"/>
    <path id="Trazado_27896" data-name="Trazado 27896" d="M3674.2,2421.226c-.63-2.259,1.413-9.617,2.956-14.436-2.05,3.4-5.916,9.83-5.05,13.88C3672.57,2420.791,3673.858,2421.114,3674.2,2421.226Z" transform="translate(-3660.253 -2365.466)" fill="#ecdac1" fill-rule="evenodd"/>
    <path id="Trazado_27897" data-name="Trazado 27897" d="M3592.8,2474.978q-.679-3.085-.928-4.584C3592.251,2473.317,3581.261,2479.79,3592.8,2474.978Z" transform="translate(-3587.508 -2420.239)" fill="#303030" fill-rule="evenodd"/>
  </g>
  <g id="bear" transform="translate(665.011 264.275)">
    <path id="Trazado_27898" data-name="Trazado 27898" d="M4997.21,2771.71l9.162-9.156,8.023-18.074L4789.813,2742l4.227,19.479v23.967l3.486,6.258h200.256l3.2-7.335Z" transform="translate(-4789.813 -2625.577)" opacity="0.23" fill="url(#linear-gradient-3)"/>
    <g id="Grupo_11486" data-name="Grupo 11486" transform="translate(0 86.589)">
      <path id="Trazado_27899" data-name="Trazado 27899" d="M4824.934,2535.313l-8.04,3.323,14.357,6.3,20.1,3.6,41.925,4.867,41.638-.865,33.884,2.452-4.738-4.636,46.951-.976,22.111-5.482-3.445-5.668-20.389-3.594-37.331-5.824-39.34.818-10.913-2.5-39.915,3.412-26.706.555Z" transform="translate(-4813.134 -2527.13)" fill="#fff" fill-rule="evenodd"/>
      <path id="Trazado_27900" data-name="Trazado 27900" d="M4807.93,2616.3l-14.358-6.3-3.76,18.326,15.6,6.037Z" transform="translate(-4789.813 -2598.496)" fill="#90a6c4" fill-rule="evenodd"/>
      <path id="Trazado_27901" data-name="Trazado 27901" d="M4902.2,2667.007l28.931,6.932,32.879,3.478,45.515-2.812,37.9,1.077,4.594-2.1,34.316-4.159,24.839-5.969-4.592-15.546-22.111,5.482-46.951.976,4.739,4.637-33.885-2.452-41.638.866-41.926-4.868-20.1-3.6Z" transform="translate(-4886.593 -2631.137)" fill="#bbc8d9" fill-rule="evenodd"/>
      <path id="Trazado_27902" data-name="Trazado 27902" d="M5891.386,2712.456l-4.594,2.1-5.167-16.682-4.739-4.636,9.172-.19Z" transform="translate(-5725.958 -2670.014)" fill="#90a6c4" fill-rule="evenodd"/>
      <path id="Trazado_27903" data-name="Trazado 27903" d="M5143.453,2711.775l-32.879-3.477L5112,2687.8l34.184,3.969Z" transform="translate(-5066.039 -2665.496)" fill="#d4dde8" fill-rule="evenodd"/>
      <path id="Trazado_27904" data-name="Trazado 27904" d="M6237.168,2647.906l-22.11,5.482,1.863,16.033,24.84-5.969Z" transform="translate(-6017.179 -2631.137)" fill="#90a6c4" fill-rule="evenodd"/>
      <path id="Trazado_27905" data-name="Trazado 27905" d="M5670.662,2728.395l-.734-18.027,33.473,2.422,5.166,16.682Z" transform="translate(-5547.733 -2684.927)" fill="#d4dde8" fill-rule="evenodd"/>
    </g>
    <path id="Trazado_27906" data-name="Trazado 27906" d="M5375.767,2574.043c31.934-1.627,57.821-1.049,57.821,1.294s-25.887,5.561-57.821,7.189-57.822,1.048-57.822-1.295S5343.833,2575.671,5375.767,2574.043Z" transform="translate(-5244.62 -2480.146)" fill="#c1cede" fill-rule="evenodd"/>
    <g id="Grupo_11487" data-name="Grupo 11487" transform="translate(56.266)">
      <path id="Trazado_27907" data-name="Trazado 27907" d="M5534.148,2202.868q29.98,53.2-2.146,57.96-12.452.707-12.183.4.965-3.806,6.089-5.954l6.094-2.757c-.167-16.529-3.466-22.041-9.236-36.792a22.16,22.16,0,0,1-.991-9.069,34.239,34.239,0,0,1,.621-4.236A50.155,50.155,0,0,0,5534.148,2202.868Z" transform="translate(-5474.727 -2160.918)" fill="#dce5ef" fill-rule="evenodd"/>
      <path id="Trazado_27908" data-name="Trazado 27908" d="M5211.544,1939.4c3.1-1.473,13.4-1.244,17.83,1.069a44.8,44.8,0,0,0,25.118,4.953s.223,1.548.669,4.643q.53,17.356,10.541,25.308s-.587,7.017-1.76,21.05q-10.721.73-11.78,7.888l19.672-.653a8.035,8.035,0,0,0,5.339-4.146,49.452,49.452,0,0,0,9.535-12.807q2.5-5.286,0-13.361-1.86-10.1-.8-14.227a15.127,15.127,0,0,0,8.667,8.172q-1.176,13.478,16.506,23.37c-11.987,1.034-17.368,4.294-16.643,10.3,7.426.661,17.08.227,31.091-2.337,7.389-1.992,9.35-7.374,10.059-13.885q5.123-42.6-25.174-62.7-14.228-7.172-26.011-9.466c-17.086-4.427-20.1-11.527-31.676-8.276-5.972,1.678-2.181,1.153-9.565.593-11.617-.882-20.47.135-26.557,3.213q-4.651,2.283-12.229,11.125l-.278,3.342q-7.815,7.92-9.03,10.768,2.506,6.67,7.668,5.411C5203.112,1941.854,5205.824,1942.079,5211.544,1939.4Z" transform="translate(-5195.071 -1903.468)" fill="#fff" fill-rule="evenodd"/>
      <path id="Trazado_27909" data-name="Trazado 27909" d="M5197.816,2122.916a10.639,10.639,0,0,1-2.745-4.356Q5202.322,2118.46,5197.816,2122.916Z" transform="translate(-5195.071 -2088.695)" fill="#191919" fill-rule="evenodd"/>
      <path id="Trazado_27910" data-name="Trazado 27910" d="M5275.839,2031.007a1.288,1.288,0,0,1,1.647.817,1.361,1.361,0,0,1-.565,1.794,1.288,1.288,0,0,1-1.647-.817A1.361,1.361,0,0,1,5275.839,2031.007Z" transform="translate(-5264.031 -2013.223)" fill="#191919" fill-rule="evenodd"/>
      <path id="Trazado_27911" data-name="Trazado 27911" d="M5756.742,2102.322c27.859,5.883,5.355,30.522,18.755,34.24,1.681.467,2.913-2.6,4.285-4.873q6.593-10.9,22.585-8.5a21.159,21.159,0,0,0-24.1,15.344q-1.059,13.675,16.506,23.37-15.7,1.219-16.644,8.281c-12.47-.889-14.628-.607-17.268.573,17.057-17.894,8.89-19.763,8.379-34.729C5768.8,2122.932,5776.373,2105.827,5756.742,2102.322Z" transform="translate(-5678.76 -2074.713)" fill="#dce5ef" fill-rule="evenodd"/>
      <path id="Trazado_27912" data-name="Trazado 27912" d="M5356.664,2091.9l2.533,4.616c-2.043-11.128-14.847-11.718-24.691-15.576-3.692-1.446-1.85-7.4-2.61-7.373-.511,1.837-.016.77-1.077,2.368-1.775,2.673-3.325,5.757-10.254,7.359-2.649.612-4.937,2.036-6.849,2.479q10.322,2.595,17.856,1.175.135.075.262.152Q5344.537,2093.224,5356.664,2091.9Z" transform="translate(-5297.244 -2049.954)" fill="#eceef4" fill-rule="evenodd"/>
      <path id="Trazado_27913" data-name="Trazado 27913" d="M5416.337,1947.12c1.624,2.35,1.466,6.273-2.862,10.9a12.491,12.491,0,0,0-4.557-6.63C5411.6,1948.371,5413.835,1947.195,5416.337,1947.12Z" transform="translate(-5379.228 -1941.059)" fill="#eceef4" fill-rule="evenodd"/>
      <path id="Trazado_27914" data-name="Trazado 27914" d="M5421.546,1966.148c1,1.446.9,3.859-1.76,6.707a7.687,7.687,0,0,0-2.8-4.079C5418.634,1966.917,5420.007,1966.194,5421.546,1966.148Z" transform="translate(-5386.173 -1957.446)" fill="#dce5ef" fill-rule="evenodd"/>
    </g>
  </g>
</svg>
