<svg xmlns="http://www.w3.org/2000/svg" width="168.703" height="136.23" viewBox="0 0 168.703 136.23">
  <g id="Grupo_10894" data-name="Grupo 10894" transform="translate(-176.913 -296.609)">
    <g id="Grupo_10886" data-name="Grupo 10886" transform="translate(176.913 400.569)">
      <path id="Trazado_26526" data-name="Trazado 26526" d="M228.442,353.178l-51.529,25.183s30.242,10.03,64.6-6.757C268.536,358.4,228.442,353.178,228.442,353.178Z" transform="translate(-176.913 -353.178)" fill="#6a7e8b"/>
    </g>
    <g id="Grupo_10887" data-name="Grupo 10887" transform="translate(228.442 354.018)">
      <path id="Trazado_26527" data-name="Trazado 26527" d="M303.985,370.807a53.081,53.081,0,0,1-99.033,3.591l95.256-46.55A52.929,52.929,0,0,1,303.985,370.807Z" transform="translate(-204.952 -327.848)" fill="#6a7e8b"/>
    </g>
    <g id="Grupo_10888" data-name="Grupo 10888" transform="translate(290.294 354.018)">
      <path id="Trazado_26528" data-name="Trazado 26528" d="M275.789,370.807a53.067,53.067,0,0,1-12.179,19.827,40.582,40.582,0,0,1-23.849-47.026l32.251-15.761A52.929,52.929,0,0,1,275.789,370.807Z" transform="translate(-238.609 -327.848)" fill="#859ead"/>
    </g>
    <g id="Grupo_10889" data-name="Grupo 10889" transform="translate(297.299 337.529)">
      <path id="Rectángulo_3182" data-name="Rectángulo 3182" d="M0,0H22.816a8.528,8.528,0,0,1,8.528,8.528v45.2a0,0,0,0,1,0,0H14.4A14.4,14.4,0,0,1,0,39.327V0A0,0,0,0,1,0,0Z" transform="translate(17.454 0) rotate(18.957)" fill="#6a7e8b"/>
    </g>
    <g id="Grupo_10890" data-name="Grupo 10890" transform="translate(228.808 296.609)">
      <path id="Trazado_26529" data-name="Trazado 26529" d="M239.811,392.97a51.3,51.3,0,0,1-1.86-96.361l44.887,91.851A51.134,51.134,0,0,1,239.811,392.97Z" transform="translate(-205.151 -296.609)" fill="#97b3c4"/>
    </g>
    <g id="Grupo_10891" data-name="Grupo 10891" transform="translate(243.326 326.302)">
      <path id="Trazado_26530" data-name="Trazado 26530" d="M233.193,379.434a51.063,51.063,0,0,1-19.719-12.348,51.263,51.263,0,0,1,32.37-54.32l30.376,62.158A51.134,51.134,0,0,1,233.193,379.434Z" transform="translate(-213.051 -312.766)" fill="#859ead"/>
    </g>
    <g id="Grupo_10892" data-name="Grupo 10892" transform="translate(337.449 360.377)">
      <path id="Trazado_26531" data-name="Trazado 26531" d="M272.435,341.675l-8.167-2.8,2.6-7.562Z" transform="translate(-264.268 -331.308)" fill="#f79561"/>
    </g>
    <g id="Grupo_10893" data-name="Grupo 10893" transform="translate(330.075 356.017)">
      <path id="Trazado_26532" data-name="Trazado 26532" d="M261.335,335.879h0a1.6,1.6,0,0,1-.992-2.031l1.316-3.832a1.6,1.6,0,0,1,2.031-.994h0a1.6,1.6,0,0,1,.994,2.033l-1.316,3.832A1.6,1.6,0,0,1,261.335,335.879Z" transform="translate(-260.255 -328.936)" fill="#33140e"/>
    </g>
  </g>
</svg>
