<svg xmlns="http://www.w3.org/2000/svg" width="282.631" height="263" viewBox="0 0 282.631 263">
  <g id="Grupo_11561" data-name="Grupo 11561" transform="translate(-1105 -12259)">
    <circle id="Elipse_938" data-name="Elipse 938" cx="131.5" cy="131.5" r="131.5" transform="translate(1105 12259)" fill="#fae7b7"/>
    <g id="Grupo_11558" data-name="Grupo 11558" transform="translate(63.894 12162.797)">
      <ellipse id="Elipse_935" data-name="Elipse 935" cx="110.206" cy="20.96" rx="110.206" ry="20.96" transform="translate(1091.935 288.283)" fill="#bea999"/>
      <g id="Grupo_11557" data-name="Grupo 11557" transform="translate(1064.106 97.203)">
        <path id="Trazado_28163" data-name="Trazado 28163" d="M1192.615,398.694c-27.374,8.112-61.979,24.032-81.46,43.148s-23.838,41.427-21.347,53.681,11.83,14.452,21.169,16.649l106.853-62.441L1122.1,513.408l19,2.954,153.852-73.992L1190.107,501.48c34.311,1.676,68.622,3.352,95.881-4s47.464-23.73,54.2-37.825.008-25.906-16.541-28.653-42.919,3.571-69.288,9.888l33.786-21.837c-9.291-9.693-18.581-19.387-33.3-24.082S1219.989,390.582,1192.615,398.694Z" transform="translate(-1083.148 -321.092)" fill="#cfeded" fill-rule="evenodd"/>
        <g id="Grupo_11556" data-name="Grupo 11556" transform="translate(0 0)">
          <g id="Grupo_11539" data-name="Grupo 11539">
            <path id="Trazado_28164" data-name="Trazado 28164" d="M1150.706,336.361c1.964-4.845,3.928-9.69,2.774-14.8s-5.427-10.484-10.757-14.086-11.72-5.433-17.456-4.435-10.817,4.824-15.9,8.65c-1.036-1.465-2.071-2.931-3.417-3.461a4.3,4.3,0,0,0-4.246.937,13.626,13.626,0,0,0-2.9,4.478c-4.513.733-9.027,1.466-15.874,7.777s-16.027,18.2-18.271,31.346,2.451,27.56,11.321,33.707,21.916,4.03,30.614,1.3,13.046-6.066,15.669-9.119a22.262,22.262,0,0,0,4.417-8.589c2.347,1.384,4.694,2.768,8.56,1.384s9.25-5.536,13.357-10.747,6.937-11.48,7.075-15.714S1153.259,338.559,1150.706,336.361Z" transform="translate(-1064.106 -253.372)" fill="#7b7b15" fill-rule="evenodd"/>
            <g id="Grupo_11496" data-name="Grupo 11496" transform="translate(42.049 65.769)">
              <path id="Trazado_28165" data-name="Trazado 28165" d="M1306.7,511.934l-1.865-.259a208.258,208.258,0,0,0,2.231-25.334c.559-17.948-.745-31.972-3.875-41.683-4.344-13.477-13.336-21.649-21.559-27.866-3.469-2.622-7.2-5.17-10.817-7.633-6.723-4.585-13.072-8.916-17.842-13.686-7.466-7.466-10.729-15.816-13.885-23.89l1.753-.685c3.085,7.894,6.275,16.057,13.463,23.245,4.645,4.645,10.924,8.928,17.572,13.462,3.631,2.476,7.386,5.037,10.891,7.687,8.457,6.393,17.711,14.814,22.215,28.79,3.2,9.917,4.531,24.155,3.965,42.32A209.9,209.9,0,0,1,1306.7,511.934Z" transform="translate(-1239.09 -370.897)" fill="#4b2929"/>
            </g>
            <g id="Grupo_11497" data-name="Grupo 11497" transform="translate(58.309 67.451)">
              <path id="Trazado_28166" data-name="Trazado 28166" d="M1316.289,410.05c-2.934-5.7-5.968-11.587-7.562-16.952-1.6-5.386-1.789-10.345-1.97-15.14l1.5-.062c.178,4.707.361,9.569,1.909,14.773,1.555,5.23,4.556,11.057,7.458,16.691Z" transform="translate(-1306.756 -377.896)" fill="#4b2929"/>
            </g>
            <g id="Grupo_11498" data-name="Grupo 11498" transform="translate(64.531 73.722)">
              <path id="Trazado_28167" data-name="Trazado 28167" d="M1334.089,423.3l-1.441-.436v0c1.462-4.792,2.974-9.748,3.668-12.892a17.8,17.8,0,0,0,.5-5.882l1.5-.094a19.289,19.289,0,0,1-.534,6.3C1337.081,413.495,1335.56,418.48,1334.089,423.3Z" transform="translate(-1332.648 -403.992)" fill="#4b2929"/>
            </g>
            <g id="Grupo_11499" data-name="Grupo 11499" transform="translate(73.619 80.059)">
              <path id="Trazado_28168" data-name="Trazado 28168" d="M1371.853,453.848l-1.387-.587,0-.011a80.446,80.446,0,0,0,4.567-12.267,43.333,43.333,0,0,0,.9-10.619h1.506a45.171,45.171,0,0,1-.943,10.969A81.5,81.5,0,0,1,1371.853,453.848Z" transform="translate(-1370.466 -430.364)" fill="#4b2929"/>
            </g>
            <g id="Grupo_11500" data-name="Grupo 11500" transform="translate(77.261 83.292)">
              <path id="Trazado_28169" data-name="Trazado 28169" d="M1386.153,456.632l-.531-1.409a12.182,12.182,0,0,0,5.374-3.238c1.683-1.885,3.234-5.078,4.734-8.166l1.358.651c-1.549,3.188-3.146,6.477-4.969,8.518A13.571,13.571,0,0,1,1386.153,456.632Z" transform="translate(-1385.622 -443.819)" fill="#4b2929"/>
            </g>
            <path id="Trazado_28170" data-name="Trazado 28170" d="M1450.428,213.024c-.729-8.842-1.458-17.684-8.113-24.794s-19.234-12.489-30.492-15.862-21.194-4.74-28.167-4.375-10.985,2.46-15,4.557c-3.008-4.558-6.016-9.116-13.218-10.711s-18.6-.228-29.034,4.1-19.918,11.622-24.475,22.151-4.194,24.293,4.649,34.594,26.162,17.138,40.155,20.192,24.658,2.324,31.586.547,10.118-4.6,13.308-7.43c3.646,2.553,7.293,5.1,10.666,5.834a9.682,9.682,0,0,0,8.341-2.005c1.869-1.641,2.506-3.829,3.145-6.017,10.9,5.333,21.793,10.665,31.866,7.612s19.323-14.494,19.982-20.624S1458.359,213.845,1450.428,213.024Z" transform="translate(-1242.595 -145.818)" fill="#992" fill-rule="evenodd"/>
            <path id="Trazado_28171" data-name="Trazado 28171" d="M1383.826,214.431c-3.747,4.9-12.864,10.739-17.827,17.771s-5.772,15.26.915,19.608,20.872,4.816,32.271,2.495,20.014-7.432,28.629-12.544c8.225,4.818,16.449,9.636,24.012,13.024s14.465,5.345,20.489,5.054,11.17-2.83,13.579-5.869,2.081-6.576-2.7-14.288-14.009-19.6-24.655-27.014-22.71-10.365-35.315-11.468-25.753-.361-31.515,2S1387.573,209.527,1383.826,214.431Z" transform="translate(-1290.482 -175.829)" fill="#7b7b15" fill-rule="evenodd"/>
            <g id="Grupo_11501" data-name="Grupo 11501" transform="translate(115.852 37.891)">
              <path id="Trazado_28172" data-name="Trazado 28172" d="M1547.588,325.461l-1.372-.621c3.052-6.743,6.208-13.715,11.365-20.069,2.326-2.865,5.006-5.559,7.844-8.411a107.4,107.4,0,0,0,9.726-10.7,80.331,80.331,0,0,0,10.83-20.809,32.671,32.671,0,0,0,2.238-9.966l1.5.111a34.331,34.331,0,0,1-2.319,10.357,81.89,81.89,0,0,1-11.049,21.216,108.581,108.581,0,0,1-9.86,10.854c-2.81,2.824-5.464,5.492-7.742,8.3C1553.715,311.923,1550.6,318.805,1547.588,325.461Z" transform="translate(-1546.216 -254.885)" fill="#4b2929"/>
            </g>
            <g id="Grupo_11502" data-name="Grupo 11502" transform="translate(86.333 47.093)">
              <path id="Trazado_28173" data-name="Trazado 28173" d="M1451.012,316.875c-5.594-2.4-11.379-4.888-16.015-8.721s-8.188-9.068-11.624-14.13l1.246-.846c3.376,4.975,6.867,10.119,11.337,13.816s10.153,6.137,15.649,8.5Z" transform="translate(-1423.374 -293.178)" fill="#4b2929"/>
            </g>
            <g id="Grupo_11503" data-name="Grupo 11503" transform="translate(78.977 58.267)">
              <path id="Trazado_28174" data-name="Trazado 28174" d="M1434.821,364.767c-6.5-.752-13.227-1.53-19.163-4.143-4.761-2.1-9.743-5.694-14.808-10.7a84.518,84.518,0,0,1-8.089-9.328l1.191-.922a83.212,83.212,0,0,0,7.956,9.178c4.934,4.872,9.764,8.368,14.356,10.389,5.728,2.521,12.337,3.286,18.729,4.025Z" transform="translate(-1392.762 -339.679)" fill="#4b2929"/>
            </g>
            <g id="Grupo_11504" data-name="Grupo 11504" transform="translate(83.52 51.619)">
              <path id="Trazado_28175" data-name="Trazado 28175" d="M1417.981,331.371c-1.446-4.563-2.941-9.282-3.995-12.422s-1.7-4.791-2.319-6.391l1.4-.546c.629,1.617,1.279,3.288,2.343,6.458,1.058,3.153,2.555,7.877,4,12.447Z" transform="translate(-1411.667 -312.011)" fill="#4b2929"/>
            </g>
            <g id="Grupo_11505" data-name="Grupo 11505" transform="translate(75.088 69.022)">
              <path id="Trazado_28176" data-name="Trazado 28176" d="M1405.672,395.526l.13-.742-.145.739c-5.89-1.035-11.98-2.1-16.837-3.739a60.238,60.238,0,0,1-12.241-6.058l.769-1.295a59.037,59.037,0,0,0,11.953,5.926c4.749,1.6,10.782,2.658,16.617,3.683Z" transform="translate(-1376.58 -384.432)" fill="#4b2929"/>
            </g>
            <g id="Grupo_11506" data-name="Grupo 11506" transform="translate(143.647 34.85)">
              <path id="Trazado_28177" data-name="Trazado 28177" d="M1663.388,277.811l-1.5-.086c.264-4.63.537-9.418,1.085-15.351s1.381-13.16,2.187-20.147l1.5.173c-.806,6.978-1.638,14.194-2.184,20.113S1663.651,273.193,1663.388,277.811Z" transform="translate(-1661.884 -242.227)" fill="#4b2929"/>
            </g>
            <g id="Grupo_11507" data-name="Grupo 11507" transform="translate(136.59 50.438)">
              <path id="Trazado_28178" data-name="Trazado 28178" d="M1632.745,336.187l-.23-1.488h0a112.855,112.855,0,0,0,18.582-3.921c6.863-2.254,12.9-5.553,17.007-9.291,4.509-4.108,7.351-9.334,10.1-14.388l1.323.719c-2.808,5.164-5.712,10.5-10.409,14.782-4.257,3.878-10.49,7.291-17.551,9.609A114.024,114.024,0,0,1,1632.745,336.187Z" transform="translate(-1632.515 -307.098)" fill="#4b2929"/>
            </g>
            <g id="Grupo_11508" data-name="Grupo 11508" transform="translate(160.896 45.218)">
              <path id="Trazado_28179" data-name="Trazado 28179" d="M1735.117,312.763l-1.453-.4a120.917,120.917,0,0,1,4.628-14.591,93.824,93.824,0,0,1,6.654-12.4l1.292.773a92.641,92.641,0,0,0-6.557,12.209A119.8,119.8,0,0,0,1735.117,312.763Z" transform="translate(-1733.664 -285.375)" fill="#4b2929"/>
            </g>
            <g id="Grupo_11509" data-name="Grupo 11509" transform="translate(172.585 60.589)">
              <path id="Trazado_28180" data-name="Trazado 28180" d="M1791.008,355.715a64.784,64.784,0,0,1-8.7-.834l.21-1.491c4.194.589,8.532,1.2,11.894.524,3.318-.665,5.819-2.563,8.467-4.572l.91,1.2c-2.667,2.023-5.424,4.115-9.08,4.849A18.932,18.932,0,0,1,1791.008,355.715Z" transform="translate(-1782.306 -349.342)" fill="#4b2929"/>
            </g>
            <g id="Grupo_11510" data-name="Grupo 11510" transform="translate(145.971 75.394)">
              <path id="Trazado_28181" data-name="Trazado 28181" d="M1701.067,417.586c-2.162,0-4.355-.058-6.51-.19-8.614-.525-15.927-2.24-23-3.9l.344-1.466c7.012,1.645,14.262,3.346,22.748,3.863a113.853,113.853,0,0,0,24.094-1.154c5.58-1.011,7.1-2.36,8.7-3.787l1,1.126c-1.691,1.5-3.439,3.057-9.436,4.144A110.41,110.41,0,0,1,1701.067,417.586Z" transform="translate(-1671.556 -410.952)" fill="#4b2929"/>
            </g>
            <g id="Grupo_11511" data-name="Grupo 11511" transform="translate(180.804 67.513)">
              <path id="Trazado_28182" data-name="Trazado 28182" d="M1817.276,392.431l-.766-1.3a62.4,62.4,0,0,0,8.115-5.394,84.613,84.613,0,0,0,7.7-7.587l1.1,1.028a85.587,85.587,0,0,1-7.841,7.723A63.518,63.518,0,0,1,1817.276,392.431Z" transform="translate(-1816.511 -378.153)" fill="#4b2929"/>
            </g>
            <g id="Grupo_11512" data-name="Grupo 11512" transform="translate(121.208 32.186)">
              <path id="Trazado_28183" data-name="Trazado 28183" d="M1573.94,276.2v0c-.793-5.581-1.613-11.353-2.471-16.646q-.31-1.913-.623-3.761c-.654-3.909-1.272-7.6-1.655-11.152-.506-4.688-.6-9.15-.688-13.465l1.506-.031c.089,4.283.181,8.712.679,13.335.379,3.508.993,7.179,1.643,11.065q.31,1.853.624,3.768c.861,5.308,1.681,11.087,2.476,16.675Z" transform="translate(-1568.503 -231.142)" fill="#4b2929"/>
            </g>
            <g id="Grupo_11513" data-name="Grupo 11513" transform="translate(103.446 36.431)">
              <path id="Trazado_28184" data-name="Trazado 28184" d="M1514.157,299.776l.652-.377-.659.364c-3.34-5.782-6.794-11.761-9.41-16.948a81.689,81.689,0,0,1-6.033-15.242c-1.561-5.507-2.86-12.1-4.117-18.473l1.478-.291c1.251,6.345,2.544,12.906,4.088,18.354a79.2,79.2,0,0,0,5.929,14.974c2.6,5.148,6.04,11.109,9.37,16.873Z" transform="translate(-1494.589 -248.809)" fill="#4b2929"/>
            </g>
            <path id="Trazado_28185" data-name="Trazado 28185" d="M1827.041,303.477c-7.616-3.176-18.6-5.3-21.513-1.911s2.232,12.3,9.057,18.624,15.327,10.057,20.369,8.779,6.625-7.571,5.29-12.83S1834.657,306.654,1827.041,303.477Z" transform="translate(-1626.73 -251.146)" fill="#b3b336" fill-rule="evenodd"/>
            <g id="Grupo_11514" data-name="Grupo 11514" transform="translate(48.763 64.825)">
              <path id="Trazado_28186" data-name="Trazado 28186" d="M1277.929,381.379l.406-.634-.411.631c-2.8-1.8-5.7-3.655-7.54-6.019-1.858-2.386-2.619-5.241-3.355-8l1.455-.388c.729,2.736,1.419,5.32,3.088,7.465,1.683,2.161,4.47,3.948,7.165,5.677Z" transform="translate(-1267.028 -366.966)" fill="#4b2929"/>
            </g>
            <g id="Grupo_11515" data-name="Grupo 11515" transform="translate(32.796 74.094)">
              <path id="Trazado_28187" data-name="Trazado 28187" d="M1222.4,419.905l.137-.74-.138.74c-3.943-.731-8.021-1.486-11.706-3.747-3.661-2.247-6.941-5.994-10.113-9.618l1.126-1c3.105,3.548,6.308,7.208,9.775,9.335,3.446,2.115,7.209,2.812,11.192,3.55Z" transform="translate(-1200.584 -405.54)" fill="#4b2929"/>
            </g>
            <g id="Grupo_11516" data-name="Grupo 11516" transform="translate(26.852 80.771)">
              <path id="Trazado_28188" data-name="Trazado 28188" d="M1188.162,438.368a16.48,16.48,0,0,1-3.406-.329c-3.014-.635-6.009-2.319-8.905-3.948l.428-.767c2.841,1.6,5.776,3.249,8.658,3.855a25.987,25.987,0,0,0,8.759-.185l.117.87A42.645,42.645,0,0,1,1188.162,438.368Z" transform="translate(-1175.85 -433.324)" fill="#cccc63"/>
            </g>
            <g id="Grupo_11517" data-name="Grupo 11517" transform="translate(20.207 93.59)">
              <path id="Trazado_28189" data-name="Trazado 28189" d="M1172.406,493.608a59.11,59.11,0,0,1-13.707-1.824,60.211,60.211,0,0,1-10.505-3.73l.6-1.382a58.973,58.973,0,0,0,10.274,3.651,53.531,53.531,0,0,0,16.176,1.67c5.56-.444,10.722-2.363,15.714-4.22l.525,1.412c-5.089,1.892-10.35,3.849-16.119,4.309C1174.378,493.573,1173.388,493.608,1172.406,493.608Z" transform="translate(-1148.194 -486.672)" fill="#4b2929"/>
            </g>
            <g id="Grupo_11518" data-name="Grupo 11518" transform="translate(24.892 85.817)">
              <path id="Trazado_28190" data-name="Trazado 28190" d="M1178.82,468.108c-2.226-2.748-4.527-5.59-6.382-7.709s-3.321-3.585-4.747-5.011l1.065-1.065c1.443,1.443,2.935,2.935,4.815,5.084s4.184,4.994,6.419,7.753Z" transform="translate(-1167.691 -454.323)" fill="#4b2929"/>
            </g>
            <g id="Grupo_11519" data-name="Grupo 11519" transform="translate(17.371 101.571)">
              <path id="Trazado_28191" data-name="Trazado 28191" d="M1173.724,532.272a73.422,73.422,0,0,1-23.234-4.111,64.781,64.781,0,0,1-14.1-7l.793-1.28a63.5,63.5,0,0,0,13.8,6.857,71.288,71.288,0,0,0,23.562,4.021c8.687-.129,17.6-2.421,26.211-4.638l.375,1.458c-8.7,2.238-17.7,4.553-26.564,4.685C1174.287,532.27,1174,532.272,1173.724,532.272Z" transform="translate(-1136.394 -519.882)" fill="#4b2929"/>
            </g>
            <g id="Grupo_11520" data-name="Grupo 11520" transform="translate(13.56 112.183)">
              <path id="Trazado_28192" data-name="Trazado 28192" d="M1143.841,571.328c-7.124,0-15.33-1.161-23.308-2.291l.211-1.491c9.462,1.339,19.246,2.723,27.035,2.137,7.747-.583,13.869-3.154,19.79-5.64l.583,1.388c-6.032,2.533-12.269,5.151-20.26,5.753C1146.59,571.283,1145.236,571.328,1143.841,571.328Z" transform="translate(-1120.533 -564.044)" fill="#4b2929"/>
            </g>
            <g id="Grupo_11521" data-name="Grupo 11521" transform="translate(12.816 109.346)">
              <path id="Trazado_28193" data-name="Trazado 28193" d="M1118.043,567.945l-.606-1.379c4.587-2.015,9.33-4.1,12.705-6.481a35.083,35.083,0,0,0,7.618-7.845l1.188.926a36.787,36.787,0,0,1-7.937,8.15C1127.512,563.786,1122.7,565.9,1118.043,567.945Z" transform="translate(-1117.437 -552.241)" fill="#4b2929"/>
            </g>
            <g id="Grupo_11522" data-name="Grupo 11522" transform="translate(13.329 105.607)">
              <path id="Trazado_28194" data-name="Trazado 28194" d="M1119.7,543.6l-.125-1.5a16.038,16.038,0,0,0,5.952-1.231,17.6,17.6,0,0,0,4.683-4.194l1.124,1a18.928,18.928,0,0,1-5.124,4.534A17.368,17.368,0,0,1,1119.7,543.6Z" transform="translate(-1119.575 -536.678)" fill="#4b2929"/>
            </g>
            <g id="Grupo_11523" data-name="Grupo 11523" transform="translate(36.411 89.892)">
              <path id="Trazado_28195" data-name="Trazado 28195" d="M1238.489,486.543a13.728,13.728,0,0,1-4.029-.606c-5.769-1.756-12.411-7.743-18.835-13.533l1-1.123c6.305,5.684,12.821,11.556,18.27,13.215,5.319,1.618,9.8-.665,14.541-3.082l.684,1.342C1246.456,484.624,1242.693,486.543,1238.489,486.543Z" transform="translate(-1215.626 -471.281)" fill="#4b2929"/>
            </g>
            <g id="Grupo_11524" data-name="Grupo 11524" transform="translate(109.168 31.304)">
              <path id="Trazado_28196" data-name="Trazado 28196" d="M1520.284,350.431l-1.881-.041c.21-9.564.428-19.453,2.554-30.571,1.817-9.5,5.175-20.887,10.265-34.8,1.109-3.031,2.228-5.984,3.31-8.84,2.9-7.668,5.648-14.91,7.467-21.753,2.486-9.356,3.316-18.3,4.119-26.955l1.875.164c-.811,8.739-1.649,17.766-4.175,27.274-1.843,6.935-4.6,14.222-7.526,21.936-1.08,2.851-2.2,5.8-3.3,8.82-5.055,13.816-8.386,25.1-10.184,34.506C1520.709,331.136,1520.493,340.945,1520.284,350.431Z" transform="translate(-1518.403 -227.471)" fill="#4b2929"/>
            </g>
            <g id="Grupo_11525" data-name="Grupo 11525" transform="translate(108.608 104.196)">
              <path id="Trazado_28197" data-name="Trazado 28197" d="M1524.932,539.594c-1.2,7.112-2.4,14.225-3.232,20.972a160.153,160.153,0,0,0-1.285,19.919c0,6.791.456,13.992.957,20.146s1.048,11.258,1.094,17.457-.41,13.491-.866,20.784c-.456.729-.911,1.459-1.75,1.641a7.744,7.744,0,0,1-3.282-.548c.721-7.736,1.442-15.471,1.834-21.441s.458-10.177.328-15.048-.456-10.406-.581-14.555-.05-6.91.137-10.408.484-7.733.87-11.422.858-6.832,1.368-9.637,1.054-5.271,1.8-8.191S1524,542.968,1524.932,539.594Z" transform="translate(-1516.45 -537.482)" fill="#4b2929" fill-rule="evenodd"/>
              <path id="Trazado_28198" data-name="Trazado 28198" d="M1518.98,634a10.972,10.972,0,0,1-2.82-.6l-.088-.026.018-.187c.7-7.57,1.434-15.4,1.825-21.342.373-5.673.465-9.889.328-15.037-.071-2.656-.2-5.489-.323-8.229-.1-2.283-.2-4.439-.258-6.325-.127-4.2-.046-7,.137-10.417.126-2.361.406-6.985.87-11.428.349-3.341.8-6.5,1.369-9.645.5-2.749,1.036-5.2,1.8-8.2.732-2.889,1.673-6.278,2.582-9.556l.609-2.2-.365,2.159c-1.18,6.982-2.4,14.2-3.226,20.938a159.732,159.732,0,0,0-1.284,19.905c0,5.648.313,12.235.957,20.137.093,1.142.188,2.249.28,3.333.4,4.67.777,9.08.814,14.132.045,6.21-.418,13.623-.866,20.791l-.017.053c-.46.737-.937,1.5-1.821,1.69A2.453,2.453,0,0,1,1518.98,634Zm-2.669-.788a7.477,7.477,0,0,0,3.138.52c.784-.17,1.214-.846,1.664-1.567.447-7.156.909-14.554.864-20.748-.037-5.043-.414-9.45-.813-14.115-.093-1.084-.187-2.191-.281-3.334-.644-7.908-.958-14.5-.958-20.155a159.958,159.958,0,0,1,1.286-19.933c.745-6.066,1.808-12.522,2.873-18.844-.73,2.639-1.449,5.271-2.035,7.582-.759,2.992-1.3,5.44-1.793,8.184-.571,3.143-1.018,6.293-1.367,9.628-.464,4.439-.744,9.058-.869,11.417-.182,3.412-.263,6.208-.136,10.4.057,1.885.155,4.04.258,6.322.124,2.741.252,5.576.323,8.234.137,5.155.045,9.377-.329,15.058-.391,5.947-1.12,13.777-1.825,21.348Z" transform="translate(-1516.072 -530.807)" fill="#4b2929"/>
            </g>
            <path id="Trazado_28199" data-name="Trazado 28199" d="M1113.608,343.521c-7.384,1.823-16.135,6.108-21.833,13.628s-8.341,18.277-4.329,24.522,14.676,7.976,23.327,3.591,15.286-14.887,18.659-22.955,3.483-13.7.53-16.836S1120.992,341.7,1113.608,343.521Z" transform="translate(-1080.374 -283.562)" fill="#992" fill-rule="evenodd"/>
            <path id="Trazado_28200" data-name="Trazado 28200" d="M1092.453,536.125c-.575,4.2-.332,8.757,1.643,11.125s5.681,2.549,7.075-1.313.474-11.768-.8-16.063-2.916-4.978-4.431-3.393S1093.028,531.92,1092.453,536.125Z" transform="translate(-1085.435 -422.731)" fill="#992" fill-rule="evenodd"/>
            <g id="Grupo_11526" data-name="Grupo 11526" transform="translate(14.531 64.907)">
              <path id="Trazado_28201" data-name="Trazado 28201" d="M1134.334,388.624c-3.272,0-6.258-.616-7.937-1.868a4.386,4.386,0,0,1-1.814-3.345c-.156-2.6,1.668-5.981,4.878-9.031,4.146-3.939,10.228-6.841,14.79-7.058s7.638,2.289,8.025,6.541a13.053,13.053,0,0,1-7.487,12.555A24.538,24.538,0,0,1,1134.334,388.624Zm9.945-20.717.028.585c-4.306.205-10.079,2.976-14.039,6.737-2.919,2.773-4.649,5.881-4.516,8.112a3.206,3.206,0,0,0,1.344,2.476c3.176,2.367,12,2.137,17.169-.446a12.034,12.034,0,0,0,6.845-11.4c-.329-3.618-2.875-5.664-6.8-5.478Z" transform="translate(-1124.574 -367.309)" fill="#cccc63"/>
            </g>
            <g id="Grupo_11527" data-name="Grupo 11527" transform="translate(19.248 87.729)">
              <path id="Trazado_28202" data-name="Trazado 28202" d="M1149.57,471.163c-2.157,0-5.14-1.259-5.355-3.48a4.391,4.391,0,0,1,1.2-3.074,6.18,6.18,0,0,1,3.769-2.315h0c2.256-.216,3.9,2.188,4.127,4.533a4.163,4.163,0,0,1-.819,3.085,3.519,3.519,0,0,1-2.455,1.23C1149.886,471.156,1149.73,471.163,1149.57,471.163Zm-.278-7.7a5.061,5.061,0,0,0-2.975,1.895,3.327,3.327,0,0,0-.937,2.216c.14,1.446,2.683,2.582,4.546,2.406a2.347,2.347,0,0,0,1.662-.81,3.013,3.013,0,0,0,.557-2.227c-.151-1.557-1.222-3.633-2.853-3.48Z" transform="translate(-1144.203 -462.281)" fill="#cccc63"/>
            </g>
            <g id="Grupo_11528" data-name="Grupo 11528" transform="translate(91.753 40.889)">
              <path id="Trazado_28203" data-name="Trazado 28203" d="M1462.643,283.648c-3.531-1.257-7.182-2.556-10.011-5.2-2.814-2.632-4.791-6.586-6.7-10.409l1.346-.675c1.853,3.706,3.768,7.537,6.385,9.984,2.6,2.433,5.946,3.624,9.488,4.884Z" transform="translate(-1445.929 -267.361)" fill="#4b2929"/>
            </g>
            <g id="Grupo_11529" data-name="Grupo 11529" transform="translate(97.962 37.671)">
              <path id="Trazado_28204" data-name="Trazado 28204" d="M1472.023,267.743l0-.163c-.082-2.748-.166-5.589-.208-7.842-.042-2.3-.042-4.064-.042-5.77h1.506c0,1.7,0,3.457.042,5.742.042,2.244.126,5.081.208,7.825l0,.163Z" transform="translate(-1471.768 -253.968)" fill="#4b2929"/>
            </g>
            <g id="Grupo_11530" data-name="Grupo 11530" transform="translate(151.207 39.005)">
              <path id="Trazado_28205" data-name="Trazado 28205" d="M1694.2,280.153l-.855-1.24,0,0c3.225-2.215,6.559-4.506,9.11-7.7s4.487-7.522,6.35-11.691l1.375.614c-1.9,4.255-3.867,8.655-6.548,12.016S1697.515,277.875,1694.2,280.153Z" transform="translate(-1693.344 -259.518)" fill="#4b2929"/>
            </g>
            <g id="Grupo_11531" data-name="Grupo 11531" transform="translate(122.666 31.881)">
              <path id="Trazado_28206" data-name="Trazado 28206" d="M1575.943,249.224l-1.371-.623a81.091,81.091,0,0,0,4.136-10.253,37.853,37.853,0,0,0,1.244-8.474l1.5.1a39.664,39.664,0,0,1-1.3,8.792A82.08,82.08,0,0,1,1575.943,249.224Z" transform="translate(-1574.572 -229.875)" fill="#4b2929"/>
            </g>
            <g id="Grupo_11532" data-name="Grupo 11532" transform="translate(133.287 36.016)">
              <path id="Trazado_28207" data-name="Trazado 28207" d="M1619.545,270.211l-.776-1.29c3.94-2.371,8.014-4.824,10.993-8.424s5.062-8.6,7.066-13.415l1.391.576c-2.047,4.924-4.164,10.013-7.3,13.8S1623.594,267.775,1619.545,270.211Z" transform="translate(-1618.769 -247.082)" fill="#4b2929"/>
            </g>
            <g id="Grupo_11533" data-name="Grupo 11533" transform="translate(135.701 32.558)">
              <path id="Trazado_28208" data-name="Trazado 28208" d="M1630.09,245.564l-1.275-.8,0,0a70.61,70.61,0,0,0,3.925-6.69,28.043,28.043,0,0,0,1.84-5.378l1.457.382a29.712,29.712,0,0,1-1.937,5.644A71.608,71.608,0,0,1,1630.09,245.564Z" transform="translate(-1628.815 -232.69)" fill="#4b2929"/>
            </g>
            <g id="Grupo_11534" data-name="Grupo 11534" transform="translate(110.154 33.518)">
              <path id="Trazado_28209" data-name="Trazado 28209" d="M1523.989,265.993l-1.483-.262v0a98.261,98.261,0,0,0,1.734-13.413,148.186,148.186,0,0,0-.524-15.519l1.5-.112a149.417,149.417,0,0,1,.527,15.694A99.468,99.468,0,0,1,1523.989,265.993Z" transform="translate(-1522.506 -236.685)" fill="#4b2929"/>
            </g>
            <path id="Trazado_28210" data-name="Trazado 28210" d="M1381.861,97.981a39.96,39.96,0,0,0-24.222,2.718c-9.879,4.3-21.336,13.337-27.7,23.326s-7.643,20.926-.487,26.259,22.744,5.06,34.366,1.5a46.873,46.873,0,0,0,23.063-15.269c3.783-4.877,3.692-7.794,3.6-10.711.82,5.561,1.641,11.121,6.837,15.314s14.767,7.019,23.7,7.794,17.229-.5,22.333-4.786a16.119,16.119,0,0,0,4.33-18.414c-2.689-6.837-9.982-13.218-18.049-16.363s-16.91-3.054-22.724-2.119a26.088,26.088,0,0,0-11.385,4.489c-.013-2.961-.027-5.922-1.927-8.331S1387.9,99.127,1381.861,97.981Z" transform="translate(-1262.003 -97.203)" fill="#b3b336" fill-rule="evenodd"/>
            <g id="Grupo_11535" data-name="Grupo 11535" transform="translate(83.51 1.922)">
              <path id="Trazado_28211" data-name="Trazado 28211" d="M1433.6,136.844c-8.315,0-17.172-1.993-20.407-5.888a6.9,6.9,0,0,1-1.515-5.341c.527-4.932,5.009-10.056,9.028-13.207a34.258,34.258,0,0,1,18.976-7.188c5-.208,8.021,1.219,11.144,5.26,1.475,1.909,6.183,8.63,4.834,14.975-1.208,5.686-7.106,9.791-15.778,10.981A46.59,46.59,0,0,1,1433.6,136.844Zm6.986-30.075c-.273,0-.552.006-.84.018a32.624,32.624,0,0,0-18.073,6.855c-4.734,3.711-8.045,8.476-8.436,12.139a5.389,5.389,0,0,0,1.162,4.173c3.689,4.442,16.279,6.163,25.269,4.928,7.988-1.1,13.392-4.743,14.457-9.753.96-4.518-1.717-10.034-4.542-13.69C1446.968,108.053,1444.546,106.769,1440.587,106.769Z" transform="translate(-1411.628 -105.2)" fill="#cccc63"/>
            </g>
            <g id="Grupo_11536" data-name="Grupo 11536" transform="translate(71.286 34.635)">
              <path id="Trazado_28212" data-name="Trazado 28212" d="M1370.608,252.829a18.65,18.65,0,0,1-7.713-1.333,3.311,3.311,0,0,1-2.136-3.033c.035-1.894,1.892-3.916,4.847-5.276,4.1-1.888,10.978-2.648,14.684-.772a4.721,4.721,0,0,1,2.847,4.219c-.036,1.914-1.369,3.615-3.658,4.669A22.986,22.986,0,0,1,1370.608,252.829Zm-4.346-8.218c-2.691,1.239-3.915,2.842-3.935,3.881-.012.63.418,1.17,1.276,1.6,2.936,1.487,11.153,1.653,15.22-.219,1.72-.792,2.721-1.985,2.745-3.273a3.2,3.2,0,0,0-1.987-2.791c-2.94-1.489-9.164-1.116-13.32.8Z" transform="translate(-1360.759 -241.332)" fill="#cccc63"/>
            </g>
            <g id="Grupo_11537" data-name="Grupo 11537" transform="translate(137.106 12.595)">
              <path id="Trazado_28213" data-name="Trazado 28213" d="M1655.766,165.261q-.306,0-.628-.013c-5.236-.214-14.583-2.972-18.335-6.077-2.129-1.762-2.3-3.444-2.061-4.546.409-1.915,2.4-3.543,5.329-4.354a27.233,27.233,0,0,1,16.156,1.381,8.513,8.513,0,0,1,5.334,8.083,5.337,5.337,0,0,1-1.261,4.116C1659.342,164.8,1657.855,165.261,1655.766,165.261ZM1645.6,151.189a19.682,19.682,0,0,0-5.108.594c-2.319.642-3.934,1.857-4.214,3.17-.262,1.227.685,2.314,1.526,3.009,3.43,2.837,12.434,5.516,17.4,5.719,1.938.08,3.28-.239,4-.945a3.79,3.79,0,0,0,.8-2.956,6.9,6.9,0,0,0-4.428-6.7h0A25.406,25.406,0,0,0,1645.6,151.189Z" transform="translate(-1634.662 -149.617)" fill="#cccc63"/>
            </g>
            <g id="Grupo_11538" data-name="Grupo 11538" transform="translate(186.253 51.172)">
              <path id="Trazado_28214" data-name="Trazado 28214" d="M1849.076,321.854c-2.662,0-6.63-2.359-8.473-4.709a5.329,5.329,0,0,1-1.228-4.838,3.051,3.051,0,0,1,2.2-2.016c2.551-.661,6.781,1.158,8.868,3.819h0a6.622,6.622,0,0,1,1.425,5.8,2.705,2.705,0,0,1-1.9,1.838A3.547,3.547,0,0,1,1849.076,321.854Zm-6.369-10.526a3.349,3.349,0,0,0-.835.1,1.89,1.89,0,0,0-1.387,1.258,4.2,4.2,0,0,0,1.04,3.741c1.959,2.5,6.22,4.7,8.149,4.193a1.532,1.532,0,0,0,1.088-1.08,5.515,5.515,0,0,0-1.237-4.7A9.826,9.826,0,0,0,1842.706,311.328Z" transform="translate(-1839.186 -310.153)" fill="#cccc63"/>
            </g>
          </g>
          <path id="Trazado_28215" data-name="Trazado 28215" d="M1383.157,785.838l4.99-13.306L1361.9,768.1q-.831,8.039-1.663,16.078Z" transform="translate(-1289.079 -606.88)" fill="#725050" fill-rule="evenodd"/>
          <path id="Trazado_28216" data-name="Trazado 28216" d="M1269.636,774.181,1254.3,743.873a24.337,24.337,0,0,0-3.635-.185c-1.171.062-2.279.308-4.9,1.756s-6.745,4.1-10.873,6.745l2.4,3.7c3.45-2.464,6.9-4.928,9.24-6.5A19.679,19.679,0,0,1,1251,746.86a3.4,3.4,0,0,1,2-.031l12.752,28.461Z" transform="translate(-1193.852 -588.324)" fill="#987f7f" fill-rule="evenodd"/>
          <g id="Grupo_11542" data-name="Grupo 11542" transform="translate(112.105 96.672)">
            <rect id="Rectángulo_3462" data-name="Rectángulo 3462" width="4.811" height="72.079" transform="translate(27.454 36.875)" fill="#666"/>
            <g id="Grupo_11541" data-name="Grupo 11541" transform="translate(0 0)">
              <g id="Grupo_11540" data-name="Grupo 11540">
                <circle id="Elipse_936" data-name="Elipse 936" cx="21.114" cy="21.114" r="21.114" transform="translate(0 29.859) rotate(-45)" fill="#ec3000"/>
                <circle id="Elipse_937" data-name="Elipse 937" cx="17.639" cy="17.639" r="17.639" transform="matrix(0.316, -0.949, 0.949, 0.316, 7.547, 41.015)" fill="#fff"/>
                <path id="Trazado_28217" data-name="Trazado 28217" d="M1630.209,591.177l-10.355,2.776,10.689.427-4.945,18.508,6.615-11.532,1.6,11.248,3.408-17.227-2.272-6.549Z" transform="translate(-1598.411 -567.361)" fill="#131313" fill-rule="evenodd"/>
                <path id="Trazado_28218" data-name="Trazado 28218" d="M1616.083,625.561l-3.742,2.847,3.742,1.424.735-2.705Z" transform="translate(-1592.704 -595.267)" fill="#131313" fill-rule="evenodd"/>
                <path id="Trazado_28219" data-name="Trazado 28219" d="M1598.109,618.169l-2.405-1.495-.6,3.773,4.811-1.21-.4-1.851Z" transform="translate(-1579.608 -588.516)" fill="#131313" fill-rule="evenodd"/>
                <path id="Trazado_28220" data-name="Trazado 28220" d="M1606.47,645.7l-.8,2.491,2.539,2.563,1.737-2.776Z" transform="translate(-1587.634 -610.571)" fill="#131313" fill-rule="evenodd"/>
                <path id="Trazado_28221" data-name="Trazado 28221" d="M1660.393,571.738a2.844,2.844,0,1,0-3.006-2.84A2.933,2.933,0,0,0,1660.393,571.738Z" transform="translate(-1626.925 -550.064)" fill="#131313" fill-rule="evenodd"/>
                <rect id="Rectángulo_3463" data-name="Rectángulo 3463" width="4.276" height="38.352" transform="translate(14.587 18.346) rotate(-45)" fill="#ec3000"/>
              </g>
              <path id="Trazado_28222" data-name="Trazado 28222" d="M1602.129,543.682l-31.326,25.1c-.939-3.536-1.878-7.072-1.758-10.419a18.993,18.993,0,0,1,2.831-9.028,19.684,19.684,0,0,1,5.657-5.987,20.487,20.487,0,0,1,7.866-3.455,21.957,21.957,0,0,1,9.37.206A25.657,25.657,0,0,1,1602.129,543.682Z" transform="translate(-1559.804 -529.879)" fill="#fff" fill-rule="evenodd" opacity="0.26"/>
            </g>
          </g>
          <path id="Trazado_28223" data-name="Trazado 28223" d="M1411.4,798.891l-19.087,5.137,16.778,1.021Z" transform="translate(-1313.444 -630.274)" fill-rule="evenodd" opacity="0.5"/>
          <g id="Grupo_11543" data-name="Grupo 11543" transform="translate(25.692 160.212)">
            <path id="Trazado_28224" data-name="Trazado 28224" d="M1387.309,810.433c1.818-3.522,3.635-7.043,3.806-11.644a26.592,26.592,0,0,0-3.692-14.029,15.24,15.24,0,0,0-8.633-6.475,26.193,26.193,0,0,0-8.179-.909c-.454-2.84-.909-5.68-3.976-8.065s-8.747-4.317-15.393-5.055-14.257-.284-19.255,1.477a14.291,14.291,0,0,0-8.634,7.441,16.568,16.568,0,0,0-1.477,6.929c-4.885.227-9.77.454-13.461,2.158a16.094,16.094,0,0,0-7.384,7.327,10.107,10.107,0,0,0-.965,5.85,3.3,3.3,0,0,0-2.556-.341,5.3,5.3,0,0,0-2.613,2.386,5.2,5.2,0,0,0-.284,3.067,60.767,60.767,0,0,0-5.509-4.146c-1.874-1.193-3.806-2.1-5.794-.852s-4.033,4.658-6.078,8.065c-6.021-5.794-12.042-11.587-18.971-16.472s-14.768-8.861-23.288-9.883-17.722.909-22.89,4.658-6.3,9.315-7.441,14.881a38.688,38.688,0,0,0-7.725,2.613c-2.5,1.25-4.885,3.067-4.771,4.2s2.726,1.591,5.339,2.045c-9.542,0-19.084,0-23.855,1.477s-4.771,4.43,15.506,5.907,60.832,1.477,101.386,1.477c-1.25,1.363-2.5,2.726-.4,4.26s7.554,3.238,18.346,3.863,26.923.17,42.088,0,29.365-.057,43.565.057c3.635-3.067,7.271-6.134,8.293-8.747s-.568-4.771-3.521-5.282S1391.625,809.3,1387.309,810.433Z" transform="translate(-1171.023 -763.916)" fill="#82643d" fill-rule="evenodd"/>
            <path id="Trazado_28225" data-name="Trazado 28225" d="M1650.417,787.823a16.093,16.093,0,0,0-7.384,7.327,10.11,10.11,0,0,0-.965,5.85,3.3,3.3,0,0,0-2.556-.341,5.3,5.3,0,0,0-2.613,2.386,5.194,5.194,0,0,0-.284,3.067,60.806,60.806,0,0,0-5.51-4.146,9.845,9.845,0,0,0-2.716-1.308,37.213,37.213,0,0,0-3.021,3.083,15.516,15.516,0,0,0-4.156,9.552,13.615,13.615,0,0,0,1.526,6.791h9.786l4.6-3.266c-1.024,1.654-2.048,3.309-1.142,4.628s3.742,2.3,6.7,2.836a39.766,39.766,0,0,0,8.646.493,66.64,66.64,0,0,0,6.953-.749c-2.009-1.064-4.018-2.127-5.062-4.038s-1.123-4.668-1.2-7.426c1.615,3.27,3.23,6.539,7.228,8.627s10.38,2.994,16.288,3.545,11.345.748,18.436.926a225.292,225.292,0,0,0,23.753-.335c7.918-.67,15.008-2.167,18.711-3.7s4.018-3.112,3.545-4.077-1.733-1.32-5.377-.591-9.671,2.541-15.7,4.353c3.073-2.009,6.145-4.018,8.332-7.268a25.087,25.087,0,0,0,3.762-11.5c.276-3.762-.473-6.8-2.757-8.075s-6.106-.808-9.159.709-5.338,4.077-7.622,6.637c3.506-4.373,7.012-8.745,8.252-11.364s.217-3.486-1.654-3.841a18.618,18.618,0,0,0-7.327.473,54.461,54.461,0,0,0-8.253,3.033c2.758-1.969,5.515-3.939,6.2-6.3a5.481,5.481,0,0,0-3.112-6.244c-2.422-1.123-5.889-.611-6.283.729s2.285,3.506,4.964,5.672c-2.994-.669-5.988-1.339-7.78-2.994s-2.383-4.294-1.773-5.534,2.423-1.083,4.235-.926a7.709,7.709,0,0,0-3.329-2.521,17.98,17.98,0,0,0-7.721-.63,54.991,54.991,0,0,0-11.978,2.595c-3.922,1.334-7.236,3.057-8.6,6.582s-.763,8.854-.167,14.182c-1.536-2.8-3.073-5.594-6.441-7.149a17.316,17.316,0,0,0-4.666-1.289A20.694,20.694,0,0,0,1650.417,787.823Z" transform="translate(-1513.024 -769.479)" fill="#98774c" fill-rule="evenodd"/>
            <path id="Trazado_28226" data-name="Trazado 28226" d="M1292.6,833.96c-3.644-3.663-9.2-7.051-14.93-10.478-2.85-1.7-5.743-3.418-7.7-4.7q-.667-.1-1.34-.186a38.706,38.706,0,0,0-18.465,2.259,33.372,33.372,0,0,0-6.183,6.061c-2.265,3.152-2.812,6.436-1.372,7.7s4.867.52,8.294-.229a83.674,83.674,0,0,0-9.749,4.924c-2.344,1.536-3.328,2.915-3.013,3.663s1.93.867,3.545.985c-1.812.63-3.624,1.261-4.609.808s-1.142-1.99-1.871-2.777a2.09,2.09,0,0,0-2.738-.236c-.709.591-.827,1.812.453,2.856s3.959,1.91,6.637,2.777c-6.893.394-13.787.788-18.4,1.5s-6.933,1.733-5.337,2.423,7.11,1.044,11.817.748a68.994,68.994,0,0,0,12.507-2.186c-3.191,1.339-6.382,2.679-3.526,3.27s11.758.433,17.943-.118,9.651-1.5,10.557-4.274-.748-7.386-2.4-11.995c2.8,4.1,5.593,8.194,8.213,10.616s5.062,3.171,6.4,2.127,1.576-3.88,1.891-3.821.709,3.013,1.851,4.865,3.033,2.6,5.653,2.9,5.968.138,8.253-1.26,3.506-4.038,3.25-7.327S1296.241,837.624,1292.6,833.96Z" transform="translate(-1204.676 -805.251)" fill="#98774c" fill-rule="evenodd"/>
          </g>
          <path id="Trazado_28227" data-name="Trazado 28227" d="M1227.857,772.2l3.835,5.683-4.02,2.264-2.587-6.93,2.31-1.016Z" transform="translate(-1186.401 -609.993)" fill="#bc9a9a" fill-rule="evenodd"/>
          <g id="Grupo_11545" data-name="Grupo 11545" transform="translate(64.76 184.379)">
            <g id="Grupo_11544" data-name="Grupo 11544">
              <path id="Trazado_28228" data-name="Trazado 28228" d="M1367,883.7a17.608,17.608,0,0,0,5.664-1.03,10.658,10.658,0,0,0,3.779-3.033,4.669,4.669,0,0,0,1.186-2.229c.069-.546-.1-.952-.717-1.833a13.324,13.324,0,0,0-3.112-3.235,21.084,21.084,0,0,0-4.987-2.266,12.2,12.2,0,0,0-2.485,5.463c-.04.3-.066.618-.081.943-.584.033-1.169.064-1.758.088a15.153,15.153,0,0,0,.6-3.381,37.283,37.283,0,0,0-.3-5.27c-.151,2.069-.3,4.138-.562,5.695a17.792,17.792,0,0,1-.772,2.991c-.593.015-1.191.022-1.8.016.152-.855.3-1.723.4-2.682.431-4.122-.27-3.551-1.29-6.688.162,4.057.381,5.307-.993,9.308q-.639-.036-1.289-.1c.175-1.072.339-2.143.44-3.2a16.861,16.861,0,0,0,.028-3.5,10.357,10.357,0,0,0-.682-2.492,16,16,0,0,1-.125,4.131,34,34,0,0,1-1.453,4.857q-.69-.1-1.394-.228a12.1,12.1,0,0,0,.575-2.891,34.117,34.117,0,0,0-.189-4.62,23.344,23.344,0,0,1-.562,3.758,25.791,25.791,0,0,1-1.258,3.457q-.593-.136-1.192-.294a9.489,9.489,0,0,0,.471-2.2,29.617,29.617,0,0,0-.051-3.757A33.6,33.6,0,0,1,1352.5,873a13.727,13.727,0,0,1-.759,2.17q-.661-.191-1.316-.4a3.952,3.952,0,0,0,.232-1.447,13.11,13.11,0,0,0-.508-2.557,11.348,11.348,0,0,1-.1,2.443,3.789,3.789,0,0,1-.534,1.256q-.659-.23-1.3-.477a5.225,5.225,0,0,0,.183-1.043,17.1,17.1,0,0,0-.032-1.89c-.181.609-.362,1.217-.546,1.7a8.857,8.857,0,0,1-.411.914l-.345-.143c-.722-.3-1.412-.617-2.08-.939-.35-1.471-2.582-7.17-3.34-8.1.625,6.569-3.271,6.5-8.049,7.8a40.325,40.325,0,0,0,6.1,1.053,26.235,26.235,0,0,0,5.265-.339c.545.305,1.151.631,1.8.961a5.891,5.891,0,0,1-.252.718c-.192.464-.514,1.137-.836,1.809a2.643,2.643,0,0,0,.844-.652,18.155,18.155,0,0,0,1.106-1.449c.433.209.882.416,1.342.618a4.1,4.1,0,0,1-.081,1.244,8.829,8.829,0,0,1-.769,1.8,7.663,7.663,0,0,0,1.233-1.311,5.536,5.536,0,0,0,.6-1.322q.631.256,1.29.493a9.449,9.449,0,0,1-.693,1.874,25.638,25.638,0,0,1-1.658,2.633,8.368,8.368,0,0,0,1.976-1.624,15.086,15.086,0,0,0,1.551-2.485q.6.193,1.242.369a12.6,12.6,0,0,1-.445,3.113,17.647,17.647,0,0,1-1.62,3.369,14.916,14.916,0,0,0,2.064-2.7,23.318,23.318,0,0,0,1.445-3.412q.828.193,1.722.36a28.57,28.57,0,0,1-.9,3.555,24.411,24.411,0,0,1-1.608,3.476,18.169,18.169,0,0,0,2.467-3.13,22.141,22.141,0,0,0,1.564-3.644q.707.107,1.448.2a38.693,38.693,0,0,1-.833,4.751,15.209,15.209,0,0,1-1.5,3.5,8.257,8.257,0,0,0,2.3-2.872,32.524,32.524,0,0,0,1.661-5.188q.722.079,1.465.15c-.1,1.224-.209,2.442-.391,3.61-.208,1.337-.51,2.608-.813,3.88a39.827,39.827,0,0,0,1.951-4.407,13.012,13.012,0,0,0,.595-2.959q1.021.09,2.061.174C1366.408,880.139,1366.7,881.917,1367,883.7Z" transform="translate(-1333.599 -864.482)" fill="#fff" fill-rule="evenodd"/>
              <path id="Trazado_28229" data-name="Trazado 28229" d="M1482.819,920a2.839,2.839,0,0,0,.213,2.317,1.714,1.714,0,0,0,1.879.724,5.216,5.216,0,0,0,2.539-1.263c.624-.606.81-1.3.233-1.895a4.73,4.73,0,0,0-2.917-1.1A1.922,1.922,0,0,0,1482.819,920Z" transform="translate(-1446.844 -905.737)" fill="#131313" fill-rule="evenodd"/>
              <path id="Trazado_28230" data-name="Trazado 28230" d="M1492.451,904.619a2.914,2.914,0,0,0,2.2,1.337.9.9,0,0,0,1.034-1.126,4.316,4.316,0,0,0-1.172-2.151.941.941,0,0,0-1.451-.1A1.948,1.948,0,0,0,1492.451,904.619Z" transform="translate(-1454.196 -893.197)" fill="#131313" fill-rule="evenodd"/>
            </g>
            <path id="Trazado_28231" data-name="Trazado 28231" d="M1478.263,927.667a11.257,11.257,0,0,0,3.866,1.81,6.553,6.553,0,0,0,4.123-.627,7.916,7.916,0,0,0,2.551-2.581c-.454-.311-.908-.621-1.476-1.052s-1.249-.98-1.93-1.53c.538.741,1.075,1.482,1.416,1.989s.484.783.376,1.135a2.117,2.117,0,0,1-1.225,1.141,7.469,7.469,0,0,1-2.749.651,2.873,2.873,0,0,1-1.781-.574,14.619,14.619,0,0,1-1.237-.974Z" transform="translate(-1443.5 -909.461)" fill="#fff" fill-rule="evenodd"/>
          </g>
          <path id="Trazado_28232" data-name="Trazado 28232" d="M1852.574,866.837l10.9,17.223,23.79-9.541-8.55-12.886Z" transform="translate(-1663.104 -677.939)" fill="#e4c04b" fill-rule="evenodd"/>
          <path id="Trazado_28233" data-name="Trazado 28233" d="M1819.751,890.173l-5.178-.514-3.9,5.318,3.191,8.863,18.03,7.087Z" transform="translate(-1631.272 -699.23)" fill-rule="evenodd" opacity="0.5"/>
          <path id="Trazado_28234" data-name="Trazado 28234" d="M1838.08,883.29l-1.983,4.089,2.107,3.965-2.6-1.487,1.487,3.965-3.593-.743q.062,2.416.124,4.832l15.613,8.178q-.124-2.788-.248-5.576Z" transform="translate(-1648.61 -694.392)" fill="#c7943f" fill-rule="evenodd"/>
          <path id="Trazado_28235" data-name="Trazado 28235" d="M1986.547,914.735l3.27-8.537-3.662,2.178-3.416,5.76,3.258,1.988Z" transform="translate(-1761.99 -711.795)" fill-rule="evenodd" opacity="0.5"/>
          <path id="Trazado_28236" data-name="Trazado 28236" d="M1898.2,930.376l21.808-6.319.744-2.974-2.974.248,3.717-2.107q.124-1.982.248-3.965l-23.79,9.541Q1898.075,927.588,1898.2,930.376Z" transform="translate(-1697.577 -718.679)" fill="#af8030" fill-rule="evenodd"/>
          <path id="Trazado_28237" data-name="Trazado 28237" d="M1924.969,842.438l-7.97-5.319-2.067-.752-1.479,3Z" transform="translate(-1709.354 -658.745)" fill-rule="evenodd" opacity="0.5"/>
          <path id="Trazado_28238" data-name="Trazado 28238" d="M1857.174,836.562l-10.037-4.213v-3.717l-22.923,6.319,1.611,3.47,5.2,3.345Z" transform="translate(-1641.558 -652.868)" fill="#af8030" fill-rule="evenodd"/>
          <path id="Trazado_28239" data-name="Trazado 28239" d="M1847.137,832.349l-21.312,6.072-1.611-3.47,22.923-6.319Z" transform="translate(-1641.558 -652.868)" fill="#e4c04b" fill-rule="evenodd"/>
          <path id="Trazado_28240" data-name="Trazado 28240" d="M1961.374,851.84l3.717-3.1L1974.508,862l-4.585,2.726Z" transform="translate(-1745.759 -668.146)" fill="#c7943f" fill-rule="evenodd"/>
          <path id="Trazado_28241" data-name="Trazado 28241" d="M1976.843,839.732v-2.85l11.4,13.878-1.983,2.231Z" transform="translate(-1757.511 -659.136)" fill="#e4c04b" fill-rule="evenodd"/>
          <path id="Trazado_28242" data-name="Trazado 28242" d="M1714.574,980.735l-10.7-4.9.021-6.723,6.5-2.245,13.354,6.027,14.62,5.858-17.516-1.66Z" transform="translate(-1550.133 -757.886)" fill-rule="evenodd" opacity="0.5"/>
          <path id="Trazado_28243" data-name="Trazado 28243" d="M1757.856,958.573l-12.019,4.956,9.293,9.789,13.01-6.939Z" transform="translate(-1582.016 -751.584)" fill="#e4c04b" fill-rule="evenodd"/>
          <path id="Trazado_28244" data-name="Trazado 28244" d="M1725.467,975.673l-6.443-1.115,8.8,10.037,6.939.867Z" transform="translate(-1561.646 -763.728)" fill="#c7943f" fill-rule="evenodd"/>
          <path id="Trazado_28245" data-name="Trazado 28245" d="M1713.54,974.558l-1.735,2.478,8.8,9.541,1.734-1.982Z" transform="translate(-1556.162 -763.728)" fill="#e4c04b" fill-rule="evenodd"/>
          <path id="Trazado_28246" data-name="Trazado 28246" d="M1812.179,991.059l2.106,6.071-10.48-1.606Z" transform="translate(-1626.054 -776.264)" fill="#c7943f" fill-rule="evenodd"/>
          <path id="Trazado_28247" data-name="Trazado 28247" d="M1844.088,1006.728l2.352-1.719-3.406-1.317Z" transform="translate(-1655.857 -785.861)" fill="#e4c04b" fill-rule="evenodd"/>
          <g id="Grupo_11546" data-name="Grupo 11546" transform="translate(167.901 195.804)">
            <path id="Trazado_28248" data-name="Trazado 28248" d="M1763.5,919.163l.483,1.78,2.034.794,1.3-1.133.984,2.13,3.025-1.169q.005-.317.01-.633l3.155-1.867.5-5.137-2.154,4.633,1.63-4.724-1.429-.692-.472,1.337q-.005-.621-.011-1.242l-1.078-.294Z" transform="translate(-1763.334 -912.725)" fill="#ec3000" fill-rule="evenodd"/>
            <path id="Trazado_28249" data-name="Trazado 28249" d="M1765.885,913.874c2.247-1.673,4.59-2.329,5.233-1.466s-.659,2.919-2.906,4.592-4.591,2.329-5.233,1.466S1763.638,915.547,1765.885,913.874Z" transform="translate(-1762.815 -912.028)" fill="#ffeae3" fill-rule="evenodd"/>
            <path id="Trazado_28250" data-name="Trazado 28250" d="M1767,915.565c2.025-1.508,4.075-2.182,4.577-1.507s-.732,2.444-2.758,3.952-4.075,2.182-4.577,1.507S1764.971,917.072,1767,915.565Z" transform="translate(-1763.812 -913.371)" fill="#e2c1b9" fill-rule="evenodd"/>
            <path id="Trazado_28251" data-name="Trazado 28251" d="M1784.694,913.927l-2.154,4.633,1.63-4.724-1.429-.692-.472,1.337-.011-1.242-1.078-.294a.79.79,0,0,1,.16.16c.642.863-.659,2.919-2.906,4.592a11.9,11.9,0,0,1-2.161,1.292l0,.679,2.2-1.207.3,2.208.83-2.277.276,1.5,1.765-2.54.18,1.5,2.38.078Z" transform="translate(-1773.037 -912.725)" fill="#ff591f" fill-rule="evenodd"/>
            <path id="Trazado_28252" data-name="Trazado 28252" d="M1786.453,913.961c-.407-.327-1.363-.156-2.507.392a5.8,5.8,0,0,1,.235,1.3c0,.026,0,.053,0,.08a8.505,8.505,0,0,1-.324,2.134l-.025.112c2-1.5,3.209-3.247,2.711-3.917A.527.527,0,0,0,1786.453,913.961Z" transform="translate(-1778.784 -913.371)" fill="#997c74" fill-rule="evenodd"/>
          </g>
          <path id="Trazado_28253" data-name="Trazado 28253" d="M1972.731,950.455l-7.91.067-5.165-5.795,5-4.2,5.545,2.906Z" transform="translate(-1744.454 -737.874)" fill-rule="evenodd" opacity="0.5"/>
          <g id="Grupo_11547" data-name="Grupo 11547" transform="translate(221.582 202.572)">
            <path id="Trazado_28254" data-name="Trazado 28254" d="M1997.7,947.329l-.484,1.78-2.034.794-1.3-1.133-.984,2.13-3.025-1.169q0-.316-.01-.633l-3.155-1.867q-.252-2.569-.5-5.137l2.154,4.633-1.63-4.724,1.429-.692.472,1.337.011-1.242,1.078-.294Z" transform="translate(-1986.206 -940.891)" fill="gray" fill-rule="evenodd"/>
            <path id="Trazado_28255" data-name="Trazado 28255" d="M2004.876,942.04c-2.248-1.673-4.59-2.329-5.233-1.466s.659,2.919,2.906,4.592,4.59,2.329,5.233,1.466S2007.124,943.713,2004.876,942.04Z" transform="translate(-1996.29 -940.193)" fill="#ffeae3" fill-rule="evenodd"/>
            <path id="Trazado_28256" data-name="Trazado 28256" d="M2006.637,943.731c-2.025-1.508-4.075-2.182-4.577-1.507s.732,2.444,2.758,3.952,4.075,2.182,4.577,1.507S2008.662,945.238,2006.637,943.731Z" transform="translate(-1998.165 -941.537)" fill="#e2c1b9" fill-rule="evenodd"/>
            <path id="Trazado_28257" data-name="Trazado 28257" d="M1986.206,942.093l2.036,2.684L1986.731,942l1.429-.692.471,1.337.011-1.242,1.078-.294a.786.786,0,0,0-.16.159c-.642.863.659,2.919,2.906,4.592a11.882,11.882,0,0,0,2.161,1.292l0,.679-2.2-1.207-.3,2.208-.83-2.277-.276,1.5-1.765-2.54-.18,1.5-2.38.078Z" transform="translate(-1986.206 -940.891)" fill="#b3b3b3" fill-rule="evenodd"/>
            <path id="Trazado_28258" data-name="Trazado 28258" d="M2002.153,942.126c.406-.326,1.363-.156,2.507.392a5.8,5.8,0,0,0-.235,1.3c0,.026,0,.053,0,.08a8.5,8.5,0,0,0,.324,2.134l.025.112c-2-1.5-3.209-3.247-2.711-3.917A.531.531,0,0,1,2002.153,942.126Z" transform="translate(-1998.165 -941.536)" fill="#997c74" fill-rule="evenodd"/>
          </g>
          <path id="Trazado_28259" data-name="Trazado 28259" d="M1270.536,912.489l-3.033,3.141,2.482.414a2.8,2.8,0,0,1,2.535-.984,35.641,35.641,0,0,1,6.278,1.473l3.814-3.478Z" transform="translate(-1218.627 -716.574)" fill-rule="evenodd" opacity="0.5"/>
          <g id="Grupo_11548" data-name="Grupo 11548" transform="translate(51.111 191.153)">
            <path id="Trazado_28260" data-name="Trazado 28260" d="M1277.632,899.009l-.833,1.646.979,1.952,1.722.026-.695,2.24,3.03,1.157.431-.463,3.594.725,3.814-3.478-4.7,2,4.373-2.418-.6-1.47-1.245.677.824-.93-.6-.94Z" transform="translate(-1276.799 -897.486)" fill="#439999" fill-rule="evenodd"/>
            <path id="Trazado_28261" data-name="Trazado 28261" d="M1285.488,892.731c2.789.262,4.969,1.343,4.868,2.415s-2.443,1.727-5.233,1.465-4.969-1.343-4.868-2.414S1282.7,892.468,1285.488,892.731Z" transform="translate(-1279.422 -892.673)" fill="#ffeae3" fill-rule="evenodd"/>
            <path id="Trazado_28262" data-name="Trazado 28262" d="M1286.581,894.118c2.514.236,4.488,1.107,4.409,1.945s-2.18,1.326-4.694,1.089-4.488-1.107-4.409-1.945S1284.067,893.882,1286.581,894.118Z" transform="translate(-1280.662 -893.725)" fill="#e2c1b9" fill-rule="evenodd"/>
            <path id="Trazado_28263" data-name="Trazado 28263" d="M1298.446,905.1l-.329-.418-.6-1.47-1.245.677.824-.93-.6-.94a.772.772,0,0,1,.012.226c-.1,1.071-2.444,1.727-5.233,1.465a11.87,11.87,0,0,1-2.47-.487l-.456.5,2.445.579-1.258,1.839,2.141-1.136-.8,1.3,3.011-.705-.872,1.236,1.716,1.652Z" transform="translate(-1285.571 -899.775)" fill="#7fcccc" fill-rule="evenodd"/>
            <path id="Trazado_28264" data-name="Trazado 28264" d="M1305.114,897.456c-.083-.515-.907-1.028-2.125-1.387a5.8,5.8,0,0,1-.693,1.12l-.051.061a8.487,8.487,0,0,1-1.669,1.368l-.093.066c2.488.223,4.558-.263,4.636-1.095A.528.528,0,0,0,1305.114,897.456Z" transform="translate(-1294.791 -895.253)" fill="#997c74" fill-rule="evenodd"/>
          </g>
          <path id="Trazado_28265" data-name="Trazado 28265" d="M1533.059,939.259l5.345,3.68q-.207,2.394-.414,4.789l-21.154-.039,2.655-7.191Z" transform="translate(-1408.044 -736.911)" fill-rule="evenodd" opacity="0.5"/>
          <g id="Grupo_11549" data-name="Grupo 11549" transform="translate(111.206 197.533)">
            <path id="Trazado_28266" data-name="Trazado 28266" d="M1537.908,924.342l1.032-3.77-5.458-.877-.635,1.813-2.722-2.283-2.02,2.681q.12.862.24,1.722l-1.462.936,1.367,4.05,7.192,2.071,1.78-2.088,3.84,2.686,1.4-3.226-1.774-4.018-1.984-.211Z" transform="translate(-1526.882 -919.224)" fill="#b9aca3" fill-rule="evenodd"/>
            <path id="Trazado_28267" data-name="Trazado 28267" d="M1542.805,923.045l-3.518-.565-1.552.19-.156,5.5-.469-3.835-1.691,3.208-1.2-4.228-.277-.654-1.974,1.714,2.438,1.281-2.318-.42,1.093,3.57,1.513-.817-1.392,2.59.918,1.111,3.22.927,2.215-2.277,1.4-.419-.236-4.775,1.245,4.839,1.578-2.318-1.624,3.284.987,1.458,3.307-1.92-1.758-3.98-1.984-.211-.8.514Z" transform="translate(-1530.748 -921.698)" fill="#fff" fill-rule="evenodd"/>
          </g>
          <path id="Trazado_28268" data-name="Trazado 28268" d="M1907.163,966.684l-9.937.25,2.838-4.366q.058-1.244.116-2.488l4.608-1.525Z" transform="translate(-1697.026 -751.57)" fill-rule="evenodd" opacity="0.5"/>
          <g id="Grupo_11550" data-name="Grupo 11550" transform="translate(204.612 204.427)">
            <path id="Trazado_28269" data-name="Trazado 28269" d="M1921.2,951.795q.229-1.941.457-3.882l5.389,1.233q-.046.959-.091,1.918l3.379-1.1.868,3.242-.868,1.507,1,1.416-2.786,3.242-7.444-.776-.868-2.6-4.567,1.051-.092-3.517,3.151-3.06,1.918.548Z" transform="translate(-1915.584 -947.913)" fill="#7d8c95" fill-rule="evenodd"/>
            <path id="Trazado_28270" data-name="Trazado 28270" d="M1921.751,947.913l3.473.795,1.368.758-1.918,5.161,1.872-3.38.365,3.608,2.694-3.471.5-.5,1.187,2.329-2.74.274,2.306.48-2.352,2.9-1.1-1.324.32,2.923-1.267.686-3.333-.348-1.2-2.942-1.142-.914,2.009-4.338-2.968,4.019-.594-2.74.274,3.654-1.461.982-2.345-3.02,3.122-3.031,1.918.548.548.776Z" transform="translate(-1915.677 -947.913)" fill="#fff" fill-rule="evenodd"/>
          </g>
          <g id="Grupo_11551" data-name="Grupo 11551" transform="translate(100.872 212.312)">
            <path id="Trazado_28271" data-name="Trazado 28271" d="M1528.183,986.621c-1.179-1.4-2.358-2.8-3-3.525s-.747-.764-.878-.708-.288.209-.681.75-1.022,1.469-4.2,1.913a71.168,71.168,0,0,1-12.628.108c-3.707-.3-5.384-.856-6.694-1.66s-2.253-1.854-3.117-2.39-1.651-.557-3.2.211-3.851,2.325-4.873,2.691-.76-.459-1.153-.354a12.706,12.706,0,0,0-2.489,2.175,4.053,4.053,0,0,0-.459-1.411c-.2-.222-.458-.072-.655.317a2.662,2.662,0,0,0-.262,1.391c.065.376.327.5.589.627Z" transform="translate(-1483.876 -980.723)" fill="#82643d" fill-rule="evenodd"/>
            <path id="Trazado_28272" data-name="Trazado 28272" d="M1530.924,985.624a5.347,5.347,0,0,0-2.994.177c-1.26.4-2.875,1.25-2.265,2.028s3.447,1.487,6.1,1.724a24.968,24.968,0,0,0,6.193-.208c1.081-.208.782-.387,1.127-.338a23.623,23.623,0,0,0,3.1.466c1.765.139,4.306.139,6.1.09a13.361,13.361,0,0,0,3.418-.35c.582-.2.7-.509-.036-.657a35.358,35.358,0,0,0-5.017-.108c-2.682.028-6.447.074-10.212.119a1.451,1.451,0,0,0,.019-.98c-.146-.259-.52-.416-1.094-.358a10.563,10.563,0,0,0-2.12.61,1.67,1.67,0,0,0-.362-1.3A4.075,4.075,0,0,0,1530.924,985.624Z" transform="translate(-1515.522 -984.343)" fill="#98774c" fill-rule="evenodd"/>
          </g>
          <path id="Trazado_28273" data-name="Trazado 28273" d="M1309.079,921.688q-.368,2.156-.736,4.311l-6.948,2.6-18.48,5.145,23.48-13.286Z" transform="translate(-1230.335 -722.63)" fill-rule="evenodd" opacity="0.5"/>
          <g id="Grupo_11552" data-name="Grupo 11552" transform="translate(51.222 202.489)">
            <path id="Trazado_28274" data-name="Trazado 28274" d="M1301.762,939.849l-23.517,6.441,2.54,2.186c2.738-.744,5.476-1.487,9.3-2.64s8.725-2.713,13.629-4.274Z" transform="translate(-1278.008 -939.849)" fill="#c7943f" fill-rule="evenodd"/>
            <path id="Trazado_28275" data-name="Trazado 28275" d="M1277.5,966.651q-.119.473-.237.945l2.718,2.482q.03-.62.059-1.241Z" transform="translate(-1277.261 -960.21)" fill="#e4c04b" fill-rule="evenodd"/>
            <path id="Trazado_28276" data-name="Trazado 28276" d="M1288.572,955.133l22.63-7.386.354-.768-22.926,6.914Q1288.6,954.513,1288.572,955.133Z" transform="translate(-1285.854 -945.266)" fill="#af8030" fill-rule="evenodd"/>
          </g>
          <g id="Grupo_11553" data-name="Grupo 11553" transform="translate(59.741 197.83)">
            <path id="Trazado_28277" data-name="Trazado 28277" d="M1329.036,920.459l-16.32,18.116,3.319.469c1.9-2.1,3.807-4.208,6.4-7.241s5.88-6.993,9.166-10.955Z" transform="translate(-1312.716 -920.459)" fill="#c7943f" fill-rule="evenodd"/>
            <path id="Trazado_28278" data-name="Trazado 28278" d="M1312.716,995.849l.311.923,3.628.622-.62-1.076Z" transform="translate(-1312.716 -977.733)" fill="#e4c04b" fill-rule="evenodd"/>
            <path id="Trazado_28279" data-name="Trazado 28279" d="M1327.148,941.354l15.063-18.434-.116-.838-15.567,18.2Z" transform="translate(-1323.209 -921.692)" fill="#af8030" fill-rule="evenodd"/>
          </g>
          <path id="Trazado_28280" data-name="Trazado 28280" d="M1734.116,887.185,1715.76,885.5l1.2-3.026Z" transform="translate(-1559.166 -693.775)" fill-rule="evenodd" opacity="0.5"/>
          <g id="Grupo_11554" data-name="Grupo 11554" transform="translate(157.664 187.754)">
            <path id="Trazado_28281" data-name="Trazado 28281" d="M1720.466,878.529l18.939,2.5-.356,2.43c-2.2-.286-4.4-.572-7.542-1.078s-7.216-1.232-11.293-1.958Q1720.339,879.478,1720.466,878.529Z" transform="translate(-1720.213 -878.529)" fill="#c7943f" fill-rule="evenodd"/>
            <path id="Trazado_28282" data-name="Trazado 28282" d="M1798.952,888.951l.707.85-.3,2.733-.766-1.153Z" transform="translate(-1779.76 -886.446)" fill="#e4c04b" fill-rule="evenodd"/>
            <path id="Trazado_28283" data-name="Trazado 28283" d="M1739.814,890.617l-18.922-3.523-.679-.666,18.836,3.036Z" transform="translate(-1720.213 -884.529)" fill="#af8030" fill-rule="evenodd"/>
          </g>
          <path id="Trazado_28284" data-name="Trazado 28284" d="M1728.437,859.444l-13.461-3.5,2.379-3.007Z" transform="translate(-1558.571 -671.333)" fill-rule="evenodd" opacity="0.5"/>
          <g id="Grupo_11555" data-name="Grupo 11555" transform="translate(157.606 178.753)">
            <path id="Trazado_28285" data-name="Trazado 28285" d="M1723.022,841.073l16.32,6.4-3.319,2.851c-1.9-.738-3.807-1.476-6.4-2.647s-5.88-2.773-9.166-4.376Z" transform="translate(-1720.34 -841.073)" fill="#c7943f" fill-rule="evenodd"/>
            <path id="Trazado_28286" data-name="Trazado 28286" d="M1786.6,867.723l-.311,1.147-3.628,3.225.62-1.521Z" transform="translate(-1767.594 -861.319)" fill="#e4c04b" fill-rule="evenodd"/>
            <path id="Trazado_28287" data-name="Trazado 28287" d="M1735.036,858.9l-15.063-7.623.116-.921,15.567,7.023Z" transform="translate(-1719.973 -848.128)" fill="#af8030" fill-rule="evenodd"/>
          </g>
          <path id="Trazado_28288" data-name="Trazado 28288" d="M1390.951,867.734c.429-.224,1.217-.677,2-1.13l-.325-1.448-1.418-.591-2.984-.354.5,3.25,1.649.487C1390.451,867.953,1390.522,867.958,1390.951,867.734Z" transform="translate(-1310.342 -679.898)" fill="#624722" fill-rule="evenodd"/>
          <path id="Trazado_28289" data-name="Trazado 28289" d="M1386.24,863.993l-1.6-2.363-1.359,1.418-1.477.118-.709,2.541,4.077.3Z" transform="translate(-1304.925 -677.937)" fill="#ef9780" fill-rule="evenodd"/>
          <path id="Trazado_28290" data-name="Trazado 28290" d="M1670.776,922.413c.429-.224,1.217-.677,2-1.13l-.325-1.448-1.418-.591-2.984-.354q.251,1.625.5,3.25l1.649.487C1670.276,922.632,1670.347,922.637,1670.776,922.413Z" transform="translate(-1522.924 -721.437)" fill="#624722" fill-rule="evenodd"/>
          <path id="Trazado_28291" data-name="Trazado 28291" d="M1666.063,918.672l-1.6-2.363-3.279.924.687,1.448-.953,1.705,4.077.3Z" transform="translate(-1517.507 -719.476)" fill="#aacf92" fill-rule="evenodd"/>
          <path id="Trazado_28292" data-name="Trazado 28292" d="M2031.03,936.886c.4.268,1.181.739,1.958,1.21l1.111-.983q-.083-.764-.167-1.527l-1.13-2.784-2.6,2.009q.185.84.37,1.679C2030.6,936.553,2030.627,936.618,2031.03,936.886Z" transform="translate(-1798.044 -732.005)" fill="#624722" fill-rule="evenodd"/>
          <path id="Trazado_28293" data-name="Trazado 28293" d="M2028.974,935.26l1.3-2.538-1.9-.506-.816-1.237-2.568.606,1.71,3.713Z" transform="translate(-1794.089 -730.622)" fill="#ef9780" fill-rule="evenodd"/>
          <path id="Trazado_28294" data-name="Trazado 28294" d="M1690.646,942.889c.4.268,1.181.739,1.958,1.21l1.111-.983q-.084-.764-.167-1.527l-1.13-2.784-2.6,2.009.37,1.679C1690.213,942.557,1690.243,942.621,1690.646,942.889Z" transform="translate(-1539.455 -736.566)" fill="#624722" fill-rule="evenodd"/>
          <path id="Trazado_28295" data-name="Trazado 28295" d="M1688.59,941.264l1.3-2.538-1.9-.506-.817-1.237-2.567.606,1.71,3.713Z" transform="translate(-1535.5 -735.183)" fill="#ef9780" fill-rule="evenodd"/>
          <path id="Trazado_28296" data-name="Trazado 28296" d="M1706.679,908.782c-1.546.4-4.048,1.29-4.944,2.344s-.187,2.275.965,2.817a4.9,4.9,0,0,0,4.038-.227,5.717,5.717,0,0,0,2.669-2.7,1.962,1.962,0,0,0-.2-2.137C1708.816,908.457,1708.225,908.378,1706.679,908.782Z" transform="translate(-1548.204 -713.557)" fill="#be945e" fill-rule="evenodd"/>
          <path id="Trazado_28297" data-name="Trazado 28297" d="M1725.771,932.03c-.561-.108-1.31.4-1.94,1.182s-1.142,1.822-.709,2.206,1.812.108,2.63-.305a1.543,1.543,0,0,0,1.014-1.605C1726.707,932.868,1726.332,932.139,1725.771,932.03Z" transform="translate(-1564.637 -731.409)" fill="#be945e" fill-rule="evenodd"/>
          <path id="Trazado_28298" data-name="Trazado 28298" d="M1710.232,934.369c-.355-.079-.728.317-1.086.789s-.7,1.023-.5,1.407a1.292,1.292,0,0,0,1.457.406,1.45,1.45,0,0,0,.83-1.389A1.272,1.272,0,0,0,1710.232,934.369Z" transform="translate(-1553.717 -733.189)" fill="#be945e" fill-rule="evenodd"/>
          <path id="Trazado_28299" data-name="Trazado 28299" d="M1740.646,919.536a2.406,2.406,0,0,0-1.674.207c-.748.3-1.674.827-1.753,1.388s.689,1.152,1.428,1.428a1.786,1.786,0,0,0,1.881-.177,2.669,2.669,0,0,0,.6-1.772C1741.138,920.038,1741,919.683,1740.646,919.536Z" transform="translate(-1575.464 -721.869)" fill="#be945e" fill-rule="evenodd"/>
          <path id="Trazado_28300" data-name="Trazado 28300" d="M1429.5,854.874a8.171,8.171,0,0,0-4.2.059c-1.123.433-1.517,1.379-.965,2.009s2.048.945,3.388,1.162a6.112,6.112,0,0,0,3.191,0,1.422,1.422,0,0,0,.611-1.773C1431.313,855.682,1430.722,855.169,1429.5,854.874Z" transform="translate(-1337.588 -672.619)" fill="#be945e" fill-rule="evenodd"/>
          <path id="Trazado_28301" data-name="Trazado 28301" d="M1356.376,834.909c-2.663.646-7.512,2.522-8.918,4.014s.633,2.6,3.2,2.564a14.321,14.321,0,0,0,7.294-2.4c1.643-1.2,1.844-2.423,1.706-3.33S1359.039,834.264,1356.376,834.909Z" transform="translate(-1279.019 -657.43)" fill="#be945e" fill-rule="evenodd"/>
          <path id="Trazado_28302" data-name="Trazado 28302" d="M1366.9,827.558a2.5,2.5,0,0,0-2.319-.368,3.048,3.048,0,0,0-1.726,1.591c-.234.55-.064.885.647.937a5.652,5.652,0,0,0,2.735-.625C1367.009,828.649,1367.3,827.992,1366.9,827.558Z" transform="translate(-1290.992 -651.678)" fill="#be945e" fill-rule="evenodd"/>
          <path id="Trazado_28303" data-name="Trazado 28303" d="M1412.158,831.48a9.987,9.987,0,0,0-5.215-.678c-1.611.268-2.469,1.118-1.9,1.946s2.572,1.631,4.241,1.836a4.311,4.311,0,0,0,3.62-.859C1413.517,833.055,1413.4,832.11,1412.158,831.48Z" transform="translate(-1322.982 -654.444)" fill="#be945e" fill-rule="evenodd"/>
          <path id="Trazado_28304" data-name="Trazado 28304" d="M1404.5,850.493a3.275,3.275,0,0,0-2.186-1.418c-.729-.059-1.044.532-.867,1.162a3.781,3.781,0,0,0,1.32,1.654c.473.355.748.394,1.142.118A1.256,1.256,0,0,0,1404.5,850.493Z" transform="translate(-1320.345 -668.396)" fill="#be945e" fill-rule="evenodd"/>
          <path id="Trazado_28305" data-name="Trazado 28305" d="M1832.6,786.954a12.715,12.715,0,0,0-6.766,1.27,5.414,5.414,0,0,0-3.24,4.048,3.3,3.3,0,0,0,2.787,3.762,12.773,12.773,0,0,0,8.213-1.182,4.423,4.423,0,0,0,1.969-4.875A3.333,3.333,0,0,0,1832.6,786.954Z" transform="translate(-1640.302 -621.145)" fill="#be945e" fill-rule="evenodd"/>
          <path id="Trazado_28306" data-name="Trazado 28306" d="M1878.395,779.058a2.5,2.5,0,0,0-1.891.3,1.352,1.352,0,0,0-.276,1.585,2.223,2.223,0,0,0,1.812,1.31,3.76,3.76,0,0,0,2.659-.768c.512-.5.315-1.133-.2-1.586A4.2,4.2,0,0,0,1878.395,779.058Z" transform="translate(-1680.971 -615.17)" fill="#be945e" fill-rule="evenodd"/>
          <path id="Trazado_28307" data-name="Trazado 28307" d="M1882.722,799.918a4.833,4.833,0,0,0-2.2.985,1.132,1.132,0,0,0-.355,1.379.927.927,0,0,0,1.044.492,3.065,3.065,0,0,0,1.605-.837,2.17,2.17,0,0,0,.621-1.379C1883.46,800.145,1883.323,799.849,1882.722,799.918Z" transform="translate(-1683.989 -631.047)" fill="#be945e" fill-rule="evenodd"/>
          <path id="Trazado_28308" data-name="Trazado 28308" d="M1824.83,828.137a3.287,3.287,0,0,0-2.61,1.379,1.141,1.141,0,0,0,.522,1.842,5.607,5.607,0,0,0,3.417.138c.955-.315,1.271-1,.955-1.753A2.831,2.831,0,0,0,1824.83,828.137Z" transform="translate(-1639.835 -652.491)" fill="#be945e" fill-rule="evenodd"/>
          <path id="Trazado_28309" data-name="Trazado 28309" d="M2044.988,881.686a7.6,7.6,0,0,0-1.773-5.791,2.373,2.373,0,0,0-3.88.788c-.788,1.615-.551,4.491.1,6.2s1.714,2.265,2.876,2.009A3.631,3.631,0,0,0,2044.988,881.686Z" transform="translate(-1804.608 -688.243)" fill="#be945e" fill-rule="evenodd"/>
          <path id="Trazado_28310" data-name="Trazado 28310" d="M2056.573,919.2a5.77,5.77,0,0,0,.374-2.935c-.237-.552-.985-.315-1.714.138a3.751,3.751,0,0,0-1.674,1.911,2.857,2.857,0,0,0,.394,2.285c.394.591.945.867,1.418.63A3.466,3.466,0,0,0,2056.573,919.2Z" transform="translate(-1815.72 -719.202)" fill="#be945e" fill-rule="evenodd"/>
          <path id="Trazado_28311" data-name="Trazado 28311" d="M1495.5,863.315c.977-1.054.334-2.368-.723-3.514s-2.531-2.127-3.666-1.994-1.935,1.378-2.175,2.922.078,3.388,1.535,3.912A5.779,5.779,0,0,0,1495.5,863.315Z" transform="translate(-1386.791 -675.023)" fill="#be945e" fill-rule="evenodd"/>
          <path id="Trazado_28312" data-name="Trazado 28312" d="M1519.585,890.75c.146-1.094-1.111-3.029-2.26-4.038s-2.188-1.095-2.334,0a6.21,6.21,0,0,0,1.749,4.378C1517.888,892.1,1519.439,891.844,1519.585,890.75Z" transform="translate(-1406.629 -696.391)" fill="#be945e" fill-rule="evenodd"/>
          <path id="Trazado_28313" data-name="Trazado 28313" d="M1830.841,957.777a4.413,4.413,0,0,0-3.928-2.161c-1.576.042-3.081.988-3.4,2.013s.547,2.128,2,2.994,3.506,1.5,4.648.9S1831.546,959.117,1830.841,957.777Z" transform="translate(-1640.976 -749.337)" fill="#be945e" fill-rule="evenodd"/>
          <path id="Trazado_28314" data-name="Trazado 28314" d="M1873.212,974.774c-.446-.74-1.793-1.012-2.928-1.226s-2.057-.371-2.191.341A4.451,4.451,0,0,0,1869.52,977a2.271,2.271,0,0,0,2.874.3A2.118,2.118,0,0,0,1873.212,974.774Z" transform="translate(-1674.88 -762.824)" fill="#be945e" fill-rule="evenodd"/>
          <path id="Trazado_28315" data-name="Trazado 28315" d="M1760.049,922.6l-7.406-3.448a35.578,35.578,0,0,1,1.969-3.9,5.274,5.274,0,0,1,1.792-1.832,6.811,6.811,0,0,1,1.674-.65Z" transform="translate(-1587.186 -716.79)" fill-rule="evenodd" opacity="0.5"/>
          <path id="Trazado_28316" data-name="Trazado 28316" d="M1355.677,960.677l1.9,2.958-4.253-.083Z" transform="translate(-1283.827 -753.183)" fill-rule="evenodd" opacity="0.5"/>
        </g>
      </g>
    </g>
  </g>
</svg>
