<svg xmlns="http://www.w3.org/2000/svg" xmlns:xlink="http://www.w3.org/1999/xlink" width="331.889" height="277" viewBox="0 0 331.889 277">
  <defs>
    <linearGradient id="linear-gradient" x1="-0.057" y1="0.5" x2="1.032" y2="0.5" gradientUnits="objectBoundingBox">
      <stop offset="0" stop-color="#3f4243"/>
      <stop offset="1" stop-color="#191e20"/>
    </linearGradient>
    <linearGradient id="linear-gradient-2" x1="0.12" y1="-0.093" x2="0.825" y2="0.746" gradientUnits="objectBoundingBox">
      <stop offset="0" stop-color="#5a5d5e"/>
      <stop offset="1" stop-color="#363b3c"/>
    </linearGradient>
    <linearGradient id="linear-gradient-3" x1="0.022" y1="-0.275" x2="0.863" y2="1.013" xlink:href="#linear-gradient-2"/>
    <linearGradient id="linear-gradient-4" y1="0.5" x2="1" y2="0.5" gradientUnits="objectBoundingBox">
      <stop offset="0" stop-color="#768188"/>
      <stop offset="1" stop-color="#49555a"/>
    </linearGradient>
    <linearGradient id="linear-gradient-5" x1="0.796" y1="-0.09" x2="0.225" y2="1.13" gradientUnits="objectBoundingBox">
      <stop offset="0" stop-color="#fff"/>
      <stop offset="1" stop-color="#55565e"/>
    </linearGradient>
    <linearGradient id="linear-gradient-6" x1="0.097" y1="-0.205" x2="0.817" y2="0.976" xlink:href="#linear-gradient-2"/>
    <linearGradient id="linear-gradient-7" x1="0.097" y1="-0.205" x2="0.817" y2="0.976" xlink:href="#linear-gradient-2"/>
    <linearGradient id="linear-gradient-8" x1="0.07" y1="-0.098" x2="0.884" y2="0.922" xlink:href="#linear-gradient-2"/>
    <linearGradient id="linear-gradient-9" x1="0.056" y1="0.185" x2="0.769" y2="0.87" xlink:href="#linear-gradient-2"/>
  </defs>
  <g id="Grupo_11560" data-name="Grupo 11560" transform="translate(-1105 -12592)">
    <circle id="Elipse_940" data-name="Elipse 940" cx="131.5" cy="131.5" r="131.5" transform="translate(1105 12606)" fill="#fae7b7"/>
    <g id="Grupo_11495" data-name="Grupo 11495" transform="translate(-1148.523 11497.56)">
      <g id="Grupo_11494" data-name="Grupo 11494" transform="translate(2276.523 1094.44)">
        <ellipse id="Elipse_933" data-name="Elipse 933" cx="154.444" cy="18.678" rx="154.444" ry="18.678" transform="translate(0 225.756)" fill="#c5c2c2"/>
        <rect id="Rectángulo_3438" data-name="Rectángulo 3438" width="94.292" height="41.313" transform="translate(99.415 117.637)" fill="#572e2e"/>
        <path id="Trazado_28006" data-name="Trazado 28006" d="M2689.779,1459.2l-89.272,1.576-7.366,12,101.724-1.213Z" transform="translate(-2497.837 -1349.406)" fill="#425167" fill-rule="evenodd"/>
        <path id="Trazado_28007" data-name="Trazado 28007" d="M2586.354,1588.05q-.263,8.31-.525,16.62l49.92-.581q-.157-8.268-.315-16.537Z" transform="translate(-2492.726 -1439.122)" fill="#572e2e" fill-rule="evenodd"/>
        <path id="Trazado_28008" data-name="Trazado 28008" d="M2631.637,1567.03l-51.163-.765-3.538,8.32,55.849.765Z" transform="translate(-2486.51 -1424.243)" fill="#425167" fill-rule="evenodd"/>
        <path id="Trazado_28009" data-name="Trazado 28009" d="M2883.44,1513.794q.239,3.227.478,6.455l4.638.1q-.071-3.443-.143-6.885Z" transform="translate(-2700.755 -1387.332)" fill="#634535" fill-rule="evenodd"/>
        <path id="Trazado_28010" data-name="Trazado 28010" d="M2845.951,1516.335q.239,3.227.478,6.455l4.638.1q-.072-3.443-.143-6.886Z" transform="translate(-2674.55 -1389.108)" fill="#634535" fill-rule="evenodd"/>
        <path id="Trazado_28011" data-name="Trazado 28011" d="M2808.461,1511.887q.239,3.228.478,6.455l4.638.1q-.071-3.442-.143-6.885Z" transform="translate(-2648.345 -1386)" fill="#634535" fill-rule="evenodd"/>
        <path id="Trazado_28012" data-name="Trazado 28012" d="M2774.785,1512.523q.239,3.228.478,6.455l4.638.1q-.072-3.443-.143-6.885Z" transform="translate(-2624.806 -1386.444)" fill="#634535" fill-rule="evenodd"/>
        <path id="Trazado_28013" data-name="Trazado 28013" d="M2744.24,1515.949q.24,3.228.479,6.455l4.638.1q-.071-3.443-.143-6.885Z" transform="translate(-2603.455 -1388.839)" fill="#634535" fill-rule="evenodd"/>
        <path id="Trazado_28014" data-name="Trazado 28014" d="M2706.161,1512.2q.239,3.228.478,6.455l4.638.1q-.072-3.443-.144-6.886Z" transform="translate(-2576.838 -1386.221)" fill="#634535" fill-rule="evenodd"/>
        <path id="Trazado_28015" data-name="Trazado 28015" d="M2679.429,1516.267q.239,3.227.478,6.455l4.638.1q-.072-3.443-.144-6.886Z" transform="translate(-2558.152 -1389.061)" fill="#634535" fill-rule="evenodd"/>
        <path id="Trazado_28016" data-name="Trazado 28016" d="M2645.717,1512.126q.239,3.228.478,6.455l4.638.1-.144-6.885Z" transform="translate(-2534.588 -1386.166)" fill="#634535" fill-rule="evenodd"/>
        <path id="Trazado_28017" data-name="Trazado 28017" d="M2617.124,1515.938q.239,3.228.478,6.455l4.638.1-.144-6.885Z" transform="translate(-2514.601 -1388.832)" fill="#634535" fill-rule="evenodd"/>
        <path id="Trazado_28018" data-name="Trazado 28018" d="M2598.3,1599.812q.24,3.227.478,6.455l4.638.1-.144-6.885Z" transform="translate(-2501.444 -1447.458)" fill="#634535" fill-rule="evenodd"/>
        <path id="Trazado_28019" data-name="Trazado 28019" d="M2624.828,1600.209q.24,3.227.478,6.455l4.638.1q-.072-3.443-.144-6.885Z" transform="translate(-2519.986 -1447.736)" fill="#634535" fill-rule="evenodd"/>
        <path id="Trazado_28020" data-name="Trazado 28020" d="M2709.338,1604.021q.239,3.228.478,6.455l4.638.1-.144-6.885Z" transform="translate(-2579.058 -1450.401)" fill="#634535" fill-rule="evenodd"/>
        <path id="Trazado_28021" data-name="Trazado 28021" d="M2638.639,1541.9q.24,3.228.479,6.455l4.638.1-.144-6.885Z" transform="translate(-2529.64 -1406.979)" fill="#634535" fill-rule="evenodd"/>
        <path id="Trazado_28022" data-name="Trazado 28022" d="M2709.893,1540.72q.239,3.227.478,6.455l4.638.1q-.072-3.442-.143-6.885Z" transform="translate(-2579.447 -1406.153)" fill="#634535" fill-rule="evenodd"/>
        <path id="Trazado_28023" data-name="Trazado 28023" d="M2762.632,1544.532q.24,3.228.478,6.455l4.638.1q-.072-3.443-.143-6.885Z" transform="translate(-2616.311 -1408.818)" fill="#634535" fill-rule="evenodd"/>
        <path id="Trazado_28024" data-name="Trazado 28024" d="M2788.684,1547.073q.239,3.228.478,6.455l4.638.1q-.072-3.443-.144-6.885Z" transform="translate(-2634.521 -1410.594)" fill="#634535" fill-rule="evenodd"/>
        <path id="Trazado_28025" data-name="Trazado 28025" d="M2816.642,1547.709q.24,3.227.478,6.455l4.638.1-.144-6.885Z" transform="translate(-2654.063 -1411.039)" fill="#634535" fill-rule="evenodd"/>
        <path id="Trazado_28026" data-name="Trazado 28026" d="M2840.152,1548.345q.239,3.228.478,6.455l4.638.1q-.072-3.443-.143-6.885Z" transform="translate(-2670.497 -1411.483)" fill="#634535" fill-rule="evenodd"/>
        <path id="Trazado_28027" data-name="Trazado 28027" d="M2872.558,1548.344q.239,3.228.478,6.455l4.638.1q-.071-3.442-.143-6.885Z" transform="translate(-2693.148 -1411.483)" fill="#634535" fill-rule="evenodd"/>
        <path id="Trazado_28028" data-name="Trazado 28028" d="M2872.558,1580.75q.239,3.227.478,6.455l4.638.1q-.071-3.443-.143-6.885Z" transform="translate(-2693.148 -1434.134)" fill="#634535" fill-rule="evenodd"/>
        <path id="Trazado_28029" data-name="Trazado 28029" d="M2835.705,1581.385q.239,3.227.478,6.455l4.638.1-.144-6.885Z" transform="translate(-2667.388 -1434.578)" fill="#634535" fill-rule="evenodd"/>
        <path id="Trazado_28030" data-name="Trazado 28030" d="M2797.58,1575.031q.24,3.228.478,6.455l4.638.1q-.072-3.442-.144-6.885Z" transform="translate(-2640.739 -1430.137)" fill="#634535" fill-rule="evenodd"/>
        <path id="Trazado_28031" data-name="Trazado 28031" d="M2769.622,1578.844q.238,3.227.478,6.455l4.638.1q-.072-3.443-.144-6.885Z" transform="translate(-2621.197 -1432.802)" fill="#634535" fill-rule="evenodd"/>
        <path id="Trazado_28032" data-name="Trazado 28032" d="M2886.617,1516q.168,2.7.335,5.4l2.821.1q-.048-2.654-.1-5.307Z" transform="translate(-2702.976 -1389.108)" fill="#231b18" fill-rule="evenodd"/>
        <path id="Trazado_28033" data-name="Trazado 28033" d="M2849.128,1518.542q.168,2.7.334,5.4l2.821.1q-.048-2.654-.1-5.308Z" transform="translate(-2676.771 -1390.885)" fill="#231b18" fill-rule="evenodd"/>
        <path id="Trazado_28034" data-name="Trazado 28034" d="M2811.639,1514.094q.167,2.7.335,5.4l2.821.1q-.048-2.654-.1-5.308Z" transform="translate(-2650.566 -1387.776)" fill="#231b18" fill-rule="evenodd"/>
        <path id="Trazado_28035" data-name="Trazado 28035" d="M2777.962,1514.73q.167,2.7.335,5.4l2.821.1q-.048-2.654-.1-5.308Z" transform="translate(-2627.026 -1388.221)" fill="#231b18" fill-rule="evenodd"/>
        <path id="Trazado_28036" data-name="Trazado 28036" d="M2747.417,1518.156q.167,2.7.335,5.4l2.821.1q-.048-2.654-.1-5.308Z" transform="translate(-2605.675 -1390.615)" fill="#231b18" fill-rule="evenodd"/>
        <path id="Trazado_28037" data-name="Trazado 28037" d="M2709.338,1514.412q.167,2.7.335,5.4l2.821.1q-.048-2.654-.1-5.308Z" transform="translate(-2579.058 -1387.998)" fill="#231b18" fill-rule="evenodd"/>
        <path id="Trazado_28038" data-name="Trazado 28038" d="M2682.606,1518.474q.167,2.7.335,5.4l2.821.1q-.048-2.653-.1-5.307Z" transform="translate(-2560.373 -1390.838)" fill="#231b18" fill-rule="evenodd"/>
        <path id="Trazado_28039" data-name="Trazado 28039" d="M2648.894,1514.333q.168,2.7.335,5.4l2.821.1q-.048-2.654-.1-5.308Z" transform="translate(-2536.808 -1387.943)" fill="#231b18" fill-rule="evenodd"/>
        <path id="Trazado_28040" data-name="Trazado 28040" d="M2620.3,1518.145l.335,5.4,2.821.1q-.048-2.653-.1-5.308Z" transform="translate(-2516.822 -1390.608)" fill="#231b18" fill-rule="evenodd"/>
        <path id="Trazado_28041" data-name="Trazado 28041" d="M2601.479,1602.019q.167,2.7.335,5.4l2.821.1q-.048-2.654-.1-5.308Z" transform="translate(-2503.666 -1449.235)" fill="#231b18" fill-rule="evenodd"/>
        <path id="Trazado_28042" data-name="Trazado 28042" d="M2628,1602.416l.335,5.4,2.821.1q-.048-2.654-.1-5.308Z" transform="translate(-2522.207 -1449.513)" fill="#231b18" fill-rule="evenodd"/>
        <path id="Trazado_28043" data-name="Trazado 28043" d="M2712.515,1606.228q.167,2.7.334,5.4l2.821.1q-.048-2.654-.1-5.308Z" transform="translate(-2581.279 -1452.177)" fill="#231b18" fill-rule="evenodd"/>
        <path id="Trazado_28044" data-name="Trazado 28044" d="M2641.817,1544.108l.335,5.4,2.821.1q-.047-2.654-.1-5.307Z" transform="translate(-2531.862 -1408.756)" fill="#231b18" fill-rule="evenodd"/>
        <path id="Trazado_28045" data-name="Trazado 28045" d="M2713.07,1542.926q.167,2.7.335,5.4l2.821.1q-.048-2.654-.1-5.307Z" transform="translate(-2581.667 -1407.93)" fill="#231b18" fill-rule="evenodd"/>
        <path id="Trazado_28046" data-name="Trazado 28046" d="M2765.81,1546.739q.167,2.7.335,5.4l2.821.1q-.048-2.653-.1-5.308Z" transform="translate(-2618.532 -1410.595)" fill="#231b18" fill-rule="evenodd"/>
        <path id="Trazado_28047" data-name="Trazado 28047" d="M2791.862,1549.28q.168,2.7.335,5.4l2.821.1q-.048-2.653-.1-5.307Z" transform="translate(-2636.742 -1412.371)" fill="#231b18" fill-rule="evenodd"/>
        <path id="Trazado_28048" data-name="Trazado 28048" d="M2819.82,1549.916l.335,5.4,2.821.1q-.048-2.654-.1-5.307Z" transform="translate(-2656.285 -1412.816)" fill="#231b18" fill-rule="evenodd"/>
        <path id="Trazado_28049" data-name="Trazado 28049" d="M2843.33,1550.551q.167,2.7.334,5.4l2.821.1q-.048-2.653-.1-5.307Z" transform="translate(-2672.718 -1413.259)" fill="#231b18" fill-rule="evenodd"/>
        <path id="Trazado_28050" data-name="Trazado 28050" d="M2875.736,1550.551q.168,2.7.335,5.4l2.821.1q-.048-2.653-.1-5.307Z" transform="translate(-2695.37 -1413.259)" fill="#231b18" fill-rule="evenodd"/>
        <path id="Trazado_28051" data-name="Trazado 28051" d="M2875.736,1582.957q.168,2.7.335,5.4l2.821.1q-.048-2.654-.1-5.308Z" transform="translate(-2695.37 -1435.911)" fill="#231b18" fill-rule="evenodd"/>
        <path id="Trazado_28052" data-name="Trazado 28052" d="M2838.882,1583.592q.167,2.7.334,5.4l2.821.1q-.048-2.654-.1-5.307Z" transform="translate(-2669.609 -1436.355)" fill="#231b18" fill-rule="evenodd"/>
        <path id="Trazado_28053" data-name="Trazado 28053" d="M2800.757,1577.239q.167,2.7.334,5.4l2.821.1q-.048-2.654-.1-5.308Z" transform="translate(-2642.96 -1431.914)" fill="#231b18" fill-rule="evenodd"/>
        <path id="Trazado_28054" data-name="Trazado 28054" d="M2772.8,1581.051q.167,2.7.335,5.4l2.821.1q-.048-2.654-.1-5.308Z" transform="translate(-2623.417 -1434.579)" fill="#231b18" fill-rule="evenodd"/>
        <path id="Trazado_28055" data-name="Trazado 28055" d="M2596.678,1467.122l-3.537,5.764c21.051-2.812,40.829-4.181,61.927-5.739l15.874-1.172,2.449-.181,5.313,1.353,12.842,3.269,1.592.406-1.592-3.1-.3-.579-4.01-7.8-14.479.255-32.835.58-8.85.156-9.122.161-8.862.156-12.581.222Z" transform="translate(-2497.837 -1349.511)" fill="#4f6b93" fill-rule="evenodd"/>
        <path id="Trazado_28056" data-name="Trazado 28056" d="M2590.023,1566.347l-5.451-.082-1.774,4.171.073,1.619.077,1.7,1.271-.078c17.294-1.069,32.014.018,49.124.472l1.631.043.01-.73.019-1.407.068-5.035-12.655-.189-5.047-.076-12.911-.193Z" transform="translate(-2490.608 -1424.243)" fill="#4f6b93" fill-rule="evenodd"/>
        <path id="Trazado_28057" data-name="Trazado 28057" d="M2633.014,1525.151l-3.875-.08-.23-3.1-5.314.285.035,1.668-1.952-.04-2.686-.055-.1-1.321-3.92.21.049,2.354-4.638-.1-.148-2.005-3.437.184v10.362l14.436.216,12.911.193,5.047.076,12.655.189.363.005.3,0,.43,3.114.263,1.911.21,1.523.244,1.772-3.517-.048.125,6.555.025,1.336h49.234l-.421-1.336-.968-3.072-2.12-6.73-4.687-14.879-.783-.016-.239-3.227-6.521-1.4.115,5.486-4.638-.1-.429-5.8-1.638.088-4.667.25.088,4.218-4.638-.1-.286-3.863-5.293.283.081,3.866-4.638-.1-.26-3.513-4.388.235.092,4.4-2.287-.047-2.351-.048-.3-4.049-6.58.352.056,2.665-2.177-.045-2.461-.051-.172-2.315-3.309.177.072,3.456-.763-.016Zm5.3,7.28-.478-6.455,1.728-.116,3.245-.218.143,6.885-3.684-.076-.954-.02Zm17.632,6.79-.131-1.769,4.973-.335.044,2.1.1,4.781-4.638-.1-.347-4.686Zm8.763,3.538-.262-3.538-.216-2.917,4.973-.335.068,3.252.075,3.634-4.638-.1ZM2621.357,1526l.072,3.442.072,3.443-.226,0-4.412-.091-.478-6.455,4.973-.335Zm32.828,7.582-.478-6.455,4.973-.335.143,6.885-4.638-.1Zm21.995,11.093-.4-5.45-.074-1,4.973-.335.028,1.339.115,5.546-4.638-.1Zm11.093-.191-.389-5.26-.089-1.2,4.973-.334.032,1.53.111,5.355-4.638-.1Zm-25.246-10.137-.479-6.455,4.973-.335.144,6.885-4.638-.1Zm8.416.191-.479-6.455,4.819-.325.154-.01.144,6.885-2.291-.047-2.347-.049Zm7.077.191-.479-6.455,4.973-.335.143,6.885-4.638-.1Zm9.754,0-.478-6.455,4.973-.334.143,6.885Z" transform="translate(-2507.385 -1391.41)" fill="#925c5c" fill-rule="evenodd"/>
        <path id="Trazado_28058" data-name="Trazado 28058" d="M2623.183,1611.217l-20.569-.368.041,1.966.028,1.336,0,.074-3.6-.074-1.038-.021-.1-1.314-.152-2.052-3.168-.057.044,2.109.027,1.29-2.558-.053-2.08-.043-.088-1.195-.163-2.2-3.659-.066-.072,2.261-.251,7.934,46.73-.545-1.631-6.053-.36-1.336-.4-1.472-2.134-.038.031,1.511.028,1.336.026,1.222-4.638-.1-.083-1.126-.1-1.336Z" transform="translate(-2492.727 -1455.201)" fill="#925c5c" fill-rule="evenodd"/>
        <path id="Trazado_28059" data-name="Trazado 28059" d="M2920.058,1500.42q3.491,17.706,6.985,35.412h-6.985Z" transform="translate(-2726.351 -1378.218)" fill-rule="evenodd" opacity="0.36"/>
        <path id="Trazado_28060" data-name="Trazado 28060" d="M2750.793,1596.287l9.7,7.891-9.432,6.016Q2750.925,1603.241,2750.793,1596.287Z" transform="translate(-2608.035 -1445.228)" fill-rule="evenodd" opacity="0.36"/>
        <path id="Trazado_28061" data-name="Trazado 28061" d="M2562.994,1195.841c6.737-1.011,10.559-1.963,13.272-3.509a11.492,11.492,0,0,0,5.273-6.265,14.529,14.529,0,0,0,.5-8.6,16.76,16.76,0,0,0-4.489-7.75,11.342,11.342,0,0,0-5.784-2.59,5.9,5.9,0,0,0,2.3-2.77,6.721,6.721,0,0,0-.594-4.72,7.532,7.532,0,0,0-3.974-3.905c-1.675-.549-3.547.006-5.42.561.688-4.6,1.376-9.2-1.07-14.473s-8.024-11.222-14.941-15.9a58.843,58.843,0,0,0-22.889-9.318,44.5,44.5,0,0,0-20.215,1.427,33.537,33.537,0,0,0-10.585,5.591c-1.834,1.427-2.063,1.824-2.293,2.22,0-1.507,0-3.013-.917-4.044s-2.751-1.586-5.006-1.506a11.721,11.721,0,0,0-6.535,2.1c-1.6,1.308-2.14,3.212-2.675,5.115a7.133,7.133,0,0,0-6.19.516,5.056,5.056,0,0,0-1.873,2.894,2.441,2.441,0,0,0,.268,1.824,27.564,27.564,0,0,0-7.375-4.877,54.314,54.314,0,0,0-16.164-4.322,88.832,88.832,0,0,0-24.074.912c-3.967.667-7.38,1.523-11.259,2.487-3.279.815-4.288.564-7.535,2.215-2.194,1.116-4.342,2.124-6.465,3.387a23.512,23.512,0,0,0-10.738,14.116c-2.363,8.194-1.485,22.707,2.313,26.923,1.643,1.824-1.7,3.014.9,3.688s5.961.437,9.324.2a2.407,2.407,0,0,0,.382,2.578c.841,1.15,2.751,2.736,7.872,4.56a101.5,101.5,0,0,0,21.284,4.719,62.98,62.98,0,0,0,21.17-1.031c6-1.467,10.661-4.005,17.272-6.543s15.17-5.075,23.73-7.613a89.588,89.588,0,0,0,11.043,6.939,111.394,111.394,0,0,0,13.03,5.194c-2.987,1.73-5.974,3.459-5.958,4.961s3.037,2.775,8.378,4.032a101.035,101.035,0,0,0,21.662,2.581A168.838,168.838,0,0,0,2562.994,1195.841Z" transform="translate(-2351.815 -1109.539)" fill-rule="evenodd" fill="url(#linear-gradient)"/>
        <path id="Trazado_28062" data-name="Trazado 28062" d="M2927.47,1164.713c5.67,2.1,15.5,2.339,20.936.357s6.464-6.186,4.4-10.27-7.217-8.049-12.371-9.318-10.31.159-13.006,1.15-2.934,1.547-3.172,2.1c-1.665-1.665-3.331-3.331-6.106-3.846a14.465,14.465,0,0,0-9.477,1.864c-2.815,1.745-4.56,4.6-2.7,6.106s7.336,1.665,12.808,1.824C2920.293,1158.647,2921.8,1162.611,2927.47,1164.713Z" transform="translate(-2715.969 -1129.581)" fill-rule="evenodd" fill="url(#linear-gradient-2)"/>
        <path id="Trazado_28063" data-name="Trazado 28063" d="M3046.4,1222.564c.474-2.017-3.648-4.009-9.021-4.289s-12,1.153-12.47,3.17,5.2,4.618,10.573,4.9S3045.923,1224.581,3046.4,1222.564Z" transform="translate(-2799.619 -1180.976)" fill-rule="evenodd" fill="url(#linear-gradient-3)"/>
        <path id="Trazado_28064" data-name="Trazado 28064" d="M2417.632,1159.585c-1.934,2.356-5.8,3.444-9.335,4.018a67.7,67.7,0,0,1-9.94.695,8.689,8.689,0,0,0,1.662-3.625c1.439-9.869-1.614-3.343-2.508-1.42a8.088,8.088,0,0,1-4.139,3.444,4.579,4.579,0,0,1-4.773-.634c-15.22-13.259,17.74-26.416-4.141-16.121q-.112.356-.215.712c-2.216,7.685-1.806,22.35,2.313,26.923.329.365-4.513.324-4.164.665a19.212,19.212,0,0,0,4.164-.665c4.362-1.19,8.485-3.886,12.609-4.56a14.767,14.767,0,0,1,11.182,2.934c2.934,2.26,4.679,5.433,6.423,8.168s3.489,5.036,7.3,6.027,9.675.674,15.543,1.586q.757.118,1.514.263l-.007-.025c-1.19-4.243,2.22-8.208,8.168-10.111a34.65,34.65,0,0,1,20.46.476,21.906,21.906,0,0,1,2.106.9c5.153-1.7,10.9-3.4,16.637-5.107a89.606,89.606,0,0,0,11.043,6.939,111.411,111.411,0,0,0,13.03,5.194c-2.987,1.73-5.974,3.459-5.958,4.961s3.037,2.775,8.378,4.032a101.031,101.031,0,0,0,21.662,2.581,168.834,168.834,0,0,0,25.048-2c6.737-1.011,10.559-1.963,13.272-3.509a11.492,11.492,0,0,0,5.273-6.265,14.529,14.529,0,0,0,.5-8.6,16.758,16.758,0,0,0-4.489-7.75,11.341,11.341,0,0,0-5.784-2.59,5.9,5.9,0,0,0,2.3-2.77,6.719,6.719,0,0,0-.594-4.72,7.53,7.53,0,0,0-3.974-3.905c-1.675-.549-3.547.006-5.419.561.548-3.665,1.1-7.33.059-11.336q-.422-.135-.819-.282c-5.67-2.1-7.177-6.067-8.684-10.032-5.472-.159-10.944-.317-12.808-1.824s-.119-4.362,2.7-6.107a13.009,13.009,0,0,1,2.807-1.283,58.668,58.668,0,0,0-22.152-8.828,45.01,45.01,0,0,0-17.8.74,56.281,56.281,0,0,1,10.865.555c6.314,1.088,11.753,3.988,14.049,7.009s1.45,6.163-.03,8.459a19.073,19.073,0,0,1-5.71,5.2c3.565-.3,7.13-.6,10.484-.755a35.315,35.315,0,0,1,8.7.362c2.206.514,3.475,1.541,3.384,3.021s-1.541,3.414-2.991,5.348c1.813-1.269,3.625-2.538,5.771-2.81a8.474,8.474,0,0,1,6.194,1.782,7.131,7.131,0,0,1,2.3,5.529,17.022,17.022,0,0,1-1.48,7.1,13.871,13.871,0,0,1-4.683,5.741,50.35,50.35,0,0,1-8.278,4.411c4.894-1.692,9.788-3.384,13.5-5.015s6.254-3.2,7.7-2.568,1.813,3.474,1.42,5.891a9.275,9.275,0,0,1-4.018,6.254c-2.477,1.843-6.284,3.535-10.091,5.227,3.625-.967,7.251-1.933,10.091-2.538s4.895-.846,6.677-.091a5.144,5.144,0,0,1,3.233,4.864c-.061,2.357-1.692,5.318-4.834,7.885a30.8,30.8,0,0,1-13.626,5.861,72.388,72.388,0,0,1-19,.635,56.739,56.739,0,0,1-14.834-3.021c-3.353-1.33-4.743-2.84-3.746-4.562s4.381-3.656,7.764-5.589c-2.84.846-5.68,1.692-7.553,2.024a6.4,6.4,0,0,1-4.139-.393c-1.36-.544-3.172-1.45-4.985-2.357a9.605,9.605,0,0,0,5.2-1c1.692-1,3.323-2.991,4.955-4.985l-2.175.906a33.8,33.8,0,0,1-7.734,1.571,18.965,18.965,0,0,1-7.946-1.389,11.072,11.072,0,0,1-7.885-10.514c2.719.725,5.438,1.45,8.49,1a15.723,15.723,0,0,0,8.913-4.743c2.477-2.659,4.048-6.345,5.62-10.031a17.776,17.776,0,0,1-3.777,5.5,21.284,21.284,0,0,1-8.7,4.864,32.021,32.021,0,0,1-12.448.695,25.047,25.047,0,0,1-12.025-4.411c-3.357-2.511-6.01-6.264-8.639-10.058.027.115.056.244.089.39.363,1.631,1.088,5.318,3.021,8.037s5.076,4.471,7.916,5.71a59.862,59.862,0,0,0,7.915,2.689c-1.088,2.175-2.175,4.35-4.592,5.861s-6.164,2.357-10.484,2.568a53.968,53.968,0,0,1-13.052-1.027c-3.837-.816-6.616-2.024-8.127-4.381s-1.752-5.861-1.994-9.366a75.058,75.058,0,0,1-2.326,8.157,28.585,28.585,0,0,1-4.169,7.795,13.648,13.648,0,0,1-7.433,5.166,19.4,19.4,0,0,1-10.876-.846,20.4,20.4,0,0,1-8.067-5.378,4.7,4.7,0,0,1-1.027-5.318c.725-2.024,2.356-4.622,2.961-7.765s.181-6.828-.242-10.514C2419.566,1153.6,2419.566,1157.229,2417.632,1159.585Z" transform="translate(-2350.512 -1109.539)" fill="#8f8f8f" fill-rule="evenodd" opacity="0.2"/>
        <path id="Trazado_28065" data-name="Trazado 28065" d="M2634.724,1431.9c-1.892-23.056-3.612-64.579-5.333-106.1H2621q-3.066,68.254-6.131,136.508l25.871,1.829C2638.677,1459.545,2636.615,1454.956,2634.724,1431.9Z" transform="translate(-2513.024 -1256.158)" fill="#b1bab9" fill-rule="evenodd"/>
        <path id="Trazado_28066" data-name="Trazado 28066" d="M2533.945,1432.972c-1.891-23.057-3.613-64.579-5.334-106.1h-8.39q-3.066,68.254-6.131,136.508l25.871,1.829C2537.9,1460.617,2535.836,1456.028,2533.945,1432.972Z" transform="translate(-2442.58 -1256.907)" fill="#b1bab9" fill-rule="evenodd"/>
        <path id="Trazado_28067" data-name="Trazado 28067" d="M2625.292,1520.258l-.522,11.618h14.646c-.191-3.754-.381-7.634-.57-11.618Z" transform="translate(-2519.946 -1392.085)" fill="#b9674f" fill-rule="evenodd"/>
        <path id="Trazado_28068" data-name="Trazado 28068" d="M2628.189,1455.755h12.525q-.258-5.714-.514-11.618h-11.49Z" transform="translate(-2522.335 -1338.877)" fill="#b9674f" fill-rule="evenodd"/>
        <path id="Trazado_28069" data-name="Trazado 28069" d="M2541.447,1374.274q-.244-5.772-.486-11.618h-9.322l-.522,11.618Z" transform="translate(-2454.483 -1281.922)" fill="#b9674f" fill-rule="evenodd"/>
        <path id="Trazado_28070" data-name="Trazado 28070" d="M2539.44,1444.137h-11.461l-.522,11.618h12.5Q2539.7,1450.04,2539.44,1444.137Z" transform="translate(-2451.925 -1338.877)" fill="#b9674f" fill-rule="evenodd"/>
        <path id="Trazado_28071" data-name="Trazado 28071" d="M2538.084,1520.258H2524.56l-.522,11.618h14.615C2538.462,1528.12,2538.273,1524.241,2538.084,1520.258Z" transform="translate(-2449.535 -1392.085)" fill="#b9674f" fill-rule="evenodd"/>
        <path id="Trazado_28072" data-name="Trazado 28072" d="M2631.849,1374.274h10.358q-.244-5.771-.487-11.618h-9.349Z" transform="translate(-2524.894 -1281.922)" fill="#b9674f" fill-rule="evenodd"/>
        <rect id="Rectángulo_3439" data-name="Rectángulo 3439" width="259.59" height="27.402" transform="translate(25.723 206.092)" fill="#5b3826"/>
        <path id="Trazado_28073" data-name="Trazado 28073" d="M2699.116,1500.9c5.9-20.381,16.817-58.9,27.737-97.42h59.23l36.953,119.228-131.563,3.057C2692.346,1523.523,2693.22,1521.282,2699.116,1500.9Z" transform="translate(-2566.571 -1310.458)" fill="#616066" fill-rule="evenodd"/>
        <rect id="Rectángulo_3440" data-name="Rectángulo 3440" width="117.289" height="51.388" transform="translate(47.581 168.558)" fill="#a0928b"/>
        <path id="Trazado_28074" data-name="Trazado 28074" d="M2541.077,1622.5c-37.014.654-77.292,1.162-114.307,1.815l-9.163,14.931,125.08-1.491Z" transform="translate(-2375.14 -1463.553)" fill="#4f6b93" fill-rule="evenodd"/>
        <path id="Trazado_28075" data-name="Trazado 28075" d="M2409.166,1782.292q-.327,10.337-.654,20.673l62.095-.723q-.2-10.285-.392-20.57Z" transform="translate(-2368.783 -1574.812)" fill="#a0928b" fill-rule="evenodd"/>
        <path id="Trazado_28076" data-name="Trazado 28076" d="M2465.491,1756.146l-63.641-.951-4.4,10.349,69.469.952Q2466.2,1761.321,2465.491,1756.146Z" transform="translate(-2361.05 -1556.304)" fill="#425167" fill-rule="evenodd"/>
        <path id="Trazado_28077" data-name="Trazado 28077" d="M2781.166,1433.042c23.891,3.008,50.317,4.828,76.774,0l-9.162-29.561h-59.23C2786.726,1413.439,2783.9,1423.4,2781.166,1433.042Z" transform="translate(-2629.266 -1310.458)" fill="#adb5a5" fill-rule="evenodd"/>
        <path id="Trazado_28078" data-name="Trazado 28078" d="M2778.706,1689.926q.3,4.014.595,8.029l5.769.119q-.089-4.282-.178-8.565Z" transform="translate(-2627.546 -1510.39)" fill="#634535" fill-rule="evenodd"/>
        <path id="Trazado_28079" data-name="Trazado 28079" d="M2732.074,1693.087q.3,4.015.6,8.029l5.769.119q-.089-4.282-.178-8.564Z" transform="translate(-2594.951 -1512.601)" fill="#634535" fill-rule="evenodd"/>
        <path id="Trazado_28080" data-name="Trazado 28080" d="M2685.442,1687.554q.3,4.015.595,8.03l5.769.119q-.089-4.282-.178-8.565Z" transform="translate(-2562.355 -1508.733)" fill="#634535" fill-rule="evenodd"/>
        <path id="Trazado_28081" data-name="Trazado 28081" d="M2643.551,1688.344l.595,8.029,5.77.119q-.09-4.283-.178-8.565Z" transform="translate(-2533.073 -1509.285)" fill="#634535" fill-rule="evenodd"/>
        <path id="Trazado_28082" data-name="Trazado 28082" d="M2605.557,1692.607q.3,4.014.6,8.029l5.769.119q-.089-4.282-.178-8.565Z" transform="translate(-2506.516 -1512.264)" fill="#634535" fill-rule="evenodd"/>
        <path id="Trazado_28083" data-name="Trazado 28083" d="M2558.191,1687.949q.3,4.015.595,8.03l5.769.119q-.089-4.283-.178-8.565Z" transform="translate(-2473.407 -1509.009)" fill="#634535" fill-rule="evenodd"/>
        <path id="Trazado_28084" data-name="Trazado 28084" d="M2524.939,1693l.595,8.03,5.769.118-.178-8.564Z" transform="translate(-2450.164 -1512.541)" fill="#634535" fill-rule="evenodd"/>
        <path id="Trazado_28085" data-name="Trazado 28085" d="M2483.006,1687.851q.3,4.015.594,8.03l5.769.119q-.089-4.282-.178-8.564Z" transform="translate(-2420.854 -1508.941)" fill="#634535" fill-rule="evenodd"/>
        <path id="Trazado_28086" data-name="Trazado 28086" d="M2447.439,1692.593l.595,8.03,5.769.119q-.089-4.282-.178-8.565Z" transform="translate(-2395.992 -1512.255)" fill="#634535" fill-rule="evenodd"/>
        <path id="Trazado_28087" data-name="Trazado 28087" d="M2424.026,1796.922q.3,4.015.595,8.03l5.769.119q-.089-4.282-.178-8.565Z" transform="translate(-2379.627 -1585.181)" fill="#634535" fill-rule="evenodd"/>
        <path id="Trazado_28088" data-name="Trazado 28088" d="M2457.022,1797.416l.595,8.03,5.769.119q-.089-4.283-.178-8.565Z" transform="translate(-2402.691 -1585.526)" fill="#634535" fill-rule="evenodd"/>
        <path id="Trazado_28089" data-name="Trazado 28089" d="M2562.142,1802.159q.3,4.014.595,8.029l5.769.119-.178-8.565Z" transform="translate(-2476.169 -1588.841)" fill="#634535" fill-rule="evenodd"/>
        <path id="Trazado_28090" data-name="Trazado 28090" d="M2474.2,1724.887q.3,4.015.595,8.03l5.769.119q-.089-4.283-.178-8.565Z" transform="translate(-2414.699 -1534.828)" fill="#634535" fill-rule="evenodd"/>
        <path id="Trazado_28091" data-name="Trazado 28091" d="M2562.834,1723.418l.595,8.029,5.77.119-.179-8.564Z" transform="translate(-2476.653 -1533.802)" fill="#634535" fill-rule="evenodd"/>
        <path id="Trazado_28092" data-name="Trazado 28092" d="M2628.436,1728.16q.3,4.015.595,8.03l5.769.119q-.089-4.283-.178-8.565Z" transform="translate(-2522.509 -1537.116)" fill="#634535" fill-rule="evenodd"/>
        <path id="Trazado_28093" data-name="Trazado 28093" d="M2660.841,1731.321q.3,4.015.595,8.03l5.769.119q-.089-4.282-.178-8.565Z" transform="translate(-2545.159 -1539.326)" fill="#634535" fill-rule="evenodd"/>
        <path id="Trazado_28094" data-name="Trazado 28094" d="M2695.618,1732.112q.3,4.015.595,8.029l5.769.119q-.089-4.282-.178-8.564Z" transform="translate(-2569.468 -1539.879)" fill="#634535" fill-rule="evenodd"/>
        <path id="Trazado_28095" data-name="Trazado 28095" d="M2724.861,1732.9q.3,4.014.595,8.029l5.769.119q-.089-4.282-.178-8.565Z" transform="translate(-2589.909 -1540.431)" fill="#634535" fill-rule="evenodd"/>
        <path id="Trazado_28096" data-name="Trazado 28096" d="M2765.171,1732.9q.3,4.014.595,8.029l5.769.119q-.089-4.282-.178-8.565Z" transform="translate(-2618.085 -1540.431)" fill="#634535" fill-rule="evenodd"/>
        <path id="Trazado_28097" data-name="Trazado 28097" d="M2765.171,1773.212q.3,4.015.595,8.03l5.769.119q-.089-4.282-.178-8.565Z" transform="translate(-2618.085 -1568.608)" fill="#634535" fill-rule="evenodd"/>
        <path id="Trazado_28098" data-name="Trazado 28098" d="M2719.329,1774l.595,8.03,5.77.119q-.09-4.283-.179-8.565Z" transform="translate(-2586.042 -1569.16)" fill="#634535" fill-rule="evenodd"/>
        <path id="Trazado_28099" data-name="Trazado 28099" d="M2671.906,1766.1l.595,8.029,5.77.119q-.089-4.282-.179-8.565Z" transform="translate(-2552.894 -1563.635)" fill="#634535" fill-rule="evenodd"/>
        <path id="Trazado_28100" data-name="Trazado 28100" d="M2637.129,1770.841q.3,4.014.595,8.029l5.769.119q-.089-4.282-.178-8.565Z" transform="translate(-2528.584 -1566.949)" fill="#634535" fill-rule="evenodd"/>
        <path id="Trazado_28101" data-name="Trazado 28101" d="M2782.659,1692.671q.208,3.361.416,6.721l3.509.119q-.059-3.3-.119-6.6Z" transform="translate(-2630.309 -1512.601)" fill="#231b18" fill-rule="evenodd"/>
        <path id="Trazado_28102" data-name="Trazado 28102" d="M2736.026,1695.832q.208,3.36.417,6.721l3.509.119q-.059-3.3-.119-6.6Z" transform="translate(-2597.713 -1514.81)" fill="#231b18" fill-rule="evenodd"/>
        <path id="Trazado_28103" data-name="Trazado 28103" d="M2689.394,1690.3q.208,3.36.416,6.721l3.509.119q-.06-3.3-.119-6.6Z" transform="translate(-2565.118 -1510.943)" fill="#231b18" fill-rule="evenodd"/>
        <path id="Trazado_28104" data-name="Trazado 28104" d="M2647.5,1691.09q.208,3.361.416,6.721l3.509.119q-.059-3.3-.119-6.6Z" transform="translate(-2535.837 -1511.495)" fill="#231b18" fill-rule="evenodd"/>
        <path id="Trazado_28105" data-name="Trazado 28105" d="M2609.51,1695.352q.208,3.361.416,6.721l3.51.119q-.06-3.3-.119-6.6Z" transform="translate(-2509.279 -1514.475)" fill="#231b18" fill-rule="evenodd"/>
        <path id="Trazado_28106" data-name="Trazado 28106" d="M2562.143,1690.695q.208,3.361.416,6.721l3.509.119q-.06-3.3-.119-6.6Z" transform="translate(-2476.17 -1511.219)" fill="#231b18" fill-rule="evenodd"/>
        <path id="Trazado_28107" data-name="Trazado 28107" d="M2528.891,1695.748q.208,3.36.416,6.72l3.51.119q-.06-3.3-.119-6.6Z" transform="translate(-2452.927 -1514.751)" fill="#231b18" fill-rule="evenodd"/>
        <path id="Trazado_28108" data-name="Trazado 28108" d="M2486.958,1690.6q.208,3.36.416,6.721l3.509.119q-.06-3.3-.119-6.6Z" transform="translate(-2423.616 -1511.151)" fill="#231b18" fill-rule="evenodd"/>
        <path id="Trazado_28109" data-name="Trazado 28109" d="M2451.39,1695.339q.209,3.36.417,6.72l3.509.119q-.059-3.3-.119-6.6Z" transform="translate(-2398.754 -1514.466)" fill="#231b18" fill-rule="evenodd"/>
        <path id="Trazado_28110" data-name="Trazado 28110" d="M2427.978,1799.668q.208,3.36.416,6.721l3.509.119-.119-6.6Z" transform="translate(-2382.389 -1587.391)" fill="#231b18" fill-rule="evenodd"/>
        <path id="Trazado_28111" data-name="Trazado 28111" d="M2460.974,1800.162q.208,3.36.416,6.721l3.509.119q-.059-3.3-.119-6.6Z" transform="translate(-2405.453 -1587.736)" fill="#231b18" fill-rule="evenodd"/>
        <path id="Trazado_28112" data-name="Trazado 28112" d="M2566.094,1804.9q.208,3.36.416,6.721l3.51.119-.119-6.6Z" transform="translate(-2478.932 -1591.051)" fill="#231b18" fill-rule="evenodd"/>
        <path id="Trazado_28113" data-name="Trazado 28113" d="M2478.154,1727.633q.208,3.36.417,6.721l3.509.119q-.059-3.3-.119-6.6Z" transform="translate(-2417.462 -1537.039)" fill="#231b18" fill-rule="evenodd"/>
        <path id="Trazado_28114" data-name="Trazado 28114" d="M2566.786,1726.163q.208,3.361.416,6.721l3.509.119q-.06-3.3-.119-6.6Z" transform="translate(-2479.415 -1536.011)" fill="#231b18" fill-rule="evenodd"/>
        <path id="Trazado_28115" data-name="Trazado 28115" d="M2632.388,1730.906q.208,3.36.416,6.721l3.509.119q-.059-3.3-.119-6.6Z" transform="translate(-2525.271 -1539.327)" fill="#231b18" fill-rule="evenodd"/>
        <path id="Trazado_28116" data-name="Trazado 28116" d="M2664.793,1734.067q.208,3.36.417,6.721l3.509.119q-.059-3.3-.119-6.6Z" transform="translate(-2547.922 -1541.536)" fill="#231b18" fill-rule="evenodd"/>
        <path id="Trazado_28117" data-name="Trazado 28117" d="M2699.57,1734.858q.209,3.36.416,6.721l3.509.119q-.059-3.3-.119-6.6Z" transform="translate(-2572.231 -1542.089)" fill="#231b18" fill-rule="evenodd"/>
        <path id="Trazado_28118" data-name="Trazado 28118" d="M2728.814,1735.648q.208,3.361.416,6.721l3.509.119q-.06-3.3-.119-6.6Z" transform="translate(-2592.672 -1542.641)" fill="#231b18" fill-rule="evenodd"/>
        <path id="Trazado_28119" data-name="Trazado 28119" d="M2769.123,1735.648q.208,3.361.416,6.721l3.509.119q-.059-3.3-.119-6.6Z" transform="translate(-2620.848 -1542.641)" fill="#231b18" fill-rule="evenodd"/>
        <path id="Trazado_28120" data-name="Trazado 28120" d="M2769.123,1775.958q.208,3.36.416,6.72l3.509.119q-.059-3.3-.119-6.6Z" transform="translate(-2620.848 -1570.818)" fill="#231b18" fill-rule="evenodd"/>
        <path id="Trazado_28121" data-name="Trazado 28121" d="M2723.281,1776.748q.209,3.36.417,6.72l3.509.119q-.059-3.3-.119-6.6Z" transform="translate(-2588.804 -1571.37)" fill="#231b18" fill-rule="evenodd"/>
        <path id="Trazado_28122" data-name="Trazado 28122" d="M2675.859,1768.844l.416,6.721,3.51.119q-.06-3.3-.119-6.6Z" transform="translate(-2555.657 -1565.845)" fill="#231b18" fill-rule="evenodd"/>
        <path id="Trazado_28123" data-name="Trazado 28123" d="M2641.082,1773.586q.208,3.361.416,6.721l3.509.119-.119-6.6Z" transform="translate(-2531.348 -1569.16)" fill="#231b18" fill-rule="evenodd"/>
        <path id="Trazado_28124" data-name="Trazado 28124" d="M2932.651,1409.786,2903.7,1488.9h47.061Z" transform="translate(-2714.92 -1314.866)" fill-rule="evenodd" opacity="0.2"/>
        <path id="Trazado_28125" data-name="Trazado 28125" d="M3065.162,1558.432c-.073-5.915-.146-11.83-.292-14.86s-.365-3.177-.876-3.323-1.314-.292-6.536-.292-14.861.146-19.972.292-5.7.292-6.207.657-.949.949-1.022,12.159.219,33.043.511,54.877l5.039-.219c-1.1-21.031-2.191-42.062-2.118-53.052s1.315-11.939,5.842-12.3a161.787,161.787,0,0,1,16.321.036c3.979.183,4.126.329,4.2.4s.073.073.073,2.884v14.057Z" transform="translate(-2803.371 -1405.854)" fill="#525e63" fill-rule="evenodd"/>
        <rect id="Rectángulo_3441" data-name="Rectángulo 3441" width="41.624" height="64.407" rx="20.812" transform="translate(236.817 150.606)" fill="url(#linear-gradient-4)"/>
        <path id="Rectángulo_3442" data-name="Rectángulo 3442" d="M1.753,0H42.281a1.753,1.753,0,0,1,1.753,1.753v0a1.753,1.753,0,0,1-1.753,1.753H1.753A1.753,1.753,0,0,1,0,1.753v0A1.753,1.753,0,0,1,1.753,0Z" transform="translate(235.831 165.941)" fill="#92a4ae"/>
        <path id="Rectángulo_3443" data-name="Rectángulo 3443" d="M1.753,0H42.281a1.753,1.753,0,0,1,1.753,1.753v0a1.753,1.753,0,0,1-1.753,1.753H1.753A1.753,1.753,0,0,1,0,1.753v0A1.753,1.753,0,0,1,1.753,0Z" transform="translate(235.612 199.898)" fill="#92a4ae"/>
        <path id="Trazado_28126" data-name="Trazado 28126" d="M2417.607,1639.041c26.185-3.5,50.787-5.2,77.031-7.138l19.745-1.458,3.046-.225,6.609,1.682,15.973,4.067,1.98.5-1.98-3.851-.37-.72-4.988-9.7-18.01.318-40.844.721-11.009.194-11.347.2-11.024.195-23.263.458Z" transform="translate(-2375.14 -1463.345)" fill="#5c7ba8" fill-rule="evenodd"/>
        <path id="Trazado_28127" data-name="Trazado 28127" d="M2408.631,1754.875l-9.952-.283-1.229,10.53,3.964-1.132c21.512-1.33,39.821.023,61.1.588l2.029.054.013-.908.023-1.749.084-6.263-15.74-.235-6.279-.094-16.059-.24Z" transform="translate(-2361.05 -1555.883)" fill="#4f6b93" fill-rule="evenodd"/>
        <path id="Trazado_28128" data-name="Trazado 28128" d="M2467.2,1704.054l-4.82-.1-.286-3.861-6.61.354.043,2.075-2.428-.05-3.341-.069-.122-1.643-4.875.261.061,2.928-5.769-.119-.185-2.494-4.276.229v12.889l17.957.268,16.06.24,6.278.094,15.74.235.452.007.374.005.534,3.874.328,2.377.261,1.894.3,2.2-4.374-.06.156,8.154.031,1.661h61.242l-.524-1.661-1.2-3.821-2.637-8.372-5.831-18.508-.973-.02-.3-4.015-8.112-1.739.142,6.823-5.769-.119-.535-7.213-2.036.109-5.806.311.109,5.246-5.769-.119-.356-4.805-6.584.353.1,4.809-5.77-.119-.324-4.369-5.458.292.114,5.479-2.845-.059-2.924-.06-.373-5.037-8.184.439.069,3.316-2.708-.056-3.061-.063-.214-2.88-4.116.22.09,4.3-.95-.019Zm6.587,9.056-.595-8.029,2.149-.145,4.037-.271.179,8.564-4.583-.094-1.186-.025Zm21.931,8.446-.163-2.2,6.186-.417.054,2.618.124,5.947-5.769-.119-.432-5.828Zm10.9,4.4-.326-4.4-.269-3.628,6.186-.417.084,4.045.094,4.52-5.769-.119Zm-53.919-20.851.089,4.282.09,4.283-.282-.006-5.488-.113-.595-8.03,6.186-.416Zm40.834,9.431-.595-8.03,6.186-.416.178,8.565-5.769-.119Zm27.359,13.8-.5-6.78-.092-1.25,6.186-.416.034,1.666.144,6.9-5.769-.119Zm13.8-.238-.485-6.542-.11-1.487,6.186-.416.04,1.9.139,6.661-5.769-.119Zm-31.4-12.609-.595-8.03,6.186-.416.178,8.565-5.769-.119Zm10.468.238-.595-8.029,5.994-.4.191-.013.178,8.564-2.85-.059-2.919-.06Zm8.8.238-.6-8.029,6.186-.417.178,8.565-5.769-.119Zm12.133,0-.595-8.029,6.186-.417.178,8.565Z" transform="translate(-2387.016 -1515.464)" fill="#c7c7c7" fill-rule="evenodd"/>
        <path id="Trazado_28129" data-name="Trazado 28129" d="M2454.976,1811.109l-25.586-.458.051,2.446.035,1.661,0,.092-4.478-.092-1.292-.027-.121-1.635-.189-2.553-3.941-.071.055,2.624.033,1.6-3.182-.066-2.587-.053-.11-1.486-.2-2.731-4.551-.082-.089,2.813-.312,9.869,58.127-.677-2.029-7.53-.448-1.661-.494-1.832-2.654-.048.039,1.879.034,1.661.032,1.52-5.769-.119-.1-1.4-.123-1.661Z" transform="translate(-2368.782 -1594.812)" fill="#c7c7c7" fill-rule="evenodd"/>
        <path id="Trazado_28130" data-name="Trazado 28130" d="M3100.306,1603.366c-8.036.242-16.073.484-20.574.786s-5.468.665-6.042,1.287-.754,1.506-.754,5.1.18,9.9.361,16.21Z" transform="translate(-2833.211 -1450.177)" fill="#fff" fill-rule="evenodd" opacity="0.24"/>
        <path id="Trazado_28131" data-name="Trazado 28131" d="M2824.255,1673.291l8.688,44.048h-8.688Z" transform="translate(-2659.385 -1499.054)" fill-rule="evenodd" opacity="0.36"/>
        <path id="Trazado_28132" data-name="Trazado 28132" d="M3042.572,1595.155c1.3,5.123,4,14.967,6.7,24.811h-7.154q-.324-15.369-.649-30.738C3041.368,1589.63,3041.272,1590.032,3042.572,1595.155Z" transform="translate(-2811.178 -1440.294)" fill-rule="evenodd" opacity="0.36"/>
        <path id="Trazado_28133" data-name="Trazado 28133" d="M2613.708,1792.539l12.062,9.815-11.732,7.484Q2613.872,1801.189,2613.708,1792.539Z" transform="translate(-2512.214 -1582.408)" fill-rule="evenodd" opacity="0.36"/>
        <path id="Trazado_28134" data-name="Trazado 28134" d="M2900.992,1733.331q.716,18.636,1.432,37.272l70.514.327q.179-19.29.358-38.58Z" transform="translate(-2713.023 -1540.336)" fill="#887454" fill-rule="evenodd"/>
        <path id="Trazado_28135" data-name="Trazado 28135" d="M2886.7,1692.554l81.6,2.289q-.314-11.117-.627-22.232h-78.778Z" transform="translate(-2703.031 -1498.578)" fill="#4f6b93" fill-rule="evenodd"/>
        <path id="Trazado_28136" data-name="Trazado 28136" d="M2917.041,1754.8q.448,5.518.895,11.035l8.68.163q-.134-5.885-.269-11.77Z" transform="translate(-2724.242 -1555.628)" fill="#634535" fill-rule="evenodd"/>
        <path id="Trazado_28137" data-name="Trazado 28137" d="M2959.551,1757.106q.447,5.517.9,11.035l8.68.163-.268-11.77Z" transform="translate(-2753.956 -1557.24)" fill="#634535" fill-rule="evenodd"/>
        <path id="Trazado_28138" data-name="Trazado 28138" d="M3002.361,1755.477q.447,5.517.9,11.034l8.679.164-.268-11.77Z" transform="translate(-2783.88 -1556.102)" fill="#634535" fill-rule="evenodd"/>
        <path id="Trazado_28139" data-name="Trazado 28139" d="M3055.277,1757.106l.9,11.035,8.68.163q-.134-5.885-.268-11.77Z" transform="translate(-2820.868 -1557.24)" fill="#634535" fill-rule="evenodd"/>
        <path id="Trazado_28140" data-name="Trazado 28140" d="M3098.086,1756.02l.9,11.034,8.68.164q-.134-5.885-.269-11.77Z" transform="translate(-2850.791 -1556.481)" fill="#634535" fill-rule="evenodd"/>
        <path id="Trazado_28141" data-name="Trazado 28141" d="M2922.988,1758.572q.313,4.618.626,9.236l5.28.163q-.09-4.536-.179-9.073Z" transform="translate(-2728.398 -1558.665)" fill="#231b18" fill-rule="evenodd"/>
        <path id="Trazado_28142" data-name="Trazado 28142" d="M2965.5,1760.879q.313,4.618.626,9.236l5.279.164q-.089-4.536-.179-9.073Z" transform="translate(-2758.113 -1560.277)" fill="#231b18" fill-rule="evenodd"/>
        <path id="Trazado_28143" data-name="Trazado 28143" d="M3008.307,1759.25q.313,4.618.626,9.236l5.28.164-.179-9.073Z" transform="translate(-2788.036 -1559.139)" fill="#231b18" fill-rule="evenodd"/>
        <path id="Trazado_28144" data-name="Trazado 28144" d="M3061.223,1760.879q.313,4.618.626,9.236l5.28.164q-.09-4.536-.179-9.073Z" transform="translate(-2825.024 -1560.277)" fill="#231b18" fill-rule="evenodd"/>
        <path id="Trazado_28145" data-name="Trazado 28145" d="M3104.032,1759.793q.313,4.618.626,9.236l5.28.163q-.09-4.536-.179-9.073Z" transform="translate(-2854.947 -1559.518)" fill="#231b18" fill-rule="evenodd"/>
        <path id="Trazado_28146" data-name="Trazado 28146" d="M2923.507,1674.218c7.053,2.374,17.408,5.191,29.334,8.218q2.223.564,4.514,1.138,2.517.63,5.1,1.269c4.259,1.053,8.644,2.123,13.091,3.2,4.064.985,8.178,1.977,12.293,2.969l2.33-18.4h-71.127C2920.365,1673.123,2921.844,1673.659,2923.507,1674.218Z" transform="translate(-2725.643 -1498.578)" fill="#5c7ba8" fill-rule="evenodd"/>
        <path id="Trazado_28147" data-name="Trazado 28147" d="M2929.1,1777.29l-8.68-.164-.066-.817-.487-6.007-3.711-.193.142,6.2.006.286-8.68-.163-.01-.123-.541-6.672-4.784-.249.266,6.92.378,9.854.265,6.9.132,3.427,65.355.3-.669-3.73-.806-4.5-.673-3.756-1.427-7.958-2.991-.056-.04-.49-.3-3.7-.011-.134-3.97-.206.008.34.084,3.7.022.98-8.68-.164-.066-.817-.3-3.7-.065-.808-6.939-.361.027,1.168.084,3.7.011.49-3.073-.058-5.607-.105-.026-.327-.433-5.333-3.9-.2.126,5.535Z" transform="translate(-2713.93 -1566.226)" fill="#aa916b" fill-rule="evenodd"/>
        <path id="Trazado_28148" data-name="Trazado 28148" d="M3140.675,1746q-.094,15.358-.189,30.716h15.739l-12.331-30.626Z" transform="translate(-2880.428 -1549.88)" fill-rule="evenodd" opacity="0.36"/>
        <rect id="Rectángulo_3444" data-name="Rectángulo 3444" width="283.603" height="17.526" transform="translate(10.685 225.756)" fill="#57577a"/>
        <rect id="Rectángulo_3445" data-name="Rectángulo 3445" width="4.441" height="18.762" transform="translate(9.507 225.155)" fill="#414159"/>
        <rect id="Rectángulo_3446" data-name="Rectángulo 3446" width="4.441" height="18.762" transform="translate(27.028 225.155)" fill="#414159"/>
        <rect id="Rectángulo_3447" data-name="Rectángulo 3447" width="4.441" height="18.762" transform="translate(44.549 225.155)" fill="#414159"/>
        <rect id="Rectángulo_3448" data-name="Rectángulo 3448" width="4.441" height="18.762" transform="translate(62.071 225.155)" fill="#414159"/>
        <rect id="Rectángulo_3449" data-name="Rectángulo 3449" width="4.441" height="18.762" transform="translate(79.592 225.155)" fill="#414159"/>
        <rect id="Rectángulo_3450" data-name="Rectángulo 3450" width="4.441" height="18.762" transform="translate(97.113 225.155)" fill="#414159"/>
        <rect id="Rectángulo_3451" data-name="Rectángulo 3451" width="4.441" height="18.762" transform="translate(114.634 225.155)" fill="#414159"/>
        <rect id="Rectángulo_3452" data-name="Rectángulo 3452" width="4.441" height="18.762" transform="translate(132.155 225.155)" fill="#414159"/>
        <rect id="Rectángulo_3453" data-name="Rectángulo 3453" width="4.441" height="18.762" transform="translate(149.677 225.155)" fill="#414159"/>
        <rect id="Rectángulo_3454" data-name="Rectángulo 3454" width="4.441" height="18.762" transform="translate(167.198 225.155)" fill="#a6a6a9"/>
        <rect id="Rectángulo_3455" data-name="Rectángulo 3455" width="4.441" height="18.762" transform="translate(184.719 225.155)" fill="#414159"/>
        <rect id="Rectángulo_3456" data-name="Rectángulo 3456" width="4.441" height="18.762" transform="translate(202.24 225.155)" fill="#414159"/>
        <rect id="Rectángulo_3457" data-name="Rectángulo 3457" width="4.441" height="18.762" transform="translate(219.762 225.155)" fill="#414159"/>
        <rect id="Rectángulo_3458" data-name="Rectángulo 3458" width="4.441" height="18.762" transform="translate(237.283 225.155)" fill="#414159"/>
        <rect id="Rectángulo_3459" data-name="Rectángulo 3459" width="4.441" height="18.762" transform="translate(254.804 225.155)" fill="#414159"/>
        <rect id="Rectángulo_3460" data-name="Rectángulo 3460" width="4.441" height="18.762" transform="translate(272.326 225.155)" fill="#414159"/>
        <rect id="Rectángulo_3461" data-name="Rectángulo 3461" width="4.441" height="18.762" transform="translate(289.847 225.155)" fill="#414159"/>
        <path id="Trazado_28149" data-name="Trazado 28149" d="M2801.614,1861.975v-17.526h-13.08v17.526Zm4.441-8.538v8.538h13.08v-17.526h-13.08v8.988Z" transform="translate(-2634.416 -1618.693)" fill="#c7c7c7" fill-rule="evenodd"/>
        <path id="Trazado_28150" data-name="Trazado 28150" d="M2322.86,1869.629h275.9l-13.08-14.23Z" transform="translate(-2308.912 -1626.347)" fill-rule="evenodd" opacity="0.13"/>
        <ellipse id="Elipse_934" data-name="Elipse 934" cx="29.643" cy="2.646" rx="29.643" ry="2.646" transform="translate(160.283 90.377)" fill="#272424"/>
        <path id="Trazado_28151" data-name="Trazado 28151" d="M2534.89,1334.107q-1.133,38.838-2.266,77.675l1.9.453,2.719-77.675Z" transform="translate(-2455.536 -1261.966)" fill="#fff" fill-rule="evenodd" opacity="0.4"/>
        <path id="Trazado_28152" data-name="Trazado 28152" d="M2635.205,1336.215q-1.059,40.112-2.117,80.223l3.93-1.007q.458-39.483.917-78.967Z" transform="translate(-2525.76 -1263.44)" fill="#fff" fill-rule="evenodd" opacity="0.4"/>
        <path id="Trazado_28153" data-name="Trazado 28153" d="M2780.612,1417.516l-16.133,55.832,21.917.182q7.35-26.919,14.7-53.839c-4.167-.12-8.333-.241-11.747-.6A70.541,70.541,0,0,1,2780.612,1417.516Z" transform="translate(-2617.602 -1320.268)" fill-rule="evenodd" opacity="0.22" fill="url(#linear-gradient-5)"/>
        <path id="Trazado_28154" data-name="Trazado 28154" d="M2464.6,1130.881c-3.569-4.282-7.137-8.565-13.164-10.785a34.653,34.653,0,0,0-20.46-.476c-5.948,1.9-9.358,5.868-8.168,10.111s6.979,8.763,15.068,10.468,18.478.595,25.059-.952,9.358-3.529,10.349-5.432.2-3.728-1.547-4.2S2467.3,1130.009,2464.6,1130.881Z" transform="translate(-2378.613 -1111.12)" fill="#626262" fill-rule="evenodd"/>
        <path id="Trazado_28155" data-name="Trazado 28155" d="M2528.749,1100.727c.746-2.894-3.747-5.786-9.838-6.226s-13.782,1.572-14.528,4.467,5.452,6.67,11.543,7.11S2528,1103.621,2528.749,1100.727Z" transform="translate(-2435.753 -1094.44)" fill-rule="evenodd" fill="url(#linear-gradient-6)"/>
        <path id="Trazado_28156" data-name="Trazado 28156" d="M2360.729,1118.793c.746-2.895-3.747-5.786-9.838-6.226s-13.781,1.573-14.528,4.467,5.453,6.671,11.544,7.111S2359.983,1121.687,2360.729,1118.793Z" transform="translate(-2318.308 -1107.068)" fill-rule="evenodd" fill="url(#linear-gradient-7)"/>
        <path id="Trazado_28157" data-name="Trazado 28157" d="M2894.4,1904.782l32.124,17.9,6.88-.411-35.829-17.488Z" transform="translate(-2708.419 -1660.865)" fill="#fff" fill-rule="evenodd"/>
        <path id="Trazado_28158" data-name="Trazado 28158" d="M2697.959,1904.782l-30.082,19.1-8.921-.178,34.562-18.924Z" transform="translate(-2543.842 -1660.865)" fill="#fff" fill-rule="evenodd"/>
        <path id="Trazado_28159" data-name="Trazado 28159" d="M2392.224,1908.7l33.976-18.6v-.635H2287.208v-5.688c-6.9,2.118-10.685,4.426-10.685,6.84C2276.523,1899.315,2325.678,1906.624,2392.224,1908.7Z" transform="translate(-2276.523 -1646.183)" fill="#b3b336" fill-rule="evenodd"/>
        <path id="Trazado_28160" data-name="Trazado 28160" d="M2904.952,1887.55l35.191,17.177c50.167-3.085,84.537-9.387,84.537-16.66,0-2.838-5.235-5.529-14.6-7.938v6.786H2904.952Z" transform="translate(-2715.791 -1643.633)" fill="#b3b336" fill-rule="evenodd"/>
      </g>
      <path id="Trazado_28161" data-name="Trazado 28161" d="M2345.137,1314.984c-.318-3.743-1.464-8.14-6.041-10.754s-12.584-3.445-19.829-3.258a70.479,70.479,0,0,0-19.581,3.241c-5.854,1.851-11.081,4.348-14.186,6.881s-4.086,5.1.6,8.2,15.033,6.723,25.7,7.746,21.652-.556,27.4-2.889S2345.455,1318.727,2345.137,1314.984Z" transform="translate(-4.442 -144.347)" fill-rule="evenodd" fill="url(#linear-gradient-8)"/>
      <path id="Trazado_28162" data-name="Trazado 28162" d="M2461.086,1372.688c-3-2.45-9.581-5.114-14.386-5.745s-7.831.768-8.841,3.751a7.455,7.455,0,0,0,4.507,9.3c4.511,1.751,12.528.685,16.83-.966S2464.085,1375.139,2461.086,1372.688Z" transform="translate(-112.522 -190.374)" fill-rule="evenodd" fill="url(#linear-gradient-9)"/>
    </g>
  </g>
</svg>
