<svg xmlns="http://www.w3.org/2000/svg" width="690" height="233.594" viewBox="0 0 690 233.594">
  <g id="Grupo_11192" data-name="Grupo 11192" transform="translate(-613 -1502.406)">
    <ellipse id="Elipse_822" data-name="Elipse 822" cx="345" cy="102" rx="345" ry="102" transform="translate(613 1532)" fill="#f8f8f8"/>
    <g id="Grupo_10986" data-name="Grupo 10986" transform="translate(22 -76)">
      <g id="Grupo_10985" data-name="Grupo 10985" transform="translate(459.087 1384.71)">
        <g id="Grupo_10903" data-name="Grupo 10903" transform="translate(460.844 317.727)">
          <g id="Grupo_10895" data-name="Grupo 10895" transform="translate(0 27.798)">
            <path id="Trazado_26533" data-name="Trazado 26533" d="M546.16,384.637l-13.086,13.087a29.741,29.741,0,0,0,19.006-8.834C558.943,382.027,546.16,384.637,546.16,384.637Z" transform="translate(-533.074 -384.15)" fill="#6a7e8b"/>
          </g>
          <g id="Grupo_10896" data-name="Grupo 10896" transform="translate(13.086 4.094)">
            <path id="Trazado_26534" data-name="Trazado 26534" d="M579.336,367.131a17.128,17.128,0,0,1-29.847,11.476l24.191-24.191A17.084,17.084,0,0,1,579.336,367.131Z" transform="translate(-549.489 -354.416)" fill="#6a7e8b"/>
          </g>
          <g id="Grupo_10897" data-name="Grupo 10897" transform="translate(29.087 4.094)">
            <path id="Trazado_26535" data-name="Trazado 26535" d="M583.407,367.131a17.126,17.126,0,0,1-1.639,7.327,13.1,13.1,0,0,1-12.207-11.852l8.19-8.19A17.084,17.084,0,0,1,583.407,367.131Z" transform="translate(-569.56 -354.416)" fill="#859ead"/>
          </g>
          <g id="Grupo_10898" data-name="Grupo 10898" transform="translate(32.819)">
            <path id="Rectángulo_3183" data-name="Rectángulo 3183" d="M0,0H4.125a5.989,5.989,0,0,1,5.989,5.989V17.337a0,0,0,0,1,0,0h0A10.114,10.114,0,0,1,0,7.223V0A0,0,0,0,1,0,0Z" fill="#97b3c4"/>
          </g>
          <g id="Grupo_10899" data-name="Grupo 10899" transform="translate(2.649 9.998)">
            <path id="Trazado_26536" data-name="Trazado 26536" d="M560.981,373.227a14.4,14.4,0,0,1-24.53-11.406h28.7A14.352,14.352,0,0,1,560.981,373.227Z" transform="translate(-536.397 -361.821)" fill="#97b3c4"/>
          </g>
          <g id="Grupo_10900" data-name="Grupo 10900" transform="translate(11.926 9.998)">
            <path id="Trazado_26537" data-name="Trazado 26537" d="M563.341,373.227a14.328,14.328,0,0,1-5.544,3.451,14.391,14.391,0,0,1-9.709-14.857h19.419A14.352,14.352,0,0,1,563.341,373.227Z" transform="translate(-548.033 -361.821)" fill="#859ead"/>
          </g>
          <g id="Grupo_10901" data-name="Grupo 10901" transform="translate(42.933 4.321)">
            <path id="Trazado_26538" data-name="Trazado 26538" d="M589.715,357.281h-2.787V354.7Z" transform="translate(-586.929 -354.701)" fill="#f79561"/>
          </g>
          <g id="Grupo_10902" data-name="Grupo 10902" transform="translate(39.974 3.703)">
            <path id="Trazado_26539" data-name="Trazado 26539" d="M583.734,356.264h0a.516.516,0,0,1-.517-.516v-1.307a.516.516,0,0,1,.517-.516h0a.516.516,0,0,1,.516.516v1.307A.516.516,0,0,1,583.734,356.264Z" transform="translate(-583.217 -353.925)" fill="#33140e"/>
          </g>
        </g>
        <g id="Grupo_10912" data-name="Grupo 10912" transform="translate(506.664 272.263)">
          <g id="Grupo_10904" data-name="Grupo 10904" transform="translate(30.029 32.951)">
            <path id="Trazado_26540" data-name="Trazado 26540" d="M635.329,333.583l16.332,7.982a29.215,29.215,0,0,1-20.474-2.142C622.621,335.236,635.329,333.583,635.329,333.583Z" transform="translate(-628.22 -333.583)" fill="#6a7e8b"/>
          </g>
          <g id="Grupo_10905" data-name="Grupo 10905" transform="translate(4.834 18.196)">
            <path id="Trazado_26541" data-name="Trazado 26541" d="M597.531,328.691a16.824,16.824,0,0,0,31.388,1.138l-30.191-14.755A16.781,16.781,0,0,0,597.531,328.691Z" transform="translate(-596.615 -315.075)" fill="#6a7e8b"/>
          </g>
          <g id="Grupo_10906" data-name="Grupo 10906" transform="translate(4.834 18.196)">
            <path id="Trazado_26542" data-name="Trazado 26542" d="M597.531,328.691a16.82,16.82,0,0,0,3.86,6.284,12.863,12.863,0,0,0,7.559-14.905l-10.222-5A16.781,16.781,0,0,0,597.531,328.691Z" transform="translate(-596.615 -315.075)" fill="#859ead"/>
          </g>
          <g id="Grupo_10907" data-name="Grupo 10907" transform="translate(0.387 12.97)">
            <path id="Rectángulo_3184" data-name="Rectángulo 3184" d="M9.934,0h0a0,0,0,0,1,0,0V11.147a5.883,5.883,0,0,1-5.883,5.883H0a0,0,0,0,1,0,0v-7.1A9.934,9.934,0,0,1,9.934,0Z" transform="matrix(-0.946, 0.325, -0.325, -0.946, 14.927, 16.106)" fill="#6a7e8b"/>
          </g>
          <g id="Grupo_10908" data-name="Grupo 10908" transform="translate(12.399 0)">
            <path id="Trazado_26543" data-name="Trazado 26543" d="M619.743,322.792a16.261,16.261,0,0,0,.59-30.542L606.1,321.363A16.21,16.21,0,0,0,619.743,322.792Z" transform="translate(-606.105 -292.25)" fill="#97b3c4"/>
          </g>
          <g id="Grupo_10909" data-name="Grupo 10909" transform="translate(12.399 9.411)">
            <path id="Trazado_26544" data-name="Trazado 26544" d="M619.743,325.186a16.193,16.193,0,0,0,6.25-3.914,16.249,16.249,0,0,0-10.26-17.217l-9.628,19.7A16.21,16.21,0,0,0,619.743,325.186Z" transform="translate(-606.105 -304.055)" fill="#859ead"/>
          </g>
          <g id="Grupo_10910" data-name="Grupo 10910" transform="translate(0 20.211)">
            <path id="Trazado_26545" data-name="Trazado 26545" d="M590.551,320.889,593.14,320l-.823-2.4Z" transform="translate(-590.551 -317.603)" fill="#f79561"/>
          </g>
          <g id="Grupo_10911" data-name="Grupo 10911" transform="translate(3.495 18.83)">
            <path id="Trazado_26546" data-name="Trazado 26546" d="M596.024,318.071h0a.506.506,0,0,0,.314-.644l-.417-1.214a.506.506,0,0,0-.644-.315h0a.507.507,0,0,0-.314.644l.417,1.214A.507.507,0,0,0,596.024,318.071Z" transform="translate(-594.935 -315.87)" fill="#33140e"/>
          </g>
        </g>
        <g id="Grupo_10921" data-name="Grupo 10921" transform="translate(596.747 376.176)">
          <g id="Grupo_10913" data-name="Grupo 10913" transform="translate(30.03 32.951)">
            <path id="Trazado_26547" data-name="Trazado 26547" d="M748.328,463.931l16.332,7.982a29.214,29.214,0,0,1-20.474-2.142C735.62,465.585,748.328,463.931,748.328,463.931Z" transform="translate(-741.219 -463.931)" fill="#6a7e8b"/>
          </g>
          <g id="Grupo_10914" data-name="Grupo 10914" transform="translate(4.834 18.197)">
            <path id="Trazado_26548" data-name="Trazado 26548" d="M710.53,459.04a16.824,16.824,0,0,0,31.388,1.138l-30.191-14.754A16.777,16.777,0,0,0,710.53,459.04Z" transform="translate(-709.614 -445.424)" fill="#6a7e8b"/>
          </g>
          <g id="Grupo_10915" data-name="Grupo 10915" transform="translate(4.834 18.197)">
            <path id="Trazado_26549" data-name="Trazado 26549" d="M710.53,459.04a16.814,16.814,0,0,0,3.86,6.283,12.861,12.861,0,0,0,7.558-14.9l-10.222-5A16.777,16.777,0,0,0,710.53,459.04Z" transform="translate(-709.614 -445.424)" fill="#859ead"/>
          </g>
          <g id="Grupo_10916" data-name="Grupo 10916" transform="translate(0.387 12.97)">
            <path id="Rectángulo_3185" data-name="Rectángulo 3185" d="M9.934,0h0a0,0,0,0,1,0,0V11.147a5.883,5.883,0,0,1-5.883,5.883H0a0,0,0,0,1,0,0v-7.1A9.934,9.934,0,0,1,9.934,0Z" transform="matrix(-0.946, 0.325, -0.325, -0.946, 14.927, 16.106)" fill="#6a7e8b"/>
          </g>
          <g id="Grupo_10917" data-name="Grupo 10917" transform="translate(12.4)">
            <path id="Trazado_26550" data-name="Trazado 26550" d="M732.742,453.14a16.261,16.261,0,0,0,.589-30.542L719.1,451.711A16.209,16.209,0,0,0,732.742,453.14Z" transform="translate(-719.104 -422.598)" fill="#97b3c4"/>
          </g>
          <g id="Grupo_10918" data-name="Grupo 10918" transform="translate(12.4 9.412)">
            <path id="Trazado_26551" data-name="Trazado 26551" d="M732.742,455.535a16.2,16.2,0,0,0,6.25-3.913,16.251,16.251,0,0,0-10.26-17.217l-9.628,19.7A16.209,16.209,0,0,0,732.742,455.535Z" transform="translate(-719.104 -434.404)" fill="#859ead"/>
          </g>
          <g id="Grupo_10919" data-name="Grupo 10919" transform="translate(0 20.212)">
            <path id="Trazado_26552" data-name="Trazado 26552" d="M703.55,451.237l2.589-.889-.823-2.4Z" transform="translate(-703.55 -447.952)" fill="#f79561"/>
          </g>
          <g id="Grupo_10920" data-name="Grupo 10920" transform="translate(3.494 18.83)">
            <path id="Trazado_26553" data-name="Trazado 26553" d="M709.022,448.419h0a.507.507,0,0,0,.315-.644l-.417-1.214a.507.507,0,0,0-.644-.315h0a.507.507,0,0,0-.315.644l.418,1.214A.506.506,0,0,0,709.022,448.419Z" transform="translate(-707.933 -446.218)" fill="#33140e"/>
          </g>
        </g>
        <g id="Grupo_10930" data-name="Grupo 10930" transform="translate(327.775 275.656)">
          <g id="Grupo_10922" data-name="Grupo 10922" transform="translate(0 32.951)">
            <path id="Trazado_26554" data-name="Trazado 26554" d="M382.486,337.839l-16.332,7.982a29.214,29.214,0,0,0,20.474-2.142C395.194,339.492,382.486,337.839,382.486,337.839Z" transform="translate(-366.154 -337.839)" fill="#6a7e8b"/>
          </g>
          <g id="Grupo_10923" data-name="Grupo 10923" transform="translate(16.332 18.196)">
            <path id="Trazado_26555" data-name="Trazado 26555" d="M418.029,332.947a16.824,16.824,0,0,1-31.388,1.138l30.191-14.755A16.781,16.781,0,0,1,418.029,332.947Z" transform="translate(-386.641 -319.331)" fill="#6a7e8b"/>
          </g>
          <g id="Grupo_10924" data-name="Grupo 10924" transform="translate(35.936 18.196)">
            <path id="Trazado_26556" data-name="Trazado 26556" d="M423.016,332.947a16.822,16.822,0,0,1-3.86,6.284,12.863,12.863,0,0,1-7.559-14.905l10.222-5A16.781,16.781,0,0,1,423.016,332.947Z" transform="translate(-411.232 -319.331)" fill="#859ead"/>
          </g>
          <g id="Grupo_10925" data-name="Grupo 10925" transform="translate(38.156 12.97)">
            <path id="Rectángulo_3186" data-name="Rectángulo 3186" d="M0,0H4.052A5.883,5.883,0,0,1,9.934,5.883V17.029a0,0,0,0,1,0,0h0A9.934,9.934,0,0,1,0,7.1V0A0,0,0,0,1,0,0Z" transform="matrix(0.946, 0.325, -0.325, 0.946, 5.532, 0)" fill="#6a7e8b"/>
          </g>
          <g id="Grupo_10926" data-name="Grupo 10926" transform="translate(16.448)">
            <path id="Trazado_26557" data-name="Trazado 26557" d="M397.771,327.048a16.261,16.261,0,0,1-.59-30.542l14.228,29.113A16.209,16.209,0,0,1,397.771,327.048Z" transform="translate(-386.786 -296.506)" fill="#97b3c4"/>
          </g>
          <g id="Grupo_10927" data-name="Grupo 10927" transform="translate(21.049 9.411)">
            <path id="Trazado_26558" data-name="Trazado 26558" d="M398.942,329.442a16.187,16.187,0,0,1-6.25-3.914,16.249,16.249,0,0,1,10.259-17.217l9.629,19.7A16.209,16.209,0,0,1,398.942,329.442Z" transform="translate(-392.558 -308.311)" fill="#859ead"/>
          </g>
          <g id="Grupo_10928" data-name="Grupo 10928" transform="translate(50.882 20.212)">
            <path id="Trazado_26559" data-name="Trazado 26559" d="M432.568,325.145l-2.589-.889.823-2.4Z" transform="translate(-429.98 -321.859)" fill="#f79561"/>
          </g>
          <g id="Grupo_10929" data-name="Grupo 10929" transform="translate(48.544 18.83)">
            <path id="Trazado_26560" data-name="Trazado 26560" d="M427.39,322.327h0a.507.507,0,0,1-.315-.644l.418-1.214a.507.507,0,0,1,.644-.315h0a.507.507,0,0,1,.314.644l-.417,1.214A.507.507,0,0,1,427.39,322.327Z" transform="translate(-427.047 -320.126)" fill="#33140e"/>
          </g>
        </g>
        <g id="Grupo_10939" data-name="Grupo 10939" transform="translate(176.913 275.738)">
          <g id="Grupo_10931" data-name="Grupo 10931" transform="translate(0 45.097)">
            <path id="Trazado_26561" data-name="Trazado 26561" d="M199.266,353.178,176.913,364.1a39.987,39.987,0,0,0,28.022-2.931C216.658,355.441,199.266,353.178,199.266,353.178Z" transform="translate(-176.913 -353.178)" fill="#6a7e8b"/>
          </g>
          <g id="Grupo_10932" data-name="Grupo 10932" transform="translate(22.353 24.904)">
            <path id="Trazado_26562" data-name="Trazado 26562" d="M247.911,346.483a23.026,23.026,0,0,1-42.959,1.558l41.321-20.193A22.96,22.96,0,0,1,247.911,346.483Z" transform="translate(-204.952 -327.848)" fill="#6a7e8b"/>
          </g>
          <g id="Grupo_10933" data-name="Grupo 10933" transform="translate(49.184 24.904)">
            <path id="Trazado_26563" data-name="Trazado 26563" d="M254.737,346.483a23.02,23.02,0,0,1-5.283,8.6,17.6,17.6,0,0,1-10.345-20.4l13.99-6.837A22.96,22.96,0,0,1,254.737,346.483Z" transform="translate(-238.609 -327.848)" fill="#859ead"/>
          </g>
          <g id="Grupo_10934" data-name="Grupo 10934" transform="translate(52.222 17.751)">
            <path id="Rectángulo_3187" data-name="Rectángulo 3187" d="M0,0H5.546A8.051,8.051,0,0,1,13.6,8.051V23.307a0,0,0,0,1,0,0h0A13.6,13.6,0,0,1,0,9.71V0A0,0,0,0,1,0,0Z" transform="translate(7.572) rotate(18.957)" fill="#6a7e8b"/>
          </g>
          <g id="Grupo_10935" data-name="Grupo 10935" transform="translate(22.511)">
            <path id="Trazado_26564" data-name="Trazado 26564" d="M220.186,338.409a22.254,22.254,0,0,1-.807-41.8l19.472,39.844A22.182,22.182,0,0,1,220.186,338.409Z" transform="translate(-205.151 -296.609)" fill="#97b3c4"/>
          </g>
          <g id="Grupo_10936" data-name="Grupo 10936" transform="translate(28.809 12.88)">
            <path id="Trazado_26565" data-name="Trazado 26565" d="M221.788,341.686a22.151,22.151,0,0,1-8.554-5.356,22.237,22.237,0,0,1,14.042-23.564l13.177,26.964A22.182,22.182,0,0,1,221.788,341.686Z" transform="translate(-213.051 -312.766)" fill="#859ead"/>
          </g>
          <g id="Grupo_10937" data-name="Grupo 10937" transform="translate(69.639 27.662)">
            <path id="Trazado_26566" data-name="Trazado 26566" d="M267.811,335.805l-3.543-1.217,1.127-3.28Z" transform="translate(-264.268 -331.308)" fill="#f79561"/>
          </g>
          <g id="Grupo_10938" data-name="Grupo 10938" transform="translate(66.44 25.771)">
            <path id="Trazado_26567" data-name="Trazado 26567" d="M260.724,331.948h0a.692.692,0,0,1-.43-.881l.571-1.662a.693.693,0,0,1,.881-.431h0a.694.694,0,0,1,.431.882l-.571,1.662A.7.7,0,0,1,260.724,331.948Z" transform="translate(-260.255 -328.936)" fill="#33140e"/>
          </g>
        </g>
        <g id="Grupo_10948" data-name="Grupo 10948" transform="translate(597.294 217.438)">
          <g id="Grupo_10940" data-name="Grupo 10940" transform="translate(41.1 45.097)">
            <path id="Trazado_26568" data-name="Trazado 26568" d="M765.521,280.048l22.353,10.924a39.984,39.984,0,0,1-28.022-2.932C748.129,282.311,765.521,280.048,765.521,280.048Z" transform="translate(-755.792 -280.048)" fill="#6a7e8b"/>
          </g>
          <g id="Grupo_10941" data-name="Grupo 10941" transform="translate(6.616 24.904)">
            <path id="Trazado_26569" data-name="Trazado 26569" d="M713.789,273.353a23.026,23.026,0,0,0,42.959,1.558l-41.321-20.193A22.963,22.963,0,0,0,713.789,273.353Z" transform="translate(-712.535 -254.718)" fill="#6a7e8b"/>
          </g>
          <g id="Grupo_10942" data-name="Grupo 10942" transform="translate(6.616 24.904)">
            <path id="Trazado_26570" data-name="Trazado 26570" d="M713.789,273.353a23.022,23.022,0,0,0,5.284,8.6,17.6,17.6,0,0,0,10.344-20.4l-13.99-6.837A22.963,22.963,0,0,0,713.789,273.353Z" transform="translate(-712.535 -254.718)" fill="#859ead"/>
          </g>
          <g id="Grupo_10943" data-name="Grupo 10943" transform="translate(0.529 17.751)">
            <path id="Rectángulo_3188" data-name="Rectángulo 3188" d="M13.6,0h0a0,0,0,0,1,0,0V15.256a8.051,8.051,0,0,1-8.051,8.051H0a0,0,0,0,1,0,0V13.6A13.6,13.6,0,0,1,13.6,0Z" transform="matrix(-0.946, 0.325, -0.325, -0.946, 20.431, 22.043)" fill="#6a7e8b"/>
          </g>
          <g id="Grupo_10944" data-name="Grupo 10944" transform="translate(16.97)">
            <path id="Trazado_26571" data-name="Trazado 26571" d="M744.189,265.279a22.255,22.255,0,0,0,.808-41.8l-19.472,39.845A22.182,22.182,0,0,0,744.189,265.279Z" transform="translate(-725.524 -223.478)" fill="#97b3c4"/>
          </g>
          <g id="Grupo_10945" data-name="Grupo 10945" transform="translate(16.97 12.88)">
            <path id="Trazado_26572" data-name="Trazado 26572" d="M744.189,268.556a22.164,22.164,0,0,0,8.555-5.356A22.242,22.242,0,0,0,738.7,239.635L725.524,266.6A22.182,22.182,0,0,0,744.189,268.556Z" transform="translate(-725.524 -239.635)" fill="#859ead"/>
          </g>
          <g id="Grupo_10946" data-name="Grupo 10946" transform="translate(0 27.662)">
            <path id="Trazado_26573" data-name="Trazado 26573" d="M704.237,262.675l3.543-1.217-1.127-3.28Z" transform="translate(-704.237 -258.178)" fill="#f79561"/>
          </g>
          <g id="Grupo_10947" data-name="Grupo 10947" transform="translate(4.783 25.772)">
            <path id="Trazado_26574" data-name="Trazado 26574" d="M711.727,258.818h0a.694.694,0,0,0,.43-.882l-.571-1.661a.694.694,0,0,0-.882-.431h0a.694.694,0,0,0-.43.882l.571,1.662A.694.694,0,0,0,711.727,258.818Z" transform="translate(-710.237 -255.806)" fill="#33140e"/>
          </g>
        </g>
        <g id="Grupo_10957" data-name="Grupo 10957" transform="translate(296.232 333.162)">
          <g id="Grupo_10949" data-name="Grupo 10949" transform="translate(22.721 24.931)">
            <path id="Trazado_26575" data-name="Trazado 26575" d="M360.466,399.914l12.357,6.039a22.1,22.1,0,0,1-15.491-1.62C350.851,401.166,360.466,399.914,360.466,399.914Z" transform="translate(-355.087 -399.914)" fill="#6a7e8b"/>
          </g>
          <g id="Grupo_10950" data-name="Grupo 10950" transform="translate(3.657 13.768)">
            <path id="Trazado_26576" data-name="Trazado 26576" d="M331.867,396.213a12.73,12.73,0,0,0,23.749.861l-22.844-11.163A12.7,12.7,0,0,0,331.867,396.213Z" transform="translate(-331.174 -385.911)" fill="#6a7e8b"/>
          </g>
          <g id="Grupo_10951" data-name="Grupo 10951" transform="translate(3.657 13.768)">
            <path id="Trazado_26577" data-name="Trazado 26577" d="M331.867,396.213a12.726,12.726,0,0,0,2.921,4.754,9.731,9.731,0,0,0,5.719-11.277l-7.734-3.78A12.7,12.7,0,0,0,331.867,396.213Z" transform="translate(-331.174 -385.911)" fill="#859ead"/>
          </g>
          <g id="Grupo_10952" data-name="Grupo 10952" transform="translate(0.293 9.813)">
            <path id="Rectángulo_3189" data-name="Rectángulo 3189" d="M7.517,0h0a0,0,0,0,1,0,0V8.434a4.451,4.451,0,0,1-4.451,4.451H0a0,0,0,0,1,0,0V7.517A7.517,7.517,0,0,1,7.517,0Z" transform="translate(11.294 12.186) rotate(161.045)" fill="#6a7e8b"/>
          </g>
          <g id="Grupo_10953" data-name="Grupo 10953" transform="translate(9.381)">
            <path id="Trazado_26578" data-name="Trazado 26578" d="M348.673,391.749a12.3,12.3,0,0,0,.446-23.108l-10.765,22.027A12.263,12.263,0,0,0,348.673,391.749Z" transform="translate(-338.354 -368.641)" fill="#97b3c4"/>
          </g>
          <g id="Grupo_10954" data-name="Grupo 10954" transform="translate(9.381 7.121)">
            <path id="Trazado_26579" data-name="Trazado 26579" d="M348.673,393.561A12.251,12.251,0,0,0,353.4,390.6a12.3,12.3,0,0,0-7.763-13.027l-7.285,14.907A12.263,12.263,0,0,0,348.673,393.561Z" transform="translate(-338.354 -377.573)" fill="#859ead"/>
          </g>
          <g id="Grupo_10955" data-name="Grupo 10955" transform="translate(0 15.292)">
            <path id="Trazado_26580" data-name="Trazado 26580" d="M326.586,390.31l1.959-.673-.623-1.813Z" transform="translate(-326.586 -387.824)" fill="#f79561"/>
          </g>
          <g id="Grupo_10956" data-name="Grupo 10956" transform="translate(2.644 14.247)">
            <path id="Trazado_26581" data-name="Trazado 26581" d="M330.727,388.177h0a.384.384,0,0,0,.238-.487l-.316-.918a.382.382,0,0,0-.487-.238h0a.384.384,0,0,0-.238.487l.316.919A.383.383,0,0,0,330.727,388.177Z" transform="translate(-329.903 -386.512)" fill="#33140e"/>
          </g>
        </g>
        <g id="Grupo_10966" data-name="Grupo 10966" transform="translate(421.417 280.203)">
          <g id="Grupo_10958" data-name="Grupo 10958" transform="translate(0 16.809)">
            <path id="Trazado_26582" data-name="Trazado 26582" d="M497.414,323.3l-13.8,5.617a23.937,23.937,0,0,0,16.858-.613C507.71,325.353,497.414,323.3,497.414,323.3Z" transform="translate(-483.618 -323.295)" fill="#9fbdcf"/>
          </g>
          <g id="Grupo_10959" data-name="Grupo 10959" transform="translate(13.795 6.424)">
            <path id="Trazado_26583" data-name="Trazado 26583" d="M526.647,321.466a13.786,13.786,0,0,1-25.724-.813l25.5-10.385A13.747,13.747,0,0,1,526.647,321.466Z" transform="translate(-500.923 -310.268)" fill="#9fbdcf"/>
          </g>
          <g id="Grupo_10960" data-name="Grupo 10960" transform="translate(30.172 6.424)">
            <path id="Trazado_26584" data-name="Trazado 26584" d="M530.813,321.466a13.766,13.766,0,0,1-3.505,4.923,10.54,10.54,0,0,1-5.351-12.605l8.635-3.516A13.747,13.747,0,0,1,530.813,321.466Z" transform="translate(-521.466 -310.268)" fill="#b2d2e8"/>
          </g>
          <g id="Grupo_10961" data-name="Grupo 10961" transform="translate(31.853 1.994)">
            <path id="Rectángulo_3190" data-name="Rectángulo 3190" d="M3.866,0h0A4.274,4.274,0,0,1,8.14,4.274v9.68a0,0,0,0,1,0,0H7.218A7.218,7.218,0,0,1,0,6.736V3.866A3.866,3.866,0,0,1,3.866,0Z" transform="translate(5.417) rotate(22.844)" fill="#fff"/>
          </g>
          <g id="Grupo_10962" data-name="Grupo 10962" transform="translate(10.473 0)">
            <path id="Trazado_26585" data-name="Trazado 26585" d="M512.721,318.335A11.59,11.59,0,0,1,498.09,302.21l21.284,8.965A11.553,11.553,0,0,1,512.721,318.335Z" transform="translate(-496.755 -302.21)" fill="#fff"/>
          </g>
          <g id="Grupo_10963" data-name="Grupo 10963" transform="translate(17.353 2.898)">
            <path id="Trazado_26586" data-name="Trazado 26586" d="M514.472,319.072a11.557,11.557,0,0,1-5.191.827,11.582,11.582,0,0,1-2.56-14.055l14.4,6.067A11.553,11.553,0,0,1,514.472,319.072Z" transform="translate(-505.385 -305.845)" fill="#b2d2e8"/>
          </g>
          <g id="Grupo_10964" data-name="Grupo 10964" transform="translate(42.616 8.359)">
            <path id="Trazado_26587" data-name="Trazado 26587" d="M539.142,315.48l-2.067-.871.806-1.914Z" transform="translate(-537.075 -312.696)" fill="#f79561"/>
          </g>
          <g id="Grupo_10965" data-name="Grupo 10965" transform="translate(40.818 7.105)">
            <path id="Trazado_26588" data-name="Trazado 26588" d="M535.074,312.889h0a.415.415,0,0,1-.222-.544l.408-.969a.416.416,0,0,1,.545-.222h0a.416.416,0,0,1,.222.544l-.409.97A.414.414,0,0,1,535.074,312.889Z" transform="translate(-534.82 -311.122)" fill="#33140e"/>
          </g>
        </g>
        <g id="Grupo_10975" data-name="Grupo 10975" transform="translate(384.95 193.696)">
          <g id="Grupo_10967" data-name="Grupo 10967" transform="translate(0 24.096)">
            <path id="Trazado_26589" data-name="Trazado 26589" d="M449.216,224.345l-11.343,11.343a25.781,25.781,0,0,0,16.474-7.656C460.3,222.081,449.216,224.345,449.216,224.345Z" transform="translate(-437.873 -223.922)" fill="#6a7e8b"/>
          </g>
          <g id="Grupo_10968" data-name="Grupo 10968" transform="translate(11.343 3.55)">
            <path id="Trazado_26590" data-name="Trazado 26590" d="M477.972,209.169a14.847,14.847,0,0,1-25.871,9.948l20.969-20.969A14.806,14.806,0,0,1,477.972,209.169Z" transform="translate(-452.101 -198.149)" fill="#6a7e8b"/>
          </g>
          <g id="Grupo_10969" data-name="Grupo 10969" transform="translate(25.212 3.55)">
            <path id="Trazado_26591" data-name="Trazado 26591" d="M481.5,209.169a14.846,14.846,0,0,1-1.421,6.352A11.352,11.352,0,0,1,469.5,205.248l7.1-7.1A14.806,14.806,0,0,1,481.5,209.169Z" transform="translate(-469.499 -198.149)" fill="#859ead"/>
          </g>
          <g id="Grupo_10970" data-name="Grupo 10970" transform="translate(28.447)">
            <path id="Rectángulo_3191" data-name="Rectángulo 3191" d="M0,0H3.576A5.191,5.191,0,0,1,8.767,5.191v9.837a0,0,0,0,1,0,0h0A8.767,8.767,0,0,1,0,6.261V0A0,0,0,0,1,0,0Z" fill="#97b3c4"/>
          </g>
          <g id="Grupo_10971" data-name="Grupo 10971" transform="translate(2.296 8.666)">
            <path id="Trazado_26592" data-name="Trazado 26592" d="M462.062,214.454a12.481,12.481,0,0,1-21.262-9.887h24.873A12.439,12.439,0,0,1,462.062,214.454Z" transform="translate(-440.753 -204.567)" fill="#97b3c4"/>
          </g>
          <g id="Grupo_10972" data-name="Grupo 10972" transform="translate(10.337 8.666)">
            <path id="Trazado_26593" data-name="Trazado 26593" d="M464.108,214.454a12.423,12.423,0,0,1-4.806,2.992,12.476,12.476,0,0,1-8.416-12.879h16.832A12.439,12.439,0,0,1,464.108,214.454Z" transform="translate(-450.839 -204.567)" fill="#859ead"/>
          </g>
          <g id="Grupo_10973" data-name="Grupo 10973" transform="translate(37.214 3.746)">
            <path id="Trazado_26594" data-name="Trazado 26594" d="M486.969,200.632h-2.415V198.4Z" transform="translate(-484.554 -198.395)" fill="#f79561"/>
          </g>
          <g id="Grupo_10974" data-name="Grupo 10974" transform="translate(34.649 3.21)">
            <path id="Trazado_26595" data-name="Trazado 26595" d="M481.784,199.75h0a.447.447,0,0,1-.447-.447V198.17a.447.447,0,0,1,.447-.447h0a.447.447,0,0,1,.447.447V199.3A.447.447,0,0,1,481.784,199.75Z" transform="translate(-481.337 -197.723)" fill="#33140e"/>
          </g>
        </g>
        <g id="Grupo_10984" data-name="Grupo 10984" transform="translate(735.154 310.77)">
          <g id="Grupo_10976" data-name="Grupo 10976" transform="translate(26.03 28.561)">
            <path id="Trazado_26596" data-name="Trazado 26596" d="M915.98,376.38l14.157,6.918a25.322,25.322,0,0,1-17.747-1.857C904.966,377.813,915.98,376.38,915.98,376.38Z" transform="translate(-909.819 -376.38)" fill="#6a7e8b"/>
          </g>
          <g id="Grupo_10977" data-name="Grupo 10977" transform="translate(4.19 15.772)">
            <path id="Trazado_26597" data-name="Trazado 26597" d="M883.217,372.14a14.583,14.583,0,0,0,27.208.987l-26.17-12.789A14.547,14.547,0,0,0,883.217,372.14Z" transform="translate(-882.423 -360.337)" fill="#6a7e8b"/>
          </g>
          <g id="Grupo_10978" data-name="Grupo 10978" transform="translate(4.19 15.772)">
            <path id="Trazado_26598" data-name="Trazado 26598" d="M883.217,372.14a14.576,14.576,0,0,0,3.346,5.447,11.15,11.15,0,0,0,6.552-12.919l-8.861-4.33A14.547,14.547,0,0,0,883.217,372.14Z" transform="translate(-882.423 -360.337)" fill="#859ead"/>
          </g>
          <g id="Grupo_10979" data-name="Grupo 10979" transform="translate(0.335 11.242)">
            <path id="Rectángulo_3192" data-name="Rectángulo 3192" d="M8.611,0h0a0,0,0,0,1,0,0V9.662a5.1,5.1,0,0,1-5.1,5.1H0a0,0,0,0,1,0,0V8.611A8.611,8.611,0,0,1,8.611,0Z" transform="translate(12.939 13.961) rotate(161.045)" fill="#6a7e8b"/>
          </g>
          <g id="Grupo_10980" data-name="Grupo 10980" transform="translate(10.748)">
            <path id="Trazado_26599" data-name="Trazado 26599" d="M902.47,367.026a14.094,14.094,0,0,0,.511-26.473l-12.332,25.234A14.046,14.046,0,0,0,902.47,367.026Z" transform="translate(-890.649 -340.553)" fill="#97b3c4"/>
          </g>
          <g id="Grupo_10981" data-name="Grupo 10981" transform="translate(10.748 8.157)">
            <path id="Trazado_26600" data-name="Trazado 26600" d="M902.47,369.1a14.039,14.039,0,0,0,5.418-3.392,14.087,14.087,0,0,0-8.893-14.924l-8.346,17.078A14.046,14.046,0,0,0,902.47,369.1Z" transform="translate(-890.649 -350.785)" fill="#859ead"/>
          </g>
          <g id="Grupo_10982" data-name="Grupo 10982" transform="translate(0 17.519)">
            <path id="Trazado_26601" data-name="Trazado 26601" d="M877.167,365.377l2.244-.771-.714-2.078Z" transform="translate(-877.167 -362.529)" fill="#f79561"/>
          </g>
          <g id="Grupo_10983" data-name="Grupo 10983" transform="translate(3.029 16.322)">
            <path id="Trazado_26602" data-name="Trazado 26602" d="M881.911,362.934h0a.439.439,0,0,0,.273-.558l-.362-1.052a.439.439,0,0,0-.558-.273h0a.439.439,0,0,0-.273.558l.361,1.052A.44.44,0,0,0,881.911,362.934Z" transform="translate(-880.967 -361.027)" fill="#33140e"/>
          </g>
        </g>
      </g>
    </g>
  </g>
</svg>
