<svg xmlns="http://www.w3.org/2000/svg" xmlns:xlink="http://www.w3.org/1999/xlink" width="548.333" height="343.28" viewBox="0 0 548.333 343.28">
  <defs>
    <clipPath id="clip-path">
      <rect id="Rectángulo_341646" data-name="Rectángulo 341646" width="548.333" height="343.28" fill="none"/>
    </clipPath>
    <clipPath id="clip-path-2">
      <rect id="Rectángulo_341642" data-name="Rectángulo 341642" width="610.278" height="343.28" fill="none"/>
    </clipPath>
    <clipPath id="clip-path-3">
      <rect id="Rectángulo_341634" data-name="Rectángulo 341634" width="427.137" height="427.135" fill="none"/>
    </clipPath>
    <clipPath id="clip-path-4">
      <rect id="Rectángulo_341635" data-name="Rectángulo 341635" width="428.045" height="428.045" fill="none"/>
    </clipPath>
    <clipPath id="clip-path-5">
      <rect id="Rectángulo_341636" data-name="Rectángulo 341636" width="364.7" height="364.7" fill="none"/>
    </clipPath>
    <clipPath id="clip-path-6">
      <rect id="Rectángulo_341637" data-name="Rectángulo 341637" width="309.202" height="309.203" fill="none"/>
    </clipPath>
    <clipPath id="clip-path-7">
      <rect id="Rectángulo_341638" data-name="Rectángulo 341638" width="57.099" height="64.759" fill="none"/>
    </clipPath>
    <clipPath id="clip-path-8">
      <rect id="Rectángulo_341639" data-name="Rectángulo 341639" width="130.402" height="64.828" fill="none"/>
    </clipPath>
    <clipPath id="clip-path-9">
      <rect id="Rectángulo_341640" data-name="Rectángulo 341640" width="255.258" height="193.37" fill="none"/>
    </clipPath>
    <clipPath id="clip-path-10">
      <rect id="Rectángulo_341641" data-name="Rectángulo 341641" width="108.205" height="117.78" fill="none"/>
    </clipPath>
    <clipPath id="clip-path-11">
      <rect id="Rectángulo_341645" data-name="Rectángulo 341645" width="721.499" height="511.49" fill="none"/>
    </clipPath>
    <clipPath id="clip-path-12">
      <rect id="Rectángulo_341643" data-name="Rectángulo 341643" width="58.458" height="42.359" fill="none"/>
    </clipPath>
    <clipPath id="clip-path-13">
      <rect id="Rectángulo_341644" data-name="Rectángulo 341644" width="28.443" height="23.317" fill="none"/>
    </clipPath>
  </defs>
  <g id="Grupo_970054" data-name="Grupo 970054" transform="translate(-44 -20.027)">
    <g id="Grupo_970053" data-name="Grupo 970053" transform="translate(44 20.027)" clip-path="url(#clip-path)">
      <g id="Grupo_970044" data-name="Grupo 970044" transform="translate(-61.945 0)">
        <g id="Grupo_970043" data-name="Grupo 970043" clip-path="url(#clip-path-2)">
          <path id="Trazado_733536" data-name="Trazado 733536" d="M438.84,8.48c.615,11.456-9.5,21.213-20.536,24.351s-22.784,1.308-34.157-.211-23.362-2.627-33.951,1.787-19,16.189-15.723,27.184c4.09,13.736,22.905,18.785,27.1,32.49,2.913,9.516-2.709,19.925-10.666,25.9s-17.849,8.6-27.336,11.6c-25.106,7.957-51.927,22.806-57.657,48.513-3.8,17.05,2.785,34.434,6.424,51.52s3.117,37.692-10.584,48.531c-12.538,9.92-31.068,7.269-45.439.263s-26.819-17.722-41.68-23.616-34.215-5.5-44.192,6.991c-9.066,11.354-6.1,25.759-7.913,39.066-1.709,12.578-.556,26.349-6.936,37.734A42.086,42.086,0,0,1,88.843,360.72c-10.076,2.362-20.943.95-30.6,4.666-13.893,5.343-22.327,21.981-18.424,36.346,22.285.348,45.232.779,67.517,1.128H610.665c2.04-11.475,1.619-23.811,3.659-35.286V0Z" transform="translate(15.848 -28.194)" fill="#28454f"/>
          <g id="Grupo_970021" data-name="Grupo 970021" transform="translate(293.907 55.705)" opacity="0.3" style="mix-blend-mode: soft-light;isolation: isolate">
            <g id="Grupo_970020" data-name="Grupo 970020">
              <g id="Grupo_970019" data-name="Grupo 970019" clip-path="url(#clip-path-3)">
                <path id="Trazado_733537" data-name="Trazado 733537" d="M635.9,273.163c0,117.95-95.618,213.568-213.568,213.568S208.766,391.113,208.766,273.163,304.384,59.6,422.334,59.6,635.9,155.213,635.9,273.163" transform="translate(-208.765 -59.595)" fill="#fff"/>
              </g>
            </g>
          </g>
          <g id="Grupo_970024" data-name="Grupo 970024" transform="translate(293.454 55.251)" opacity="0.5" style="mix-blend-mode: soft-light;isolation: isolate">
            <g id="Grupo_970023" data-name="Grupo 970023">
              <g id="Grupo_970022" data-name="Grupo 970022" clip-path="url(#clip-path-4)">
                <circle id="Elipse_5885" data-name="Elipse 5885" cx="213.568" cy="213.568" r="213.568" transform="translate(0.454 0.455)" fill="none" stroke="#fff" stroke-miterlimit="10" stroke-width="0.646"/>
              </g>
            </g>
          </g>
          <g id="Grupo_970027" data-name="Grupo 970027" transform="translate(325.126 86.923)" opacity="0.3" style="mix-blend-mode: soft-light;isolation: isolate">
            <g id="Grupo_970026" data-name="Grupo 970026">
              <g id="Grupo_970025" data-name="Grupo 970025" clip-path="url(#clip-path-5)">
                <path id="Trazado_733538" data-name="Trazado 733538" d="M595.64,264.119A182.35,182.35,0,1,1,413.29,81.769a182.35,182.35,0,0,1,182.35,182.35" transform="translate(-230.94 -81.769)" fill="#fff"/>
              </g>
            </g>
          </g>
          <g id="Grupo_970030" data-name="Grupo 970030" transform="translate(352.875 114.671)" opacity="0.5" style="mix-blend-mode: soft-light;isolation: isolate">
            <g id="Grupo_970029" data-name="Grupo 970029">
              <g id="Grupo_970028" data-name="Grupo 970028" clip-path="url(#clip-path-6)">
                <path id="Trazado_733539" data-name="Trazado 733539" d="M559.852,256.081a154.6,154.6,0,1,1-154.6-154.6,154.6,154.6,0,0,1,154.6,154.6" transform="translate(-250.65 -101.479)" fill="#fff"/>
              </g>
            </g>
          </g>
          <path id="Trazado_733540" data-name="Trazado 733540" d="M386.1,119.435H486c-.232-2.657-1.927-6.041-4.343-7.173a7.813,7.813,0,0,0-7.615.643c.631-8.233-.2-16.745-3.739-24.2s-10.049-13.753-18.051-15.786-17.357.832-21.893,7.733a16.947,16.947,0,0,0-25.882-9.114c-4.8,3.317-7.594,8.95-8.7,14.677s-.726,11.625-.339,17.445c-1.608-3-6.4-3.521-9.3-1.737s-4.315,5.391-4.245,8.8,2.666,5.682,4.212,8.72" transform="translate(155.746 -0.235)" fill="#fff"/>
          <path id="Trazado_733541" data-name="Trazado 733541" d="M241.13,196.991h55.7A5.562,5.562,0,0,0,294,192.7a6.239,6.239,0,0,0-5.468,0,21.32,21.32,0,0,0,.933-9.656c-.589-3.21-2.595-6.316-5.647-7.47s-7.055.231-8.137,3.31a16.567,16.567,0,0,0-2.8-6.9,8.9,8.9,0,0,0-6.28-3.684c-4.145-.286-7.8,3.2-9.12,7.136s-.867,8.225-.394,12.352c-1.67-2.057-3.722-4.3-6.372-4.256-2.3.041-4.245,1.93-5.078,4.077a17.59,17.59,0,0,0-.736,6.824,2.838,2.838,0,0,0-3.489-.755c-1.138.588-.715,2.1-.287,3.307" transform="translate(98.161 40.44)" fill="#fff"/>
          <path id="Trazado_733542" data-name="Trazado 733542" d="M132.058,262.615h83.6c.234-2.734-.229-4.281-2.485-5.844a8,8,0,0,0-7.832-.634c2.482-3.935,5-7.968,6.041-12.5s.321-9.749-2.982-13.027-9.489-3.617-12.351.051c-.311-5.724-.966-11.695-4.114-16.486s-9.528-7.929-14.781-5.631c-3.494,1.529-5.709,5.011-7.284,8.485a47.6,47.6,0,0,0-4.108,22.848,11.985,11.985,0,0,0-10.54-9.684,13.2,13.2,0,0,0-12.606,7.19,14.709,14.709,0,0,0,1.2,14.643c-1.643-1.444-4.487-.943-6.417.087a9.05,9.05,0,0,0-4,5.018,19.208,19.208,0,0,0-1.336,5.488" transform="translate(53.858 56.543)" fill="#fff"/>
          <path id="Trazado_733543" data-name="Trazado 733543" d="M300.962,110.041a3.892,3.892,0,0,0-5.357-.866c1.843-6.317,3.615-12.782,3.4-19.359s-2.72-13.391-7.988-17.335-13.548-4.064-17.982.8a17.043,17.043,0,0,0-25.379-18.759c-4.621,2.811-7.667,7.711-9.317,12.862a59.564,59.564,0,0,0-2.261,13.648,8.454,8.454,0,0,0-6.5-6.969c-4.122-.855-8.458,1.273-11.122,4.532s-3.887,7.473-4.474,11.641-.6,8.4-1.188,12.569a8.983,8.983,0,0,0-6.254-4.568,8.676,8.676,0,0,0-7.279,2.217,9.723,9.723,0,0,0-2.895,6.691c-.089,2.492,1.65,6.445,2.948,8.572H300.427c1.729-1.05,1.675-4,.535-5.674" transform="translate(80.083 -6.939)" fill="#fff"/>
          <path id="Trazado_733544" data-name="Trazado 733544" d="M290.623,280.951c-17.561,2.527-35.839,1.923-52.54-4.062s-31.71-17.711-39.583-33.611c15.713-1.325,32.466-2.265,47.31,3.056,18,6.452,32.965,19.613,44.813,34.616" transform="translate(80.956 70.603)" fill="#d2e6a0"/>
          <path id="Trazado_733545" data-name="Trazado 733545" d="M283.173,277.215A154.876,154.876,0,0,0,203.1,244.491c-.576-.062-.572.84,0,.9a154.209,154.209,0,0,1,79.432,32.461c.451.358,1.092-.277.638-.638" transform="translate(82.658 71.517)" fill="#ecf7cb"/>
          <path id="Trazado_733546" data-name="Trazado 733546" d="M422.218,102.773a25.871,25.871,0,0,1,22.524,19.808,10.755,10.755,0,0,1-6.755.269,17.552,17.552,0,0,1-5.961-3.044c-5.423-4.05-8.581-10.377-9.808-17.033" transform="translate(172.197 13.72)" fill="#72b289"/>
          <path id="Trazado_733547" data-name="Trazado 733547" d="M416.586,91.89a25.87,25.87,0,0,1,26.408,14.225,10.756,10.756,0,0,1-6.52,1.784,17.546,17.546,0,0,1-6.493-1.622c-6.2-2.726-10.7-8.178-13.4-14.387" transform="translate(169.9 9.202)" fill="#72b289"/>
          <path id="Trazado_733548" data-name="Trazado 733548" d="M408.007,82.693a25.87,25.87,0,0,1,29.439,5.747,10.759,10.759,0,0,1-5.7,3.639,17.561,17.561,0,0,1-6.683.377c-6.727-.764-12.644-4.635-17.06-9.763" transform="translate(166.401 4.592)" fill="#72b289"/>
          <path id="Trazado_733549" data-name="Trazado 733549" d="M398.372,72.785a25.868,25.868,0,0,1,29.835,3.089,10.747,10.747,0,0,1-5.348,4.133,17.558,17.558,0,0,1-6.621.976c-6.767-.159-13.007-3.484-17.865-8.2" transform="translate(162.471 0.121)" fill="#72b289"/>
          <path id="Trazado_733550" data-name="Trazado 733550" d="M389.786,63.514a25.873,25.873,0,0,1,29.638,4.618,10.753,10.753,0,0,1-5.554,3.853,17.551,17.551,0,0,1-6.663.634c-6.751-.507-12.811-4.147-17.421-9.1" transform="translate(158.97 -3.404)" fill="#72b289"/>
          <path id="Trazado_733551" data-name="Trazado 733551" d="M443.4,75.966a25.87,25.87,0,0,0-9.34,28.5,10.757,10.757,0,0,0,5.955-3.2,17.556,17.556,0,0,0,3.589-5.65c2.613-6.244,2.12-13.3-.2-19.655" transform="translate(176.554 2.787)" fill="#72b289"/>
          <path id="Trazado_733552" data-name="Trazado 733552" d="M429.36,59.464a25.868,25.868,0,0,0-3.193,29.825,10.766,10.766,0,0,0,5.157-4.37,17.587,17.587,0,0,0,2.333-6.275c1.254-6.651-.7-13.448-4.3-19.18" transform="translate(172.457 -3.943)" fill="#72b289"/>
          <path id="Trazado_733553" data-name="Trazado 733553" d="M413.449,48.208a25.873,25.873,0,0,0,3.166,29.828,10.767,10.767,0,0,0,4.121-5.36,17.539,17.539,0,0,0,.956-6.624c-.176-6.767-3.517-13-8.243-17.844" transform="translate(167.266 -8.534)" fill="#72b289"/>
          <path id="Trazado_733554" data-name="Trazado 733554" d="M410.363,66.693A91.8,91.8,0,0,1,435.57,93.836a95.871,95.871,0,0,1,12.816,34.5,89.6,89.6,0,0,1,.925,20.851c-.042.58.86.577.9,0a92.661,92.661,0,0,0-5.006-37.056,96.811,96.811,0,0,0-18.779-32.21,90.605,90.605,0,0,0-15.61-14.011c-.474-.336-.926.446-.455.779" transform="translate(167.28 -1.346)" fill="#497c5a"/>
          <path id="Trazado_733555" data-name="Trazado 733555" d="M444,121.468A38.67,38.67,0,0,0,425.3,105.137c-.536-.221-.77.65-.239.87a37.7,37.7,0,0,1,18.156,15.916.451.451,0,0,0,.779-.455" transform="translate(173.235 14.67)" fill="#497c5a"/>
          <path id="Trazado_733556" data-name="Trazado 733556" d="M442.624,105.424A43.672,43.672,0,0,0,420.043,92.9c-.566-.118-.808.752-.239.87a42.84,42.84,0,0,1,22.182,12.289c.4.421,1.039-.218.638-.638" transform="translate(171.08 9.69)" fill="#497c5a"/>
          <path id="Trazado_733557" data-name="Trazado 733557" d="M435.876,87.367a62.559,62.559,0,0,0-23.3-5.426c-.581-.021-.58.881,0,.9a61.405,61.405,0,0,1,22.849,5.3c.525.235.984-.542.455-.779" transform="translate(168.085 5.224)" fill="#497c5a"/>
          <path id="Trazado_733558" data-name="Trazado 733558" d="M425.985,88c-1.049-4.2-.9-8.541-.764-12.832.13-4.191.379-8.515,2.531-12.228a.452.452,0,0,0-.78-.455c-2.175,3.752-2.506,8.106-2.644,12.348-.145,4.483-.308,9.02.787,13.407a.451.451,0,0,0,.87-.239" transform="translate(173.015 -2.801)" fill="#497c5a"/>
          <path id="Trazado_733559" data-name="Trazado 733559" d="M425.741,74.7a65.154,65.154,0,0,0-20.332-3.659.452.452,0,0,0,0,.9A64.232,64.232,0,0,1,425.5,75.57c.548.193.784-.679.239-.871" transform="translate(165.164 0.778)" fill="#497c5a"/>
          <path id="Trazado_733560" data-name="Trazado 733560" d="M416.633,75.853c-2.472-7.318-4.977-14.906-3.949-22.734.075-.573-.828-.567-.9,0-1.036,7.9,1.487,15.588,3.981,22.973.184.548,1.056.313.87-.239" transform="translate(167.843 -6.705)" fill="#497c5a"/>
          <path id="Trazado_733561" data-name="Trazado 733561" d="M416.52,67.534a34.549,34.549,0,0,0-20-5.971.451.451,0,0,0,0,.9,33.708,33.708,0,0,1,19.545,5.847c.48.328.932-.453.455-.779" transform="translate(161.538 -3.089)" fill="#497c5a"/>
          <path id="Trazado_733562" data-name="Trazado 733562" d="M269.874,239.543a33.214,33.214,0,0,0,20.744,32.444,13.813,13.813,0,0,0,1.658-8.519,22.546,22.546,0,0,0-2.7-8.158c-4.083-7.67-11.5-12.911-19.7-15.766" transform="translate(110.048 69.5)" fill="#72b289"/>
          <path id="Trazado_733563" data-name="Trazado 733563" d="M257.441,230.263a33.213,33.213,0,0,0,12.9,36.284,13.823,13.823,0,0,0,3.535-7.926,22.548,22.548,0,0,0-.793-8.557c-2.25-8.394-8.289-15.169-15.642-19.8" transform="translate(104.483 65.715)" fill="#72b289"/>
          <path id="Trazado_733564" data-name="Trazado 733564" d="M247.868,217.465a33.209,33.209,0,0,0,1.554,38.478,13.813,13.813,0,0,0,5.727-6.52,22.549,22.549,0,0,0,1.782-8.408c.342-8.682-3.415-16.946-9.064-23.55" transform="translate(98.889 60.496)" fill="#72b289"/>
          <path id="Trazado_733565" data-name="Trazado 733565" d="M237.29,203.247a33.214,33.214,0,0,0-1.9,38.462,13.806,13.806,0,0,0,6.287-5.982,22.529,22.529,0,0,0,2.528-8.213c1.118-8.617-1.885-17.184-6.92-24.267" transform="translate(93.868 54.697)" fill="#72b289"/>
          <path id="Trazado_733566" data-name="Trazado 733566" d="M227.135,190.58a33.215,33.215,0,0,0,.083,38.509,13.818,13.818,0,0,0,5.972-6.3,22.57,22.57,0,0,0,2.1-8.333c.673-8.664-2.766-17.064-8.157-23.88" transform="translate(90.143 49.531)" fill="#72b289"/>
          <path id="Trazado_733567" data-name="Trazado 733567" d="M251.617,278.126A33.211,33.211,0,0,1,286.158,261.1a13.806,13.806,0,0,1-2.99,8.147,22.537,22.537,0,0,1-6.532,5.583c-7.464,4.45-16.518,5.1-25.019,3.293" transform="translate(102.619 78.122)" fill="#72b289"/>
          <path id="Trazado_733568" data-name="Trazado 733568" d="M232.309,260.134A33.21,33.21,0,0,1,270.3,253.84a13.8,13.8,0,0,1-5.22,6.931,22.537,22.537,0,0,1-7.87,3.453c-8.433,2.1-17.287.1-24.9-4.091" transform="translate(94.744 73.961)" fill="#72b289"/>
          <path id="Trazado_733569" data-name="Trazado 733569" d="M213.88,239.306a33.214,33.214,0,0,1,38.468,1.763,13.8,13.8,0,0,1-6.551,5.692,22.514,22.514,0,0,1-8.416,1.736c-8.685.3-16.928-3.507-23.5-9.19" transform="translate(87.228 67.243)" fill="#72b289"/>
          <path id="Trazado_733570" data-name="Trazado 733570" d="M202.519,217.172a33.209,33.209,0,0,1,37.232,9.834,13.814,13.814,0,0,1-7.6,4.183,22.535,22.535,0,0,1-8.592-.077c-8.553-1.543-15.809-7-21.036-13.939" transform="translate(82.595 59.512)" fill="#72b289"/>
          <path id="Trazado_733571" data-name="Trazado 733571" d="M225.44,217.854a118.757,118.757,0,0,0,29.788,37.619,124.117,124.117,0,0,0,41.627,23.181,116.041,116.041,0,0,0,26.517,5.288c.58.046.576-.856,0-.9a117.865,117.865,0,0,1-45.686-13.481A123.242,123.242,0,0,1,240.9,239.822,115.04,115.04,0,0,1,226.219,217.4c-.259-.521-1.038-.063-.779.455" transform="translate(91.922 60.375)" fill="#497c5a"/>
          <path id="Trazado_733572" data-name="Trazado 733572" d="M257.51,273.24a69.393,69.393,0,0,1,12.74-7.312,89.79,89.79,0,0,1,14.758-4.774.451.451,0,0,0-.239-.87,91.8,91.8,0,0,0-14.684,4.737,69.4,69.4,0,0,0-13.03,7.44c-.466.336-.017,1.119.455.779" transform="translate(104.757 77.952)" fill="#497c5a"/>
          <path id="Trazado_733573" data-name="Trazado 733573" d="M290,270a48.554,48.554,0,0,1-16.752-26.325c-.138-.563-1.008-.325-.87.241a49.342,49.342,0,0,0,16.984,26.722c.449.36,1.091-.274.638-.638" transform="translate(111.081 71.055)" fill="#497c5a"/>
          <path id="Trazado_733574" data-name="Trazado 733574" d="M270.1,265.32a55.066,55.066,0,0,1-11.318-30.591c-.03-.577-.932-.581-.9,0a55.865,55.865,0,0,0,11.44,31.046c.349.455,1.132.006.779-.455" transform="translate(105.172 67.359)" fill="#497c5a"/>
          <path id="Trazado_733575" data-name="Trazado 733575" d="M267.863,252.851c-10-.583-20.415-1.114-29.863,2.844-.527.221-.3,1.094.241.87,9.379-3.929,19.691-3.39,29.622-2.811.58.034.579-.869,0-.9" transform="translate(96.944 74.763)" fill="#497c5a"/>
          <path id="Trazado_733576" data-name="Trazado 733576" d="M248.769,253.477a79.048,79.048,0,0,1-2.292-30.209c.068-.574-.835-.57-.9,0a79.73,79.73,0,0,0,2.324,30.449.451.451,0,0,0,.87-.239" transform="translate(99.934 62.687)" fill="#497c5a"/>
          <path id="Trazado_733577" data-name="Trazado 733577" d="M250.87,239.852c-5.112-2.154-10.645-2.827-16.106-3.5-5.572-.683-11.374-1.266-16.728.842-.535.21-.3,1.083.239.87,5.282-2.081,10.991-1.484,16.489-.81,5.384.659,10.828,1.34,15.866,3.463.534.225.767-.648.239-.87" transform="translate(88.8 67.944)" fill="#497c5a"/>
          <path id="Trazado_733578" data-name="Trazado 733578" d="M234.764,238.3a82.123,82.123,0,0,1-.683-26.118c.077-.567-.793-.814-.87-.239a83.478,83.478,0,0,0,.683,26.6c.107.57.977.329.87-.239" transform="translate(94.805 58.109)" fill="#497c5a"/>
          <path id="Trazado_733579" data-name="Trazado 733579" d="M237.262,226.141c-8.909-4.618-18.2-9.34-28.454-9.549a.451.451,0,0,0,0,.9c10.091.207,19.235,4.884,28,9.425.514.268.971-.511.455-.779" transform="translate(84.982 60.14)" fill="#497c5a"/>
          <path id="Trazado_733580" data-name="Trazado 733580" d="M227.353,224.945a43.21,43.21,0,0,1-3.6-25.893c.1-.569-.77-.812-.869-.241a44.239,44.239,0,0,0,3.689,26.588c.251.524,1.028.066.779-.455" transform="translate(90.64 52.755)" fill="#497c5a"/>
          <path id="Trazado_733581" data-name="Trazado 733581" d="M284.639,281.167c-5.018-.391-10.094-1.422-14.425-3.986s-7.842-6.848-8.553-11.83,1.877-10.51,6.549-12.378a60.567,60.567,0,0,1-20.246-26.59c-2.278-5.882-3.628-12.3-2.554-18.514s4.888-12.181,10.678-14.678c6.444-2.78,14.181-.819,19.827,3.349s9.565,10.234,13.028,16.337c9.413,16.586,16.394,34.465,21.893,52.726.819,2.719,1.612,5.579,1.042,8.361-1.093,5.317-5.737,5.682-10.077,6.218-5.782.714-11.308,1.44-17.163.984" transform="translate(99.935 50.068)" fill="#d2e6a0"/>
          <path id="Trazado_733582" data-name="Trazado 733582" d="M255.536,200.235a293.6,293.6,0,0,1,33.694,51.22q3.985,7.71,7.508,15.645c.235.529,1.014.072.78-.455a294.191,294.191,0,0,0-30.856-53.474q-5.045-6.939-10.488-13.574c-.367-.449-1,.191-.638.638" transform="translate(104.173 53.146)" fill="#ecf7cb"/>
          <path id="Trazado_733583" data-name="Trazado 733583" d="M261.144,242.728a62.331,62.331,0,0,0,32.11,3.969c.573-.08.329-.949-.239-.87a61.467,61.467,0,0,1-31.631-3.969c-.536-.218-.77.653-.239.87" transform="translate(106.382 70.43)" fill="#ecf7cb"/>
          <path id="Trazado_733584" data-name="Trazado 733584" d="M273.243,209.71a61.237,61.237,0,0,1,4.94,30.616c-.055.577.848.574.9,0a62.1,62.1,0,0,0-5.064-31.071c-.235-.531-1.012-.072-.779.455" transform="translate(111.421 57.051)" fill="#ecf7cb"/>
          <path id="Trazado_733585" data-name="Trazado 733585" d="M251.643,211.934a37.148,37.148,0,0,0,26.149,12.444c.58.024.58-.879,0-.9A36.244,36.244,0,0,1,252.281,211.3c-.384-.436-1.021.2-.638.638" transform="translate(102.581 57.92)" fill="#ecf7cb"/>
          <path id="Trazado_733586" data-name="Trazado 733586" d="M475.651,159.266a19.7,19.7,0,0,1-.677,2.129l-1.216-.536L434.54,143.577,416.212,135.5l-58.755-25.892c8.272-16.543,45.285-27.482,76.261-13.836q2.9,1.273,5.617,2.766c26.974,14.741,40.677,44.022,36.315,60.724" transform="translate(145.785 8.35)" fill="#24b3b4"/>
          <g id="Grupo_970033" data-name="Grupo 970033" transform="translate(565.136 106.892)" style="mix-blend-mode: multiply;isolation: isolate">
            <g id="Grupo_970032" data-name="Grupo 970032">
              <g id="Grupo_970031" data-name="Grupo 970031" clip-path="url(#clip-path-7)">
                <path id="Trazado_733587" data-name="Trazado 733587" d="M457.721,156.677a15.747,15.747,0,0,1-1.893,1.592,12.239,12.239,0,0,1-7.445,2.438c-3.6-.118-6.862-2.036-9.907-3.964a232.892,232.892,0,0,1-21.865-15.755c-5.2-4.2-10.251-8.588-15.191-13.1a37.579,37.579,0,0,0,13.874-8.9,25.305,25.305,0,0,0,7.05-14.716,20.327,20.327,0,0,0-.939-8.323c26.974,14.741,40.677,44.022,36.315,60.724" transform="translate(-401.421 -95.953)" fill="#abccde"/>
              </g>
            </g>
          </g>
          <path id="Trazado_733588" data-name="Trazado 733588" d="M532.578,200.412c-8.434,19.142-63.554,13.386-123.116-12.856s-101.005-63.035-92.571-82.177,63.554-13.386,123.114,12.856,101.007,63.035,92.572,82.177" transform="translate(128.796 10.173)" fill="#4c768c"/>
          <g id="Grupo_970036" data-name="Grupo 970036" transform="translate(488.33 130.654)" style="mix-blend-mode: multiply;isolation: isolate">
            <g id="Grupo_970035" data-name="Grupo 970035">
              <g id="Grupo_970034" data-name="Grupo 970034" clip-path="url(#clip-path-8)">
                <path id="Trazado_733589" data-name="Trazado 733589" d="M476.9,173.669c-3.77,8.6-35.855,2.845-71.663-12.851s-61.782-35.394-58.011-43.994,35.855-2.847,71.663,12.851,61.782,35.394,58.011,43.994" transform="translate(-346.865 -112.832)" fill="#abccde"/>
              </g>
            </g>
          </g>
          <path id="Trazado_733590" data-name="Trazado 733590" d="M521.3,273.38q-1.231,6.107-3.011,11.955a127.848,127.848,0,0,1-90.994,86.712h-.01a127.8,127.8,0,1,1-18.275-251.012q6.13.623,12.3,1.867A127.725,127.725,0,0,1,523.058,262.134q-.625,5.607-1.758,11.246" transform="translate(109.417 20.892)" fill="#497c5a"/>
          <path id="Trazado_733591" data-name="Trazado 733591" d="M459.31,143.665a4.246,4.246,0,0,1-2.148,2.931,4.759,4.759,0,0,1-3.348.055c-.707-.193-1.411-.456-2.088-.687-1.772-.605-4.087-.829-5.194.688-1.191,1.637-.117,4.252-1.432,5.788-.955,1.118-2.7,1.076-4.112.7s-2.864-1-4.305-.729c-2.063.391-3.4,2.575-3.5,4.675a13.285,13.285,0,0,0,1.613,6.026,16.687,16.687,0,0,1,1.909,5.959,7.794,7.794,0,0,1-13.082,6.086c-1.627-1.516-2.537-3.638-3.953-5.35-3.314-3.981-6.814-1.826-9.929,1.026-2.838,2.593-6.057,5.16-10.122,5.025a10.342,10.342,0,0,1-8.867-5.89c-1.062-2.3-1.6-5.367-4.012-6.156-1.841-.6-3.777.565-5.237,1.833s-2.914,2.788-4.832,3.065c-3.172.465-5.609-2.54-8.149-4.5a14.513,14.513,0,0,0-11.66-2.693,7.137,7.137,0,0,0-3.424,1.559,3.582,3.582,0,0,0-1.173,3.431c.625,2.3,3.786,2.985,4.809,5.14.908,1.908-.315,4.3-2.154,5.338a10.657,10.657,0,0,1-6.183.859,21.221,21.221,0,0,0-6.309-.083c-2.067.445-4.09,1.9-4.433,3.988-.467,2.84,2.181,5.13,4.525,6.8s4.964,4.011,4.422,6.841c-.366,1.926-2.206,3.682-1.557,5.531.493,1.419,2.278,1.989,3.753,1.718a16.173,16.173,0,0,0,4.094-1.816,5.352,5.352,0,0,1,4.318-.566c1.729.719,2.467,2.785,2.6,4.651s-.114,3.8.484,5.578a7.666,7.666,0,0,0,4.6,4.463,15,15,0,0,0,6.527.725c2.5-.191,5.458-.546,7.117,1.34,2.551,2.906-.255,7.18,3.608,9.2,4,2.088,7.8,3.948,12.414,4.071,2.275.066,4.6-.228,6.775.431s4.183,2.683,3.825,4.926c-.162.994-.763,1.917-.666,2.914a3.255,3.255,0,0,0,1.87,2.376c.926.5,1.965.745,2.907,1.2a7.249,7.249,0,0,1,1.947,11.663,40.666,40.666,0,0,1-3.781,2.778c-4.543,3.576-.729,9.074.818,13.269,1.1,2.979,2.178,6.4.679,9.207-1.208,2.265-3.8,3.438-6.311,3.959s-5.127.557-7.574,1.325-4.83,2.528-5.322,5.047c-.425,2.191.665,4.46.308,6.665-.642,3.986-5.475,5.928-7.011,9.656-1.036,2.509-.4,5.348.062,8.023s.659,5.695-1.025,7.825c-1.052,1.323-2.652,2.063-4.08,2.973s-2.817,2.222-2.947,3.908c-.284,3.6,4.943,5.293,5.758,8.812.649,2.782-1.715,5.714-.767,8.408.828,2.337,3.763,3.289,4.922,5.484s.079,5.092-1.964,6.482a8.606,8.606,0,0,1-7.145.78c-2.647-.766-4.505-2.5-7.284-2.8-3.179-.348-6.354-.735-9.53-1.1-1.419-.165-2.969-.394-3.914-1.463-2.031-2.31.377-6.393-1.454-8.872-1.654-2.24-5.32-1.371-7.654-2.89-3.369-2.193-2.229-7.88-5.188-10.6-2.365-2.185-6.149-1.422-9.137-.218s-6.247,2.735-9.288,1.675a6.173,6.173,0,0,1-2.964-8.84c1.012-1.515,2.778-2.678,2.976-4.488.7-3.466-5.288-6.1-6.66-8.944-1.587-3.28-.356-8.209-.165-11.678a10.658,10.658,0,0,0-.536-5.008c-1.957-4.273-8.719-4.657-10.428-9.03-1.274-3.245,1.049-6.793,3.708-9.052s5.9-4.1,7.409-7.239c3.108-6.434-2.675-14.361-.217-21.075,1.432-3.893,5.378-6.368,9.4-7.386s8.226-.855,12.364-1.154c2.617-.184,5.4-.639,7.318-2.436a6.667,6.667,0,0,0,1.491-7.008c-.774-2.05-2.937-2.724-3.4-4.915-1.064-5.077,5.6-5.759,6.113-10.1.318-2.676-2.633-5.056-4.9-5.892-2.751-1.014-5.377-2-5.522-5.55-.049-1.181.255-2.445-.289-3.5a2.946,2.946,0,0,0-3.23-1.33,4.816,4.816,0,0,0-2.9,2.24c-.546.867-.688,1.933-1.2,2.786-.351.586-.905.949-1.325,1.522-1.016,1.375-1.243,3.208-2.5,4.446-1.7,1.674-4.58,1.374-6.676.234s-3.77-2.948-5.806-4.193c-3.07-1.872-5.572-.338-8.657-1.042-5.206-1.194-11.612-3.805-11.585-9.147.021-4.492,4.957-7.846,4.916-12.334-.059-5.955-7.84-7.939-12.337-11.855a128.276,128.276,0,0,1,44.431-36.459,3.608,3.608,0,0,1,.667,3.98,12.606,12.606,0,0,0-1.171,3.95c-.007,1.38,1.049,2.907,2.419,2.742,1.24-.148,1.937-1.522,2.1-2.754a11.767,11.767,0,0,1,.567-3.665c.888-1.832,3.279-2.427,5.295-2.148s3.9,1.207,5.906,1.556,4.4-.07,5.46-1.812c1.581-2.581-.725-5.781-.817-8.8a4.944,4.944,0,0,1,.094-1.125,126.581,126.581,0,0,1,35.413-5.253,4.91,4.91,0,0,1,1.67,3.142c.108,2.509-2.654,4.128-5.118,4.621s-5.226.548-7.049,2.275a4.856,4.856,0,0,0,4.639,8.2c3.031-.842,4.8-4.442,7.905-4.958,2.127-.356,4.146.863,6.117,1.746s4.526,1.36,6.072-.141c1.423-1.392,1.2-3.752.489-5.607s-1.811-3.652-1.818-5.641a5.371,5.371,0,0,1,.9-2.962q6.13.623,12.3,1.867a127.333,127.333,0,0,1,45.9,19.083,8.078,8.078,0,0,1-.207,1.682" transform="translate(117.11 20.893)" fill="#72b289"/>
          <path id="Trazado_733592" data-name="Trazado 733592" d="M471.027,251.733a13.331,13.331,0,0,1-2.9.31c-5.685-.024-11.344-4.425-11.793-10.094-.251-3.083.94-6.086,1.38-9.145s-.2-6.724-2.9-8.23c-3.128-1.741-6.929.344-9.892,2.348s-6.814,4.041-9.9,2.23c-2.395-1.411-3.087-4.473-3.893-7.132s-2.521-5.634-5.3-5.714c-2.758-.08-4.616,2.7-7.008,4.073a9.989,9.989,0,0,1-7.92.487,29.707,29.707,0,0,1-7.174-3.843,22.959,22.959,0,0,1-6.038-5.074c-1.582-2.12-2.385-5.016-1.37-7.452,1.353-3.23,5.144-4.476,8.33-5.921s6.551-4.43,5.612-7.8c-.7-2.54-3.677-4.15-3.849-6.775-.206-3.2,3.745-4.93,6.948-5.091s6.948.063,8.988-2.409c2.25-2.723.794-6.934-1.5-9.611s-5.384-4.809-6.8-8.044a9.269,9.269,0,0,1,9.468-12.934c2.921.307,5.848,1.985,8.627,1.047a4.974,4.974,0,0,0,1.208-.59,127.7,127.7,0,0,1,37.682,105.367" transform="translate(161.449 31.293)" fill="#72b289"/>
          <path id="Trazado_733593" data-name="Trazado 733593" d="M475.349,240.167a127.853,127.853,0,0,1-90.994,86.712h-.011c-1.547-.267-3.1-.542-4.649-.81a11,11,0,0,1-4.229-1.35,3.743,3.743,0,0,1-1.82-3.787c.462-1.972,2.869-2.79,4.9-2.734s4.117.625,6.045,0c4.138-1.343,4.915-6.981,8.21-9.824,3.919-3.382,10.117-1.9,14.753-4.208,4.346-2.162,6.421-7.136,7.826-11.781s2.685-9.678,6.323-12.894c2.935-2.59,7.352-4,8.544-7.725,1.139-3.565-1.375-7.177-3.8-10.024s-5.085-6.266-4.277-9.915c.821-3.69,4.95-5.731,8.726-5.909s7.492.947,11.268,1.1,8.042-1.031,9.8-4.377c.9-1.713,1-3.732,1.666-5.553a9.688,9.688,0,0,1,12.958-5.063c2.35,1.2,4.057,3.332,5.769,5.334a16.212,16.212,0,0,0,2.987,2.811" transform="translate(152.356 66.06)" fill="#72b289"/>
          <path id="Trazado_733594" data-name="Trazado 733594" d="M413.7,212.786c-2.671-.749-5.779-.515-7.884,1.291-2.126,1.822-3.045,5.018-5.62,6.116-3.731,1.589-8.064-2.371-11.871-.974a5.571,5.571,0,0,0-3.358,4.74,9.38,9.38,0,0,0,1.636,5.789,14.74,14.74,0,0,0,14.216,6.528c3.355-.486,6.528-2.151,9.917-2.091,6.206.113,11.329,5.93,17.529,5.66a9.622,9.622,0,0,0,8.85-9.614c-.214-5.488-4.754-7.688-9.188-9.435-5.095-2.009-8.89-6.513-14.228-8.009" transform="translate(156.992 58.424)" fill="#72b289"/>
          <path id="Trazado_733595" data-name="Trazado 733595" d="M370.038,169.224c-3.035-1.684-5.264-4.73-8.541-5.872-3.4-1.185-7.132-.053-10.555,1.077l-7.309,2.413c-1.323.436-2.824,1.047-3.231,2.379-.441,1.444.777,2.979,2.222,3.417a7.929,7.929,0,0,0,4.453-.345,10.821,10.821,0,0,1,4.44-.693c2.775.387,4.63,2.937,6.418,5.094s4.446,4.285,7.115,3.434c.9-2.664,4.305-3.67,7.06-3.106s5.137,2.229,7.712,3.361,5.757,1.67,8.066.065c4.366-3.034,1.853-10.032-2.816-11.212-2.017-.51-4.187.469-6.131.9a12.363,12.363,0,0,1-8.9-.911" transform="translate(138.791 38.221)" fill="#72b289"/>
          <g id="Grupo_970039" data-name="Grupo 970039" transform="translate(378.002 203.435)" style="mix-blend-mode: multiply;isolation: isolate">
            <g id="Grupo_970038" data-name="Grupo 970038" transform="translate(0 0)">
              <g id="Grupo_970037" data-name="Grupo 970037" clip-path="url(#clip-path-9)">
                <path id="Trazado_733596" data-name="Trazado 733596" d="M522.972,244.12A127.258,127.258,0,0,0,505.6,164.529a127.263,127.263,0,0,1-.493,22.676q-.625,5.607-1.758,11.246-1.231,6.107-3.011,11.955a127.848,127.848,0,0,1-90.993,86.712h-.011a127.855,127.855,0,0,1-140.834-58.3,127.847,127.847,0,0,0,158.7,115.21h.01A127.848,127.848,0,0,0,518.2,267.321q1.774-5.841,3.011-11.955,1.136-5.636,1.758-11.246" transform="translate(-268.498 -164.529)" fill="#d5eddd"/>
              </g>
            </g>
          </g>
          <g id="Grupo_970042" data-name="Grupo 970042" transform="translate(399.423 158.516)" opacity="0.3" style="mix-blend-mode: soft-light;isolation: isolate">
            <g id="Grupo_970041" data-name="Grupo 970041" transform="translate(0 0)">
              <g id="Grupo_970040" data-name="Grupo 970040" clip-path="url(#clip-path-10)">
                <path id="Trazado_733597" data-name="Trazado 733597" d="M304.744,159.548C291.7,174.077,283.2,193.2,283.738,212.68c.294,10.626,3.548,21.553,10.984,29.151s19.541,11.063,29.178,6.575c5.983-2.786,10.366-8.14,13.905-13.71s6.477-11.56,10.68-16.649c9.1-11.022,23.252-16.811,32.783-27.464A42.571,42.571,0,0,0,391.9,164.351c.31-8.751-2.721-18.217-9.67-23.9-19.009-15.547-47.907-5.285-65.267,7.847a86.986,86.986,0,0,0-12.216,11.253" transform="translate(-283.714 -132.622)" fill="#fff"/>
              </g>
            </g>
          </g>
          <path id="Trazado_733598" data-name="Trazado 733598" d="M342.145,199.81c1.408-9.513-3.6-18.781-13.5-20.806-9.164-1.875-17.442,3.933-20.183,12.54-1.78,5.588,7,7.98,8.767,2.417,3.07-9.638,17.678-6.9,16.148,3.432-.846,5.724,7.913,8.194,8.768,2.417" transform="translate(125.706 44.666)" fill="#223b44"/>
          <path id="Trazado_733599" data-name="Trazado 733599" d="M388.386,209.13c1.408-9.513-3.6-18.781-13.5-20.806-9.164-1.875-17.442,3.934-20.183,12.54-1.78,5.588,7,7.98,8.767,2.417,3.07-9.638,17.678-6.9,16.148,3.432-.846,5.724,7.913,8.194,8.769,2.417" transform="translate(144.564 48.467)" fill="#223b44"/>
          <path id="Trazado_733600" data-name="Trazado 733600" d="M387.128,227.466c-.96,4.76-3.974,9.249-8.358,12.91-8.158,6.813-21.08,10.728-34.371,8.049s-23.7-11.3-28.569-20.735c-2.633-5.075-3.663-10.38-2.7-15.14,2.745-13.621,17.352-.559,37.788,3.559s38.96-2.264,36.215,11.357" transform="translate(127.561 56.025)" fill="#693124"/>
          <path id="Trazado_733601" data-name="Trazado 733601" d="M377.886,235.418c-8.16,6.813-21.081,10.728-34.371,8.049s-23.7-11.3-28.571-20.735c7.913-4.076,20.183-5.324,33.29-2.683s23.926,8.546,29.652,15.369" transform="translate(128.446 60.983)" fill="#ba513a"/>
        </g>
      </g>
      <g id="Grupo_970052" data-name="Grupo 970052" transform="translate(-61.945 -28.195)">
        <g id="Grupo_970051" data-name="Grupo 970051" clip-path="url(#clip-path-11)">
          <path id="Trazado_733602" data-name="Trazado 733602" d="M298.488,104.276A29.572,29.572,0,1,1,268.917,74.7a29.571,29.571,0,0,1,29.572,29.572" transform="translate(97.614 30.467)" fill="#ffc74a"/>
          <g id="Grupo_970047" data-name="Grupo 970047" transform="translate(336.96 121.955)" style="mix-blend-mode: multiply;isolation: isolate">
            <g id="Grupo_970046" data-name="Grupo 970046">
              <g id="Grupo_970045" data-name="Grupo 970045" clip-path="url(#clip-path-12)">
                <path id="Trazado_733603" data-name="Trazado 733603" d="M271.135,122.517a29.567,29.567,0,0,1-28.887-35.891,29.574,29.574,0,1,0,55.558,19.109,29.574,29.574,0,0,1-26.67,16.783" transform="translate(-239.346 -86.626)" fill="#ffe5ab"/>
              </g>
            </g>
          </g>
          <g id="Grupo_970050" data-name="Grupo 970050" transform="translate(359.332 108.487)" opacity="0.3" style="mix-blend-mode: soft-light;isolation: isolate">
            <g id="Grupo_970049" data-name="Grupo 970049">
              <g id="Grupo_970048" data-name="Grupo 970048" clip-path="url(#clip-path-13)">
                <path id="Trazado_733604" data-name="Trazado 733604" d="M282.74,96.386c-2.8,4.85-11.016,5.348-18.353,1.112s-11.012-11.6-8.212-16.449,11.016-5.348,18.351-1.112,11.014,11.6,8.213,16.449" transform="translate(-255.237 -77.059)" fill="#fff"/>
              </g>
            </g>
          </g>
          <path id="Trazado_733605" data-name="Trazado 733605" d="M264.625,65.115c0,5.781-1.58,10.467-3.528,10.467s-3.528-4.687-3.528-10.467,1.58-10.467,3.528-10.467,3.528,4.687,3.528,10.467" transform="translate(105.046 22.288)" fill="#ff991f"/>
          <path id="Trazado_733606" data-name="Trazado 733606" d="M288.691,76.5c-4.088,4.088-8.519,6.285-9.9,4.908s.819-5.809,4.906-9.9,8.519-6.285,9.9-4.906-.819,5.807-4.908,9.9" transform="translate(113.535 26.994)" fill="#ff991f"/>
          <path id="Trazado_733607" data-name="Trazado 733607" d="M297.009,99.984c-5.781,0-10.467-1.58-10.467-3.528s4.687-3.528,10.467-3.528,10.467,1.58,10.467,3.528-4.687,3.528-10.467,3.528" transform="translate(116.863 37.9)" fill="#ff991f"/>
          <path id="Trazado_733608" data-name="Trazado 733608" d="M284.092,124.05c-4.088-4.088-6.285-8.519-4.908-9.9s5.809.819,9.9,4.906,6.285,8.519,4.906,9.9-5.807-.819-9.9-4.908" transform="translate(113.694 46.389)" fill="#ff991f"/>
          <path id="Trazado_733609" data-name="Trazado 733609" d="M258.12,132.368c0-5.781,1.58-10.467,3.528-10.467s3.528,4.687,3.528,10.467-1.58,10.467-3.528,10.467-3.528-4.687-3.528-10.467" transform="translate(105.271 49.716)" fill="#ff991f"/>
          <path id="Trazado_733610" data-name="Trazado 733610" d="M236.537,119.45c4.088-4.088,8.519-6.285,9.9-4.908s-.819,5.809-4.906,9.9-8.519,6.285-9.9,4.906.819-5.807,4.908-9.9" transform="translate(94.3 46.547)" fill="#ff991f"/>
          <path id="Trazado_733611" data-name="Trazado 733611" d="M229.758,93.479c5.779,0,10.467,1.58,10.467,3.528s-4.688,3.528-10.467,3.528-10.469-1.58-10.469-3.528,4.687-3.528,10.469-3.528" transform="translate(89.434 38.124)" fill="#ff991f"/>
          <path id="Trazado_733612" data-name="Trazado 733612" d="M241.137,71.9c4.088,4.088,6.285,8.519,4.908,9.9s-5.809-.819-9.9-4.906-6.285-8.519-4.906-9.9,5.807.819,9.9,4.908" transform="translate(94.141 27.153)" fill="#ff991f"/>
        </g>
      </g>
    </g>
  </g>
</svg>
