<svg xmlns="http://www.w3.org/2000/svg" xmlns:xlink="http://www.w3.org/1999/xlink" width="598.771" height="545.631" viewBox="0 0 598.771 545.631">
  <defs>
    <clipPath id="clip-path">
      <rect id="Rectángulo_341657" data-name="Rectángulo 341657" width="598.771" height="545.632" fill="none"/>
    </clipPath>
    <clipPath id="clip-path-2">
      <rect id="Rectángulo_341649" data-name="Rectángulo 341649" width="649.66" height="649.661" fill="none"/>
    </clipPath>
    <clipPath id="clip-path-3">
      <rect id="Rectángulo_341656" data-name="Rectángulo 341656" width="763.897" height="649.661" fill="none"/>
    </clipPath>
    <clipPath id="clip-path-4">
      <rect id="Rectángulo_341653" data-name="Rectángulo 341653" width="24.535" height="13.034" fill="none"/>
    </clipPath>
    <clipPath id="clip-path-5">
      <rect id="Rectángulo_341654" data-name="Rectángulo 341654" width="32.102" height="15.736" fill="none"/>
    </clipPath>
  </defs>
  <g id="Grupo_971179" data-name="Grupo 971179" transform="translate(-506.229 -6839)">
    <g id="Grupo_970070" data-name="Grupo 970070" transform="translate(400.229 6777)">
      <g id="Grupo_970069" data-name="Grupo 970069" transform="translate(106 62)" clip-path="url(#clip-path)">
        <g id="Grupo_970060" data-name="Grupo 970060" transform="translate(-28.072 -51.189)">
          <g id="Grupo_970059" data-name="Grupo 970059" clip-path="url(#clip-path-2)">
            <path id="Trazado_733613" data-name="Trazado 733613" d="M478.453,110.835A32.552,32.552,0,1,1,445.9,78.283a32.553,32.553,0,0,1,32.552,32.552" transform="translate(64.279 23.432)" fill="#ff9e00"/>
            <path id="Trazado_733614" data-name="Trazado 733614" d="M562.172,142.152c-2.748-10.618-12.34-19.062-21.67-20.039-5.082-.533-10.4.373-15.193-1.4-5.379-1.994-8.981-6.931-12.787-11.224-6.265-7.068-14.083-13.061-23.169-15.645s-19.538-1.362-26.88,4.584c-10.583,8.57-13.782,25.489-26.548,30.23-5.144,1.911-10.87,1.34-16.221,2.554S408.8,136.7,409.44,142.152Z" transform="translate(63.094 27.705)" fill="#fff"/>
            <path id="Trazado_733615" data-name="Trazado 733615" d="M0,198.592c2.747-10.618,12.34-19.062,21.67-20.039,5.082-.533,10.4.373,15.193-1.4,5.379-1.994,8.981-6.931,12.787-11.224,6.265-7.068,14.083-13.061,23.17-15.645s19.538-1.362,26.88,4.584c10.583,8.57,13.782,25.489,26.548,30.23,5.144,1.911,10.87,1.34,16.221,2.554s10.906,5.494,10.265,10.943Z" transform="translate(79.61 44.599)" fill="#fff"/>
            <path id="Trazado_733616" data-name="Trazado 733616" d="M224.612,74.046H340.9c-2.184-8.1-17.866-8.391-25.824-9.69S302.342,40.8,282.756,40.8s-13.4,15.267-25.824,14.78c-12.581-.494-9.5,9.176-18.19,9.583-6.976.326-14.293,1.19-14.13,8.878" transform="translate(7.785 12.214)" fill="#fff"/>
            <path id="Trazado_733617" data-name="Trazado 733617" d="M68.814,349.965H185.1c-2.184-8.1-17.866-8.391-25.824-9.69s-12.735-23.55-32.321-23.55-13.4,15.267-25.824,14.78c-12.581-.494-9.5,9.176-18.191,9.582-6.976.326-14.293,1.19-14.13,8.878" transform="translate(-38.849 94.802)" fill="#fff"/>
            <path id="Trazado_733618" data-name="Trazado 733618" d="M614.707,334.588H498.418c2.184-8.1,17.866-8.391,25.824-9.69s12.735-23.55,32.321-23.55,13.4,15.267,25.824,14.78c12.581-.494,9.5,9.176,18.191,9.582,6.976.326,14.293,1.19,14.13,8.878" transform="translate(-13.832 90.2)" fill="#fff"/>
          </g>
        </g>
        <g id="Grupo_970068" data-name="Grupo 970068" transform="translate(-87.517 -51.189)">
          <g id="Grupo_970067" data-name="Grupo 970067" clip-path="url(#clip-path-3)">
            <path id="Trazado_733619" data-name="Trazado 733619" d="M619.743,453.143c0,4.349-117.9,7.874-263.33,7.874s-263.328-3.525-263.328-7.874,117.9-7.874,263.328-7.874,263.33,3.525,263.33,7.874" transform="translate(27.862 133.279)" fill="#c28c71"/>
            <path id="Trazado_733620" data-name="Trazado 733620" d="M251.129,412.743q.055,20.876.11,41.75c-6.9-22.759-14-45.927-27.491-65.509,8.99,21.978,18.1,44.445,19.573,68.144l-14.337-28c-4.98-9.727-9.994-19.507-16.542-28.255a611.716,611.716,0,0,1,23.037,65.938h24.028c.395-19.108-2.475-35.892-8.379-54.069" transform="translate(63.589 116.431)" fill="#009e73"/>
            <path id="Trazado_733621" data-name="Trazado 733621" d="M316.557,446.38a195.4,195.4,0,0,1,11-22.177c-3.9,1.438-13.011,7.776-17.034,18.485a49.885,49.885,0,0,1,.568-12.262c-6.694,5.557-7.958,13.236-11.314,25.844h20.789a50.177,50.177,0,0,1,6.5-18.689c-4.329,1.619-7.523,5.269-10.506,8.8" transform="translate(89.73 126.973)" fill="#009e73"/>
            <path id="Trazado_733622" data-name="Trazado 733622" d="M418.6,430.425a32.01,32.01,0,0,0-3.168,10.757,104.968,104.968,0,0,0-10.647-21.095q1.859,11.014,3.061,22.125a68.207,68.207,0,0,0-27.7-31.081,225.93,225.93,0,0,1,17.636,32.885,47.655,47.655,0,0,0-19.425-11.474c6.448,6.986,14.1,19.694,19.32,27.642h26.067c0-13.826-3.062-25.007-5.149-29.758" transform="translate(113.254 123.061)" fill="#009e73"/>
            <path id="Trazado_733623" data-name="Trazado 733623" d="M504.15,300.436a169.38,169.38,0,1,1-169.38-169.38,169.379,169.379,0,0,1,169.38,169.38" transform="translate(49.505 39.228)" fill="#00b1ea"/>
            <path id="Trazado_733624" data-name="Trazado 733624" d="M459.228,282.466a168.588,168.588,0,0,0-26.737-91.375c-16.872,5.347-28.776,20.946-30.686,36.021-1.039,8.2-.6,18.341-7.753,22.49-5.252,3.047-11.81.959-17.811.04s-13.826.721-15.053,6.668c-.381,1.849-.005,3.817-.567,5.62-1.041,3.344-4.943,4.958-8.446,5.022s-6.954-.969-10.456-.91c-13.108.22-20.97,14.629-24.117,27.356-1.758,7.107-2.94,14.56-1.458,21.73s6.078,14.051,12.956,16.562c5.427,1.983,11.421,1.068,17.19,1.389s12.26,2.622,14.211,8.062c1.72,4.793-.768,10.083-.27,15.151.682,6.94,6.776,12.121,13.059,15.145s13.26,4.736,18.934,8.79c7.941,5.672,12.767,17.914,11.534,27.594a168.944,168.944,0,0,0,55.469-125.356" transform="translate(94.428 57.198)" fill="#009e73"/>
            <path id="Trazado_733625" data-name="Trazado 733625" d="M285.78,227.161c-7.145-4.813-16.173-5.49-24.6-7.259s-17.485-5.56-20.831-13.5c-2.595-6.155-1.072-13.271-2.577-19.778-2.213-9.566-13.677-17.219-23.57-17.073A168.9,168.9,0,0,0,166.745,264.5c6.169,2.258,15.658-1,21.6,1.586,5.326,2.318,7.367,8.618,10.631,13.423a25.877,25.877,0,0,0,16.642,10.795c5.8,1.038,12.225.162,17.2,3.325,5.435,3.456,7.218,10.682,6.743,17.106-.841,11.405-7.1,21.582-11.064,32.309-9.376,25.371-4.211,57.073,16.768,74.143,6.977,5.678,21.457,11.993,24.578,3.556,6.664-18.009-.564-38.785,7.189-56.352,3.087-6.993,7-13.682,9.013-21.054s1.87-15.845-2.683-21.987c-4.5-6.077-13.083-9.871-13.809-17.4-.615-6.369,4.874-11.442,9.5-15.867,8.483-8.125,15.765-18.107,18-29.639s-1.533-24.725-11.277-31.286" transform="translate(49.91 50.75)" fill="#009e73"/>
            <path id="Trazado_733626" data-name="Trazado 733626" d="M384.953,199.5c-5.639,3.243-13.943,3.244-18.7,7.676s-8.7,9.676-13.409,14.165-10.47,8.31-16.948,8.9-13.625-2.9-15.581-9.106c-2.508-7.954,3.821-15.618,7.446-23.129,3.928-8.138,4.976-17.772,10.708-24.756,5.774-7.038,15.763-10.009,24.669-8.119s16.556,8.244,20.888,16.251c3.025,5.591,6.438,14.953.93,18.122" transform="translate(95.705 49.259)" fill="#009e73"/>
            <path id="Trazado_733627" data-name="Trazado 733627" d="M354.848,283.1a23.973,23.973,0,0,1,7.022-2.8v-.547a25.66,25.66,0,0,0-6.208,1.7,16.607,16.607,0,0,1,3.264-4.645l-.521-.482c-4.71,3.533-6.932,9.5-6.932,9.5A8.028,8.028,0,0,0,348.7,279.8l.07.061c-.709-1.467.535-3.725-.083-5.686a.631.631,0,0,0-.648-.451,11.4,11.4,0,0,1-.668,4.913l.058.051c-1.755-1.425-3.585-2.634-4.367-4.36l-.626.372c2.084,4.223,6.442,5.305,6.763,9.707.09,1.24.11,3.146.09,5.248a9.716,9.716,0,0,1-1.689-.852,24.763,24.763,0,0,1-2-4.737c-.133-.291-.264-.687-.839-.732a11.656,11.656,0,0,0,1.017,4.345c-1.945-1.245-3.906-2.608-3.906-2.608s-.972-.139-.967.648c0,.478,6.473,4.685,8.316,7.414a84.981,84.981,0,0,1-.535,9.041,6.3,6.3,0,0,1-1.732,1.841s.237.346.378.365,1.706-1.177,2.052-1.055.669.954,1.644,1.421l.386-.143a5.112,5.112,0,0,1-.508-1.279c.061-.183.346-.487.934-.04a4.138,4.138,0,0,0,2.092.711,1.385,1.385,0,0,0,.629-.223,17.747,17.747,0,0,1-2.031-1.624,20.942,20.942,0,0,1-.175-3.9l0,.005c1.7-3.864,6.889-4.1,9.3-9.323l-.511-.256a13.242,13.242,0,0,1-4.49,3.746,17.171,17.171,0,0,0,.985-3.994h-.505a9.139,9.139,0,0,1-2.534,5.022,6.4,6.4,0,0,0-2.183,1.392,55.57,55.57,0,0,1,.472-5.886,23.707,23.707,0,0,1,1.952-5.851" transform="translate(102.041 81.931)" fill="#a65036"/>
            <path id="Trazado_733628" data-name="Trazado 733628" d="M344.63,283.447c-3.964-2.479-6.436-7.129-4.921-11.552a16.144,16.144,0,0,0,1.133-3.6,9.388,9.388,0,0,0-1.107-4.526c-2-4.588-4.093-10.226-1.111-14.248a16.164,16.164,0,0,0,1.781-2.35c1.028-2.1-.069-4.559-1.024-6.692a19.025,19.025,0,0,1-2-7.558,8.317,8.317,0,0,1,3.16-6.883c1.2-.845,2.716-1.284,3.693-2.384.93-1.045,1.21-2.495,1.755-3.782,2.521-5.941,11.157-7.511,16.477-3.858s7.27,10.923,6.047,17.26c-1.269,6.571-5.413,13.273-2.885,19.468.746,1.827,2.053,3.477,2.247,5.442.533,5.419-7.323,8.629-7.365,14.076-.021,2.735,1.983,5.023,2.875,7.608a4.7,4.7,0,0,1-3.12,6.076c-3.833,1.2-12.2-.344-15.636-2.495" transform="translate(100.912 64.073)" fill="#fff"/>
            <path id="Trazado_733629" data-name="Trazado 733629" d="M334.564,241.742c-3.71.7-6.29-4.663-6.545-8.429a5.147,5.147,0,0,1,.717-3.274c1.272-1.848,4.2-1.98,5.986-.621a6.964,6.964,0,0,1,2.359,6.015c-.145,2.24-.353,5.9-2.518,6.31" transform="translate(98.178 68.398)" fill="#fff"/>
            <path id="Trazado_733630" data-name="Trazado 733630" d="M360.546,259.515c-.874-2.219,1.327-4.969,3.7-4.749a1.987,1.987,0,0,0,1.042-.039c.45-.217.574-.78.739-1.25a4.353,4.353,0,0,1,5.756-2.3,4.862,4.862,0,0,1,2.3,5.925,5.515,5.515,0,0,1-5.557,3.37,6.207,6.207,0,0,0-2.939-.045c-.508.213-.907.625-1.4.872a2.927,2.927,0,0,1-3.646-1.785" transform="translate(107.861 75.073)" fill="#f5eae7"/>
            <path id="Trazado_733631" data-name="Trazado 733631" d="M365.1,233.9a4.91,4.91,0,0,1,.608-4.739,3.733,3.733,0,0,1,4.27-1.564,3.621,3.621,0,0,1,1.484,5.071c-1.028,1.72-5.364,3.176-6.361,1.232" transform="translate(109.171 68.065)" fill="#fff"/>
            <path id="Trazado_733632" data-name="Trazado 733632" d="M360.264,278.314a4.7,4.7,0,0,0,3.12-6.076c-.893-2.584-2.9-4.872-2.875-7.607.043-5.447,7.9-8.656,7.365-14.076-.192-1.965-1.5-3.615-2.247-5.442,1.726,7.5-4.81,10.2-10.819,9.071s-17.356-4.63-14.4-14.642a16.354,16.354,0,0,1-1.781,2.35c-2.982,4.023-.9,9.66,1.11,14.248a9.39,9.39,0,0,1,1.108,4.526,16.151,16.151,0,0,1-1.134,3.6c-1.514,4.423.958,9.073,4.921,11.552,3.439,2.15,11.8,3.694,15.636,2.495" transform="translate(100.912 71.7)" fill="#f5eae7"/>
            <path id="Trazado_733633" data-name="Trazado 733633" d="M348.237,287.725c-4.426-.8-8.3-3.828-8.65-7.472-.305-3.194,1.583-6.468.591-9.519a4.96,4.96,0,0,1,4,3.694c-.265-2.922,1.965-5.38,3.448-7.912a17.08,17.08,0,0,0,2.331-8.235c2.853.747,4.944,3.312,5.918,6.1a27.2,27.2,0,0,1,1.052,8.742,12.015,12.015,0,0,1,3.056-4.272c4.208,6,1.58,15.8-5.464,18.656-1.849.747-4.619.522-6.285.222" transform="translate(101.636 77.309)" fill="#ff6363"/>
            <path id="Trazado_733634" data-name="Trazado 733634" d="M353.915,280.775a4.832,4.832,0,0,0,1.963-3.243,4.666,4.666,0,0,0-1.138-3.617.265.265,0,0,0-.135-.1.279.279,0,0,0-.195.065l-2.943,1.918a5.862,5.862,0,0,0-1.445-4.77,17.942,17.942,0,0,1-2.289,2.593,4.952,4.952,0,0,0-1.524,3.031,3.151,3.151,0,0,0-2.182-1.321,10.008,10.008,0,0,0,.029,3.52,3.875,3.875,0,0,0,2.2,2.564c1.091.489,4.97,1.341,7.66-.642" transform="translate(102.932 81.125)" fill="#ff9e00"/>
            <path id="Trazado_733635" data-name="Trazado 733635" d="M404.867,221.65a24.007,24.007,0,0,1,7.022-2.8v-.547a25.68,25.68,0,0,0-6.209,1.7,16.632,16.632,0,0,1,3.265-4.645l-.521-.482c-4.71,3.533-6.932,9.5-6.932,9.5a8.028,8.028,0,0,0-2.774-6.024l.07.061c-.71-1.467.535-3.724-.083-5.686a.631.631,0,0,0-.648-.451,11.4,11.4,0,0,1-.668,4.913l.058.051c-1.755-1.425-3.585-2.634-4.368-4.361l-.625.372c2.084,4.223,6.442,5.305,6.762,9.707.091,1.24.112,3.146.091,5.248a9.718,9.718,0,0,1-1.689-.852,24.681,24.681,0,0,1-2-4.737c-.133-.291-.264-.687-.839-.73a11.651,11.651,0,0,0,1.017,4.344c-1.945-1.245-3.906-2.608-3.906-2.608s-.972-.139-.967.648c0,.478,6.473,4.685,8.316,7.414a85.043,85.043,0,0,1-.535,9.042,6.3,6.3,0,0,1-1.732,1.84s.237.346.378.366,1.706-1.179,2.05-1.056.67.954,1.645,1.421l.386-.143a5.064,5.064,0,0,1-.508-1.279c.061-.183.346-.487.934-.04a4.126,4.126,0,0,0,2.091.711,1.386,1.386,0,0,0,.63-.223,17.609,17.609,0,0,1-2.031-1.624,20.825,20.825,0,0,1-.175-3.9l0,.005c1.7-3.864,6.889-4.1,9.3-9.323l-.511-.256a13.241,13.241,0,0,1-4.49,3.746,17.168,17.168,0,0,0,.985-3.994h-.505A9.14,9.14,0,0,1,404.626,232a6.4,6.4,0,0,0-2.183,1.392,55.491,55.491,0,0,1,.472-5.885,23.694,23.694,0,0,1,1.952-5.852" transform="translate(117.012 63.538)" fill="#a65036"/>
            <path id="Trazado_733636" data-name="Trazado 733636" d="M413.118,221.556c3.029-2.487,5.048-6.5,3.623-10.153a16.6,16.6,0,0,1-1.464-3.739,8.385,8.385,0,0,1,.6-3.587c1.2-3.738,2.347-7.6,2.089-11.515s-2.2-7.954-5.742-9.65a5.366,5.366,0,0,1-1.889-1.136,4.866,4.866,0,0,1-.724-2.9c-.553-7.52-8.8-13.461-16.112-11.6s-11.713,11.022-8.6,17.892c1.779,3.929,5.575,7.242,5.384,11.55-.133,2.974-2.206,5.556-2.557,8.511-.648,5.466,2.193,14.326,10.044,17.433,6.028,2.386,13.349.541,15.35-1.1" transform="translate(114.906 49.966)" fill="#fff"/>
            <path id="Trazado_733637" data-name="Trazado 733637" d="M399.609,226.184c-4.425-.8-8.3-3.828-8.65-7.472-.305-3.194,1.583-6.468.593-9.519a4.961,4.961,0,0,1,4,3.694c-.265-2.922,1.965-5.38,3.448-7.912a17.079,17.079,0,0,0,2.331-8.235c2.853.747,4.944,3.313,5.92,6.1a27.24,27.24,0,0,1,1.051,8.742,12.026,12.026,0,0,1,3.056-4.272c4.209,6,1.58,15.8-5.464,18.656-1.849.748-4.619.522-6.285.222" transform="translate(117.013 58.889)" fill="#ff6363"/>
            <path id="Trazado_733638" data-name="Trazado 733638" d="M405.287,219.234a4.832,4.832,0,0,0,1.963-3.243,4.665,4.665,0,0,0-1.138-3.617.264.264,0,0,0-.135-.1.279.279,0,0,0-.195.065l-2.943,1.918a5.863,5.863,0,0,0-1.445-4.77,17.94,17.94,0,0,1-2.289,2.593,4.952,4.952,0,0,0-1.524,3.031,3.151,3.151,0,0,0-2.182-1.321,10.005,10.005,0,0,0,.029,3.52,3.876,3.876,0,0,0,2.2,2.564c1.091.489,4.97,1.341,7.659-.642" transform="translate(118.309 62.705)" fill="#ff9e00"/>
            <path id="Trazado_733639" data-name="Trazado 733639" d="M387.478,185.345a10.339,10.339,0,0,1,1.919,5.86c-.133,2.973-2.206,5.555-2.557,8.509.677,4.419,9.881.521,9.232-4.351s-6.143-8.235-8.594-10.018" transform="translate(115.79 55.478)" fill="#f5eae7"/>
            <path id="Trazado_733640" data-name="Trazado 733640" d="M355.827,172.137a24.008,24.008,0,0,1,7.022-2.8v-.547a25.683,25.683,0,0,0-6.209,1.7,16.633,16.633,0,0,1,3.265-4.645l-.522-.482c-4.71,3.533-6.931,9.5-6.931,9.5a8.028,8.028,0,0,0-2.774-6.024l.07.061c-.711-1.467.535-3.724-.083-5.686a.631.631,0,0,0-.648-.451,11.4,11.4,0,0,1-.668,4.913l.058.051c-1.755-1.425-3.585-2.634-4.368-4.361l-.625.372c2.084,4.223,6.442,5.305,6.762,9.707.091,1.24.112,3.146.091,5.248a9.718,9.718,0,0,1-1.689-.852,24.686,24.686,0,0,1-2-4.737c-.133-.291-.264-.687-.839-.73a11.653,11.653,0,0,0,1.017,4.344c-1.945-1.245-3.906-2.608-3.906-2.608s-.972-.139-.967.648c0,.478,6.473,4.685,8.316,7.414a85.024,85.024,0,0,1-.535,9.042,6.3,6.3,0,0,1-1.732,1.84s.236.346.378.366,1.706-1.178,2.05-1.056.67.954,1.645,1.421l.386-.143a5.061,5.061,0,0,1-.508-1.279c.061-.183.346-.487.934-.04a4.126,4.126,0,0,0,2.091.711,1.386,1.386,0,0,0,.63-.223,17.608,17.608,0,0,1-2.031-1.624,20.82,20.82,0,0,1-.175-3.9l0,.005c1.7-3.864,6.889-4.1,9.3-9.323l-.511-.256a13.242,13.242,0,0,1-4.491,3.746,17.172,17.172,0,0,0,.985-3.994h-.505a9.14,9.14,0,0,1-2.534,5.022,6.4,6.4,0,0,0-2.183,1.392,55.514,55.514,0,0,1,.472-5.885,23.693,23.693,0,0,1,1.952-5.852" transform="translate(102.334 48.718)" fill="#a65036"/>
            <path id="Trazado_733641" data-name="Trazado 733641" d="M353.637,167.533c-7.064,0-11.888-5.145-12.509-8.846a15.964,15.964,0,0,1,2.465-10.74,5.43,5.43,0,0,0,1.106-2.738,4.588,4.588,0,0,0-.793-2.185c-2.045-3.508-4.555-6.751-6.294-10.419s-2.655-7.971-1.293-11.8,5.542-6.8,9.469-5.772c1.241.325,2.362,1,3.581,1.4,4.528,1.486,9.459-1.007,14.185-.378a12.646,12.646,0,0,1,9.779,8.3,17.583,17.583,0,0,1-.871,13.122c-1.887,4.136-5.11,7.819-5.584,12.341-.311,2.962.672,5.956.316,8.915-.6,5.011-3.772,8.8-13.557,8.8" transform="translate(100.471 34.372)" fill="#fff"/>
            <path id="Trazado_733642" data-name="Trazado 733642" d="M353.5,114.331c-4.055,0-7.64-2-8.3-3.593a6.723,6.723,0,0,1,.3-5.024,5.409,5.409,0,0,1,2.935-3.272,6.826,6.826,0,0,1,3.048-.088l6.825.839a2.436,2.436,0,0,1,.965.26,2.021,2.021,0,0,1,.73.954,7.264,7.264,0,0,1-.639,6.252,6.6,6.6,0,0,1-5.866,3.672" transform="translate(103.218 30.598)" fill="#fff"/>
            <path id="Trazado_733643" data-name="Trazado 733643" d="M330.424,148.3c-1.916-.7-3.827-1.91-4.559-3.814a4.869,4.869,0,0,1,.169-3.732,5.345,5.345,0,0,1,10.2,2.057c1.137-.257,2.47-.811,3.452-.181,1.875,1.2.63,9.281-9.259,5.669" transform="translate(97.45 41.203)" fill="#fff"/>
            <path id="Trazado_733644" data-name="Trazado 733644" d="M339.679,141.615a1.75,1.75,0,0,0-.181-.086c-.761,2.353-3.561,4.693-9.77,2.426a8.152,8.152,0,0,1-4.075-2.905,4.657,4.657,0,0,0,.207,2.421c.733,1.9,2.643,3.114,4.558,3.814,9.889,3.612,11.135-4.467,9.26-5.669" transform="translate(97.454 42.219)" fill="#f5eae7"/>
            <path id="Trazado_733645" data-name="Trazado 733645" d="M361.255,142.411c-1.732-2.382-12.667-1.191-21.337-9.2.926,1.423,1.861,2.842,2.714,4.306a4.6,4.6,0,0,1,.793,2.187,4.1,4.1,0,0,1-.711,2.087c5.39,4.688,20.273,3,18.541.617" transform="translate(101.745 39.874)" fill="#f5eae7"/>
            <path id="Trazado_733646" data-name="Trazado 733646" d="M349.34,176.783c-4.425-.8-8.3-3.828-8.65-7.472-.305-3.194,1.583-6.468.593-9.519a4.962,4.962,0,0,1,4,3.694c-.265-2.922,1.965-5.381,3.448-7.912a17.079,17.079,0,0,0,2.331-8.235c2.853.747,4.944,3.312,5.92,6.1a27.239,27.239,0,0,1,1.051,8.742,12.015,12.015,0,0,1,3.056-4.272c4.209,6,1.58,15.8-5.464,18.656-1.849.747-4.619.522-6.285.222" transform="translate(101.966 44.102)" fill="#ff6363"/>
            <path id="Trazado_733647" data-name="Trazado 733647" d="M355.018,169.833a4.832,4.832,0,0,0,1.963-3.244,4.664,4.664,0,0,0-1.138-3.616.264.264,0,0,0-.135-.1.279.279,0,0,0-.195.065l-2.943,1.918a5.862,5.862,0,0,0-1.445-4.77,17.939,17.939,0,0,1-2.289,2.593,4.953,4.953,0,0,0-1.524,3.031,3.151,3.151,0,0,0-2.182-1.321,10.007,10.007,0,0,0,.029,3.52,3.876,3.876,0,0,0,2.2,2.564c1.091.489,4.97,1.341,7.659-.642" transform="translate(103.262 47.918)" fill="#ff9e00"/>
            <path id="Trazado_733648" data-name="Trazado 733648" d="M261.048,142.582c-.175-1.267-.6-3.677,0-4.1,4.32-3.056,10.561-3.71,14.843-6.621,3.173-2.157,6.475-4.367,10.256-5.024,8.121-1.41,15.652,4.6,23.836,5.577,5.063.6,10.2-.747,15.272-.244,4.913.489,11.155.051,14.634,3.564.472.476-.414,3.581,0,4.1,0,0-6.472,9-15.08,12.084s-15.722-.569-20.139-.569-14.05,2.418-21.6,2.518c-7.413.1-18.271-6.741-22.021-11.283" transform="translate(78.044 37.9)" fill="#f5eae7"/>
            <path id="Trazado_733649" data-name="Trazado 733649" d="M260.976,139.423c4.882-3.317,9.962-7.407,14.843-10.726,3.173-2.157,6.475-4.367,10.256-5.024,8.121-1.41,15.652,4.6,23.836,5.577,5.063.605,10.2-.747,15.272-.244a21.621,21.621,0,0,1,14.634,7.669s-6.472,9-15.08,12.084-15.722-.569-20.139-.569-14.05,2.418-21.6,2.518c-7.413.1-18.271-6.741-22.021-11.283" transform="translate(78.116 36.954)" fill="#fff"/>
            <path id="Trazado_733650" data-name="Trazado 733650" d="M243.788,148.917c-.928,6.577,4.384,8.769,7.572,9.155s6.386-.451,9.592-.661a6.317,6.317,0,0,0,2.214-.379,3.444,3.444,0,0,0,1.836-3.32c-.074-1.341.556-3.535-.339-5.153-.963-1.741-4.707-.706-6.692-.867a14.727,14.727,0,0,0-4.616.546c-2.644.639-9.08-2.771-9.567.68" transform="translate(72.939 44.104)" fill="#f5eae7"/>
            <path id="Trazado_733651" data-name="Trazado 733651" d="M280.919,157.621c.677-1.789,3.317.86,5.2.529,8.829-1.557,18.118,3.776,26.639.991,1.832-.6,3.533-1.555,5.377-2.118s6.977-2.276,7.539-.433c.9,2.964.825,6.4-1.451,8.235a9.228,9.228,0,0,1-3.292,1.455c-5.523,1.616-11,3.413-16.57,4.85-24.192,6.237-25.626-7.734-23.441-13.51" transform="translate(83.869 46.622)" fill="#f5eae7"/>
            <path id="Trazado_733652" data-name="Trazado 733652" d="M243.828,149.157c-.694,3.137,4.319,5.621,7.507,6.007s6.386-.451,9.592-.661a6.323,6.323,0,0,0,2.214-.379,3.444,3.444,0,0,0,1.836-3.32,5.646,5.646,0,0,0-1.737-3.541,8.452,8.452,0,0,0-5.293-2.479,14.69,14.69,0,0,0-4.616.546c-2.644.639-8.748.425-9.5,3.828" transform="translate(72.964 43.328)" fill="#fff"/>
            <path id="Trazado_733653" data-name="Trazado 733653" d="M281.111,157.769a7.854,7.854,0,0,1,4.921-2.645c8.828-1.557,18.118,3.777,26.637.991,1.832-.6,3.534-1.554,5.377-2.118a6.931,6.931,0,0,1,5.6.317,4.817,4.817,0,0,1,.489,7.485,9.22,9.22,0,0,1-3.293,1.457c-5.523,1.616-11,3.412-16.57,4.849-24.191,6.237-25-7.974-23.159-10.336" transform="translate(83.957 45.965)" fill="#fff"/>
            <path id="Trazado_733654" data-name="Trazado 733654" d="M209.787,182.238V108.6a10.395,10.395,0,1,0-20.789,0v73.639a25.986,25.986,0,1,0,20.789,0" transform="translate(51.904 29.395)" fill="#fff"/>
            <path id="Trazado_733655" data-name="Trazado 733655" d="M201.794,185.454V107.1a3.9,3.9,0,1,0-7.8,0v78.352a19.49,19.49,0,1,0,7.8,0" transform="translate(53.401 30.891)" fill="#ff6363"/>
            <path id="Trazado_733656" data-name="Trazado 733656" d="M190.406,107.1v23.388h7.8V107.1a3.9,3.9,0,1,0-7.8,0" transform="translate(56.993 30.891)" fill="#00b1ea"/>
            <rect id="Rectángulo_341650" data-name="Rectángulo 341650" width="7.796" height="27.286" transform="translate(247.399 161.38)" fill="#ff9e00"/>
            <path id="Trazado_733657" data-name="Trazado 733657" d="M211.307,223.466h-9.363l-5.2,22.228H216.5Z" transform="translate(58.891 66.888)" fill="#00b1ea"/>
            <path id="Trazado_733658" data-name="Trazado 733658" d="M201,223.466h9.363l1.093,4.672H199.906Z" transform="translate(59.836 66.888)" fill="#fff"/>
            <path id="Trazado_733659" data-name="Trazado 733659" d="M197.662,237.454H215.04l-.809-3.465H198.473Z" transform="translate(59.165 70.038)" fill="#fff"/>
            <path id="Trazado_733660" data-name="Trazado 733660" d="M202.567,232.364h5.2c0-4.409,1.738-8.409,5.252-9.064a13.383,13.383,0,0,0,9.636-8.88c1.557-4.75,8.655-4.441,8.933-11.369.325-8.066-9.1-12.019-14.183-7.254s-2.87,8.878-4.385,12.776-4.292,6.115-7.363,9.854c-4.98,6.063-3.086,13.937-3.086,13.937" transform="translate(60.527 57.99)" fill="#fff"/>
            <path id="Trazado_733661" data-name="Trazado 733661" d="M207.531,207.514a2.932,2.932,0,0,0,.352-1.372,2.964,2.964,0,1,0-3.116,2.948,1.71,1.71,0,0,0,1.681,1.477,1.733,1.733,0,0,0,1.732-1.733,1.7,1.7,0,0,0-.65-1.32" transform="translate(60.449 60.815)" fill="#fff"/>
            <path id="Trazado_733662" data-name="Trazado 733662" d="M207.1,208.94a1.711,1.711,0,0,1-1.681-1.477,2.956,2.956,0,0,1-2.812-2.948,3.015,3.015,0,0,1,.051-.513,2.941,2.941,0,0,0,2.111,4.843,1.71,1.71,0,0,0,1.681,1.476,1.732,1.732,0,0,0,1.732-1.732c0-.02-.005-.036-.006-.055a1.7,1.7,0,0,1-1.076.407" transform="translate(60.449 61.062)" fill="#f5eae7"/>
            <path id="Trazado_733663" data-name="Trazado 733663" d="M222.856,210.3a1.434,1.434,0,1,1-1.434-1.434,1.434,1.434,0,0,1,1.434,1.434" transform="translate(65.847 62.518)" fill="#fff"/>
            <path id="Trazado_733664" data-name="Trazado 733664" d="M222.653,209.656c-8.093,10.526-17.406,6.69-14.246.86h0c-.872.968-1.794,1.98-2.752,3.146-4.982,6.064-3.086,13.938-3.086,13.938h5.2c0-4.409,1.738-8.409,5.251-9.065a13.382,13.382,0,0,0,9.637-8.878" transform="translate(60.527 62.755)" fill="#f5eae7"/>
            <path id="Trazado_733665" data-name="Trazado 733665" d="M237.373,230.577c-.443-3.785,2.357-8.348,5.82-9.937s7.358-1.915,11.017-2.979,7.392-3.216,8.608-6.827a10.406,10.406,0,0,0-.782-7.595c-.709-1.52-1.809-3.039-3.438-3.433-1.859-.45-3.734.728-5.039,2.127s-2.335,3.09-3.907,4.18c-3.046,2.114-7.55,1.58-10.172,4.2-2.786,2.786-2.032,7.74-4.585,10.741-1.382,1.627-3.555,2.439-4.88,4.114-1.06,1.338-.947,3.749-.544,5.408Z" transform="translate(68.599 59.777)" fill="#fff"/>
            <path id="Trazado_733666" data-name="Trazado 733666" d="M239.386,223.466h-9.363l-5.2,22.228h19.758Z" transform="translate(67.295 66.888)" fill="#00b1ea"/>
            <path id="Trazado_733667" data-name="Trazado 733667" d="M229.078,223.466h9.363l1.093,4.672H227.985Z" transform="translate(68.241 66.888)" fill="#fff"/>
            <path id="Trazado_733668" data-name="Trazado 733668" d="M225.742,237.454H243.12l-.811-3.465H226.553Z" transform="translate(67.57 70.038)" fill="#fff"/>
            <path id="Trazado_733669" data-name="Trazado 733669" d="M241.067,203.518c-2.8,0-2.8-2.4-1.219-3.451,1.49-.994-.325-7.634,4.345-6.456,3.873.977.942,9.907-3.126,9.907" transform="translate(71.473 57.91)" fill="#fff"/>
            <path id="Trazado_733670" data-name="Trazado 733670" d="M234.565,211.386a2.206,2.206,0,1,0-2.528,2.174,1.166,1.166,0,1,0,2.05-.817,2.183,2.183,0,0,0,.478-1.356" transform="translate(68.89 62.612)" fill="#fff"/>
            <path id="Trazado_733671" data-name="Trazado 733671" d="M262.818,208.27c-4.2,5.4-10.5,6.46-16.105,7.354a15.622,15.622,0,0,0-11.289,7.471c-2.353,3.652-5.518,1.707-4.8-1.15a6.549,6.549,0,0,0-.612.66c-1.06,1.338-.947,3.749-.544,5.408h7.9c-.443-3.785,2.357-8.347,5.821-9.937s7.357-1.914,11.016-2.978,7.392-3.216,8.608-6.828" transform="translate(68.599 62.34)" fill="#f5eae7"/>
            <path id="Trazado_733672" data-name="Trazado 733672" d="M248.42,292.93a23.982,23.982,0,0,1,7.02-2.8v-.547a25.663,25.663,0,0,0-6.208,1.7,16.607,16.607,0,0,1,3.264-4.645l-.522-.482c-4.71,3.533-6.931,9.5-6.931,9.5a8.031,8.031,0,0,0-2.773-6.024l.07.061c-.711-1.467.534-3.724-.084-5.686a.631.631,0,0,0-.648-.451,11.4,11.4,0,0,1-.668,4.913l.058.051c-1.755-1.425-3.584-2.634-4.367-4.361l-.625.372c2.083,4.223,6.441,5.305,6.76,9.707.091,1.24.112,3.146.091,5.248a9.672,9.672,0,0,1-1.688-.852,24.622,24.622,0,0,1-2-4.737c-.133-.291-.264-.687-.838-.73a11.638,11.638,0,0,0,1.016,4.344c-1.945-1.245-3.906-2.608-3.906-2.608s-.972-.139-.967.648c0,.478,6.475,4.685,8.317,7.414a85.24,85.24,0,0,1-.537,9.042,6.3,6.3,0,0,1-1.732,1.84s.236.346.378.366,1.706-1.178,2.05-1.056.672.954,1.646,1.421l.385-.143a5.061,5.061,0,0,1-.508-1.279c.061-.183.346-.487.936-.04a4.119,4.119,0,0,0,2.089.711,1.386,1.386,0,0,0,.63-.223,17.722,17.722,0,0,1-2.031-1.624,21.07,21.07,0,0,1-.175-3.9l.005.005c1.7-3.864,6.888-4.1,9.3-9.323l-.511-.256a13.239,13.239,0,0,1-4.489,3.746,17.167,17.167,0,0,0,.984-3.994h-.5a9.149,9.149,0,0,1-2.535,5.022A6.4,6.4,0,0,0,246,304.667a55.531,55.531,0,0,1,.472-5.885,23.7,23.7,0,0,1,1.953-5.852" transform="translate(70.184 84.874)" fill="#a65036"/>
            <path id="Trazado_733673" data-name="Trazado 733673" d="M229.155,320.015a24.007,24.007,0,0,1,7.022-2.8v-.547a25.663,25.663,0,0,0-6.208,1.7,16.606,16.606,0,0,1,3.264-4.645l-.521-.482c-4.71,3.533-6.932,9.5-6.932,9.5a8.028,8.028,0,0,0-2.774-6.024l.07.061c-.709-1.467.535-3.724-.083-5.686a.631.631,0,0,0-.648-.451,11.4,11.4,0,0,1-.668,4.913l.058.051c-1.755-1.425-3.585-2.634-4.367-4.361l-.626.372c2.084,4.223,6.442,5.305,6.763,9.707.09,1.24.11,3.146.09,5.248a9.715,9.715,0,0,1-1.689-.852,24.767,24.767,0,0,1-2-4.737c-.133-.291-.264-.687-.839-.73a11.652,11.652,0,0,0,1.017,4.344c-1.945-1.245-3.906-2.608-3.906-2.608s-.972-.139-.967.648c0,.478,6.473,4.685,8.316,7.414a85.038,85.038,0,0,1-.535,9.042,6.3,6.3,0,0,1-1.732,1.84s.236.346.378.366,1.706-1.178,2.052-1.056.669.954,1.644,1.422l.386-.143a5.111,5.111,0,0,1-.508-1.279c.061-.183.346-.487.934-.04a4.127,4.127,0,0,0,2.092.711,1.385,1.385,0,0,0,.629-.223,17.617,17.617,0,0,1-2.031-1.624,20.95,20.95,0,0,1-.175-3.9l0,.005c1.7-3.864,6.889-4.1,9.3-9.323l-.511-.256a13.241,13.241,0,0,1-4.49,3.746,17.171,17.171,0,0,0,.985-3.994h-.505a9.139,9.139,0,0,1-2.534,5.022,6.4,6.4,0,0,0-2.183,1.392,55.506,55.506,0,0,1,.472-5.885,23.7,23.7,0,0,1,1.952-5.852" transform="translate(64.418 92.981)" fill="#a65036"/>
            <path id="Trazado_733674" data-name="Trazado 733674" d="M335.916,186.492h6.442c0,1.735-.053,4.38.622,5.388.908,1.349,5.942,2.57,6.538,3.869a28.606,28.606,0,0,1-7.918-1.893c-.552-.318-1.407,1.731-.7,2.949a4.41,4.41,0,0,1-3-2.247c-.839-1.59-4.128.947-8.728.947.77-1.527,4.8-1.544,6.129-4.086.794-1.523.622-4.928.622-4.928" transform="translate(98.526 55.821)" fill="#a65036"/>
            <path id="Trazado_733675" data-name="Trazado 733675" d="M391.362,319.77H397.8c0,1.733-.053,4.38.622,5.387.908,1.349,5.942,2.571,6.538,3.871a28.609,28.609,0,0,1-7.918-1.894c-.552-.318-1.407,1.732-.7,2.949a4.41,4.41,0,0,1-3-2.247c-.839-1.59-4.128.947-8.728.947.771-1.527,4.8-1.542,6.129-4.086.794-1.523.622-4.927.622-4.927" transform="translate(115.123 95.714)" fill="#a65036"/>
            <path id="Trazado_733676" data-name="Trazado 733676" d="M401.85,286.324h6.442c0,1.733-.053,4.38.622,5.387.908,1.349,5.942,2.571,6.538,3.871a28.593,28.593,0,0,1-7.918-1.894c-.552-.32-1.407,1.732-.7,2.949a4.41,4.41,0,0,1-3-2.246c-.839-1.59-4.128.947-8.728.947.77-1.527,4.8-1.542,6.129-4.086.794-1.523.622-4.927.622-4.927" transform="translate(118.262 85.703)" fill="#a65036"/>
            <path id="Trazado_733677" data-name="Trazado 733677" d="M370.09,295.638h6.441c0,1.733-.052,4.38.622,5.387.908,1.349,5.942,2.571,6.539,3.871A28.592,28.592,0,0,1,375.774,303c-.553-.32-1.407,1.732-.706,2.949a4.406,4.406,0,0,1-3-2.247c-.839-1.59-4.128.947-8.729.947.77-1.527,4.8-1.542,6.13-4.086.793-1.523.622-4.927.622-4.927" transform="translate(108.755 88.491)" fill="#a65036"/>
            <path id="Trazado_733678" data-name="Trazado 733678" d="M291.819,183.461l-9.1,7.8h3.9v10.395h10.395V191.257h3.9Z" transform="translate(84.625 54.914)" fill="#ff6363"/>
            <path id="Trazado_733679" data-name="Trazado 733679" d="M331.707,312.138l-9.1,7.8h3.9v10.395H336.9V319.934h3.9Z" transform="translate(96.565 93.43)" fill="#ff6363"/>
            <path id="Trazado_733680" data-name="Trazado 733680" d="M240.336,250.783l-9.1,7.8h3.9v10.395h10.395V258.579h3.9Z" transform="translate(69.216 75.065)" fill="#ff6363"/>
            <rect id="Rectángulo_341651" data-name="Rectángulo 341651" width="5.197" height="2.598" transform="translate(377.751 312.328) rotate(-18)" fill="#f5eae7"/>
            <path id="Trazado_733681" data-name="Trazado 733681" d="M304.7,261.807l-7.414,2.41a1.3,1.3,0,0,1-1.637-.834l-5.221-16.065a5.2,5.2,0,0,1,9.887-3.212l5.219,16.065a1.3,1.3,0,0,1-.834,1.636" transform="translate(86.856 71.991)" fill="#fff"/>
            <rect id="Rectángulo_341652" data-name="Rectángulo 341652" width="10.395" height="5.197" transform="translate(378.303 322.438) rotate(-18)" fill="#ff9e00"/>
            <path id="Trazado_733682" data-name="Trazado 733682" d="M294.848,236.3l-4.943,1.606a.648.648,0,0,0-.417.819l.8,2.471a.648.648,0,0,0,.819.417L296.053,240a.649.649,0,0,0,.417-.819l-.8-2.471a.649.649,0,0,0-.819-.417" transform="translate(86.641 70.719)" fill="#fff"/>
            <g id="Grupo_970063" data-name="Grupo 970063" transform="translate(373.258 327.653)" opacity="0.5">
              <g id="Grupo_970062" data-name="Grupo 970062">
                <g id="Grupo_970061" data-name="Grupo 970061" clip-path="url(#clip-path-4)">
                  <path id="Trazado_733683" data-name="Trazado 733683" d="M287.271,253.37c4.06-2.944,9.169.466,12.706.466s8.1-2.557,11.829-.832v12.2H287.271Z" transform="translate(-287.271 -252.172)" fill="#00b1ea"/>
                </g>
              </g>
            </g>
            <path id="Trazado_733684" data-name="Trazado 733684" d="M299.617,258.574a11.054,11.054,0,0,0,4.053.581c1.892,0,2.788-1.149,5.477-1.149" transform="translate(89.682 77.227)" fill="none" stroke="#fff" stroke-linecap="round" stroke-linejoin="round" stroke-width="1"/>
            <path id="Trazado_733685" data-name="Trazado 733685" d="M292.143,255.924c3.221-1.11,3.8-.053,4.9.247,1.038.285,1.942.142,3.586-.772" transform="translate(87.445 76.447)" fill="none" stroke="#fff" stroke-linecap="round" stroke-linejoin="round" stroke-width="1"/>
            <path id="Trazado_733686" data-name="Trazado 733686" d="M304.311,333.82l-2.486,5.495a2.9,2.9,0,0,1-5.49-1.783l1.22-5.907a3.5,3.5,0,0,0-6.716-1.929l-8.757,23.567a2.6,2.6,0,0,0,1.633,3.376l17.09,5.553a2.6,2.6,0,0,0,3.306-1.772l6.767-24.213a3.5,3.5,0,0,0-6.567-2.387" transform="translate(84.385 98.002)" fill="#fff"/>
            <g id="Grupo_970066" data-name="Grupo 970066" transform="translate(361.356 447.544)" opacity="0.5">
              <g id="Grupo_970065" data-name="Grupo 970065">
                <g id="Grupo_970064" data-name="Grupo 970064" clip-path="url(#clip-path-5)">
                  <path id="Trazado_733687" data-name="Trazado 733687" d="M278.111,345.641c5.313-2.943,12,.468,16.624.468s10.6-2.557,15.477-.832v14.9h-32.1Z" transform="translate(-278.111 -344.444)" fill="#00b1ea"/>
                </g>
              </g>
            </g>
            <path id="Trazado_733688" data-name="Trazado 733688" d="M293.51,351.729a18.636,18.636,0,0,0,5.3.581c2.475,0,3.647-1.149,7.166-1.149" transform="translate(87.854 105.11)" fill="none" stroke="#fff" stroke-linecap="round" stroke-linejoin="round" stroke-width="1"/>
            <path id="Trazado_733689" data-name="Trazado 733689" d="M281.919,349.352c4.215-1.11,4.978-.053,6.411.247,1.358.285,2.54.142,4.693-.772" transform="translate(84.385 104.412)" fill="none" stroke="#fff" stroke-linecap="round" stroke-linejoin="round" stroke-width="1"/>
            <path id="Trazado_733690" data-name="Trazado 733690" d="M457.691,412.455l4.289,36.3s4.817-.509,18.075-2.266l-.542-34.036Z" transform="translate(136.997 123.457)" fill="#e8afaf"/>
            <path id="Trazado_733691" data-name="Trazado 733691" d="M482.5,436.243c-1.449,0-.783,2.651-4.862,2.389-2.084-.133-.11-3.493-2.658-5.361-2.091-1.533-7.045-.6-7.828.534-1.1,1.594.329,3.749-1.216,4.511-2.31,1.142-3.574-1.266-4.367-.412-.411.443.68,1.793-1.2,2.279-9.806,1.454-8.5,13.613-8.5,13.613h-.014v.038a2.6,2.6,0,0,0,2.6,2.6h27.4a2.6,2.6,0,0,0,2.6-2.6V453.8c.439-6.484-.055-17.554-1.95-17.554" transform="translate(135.236 129.447)" fill="#ff9e00"/>
            <path id="Trazado_733692" data-name="Trazado 733692" d="M474.869,450.128a25.072,25.072,0,0,1-9.268-1.868c-2.287-.925-4.581-2.109-7.049-2.069-1.958.031-4.584.833-6.7,1.2a17.878,17.878,0,0,0,.009,2.742h-.014v.038a2.6,2.6,0,0,0,2.6,2.6h27.4a2.6,2.6,0,0,0,2.6-2.6v-.038c.108-1.6.16-3.481.147-5.4-2.443,1.767-5.135,5.4-9.725,5.4" transform="translate(135.237 133.116)" fill="#fff"/>
            <path id="Trazado_733693" data-name="Trazado 733693" d="M463.9,438.642a37.4,37.4,0,0,0,9.876.592c.281.508-.229,1.081-.7,1.424a25.225,25.225,0,0,1-5.213,2.938,5.341,5.341,0,0,1-1.967.507,6.99,6.99,0,0,1-2.61-.735,11.4,11.4,0,0,0-6.448-.873,29.353,29.353,0,0,1,7.059-3.853" transform="translate(136.743 131.295)" fill="#fff"/>
            <path id="Trazado_733694" data-name="Trazado 733694" d="M418.451,412.455l-1.936,33.2s7.393,1.38,20.651-.376l1.809-32.827Z" transform="translate(124.672 123.457)" fill="#e8afaf"/>
            <path id="Trazado_733695" data-name="Trazado 733695" d="M442.854,437.011c-1.319,1.649-8.79,2.966-14.39,1.319-2-.59-.481-3.189-1.872-5.659-.746-1.327-2.947-.418-3.73.713-1.1,1.593.109,4.176-.665,5.714s-11.046,2.318-21.536,3.873c-9.806,1.455-9.009,10.96-9.009,10.96h-.016v.039a2.6,2.6,0,0,0,2.6,2.6h48.439c1.436,0,2.458-1.69,2.6-2.6.539-3.469-1.286-8.1.444-12.428,1.538-3.845-1.542-6.181-2.861-4.532" transform="translate(117.225 129.311)" fill="#ff9e00"/>
            <path id="Trazado_733696" data-name="Trazado 733696" d="M439.876,446.281c-4.461,3.439-10.43,4.15-16.98,4.15H403.542c-3.461,0-7.433-3.1-11.538-3.428a12.065,12.065,0,0,0-.353,3.428h-.016v.038a2.6,2.6,0,0,0,2.6,2.6h48.44c1.434,0,2.457-1.69,2.6-2.6.3-1.907-.121-4.166-.27-6.532l-.166-.2c-1.9-.272-3.441,1.371-4.96,2.541" transform="translate(117.225 132.812)" fill="#fff"/>
            <path id="Trazado_733697" data-name="Trazado 733697" d="M400.876,440.8c1.184.264,2.208,1.758,3.372,2.092,2.781.8,11.771-.435,16.349-1.177a1.294,1.294,0,0,0,.747-.3,1.064,1.064,0,0,0,.1-1.111,6.4,6.4,0,0,0-2.674-2.445c-2.269,1.088-9.736,1.819-17.892,2.938" transform="translate(119.991 131.061)" fill="#fff"/>
            <path id="Trazado_733698" data-name="Trazado 733698" d="M489.864,379.021c0-6.812,1-46.53,2.058-51.982,2.383-12.236,3.676-23.4-2.814-31.293l-66.807-.108c-2.487,25.358-5.121,78.808-5.121,78.808l-2.927,78.662c-.5,5.368,30.664,4.537,31.028,1.132,0,0,4.4-68.253,5.605-79.885.3-2.865,3.034-24.831,4.111-28.638l1.716,30.5,7.936,78.026c.2,4.137,30.741,5.394,30.943-.816,1.023-31.215-3.273-56.608-5.729-74.408" transform="translate(123.993 88.491)" fill="#a65036"/>
            <path id="Trazado_733699" data-name="Trazado 733699" d="M447.479,341.851a.486.486,0,0,1-.482-.42c-.7-5.03-1.16-11.809-1.275-13.573-2.831-.314-6.052-3.7-6.361-17.18a.488.488,0,0,1,.475-.5.5.5,0,0,1,.5.476c.338,14.669,4.2,16.253,5.847,16.253a.487.487,0,0,1,.486.459c.005.081.5,8.169,1.293,13.929a.486.486,0,0,1-.415.55.407.407,0,0,1-.068.005" transform="translate(131.51 92.844)" fill="#292222"/>
            <path id="Trazado_733700" data-name="Trazado 733700" d="M476.485,314.981c-1.464,0-7.175-.768-14.091-11.721a.488.488,0,1,1,.825-.521C470.7,314.588,476.644,314,476.711,314a.493.493,0,0,1,.544.421.484.484,0,0,1-.414.544,2.538,2.538,0,0,1-.356.02" transform="translate(138.382 90.548)" fill="#292222"/>
            <path id="Trazado_733701" data-name="Trazado 733701" d="M471.382,444.154a.487.487,0,0,1-.487-.487c0-17.065-1.679-30.448-3.16-42.255-1.307-10.411-2.435-19.4-1.81-27.512a.486.486,0,0,1,.177-.34l2.261-1.849-2.136-.094a.488.488,0,0,1-.463-.443c-2.415-26.118,2.66-56.78,2.71-57.088a.488.488,0,0,1,.961.162c-.052.3-5.05,30.517-2.74,56.413l2.985.131a.488.488,0,0,1,.287.864l-3.086,2.525c-.582,7.958.531,16.839,1.82,27.109,1.485,11.837,3.168,25.252,3.168,42.377a.487.487,0,0,1-.487.487" transform="translate(139.218 93.892)" fill="#292222"/>
            <path id="Trazado_733702" data-name="Trazado 733702" d="M431.973,442.052a.235.235,0,0,1-.043,0,.486.486,0,0,1-.442-.527c.411-4.628.635-13.343.894-23.432.443-17.191.994-38.585,2.8-46.9a.483.483,0,0,1,.33-.361l3.095-.976-3.116-1.133a.49.49,0,0,1-.321-.468c.005-.287.641-28.9,8.974-47.263a.488.488,0,0,1,.889.4c-7.756,17.086-8.779,43.217-8.88,46.53l4.136,1.5a.487.487,0,0,1-.02.923l-4.2,1.323c-1.736,8.418-2.278,29.482-2.714,46.443-.26,10.106-.485,18.835-.9,23.493a.486.486,0,0,1-.485.444" transform="translate(129.153 95.994)" fill="#292222"/>
            <path id="Trazado_733703" data-name="Trazado 733703" d="M385.363,245.8a17.543,17.543,0,0,0-6.832-1.7c-1.036,1.228-.949,3.771-.949,3.771,1.1.539,7.07.863,7.07.863Z" transform="translate(113.018 73.064)" fill="#292222"/>
            <path id="Trazado_733704" data-name="Trazado 733704" d="M424.8,248.185l16.392,4.678s-4.1,28.915-14.555,28.7S392.3,261.471,392.3,261.471c-5.306-.622-10.747-2.843-12.628-4.792a2.18,2.18,0,0,1,.175-3.225c-.852-1.055.6-2.905.6-2.905-.655-1.779.524-2.553,1.441-2.579a19.073,19.073,0,0,1,2.348.216c-.934-.589-3.221-2.2-1.953-4.255,0,0,4.924,1.13,5.391,1.354a43.92,43.92,0,0,1,4.98,2.9c1,.9,2.172,3.412,3.33,4.082s25.152,12.563,25.152,12.563Z" transform="translate(113.444 73.014)" fill="#e7b7b7"/>
            <path id="Trazado_733705" data-name="Trazado 733705" d="M427.291,227.274c-10.738,2.856-14.617,28.22-14.617,28.22,5.117,3.329,19.084,5.062,19.084,5.062l7.9-26.1Z" transform="translate(123.522 68.028)" fill="#ff9e00"/>
            <path id="Trazado_733706" data-name="Trazado 733706" d="M414.027,244.01c-.934,3.752-1.353,6.473-1.353,6.473,5.115,3.33,19.083,5.062,19.083,5.062l1.932-6.378c-5.28-.88-13.933-2.6-19.663-5.157" transform="translate(123.522 73.038)" fill="#fff"/>
            <path id="Trazado_733707" data-name="Trazado 733707" d="M385.765,257.367a3.03,3.03,0,0,1-.711-.083.325.325,0,0,1,.169-.628,2.094,2.094,0,0,0,1.325-.112.641.641,0,0,0,.308-.644,1.378,1.378,0,0,0-.759-1.143.324.324,0,0,1,.058-.621c.505-.1,1.032-.338,1.06-.49.1-.538-.478-1.429-1.509-1.9a.325.325,0,0,1,.161-.62,3.368,3.368,0,0,0,1.468-.114,4,4,0,0,0-.505-2.1,10.5,10.5,0,0,0-3.775-1.307.325.325,0,1,1,.091-.643,11.111,11.111,0,0,1,4.075,1.431c.5.378,1.021,2.448.641,3a1.286,1.286,0,0,1-.924.383,2.259,2.259,0,0,1,.913,1.994c-.077.407-.5.663-.9.817a2.107,2.107,0,0,1,.553,1.277,1.266,1.266,0,0,1-.648,1.254,2.3,2.3,0,0,1-1.091.251" transform="translate(114.574 73.919)" fill="#a65036"/>
            <path id="Trazado_733708" data-name="Trazado 733708" d="M386.293,251.177a.332.332,0,0,1-.139-.031,22.468,22.468,0,0,0-4.617-1.551.325.325,0,0,1-.256-.382.317.317,0,0,1,.382-.255,22.581,22.581,0,0,1,4.767,1.6.325.325,0,0,1-.138.618" transform="translate(114.124 74.516)" fill="#a65036"/>
            <path id="Trazado_733709" data-name="Trazado 733709" d="M386.666,253.527a.329.329,0,0,1-.139-.031,24.086,24.086,0,0,0-4.989-1.715.325.325,0,1,1,.126-.637,24.363,24.363,0,0,1,5.141,1.764.325.325,0,0,1-.139.618" transform="translate(114.124 75.171)" fill="#a65036"/>
            <path id="Trazado_733710" data-name="Trazado 733710" d="M385.783,254.542a.326.326,0,0,1-.174-.051,14.835,14.835,0,0,0-3.882-1.229,1.481,1.481,0,0,1,.37.982.3.3,0,0,1-.351.3.325.325,0,0,1-.3-.351c.026-.3-.425-.769-.634-.937a.325.325,0,0,1-.058-.447c.533-.724,4.645.785,5.2,1.137a.325.325,0,0,1-.174.6" transform="translate(113.95 75.612)" fill="#a65036"/>
            <path id="Trazado_733711" data-name="Trazado 733711" d="M417,264.689a.322.322,0,0,1-.222-.087,42.214,42.214,0,0,0-5.448-4.236.323.323,0,0,1-.1-.448.328.328,0,0,1,.447-.1,43.091,43.091,0,0,1,5.548,4.311.327.327,0,0,1,.016.46.324.324,0,0,1-.238.1" transform="translate(123.074 77.754)" fill="#a65036"/>
            <path id="Trazado_733712" data-name="Trazado 733712" d="M425.455,228.191c8.2-2.558,38.981-5.178,49.187-3.391,8.763,1.111,21.9,58.967,16.536,95.734,0,0-27.312,8.882-71.062,1.638-3.954-10.736,2.335-31.182,2.335-50.423,0-22.187,1.116-42.086,3-43.558" transform="translate(125.359 67.111)" fill="#ff9e00"/>
            <path id="Trazado_733713" data-name="Trazado 733713" d="M421.8,256.778h-.009a.487.487,0,0,1-.478-.5c.129-6.932.374-13.3.715-18.419a.479.479,0,0,1,.517-.453.489.489,0,0,1,.455.518c-.339,5.1-.585,11.455-.712,18.372a.487.487,0,0,1-.487.478" transform="translate(126.109 71.061)" fill="#292222"/>
            <path id="Trazado_733714" data-name="Trazado 733714" d="M457.9,297.61c-5.49,0-22.231-.981-35.859-12.064a.487.487,0,0,1,.615-.756c16.16,13.144,36.8,11.816,37.009,11.8a.466.466,0,0,1,.521.45.489.489,0,0,1-.451.522c-.036,0-.691.045-1.835.045" transform="translate(126.274 85.211)" fill="#292222"/>
            <path id="Trazado_733715" data-name="Trazado 733715" d="M457.49,224.242c-7.554.164-16.425.842-23.714,1.736-3.247,4.41-1.324,8.741,9.082,10.365.434.068.865.108,1.294.135-.485,5.339.122,20.193.122,20.193h2.469l.292-20.288c8.461-1.106,14.652-9.129,10.454-12.141" transform="translate(129.408 67.121)" fill="#fff"/>
            <path id="Trazado_733716" data-name="Trazado 733716" d="M437.585,263.765l-4.132,6.611-5.509-3.442a3.9,3.9,0,0,1,4.132-6.612Z" transform="translate(127.545 77.743)" fill="#292222"/>
            <path id="Trazado_733717" data-name="Trazado 733717" d="M438.973,257.59a1.952,1.952,0,0,1-.123.175l-7.634,9.689a1.949,1.949,0,0,1-3.468-1.432l1.51-12.989a1.949,1.949,0,1,1,3.872.451l-.715,6.15,3.373-4.281a1.949,1.949,0,0,1,3.185,2.237" transform="translate(128.031 75.222)" fill="#292222"/>
            <path id="Trazado_733718" data-name="Trazado 733718" d="M443.519,262.221h0a7.8,7.8,0,0,0-10.743,2.48l-1.377,2.2a7.8,7.8,0,0,0,2.48,10.743,1.3,1.3,0,0,1,.413,1.79,5.2,5.2,0,0,0,1.654,7.161l46.279,28.919a2.6,2.6,0,0,0,3.581-.826l13.77-22.038a2.6,2.6,0,0,0-.826-3.581l-46.279-28.919a5.2,5.2,0,0,0-7.162,1.654,1.3,1.3,0,0,1-1.79.413" transform="translate(128.772 77.633)" fill="#ff6363"/>
            <path id="Trazado_733719" data-name="Trazado 733719" d="M481.68,279.049l-16.525,26.445,6.611,4.132a2.6,2.6,0,0,0,3.581-.828l13.772-22.038a2.6,2.6,0,0,0-.828-3.58Z" transform="translate(139.231 83.526)" fill="#292222"/>
            <rect id="Rectángulo_341655" data-name="Rectángulo 341655" width="18.19" height="7.796" transform="matrix(0.53, -0.848, 0.848, 0.53, 581.408, 374.662)" fill="#fff"/>
            <path id="Trazado_733720" data-name="Trazado 733720" d="M420.933,289.305c-3.392,0-6.983-1.436-10.892-4.344-6.732-5.009-11.085-13.237-14.924-20.5-2.956-5.586-5.746-10.864-9.042-13.386a.649.649,0,1,1,.789-1.03c3.522,2.693,6.247,7.844,9.4,13.809,3.776,7.137,8.055,15.227,14.552,20.06,4.664,3.472,8.787,4.714,12.6,3.791,5.483-1.321,10.569-7.083,16.008-18.126a.65.65,0,0,1,1.165.574c-5.622,11.416-10.982,17.394-16.868,18.815a11.829,11.829,0,0,1-2.786.331" transform="translate(115.484 74.805)" fill="#292222"/>
            <path id="Trazado_733721" data-name="Trazado 733721" d="M464.449,224.664c9.851,1.349,21.618,31.315,21.618,31.315-4.62,3.517-18.853,8.1-18.853,8.1L452.862,235.35Z" transform="translate(135.552 67.247)" fill="#ff9e00"/>
            <path id="Trazado_733722" data-name="Trazado 733722" d="M467.429,251.562l16.526-6.239s8.6,18.588,7.849,22.972-23.917,46.352-23.917,46.352c-1.085,1.837-2.834.411-2.071-1.024,0,0-1.376,2.2-2.73,1.562s-.125-2.726-.125-2.726-1.865,2.9-3.164,2.175c-1.438-.807.142-3.5.142-3.5s-1.757,1.976-2.809,1.233c-1.258-.887-.712-2.269.5-4.136s2.8-3.687,1.592-5.742-3.684-1.143-3.684-1.143-2.519,2.926-4.549,1.353c0,0,2.565-3.725,3.556-4.375s7.387-.13,8.816-2.426,11.394-26.132,11.394-26.132Z" transform="translate(134.99 73.431)" fill="#e7b7b7"/>
            <path id="Trazado_733723" data-name="Trazado 733723" d="M464.747,258.619s14.233-4.584,18.854-8.1c0,0-1.271-3.229-3.318-7.608-5.08,2.457-12.562,5.928-19.178,8.42Z" transform="translate(138.019 72.708)" fill="#fff"/>
            <path id="Trazado_733724" data-name="Trazado 733724" d="M467.326,262.218a.489.489,0,0,1-.437-.269l-14.352-28.731a.488.488,0,0,1,.873-.435l14.163,28.354c.334-.11.864-.287,1.537-.517a.487.487,0,1,1,.314.921c-1.2.413-1.949.652-1.949.652a.461.461,0,0,1-.149.025" transform="translate(135.439 69.596)" fill="#292222"/>
            <path id="Trazado_733725" data-name="Trazado 733725" d="M456.342,224.021c8.407-1.828,15.262-40.873.615-36.931-2.582-6.482-12.257-7.406-22.166-1.451-12.765-3.139-12.537,10.5-8.305,16.475,0,7.265,3.257,10.809,7.912,12.719Z" transform="translate(126.879 54.374)" fill="#292222"/>
            <path id="Trazado_733726" data-name="Trazado 733726" d="M434.528,235.443c.542,2.057,6.189,3.194,8.446,3.194,6.334,0,11.748-2.274,12.776-6.2l-2.97-29.252-15.665,3.165Z" transform="translate(130.064 60.819)" fill="#e7b7b7"/>
            <path id="Trazado_733727" data-name="Trazado 733727" d="M435.1,224.257c13.023-1.315,13.869-11.478,13.869-11.478l-12.958,1.245Z" transform="translate(130.234 63.689)" fill="#a65036"/>
            <path id="Trazado_733728" data-name="Trazado 733728" d="M428.547,196.143c-3.035,4.826-.986,7.444-.986,12.249,0,5.153-1.974,12.464,2.157,16.275,4.277,3.949,14.185,4.141,20.966-4.41,6.846-8.634,5.288-23.041-2.152-26.761-6.362-3.181-15.785-4.029-19.985,2.647" transform="translate(127.776 57.198)" fill="#e7b7b7"/>
            <path id="Trazado_733729" data-name="Trazado 733729" d="M425.886,200.348c1.3,3.4,15.381-3.941,18.97-2.67.954,2.861,6.688,14.089,10.545,7.951s1.568-12.528-5.109-15.484-14.993-3.911-19.658,0-4.749,10.2-4.749,10.2" transform="translate(127.477 56.14)" fill="#292222"/>
            <path id="Trazado_733730" data-name="Trazado 733730" d="M449.168,201.8a3.76,3.76,0,0,1,6.625,1.366c.617,2.127.005,8.139-6.047,7.732-5.625-.378-1.97-7.293-.578-9.1" transform="translate(133.711 59.963)" fill="#e7b7b7"/>
            <path id="Trazado_733731" data-name="Trazado 733731" d="M449.352,207.093a.337.337,0,0,0,.079-.009.332.332,0,0,0,.242-.4c-.39-1.592.029-3.286.972-3.941a1.57,1.57,0,0,1,1.88.13.329.329,0,1,0,.37-.544,2.207,2.207,0,0,0-2.626-.127c-1.175.815-1.694,2.766-1.238,4.64a.332.332,0,0,0,.321.251" transform="translate(134.356 60.411)" fill="#a65036"/>
            <path id="Trazado_733732" data-name="Trazado 733732" d="M432.155,211.912c-2.358,0-2.827-.474-3.2-1.094-.231-.386-.021-1.138.477-2.805a33.244,33.244,0,0,0,.933-3.638.276.276,0,1,1,.544.095,34.191,34.191,0,0,1-.948,3.7,10.191,10.191,0,0,0-.555,2.328c.253.425.513.863,2.745.863a.275.275,0,0,1,0,.551" transform="translate(128.369 61.106)" fill="#a65036"/>
            <path id="Trazado_733733" data-name="Trazado 733733" d="M444.448,205.786a2.631,2.631,0,1,1-3.694-1.385,2.8,2.8,0,0,1,3.694,1.385" transform="translate(131.537 61.1)" fill="#e3a2a2"/>
            <path id="Trazado_733734" data-name="Trazado 733734" d="M435.434,203c0,1-.477,1.813-1.064,1.813S433.306,204,433.306,203s.477-1.813,1.064-1.813,1.064.812,1.064,1.813" transform="translate(129.698 60.221)" fill="#292222"/>
            <path id="Trazado_733735" data-name="Trazado 733735" d="M432.67,200.415c.222.755,2.126-.609,3.242-.5,1.9.188,1.975,1.145,2.662.968.1-.872-1.117-1.984-2.765-2.093a2.991,2.991,0,0,0-3.139,1.624" transform="translate(129.508 59.499)" fill="#292222"/>
            <path id="Trazado_733736" data-name="Trazado 733736" d="M429.239,203.535c0,.829-.4,1.5-.882,1.5s-.882-.673-.882-1.5.395-1.5.882-1.5.882.672.882,1.5" transform="translate(127.953 60.473)" fill="#292222"/>
            <path id="Trazado_733737" data-name="Trazado 733737" d="M430.061,201.035c0,.594-1.6-.014-2.3.29-1.159.505-1.19,1.436-1.514,1.293a1.859,1.859,0,0,1,1.251-2.11,2.266,2.266,0,0,1,2.56.528" transform="translate(127.565 59.96)" fill="#292222"/>
            <path id="Trazado_733738" data-name="Trazado 733738" d="M437.12,210.573a13.346,13.346,0,0,1-5.274,2.866,3.247,3.247,0,0,0,4.025,1.007,2.57,2.57,0,0,0,1.249-3.873" transform="translate(129.261 63.029)" fill="#fff"/>
            <path id="Trazado_733739" data-name="Trazado 733739" d="M154.6,412.8c1.041,7.557,2.356,16.121,3.768,35.655l20.74.069L177.62,412.8Z" transform="translate(46.277 123.562)" fill="#e7b7b7"/>
            <path id="Trazado_733740" data-name="Trazado 733740" d="M132.909,447.4l5.217-34.594h-19.68L115.225,447.4Z" transform="translate(34.489 123.562)" fill="#e7b7b7"/>
            <path id="Trazado_733741" data-name="Trazado 733741" d="M182.162,288.741l-61.727-.809c-.609,27.121-4.976,119.1-7.135,170.754,10.769-.053,18.9-.108,29.664-.161,3.224-50.463,5.847-100.473,11.694-123.427,2.816,24.578,5.695,51.413,6.7,75.157.674,15.918,1.353,31.88,3.911,47.6,11.511.4,16.017-.2,27.426-1.785-6.068-54.4-.052-122.883-10.534-167.333" transform="translate(33.914 86.184)" fill="#a65036"/>
            <path id="Trazado_733742" data-name="Trazado 733742" d="M130.689,443.062a.487.487,0,0,1-.487-.487c0-.761.127-76.7,11.1-128.841a.488.488,0,0,1,.955.2C131.3,365.98,131.176,441.815,131.176,442.575a.487.487,0,0,1-.487.487" transform="translate(38.972 93.792)" fill="#292222"/>
            <path id="Trazado_733743" data-name="Trazado 733743" d="M161.391,443.712a.487.487,0,0,1-.486-.465c-.027-.6-.069-1.779-.127-3.454-2.742-78.388-8.322-111.688-12.522-125.821a.487.487,0,0,1,.934-.276c4.215,14.186,9.816,47.572,12.561,126.063.058,1.668.1,2.843.127,3.443a.488.488,0,0,1-.464.509Z" transform="translate(44.37 93.791)" fill="#292222"/>
            <path id="Trazado_733744" data-name="Trazado 733744" d="M139.141,452.831a1.759,1.759,0,0,1-.843,2.187,10.27,10.27,0,0,1-2.548.281l-30.5-.006a10.2,10.2,0,0,1-2.115-.2,2.179,2.179,0,0,1-1.3-1.579c-.676-2.58-.459-10.376,11.823-11.648,1.379-.142,2.946-.244,3.817-1.321.725-.893.733-2.2,1.406-3.131,1.315-1.823,4.189-1.217,6.125-.077s4,2.7,6.186,2.178c2.024-.481,3.72-2.695,5.713-2.095a3.165,3.165,0,0,1,1.975,2.717,13.275,13.275,0,0,1-.283,3.529,18.66,18.66,0,0,0,.543,9.163" transform="translate(30.418 130.581)" fill="#00b1ea"/>
            <path id="Trazado_733745" data-name="Trazado 733745" d="M134.912,445.576c-.808.685-1.472,1.521-2.213,2.28-2.25,2.3-4.092,3.122-7.888,3.122H113.773c-4.1,0-8.122-3.339-12.108-2.655a7.868,7.868,0,0,0,.17,2.63,2.18,2.18,0,0,0,1.3,1.58,10.246,10.246,0,0,0,2.114.195l30.5.008a10.325,10.325,0,0,0,2.547-.281,1.76,1.76,0,0,0,.843-2.188,15.5,15.5,0,0,1-.85-5.236,3.383,3.383,0,0,0-3.378.544" transform="translate(30.419 133.145)" fill="#fff"/>
            <path id="Trazado_733746" data-name="Trazado 733746" d="M119.35,441.614a2.932,2.932,0,0,1,2.369.46c.108.108-2.139,5.9-2.788,6.145a3.029,3.029,0,0,1-2.245-.249c-.3-.3,2.035-6.111,2.665-6.355" transform="translate(34.919 132.152)" fill="#fff"/>
            <path id="Trazado_733747" data-name="Trazado 733747" d="M123.836,441.614a2.932,2.932,0,0,1,2.369.46c.108.108-2.139,5.9-2.788,6.145a3.029,3.029,0,0,1-2.245-.249c-.3-.3,2.035-6.111,2.665-6.355" transform="translate(36.261 132.152)" fill="#fff"/>
            <path id="Trazado_733748" data-name="Trazado 733748" d="M155.843,452.843a1.76,1.76,0,0,0,.843,2.187,10.262,10.262,0,0,0,2.547.281l45.876-.006a10.191,10.191,0,0,0,2.115-.2,1.89,1.89,0,0,0,1.3-1.579c.568-9.708-10.79-10.376-23.072-11.648-1.379-.142-2.944-.244-3.817-1.321-.724-.893-.732-2.2-1.4-3.131-1.315-1.823-4.283-1.364-6.125-.077-3.83,2.675-6.707,3.62-10.311,2.178-1.932-.773-3.72-2.695-5.713-2.095a3.165,3.165,0,0,0-1.975,2.717,13.274,13.274,0,0,0,.283,3.529,18.659,18.659,0,0,1-.543,9.163" transform="translate(46.617 130.57)" fill="#00b1ea"/>
            <path id="Trazado_733749" data-name="Trazado 733749" d="M159.233,452.735l45.876-.008a10.248,10.248,0,0,0,2.114-.195,1.892,1.892,0,0,0,1.3-1.58,9.679,9.679,0,0,0-.216-2.674c-5.5-.412-11.048,2.7-16.7,2.7H175.868c-5.412,0-8.036-.817-11.246-3.122-1.056-.759-2-1.6-3.155-2.28a6.454,6.454,0,0,0-4.775-.551,15.548,15.548,0,0,1-.85,5.244,1.758,1.758,0,0,0,.843,2.187,10.327,10.327,0,0,0,2.547.281" transform="translate(46.616 133.145)" fill="#fff"/>
            <path id="Trazado_733750" data-name="Trazado 733750" d="M173.881,441.614a2.932,2.932,0,0,0-2.369.46c-.108.108,2.139,5.9,2.788,6.145a3.033,3.033,0,0,0,2.247-.249c.3-.3-2.036-6.111-2.666-6.355" transform="translate(51.336 132.152)" fill="#fff"/>
            <path id="Trazado_733751" data-name="Trazado 733751" d="M169.395,441.614a2.932,2.932,0,0,0-2.369.46c-.108.108,2.139,5.9,2.788,6.145a3.033,3.033,0,0,0,2.247-.249c.3-.3-2.036-6.111-2.666-6.355" transform="translate(49.993 132.152)" fill="#fff"/>
            <path id="Trazado_733752" data-name="Trazado 733752" d="M159,184.338c-12.26-1.867-21.437,1.082-28.459,15.016-2.831,5.62-3.386,13.121-7.362,16.968s-10.393,8.4-13.508,13.943c-3.048,5.423-5.2,16.169,3.042,27.291,9.015,12.158,37.146,13.651,49.861,9.316,12.386-4.223,19.869-12.641,19.09-26.88-.357-6.533-3.868-6.434-5.334-14.856s6.224-37.209-17.33-40.8" transform="translate(32.012 55.025)" fill="#292222"/>
            <path id="Trazado_733753" data-name="Trazado 733753" d="M107.829,248.048l17.081,4.882s-6.085,17.7-7.469,25.337-1.615,27.9-1.615,27.9l-3.5,17.514s-12.852-30.8-12.852-42.814,8.359-32.817,8.359-32.817" transform="translate(29.774 74.246)" fill="#e7b7b7"/>
            <path id="Trazado_733754" data-name="Trazado 733754" d="M131.758,225.476c-20.784,0-28.8,30.374-28.8,30.374,5.579,3.673,21.871,6.13,21.871,6.13Z" transform="translate(30.819 67.49)" fill="#ff6363"/>
            <path id="Trazado_733755" data-name="Trazado 733755" d="M186.366,277.171c-2.057-14.076-7.285-30.164-7.285-30.164l-15.886,4.5s2.757,10.275,5.642,25.662c2.769,8.99,15.038,39.412,23.2,47.7l5.67-12.262c-.135-4.033-10.422-30.129-11.342-35.434" transform="translate(48.848 73.935)" fill="#e7b7b7"/>
            <path id="Trazado_733756" data-name="Trazado 733756" d="M154.782,225.476c20.784,0,28.8,30.374,28.8,30.374-5.579,3.673-21.871,6.13-21.871,6.13Z" transform="translate(46.33 67.49)" fill="#ff6363"/>
            <path id="Trazado_733757" data-name="Trazado 733757" d="M127.287,225.476h38.552c10.28,10.93,13.15,21,13.785,26.63.639,5.674-2.44,11.42-3.081,13.235s5.529,37.967,5.356,45.546c-11.055,7-55.181,7.227-63.951-2.139,0,0-1.787-76.309,9.34-83.272" transform="translate(35.273 67.49)" fill="#ff6363"/>
            <path id="Trazado_733758" data-name="Trazado 733758" d="M163.261,262.594a.487.487,0,0,1-.46-.65c.113-.32.3-.759.528-1.3,1.064-2.5,3.043-7.153,2.527-11.722a37.941,37.941,0,0,0-3.589-11.945.487.487,0,0,1,.88-.42,38.912,38.912,0,0,1,3.678,12.255c.543,4.823-1.5,9.631-2.6,12.212-.22.513-.4.934-.505,1.24a.49.49,0,0,1-.46.325" transform="translate(48.556 70.725)" fill="#292222"/>
            <path id="Trazado_733759" data-name="Trazado 733759" d="M118.807,257.9h-.035a.488.488,0,0,1-.452-.52c.534-7.617,1.256-14.147,2.148-19.408a.488.488,0,1,1,.962.162c-.887,5.23-1.606,11.728-2.137,19.313a.486.486,0,0,1-.485.453" transform="translate(35.416 71.11)" fill="#292222"/>
            <path id="Trazado_733760" data-name="Trazado 733760" d="M155.3,261.015c-.963,0-1.609-.055-1.709-.064a.487.487,0,0,1-.442-.527.463.463,0,0,1,.529-.442c.091,0,9.347.778,11.861-3.942a.487.487,0,0,1,.86.459c-2.13,4-8.122,4.516-11.1,4.516" transform="translate(45.842 76.561)" fill="#292222"/>
            <path id="Trazado_733761" data-name="Trazado 733761" d="M139.193,262.693a23.269,23.269,0,0,1-14.914-5.532.487.487,0,1,1,.638-.735c7.561,6.554,18.214,6.581,23.418,2.5a.487.487,0,1,1,.6.765,15.713,15.713,0,0,1-9.744,3.005" transform="translate(37.149 76.718)" fill="#292222"/>
            <path id="Trazado_733762" data-name="Trazado 733762" d="M152.112,206.352c-.286,3.052,2.193,26.706,2.193,26.706,2.05,13.6-20.506,0-20.506,0l2.647-29.869Z" transform="translate(40.049 60.819)" fill="#e7b7b7"/>
            <path id="Trazado_733763" data-name="Trazado 733763" d="M151.12,223.976c-9.614-3.464-8.66-9.976-8.66-9.976l7.7-.279c.305,3.5.664,7.246.962,10.256" transform="translate(42.634 63.971)" fill="#a65036"/>
            <path id="Trazado_733764" data-name="Trazado 733764" d="M160.659,196.143c3.035,4.826.986,7.444.986,12.249,0,5.153,1.974,12.464-2.157,16.275-4.277,3.949-14.185,4.141-20.966-4.41-6.846-8.634-5.288-23.041,2.152-26.761,6.361-3.181,15.785-4.029,19.985,2.647" transform="translate(40.155 57.198)" fill="#e7b7b7"/>
            <path id="Trazado_733765" data-name="Trazado 733765" d="M135.685,201.8a3.76,3.76,0,0,0-6.625,1.366c-.617,2.127-.005,8.139,6.047,7.732,5.623-.378,1.97-7.293.578-9.1" transform="translate(38.574 59.963)" fill="#e7b7b7"/>
            <path id="Trazado_733766" data-name="Trazado 733766" d="M134.342,207.093a.333.333,0,0,0,.321-.251c.457-1.874-.064-3.825-1.24-4.64a2.2,2.2,0,0,0-2.625.127.329.329,0,0,0,.37.544,1.571,1.571,0,0,1,1.879-.131c.946.656,1.364,2.35.973,3.942a.333.333,0,0,0,.243.4.319.319,0,0,0,.078.009" transform="translate(39.108 60.411)" fill="#a65036"/>
            <path id="Trazado_733767" data-name="Trazado 733767" d="M131.238,209.281c0,1.41.6,2.553,1.329,2.553s1.329-1.143,1.329-2.553-.6-2.553-1.329-2.553-1.329,1.143-1.329,2.553" transform="translate(39.282 61.878)" fill="#fff"/>
            <path id="Trazado_733768" data-name="Trazado 733768" d="M150.106,211.912c2.358,0,2.827-.474,3.2-1.094.231-.386.021-1.138-.477-2.805a33.237,33.237,0,0,1-.933-3.638.276.276,0,0,0-.544.095,34.194,34.194,0,0,0,.949,3.7,10.194,10.194,0,0,1,.555,2.328c-.253.425-.513.863-2.745.863a.275.275,0,1,0,0,.551" transform="translate(44.848 61.106)" fill="#a65036"/>
            <path id="Trazado_733769" data-name="Trazado 733769" d="M138.78,205.543a3.768,3.768,0,1,0,5.29-1.981,4.011,4.011,0,0,0-5.29,1.981" transform="translate(41.375 60.813)" fill="#e3a2a2"/>
            <path id="Trazado_733770" data-name="Trazado 733770" d="M151.738,213.132h-.019a10.384,10.384,0,0,1-6.377-2.245.325.325,0,0,1,.426-.49,9.754,9.754,0,0,0,5.99,2.087.324.324,0,0,1-.02.648" transform="translate(43.471 62.952)" fill="#a65036"/>
            <path id="Trazado_733771" data-name="Trazado 733771" d="M146.847,203c0,1,.477,1.813,1.064,1.813s1.064-.812,1.064-1.813-.477-1.813-1.064-1.813-1.064.812-1.064,1.813" transform="translate(43.955 60.221)" fill="#292222"/>
            <path id="Trazado_733772" data-name="Trazado 733772" d="M151.408,200.415c-.285.651-1.363-.364-2.813-.465a4.929,4.929,0,0,0-3.091.934c-.1-.872,1.117-1.984,2.765-2.093a2.991,2.991,0,0,1,3.139,1.624" transform="translate(43.551 59.499)" fill="#292222"/>
            <path id="Trazado_733773" data-name="Trazado 733773" d="M148.071,201.236a3.763,3.763,0,0,0-1.757-.156L148,201.9Z" transform="translate(43.795 60.176)" fill="#292222"/>
            <path id="Trazado_733774" data-name="Trazado 733774" d="M152.924,203.535c0,.829.4,1.5.882,1.5s.882-.673.882-1.5-.395-1.5-.882-1.5-.882.672-.882,1.5" transform="translate(45.774 60.473)" fill="#292222"/>
            <path id="Trazado_733775" data-name="Trazado 733775" d="M152.59,201.035c.144.823,1.277-.123,2.132.214a3.526,3.526,0,0,1,1.679,1.368,1.859,1.859,0,0,0-1.251-2.11,2.266,2.266,0,0,0-2.56.528" transform="translate(45.674 59.96)" fill="#292222"/>
            <path id="Trazado_733776" data-name="Trazado 733776" d="M153.6,202.048a3.863,3.863,0,0,1,1.512.009l-1.512.47Z" transform="translate(45.977 60.458)" fill="#292222"/>
            <path id="Trazado_733777" data-name="Trazado 733777" d="M159.9,189.817c-4.876-3.643-14.538-3.652-20.577.452-6.208,4.219-5.924,13.939-5.109,15.485A2.7,2.7,0,0,0,136,207.793c-1.243,5.156.674,14.862.674,14.862s0-10.062,2.521-13.332c2.409-3.126,5.9-6.374,5.574-11.52,6.7-2.651,11.531,4.462,20.328,3.8,0,0,2.308-6.181-5.192-11.785" transform="translate(40.045 56.014)" fill="#292222"/>
            <path id="Trazado_733779" data-name="Trazado 733779" d="M193.625,299.484c-.366-3.838-2.642-8.647-4.279-8.647V297.5s-.331,1.034-.946,1.054-7.563.008-8.587.487a1.365,1.365,0,0,0,.04,2.539c1.279.589,7,1.185,7,1.185s-8.2.334-9.206.5-1.223,2.634.151,2.886,8.994-.017,8.994-.017-6.189,1.045-7.18,1.207a1.261,1.261,0,0,0-.129,2.475c1.434.487,7.016-.039,7.016-.039s-.521,1.115-4.459,1.412c-.967.073-1,1.462.178,1.69,1.156.225,8.071.715,9.385-.03,2.095-1.19,2.6-7.248,2.017-13.358" transform="translate(52.931 87.054)" fill="#e7b7b7"/>
            <path id="Trazado_733780" data-name="Trazado 733780" d="M104.886,299.484c.366-3.838,2.642-8.647,4.279-8.647V297.5s.331,1.034.946,1.054,7.563.008,8.587.487a1.365,1.365,0,0,1-.04,2.539c-1.279.589-7,1.185-7,1.185s8.2.334,9.207.5,1.221,2.634-.152,2.886-8.994-.017-8.994-.017,6.189,1.045,7.18,1.207a1.261,1.261,0,0,1,.129,2.475c-1.434.487-7.016-.039-7.016-.039s.521,1.115,4.459,1.412c.967.073,1,1.462-.178,1.69-1.156.225-8.071.715-9.385-.03-2.094-1.19-2.6-7.248-2.017-13.358" transform="translate(31.327 87.054)" fill="#e7b7b7"/>
          </g>
        </g>
      </g>
    </g>
    <rect id="Rectángulo_341877" data-name="Rectángulo 341877" width="157" height="67" rx="15" transform="translate(654 7012.383)" fill="#f1cc4b"/>
    <rect id="Rectángulo_341878" data-name="Rectángulo 341878" width="179" height="67" rx="15" transform="translate(513 7146.383)" fill="#f1cc4b"/>
    <rect id="Rectángulo_341879" data-name="Rectángulo 341879" width="119" height="67" rx="15" transform="translate(948 7146.383)" fill="#f1cc4b"/>
    <rect id="Rectángulo_341880" data-name="Rectángulo 341880" width="145" height="44" rx="15" transform="translate(739 7242.383)" fill="#f1cc4b"/>
    <rect id="Rectángulo_341881" data-name="Rectángulo 341881" width="145" height="44" rx="15" transform="translate(858 6974.383)" fill="#f1cc4b"/>
    <path id="Trazado_735361" data-name="Trazado 735361" d="M-47.892-4.333a4.673,4.673,0,0,1-.721,2.36,4.35,4.35,0,0,1-1.85,1.586,6.3,6.3,0,0,1-2.72.563,5.025,5.025,0,0,1-3.973-1.644,6.786,6.786,0,0,1-1.45-4.641v-.633a7.746,7.746,0,0,1,.655-3.292,4.961,4.961,0,0,1,1.885-2.18,5.26,5.26,0,0,1,2.848-.769,5.516,5.516,0,0,1,3.744,1.226,4.844,4.844,0,0,1,1.608,3.379h-3.076a2.292,2.292,0,0,0-.589-1.679,2.422,2.422,0,0,0-1.687-.51,1.843,1.843,0,0,0-1.687.861,5.536,5.536,0,0,0-.562,2.751v.905a6.126,6.126,0,0,0,.514,2.927,1.882,1.882,0,0,0,1.771.879,2.369,2.369,0,0,0,1.626-.5,2.126,2.126,0,0,0,.6-1.591ZM-41.212,0a3.344,3.344,0,0,1-.281-.853A2.754,2.754,0,0,1-43.778.176a3.374,3.374,0,0,1-2.285-.813A2.588,2.588,0,0,1-47-2.681a2.66,2.66,0,0,1,1.143-2.338,5.821,5.821,0,0,1,3.322-.791h.914v-.5q0-1.316-1.134-1.316a.927.927,0,0,0-1.055,1.042h-2.962A2.655,2.655,0,0,1-45.6-8.825a4.931,4.931,0,0,1,2.993-.86,4.323,4.323,0,0,1,2.874.888,3.086,3.086,0,0,1,1.081,2.435v4.21a4.311,4.311,0,0,0,.4,2V0Zm-1.854-1.934a1.652,1.652,0,0,0,.918-.237,1.487,1.487,0,0,0,.523-.536V-4.228h-.861q-1.547,0-1.547,1.389a.848.848,0,0,0,.272.655A.986.986,0,0,0-43.066-1.934ZM-33.891,0h-2.971V-13.5h2.971Zm6.425.176a4.889,4.889,0,0,1-3.542-1.305,4.507,4.507,0,0,1-1.354-3.4v-.246a5.84,5.84,0,0,1,.541-2.575,3.955,3.955,0,0,1,1.578-1.727,4.763,4.763,0,0,1,2.461-.611,4.117,4.117,0,0,1,3.164,1.244,4.887,4.887,0,0,1,1.16,3.467v1.151h-5.889a2.135,2.135,0,0,0,.694,1.257,2.066,2.066,0,0,0,1.389.457,2.662,2.662,0,0,0,2.2-.984l1.354,1.6A3.784,3.784,0,0,1-25.282-.277,5.3,5.3,0,0,1-27.466.176ZM-27.8-7.4q-1.3,0-1.547,1.723h2.988v-.229a1.467,1.467,0,0,0-.36-1.1A1.434,1.434,0,0,0-27.8-7.4Zm8.253-2.109.1,1.116a3.225,3.225,0,0,1,2.716-1.292,2.713,2.713,0,0,1,2.219.888,4.226,4.226,0,0,1,.76,2.672V0h-2.971V-6a1.6,1.6,0,0,0-.29-1.059A1.342,1.342,0,0,0-18.07-7.4a1.413,1.413,0,0,0-1.292.686V0h-2.962V-9.51Zm10.881-2.364V-9.51H-7.1v2.057H-8.666V-3.1a1.111,1.111,0,0,0,.193.747,1.037,1.037,0,0,0,.765.211A4.345,4.345,0,0,0-6.97-2.2V-.079A5.466,5.466,0,0,1-8.64.176,3.1,3.1,0,0,1-10.9-.545a2.954,2.954,0,0,1-.729-2.188v-4.72h-1.213V-9.51h1.213v-2.364ZM-.58,0A3.344,3.344,0,0,1-.861-.853,2.754,2.754,0,0,1-3.146.176,3.374,3.374,0,0,1-5.432-.637a2.588,2.588,0,0,1-.94-2.043A2.66,2.66,0,0,1-5.229-5.019,5.821,5.821,0,0,1-1.907-5.81h.914v-.5q0-1.316-1.134-1.316A.927.927,0,0,0-3.182-6.587H-6.144A2.655,2.655,0,0,1-4.97-8.825a4.931,4.931,0,0,1,2.993-.86A4.323,4.323,0,0,1,.9-8.8,3.086,3.086,0,0,1,1.978-6.363v4.21a4.311,4.311,0,0,0,.4,2V0ZM-2.435-1.934a1.652,1.652,0,0,0,.918-.237,1.487,1.487,0,0,0,.523-.536V-4.228h-.861Q-3.4-4.228-3.4-2.839a.848.848,0,0,0,.272.655A.986.986,0,0,0-2.435-1.934ZM6.416-9.51l.1,1.116A3.27,3.27,0,0,1,9.229-9.686a2.407,2.407,0,0,1,2.435,1.433,3.165,3.165,0,0,1,2.795-1.433q2.892,0,2.971,3.5V0H14.458V-6a1.813,1.813,0,0,0-.246-1.063,1.048,1.048,0,0,0-.9-.334,1.4,1.4,0,0,0-1.31.782l.009.123V0H9.044V-5.985a1.906,1.906,0,0,0-.237-1.081A1.045,1.045,0,0,0,7.9-7.4a1.42,1.42,0,0,0-1.3.782V0H3.639V-9.51ZM22.245,0H19.274V-9.51h2.971ZM19.1-11.962A1.322,1.322,0,0,1,19.556-13a1.724,1.724,0,0,1,1.187-.4,1.724,1.724,0,0,1,1.187.4,1.322,1.322,0,0,1,.457,1.037,1.322,1.322,0,0,1-.457,1.037,1.724,1.724,0,0,1-1.187.4,1.724,1.724,0,0,1-1.187-.4A1.322,1.322,0,0,1,19.1-11.962ZM28.67.176a4.889,4.889,0,0,1-3.542-1.305,4.507,4.507,0,0,1-1.354-3.4v-.246a5.84,5.84,0,0,1,.541-2.575,3.955,3.955,0,0,1,1.578-1.727,4.763,4.763,0,0,1,2.461-.611,4.117,4.117,0,0,1,3.164,1.244,4.887,4.887,0,0,1,1.16,3.467v1.151H26.789a2.135,2.135,0,0,0,.694,1.257,2.066,2.066,0,0,0,1.389.457,2.662,2.662,0,0,0,2.2-.984l1.354,1.6A3.784,3.784,0,0,1,30.854-.277,5.3,5.3,0,0,1,28.67.176ZM28.336-7.4q-1.3,0-1.547,1.723h2.988v-.229a1.467,1.467,0,0,0-.36-1.1A1.434,1.434,0,0,0,28.336-7.4ZM36.589-9.51l.1,1.116A3.225,3.225,0,0,1,39.4-9.686a2.713,2.713,0,0,1,2.219.888,4.226,4.226,0,0,1,.76,2.672V0H39.41V-6a1.6,1.6,0,0,0-.29-1.059A1.342,1.342,0,0,0,38.065-7.4a1.413,1.413,0,0,0-1.292.686V0H33.812V-9.51ZM47.47-11.874V-9.51h1.564v2.057H47.47V-3.1a1.111,1.111,0,0,0,.193.747,1.037,1.037,0,0,0,.765.211,4.345,4.345,0,0,0,.738-.053V-.079A5.466,5.466,0,0,1,47.5.176a3.1,3.1,0,0,1-2.259-.721,2.954,2.954,0,0,1-.729-2.188v-4.72H43.295V-9.51h1.213v-2.364Zm2.092,7.031a5.613,5.613,0,0,1,.554-2.536,3.96,3.96,0,0,1,1.591-1.709,4.791,4.791,0,0,1,2.435-.6,4.373,4.373,0,0,1,3.366,1.323,5.076,5.076,0,0,1,1.23,3.6v.105A4.925,4.925,0,0,1,57.5-1.129,4.384,4.384,0,0,1,54.158.176,4.434,4.434,0,0,1,50.9-1.042a4.761,4.761,0,0,1-1.327-3.3Zm2.962.185a3.538,3.538,0,0,0,.413,1.934,1.376,1.376,0,0,0,1.222.615q1.582,0,1.617-2.435v-.3q0-2.558-1.635-2.558-1.485,0-1.608,2.206ZM-24.539,20.175a6.421,6.421,0,0,1,.475-2.549A3.821,3.821,0,0,1-22.7,15.917a3.591,3.591,0,0,1,2.065-.6,2.855,2.855,0,0,1,2.32,1l.105-.826h2.689V24.64a4.009,4.009,0,0,1-.584,2.184A3.75,3.75,0,0,1-17.8,28.248a6.219,6.219,0,0,1-2.566.5,5.365,5.365,0,0,1-2.026-.4,3.657,3.657,0,0,1-1.5-1.028l1.239-1.74a2.716,2.716,0,0,0,2.18.976A1.764,1.764,0,0,0-18.5,24.534v-.3a2.781,2.781,0,0,1-2.153.94,3.437,3.437,0,0,1-2.812-1.332,5.517,5.517,0,0,1-1.072-3.564Zm2.971.185a3.383,3.383,0,0,0,.439,1.85,1.387,1.387,0,0,0,1.23.681,1.573,1.573,0,0,0,1.4-.642v-4a1.534,1.534,0,0,0-1.38-.65,1.4,1.4,0,0,0-1.239.708A3.858,3.858,0,0,0-21.568,20.359ZM-10.714,25h-2.971V11.5h2.971Zm1.45-4.843a5.613,5.613,0,0,1,.554-2.536,3.96,3.96,0,0,1,1.591-1.709,4.791,4.791,0,0,1,2.435-.6,4.373,4.373,0,0,1,3.366,1.323,5.076,5.076,0,0,1,1.23,3.6v.105a4.925,4.925,0,0,1-1.235,3.529,4.384,4.384,0,0,1-3.344,1.305,4.434,4.434,0,0,1-3.261-1.217,4.761,4.761,0,0,1-1.327-3.3Zm2.962.185a3.538,3.538,0,0,0,.413,1.934,1.376,1.376,0,0,0,1.222.615q1.582,0,1.617-2.435v-.3q0-2.558-1.635-2.558-1.485,0-1.608,2.206Zm16.348-.018a5.8,5.8,0,0,1-.967,3.595,3.238,3.238,0,0,1-2.725,1.257,2.81,2.81,0,0,1-2.338-1.151L3.894,25H1.239V11.5H4.2v4.755a2.711,2.711,0,0,1,2.136-.94,3.239,3.239,0,0,1,2.742,1.274,5.826,5.826,0,0,1,.967,3.586Zm-2.971-.189a3.866,3.866,0,0,0-.365-1.952A1.229,1.229,0,0,0,5.59,17.6a1.418,1.418,0,0,0-1.389.763v3.773a1.426,1.426,0,0,0,1.406.755,1.258,1.258,0,0,0,1.327-1.018A7.309,7.309,0,0,0,7.075,20.135ZM16.708,25a3.344,3.344,0,0,1-.281-.853,2.754,2.754,0,0,1-2.285,1.028,3.374,3.374,0,0,1-2.285-.813,2.588,2.588,0,0,1-.94-2.043,2.66,2.66,0,0,1,1.143-2.338,5.821,5.821,0,0,1,3.322-.791h.914v-.5q0-1.316-1.134-1.316a.927.927,0,0,0-1.055,1.042H11.145a2.655,2.655,0,0,1,1.173-2.239,4.931,4.931,0,0,1,2.993-.86,4.323,4.323,0,0,1,2.874.888,3.086,3.086,0,0,1,1.081,2.435v4.21a4.311,4.311,0,0,0,.4,2V25Zm-1.854-1.934a1.652,1.652,0,0,0,.918-.237,1.487,1.487,0,0,0,.523-.536V20.772h-.861q-1.547,0-1.547,1.389a.848.848,0,0,0,.272.655A.986.986,0,0,0,14.854,23.066ZM24.029,25H21.059V11.5h2.971Z" transform="translate(733 7040.383)" fill="#12263f"/>
    <path id="Trazado_735362" data-name="Trazado 735362" d="M-47.188-5.432H-52.04v3.059h5.73V0h-8.815V-12.8h8.833v2.382H-52.04v2.7h4.852Zm5.563,1.907,1.5-5.985H-37L-40.1,0h-3.023l-3.1-9.51H-43.1ZM-30.894,0a3.344,3.344,0,0,1-.281-.853A2.754,2.754,0,0,1-33.46.176a3.374,3.374,0,0,1-2.285-.813,2.588,2.588,0,0,1-.94-2.043,2.66,2.66,0,0,1,1.143-2.338,5.821,5.821,0,0,1,3.322-.791h.914v-.5q0-1.316-1.134-1.316A.927.927,0,0,0-33.5-6.587h-2.962a2.655,2.655,0,0,1,1.173-2.239,4.931,4.931,0,0,1,2.993-.86,4.323,4.323,0,0,1,2.874.888,3.086,3.086,0,0,1,1.081,2.435v4.21a4.311,4.311,0,0,0,.4,2V0Zm-1.854-1.934a1.652,1.652,0,0,0,.918-.237,1.487,1.487,0,0,0,.523-.536V-4.228h-.861q-1.547,0-1.547,1.389a.848.848,0,0,0,.272.655A.986.986,0,0,0-32.748-1.934ZM-23.572,0h-2.971V-13.5h2.971Zm7.488-1.028a3.054,3.054,0,0,1-2.54,1.2,3,3,0,0,1-2.369-.91,3.826,3.826,0,0,1-.8-2.615V-9.51h2.962v6.179a1.065,1.065,0,0,0,1.187,1.222,1.548,1.548,0,0,0,1.45-.729V-9.51h2.979V0H-16ZM-6.24,0a3.344,3.344,0,0,1-.281-.853A2.754,2.754,0,0,1-8.807.176a3.374,3.374,0,0,1-2.285-.813,2.588,2.588,0,0,1-.94-2.043A2.66,2.66,0,0,1-10.89-5.019,5.821,5.821,0,0,1-7.567-5.81h.914v-.5q0-1.316-1.134-1.316A.927.927,0,0,0-8.842-6.587H-11.8A2.655,2.655,0,0,1-10.63-8.825a4.931,4.931,0,0,1,2.993-.86A4.323,4.323,0,0,1-4.764-8.8,3.086,3.086,0,0,1-3.683-6.363v4.21a4.311,4.311,0,0,0,.4,2V0ZM-8.095-1.934a1.652,1.652,0,0,0,.918-.237,1.487,1.487,0,0,0,.523-.536V-4.228h-.861q-1.547,0-1.547,1.389a.848.848,0,0,0,.272.655A.986.986,0,0,0-8.095-1.934ZM1.978-2.109a1.317,1.317,0,0,0,.967-.338,1.241,1.241,0,0,0,.334-.945H6.056A3.288,3.288,0,0,1,4.935-.826a4.168,4.168,0,0,1-2.887,1,4.22,4.22,0,0,1-3.27-1.3,5.125,5.125,0,0,1-1.2-3.6v-.123A5.792,5.792,0,0,1-1.885-7.4a3.872,3.872,0,0,1,1.534-1.7,4.573,4.573,0,0,1,2.373-.593A4.116,4.116,0,0,1,4.966-8.657a3.647,3.647,0,0,1,1.09,2.786H3.278A1.626,1.626,0,0,0,2.918-7a1.244,1.244,0,0,0-.967-.4Q.8-7.4.606-5.933A10.357,10.357,0,0,0,.545-4.649,4.068,4.068,0,0,0,.888-2.663,1.187,1.187,0,0,0,1.978-2.109ZM10.433,0H7.462V-9.51h2.971ZM7.286-11.962A1.322,1.322,0,0,1,7.743-13a1.724,1.724,0,0,1,1.187-.4,1.724,1.724,0,0,1,1.187.4,1.322,1.322,0,0,1,.457,1.037,1.322,1.322,0,0,1-.457,1.037,1.724,1.724,0,0,1-1.187.4,1.724,1.724,0,0,1-1.187-.4A1.322,1.322,0,0,1,7.286-11.962Zm4.6,7.119a5.613,5.613,0,0,1,.554-2.536,3.96,3.96,0,0,1,1.591-1.709,4.791,4.791,0,0,1,2.435-.6,4.373,4.373,0,0,1,3.366,1.323,5.076,5.076,0,0,1,1.23,3.6v.105a4.925,4.925,0,0,1-1.235,3.529A4.384,4.384,0,0,1,16.479.176a4.434,4.434,0,0,1-3.261-1.217,4.761,4.761,0,0,1-1.327-3.3Zm2.962.185a3.538,3.538,0,0,0,.413,1.934,1.376,1.376,0,0,0,1.222.615q1.582,0,1.617-2.435v-.3Q18.1-7.4,16.462-7.4q-1.485,0-1.608,2.206ZM16.866-13.5H20l-2.443,2.76-2.417,0Zm8.218,3.99.1,1.116A3.225,3.225,0,0,1,27.9-9.686a2.713,2.713,0,0,1,2.219.888,4.226,4.226,0,0,1,.76,2.672V0H27.905V-6a1.6,1.6,0,0,0-.29-1.059A1.342,1.342,0,0,0,26.561-7.4a1.413,1.413,0,0,0-1.292.686V0H22.307V-9.51Zm11.54,4.685a5.809,5.809,0,0,1,.976-3.56,3.211,3.211,0,0,1,2.725-1.3,2.731,2.731,0,0,1,2.145,1V-13.5h2.971V0H42.776l-.149-1.02a2.8,2.8,0,0,1-2.32,1.2,3.205,3.205,0,0,1-2.689-1.3A5.993,5.993,0,0,1,36.624-4.825Zm2.962.185q0,2.531,1.477,2.531a1.458,1.458,0,0,0,1.406-.826V-6.557A1.419,1.419,0,0,0,41.08-7.4q-1.371,0-1.485,2.215ZM51.724.176a4.889,4.889,0,0,1-3.542-1.305,4.507,4.507,0,0,1-1.354-3.4v-.246a5.84,5.84,0,0,1,.541-2.575,3.955,3.955,0,0,1,1.578-1.727,4.763,4.763,0,0,1,2.461-.611,4.117,4.117,0,0,1,3.164,1.244,4.887,4.887,0,0,1,1.16,3.467v1.151H49.843a2.135,2.135,0,0,0,.694,1.257,2.066,2.066,0,0,0,1.389.457,2.662,2.662,0,0,0,2.2-.984l1.354,1.6A3.784,3.784,0,0,1,53.908-.277,5.3,5.3,0,0,1,51.724.176ZM51.39-7.4q-1.3,0-1.547,1.723h2.988v-.229a1.467,1.467,0,0,0-.36-1.1A1.434,1.434,0,0,0,51.39-7.4ZM-71.429,25H-74.4V15.49h2.971Zm-3.146-11.962A1.322,1.322,0,0,1-74.118,12a1.724,1.724,0,0,1,1.187-.4,1.724,1.724,0,0,1,1.187.4,1.322,1.322,0,0,1,.457,1.037,1.322,1.322,0,0,1-.457,1.037,1.724,1.724,0,0,1-1.187.4,1.724,1.724,0,0,1-1.187-.4A1.322,1.322,0,0,1-74.575,13.038Zm7.77,2.452.1,1.116a3.27,3.27,0,0,1,2.716-1.292,2.407,2.407,0,0,1,2.435,1.433,3.165,3.165,0,0,1,2.795-1.433q2.892,0,2.971,3.5V25h-2.971V19a1.813,1.813,0,0,0-.246-1.063,1.048,1.048,0,0,0-.9-.334,1.4,1.4,0,0,0-1.31.782l.009.123V25h-2.971V19.015a1.906,1.906,0,0,0-.237-1.081,1.045,1.045,0,0,0-.905-.334,1.42,1.42,0,0,0-1.3.782V25h-2.962V15.49Zm21.533,4.825a5.735,5.735,0,0,1-1,3.538,3.2,3.2,0,0,1-2.694,1.323,2.742,2.742,0,0,1-2.153-.958v4.438h-2.962V15.49h2.769l.088.879a2.742,2.742,0,0,1,2.241-1.055,3.224,3.224,0,0,1,2.733,1.3,5.805,5.805,0,0,1,.976,3.564Zm-2.962-.185q0-2.531-1.477-2.531a1.394,1.394,0,0,0-1.406.756V22.1a1.439,1.439,0,0,0,1.424.791q1.415,0,1.459-2.443ZM-38.61,25a3.344,3.344,0,0,1-.281-.853,2.754,2.754,0,0,1-2.285,1.028,3.374,3.374,0,0,1-2.285-.813,2.588,2.588,0,0,1-.94-2.043,2.66,2.66,0,0,1,1.143-2.338,5.821,5.821,0,0,1,3.322-.791h.914v-.5q0-1.316-1.134-1.316a.927.927,0,0,0-1.055,1.042h-2.962A2.655,2.655,0,0,1-43,16.175a4.931,4.931,0,0,1,2.993-.86,4.323,4.323,0,0,1,2.874.888,3.086,3.086,0,0,1,1.081,2.435v4.21a4.311,4.311,0,0,0,.4,2V25Zm-1.854-1.934a1.652,1.652,0,0,0,.918-.237,1.487,1.487,0,0,0,.523-.536V20.772h-.861q-1.547,0-1.547,1.389a.848.848,0,0,0,.272.655A.986.986,0,0,0-40.465,23.066Zm10.072-.176a1.317,1.317,0,0,0,.967-.338,1.241,1.241,0,0,0,.334-.945h2.777a3.288,3.288,0,0,1-1.121,2.566,4.168,4.168,0,0,1-2.887,1,4.22,4.22,0,0,1-3.27-1.3,5.125,5.125,0,0,1-1.2-3.6v-.123a5.792,5.792,0,0,1,.532-2.544,3.872,3.872,0,0,1,1.534-1.7,4.573,4.573,0,0,1,2.373-.593A4.116,4.116,0,0,1-27.4,16.343a3.647,3.647,0,0,1,1.09,2.786h-2.777A1.626,1.626,0,0,0-29.452,18a1.244,1.244,0,0,0-.967-.4q-1.151,0-1.345,1.468a10.357,10.357,0,0,0-.062,1.283,4.068,4.068,0,0,0,.343,1.986A1.187,1.187,0,0,0-30.393,22.891Zm8.78-9.765V15.49h1.564v2.057h-1.564V21.9a1.111,1.111,0,0,0,.193.747,1.037,1.037,0,0,0,.765.211,4.345,4.345,0,0,0,.738-.053v2.118a5.466,5.466,0,0,1-1.67.255,3.1,3.1,0,0,1-2.259-.721,2.954,2.954,0,0,1-.729-2.188v-4.72h-1.213V15.49h1.213V13.126Zm2.092,7.031a5.613,5.613,0,0,1,.554-2.536,3.96,3.96,0,0,1,1.591-1.709,4.791,4.791,0,0,1,2.435-.6,4.373,4.373,0,0,1,3.366,1.323,5.076,5.076,0,0,1,1.23,3.6v.105a4.925,4.925,0,0,1-1.235,3.529,4.384,4.384,0,0,1-3.344,1.305,4.434,4.434,0,0,1-3.261-1.217,4.761,4.761,0,0,1-1.327-3.3Zm2.962.185a3.538,3.538,0,0,0,.413,1.934,1.376,1.376,0,0,0,1.222.615q1.582,0,1.617-2.435v-.3q0-2.558-1.635-2.558-1.485,0-1.608,2.206ZM.8,25a3.344,3.344,0,0,1-.281-.853,2.754,2.754,0,0,1-2.285,1.028,3.374,3.374,0,0,1-2.285-.813,2.588,2.588,0,0,1-.94-2.043A2.66,2.66,0,0,1-3.85,19.981,5.821,5.821,0,0,1-.527,19.19H.387v-.5q0-1.316-1.134-1.316A.927.927,0,0,0-1.8,18.413H-4.764A2.655,2.655,0,0,1-3.59,16.175,4.931,4.931,0,0,1-.6,15.314a4.323,4.323,0,0,1,2.874.888,3.086,3.086,0,0,1,1.081,2.435v4.21a4.311,4.311,0,0,0,.4,2V25Zm-1.854-1.934a1.652,1.652,0,0,0,.918-.237,1.487,1.487,0,0,0,.523-.536V20.772H-.475q-1.547,0-1.547,1.389a.848.848,0,0,0,.272.655A.986.986,0,0,0-1.055,23.066ZM7.8,15.49l.1,1.116a3.27,3.27,0,0,1,2.716-1.292,2.407,2.407,0,0,1,2.435,1.433,3.165,3.165,0,0,1,2.795-1.433q2.892,0,2.971,3.5V25H15.838V19a1.813,1.813,0,0,0-.246-1.063,1.048,1.048,0,0,0-.9-.334,1.4,1.4,0,0,0-1.31.782l.009.123V25H10.424V19.015a1.906,1.906,0,0,0-.237-1.081,1.045,1.045,0,0,0-.905-.334,1.42,1.42,0,0,0-1.3.782V25H5.019V15.49Zm21.533,4.834a5.8,5.8,0,0,1-.967,3.595,3.238,3.238,0,0,1-2.725,1.257A2.81,2.81,0,0,1,23.3,24.024L23.177,25H20.522V11.5h2.962v4.755a2.711,2.711,0,0,1,2.136-.94,3.239,3.239,0,0,1,2.742,1.274,5.826,5.826,0,0,1,.967,3.586Zm-2.971-.189a3.866,3.866,0,0,0-.365-1.952,1.229,1.229,0,0,0-1.121-.584,1.418,1.418,0,0,0-1.389.763v3.773a1.426,1.426,0,0,0,1.406.755,1.258,1.258,0,0,0,1.327-1.018A7.309,7.309,0,0,0,26.358,20.135ZM33.759,25H30.788V15.49h2.971ZM30.612,13.038A1.322,1.322,0,0,1,31.069,12a1.943,1.943,0,0,1,2.373,0,1.405,1.405,0,0,1,0,2.074,1.943,1.943,0,0,1-2.373,0A1.322,1.322,0,0,1,30.612,13.038Zm9.571,12.138a4.889,4.889,0,0,1-3.542-1.305,4.507,4.507,0,0,1-1.354-3.4v-.246a5.84,5.84,0,0,1,.541-2.575,3.955,3.955,0,0,1,1.578-1.727,4.763,4.763,0,0,1,2.461-.611,4.117,4.117,0,0,1,3.164,1.244,4.887,4.887,0,0,1,1.16,3.467v1.151H38.3A2.135,2.135,0,0,0,39,22.434a2.066,2.066,0,0,0,1.389.457,2.662,2.662,0,0,0,2.2-.984l1.354,1.6a3.784,3.784,0,0,1-1.569,1.217A5.3,5.3,0,0,1,40.184,25.176ZM39.85,17.6q-1.3,0-1.547,1.723h2.988v-.229a1.467,1.467,0,0,0-.36-1.1A1.434,1.434,0,0,0,39.85,17.6ZM48.1,15.49l.1,1.116a3.225,3.225,0,0,1,2.716-1.292,2.713,2.713,0,0,1,2.219.888,4.226,4.226,0,0,1,.76,2.672V25H50.924V19a1.6,1.6,0,0,0-.29-1.059,1.342,1.342,0,0,0-1.055-.338,1.413,1.413,0,0,0-1.292.686V25H45.325V15.49Zm10.881-2.364V15.49h1.564v2.057H58.983V21.9a1.111,1.111,0,0,0,.193.747,1.037,1.037,0,0,0,.765.211,4.345,4.345,0,0,0,.738-.053v2.118a5.466,5.466,0,0,1-1.67.255,3.1,3.1,0,0,1-2.259-.721,2.954,2.954,0,0,1-.729-2.188v-4.72H54.809V15.49h1.213V13.126ZM67.069,25a3.344,3.344,0,0,1-.281-.853A2.754,2.754,0,0,1,64.5,25.176a3.374,3.374,0,0,1-2.285-.813,2.588,2.588,0,0,1-.94-2.043,2.66,2.66,0,0,1,1.143-2.338,5.821,5.821,0,0,1,3.322-.791h.914v-.5q0-1.316-1.134-1.316a.927.927,0,0,0-1.055,1.042H61.506a2.655,2.655,0,0,1,1.173-2.239,4.931,4.931,0,0,1,2.993-.86,4.323,4.323,0,0,1,2.874.888,3.086,3.086,0,0,1,1.081,2.435v4.21a4.311,4.311,0,0,0,.4,2V25Zm-1.854-1.934a1.652,1.652,0,0,0,.918-.237,1.487,1.487,0,0,0,.523-.536V20.772h-.861q-1.547,0-1.547,1.389a.848.848,0,0,0,.272.655A.986.986,0,0,0,65.215,23.066ZM74.391,25H71.42V11.5h2.971Z" transform="translate(603 7174.383)" fill="#12263f"/>
    <path id="Trazado_735364" data-name="Trazado 735364" d="M-28.745,0h-3.076V-12.8h3.076Zm4.808-9.51.1,1.116a3.27,3.27,0,0,1,2.716-1.292A2.407,2.407,0,0,1-18.69-8.253,3.165,3.165,0,0,1-15.9-9.686q2.892,0,2.971,3.5V0H-15.9V-6a1.813,1.813,0,0,0-.246-1.063,1.048,1.048,0,0,0-.9-.334,1.4,1.4,0,0,0-1.31.782l.009.123V0h-2.971V-5.985a1.906,1.906,0,0,0-.237-1.081,1.045,1.045,0,0,0-.905-.334,1.42,1.42,0,0,0-1.3.782V0h-2.962V-9.51ZM-2.4-4.685a5.735,5.735,0,0,1-1,3.538A3.2,3.2,0,0,1-6.1.176,2.742,2.742,0,0,1-8.249-.782V3.656H-11.21V-9.51h2.769l.088.879A2.742,2.742,0,0,1-6.113-9.686a3.224,3.224,0,0,1,2.733,1.3A5.805,5.805,0,0,1-2.4-4.825Zm-2.962-.185q0-2.531-1.477-2.531a1.394,1.394,0,0,0-1.406.756V-2.9a1.439,1.439,0,0,0,1.424.791q1.415,0,1.459-2.443ZM4.258,0a3.344,3.344,0,0,1-.281-.853A2.754,2.754,0,0,1,1.692.176,3.374,3.374,0,0,1-.593-.637a2.588,2.588,0,0,1-.94-2.043A2.66,2.66,0,0,1-.391-5.019,5.821,5.821,0,0,1,2.931-5.81h.914v-.5q0-1.316-1.134-1.316A.927.927,0,0,0,1.657-6.587H-1.305A2.655,2.655,0,0,1-.132-8.825a4.931,4.931,0,0,1,2.993-.86A4.323,4.323,0,0,1,5.735-8.8,3.086,3.086,0,0,1,6.816-6.363v4.21a4.311,4.311,0,0,0,.4,2V0ZM2.4-1.934a1.652,1.652,0,0,0,.918-.237,1.487,1.487,0,0,0,.523-.536V-4.228H2.984q-1.547,0-1.547,1.389a.848.848,0,0,0,.272.655A.986.986,0,0,0,2.4-1.934Zm10.072-.176a1.317,1.317,0,0,0,.967-.338,1.241,1.241,0,0,0,.334-.945h2.777A3.288,3.288,0,0,1,15.434-.826a4.168,4.168,0,0,1-2.887,1,4.22,4.22,0,0,1-3.27-1.3,5.125,5.125,0,0,1-1.2-3.6v-.123A5.792,5.792,0,0,1,8.613-7.4a3.872,3.872,0,0,1,1.534-1.7,4.573,4.573,0,0,1,2.373-.593,4.116,4.116,0,0,1,2.944,1.028,3.647,3.647,0,0,1,1.09,2.786H13.777A1.626,1.626,0,0,0,13.417-7a1.244,1.244,0,0,0-.967-.4Q11.3-7.4,11.1-5.933a10.357,10.357,0,0,0-.062,1.283,4.068,4.068,0,0,0,.343,1.986A1.187,1.187,0,0,0,12.476-2.109Zm8.78-9.765V-9.51h1.564v2.057H21.256V-3.1a1.111,1.111,0,0,0,.193.747,1.037,1.037,0,0,0,.765.211,4.345,4.345,0,0,0,.738-.053V-.079a5.466,5.466,0,0,1-1.67.255,3.1,3.1,0,0,1-2.259-.721,2.954,2.954,0,0,1-.729-2.188v-4.72H17.082V-9.51h1.213v-2.364Zm2.092,7.031A5.613,5.613,0,0,1,23.9-7.378a3.96,3.96,0,0,1,1.591-1.709,4.791,4.791,0,0,1,2.435-.6,4.373,4.373,0,0,1,3.366,1.323,5.076,5.076,0,0,1,1.23,3.6v.105a4.925,4.925,0,0,1-1.235,3.529A4.384,4.384,0,0,1,27.945.176a4.434,4.434,0,0,1-3.261-1.217,4.761,4.761,0,0,1-1.327-3.3Zm2.962.185a3.538,3.538,0,0,0,.413,1.934,1.376,1.376,0,0,0,1.222.615q1.582,0,1.617-2.435v-.3q0-2.558-1.635-2.558-1.485,0-1.608,2.206ZM-34.2,25a3.344,3.344,0,0,1-.281-.853,2.754,2.754,0,0,1-2.285,1.028,3.374,3.374,0,0,1-2.285-.813,2.588,2.588,0,0,1-.94-2.043,2.66,2.66,0,0,1,1.143-2.338,5.821,5.821,0,0,1,3.322-.791h.914v-.5q0-1.316-1.134-1.316A.927.927,0,0,0-36.8,18.413h-2.962a2.655,2.655,0,0,1,1.173-2.239,4.931,4.931,0,0,1,2.993-.86,4.323,4.323,0,0,1,2.874.888,3.086,3.086,0,0,1,1.081,2.435v4.21a4.311,4.311,0,0,0,.4,2V25Zm-1.854-1.934a1.652,1.652,0,0,0,.918-.237,1.487,1.487,0,0,0,.523-.536V20.772h-.861q-1.547,0-1.547,1.389a.848.848,0,0,0,.272.655A.986.986,0,0,0-36.053,23.066ZM-27.2,15.49l.1,1.116a3.27,3.27,0,0,1,2.716-1.292,2.407,2.407,0,0,1,2.435,1.433,3.165,3.165,0,0,1,2.795-1.433q2.892,0,2.971,3.5V25H-19.16V19a1.813,1.813,0,0,0-.246-1.063,1.048,1.048,0,0,0-.9-.334,1.4,1.4,0,0,0-1.31.782l.009.123V25h-2.971V19.015a1.906,1.906,0,0,0-.237-1.081,1.045,1.045,0,0,0-.905-.334,1.42,1.42,0,0,0-1.3.782V25h-2.962V15.49Zm21.533,4.834a5.8,5.8,0,0,1-.967,3.595A3.238,3.238,0,0,1-9.36,25.176,2.81,2.81,0,0,1-11.7,24.024l-.123.976h-2.654V11.5h2.962v4.755a2.711,2.711,0,0,1,2.136-.94,3.239,3.239,0,0,1,2.742,1.274,5.826,5.826,0,0,1,.967,3.586Zm-2.971-.189A3.866,3.866,0,0,0-9,18.183a1.229,1.229,0,0,0-1.121-.584,1.418,1.418,0,0,0-1.389.763v3.773a1.426,1.426,0,0,0,1.406.755A1.258,1.258,0,0,0-8.78,21.873,7.309,7.309,0,0,0-8.64,20.135ZM-1.239,25H-4.21V15.49h2.971ZM-4.386,13.038A1.322,1.322,0,0,1-3.929,12a1.724,1.724,0,0,1,1.187-.4,1.724,1.724,0,0,1,1.187.4A1.322,1.322,0,0,1-1.1,13.038a1.322,1.322,0,0,1-.457,1.037,1.724,1.724,0,0,1-1.187.4,1.724,1.724,0,0,1-1.187-.4A1.322,1.322,0,0,1-4.386,13.038ZM5.186,25.176a4.889,4.889,0,0,1-3.542-1.305,4.507,4.507,0,0,1-1.354-3.4v-.246a5.84,5.84,0,0,1,.541-2.575,3.955,3.955,0,0,1,1.578-1.727,4.763,4.763,0,0,1,2.461-.611,4.117,4.117,0,0,1,3.164,1.244,4.887,4.887,0,0,1,1.16,3.467v1.151H3.3A2.135,2.135,0,0,0,4,22.434a2.066,2.066,0,0,0,1.389.457,2.662,2.662,0,0,0,2.2-.984l1.354,1.6A3.784,3.784,0,0,1,7.37,24.723,5.3,5.3,0,0,1,5.186,25.176ZM4.852,17.6q-1.3,0-1.547,1.723H6.293v-.229a1.467,1.467,0,0,0-.36-1.1A1.434,1.434,0,0,0,4.852,17.6ZM13.1,15.49l.1,1.116a3.225,3.225,0,0,1,2.716-1.292,2.713,2.713,0,0,1,2.219.888,4.226,4.226,0,0,1,.76,2.672V25H15.926V19a1.6,1.6,0,0,0-.29-1.059,1.342,1.342,0,0,0-1.055-.338,1.413,1.413,0,0,0-1.292.686V25H10.327V15.49Zm10.881-2.364V15.49H25.55v2.057H23.985V21.9a1.111,1.111,0,0,0,.193.747,1.037,1.037,0,0,0,.765.211,4.345,4.345,0,0,0,.738-.053v2.118a5.466,5.466,0,0,1-1.67.255,3.1,3.1,0,0,1-2.259-.721,2.954,2.954,0,0,1-.729-2.188v-4.72H19.811V15.49h1.213V13.126ZM32.071,25a3.344,3.344,0,0,1-.281-.853A2.754,2.754,0,0,1,29.5,25.176a3.374,3.374,0,0,1-2.285-.813,2.588,2.588,0,0,1-.94-2.043,2.66,2.66,0,0,1,1.143-2.338,5.821,5.821,0,0,1,3.322-.791h.914v-.5q0-1.316-1.134-1.316a.927.927,0,0,0-1.055,1.042H26.508a2.655,2.655,0,0,1,1.173-2.239,4.931,4.931,0,0,1,2.993-.86,4.323,4.323,0,0,1,2.874.888,3.086,3.086,0,0,1,1.081,2.435v4.21a4.311,4.311,0,0,0,.4,2V25Zm-1.854-1.934a1.652,1.652,0,0,0,.918-.237,1.487,1.487,0,0,0,.523-.536V20.772H30.8q-1.547,0-1.547,1.389a.848.848,0,0,0,.272.655A.986.986,0,0,0,30.217,23.066ZM39.393,25H36.422V11.5h2.971Z" transform="translate(1008 7174.383)" fill="#12263f"/>
    <path id="Trazado_735365" data-name="Trazado 735365" d="M-45.725-4.333a4.673,4.673,0,0,1-.721,2.36A4.35,4.35,0,0,1-48.3-.387a6.3,6.3,0,0,1-2.72.563,5.025,5.025,0,0,1-3.973-1.644,6.786,6.786,0,0,1-1.45-4.641v-.633a7.746,7.746,0,0,1,.655-3.292,4.961,4.961,0,0,1,1.885-2.18,5.26,5.26,0,0,1,2.848-.769,5.516,5.516,0,0,1,3.744,1.226A4.844,4.844,0,0,1-45.7-8.376h-3.076a2.292,2.292,0,0,0-.589-1.679,2.422,2.422,0,0,0-1.687-.51,1.843,1.843,0,0,0-1.687.861A5.536,5.536,0,0,0-53.3-6.952v.905a6.126,6.126,0,0,0,.514,2.927,1.882,1.882,0,0,0,1.771.879,2.369,2.369,0,0,0,1.626-.5,2.126,2.126,0,0,0,.6-1.591Zm.949-.51a5.613,5.613,0,0,1,.554-2.536,3.96,3.96,0,0,1,1.591-1.709,4.791,4.791,0,0,1,2.435-.6,4.373,4.373,0,0,1,3.366,1.323,5.076,5.076,0,0,1,1.23,3.6v.105a4.925,4.925,0,0,1-1.235,3.529A4.384,4.384,0,0,1-40.179.176,4.434,4.434,0,0,1-43.44-1.042a4.761,4.761,0,0,1-1.327-3.3Zm2.962.185A3.538,3.538,0,0,0-41.4-2.725a1.376,1.376,0,0,0,1.222.615q1.582,0,1.617-2.435v-.3q0-2.558-1.635-2.558-1.485,0-1.608,2.206ZM-31.575-9.51l.1,1.116a3.225,3.225,0,0,1,2.716-1.292,2.713,2.713,0,0,1,2.219.888,4.226,4.226,0,0,1,.76,2.672V0h-2.971V-6a1.6,1.6,0,0,0-.29-1.059A1.342,1.342,0,0,0-30.1-7.4a1.413,1.413,0,0,0-1.292.686V0h-2.962V-9.51Zm10.881-2.364V-9.51h1.564v2.057h-1.564V-3.1a1.111,1.111,0,0,0,.193.747,1.037,1.037,0,0,0,.765.211A4.345,4.345,0,0,0-19-2.2V-.079a5.466,5.466,0,0,1-1.67.255,3.1,3.1,0,0,1-2.259-.721,2.954,2.954,0,0,1-.729-2.188v-4.72h-1.213V-9.51h1.213v-2.364ZM-12.608,0a3.344,3.344,0,0,1-.281-.853A2.754,2.754,0,0,1-15.174.176a3.374,3.374,0,0,1-2.285-.813,2.588,2.588,0,0,1-.94-2.043,2.66,2.66,0,0,1,1.143-2.338,5.821,5.821,0,0,1,3.322-.791h.914v-.5q0-1.316-1.134-1.316a.927.927,0,0,0-1.055,1.042h-2.962A2.655,2.655,0,0,1-17-8.825a4.931,4.931,0,0,1,2.993-.86,4.323,4.323,0,0,1,2.874.888A3.086,3.086,0,0,1-10.05-6.363v4.21a4.311,4.311,0,0,0,.4,2V0Zm-1.854-1.934a1.652,1.652,0,0,0,.918-.237,1.487,1.487,0,0,0,.523-.536V-4.228h-.861q-1.547,0-1.547,1.389a.848.848,0,0,0,.272.655A.986.986,0,0,0-14.462-1.934ZM-5.612-9.51l.1,1.116A3.27,3.27,0,0,1-2.8-9.686,2.407,2.407,0,0,1-.365-8.253,3.165,3.165,0,0,1,2.43-9.686q2.892,0,2.971,3.5V0H2.43V-6a1.813,1.813,0,0,0-.246-1.063,1.048,1.048,0,0,0-.9-.334,1.4,1.4,0,0,0-1.31.782l.009.123V0H-2.984V-5.985a1.906,1.906,0,0,0-.237-1.081A1.045,1.045,0,0,0-4.126-7.4a1.42,1.42,0,0,0-1.3.782V0H-8.389V-9.51ZM10.217,0H7.247V-9.51h2.971ZM7.071-11.962A1.322,1.322,0,0,1,7.528-13a1.724,1.724,0,0,1,1.187-.4A1.724,1.724,0,0,1,9.9-13a1.322,1.322,0,0,1,.457,1.037A1.322,1.322,0,0,1,9.9-10.925a1.724,1.724,0,0,1-1.187.4,1.724,1.724,0,0,1-1.187-.4A1.322,1.322,0,0,1,7.071-11.962Zm7.69,2.452.1,1.116a3.225,3.225,0,0,1,2.716-1.292,2.713,2.713,0,0,1,2.219.888,4.226,4.226,0,0,1,.76,2.672V0H17.583V-6a1.6,1.6,0,0,0-.29-1.059A1.342,1.342,0,0,0,16.238-7.4a1.413,1.413,0,0,0-1.292.686V0H11.984V-9.51ZM27.549,0a3.344,3.344,0,0,1-.281-.853A2.754,2.754,0,0,1,24.983.176,3.374,3.374,0,0,1,22.7-.637a2.588,2.588,0,0,1-.94-2.043A2.66,2.66,0,0,1,22.9-5.019a5.821,5.821,0,0,1,3.322-.791h.914v-.5q0-1.316-1.134-1.316a.927.927,0,0,0-1.055,1.042H21.986a2.655,2.655,0,0,1,1.173-2.239,4.931,4.931,0,0,1,2.993-.86,4.323,4.323,0,0,1,2.874.888,3.086,3.086,0,0,1,1.081,2.435v4.21a4.311,4.311,0,0,0,.4,2V0ZM25.695-1.934a1.652,1.652,0,0,0,.918-.237,1.487,1.487,0,0,0,.523-.536V-4.228h-.861q-1.547,0-1.547,1.389A.848.848,0,0,0,25-2.184.986.986,0,0,0,25.695-1.934ZM34.466-9.51l.1,1.116a3.225,3.225,0,0,1,2.716-1.292A2.713,2.713,0,0,1,39.5-8.8a4.226,4.226,0,0,1,.76,2.672V0H37.288V-6A1.6,1.6,0,0,0,37-7.062,1.342,1.342,0,0,0,35.943-7.4a1.413,1.413,0,0,0-1.292.686V0H31.689V-9.51Zm10.881-2.364V-9.51h1.564v2.057H45.347V-3.1a1.111,1.111,0,0,0,.193.747,1.037,1.037,0,0,0,.765.211,4.345,4.345,0,0,0,.738-.053V-.079a5.466,5.466,0,0,1-1.67.255,3.1,3.1,0,0,1-2.259-.721,2.954,2.954,0,0,1-.729-2.188v-4.72H41.172V-9.51h1.213v-2.364ZM52.677.176a4.889,4.889,0,0,1-3.542-1.305,4.507,4.507,0,0,1-1.354-3.4v-.246a5.84,5.84,0,0,1,.541-2.575A3.955,3.955,0,0,1,49.9-9.075a4.763,4.763,0,0,1,2.461-.611,4.117,4.117,0,0,1,3.164,1.244,4.887,4.887,0,0,1,1.16,3.467v1.151H50.8a2.135,2.135,0,0,0,.694,1.257,2.066,2.066,0,0,0,1.389.457,2.662,2.662,0,0,0,2.2-.984l1.354,1.6A3.784,3.784,0,0,1,54.861-.277,5.3,5.3,0,0,1,52.677.176ZM52.343-7.4q-1.3,0-1.547,1.723h2.988v-.229a1.467,1.467,0,0,0-.36-1.1A1.434,1.434,0,0,0,52.343-7.4Z" transform="translate(812 7270.383)" fill="#12263f"/>
    <path id="Trazado_735363" data-name="Trazado 735363" d="M-49.939-4.333a4.673,4.673,0,0,1-.721,2.36A4.35,4.35,0,0,1-52.51-.387a6.3,6.3,0,0,1-2.72.563A5.025,5.025,0,0,1-59.2-1.468a6.786,6.786,0,0,1-1.45-4.641v-.633A7.746,7.746,0,0,1-60-10.033a4.961,4.961,0,0,1,1.885-2.18,5.26,5.26,0,0,1,2.848-.769,5.516,5.516,0,0,1,3.744,1.226,4.844,4.844,0,0,1,1.608,3.379h-3.076a2.292,2.292,0,0,0-.589-1.679,2.422,2.422,0,0,0-1.687-.51,1.843,1.843,0,0,0-1.687.861,5.536,5.536,0,0,0-.562,2.751v.905A6.126,6.126,0,0,0-57-3.12a1.882,1.882,0,0,0,1.771.879,2.369,2.369,0,0,0,1.626-.5,2.126,2.126,0,0,0,.6-1.591Zm.949-.51a5.613,5.613,0,0,1,.554-2.536,3.96,3.96,0,0,1,1.591-1.709,4.791,4.791,0,0,1,2.435-.6,4.373,4.373,0,0,1,3.366,1.323,5.076,5.076,0,0,1,1.23,3.6v.105a4.925,4.925,0,0,1-1.235,3.529A4.384,4.384,0,0,1-44.394.176a4.434,4.434,0,0,1-3.261-1.217,4.761,4.761,0,0,1-1.327-3.3Zm2.962.185a3.538,3.538,0,0,0,.413,1.934,1.376,1.376,0,0,0,1.222.615q1.582,0,1.617-2.435v-.3q0-2.558-1.635-2.558-1.485,0-1.608,2.206ZM-35.789-9.51l.1,1.116a3.225,3.225,0,0,1,2.716-1.292,2.713,2.713,0,0,1,2.219.888A4.226,4.226,0,0,1-30-6.126V0h-2.971V-6a1.6,1.6,0,0,0-.29-1.059A1.342,1.342,0,0,0-34.312-7.4a1.413,1.413,0,0,0-1.292.686V0h-2.962V-9.51Zm10.881-2.364V-9.51h1.564v2.057h-1.564V-3.1a1.111,1.111,0,0,0,.193.747,1.037,1.037,0,0,0,.765.211,4.345,4.345,0,0,0,.738-.053V-.079a5.466,5.466,0,0,1-1.67.255,3.1,3.1,0,0,1-2.259-.721,2.954,2.954,0,0,1-.729-2.188v-4.72h-1.213V-9.51h1.213v-2.364ZM-16.822,0A3.344,3.344,0,0,1-17.1-.853,2.754,2.754,0,0,1-19.389.176a3.374,3.374,0,0,1-2.285-.813,2.588,2.588,0,0,1-.94-2.043,2.66,2.66,0,0,1,1.143-2.338,5.821,5.821,0,0,1,3.322-.791h.914v-.5q0-1.316-1.134-1.316a.927.927,0,0,0-1.055,1.042h-2.962a2.655,2.655,0,0,1,1.173-2.239,4.931,4.931,0,0,1,2.993-.86,4.323,4.323,0,0,1,2.874.888,3.086,3.086,0,0,1,1.081,2.435v4.21a4.311,4.311,0,0,0,.4,2V0Zm-1.854-1.934a1.652,1.652,0,0,0,.918-.237,1.487,1.487,0,0,0,.523-.536V-4.228H-18.1q-1.547,0-1.547,1.389a.848.848,0,0,0,.272.655A.986.986,0,0,0-18.677-1.934ZM-9.826-9.51l.1,1.116A3.27,3.27,0,0,1-7.014-9.686,2.407,2.407,0,0,1-4.579-8.253,3.165,3.165,0,0,1-1.784-9.686q2.892,0,2.971,3.5V0H-1.784V-6A1.813,1.813,0,0,0-2.03-7.066a1.048,1.048,0,0,0-.9-.334,1.4,1.4,0,0,0-1.31.782l.009.123V0H-7.2V-5.985a1.906,1.906,0,0,0-.237-1.081A1.045,1.045,0,0,0-8.341-7.4a1.42,1.42,0,0,0-1.3.782V0H-12.6V-9.51ZM6,0H3.032V-9.51H6ZM2.856-11.962A1.322,1.322,0,0,1,3.313-13,1.724,1.724,0,0,1,4.5-13.4a1.724,1.724,0,0,1,1.187.4,1.322,1.322,0,0,1,.457,1.037,1.322,1.322,0,0,1-.457,1.037,1.724,1.724,0,0,1-1.187.4,1.724,1.724,0,0,1-1.187-.4A1.322,1.322,0,0,1,2.856-11.962Zm7.69,2.452.1,1.116a3.225,3.225,0,0,1,2.716-1.292,2.713,2.713,0,0,1,2.219.888,4.226,4.226,0,0,1,.76,2.672V0H13.368V-6a1.6,1.6,0,0,0-.29-1.059A1.342,1.342,0,0,0,12.023-7.4a1.413,1.413,0,0,0-1.292.686V0H7.77V-9.51ZM23.335,0a3.344,3.344,0,0,1-.281-.853A2.754,2.754,0,0,1,20.769.176a3.374,3.374,0,0,1-2.285-.813,2.588,2.588,0,0,1-.94-2.043,2.66,2.66,0,0,1,1.143-2.338,5.821,5.821,0,0,1,3.322-.791h.914v-.5q0-1.316-1.134-1.316a.927.927,0,0,0-1.055,1.042H17.771a2.655,2.655,0,0,1,1.173-2.239,4.931,4.931,0,0,1,2.993-.86,4.323,4.323,0,0,1,2.874.888,3.086,3.086,0,0,1,1.081,2.435v4.21a4.311,4.311,0,0,0,.4,2V0ZM21.48-1.934a1.652,1.652,0,0,0,.918-.237,1.487,1.487,0,0,0,.523-.536V-4.228h-.861q-1.547,0-1.547,1.389a.848.848,0,0,0,.272.655A.986.986,0,0,0,21.48-1.934Zm10.072-.176a1.317,1.317,0,0,0,.967-.338,1.241,1.241,0,0,0,.334-.945h2.777A3.288,3.288,0,0,1,34.51-.826a4.168,4.168,0,0,1-2.887,1,4.22,4.22,0,0,1-3.27-1.3,5.125,5.125,0,0,1-1.2-3.6v-.123A5.792,5.792,0,0,1,27.69-7.4a3.872,3.872,0,0,1,1.534-1.7A4.573,4.573,0,0,1,31.6-9.686a4.116,4.116,0,0,1,2.944,1.028,3.647,3.647,0,0,1,1.09,2.786H32.854A1.626,1.626,0,0,0,32.493-7a1.244,1.244,0,0,0-.967-.4q-1.151,0-1.345,1.468a10.357,10.357,0,0,0-.062,1.283,4.068,4.068,0,0,0,.343,1.986A1.187,1.187,0,0,0,31.553-2.109ZM40.008,0H37.037V-9.51h2.971ZM36.861-11.962A1.322,1.322,0,0,1,37.318-13a1.724,1.724,0,0,1,1.187-.4,1.724,1.724,0,0,1,1.187.4,1.322,1.322,0,0,1,.457,1.037,1.322,1.322,0,0,1-.457,1.037,1.724,1.724,0,0,1-1.187.4,1.724,1.724,0,0,1-1.187-.4A1.322,1.322,0,0,1,36.861-11.962Zm4.6,7.119a5.613,5.613,0,0,1,.554-2.536A3.96,3.96,0,0,1,43.6-9.088a4.791,4.791,0,0,1,2.435-.6A4.373,4.373,0,0,1,49.4-8.363a5.076,5.076,0,0,1,1.23,3.6v.105A4.925,4.925,0,0,1,49.4-1.129,4.384,4.384,0,0,1,46.055.176a4.434,4.434,0,0,1-3.261-1.217,4.761,4.761,0,0,1-1.327-3.3Zm2.962.185a3.538,3.538,0,0,0,.413,1.934,1.376,1.376,0,0,0,1.222.615q1.582,0,1.617-2.435v-.3q0-2.558-1.635-2.558-1.485,0-1.608,2.206ZM46.441-13.5H49.57l-2.443,2.76-2.417,0Zm8.218,3.99.1,1.116a3.225,3.225,0,0,1,2.716-1.292,2.713,2.713,0,0,1,2.219.888,4.226,4.226,0,0,1,.76,2.672V0H57.48V-6a1.6,1.6,0,0,0-.29-1.059A1.342,1.342,0,0,0,56.136-7.4a1.413,1.413,0,0,0-1.292.686V0H51.882V-9.51Z" transform="translate(931 7002.383)" fill="#12263f"/>
  </g>
</svg>
