<svg id="Grupo_969560" data-name="Grupo 969560" xmlns="http://www.w3.org/2000/svg" xmlns:xlink="http://www.w3.org/1999/xlink" width="400" height="374.641" viewBox="0 0 400 374.641">
  <defs>
    <clipPath id="clip-path">
      <rect id="Rect치ngulo_341118" data-name="Rect치ngulo 341118" width="400" height="374.641" fill="none"/>
    </clipPath>
    <clipPath id="clip-path-3">
      <rect id="Rect치ngulo_341116" data-name="Rect치ngulo 341116" width="124.632" height="78.072" fill="none"/>
    </clipPath>
  </defs>
  <g id="Grupo_969559" data-name="Grupo 969559" clip-path="url(#clip-path)">
    <g id="Grupo_969558" data-name="Grupo 969558">
      <g id="Grupo_969557" data-name="Grupo 969557" clip-path="url(#clip-path)">
        <path id="Trazado_730106" data-name="Trazado 730106" d="M360.676,279.763s-3.161.95-6.923-3.02c-1.913-2.018-4,.01-4.128.364s2.87,5.062,3.9,8.757-3.579-.444-3.579-.444,3.162,6.259-2.653,3.4-6.73-15.012-5.5-16.168,3.152-.068,3.152-.068-.4-2.825,2.956-3.2,6.148,2.529,8.967,5.227,5.591,3.69,3.809,5.147" transform="translate(-235.597 -52.839)" fill="#203046"/>
        <path id="Trazado_730107" data-name="Trazado 730107" d="M360.676,279.763c.2-1.034-3.843-2.73-6.1-5.108s-4.181-4.946-6.333-3.813c-2.047,1.068-1.161,4.051-1.065,4.363a1.941,1.941,0,0,0-1.88-1.11c-1.284.185-1.912,8.516,4.649,11.326,0,0,3.162,6.259-2.653,3.4s-6.73-15.012-5.5-16.168,3.152-.068,3.152-.068-.4-2.825,2.956-3.2,6.148,2.529,8.967,5.227,5.591,3.69,3.809,5.147" transform="translate(-235.597 -52.839)" fill="#132335"/>
        <path id="Trazado_730108" data-name="Trazado 730108" d="M218.49,45.421c32.37-24.059,57.377-34.066,78.379-40.15s42.253-6.677,45.466-2.933-15.7,9.036-22.468,10.185-38.247,7.633-55.76,15.43S218.49,45.421,218.49,45.421" transform="translate(-118.328 0)" fill="#0d2742"/>
        <path id="Trazado_730109" data-name="Trazado 730109" d="M327.373,19.089c4.383-6.1-15.208-8.595-33.83-6.653S217.42,35.938,211.654,43.1l13.387,2.917s34.7-14.565,61.1-17.188c23.471-2.332,37-3.837,41.234-9.737" transform="translate(-98.129 -2.313)" fill="#0d2742"/>
        <path id="Trazado_730110" data-name="Trazado 730110" d="M300.9,27.6c11.882,4.257,16.332,6.4,15.415,9.918S309,43.478,298.024,43.093s-67.788,8.783-74.862,11.353-4.35-5.331-4.35-5.331,41.692-21.252,61.888-21.38Z" transform="translate(-91.901 -5.415)" fill="#0d2742"/>
        <path id="Trazado_730111" data-name="Trazado 730111" d="M307.358,44.373c8.533,7,10.167,12.845,1.643,17.974,0,0-71.7,6.71-75.661,3.416s-4.01-11.9-4.01-11.9Z" transform="translate(-98.977 -8.705)" fill="#0d2742"/>
        <path id="Trazado_730112" data-name="Trazado 730112" d="M308.422,64.748c3.652,7.221,5.506,11.442,1.662,16.213s-60.732,1.471-68.22-1.86-5.46-9.34-5.46-9.34Z" transform="translate(-102.041 -12.701)" fill="#0d2742"/>
        <path id="Trazado_730113" data-name="Trazado 730113" d="M306.761,83.929c4.927,8.386,5.029,11.707,3.506,14.809s-58.3-4.264-64.6-11.513,1.174-8.661,1.174-8.661Z" transform="translate(-106.582 -15.412)" fill="#0d2742"/>
        <path id="Trazado_730114" data-name="Trazado 730114" d="M309.528,99.338c3.982,8.038,4.689,11.772,2.01,15.268s-52.465-11.523-58.43-17.954.551-7.313.551-7.313Z" transform="translate(-114.57 -17.525)" fill="#0d2742"/>
        <path id="Trazado_730115" data-name="Trazado 730115" d="M310.1,112.885c3.3,8.166,4.066,13.12.579,16.066s-50.406-23.868-50.406-23.868-4.133-3.262-1.455-6.758,51.282,14.56,51.282,14.56" transform="translate(-120.278 -19.2)" fill="#0d2742"/>
        <path id="Trazado_730116" data-name="Trazado 730116" d="M297.909,126.794c7.193,5.5,8.616,12.083,5.12,15.91s-20.81-5.909-27.379-12.753-10.791-18-10.791-18Z" transform="translate(-117.759 -21.961)" fill="#0d2742"/>
        <path id="Trazado_730117" data-name="Trazado 730117" d="M289.6,143.694c7.074,3.936,11.231,9.874,8.616,12.083s-22.731-3.743-27.974-7.761,4.294-12.153,4.294-12.153Z" transform="translate(-114.959 -26.652)" fill="#0d2742"/>
        <path id="Trazado_730118" data-name="Trazado 730118" d="M370.3,134.576c7.418.179,15.1-24.747-19.009-39.128,0,0,8.973-22.269-5.093-38.069s-28.9-6.4-38.633.718-14.584,14.451-15.51,25.352c-.985,11.594,10.99,23.239.669,33.5S370.3,134.576,370.3,134.576" transform="translate(-211.303 -9.564)" fill="#093c66"/>
        <path id="Trazado_730119" data-name="Trazado 730119" d="M376.6,271.1a100.049,100.049,0,0,1-11.172-.113c-1.758-.113-3.563-.285-5.393-.51a93.047,93.047,0,0,1-22.42-5.626c-6-2.329-12.344-4.572-18.486-8.648-20.964-13.923-46.736-32.2-64.474-59.96a5.016,5.016,0,0,1-.575-2.264c-.838-10.97,11.4-50.025,21.654-51.965,11.2-2.12,35.048,6.819,58.2,28.811,6.663,6.329,12.377,14.34,17.776,22.937,3.878,6.167,7.6,12.635,11.393,19.015,4.973,8.357,9.979,18.471,13.482,25.6a48.026,48.026,0,0,0,5.206,7.96,25.359,25.359,0,0,1,3.648,5.727c6.634,16.942-1.516,18.7-8.837,19.035" transform="translate(-192.092 -27.799)" fill="#eacaa4"/>
        <g id="Grupo_969556" data-name="Grupo 969556" transform="translate(62.186 165.146)" opacity="0.25">
          <g id="Grupo_969555" data-name="Grupo 969555">
            <g id="Grupo_969554" data-name="Grupo 969554" clip-path="url(#clip-path-3)">
              <path id="Trazado_730120" data-name="Trazado 730120" d="M355.213,279.651a93.22,93.22,0,0,0,11.96,2.777c2.441.4,7.62,1.794,9.459.65,1.316-.819,15.383-24.768,12.918-28.634-6.863-10.767-23.912-44.354-27.481-48.8-.969-1.207-43.078,3.253-39.263,10.991,1.492,3.027,7.056,4.892,9.725,5.987,4.073,1.67,8.537,3.048,12.991,2.844,3.352-.154,7.116-1.28,9.01-4.275,8.37,7.166,14.77,16.216,16.7,27.2.862,4.917,1.772,9.863-.85,14.284-9.758,16.454-31.932,7.487-44.4-.334a166.348,166.348,0,0,1-44.816-41.3,50.434,50.434,0,0,1-5.608-9.079c-1.079-2.419-10.318-6.063-10.347-4.147-.04,2.688,4.991,7.747,6.569,9.845q3.823,5.08,8.068,9.824c10.554,11.838,22.8,22.016,35.665,31.243,12.459,8.937,24.915,16.442,39.7,20.925" transform="translate(-265.208 -205.448)" fill="#d6a978"/>
            </g>
          </g>
        </g>
        <path id="Trazado_730121" data-name="Trazado 730121" d="M298.342,251.416a7.364,7.364,0,0,1-1.545.856,23.54,23.54,0,0,1-7.961,1.251,74.519,74.519,0,0,0-3.279-8.075,78.03,78.03,0,0,0-6.179-11.014,127.211,127.211,0,0,0-13.551-16.557L284.94,227.9c1.7,2.843,3.392,5.651,5.018,8.4,3.147,5.324,6.082,10.417,8.385,15.117" transform="translate(-112.022 -42.74)" fill="#0d2742"/>
        <path id="Trazado_730122" data-name="Trazado 730122" d="M278.522,304.227a23.793,23.793,0,0,1-2.312,1.529,23.217,23.217,0,0,1-5.87,2.466c-8.336,2.252-17.933.01-26.365-6.688-.034-.023-.053-.049-.087-.072-9.518-7.6-14.145-10.371-22.576-12.029-1.66-.33-3.458-.621-5.472-.884,0,0,1.648-.428,6.728-5.91,8.832-9.54,7.017-23.776,3.354-33.419-.517-1.375-1.082-2.66-1.645-3.821a10.155,10.155,0,0,1-1.013-3.919c-.145-3.129,1.377-5.616,4.818-3.688a7.176,7.176,0,0,1,2.241,2.28c2.067,3.022,4.479,8.338,12.593,15.484,3.76,3.3,7.4,2.446,11.847,6.857q3.219,3.194,5.971,6.387c14.5,16.72,19.65,32.493,17.787,35.424" transform="translate(-52.389 -46.515)" fill="#0d2742"/>
        <path id="Trazado_730123" data-name="Trazado 730123" d="M285.935,304.251a7.931,7.931,0,0,1-3.669.2c-5.613-.549-15.976-3.437-26.364-6.687-.034-.023-.054-.05-.087-.072-9.519-7.6-14.146-10.37-22.576-12.029a38.133,38.133,0,0,1,4.411.272c9.182,1.061,41.308,14.894,44.928,8.935,2.019-3.323-17-24.219-33.488-42.593-4.8-5.37-9.582-10.414-13.9-14.564-1.211-1.17-2.391-2.258-3.521-3.275a127.243,127.243,0,0,0-13.55-16.557L237.232,227.9c1.7,2.843,3.391,5.651,5.018,8.4,2.067,3.023,4.479,8.339,12.593,15.485,3.761,3.3,7.4,2.446,11.847,6.858q3.221,3.193,5.971,6.386c2.674,3.831,4.914,6.96,6.627,8.965,7.312,8.558,11.619,22.227,8.849,27.989a4.48,4.48,0,0,1-2.2,2.269" transform="translate(-64.313 -42.74)" fill="#082035"/>
        <path id="Trazado_730124" data-name="Trazado 730124" d="M436.673,194.895c-3.665-.281-9.031-3.361-14.956-7.609-3.035-2.181-6.226-4.675-9.4-7.247-6.791-5.492-13.548-11.392-18.765-15.577l-.571-.463a42.452,42.452,0,0,1-3.528-3.194c-.173-.18-.343-.346-.5-.527-6.152-6.646-2.206-9.451-4.41-17.188-.041-.139-.073-.272-.106-.405-1.33-5.514,1.414-13.512,8.259-17.372,6.2-3.487,9.585-5.1,17.657-5.875,17.718-1.719,32.286,2.792,45.649,15.45a12.012,12.012,0,0,1,3.116,5.007c1.133,3.4,1.144,7.557.588,12.2-.219,1.785-.543,3.67-.96,5.654-.273,1.268-.667,2.822-1.179,4.567-3.57,12.067-12.549,33.224-20.891,32.575" transform="translate(-368.823 -23.361)" fill="#112e51"/>
        <path id="Trazado_730125" data-name="Trazado 730125" d="M456.127,181.911c-6.79-5.491-13.548-11.392-18.765-15.577l-.571-.463c-1.319-1.084-2.488-2.152-3.527-3.193-.174-.179-.344-.346-.5-.528-7.8-8.091-7.724-14.494-7.724-14.494s.117-.732.367-1.931l2.2,1.907a21.44,21.44,0,0,1,.642-3.075,26.989,26.989,0,0,1,12.114-15.925,21.762,21.762,0,0,1,10.866,14.332s-6.68,3.726-7.249,6.295,7.323,6.175,10.47,9.8,1.5,6.046,4.056,7.5,13.35,6.44,12.414,11.715c-.732,4.147-8.631,4.872-14.79,3.641" transform="translate(-412.634 -25.233)" fill="#77110c"/>
        <path id="Trazado_730126" data-name="Trazado 730126" d="M429.4,169.615c-2.56-1.45-.908-3.872-4.056-7.5s-11.038-7.23-10.469-9.8,7.248-6.294,7.248-6.294c7.476-2.074,23.049-4.1,27.226,4.739s-10.927,22.858-19.949,18.852" transform="translate(-383.531 -28.295)" fill="#093c66"/>
        <path id="Trazado_730127" data-name="Trazado 730127" d="M466.983,151.542s-7.234,4.284-11.289,4.956c-.006.009-.006.009-.028.006a4.593,4.593,0,0,1-1.517.038,22.917,22.917,0,0,1-3.294-.879,46.247,46.247,0,0,1-7.613-3.453,26.554,26.554,0,0,1,6.382-3.9,14.726,14.726,0,0,1,5.564-1.259,10.7,10.7,0,0,1,2.577.341,36.748,36.748,0,0,1,9.218,4.153" transform="translate(-423.275 -28.846)" fill="#111d2b"/>
        <path id="Trazado_730128" data-name="Trazado 730128" d="M462.424,154.389a5.33,5.33,0,0,1-2.868,2.11c-.006.009-.006.009-.028.006a4.593,4.593,0,0,1-1.517.038,22.949,22.949,0,0,1-3.294-.879,5.391,5.391,0,0,1-1.231-7.356,14.726,14.726,0,0,1,5.564-1.259,10.741,10.741,0,0,1,2.577.341,5.387,5.387,0,0,1,.8,7" transform="translate(-427.137 -28.846)" fill="#080f16"/>
        <path id="Trazado_730129" data-name="Trazado 730129" d="M5.436,167.6s158.318,14.349,177.2,16.578,4.253,11.327-4.266,9.51S0,172.326,0,172.326Z" transform="translate(208.151 -32.879)" fill="#112e51"/>
        <path id="Trazado_730130" data-name="Trazado 730130" d="M191.765,202.056c-4.574,3.239-20.775,3.8-49.54-1.175-46.473-8.036-128.349-27.4-128.349-27.4A461.494,461.494,0,0,1,77.462,177.8c32.275,4.706,109.674,12.627,114.785,17.049,2.418,2.092,3.908,4.1-.481,7.212" transform="translate(194.274 -34.029)" fill="#112e51"/>
        <path id="Trazado_730131" data-name="Trazado 730131" d="M189.047,200.385C200,202.532,201.1,207.848,199,210.5c-2.446,3.1-13.8,7.226-43.464.972S32.9,177.317,32.9,177.317l4.941-5.946Z" transform="translate(173.678 -33.617)" fill="#112e51"/>
        <path id="Trazado_730132" data-name="Trazado 730132" d="M198.271,211.934c7.45,3.6,7.669,8.7,4.764,11.01s-10.081,5.029-39.2-3S56.946,182.853,56.946,182.853l4.248-4.5Z" transform="translate(149.456 -34.988)" fill="#112e51"/>
        <path id="Trazado_730133" data-name="Trazado 730133" d="M214.81,220.679c5.634,5.615-1.752,12.111-16.543,7.35S91.95,181.862,91.95,181.862Z" transform="translate(109.388 -35.675)" fill="#112e51"/>
        <path id="Trazado_730134" data-name="Trazado 730134" d="M220.35,225.964c-.541,6.432-9.074,12.443-24.361,3.2-13.393-8.095-70.082-37.231-83.623-44.592a3.085,3.085,0,0,1-1.81-2.713l96.838,38.818Z" transform="translate(90.782 -35.675)" fill="#112e51"/>
        <path id="Trazado_730135" data-name="Trazado 730135" d="M225.141,225.121c4.661,7.909-10.161,9.483-21.057,1.611-5.757-4.159-62.014-43.979-62.014-43.979Z" transform="translate(59.777 -35.85)" fill="#112e51"/>
        <path id="Trazado_730136" data-name="Trazado 730136" d="M231.55,224.612c2.533,5.718-4.127,11.99-14.973,4.152s-48.05-43.126-48.05-43.126S165,178.129,193.755,198.4s37.795,26.211,37.795,26.211" transform="translate(32.556 -36.149)" fill="#112e51"/>
        <path id="Trazado_730137" data-name="Trazado 730137" d="M238.4,223.719c1.638,3.778-.875,8.919-5.453,11.252-3.908,1.993-10.993-3.393-13.2-6.668s-29.9-43-29.9-43l8.251,3.186Z" transform="translate(8.492 -36.35)" fill="#112e51"/>
        <path id="Trazado_730138" data-name="Trazado 730138" d="M250.372,229.051c-.551,4.06-4.92,8.843-9.276,7.425S209.012,184,209.012,184l7.714,1.047Z" transform="translate(-18.383 -36.095)" fill="#112e51"/>
        <path id="Trazado_730139" data-name="Trazado 730139" d="M256.79,232.471c-1.073,5.477-3.711,8.262-8.606,6.551-5.565-1.945-25.85-55.767-25.85-55.767l6.545,1.136Z" transform="translate(-35.51 -35.949)" fill="#112e51"/>
        <path id="Trazado_730140" data-name="Trazado 730140" d="M265.17,235.916c-2.986,3.731-6.923,5.925-12.283,1.753-5.022-3.908-19.442-54.43-19.442-54.43l10.005.611Z" transform="translate(-52.819 -35.946)" fill="#112e51"/>
        <path id="Trazado_730141" data-name="Trazado 730141" d="M271.919,233.579c-3.606,4.639-9.717,5.795-13.006-.44s-9.691-50.517-9.691-50.517l3.654.5Z" transform="translate(-72.251 -35.824)" fill="#112e51"/>
        <path id="Trazado_730142" data-name="Trazado 730142" d="M316.825,178.5c-6.316-.24-170.839-6.844-192.608-12.555-22.2-5.822-80.391-1.14-92.915.965-9.286,1.568-13.668,1.832-16.338-.74a10.338,10.338,0,0,1-2.318-3.773,20.137,20.137,0,0,1-.952-6.772,89.76,89.76,0,0,1,1.09-13.093c.329-2.289.616-3.794.616-3.794,14.783,5.225,26.631,5.738,42.847,6.96,1.547.118,3.137.243,4.782.378.268.023.59.058.962.089a.041.041,0,0,1,.031.008c11.784,1.259,70.172,10.744,127.638,18.112,62.167,7.972,123.4,13.857,127.164,14.214" transform="translate(73.775 -27.217)" fill="#112e51"/>
        <path id="Trazado_730143" data-name="Trazado 730143" d="M349.4,180.2c-6.316-.24-170.839-6.844-192.608-12.555-22.2-5.822-80.391-1.14-92.915.965-9.286,1.568-13.668,1.832-16.338-.74-3.57,12.068-12.548,33.224-20.891,32.575-3.665-.281-9.031-3.36-14.956-7.608,10.208,2.375,15.1-.4,19.89-7.434,5.058-7.419,10.837-20.777,10.384-25.965-.165-1.837.542-2.168,2.3-2.113,1.248.049,3.021.285,5.409.324a45.087,45.087,0,0,0,16.07-2.842c9.677-3.407,16.738-6.046,23.074-7.408,1.547.118,3.137.243,4.782.378,9,.744,69.309,10.6,128.631,18.209C284.4,173.961,345.64,179.846,349.4,180.2" transform="translate(41.201 -28.915)" fill="#0d2742"/>
        <path id="Trazado_730144" data-name="Trazado 730144" d="M457.559,150.753a1.558,1.558,0,1,1-.409-2.164,1.557,1.557,0,0,1,.409,2.164" transform="translate(-423.344 -29.095)" fill="#fff"/>
        <path id="Trazado_730145" data-name="Trazado 730145" d="M302.825,221.791c-1.912,3.131-8.9,1.881-13.858-2.389-4.085-3.515-9.122-14.757-9.122-14.757l7.55-28.858,5.539.007,9.873,31.087a21.859,21.859,0,0,1,.777,9.906Z" transform="translate(-128.783 -34.484)" fill="#112e51"/>
        <path id="Trazado_730146" data-name="Trazado 730146" d="M278.684,228.616c-1.913,3.132-8.169,3.524-11.479-.729s-3.434-16.757-3.434-16.757l-.518-28.518,5.54.007,11.418,35.949Z" transform="translate(-91.823 -35.823)" fill="#112e51"/>
        <path id="Trazado_730147" data-name="Trazado 730147" d="M226.077,169.55c19.64-2.133,27.54-11.137,40.877-13.134s54.859,2.805,73.123,5.944S359.7,177.1,348.33,183.435c-11.213,6.254-19.635,4.947-19.635,4.947s10.6,11.267-8.124,19.668c-11.182,5.018-36.229-3.187-36.229-3.187s-3.167,4.862-15.038,6.009c-10.451,1.01-25.523-5.5-33.631-17.68a61.664,61.664,0,0,1-9.595-23.642" transform="translate(-137.337 -30.591)" fill="#e8c597"/>
        <path id="Trazado_730148" data-name="Trazado 730148" d="M243.389,277.265c-3.087.41-13.021,6.2-13.406,7.419,0,0,3.881,1.463,3.891,3.833s-4.019,5.244-4.019,5.244,5.12,2.9,5.3,5.239-3.606,4.64-3.606,4.64,4.046,1.871,3.845,4.985-4.133,6.5-4.133,6.5,4.487,1.876,4.826,5.065-3.51,5.149-3.51,5.149,3.923,4,3.482,7.251-3.578,2-3.578,2,5.763,6.294,4.579,9.331-5.326.657-5.326.657,8.52,11.574,5.845,14.63-4.831,1.88-4.831,1.88,11.746,14.217,8.291,17.332c0,0-4.565,2.359,5.749,17.374,0,0-23.513-26.232-29.262-33.847s-44.8-57.9-44.8-57.9,28.563,9.715,34.078,4.014S184.018,267.1,184.018,267.1Z" transform="translate(14.373 -52.396)" fill="#112e51"/>
        <path id="Trazado_730149" data-name="Trazado 730149" d="M245.954,414.93c9.556,12.07,7.628,22.045,3.772,18.356-11.931-11.412-34.575-41.346-44.928-53.394-4.927-5.749-10.184-13.042-15.591-19.279-2.474-2.858-31.177-45.58-41.032-55.649l-.008-.006c-.673-.693-1.372-1.367-2.1-2.034l8.29,3.545,1.611.691s35.875,45.829,36.99,47.23c0,0,43.5,48.55,53,60.54" transform="translate(29.692 -59.424)" fill="#132233"/>
        <path id="Trazado_730150" data-name="Trazado 730150" d="M230.5,272.9c2.358.133,2.38,4.331-7.711,4.505-19.4.334-40.572.57-49.35-.252-1.851-.178-6.871-.965-8.676-1.321-15.968-3.143-26.693-10-27.067-10.587l-.009-.006c-.777-1.245,2.209-.909,2.209-.909,1,.388,2.053.747,3.129,1.085a81.455,81.455,0,0,0,8.282,2.147q2.117.445,4.354.825a203.186,203.186,0,0,0,21.316,2.348c7.728.5,15.81.737,23.9.869,6.734.109,21.362.83,29.624,1.294" transform="translate(57.639 -51.846)" fill="#0d2742"/>
        <path id="Trazado_730151" data-name="Trazado 730151" d="M310.416,185.432c9.783-5.456,10.131-14.806-1.606-19.306,5.973,4.887,4.267,11.911-3.7,16.353-11.213,6.254-19.635,4.946-19.635,4.946s10.63,9.219-8.095,17.62c-11.182,5.018-31.292-1.375-31.292-1.375s-3.774,4.013-8.4,5.325-11.606.922-11.606.922,6.728,4.661,13.174,2.255c6.035-2.254,7.17-5.313,7.17-5.313s25.047,8.2,36.229,3.188c18.724-8.4,8.123-19.669,8.123-19.669s8.423,1.307,19.635-4.946" transform="translate(-99.423 -32.589)" fill="#e0b177"/>
        <path id="Trazado_730152" data-name="Trazado 730152" d="M261.188,369.867a2.292,2.292,0,0,1,.944-1.746,1.937,1.937,0,0,0,.578-1.047,6.133,6.133,0,0,0-.387-2.938l-.025-.016c-.09-.284-.195-.565-.318-.871l-.009-.006c-2.2-5.269-8.129-12.455-8.129-12.455a2.922,2.922,0,0,0,2.211.029,5.3,5.3,0,0,0,1.815-1.092,10.014,10.014,0,0,0,.805-.818c1.385-1.581-.232-5.444-2.12-8.8l-.009-.006a.01.01,0,0,1,0-.015,63.851,63.851,0,0,0-3.715-5.809,6.448,6.448,0,0,0,3.574.847,2.263,2.263,0,0,0,1.752-1.5c.774-1.985-1.427-5.37-3.04-7.468l-.017-.011c-.855-1.113-1.522-1.851-1.522-1.851s2.742,1.092,3.46-1.424a3.771,3.771,0,0,0,.119-.572c.287-2.083-1.236-4.476-2.352-5.928a17.392,17.392,0,0,0-1.13-1.324s3.849-1.96,3.51-5.148-4.826-5.064-4.826-5.064,3.931-3.382,4.133-6.5a3.678,3.678,0,0,0-.595-2.217l-.009-.006a8.375,8.375,0,0,0-3.24-2.764,13.03,13.03,0,0,0,2.061-1.613,6.018,6.018,0,0,0,1.332-1.863,2.488,2.488,0,0,0,.212-1.162c-.087-1.119-1.305-2.368-2.548-3.364l-.009-.006a23.457,23.457,0,0,0-2.742-1.869s.464-.337,1.082-.865a9.633,9.633,0,0,0,2.758-3.466,2.511,2.511,0,0,0,.179-.913,2.375,2.375,0,0,0-.352-1.2c-.943-1.654-3.538-2.634-3.538-2.634a.133.133,0,0,1,.031-.064,11.523,11.523,0,0,1,3.379-2.428c.418-.233.855-.477,1.3-.715,1.224-.656,2.558-1.311,3.823-1.866-17.568,1.354-42.732-8.053-45.511-9.381-1.506-.719-5.636-2.34-6.678-2.891,5.634,7.2,25.24,35.788,20.474,40.719-2.751,2.843-11.222,1.86-19.034.144l-.009,0c-2.146-.466-5.112-1.764-7.032-2.272l.85.768,34.3,45.437c.394.453.8.912,1.2,1.37l2.021,2.311q1.993,2.285,3.89,4.469.95,1.094,1.878,2.165c5.407,6.237,10.308,11.969,15.235,17.717" transform="translate(-24.999 -50.424)" fill="#082035"/>
        <path id="Trazado_730153" data-name="Trazado 730153" d="M465.323,147.278l-2.2-1.906c.983-4.442,4.035-15.3,11.1-18.54a17.178,17.178,0,0,1,3.856,1.447A26.986,26.986,0,0,0,465.965,144.2a21.524,21.524,0,0,0-.641,3.074" transform="translate(-450.353 -24.88)" fill="#911"/>
        <path id="Trazado_730154" data-name="Trazado 730154" d="M440.613,142.314c-2.272.261-4.9.59-7.919,1.008-15.277,2.114-29.557-1.03-37.556-3.428-1.469-.447-2.719-.855-3.731-1.213-1.883-.655-2.919-1.1-2.919-1.1-14.831-15.655-36.317-15.149-48.465-13.378a21.29,21.29,0,0,0-7.449,2.56,17.151,17.151,0,0,0-3.856-1.446c6.2-3.488,9.585-5.1,17.657-5.876,17.718-1.719,32.286,2.792,45.648,15.45,14.783,5.225,26.631,5.737,42.847,6.961,1.547.117,3.137.242,4.783.378.268.023.589.057.961.088" transform="translate(-304.845 -23.361)" fill="#11487f"/>
        <path id="Trazado_730155" data-name="Trazado 730155" d="M492.836,157.627l-16.278-3.447,8.661-4.284,3.437-1.7a2.806,2.806,0,0,1,3.776,1.293c0,.014.011.019.014.034a12,12,0,0,1,.8,2.493l.006.029a9.6,9.6,0,0,1-.254,5.161Z" transform="translate(-476.558 -29.015)" fill="#111d2b"/>
        <path id="Trazado_730156" data-name="Trazado 730156" d="M202.406,355.269c3.458.035,12.45,7.6,13.557,11.017.963,2.969,1.108,5.856-1.879,4.707s-9.514-8.815-11.189-11.4-2.47-4.345-.489-4.325" transform="translate(21.66 -69.692)" fill="#ffedd7"/>
        <path id="Trazado_730157" data-name="Trazado 730157" d="M202.207,340.8c2.637-.5,10.422,5.894,11.77,8.217,1.795,3.088,1.416,6.058-2.447,4.571s-7.907-5.916-9.693-8.927c-1.19-2.006-.949-3.611.369-3.861" transform="translate(23.364 -66.849)" fill="#ffedd7"/>
        <path id="Trazado_730158" data-name="Trazado 730158" d="M198.886,367.84c3.874,1.311,8.994,5.023,12.983,10.07s5.127,7.931,2.326,8.461-15.309-18.532-15.309-18.532" transform="translate(24.389 -72.158)" fill="#ffedd7"/>
        <path id="Trazado_730159" data-name="Trazado 730159" d="M212.975,336.985c.27-2.8-9.737-7.37-11.986-6.362s.92,4.264,4.846,6.567,6.876,2.54,7.14-.2" transform="translate(26.06 -64.83)" fill="#ffedd7"/>
        <path id="Trazado_730160" data-name="Trazado 730160" d="M211.557,286.458c-3.458-1.837-3.851-4.4-1.643-4.173,3.2.332,8.636,1.485,9.8,3.348s-.3,2.661-2.039,2.478a23.994,23.994,0,0,1-6.121-1.653" transform="translate(12.232 -55.372)" fill="#ffedd7"/>
        <path id="Trazado_730161" data-name="Trazado 730161" d="M208.913,295.125c-3.469-1.818-4.81-4.839-1.667-4.163s8.493,2.177,9.672,4.034-.65,1.844-1.874,1.749a23.058,23.058,0,0,1-6.131-1.62" transform="translate(17.536 -57.058)" fill="#ffedd7"/>
        <path id="Trazado_730162" data-name="Trazado 730162" d="M205.5,303.668c-3.41-1.925-4.657-4.987-1.535-4.213s8.421,2.442,9.54,4.333-.706,1.823-1.928,1.69a23.009,23.009,0,0,1-6.077-1.81" transform="translate(23.639 -58.719)" fill="#ffedd7"/>
        <path id="Trazado_730163" data-name="Trazado 730163" d="M212.1,278.815c-3.422-1.924-3.6-5.56-.046-5.353s9.441,1.114,10.025,3.73-1.662,3.1-3.126,3.283a18.027,18.027,0,0,1-6.853-1.66" transform="translate(9.461 -53.643)" fill="#ffedd7"/>
        <path id="Trazado_730164" data-name="Trazado 730164" d="M482.867,151.413c-1.327-1.324-3.586-1.915-6.309-1.517l3.434-1.694a2.8,2.8,0,0,1,3.78,1.294l.013.028a10.747,10.747,0,0,1,.553,7.683l-.162.419-5.686-1.2c4.012-.554,6.1-3.293,4.378-5.011" transform="translate(-467.896 -29.015)" fill="#2e4963"/>
        <path id="Trazado_730165" data-name="Trazado 730165" d="M492.836,158.555l-16.278-3.447,16.543-2.471.146.309.006.029a9.6,9.6,0,0,1-.254,5.161Z" transform="translate(-476.558 -29.942)" fill="#080f16"/>
        <path id="Trazado_730166" data-name="Trazado 730166" d="M343.5,290.184s-3.161.95-6.923-3.019c-1.914-2.019-4,.009-4.129.363s2.87,5.061,3.9,8.757-3.579-.444-3.579-.444,3.162,6.259-2.653,3.4-6.731-15.012-5.5-16.167,3.152-.069,3.152-.069-.4-2.825,2.956-3.2,6.148,2.529,8.967,5.227,5.592,3.689,3.809,5.147" transform="translate(-204.619 -54.883)" fill="#203046"/>
        <path id="Trazado_730167" data-name="Trazado 730167" d="M343.5,290.184c.2-1.034-3.843-2.73-6.1-5.108-2.274-2.376-4.181-4.946-6.333-3.813-2.047,1.068-1.161,4.051-1.064,4.363a1.942,1.942,0,0,0-1.88-1.11c-1.284.185-1.913,8.516,4.648,11.326,0,0,3.162,6.259-2.653,3.4s-6.731-15.012-5.5-16.167,3.152-.069,3.152-.069-.4-2.825,2.956-3.2,6.148,2.529,8.967,5.227,5.592,3.689,3.809,5.147" transform="translate(-204.619 -54.883)" fill="#132335"/>
      </g>
    </g>
  </g>
</svg>
