<svg xmlns="http://www.w3.org/2000/svg" xmlns:xlink="http://www.w3.org/1999/xlink" width="1030" height="279.356" viewBox="0 0 1030 279.356">
  <defs>
    <clipPath id="clip-path">
      <rect id="Rectángulo_341021" data-name="Rectángulo 341021" width="190.749" height="279.356" fill="none"/>
    </clipPath>
    <clipPath id="clip-path-2">
      <rect id="Rectángulo_341020" data-name="Rectángulo 341020" width="190.749" height="279.357" fill="none"/>
    </clipPath>
    <clipPath id="clip-path-3">
      <rect id="Rectángulo_341017" data-name="Rectángulo 341017" width="9.586" height="14.484" fill="none"/>
    </clipPath>
    <clipPath id="clip-path-4">
      <rect id="Rectángulo_341018" data-name="Rectángulo 341018" width="9.583" height="14.487" fill="none"/>
    </clipPath>
    <clipPath id="clip-path-5">
      <rect id="Rectángulo_341019" data-name="Rectángulo 341019" width="94.605" height="44.651" fill="none"/>
    </clipPath>
  </defs>
  <g id="Grupo_971180" data-name="Grupo 971180" transform="translate(-285 -8136)">
    <rect id="Rectángulo_341015" data-name="Rectángulo 341015" width="820" height="186" rx="15" transform="translate(495 8182.746)" fill="#eaf0da"/>
    <path id="Trazado_735366" data-name="Trazado 735366" d="M4.594,11.688a4.58,4.58,0,0,1-.168,1.324,2.959,2.959,0,0,1-.535.957q-.375.461-1.094,1.215a2.674,2.674,0,0,0-.8,1.527L1.977,17a1.752,1.752,0,0,0,.453,1.3,1.775,1.775,0,0,0,1.3.449A1.821,1.821,0,0,0,5,18.309a1.48,1.48,0,0,0,.488-1.152H6.938a2.7,2.7,0,0,1-.895,2.055,3.3,3.3,0,0,1-2.309.8,3.326,3.326,0,0,1-2.367-.785,2.85,2.85,0,0,1-.836-2.184,4.076,4.076,0,0,1,1.25-2.719l.852-.883a2.638,2.638,0,0,0,.516-1.75Zm.063-2.473a.869.869,0,0,1-.215.6.8.8,0,0,1-.637.243.817.817,0,0,1-.641-.243.86.86,0,0,1-.219-.6.821.821,0,0,1,.219-.581A.832.832,0,0,1,3.8,8.4a.819.819,0,0,1,.637.235A.83.83,0,0,1,4.656,9.215ZM16.9,5.625v7.734a3.628,3.628,0,0,1-1.012,2.633,4.077,4.077,0,0,1-2.723,1.148l-.4.016a4.258,4.258,0,0,1-2.977-1.008,3.6,3.6,0,0,1-1.125-2.773V5.625h1.484v7.7a2.6,2.6,0,0,0,.68,1.918,2.612,2.612,0,0,0,1.938.684,2.63,2.63,0,0,0,1.949-.68,2.6,2.6,0,0,0,.676-1.914V5.625Zm7.063,9.133a1.064,1.064,0,0,0-.441-.91,4.249,4.249,0,0,0-1.539-.559,7.277,7.277,0,0,1-1.742-.562,2.479,2.479,0,0,1-.953-.781,1.869,1.869,0,0,1-.309-1.078,2.193,2.193,0,0,1,.879-1.758A3.432,3.432,0,0,1,22.1,8.391a3.532,3.532,0,0,1,2.332.742,2.357,2.357,0,0,1,.895,1.9H23.875a1.3,1.3,0,0,0-.5-1.023,1.888,1.888,0,0,0-1.27-.43,1.976,1.976,0,0,0-1.234.344,1.082,1.082,0,0,0-.445.9.877.877,0,0,0,.414.789,5.1,5.1,0,0,0,1.5.508,7.8,7.8,0,0,1,1.754.578,2.558,2.558,0,0,1,1,.809,1.988,1.988,0,0,1,.324,1.152,2.163,2.163,0,0,1-.906,1.816,3.8,3.8,0,0,1-2.352.684,4.257,4.257,0,0,1-1.8-.359,2.922,2.922,0,0,1-1.223-1,2.42,2.42,0,0,1-.441-1.395h1.445a1.5,1.5,0,0,0,.582,1.152,2.258,2.258,0,0,0,1.434.426,2.331,2.331,0,0,0,1.316-.332A1.02,1.02,0,0,0,23.961,14.758ZM29.25,6.5V8.547h1.578V9.664H29.25v5.249a1.173,1.173,0,0,0,.211.763.888.888,0,0,0,.719.254,3.5,3.5,0,0,0,.688-.094V17a4.215,4.215,0,0,1-1.109.155A1.8,1.8,0,0,1,28.3,16.57a2.517,2.517,0,0,1-.492-1.664V9.664H26.266V8.547H27.8V6.5Zm6.773,10.656a3.693,3.693,0,0,1-2.8-1.129,4.19,4.19,0,0,1-1.078-3.02v-.266a5.073,5.073,0,0,1,.48-2.246,3.748,3.748,0,0,1,1.344-1.547,3.378,3.378,0,0,1,1.871-.559,3.166,3.166,0,0,1,2.563,1.086,4.7,4.7,0,0,1,.914,3.109v.6H33.594a3,3,0,0,0,.73,2.02,2.3,2.3,0,0,0,1.777.77,2.517,2.517,0,0,0,1.3-.312,3.259,3.259,0,0,0,.93-.828l.883.688A3.55,3.55,0,0,1,36.023,17.156Zm-.18-7.578a1.928,1.928,0,0,0-1.469.637A3.1,3.1,0,0,0,33.641,12h4.234v-.109a2.753,2.753,0,0,0-.594-1.707A1.815,1.815,0,0,0,35.844,9.578Zm4.8,3.125a4.952,4.952,0,0,1,.922-3.129,3.137,3.137,0,0,1,4.766-.168V5h1.445V17H46.445l-.07-.906a2.943,2.943,0,0,1-2.414,1.063,2.887,2.887,0,0,1-2.395-1.2,5.008,5.008,0,0,1-.926-3.141Zm1.445.164a3.749,3.749,0,0,0,.594,2.25,1.92,1.92,0,0,0,1.641.813A2.108,2.108,0,0,0,46.328,14.7V10.813a2.125,2.125,0,0,0-1.992-1.2,1.929,1.929,0,0,0-1.656.82A4.128,4.128,0,0,0,42.086,12.867Zm7.883,6.4-.82-.562a3.77,3.77,0,0,0,.766-2.109v-1.3h1.414v1.133A3.559,3.559,0,0,1,50.941,18,3.7,3.7,0,0,1,49.969,19.266Zm10.539-3.289a2.082,2.082,0,0,0,1.352-.469,1.649,1.649,0,0,0,.641-1.172h1.367a2.621,2.621,0,0,1-.5,1.383,3.293,3.293,0,0,1-1.23,1.047,3.55,3.55,0,0,1-1.629.391A3.482,3.482,0,0,1,57.762,16a4.59,4.59,0,0,1-1.02-3.152v-.242a5.089,5.089,0,0,1,.453-2.2,3.451,3.451,0,0,1,1.3-1.492,3.7,3.7,0,0,1,2-.531,3.39,3.39,0,0,1,2.363.852,3.043,3.043,0,0,1,1,2.211H62.5a1.992,1.992,0,0,0-.621-1.348A1.932,1.932,0,0,0,60.5,9.578a2.023,2.023,0,0,0-1.707.793,3.724,3.724,0,0,0-.605,2.293v.273a3.65,3.65,0,0,0,.6,2.25A2.033,2.033,0,0,0,60.508,15.977Zm4.6-3.281a4.993,4.993,0,0,1,.488-2.234A3.643,3.643,0,0,1,66.957,8.93a3.7,3.7,0,0,1,1.988-.539,3.565,3.565,0,0,1,2.793,1.2,4.6,4.6,0,0,1,1.066,3.18v.1a5.036,5.036,0,0,1-.473,2.215,3.589,3.589,0,0,1-1.352,1.527,3.743,3.743,0,0,1-2.02.547,3.556,3.556,0,0,1-2.785-1.2A4.575,4.575,0,0,1,65.109,12.8Zm1.453.172a3.616,3.616,0,0,0,.652,2.258,2.211,2.211,0,0,0,3.5-.012,3.955,3.955,0,0,0,.648-2.418,3.61,3.61,0,0,0-.66-2.254,2.1,2.1,0,0,0-1.754-.863,2.075,2.075,0,0,0-1.727.852A3.925,3.925,0,0,0,66.563,12.867Zm9.422-4.32.047,1.063a3.08,3.08,0,0,1,2.531-1.219q2.68,0,2.7,3.023V17H79.82V11.406a1.946,1.946,0,0,0-.418-1.352,1.675,1.675,0,0,0-1.277-.437,2.086,2.086,0,0,0-1.234.375,2.546,2.546,0,0,0-.828.984V17H74.617V8.547ZM83.063,12.7a4.993,4.993,0,0,1,.488-2.234A3.643,3.643,0,0,1,84.91,8.93,3.7,3.7,0,0,1,86.9,8.391a3.565,3.565,0,0,1,2.793,1.2,4.6,4.6,0,0,1,1.066,3.18v.1a5.036,5.036,0,0,1-.473,2.215,3.589,3.589,0,0,1-1.352,1.527,3.743,3.743,0,0,1-2.02.547,3.556,3.556,0,0,1-2.785-1.2A4.575,4.575,0,0,1,83.063,12.8Zm1.453.172a3.616,3.616,0,0,0,.652,2.258,2.211,2.211,0,0,0,3.5-.012,3.955,3.955,0,0,0,.648-2.418,3.61,3.61,0,0,0-.66-2.254A2.1,2.1,0,0,0,86.9,9.578a2.075,2.075,0,0,0-1.727.852A3.925,3.925,0,0,0,84.516,12.867Zm11.445,3.109a2.082,2.082,0,0,0,1.352-.469,1.649,1.649,0,0,0,.641-1.172H99.32a2.621,2.621,0,0,1-.5,1.383,3.293,3.293,0,0,1-1.23,1.047,3.55,3.55,0,0,1-1.629.391A3.482,3.482,0,0,1,93.215,16a4.59,4.59,0,0,1-1.02-3.152v-.242a5.089,5.089,0,0,1,.453-2.2,3.451,3.451,0,0,1,1.3-1.492,3.7,3.7,0,0,1,2-.531,3.39,3.39,0,0,1,2.363.852,3.043,3.043,0,0,1,1,2.211H97.953a1.992,1.992,0,0,0-.621-1.348,1.932,1.932,0,0,0-1.379-.527,2.023,2.023,0,0,0-1.707.793,3.724,3.724,0,0,0-.605,2.293v.273a3.65,3.65,0,0,0,.6,2.25A2.033,2.033,0,0,0,95.961,15.977Zm8.492,1.18a3.693,3.693,0,0,1-2.8-1.129,4.19,4.19,0,0,1-1.078-3.02v-.266a5.073,5.073,0,0,1,.48-2.246A3.748,3.748,0,0,1,102.4,8.949a3.378,3.378,0,0,1,1.871-.559,3.166,3.166,0,0,1,2.563,1.086,4.7,4.7,0,0,1,.914,3.109v.6h-5.727a3,3,0,0,0,.73,2.02,2.3,2.3,0,0,0,1.777.77,2.517,2.517,0,0,0,1.3-.312,3.259,3.259,0,0,0,.93-.828l.883.688A3.55,3.55,0,0,1,104.453,17.156Zm-.18-7.578a1.928,1.928,0,0,0-1.469.637A3.1,3.1,0,0,0,102.07,12H106.3v-.109a2.753,2.753,0,0,0-.594-1.707A1.815,1.815,0,0,0,104.273,9.578Zm12.5,6.4a2.082,2.082,0,0,0,1.352-.469,1.649,1.649,0,0,0,.641-1.172h1.367a2.621,2.621,0,0,1-.5,1.383,3.293,3.293,0,0,1-1.23,1.047,3.55,3.55,0,0,1-1.629.391A3.482,3.482,0,0,1,114.027,16a4.59,4.59,0,0,1-1.02-3.152v-.242a5.089,5.089,0,0,1,.453-2.2,3.451,3.451,0,0,1,1.3-1.492,3.7,3.7,0,0,1,2-.531,3.39,3.39,0,0,1,2.363.852,3.043,3.043,0,0,1,1,2.211h-1.367a1.992,1.992,0,0,0-.621-1.348,1.932,1.932,0,0,0-1.379-.527,2.023,2.023,0,0,0-1.707.793,3.724,3.724,0,0,0-.605,2.293v.273a3.65,3.65,0,0,0,.6,2.25A2.033,2.033,0,0,0,116.773,15.977ZM126.977,17a3.036,3.036,0,0,1-.2-.891,3.225,3.225,0,0,1-2.406,1.047,2.984,2.984,0,0,1-2.051-.707,2.288,2.288,0,0,1-.8-1.793,2.39,2.39,0,0,1,1-2.051,4.733,4.733,0,0,1,2.824-.73h1.406v-.664A1.623,1.623,0,0,0,126.3,10a1.821,1.821,0,0,0-1.336-.449,2.108,2.108,0,0,0-1.3.391,1.151,1.151,0,0,0-.523.945h-1.453a2,2,0,0,1,.449-1.223,3.066,3.066,0,0,1,1.219-.934,4.1,4.1,0,0,1,1.691-.344,3.342,3.342,0,0,1,2.289.73,2.635,2.635,0,0,1,.859,2.012v3.891a4.757,4.757,0,0,0,.3,1.852V17Zm-2.4-1.1a2.54,2.54,0,0,0,1.289-.352,2.127,2.127,0,0,0,.883-.914V12.9h-1.133q-2.656,0-2.656,1.555a1.316,1.316,0,0,0,.453,1.063A1.742,1.742,0,0,0,124.578,15.9Zm10.8-1.141a1.064,1.064,0,0,0-.441-.91,4.249,4.249,0,0,0-1.539-.559,7.277,7.277,0,0,1-1.742-.562,2.479,2.479,0,0,1-.953-.781,1.869,1.869,0,0,1-.309-1.078,2.193,2.193,0,0,1,.879-1.758,3.432,3.432,0,0,1,2.246-.719,3.532,3.532,0,0,1,2.332.742,2.357,2.357,0,0,1,.895,1.9H135.3a1.3,1.3,0,0,0-.5-1.023,1.888,1.888,0,0,0-1.27-.43,1.976,1.976,0,0,0-1.234.344,1.082,1.082,0,0,0-.445.9.877.877,0,0,0,.414.789,5.1,5.1,0,0,0,1.5.508,7.8,7.8,0,0,1,1.754.578,2.558,2.558,0,0,1,1,.809,1.988,1.988,0,0,1,.324,1.152,2.163,2.163,0,0,1-.906,1.816,3.8,3.8,0,0,1-2.352.684,4.257,4.257,0,0,1-1.8-.359,2.922,2.922,0,0,1-1.223-1,2.42,2.42,0,0,1-.441-1.395h1.445a1.5,1.5,0,0,0,.582,1.152,2.258,2.258,0,0,0,1.434.426,2.331,2.331,0,0,0,1.316-.332A1.02,1.02,0,0,0,135.383,14.758Zm2.945-2.062a4.993,4.993,0,0,1,.488-2.234,3.642,3.642,0,0,1,1.359-1.531,3.7,3.7,0,0,1,1.988-.539,3.565,3.565,0,0,1,2.793,1.2,4.6,4.6,0,0,1,1.066,3.18v.1a5.036,5.036,0,0,1-.473,2.215,3.589,3.589,0,0,1-1.352,1.527,3.743,3.743,0,0,1-2.02.547,3.556,3.556,0,0,1-2.785-1.2,4.575,4.575,0,0,1-1.066-3.164Zm1.453.172a3.616,3.616,0,0,0,.652,2.258,2.211,2.211,0,0,0,3.5-.012,3.954,3.954,0,0,0,.648-2.418,3.61,3.61,0,0,0-.66-2.254,2.1,2.1,0,0,0-1.754-.863,2.075,2.075,0,0,0-1.727.852A3.925,3.925,0,0,0,139.781,12.867Zm12.977,1.891a1.064,1.064,0,0,0-.441-.91,4.249,4.249,0,0,0-1.539-.559,7.277,7.277,0,0,1-1.742-.562,2.479,2.479,0,0,1-.953-.781,1.869,1.869,0,0,1-.309-1.078,2.193,2.193,0,0,1,.879-1.758,3.432,3.432,0,0,1,2.246-.719,3.532,3.532,0,0,1,2.332.742,2.357,2.357,0,0,1,.895,1.9h-1.453a1.3,1.3,0,0,0-.5-1.023,1.888,1.888,0,0,0-1.27-.43,1.976,1.976,0,0,0-1.234.344,1.082,1.082,0,0,0-.445.9.877.877,0,0,0,.414.789,5.1,5.1,0,0,0,1.5.508,7.8,7.8,0,0,1,1.754.578,2.558,2.558,0,0,1,1,.809,1.988,1.988,0,0,1,.324,1.152,2.163,2.163,0,0,1-.906,1.816,3.8,3.8,0,0,1-2.352.684,4.257,4.257,0,0,1-1.8-.359,2.922,2.922,0,0,1-1.223-1,2.42,2.42,0,0,1-.441-1.395h1.445a1.5,1.5,0,0,0,.582,1.152,2.258,2.258,0,0,0,1.434.426,2.331,2.331,0,0,0,1.316-.332A1.02,1.02,0,0,0,152.758,14.758ZM159.7,12.7a4.952,4.952,0,0,1,.922-3.129,3.137,3.137,0,0,1,4.766-.168V5h1.445V17H165.5l-.07-.906a2.943,2.943,0,0,1-2.414,1.063,2.887,2.887,0,0,1-2.395-1.2,5.008,5.008,0,0,1-.926-3.141Zm1.445.164a3.749,3.749,0,0,0,.594,2.25,1.919,1.919,0,0,0,1.641.813,2.108,2.108,0,0,0,2.008-1.234V10.813a2.125,2.125,0,0,0-1.992-1.2,1.929,1.929,0,0,0-1.656.82A4.128,4.128,0,0,0,161.141,12.867Zm11.438,4.289a3.693,3.693,0,0,1-2.8-1.129,4.19,4.19,0,0,1-1.078-3.02v-.266a5.073,5.073,0,0,1,.48-2.246,3.748,3.748,0,0,1,1.344-1.547,3.378,3.378,0,0,1,1.871-.559,3.166,3.166,0,0,1,2.563,1.086,4.7,4.7,0,0,1,.914,3.109v.6h-5.727a3,3,0,0,0,.73,2.02,2.3,2.3,0,0,0,1.777.77,2.517,2.517,0,0,0,1.3-.312,3.258,3.258,0,0,0,.93-.828l.883.688A3.55,3.55,0,0,1,172.578,17.156Zm-.18-7.578a1.928,1.928,0,0,0-1.469.637A3.1,3.1,0,0,0,170.2,12h4.234v-.109a2.753,2.753,0,0,0-.594-1.707A1.815,1.815,0,0,0,172.4,9.578Zm12.617,7.578a3.693,3.693,0,0,1-2.8-1.129,4.19,4.19,0,0,1-1.078-3.02v-.266a5.073,5.073,0,0,1,.48-2.246,3.748,3.748,0,0,1,1.344-1.547,3.378,3.378,0,0,1,1.871-.559A3.166,3.166,0,0,1,187.4,9.477a4.7,4.7,0,0,1,.914,3.109v.6h-5.727a3,3,0,0,0,.73,2.02,2.3,2.3,0,0,0,1.777.77,2.517,2.517,0,0,0,1.3-.312,3.258,3.258,0,0,0,.93-.828l.883.688A3.55,3.55,0,0,1,185.016,17.156Zm-.18-7.578a1.928,1.928,0,0,0-1.469.637A3.1,3.1,0,0,0,182.633,12h4.234v-.109a2.753,2.753,0,0,0-.594-1.707A1.815,1.815,0,0,0,184.836,9.578Zm6.508-1.031.039.938a3.122,3.122,0,0,1,2.508-1.094A2.417,2.417,0,0,1,196.3,9.75a3.2,3.2,0,0,1,1.1-.984,3.242,3.242,0,0,1,1.6-.375q2.781,0,2.828,2.945V17h-1.445V11.422a1.941,1.941,0,0,0-.414-1.355,1.823,1.823,0,0,0-1.391-.449,1.917,1.917,0,0,0-1.336.48,1.949,1.949,0,0,0-.617,1.293V17h-1.453V11.461a1.613,1.613,0,0,0-1.8-1.844,1.934,1.934,0,0,0-1.945,1.211V17h-1.445V8.547Zm19.8,4.32a5.062,5.062,0,0,1-.883,3.109,2.829,2.829,0,0,1-2.391,1.18,3.1,3.1,0,0,1-2.422-.977v4.07h-1.445V8.547h1.32l.07.938a2.977,2.977,0,0,1,2.453-1.094,2.882,2.882,0,0,1,2.41,1.148,5.117,5.117,0,0,1,.887,3.2ZM209.7,12.7a3.735,3.735,0,0,0-.609-2.258,1.963,1.963,0,0,0-1.672-.828,2.125,2.125,0,0,0-1.969,1.164V14.82a2.129,2.129,0,0,0,1.984,1.156,1.954,1.954,0,0,0,1.652-.824A4.077,4.077,0,0,0,209.7,12.7Zm7.367-2.859a4.331,4.331,0,0,0-.711-.055A1.9,1.9,0,0,0,214.43,11v6h-1.445V8.547h1.406l.023.977a2.251,2.251,0,0,1,2.016-1.133,1.477,1.477,0,0,1,.641.109Zm4.836,7.313a3.693,3.693,0,0,1-2.8-1.129,4.19,4.19,0,0,1-1.078-3.02v-.266a5.073,5.073,0,0,1,.48-2.246,3.748,3.748,0,0,1,1.344-1.547,3.378,3.378,0,0,1,1.871-.559,3.166,3.166,0,0,1,2.563,1.086,4.7,4.7,0,0,1,.914,3.109v.6h-5.727a3,3,0,0,0,.73,2.02,2.3,2.3,0,0,0,1.777.77,2.517,2.517,0,0,0,1.3-.312,3.258,3.258,0,0,0,.93-.828l.883.688A3.55,3.55,0,0,1,221.906,17.156Zm-.18-7.578a1.928,1.928,0,0,0-1.469.637A3.1,3.1,0,0,0,219.523,12h4.234v-.109a2.753,2.753,0,0,0-.594-1.707A1.815,1.815,0,0,0,221.727,9.578Zm10.07,5.18a1.064,1.064,0,0,0-.441-.91,4.249,4.249,0,0,0-1.539-.559,7.277,7.277,0,0,1-1.742-.562,2.479,2.479,0,0,1-.953-.781,1.869,1.869,0,0,1-.309-1.078,2.193,2.193,0,0,1,.879-1.758,3.432,3.432,0,0,1,2.246-.719,3.532,3.532,0,0,1,2.332.742,2.357,2.357,0,0,1,.895,1.9h-1.453a1.3,1.3,0,0,0-.5-1.023,1.888,1.888,0,0,0-1.27-.43,1.976,1.976,0,0,0-1.234.344,1.082,1.082,0,0,0-.445.9.877.877,0,0,0,.414.789,5.1,5.1,0,0,0,1.5.508,7.8,7.8,0,0,1,1.754.578,2.558,2.558,0,0,1,1,.809,1.988,1.988,0,0,1,.324,1.152,2.163,2.163,0,0,1-.906,1.816,3.8,3.8,0,0,1-2.352.684,4.257,4.257,0,0,1-1.8-.359,2.922,2.922,0,0,1-1.223-1,2.42,2.42,0,0,1-.441-1.395h1.445a1.5,1.5,0,0,0,.582,1.152,2.258,2.258,0,0,0,1.434.426,2.331,2.331,0,0,0,1.316-.332A1.02,1.02,0,0,0,231.8,14.758ZM240.344,17a3.036,3.036,0,0,1-.2-.891,3.225,3.225,0,0,1-2.406,1.047,2.984,2.984,0,0,1-2.051-.707,2.287,2.287,0,0,1-.8-1.793,2.39,2.39,0,0,1,1-2.051,4.733,4.733,0,0,1,2.824-.73h1.406v-.664A1.623,1.623,0,0,0,239.664,10a1.821,1.821,0,0,0-1.336-.449,2.107,2.107,0,0,0-1.3.391,1.151,1.151,0,0,0-.523.945h-1.453a2,2,0,0,1,.449-1.223,3.066,3.066,0,0,1,1.219-.934,4.1,4.1,0,0,1,1.691-.344,3.342,3.342,0,0,1,2.289.73,2.635,2.635,0,0,1,.859,2.012v3.891a4.757,4.757,0,0,0,.3,1.852V17Zm-2.4-1.1a2.54,2.54,0,0,0,1.289-.352,2.127,2.127,0,0,0,.883-.914V12.9h-1.133q-2.656,0-2.656,1.555a1.316,1.316,0,0,0,.453,1.063A1.742,1.742,0,0,0,237.945,15.9Zm10.8-1.141a1.064,1.064,0,0,0-.441-.91,4.249,4.249,0,0,0-1.539-.559,7.277,7.277,0,0,1-1.742-.562,2.479,2.479,0,0,1-.953-.781,1.869,1.869,0,0,1-.309-1.078,2.193,2.193,0,0,1,.879-1.758,3.432,3.432,0,0,1,2.246-.719,3.532,3.532,0,0,1,2.332.742,2.357,2.357,0,0,1,.895,1.9h-1.453a1.3,1.3,0,0,0-.5-1.023,1.888,1.888,0,0,0-1.27-.43,1.976,1.976,0,0,0-1.234.344,1.082,1.082,0,0,0-.445.9.877.877,0,0,0,.414.789,5.1,5.1,0,0,0,1.5.508,7.8,7.8,0,0,1,1.754.578,2.558,2.558,0,0,1,1,.809,1.988,1.988,0,0,1,.324,1.152,2.163,2.163,0,0,1-.906,1.816,3.8,3.8,0,0,1-2.352.684,4.257,4.257,0,0,1-1.8-.359,2.922,2.922,0,0,1-1.223-1,2.42,2.42,0,0,1-.441-1.395h1.445a1.5,1.5,0,0,0,.582,1.152,2.258,2.258,0,0,0,1.434.426,2.331,2.331,0,0,0,1.316-.332A1.02,1.02,0,0,0,248.75,14.758Zm6.938-2.055a4.952,4.952,0,0,1,.922-3.129,3.137,3.137,0,0,1,4.766-.168V5h1.445V17h-1.328l-.07-.906a2.943,2.943,0,0,1-2.414,1.063,2.887,2.887,0,0,1-2.395-1.2,5.008,5.008,0,0,1-.926-3.141Zm1.445.164a3.749,3.749,0,0,0,.594,2.25,1.92,1.92,0,0,0,1.641.813,2.109,2.109,0,0,0,2.008-1.234V10.813a2.125,2.125,0,0,0-1.992-1.2,1.929,1.929,0,0,0-1.656.82A4.128,4.128,0,0,0,257.133,12.867Zm7.547-.172a4.993,4.993,0,0,1,.488-2.234,3.643,3.643,0,0,1,1.359-1.531,3.7,3.7,0,0,1,1.988-.539,3.565,3.565,0,0,1,2.793,1.2,4.6,4.6,0,0,1,1.066,3.18v.1a5.036,5.036,0,0,1-.473,2.215,3.589,3.589,0,0,1-1.352,1.527,3.743,3.743,0,0,1-2.02.547,3.556,3.556,0,0,1-2.785-1.2A4.575,4.575,0,0,1,264.68,12.8Zm1.453.172a3.616,3.616,0,0,0,.652,2.258,2.211,2.211,0,0,0,3.5-.012,3.955,3.955,0,0,0,.648-2.418,3.61,3.61,0,0,0-.66-2.254,2.1,2.1,0,0,0-1.754-.863,2.075,2.075,0,0,0-1.727.852A3.925,3.925,0,0,0,266.133,12.867Zm9.422-4.32.047,1.063a3.08,3.08,0,0,1,2.531-1.219q2.68,0,2.7,3.023V17h-1.445V11.406a1.946,1.946,0,0,0-.418-1.352,1.675,1.675,0,0,0-1.277-.437,2.086,2.086,0,0,0-1.234.375,2.546,2.546,0,0,0-.828.984V17h-1.445V8.547Zm7.109,4.156a4.952,4.952,0,0,1,.922-3.129,3.137,3.137,0,0,1,4.766-.168V5H289.8V17h-1.328l-.07-.906a2.943,2.943,0,0,1-2.414,1.063,2.887,2.887,0,0,1-2.395-1.2,5.008,5.008,0,0,1-.926-3.141Zm1.445.164a3.749,3.749,0,0,0,.594,2.25,1.92,1.92,0,0,0,1.641.813,2.109,2.109,0,0,0,2.008-1.234V10.813a2.125,2.125,0,0,0-1.992-1.2,1.929,1.929,0,0,0-1.656.82A4.128,4.128,0,0,0,284.109,12.867Zm11.438,4.289a3.693,3.693,0,0,1-2.8-1.129,4.19,4.19,0,0,1-1.078-3.02v-.266a5.073,5.073,0,0,1,.48-2.246A3.748,3.748,0,0,1,293.5,8.949a3.379,3.379,0,0,1,1.871-.559,3.166,3.166,0,0,1,2.563,1.086,4.7,4.7,0,0,1,.914,3.109v.6h-5.727a3,3,0,0,0,.73,2.02,2.3,2.3,0,0,0,1.777.77,2.517,2.517,0,0,0,1.3-.312,3.259,3.259,0,0,0,.93-.828l.883.688A3.55,3.55,0,0,1,295.547,17.156Zm-.18-7.578a1.928,1.928,0,0,0-1.469.637A3.1,3.1,0,0,0,293.164,12H297.4v-.109a2.753,2.753,0,0,0-.594-1.707A1.815,1.815,0,0,0,295.367,9.578Zm14.031,5.18a1.064,1.064,0,0,0-.441-.91,4.249,4.249,0,0,0-1.539-.559,7.276,7.276,0,0,1-1.742-.562,2.478,2.478,0,0,1-.953-.781,1.869,1.869,0,0,1-.309-1.078,2.193,2.193,0,0,1,.879-1.758,3.432,3.432,0,0,1,2.246-.719,3.532,3.532,0,0,1,2.332.742,2.357,2.357,0,0,1,.895,1.9h-1.453a1.3,1.3,0,0,0-.5-1.023,1.888,1.888,0,0,0-1.27-.43,1.976,1.976,0,0,0-1.234.344,1.082,1.082,0,0,0-.445.9.877.877,0,0,0,.414.789,5.1,5.1,0,0,0,1.5.508,7.8,7.8,0,0,1,1.754.578,2.559,2.559,0,0,1,1,.809,1.988,1.988,0,0,1,.324,1.152,2.163,2.163,0,0,1-.906,1.816,3.8,3.8,0,0,1-2.352.684,4.257,4.257,0,0,1-1.8-.359,2.922,2.922,0,0,1-1.223-1,2.42,2.42,0,0,1-.441-1.395h1.445a1.5,1.5,0,0,0,.582,1.152,2.258,2.258,0,0,0,1.434.426,2.331,2.331,0,0,0,1.316-.332A1.02,1.02,0,0,0,309.4,14.758Zm6.836,2.4a3.693,3.693,0,0,1-2.8-1.129,4.19,4.19,0,0,1-1.078-3.02v-.266a5.073,5.073,0,0,1,.48-2.246,3.748,3.748,0,0,1,1.344-1.547,3.379,3.379,0,0,1,1.871-.559,3.166,3.166,0,0,1,2.563,1.086,4.7,4.7,0,0,1,.914,3.109v.6H313.8a3,3,0,0,0,.73,2.02,2.3,2.3,0,0,0,1.777.77,2.517,2.517,0,0,0,1.3-.312,3.259,3.259,0,0,0,.93-.828l.883.688A3.55,3.55,0,0,1,316.234,17.156Zm-.18-7.578a1.928,1.928,0,0,0-1.469.637A3.1,3.1,0,0,0,313.852,12h4.234v-.109a2.753,2.753,0,0,0-.594-1.707A1.815,1.815,0,0,0,316.055,9.578Zm10.555-.008a3.073,3.073,0,0,1,2.5-1.18q2.68,0,2.7,3.023V17h-1.445V11.406a1.946,1.946,0,0,0-.418-1.352,1.675,1.675,0,0,0-1.277-.437,2.086,2.086,0,0,0-1.234.375,2.546,2.546,0,0,0-.828.984V17h-1.445V5h1.445ZM339.2,17a3.036,3.036,0,0,1-.2-.891,3.225,3.225,0,0,1-2.406,1.047,2.984,2.984,0,0,1-2.051-.707,2.288,2.288,0,0,1-.8-1.793,2.39,2.39,0,0,1,1-2.051,4.733,4.733,0,0,1,2.824-.73h1.406v-.664A1.623,1.623,0,0,0,338.516,10a1.821,1.821,0,0,0-1.336-.449,2.108,2.108,0,0,0-1.3.391,1.151,1.151,0,0,0-.523.945h-1.453a2,2,0,0,1,.449-1.223,3.066,3.066,0,0,1,1.219-.934,4.1,4.1,0,0,1,1.691-.344,3.342,3.342,0,0,1,2.289.73,2.635,2.635,0,0,1,.859,2.012v3.891a4.757,4.757,0,0,0,.3,1.852V17Zm-2.4-1.1a2.54,2.54,0,0,0,1.289-.352,2.126,2.126,0,0,0,.883-.914V12.9h-1.133q-2.656,0-2.656,1.555a1.316,1.316,0,0,0,.453,1.063A1.742,1.742,0,0,0,336.8,15.9ZM344.25,17H342.8V5h1.445Zm3.883,0h-1.445V5h1.445Zm7.531,0a3.036,3.036,0,0,1-.2-.891,3.225,3.225,0,0,1-2.406,1.047A2.984,2.984,0,0,1,351,16.449a2.288,2.288,0,0,1-.8-1.793,2.39,2.39,0,0,1,1-2.051,4.733,4.733,0,0,1,2.824-.73h1.406v-.664A1.623,1.623,0,0,0,354.984,10a1.821,1.821,0,0,0-1.336-.449,2.108,2.108,0,0,0-1.3.391,1.151,1.151,0,0,0-.523.945h-1.453a2,2,0,0,1,.449-1.223,3.066,3.066,0,0,1,1.219-.934,4.1,4.1,0,0,1,1.691-.344,3.342,3.342,0,0,1,2.289.73,2.635,2.635,0,0,1,.859,2.012v3.891a4.757,4.757,0,0,0,.3,1.852V17Zm-2.4-1.1a2.54,2.54,0,0,0,1.289-.352,2.126,2.126,0,0,0,.883-.914V12.9H354.3q-2.656,0-2.656,1.555a1.316,1.316,0,0,0,.453,1.063A1.742,1.742,0,0,0,353.266,15.9Zm7.25-7.352.047,1.063a3.08,3.08,0,0,1,2.531-1.219q2.68,0,2.7,3.023V17h-1.445V11.406a1.946,1.946,0,0,0-.418-1.352,1.675,1.675,0,0,0-1.277-.437,2.086,2.086,0,0,0-1.234.375,2.546,2.546,0,0,0-.828.984V17h-1.445V8.547ZM377.156,17a3.036,3.036,0,0,1-.2-.891,3.225,3.225,0,0,1-2.406,1.047,2.984,2.984,0,0,1-2.051-.707,2.288,2.288,0,0,1-.8-1.793,2.39,2.39,0,0,1,1-2.051,4.733,4.733,0,0,1,2.824-.73h1.406v-.664A1.623,1.623,0,0,0,376.477,10a1.821,1.821,0,0,0-1.336-.449,2.108,2.108,0,0,0-1.3.391,1.151,1.151,0,0,0-.523.945h-1.453a2,2,0,0,1,.449-1.223,3.066,3.066,0,0,1,1.219-.934,4.1,4.1,0,0,1,1.691-.344,3.342,3.342,0,0,1,2.289.73,2.635,2.635,0,0,1,.859,2.012v3.891a4.757,4.757,0,0,0,.3,1.852V17Zm-2.4-1.1a2.54,2.54,0,0,0,1.289-.352,2.126,2.126,0,0,0,.883-.914V12.9H375.8q-2.656,0-2.656,1.555a1.316,1.316,0,0,0,.453,1.063A1.742,1.742,0,0,0,374.758,15.9Zm6.594,1.1V9.664h-1.336V8.547h1.336V7.68a2.878,2.878,0,0,1,.727-2.1,2.745,2.745,0,0,1,2.055-.742,3.816,3.816,0,0,1,.992.132l-.078,1.165a4.151,4.151,0,0,0-.781-.07,1.41,1.41,0,0,0-1.086.411,1.669,1.669,0,0,0-.383,1.18v.893h1.8V9.664h-1.8V17Zm8.352.156a3.693,3.693,0,0,1-2.8-1.129,4.19,4.19,0,0,1-1.078-3.02v-.266a5.073,5.073,0,0,1,.48-2.246,3.748,3.748,0,0,1,1.344-1.547,3.379,3.379,0,0,1,1.871-.559,3.166,3.166,0,0,1,2.563,1.086A4.7,4.7,0,0,1,393,12.586v.6h-5.727a3,3,0,0,0,.73,2.02,2.3,2.3,0,0,0,1.777.77,2.517,2.517,0,0,0,1.3-.312,3.259,3.259,0,0,0,.93-.828l.883.688A3.55,3.55,0,0,1,389.7,17.156Zm-.18-7.578a1.928,1.928,0,0,0-1.469.637A3.1,3.1,0,0,0,387.32,12h4.234v-.109a2.753,2.753,0,0,0-.594-1.707A1.815,1.815,0,0,0,389.523,9.578Zm8.539,6.4a2.082,2.082,0,0,0,1.352-.469,1.649,1.649,0,0,0,.641-1.172h1.367a2.621,2.621,0,0,1-.5,1.383,3.293,3.293,0,0,1-1.23,1.047,3.551,3.551,0,0,1-1.629.391A3.482,3.482,0,0,1,395.316,16a4.59,4.59,0,0,1-1.02-3.152v-.242a5.089,5.089,0,0,1,.453-2.2,3.451,3.451,0,0,1,1.3-1.492,3.7,3.7,0,0,1,2-.531,3.39,3.39,0,0,1,2.363.852,3.043,3.043,0,0,1,1,2.211h-1.367a1.992,1.992,0,0,0-.621-1.348,1.932,1.932,0,0,0-1.379-.527,2.023,2.023,0,0,0-1.707.793,3.724,3.724,0,0,0-.605,2.293v.273a3.65,3.65,0,0,0,.6,2.25A2.033,2.033,0,0,0,398.063,15.977ZM405.008,6.5V8.547h1.578V9.664h-1.578v5.249a1.173,1.173,0,0,0,.211.763.888.888,0,0,0,.719.254,3.5,3.5,0,0,0,.688-.094V17a4.215,4.215,0,0,1-1.109.155,1.8,1.8,0,0,1-1.461-.586,2.517,2.517,0,0,1-.492-1.664V9.664h-1.539V8.547h1.539V6.5ZM413.492,17a3.036,3.036,0,0,1-.2-.891,3.225,3.225,0,0,1-2.406,1.047,2.984,2.984,0,0,1-2.051-.707,2.288,2.288,0,0,1-.8-1.793,2.39,2.39,0,0,1,1-2.051,4.733,4.733,0,0,1,2.824-.73h1.406v-.664A1.623,1.623,0,0,0,412.813,10a1.821,1.821,0,0,0-1.336-.449,2.108,2.108,0,0,0-1.3.391,1.151,1.151,0,0,0-.523.945H408.2a2,2,0,0,1,.449-1.223,3.066,3.066,0,0,1,1.219-.934,4.1,4.1,0,0,1,1.691-.344,3.342,3.342,0,0,1,2.289.73,2.635,2.635,0,0,1,.859,2.012v3.891a4.757,4.757,0,0,0,.3,1.852V17Zm-2.4-1.1a2.54,2.54,0,0,0,1.289-.352,2.126,2.126,0,0,0,.883-.914V12.9h-1.133q-2.656,0-2.656,1.555a1.316,1.316,0,0,0,.453,1.063A1.742,1.742,0,0,0,411.094,15.9Zm5.531-3.2a4.952,4.952,0,0,1,.922-3.129,3.137,3.137,0,0,1,4.766-.168V5h1.445V17H422.43l-.07-.906a2.943,2.943,0,0,1-2.414,1.063,2.887,2.887,0,0,1-2.395-1.2,5.008,5.008,0,0,1-.926-3.141Zm1.445.164a3.749,3.749,0,0,0,.594,2.25,1.92,1.92,0,0,0,1.641.813,2.109,2.109,0,0,0,2.008-1.234V10.813a2.125,2.125,0,0,0-1.992-1.2,1.929,1.929,0,0,0-1.656.82A4.128,4.128,0,0,0,418.07,12.867Zm7.547-.172a4.993,4.993,0,0,1,.488-2.234,3.643,3.643,0,0,1,1.359-1.531,3.7,3.7,0,0,1,1.988-.539,3.565,3.565,0,0,1,2.793,1.2,4.6,4.6,0,0,1,1.066,3.18v.1a5.036,5.036,0,0,1-.473,2.215,3.589,3.589,0,0,1-1.352,1.527,3.743,3.743,0,0,1-2.02.547,3.556,3.556,0,0,1-2.785-1.2,4.575,4.575,0,0,1-1.066-3.164Zm1.453.172a3.616,3.616,0,0,0,.652,2.258,2.211,2.211,0,0,0,3.5-.012,3.955,3.955,0,0,0,.648-2.418,3.61,3.61,0,0,0-.66-2.254,2.1,2.1,0,0,0-1.754-.863,2.075,2.075,0,0,0-1.727.852A3.925,3.925,0,0,0,427.07,12.867ZM444.3,17a3.036,3.036,0,0,1-.2-.891,3.225,3.225,0,0,1-2.406,1.047,2.984,2.984,0,0,1-2.051-.707,2.288,2.288,0,0,1-.8-1.793,2.39,2.39,0,0,1,1-2.051,4.733,4.733,0,0,1,2.824-.73h1.406v-.664A1.623,1.623,0,0,0,443.625,10a1.821,1.821,0,0,0-1.336-.449,2.108,2.108,0,0,0-1.3.391,1.151,1.151,0,0,0-.523.945h-1.453a2,2,0,0,1,.449-1.223,3.066,3.066,0,0,1,1.219-.934,4.1,4.1,0,0,1,1.691-.344,3.342,3.342,0,0,1,2.289.73,2.635,2.635,0,0,1,.859,2.012v3.891a4.757,4.757,0,0,0,.3,1.852V17Zm-2.4-1.1a2.54,2.54,0,0,0,1.289-.352,2.126,2.126,0,0,0,.883-.914V12.9h-1.133q-2.656,0-2.656,1.555a1.316,1.316,0,0,0,.453,1.063A1.742,1.742,0,0,0,441.906,15.9Zm7.453,1.1h-1.445V5h1.445Zm1.969-4.3a4.968,4.968,0,0,1,.914-3.145,3.151,3.151,0,0,1,4.836-.074l.07-.937h1.32V16.8a3.439,3.439,0,0,1-.973,2.586,3.589,3.589,0,0,1-2.613.945,4.348,4.348,0,0,1-1.789-.391,3.08,3.08,0,0,1-1.336-1.07l.75-.867a2.826,2.826,0,0,0,2.273,1.148,2.214,2.214,0,0,0,1.645-.594,2.269,2.269,0,0,0,.59-1.672v-.727a2.971,2.971,0,0,1-2.367,1,2.887,2.887,0,0,1-2.4-1.2A5.224,5.224,0,0,1,451.328,12.7Zm1.453.164a3.79,3.79,0,0,0,.586,2.246,1.9,1.9,0,0,0,1.641.816,2.117,2.117,0,0,0,2.008-1.242V10.828a2.142,2.142,0,0,0-1.992-1.211,1.921,1.921,0,0,0-1.648.82A4.128,4.128,0,0,0,452.781,12.867Zm13.086,3.3a3.07,3.07,0,0,1-2.477.992,2.628,2.628,0,0,1-2.059-.785,3.4,3.4,0,0,1-.715-2.324v-5.5h1.445v5.461q0,1.922,1.563,1.922a2.163,2.163,0,0,0,2.2-1.234V8.547h1.445V17H465.9Zm4.969-7.617.047,1.063a3.08,3.08,0,0,1,2.531-1.219q2.68,0,2.7,3.023V17h-1.445V11.406a1.946,1.946,0,0,0-.418-1.352,1.675,1.675,0,0,0-1.277-.437,2.086,2.086,0,0,0-1.234.375,2.546,2.546,0,0,0-.828.984V17h-1.445V8.547ZM483.516,17a3.036,3.036,0,0,1-.2-.891,3.225,3.225,0,0,1-2.406,1.047,2.984,2.984,0,0,1-2.051-.707,2.288,2.288,0,0,1-.8-1.793,2.39,2.39,0,0,1,1-2.051,4.733,4.733,0,0,1,2.824-.73h1.406v-.664A1.623,1.623,0,0,0,482.836,10a1.821,1.821,0,0,0-1.336-.449,2.108,2.108,0,0,0-1.3.391,1.151,1.151,0,0,0-.523.945h-1.453a2,2,0,0,1,.449-1.223,3.066,3.066,0,0,1,1.219-.934,4.1,4.1,0,0,1,1.691-.344,3.342,3.342,0,0,1,2.289.73,2.635,2.635,0,0,1,.859,2.012v3.891a4.757,4.757,0,0,0,.3,1.852V17Zm-2.4-1.1a2.54,2.54,0,0,0,1.289-.352,2.126,2.126,0,0,0,.883-.914V12.9h-1.133q-2.656,0-2.656,1.555a1.316,1.316,0,0,0,.453,1.063A1.742,1.742,0,0,0,481.117,15.9Zm13.352,1.258a3.693,3.693,0,0,1-2.8-1.129,4.19,4.19,0,0,1-1.078-3.02v-.266a5.073,5.073,0,0,1,.48-2.246,3.748,3.748,0,0,1,1.344-1.547,3.379,3.379,0,0,1,1.871-.559,3.166,3.166,0,0,1,2.563,1.086,4.7,4.7,0,0,1,.914,3.109v.6h-5.727a3,3,0,0,0,.73,2.02,2.3,2.3,0,0,0,1.777.77,2.517,2.517,0,0,0,1.3-.312,3.259,3.259,0,0,0,.93-.828l.883.688A3.55,3.55,0,0,1,494.469,17.156Zm-.18-7.578a1.928,1.928,0,0,0-1.469.637A3.1,3.1,0,0,0,492.086,12h4.234v-.109a2.753,2.753,0,0,0-.594-1.707A1.815,1.815,0,0,0,494.289,9.578Zm10.07,5.18a1.064,1.064,0,0,0-.441-.91,4.249,4.249,0,0,0-1.539-.559,7.276,7.276,0,0,1-1.742-.562,2.478,2.478,0,0,1-.953-.781,1.869,1.869,0,0,1-.309-1.078,2.193,2.193,0,0,1,.879-1.758,3.432,3.432,0,0,1,2.246-.719,3.532,3.532,0,0,1,2.332.742,2.357,2.357,0,0,1,.895,1.9h-1.453a1.3,1.3,0,0,0-.5-1.023,1.888,1.888,0,0,0-1.27-.43,1.976,1.976,0,0,0-1.234.344,1.082,1.082,0,0,0-.445.9.877.877,0,0,0,.414.789,5.1,5.1,0,0,0,1.5.508,7.8,7.8,0,0,1,1.754.578,2.559,2.559,0,0,1,1,.809,1.988,1.988,0,0,1,.324,1.152,2.163,2.163,0,0,1-.906,1.816,3.8,3.8,0,0,1-2.352.684,4.257,4.257,0,0,1-1.8-.359,2.922,2.922,0,0,1-1.223-1,2.42,2.42,0,0,1-.441-1.395h1.445a1.5,1.5,0,0,0,.582,1.152,2.258,2.258,0,0,0,1.434.426,2.331,2.331,0,0,0,1.316-.332A1.02,1.02,0,0,0,504.359,14.758Zm10.469-1.891a5.061,5.061,0,0,1-.883,3.109,2.829,2.829,0,0,1-2.391,1.18,3.1,3.1,0,0,1-2.422-.977v4.07h-1.445V8.547h1.32l.07.938a2.977,2.977,0,0,1,2.453-1.094,2.882,2.882,0,0,1,2.41,1.148,5.117,5.117,0,0,1,.887,3.2Zm-1.445-.164a3.735,3.735,0,0,0-.609-2.258,1.963,1.963,0,0,0-1.672-.828,2.125,2.125,0,0,0-1.969,1.164V14.82a2.129,2.129,0,0,0,1.984,1.156,1.954,1.954,0,0,0,1.652-.824A4.077,4.077,0,0,0,513.383,12.7Zm6.789,4.453a3.693,3.693,0,0,1-2.8-1.129,4.19,4.19,0,0,1-1.078-3.02v-.266a5.073,5.073,0,0,1,.48-2.246,3.748,3.748,0,0,1,1.344-1.547,3.378,3.378,0,0,1,1.871-.559,3.166,3.166,0,0,1,2.563,1.086,4.7,4.7,0,0,1,.914,3.109v.6h-5.727a3,3,0,0,0,.73,2.02,2.3,2.3,0,0,0,1.777.77,2.517,2.517,0,0,0,1.3-.312,3.258,3.258,0,0,0,.93-.828l.883.688A3.55,3.55,0,0,1,520.172,17.156Zm-.18-7.578a1.928,1.928,0,0,0-1.469.637A3.1,3.1,0,0,0,517.789,12h4.234v-.109a2.753,2.753,0,0,0-.594-1.707A1.815,1.815,0,0,0,519.992,9.578Zm8.539,6.4a2.082,2.082,0,0,0,1.352-.469,1.649,1.649,0,0,0,.641-1.172h1.367a2.621,2.621,0,0,1-.5,1.383,3.293,3.293,0,0,1-1.23,1.047,3.55,3.55,0,0,1-1.629.391A3.482,3.482,0,0,1,525.785,16a4.59,4.59,0,0,1-1.02-3.152v-.242a5.089,5.089,0,0,1,.453-2.2,3.451,3.451,0,0,1,1.3-1.492,3.7,3.7,0,0,1,2-.531,3.39,3.39,0,0,1,2.363.852,3.043,3.043,0,0,1,1,2.211h-1.367a1.992,1.992,0,0,0-.621-1.348,1.932,1.932,0,0,0-1.379-.527,2.023,2.023,0,0,0-1.707.793,3.724,3.724,0,0,0-.605,2.293v.273a3.65,3.65,0,0,0,.6,2.25A2.033,2.033,0,0,0,528.531,15.977ZM535.086,17h-1.445V8.547h1.445ZM533.523,6.3a.863.863,0,0,1,.215-.594.807.807,0,0,1,.637-.242.819.819,0,0,1,.641.242.854.854,0,0,1,.219.594.826.826,0,0,1-.219.586.834.834,0,0,1-.641.234.821.821,0,0,1-.637-.234A.834.834,0,0,1,533.523,6.3Zm7.383,10.852a3.693,3.693,0,0,1-2.8-1.129,4.19,4.19,0,0,1-1.078-3.02v-.266a5.073,5.073,0,0,1,.48-2.246,3.748,3.748,0,0,1,1.344-1.547,3.378,3.378,0,0,1,1.871-.559,3.166,3.166,0,0,1,2.563,1.086,4.7,4.7,0,0,1,.914,3.109v.6h-5.727a3,3,0,0,0,.73,2.02,2.3,2.3,0,0,0,1.777.77,2.517,2.517,0,0,0,1.3-.312,3.258,3.258,0,0,0,.93-.828l.883.688A3.55,3.55,0,0,1,540.906,17.156Zm-.18-7.578a1.928,1.928,0,0,0-1.469.637A3.1,3.1,0,0,0,538.523,12h4.234v-.109a2.753,2.753,0,0,0-.594-1.707A1.815,1.815,0,0,0,540.727,9.578Zm5.1,9.688-.82-.562a3.77,3.77,0,0,0,.766-2.109v-1.3h1.414v1.133A3.559,3.559,0,0,1,546.8,18,3.7,3.7,0,0,1,545.828,19.266Zm14.289-6.4a5.061,5.061,0,0,1-.883,3.109,2.829,2.829,0,0,1-2.391,1.18,3.1,3.1,0,0,1-2.422-.977v4.07h-1.445V8.547h1.32l.07.938a2.977,2.977,0,0,1,2.453-1.094,2.882,2.882,0,0,1,2.41,1.148,5.117,5.117,0,0,1,.887,3.2Zm-1.445-.164a3.735,3.735,0,0,0-.609-2.258,1.963,1.963,0,0,0-1.672-.828,2.125,2.125,0,0,0-1.969,1.164V14.82a2.129,2.129,0,0,0,1.984,1.156,1.954,1.954,0,0,0,1.652-.824A4.077,4.077,0,0,0,558.672,12.7Zm2.9-.008a4.993,4.993,0,0,1,.488-2.234,3.642,3.642,0,0,1,1.359-1.531,3.7,3.7,0,0,1,1.988-.539,3.565,3.565,0,0,1,2.793,1.2,4.6,4.6,0,0,1,1.066,3.18v.1a5.036,5.036,0,0,1-.473,2.215,3.589,3.589,0,0,1-1.352,1.527,3.743,3.743,0,0,1-2.02.547,3.556,3.556,0,0,1-2.785-1.2A4.575,4.575,0,0,1,561.57,12.8Zm1.453.172a3.616,3.616,0,0,0,.652,2.258,2.211,2.211,0,0,0,3.5-.012,3.954,3.954,0,0,0,.648-2.418,3.61,3.61,0,0,0-.66-2.254,2.1,2.1,0,0,0-1.754-.863,2.075,2.075,0,0,0-1.727.852A3.925,3.925,0,0,0,563.023,12.867Zm15.211,0a5.026,5.026,0,0,1-.891,3.113,2.846,2.846,0,0,1-2.391,1.176,2.947,2.947,0,0,1-2.477-1.133l-.07.977h-1.328V5h1.445V9.477a2.93,2.93,0,0,1,2.414-1.086,2.863,2.863,0,0,1,2.418,1.164,5.177,5.177,0,0,1,.879,3.188Zm-1.445-.164a3.906,3.906,0,0,0-.57-2.281,1.888,1.888,0,0,0-1.641-.8,2.122,2.122,0,0,0-2.055,1.328V14.6a2.181,2.181,0,0,0,2.07,1.328,1.878,1.878,0,0,0,1.617-.8A4.153,4.153,0,0,0,576.789,12.7Zm4.836,4.3H580.18V5h1.445Zm7.531,0a3.036,3.036,0,0,1-.2-.891,3.225,3.225,0,0,1-2.406,1.047,2.984,2.984,0,0,1-2.051-.707,2.287,2.287,0,0,1-.8-1.793,2.39,2.39,0,0,1,1-2.051,4.733,4.733,0,0,1,2.824-.73h1.406v-.664A1.623,1.623,0,0,0,588.477,10a1.821,1.821,0,0,0-1.336-.449,2.107,2.107,0,0,0-1.3.391,1.151,1.151,0,0,0-.523.945h-1.453a1.994,1.994,0,0,1,.449-1.223,3.066,3.066,0,0,1,1.219-.934,4.1,4.1,0,0,1,1.691-.344,3.342,3.342,0,0,1,2.289.73,2.635,2.635,0,0,1,.859,2.012v3.891a4.756,4.756,0,0,0,.3,1.852V17Zm-2.4-1.1a2.54,2.54,0,0,0,1.289-.352,2.127,2.127,0,0,0,.883-.914V12.9H587.8q-2.656,0-2.656,1.555a1.316,1.316,0,0,0,.453,1.063A1.742,1.742,0,0,0,586.758,15.9Zm9.273.078a2.082,2.082,0,0,0,1.352-.469,1.649,1.649,0,0,0,.641-1.172h1.367a2.621,2.621,0,0,1-.5,1.383,3.293,3.293,0,0,1-1.23,1.047,3.55,3.55,0,0,1-1.629.391A3.482,3.482,0,0,1,593.285,16a4.59,4.59,0,0,1-1.02-3.152v-.242a5.089,5.089,0,0,1,.453-2.2,3.451,3.451,0,0,1,1.3-1.492,3.7,3.7,0,0,1,2-.531,3.39,3.39,0,0,1,2.363.852,3.043,3.043,0,0,1,1,2.211h-1.367a1.992,1.992,0,0,0-.621-1.348,1.932,1.932,0,0,0-1.379-.527,2.023,2.023,0,0,0-1.707.793,3.724,3.724,0,0,0-.605,2.293v.273a3.65,3.65,0,0,0,.6,2.25A2.033,2.033,0,0,0,596.031,15.977ZM602.586,17h-1.445V8.547h1.445ZM601.023,6.3a.863.863,0,0,1,.215-.594.807.807,0,0,1,.637-.242.819.819,0,0,1,.641.242.854.854,0,0,1,.219.594.826.826,0,0,1-.219.586.834.834,0,0,1-.641.234.821.821,0,0,1-.637-.234A.834.834,0,0,1,601.023,6.3Zm3.492,6.391A4.993,4.993,0,0,1,605,10.461a3.642,3.642,0,0,1,1.359-1.531,3.7,3.7,0,0,1,1.988-.539,3.565,3.565,0,0,1,2.793,1.2,4.6,4.6,0,0,1,1.066,3.18v.1a5.036,5.036,0,0,1-.473,2.215,3.589,3.589,0,0,1-1.352,1.527,3.743,3.743,0,0,1-2.02.547,3.556,3.556,0,0,1-2.785-1.2,4.575,4.575,0,0,1-1.066-3.164Zm1.453.172a3.616,3.616,0,0,0,.652,2.258,2.211,2.211,0,0,0,3.5-.012,3.954,3.954,0,0,0,.648-2.418,3.61,3.61,0,0,0-.66-2.254,2.1,2.1,0,0,0-1.754-.863,2.075,2.075,0,0,0-1.727.852A3.925,3.925,0,0,0,605.969,12.867ZM609.008,5h1.75l-2.094,2.3-1.164,0Zm6.383,3.547.047,1.063a3.08,3.08,0,0,1,2.531-1.219q2.68,0,2.7,3.023V17h-1.445V11.406a1.946,1.946,0,0,0-.418-1.352,1.675,1.675,0,0,0-1.277-.437,2.086,2.086,0,0,0-1.234.375,2.546,2.546,0,0,0-.828.984V17h-1.445V8.547ZM622.8,19.266l-.82-.562a3.77,3.77,0,0,0,.766-2.109v-1.3h1.414v1.133A3.559,3.559,0,0,1,623.777,18,3.7,3.7,0,0,1,622.8,19.266Zm10.539-3.289a2.082,2.082,0,0,0,1.352-.469,1.649,1.649,0,0,0,.641-1.172H636.7a2.621,2.621,0,0,1-.5,1.383,3.293,3.293,0,0,1-1.23,1.047,3.55,3.55,0,0,1-1.629.391A3.482,3.482,0,0,1,630.6,16a4.59,4.59,0,0,1-1.02-3.152v-.242a5.089,5.089,0,0,1,.453-2.2,3.451,3.451,0,0,1,1.3-1.492,3.7,3.7,0,0,1,2-.531,3.39,3.39,0,0,1,2.363.852,3.043,3.043,0,0,1,1,2.211h-1.367a1.992,1.992,0,0,0-.621-1.348,1.932,1.932,0,0,0-1.379-.527,2.023,2.023,0,0,0-1.707.793,3.724,3.724,0,0,0-.605,2.293v.273a3.65,3.65,0,0,0,.6,2.25A2.033,2.033,0,0,0,633.344,15.977Zm4.6-3.281a4.993,4.993,0,0,1,.488-2.234,3.642,3.642,0,0,1,1.359-1.531,3.7,3.7,0,0,1,1.988-.539,3.565,3.565,0,0,1,2.793,1.2,4.6,4.6,0,0,1,1.066,3.18v.1a5.036,5.036,0,0,1-.473,2.215,3.589,3.589,0,0,1-1.352,1.527,3.743,3.743,0,0,1-2.02.547,3.556,3.556,0,0,1-2.785-1.2,4.575,4.575,0,0,1-1.066-3.164Zm1.453.172a3.616,3.616,0,0,0,.652,2.258,2.211,2.211,0,0,0,3.5-.012A3.954,3.954,0,0,0,644.2,12.7a3.61,3.61,0,0,0-.66-2.254,2.1,2.1,0,0,0-1.754-.863,2.075,2.075,0,0,0-1.727.852A3.925,3.925,0,0,0,639.4,12.867Zm9.414-4.32.039.938a3.122,3.122,0,0,1,2.508-1.094,2.417,2.417,0,0,1,2.414,1.359,3.2,3.2,0,0,1,1.1-.984,3.242,3.242,0,0,1,1.6-.375q2.781,0,2.828,2.945V17h-1.445V11.422a1.941,1.941,0,0,0-.414-1.355,1.823,1.823,0,0,0-1.391-.449,1.917,1.917,0,0,0-1.336.48,1.949,1.949,0,0,0-.617,1.293V17h-1.453V11.461a1.613,1.613,0,0,0-1.8-1.844,1.934,1.934,0,0,0-1.945,1.211V17h-1.445V8.547ZM666.7,16.164a3.07,3.07,0,0,1-2.477.992,2.628,2.628,0,0,1-2.059-.785,3.4,3.4,0,0,1-.715-2.324v-5.5h1.445v5.461q0,1.922,1.563,1.922a2.163,2.163,0,0,0,2.2-1.234V8.547H668.1V17h-1.375Zm4.969-7.617.047,1.063a3.08,3.08,0,0,1,2.531-1.219q2.68,0,2.7,3.023V17H675.5V11.406a1.946,1.946,0,0,0-.418-1.352,1.675,1.675,0,0,0-1.277-.437,2.086,2.086,0,0,0-1.234.375,2.546,2.546,0,0,0-.828.984V17H670.3V8.547ZM680.7,17H679.25V8.547H680.7ZM679.133,6.3a.863.863,0,0,1,.215-.594.807.807,0,0,1,.637-.242.819.819,0,0,1,.641.242.854.854,0,0,1,.219.594.826.826,0,0,1-.219.586.834.834,0,0,1-.641.234.821.821,0,0,1-.637-.234A.834.834,0,0,1,679.133,6.3Zm3.523,6.4a4.952,4.952,0,0,1,.922-3.129,3.137,3.137,0,0,1,4.766-.168V5h1.445V17h-1.328l-.07-.906a2.943,2.943,0,0,1-2.414,1.063,2.887,2.887,0,0,1-2.395-1.2,5.008,5.008,0,0,1-.926-3.141Zm1.445.164a3.749,3.749,0,0,0,.594,2.25,1.919,1.919,0,0,0,1.641.813,2.108,2.108,0,0,0,2.008-1.234V10.813a2.125,2.125,0,0,0-1.992-1.2,1.929,1.929,0,0,0-1.656.82A4.128,4.128,0,0,0,684.1,12.867ZM697.25,17a3.036,3.036,0,0,1-.2-.891,3.225,3.225,0,0,1-2.406,1.047,2.984,2.984,0,0,1-2.051-.707,2.287,2.287,0,0,1-.8-1.793,2.39,2.39,0,0,1,1-2.051,4.733,4.733,0,0,1,2.824-.73h1.406v-.664A1.623,1.623,0,0,0,696.57,10a1.821,1.821,0,0,0-1.336-.449,2.107,2.107,0,0,0-1.3.391,1.151,1.151,0,0,0-.523.945h-1.453a1.994,1.994,0,0,1,.449-1.223,3.066,3.066,0,0,1,1.219-.934,4.1,4.1,0,0,1,1.691-.344,3.342,3.342,0,0,1,2.289.73,2.635,2.635,0,0,1,.859,2.012v3.891a4.756,4.756,0,0,0,.3,1.852V17Zm-2.4-1.1a2.54,2.54,0,0,0,1.289-.352,2.127,2.127,0,0,0,.883-.914V12.9h-1.133q-2.656,0-2.656,1.555a1.316,1.316,0,0,0,.453,1.063A1.742,1.742,0,0,0,694.852,15.9Zm5.531-3.2a4.952,4.952,0,0,1,.922-3.129,3.137,3.137,0,0,1,4.766-.168V5h1.445V17h-1.328l-.07-.906a2.943,2.943,0,0,1-2.414,1.063,2.887,2.887,0,0,1-2.395-1.2,5.008,5.008,0,0,1-.926-3.141Zm1.445.164a3.749,3.749,0,0,0,.594,2.25,1.919,1.919,0,0,0,1.641.813A2.108,2.108,0,0,0,706.07,14.7V10.813a2.125,2.125,0,0,0-1.992-1.2,1.929,1.929,0,0,0-1.656.82A4.128,4.128,0,0,0,701.828,12.867Zm11.508-.172a4.993,4.993,0,0,1,.488-2.234,3.642,3.642,0,0,1,1.359-1.531,3.7,3.7,0,0,1,1.988-.539,3.565,3.565,0,0,1,2.793,1.2,4.6,4.6,0,0,1,1.066,3.18v.1a5.036,5.036,0,0,1-.473,2.215,3.589,3.589,0,0,1-1.352,1.527,3.743,3.743,0,0,1-2.02.547,3.556,3.556,0,0,1-2.785-1.2,4.575,4.575,0,0,1-1.066-3.164Zm1.453.172a3.616,3.616,0,0,0,.652,2.258,2.211,2.211,0,0,0,3.5-.012,3.954,3.954,0,0,0,.648-2.418,3.61,3.61,0,0,0-.66-2.254,2.1,2.1,0,0,0-1.754-.863,2.075,2.075,0,0,0-1.727.852A3.925,3.925,0,0,0,714.789,12.867ZM4.6,41.156a3.693,3.693,0,0,1-2.8-1.129,4.19,4.19,0,0,1-1.078-3.02v-.266a5.073,5.073,0,0,1,.48-2.246,3.748,3.748,0,0,1,1.344-1.547,3.378,3.378,0,0,1,1.871-.559,3.166,3.166,0,0,1,2.563,1.086A4.7,4.7,0,0,1,7.9,36.586v.6H2.172a3,3,0,0,0,.73,2.02,2.3,2.3,0,0,0,1.777.77,2.517,2.517,0,0,0,1.3-.312,3.259,3.259,0,0,0,.93-.828l.883.688A3.55,3.55,0,0,1,4.6,41.156Zm-.18-7.578a1.928,1.928,0,0,0-1.469.637A3.1,3.1,0,0,0,2.219,36H6.453v-.109a2.753,2.753,0,0,0-.594-1.707A1.815,1.815,0,0,0,4.422,33.578Zm8.539,6.4a2.082,2.082,0,0,0,1.352-.469,1.649,1.649,0,0,0,.641-1.172H16.32a2.621,2.621,0,0,1-.5,1.383,3.293,3.293,0,0,1-1.23,1.047,3.55,3.55,0,0,1-1.629.391A3.482,3.482,0,0,1,10.215,40,4.59,4.59,0,0,1,9.2,36.852v-.242a5.089,5.089,0,0,1,.453-2.2,3.451,3.451,0,0,1,1.3-1.492,3.7,3.7,0,0,1,2-.531,3.39,3.39,0,0,1,2.363.852,3.043,3.043,0,0,1,1,2.211H14.953a1.992,1.992,0,0,0-.621-1.348,1.932,1.932,0,0,0-1.379-.527,2.023,2.023,0,0,0-1.707.793,3.724,3.724,0,0,0-.605,2.293v.273a3.65,3.65,0,0,0,.6,2.25A2.033,2.033,0,0,0,12.961,39.977Zm4.6-3.281a4.993,4.993,0,0,1,.488-2.234A3.643,3.643,0,0,1,19.41,32.93a3.7,3.7,0,0,1,1.988-.539,3.565,3.565,0,0,1,2.793,1.2,4.6,4.6,0,0,1,1.066,3.18v.1a5.036,5.036,0,0,1-.473,2.215,3.589,3.589,0,0,1-1.352,1.527,3.743,3.743,0,0,1-2.02.547,3.556,3.556,0,0,1-2.785-1.2A4.575,4.575,0,0,1,17.563,36.8Zm1.453.172a3.616,3.616,0,0,0,.652,2.258,2.211,2.211,0,0,0,3.5-.012,3.955,3.955,0,0,0,.648-2.418,3.61,3.61,0,0,0-.66-2.254,2.1,2.1,0,0,0-1.754-.863,2.075,2.075,0,0,0-1.727.852A3.925,3.925,0,0,0,19.016,36.867Zm12.977,1.891a1.064,1.064,0,0,0-.441-.91,4.249,4.249,0,0,0-1.539-.559,7.277,7.277,0,0,1-1.742-.562,2.479,2.479,0,0,1-.953-.781,1.869,1.869,0,0,1-.309-1.078,2.193,2.193,0,0,1,.879-1.758,3.432,3.432,0,0,1,2.246-.719,3.532,3.532,0,0,1,2.332.742,2.357,2.357,0,0,1,.895,1.9H31.906a1.3,1.3,0,0,0-.5-1.023,1.888,1.888,0,0,0-1.27-.43,1.976,1.976,0,0,0-1.234.344,1.082,1.082,0,0,0-.445.9.877.877,0,0,0,.414.789,5.1,5.1,0,0,0,1.5.508,7.8,7.8,0,0,1,1.754.578,2.558,2.558,0,0,1,1,.809,1.988,1.988,0,0,1,.324,1.152,2.163,2.163,0,0,1-.906,1.816,3.8,3.8,0,0,1-2.352.684,4.257,4.257,0,0,1-1.8-.359,2.922,2.922,0,0,1-1.223-1,2.42,2.42,0,0,1-.441-1.395h1.445a1.5,1.5,0,0,0,.582,1.152,2.258,2.258,0,0,0,1.434.426,2.331,2.331,0,0,0,1.316-.332A1.02,1.02,0,0,0,31.992,38.758ZM36.891,41H35.445V32.547h1.445ZM35.328,30.3a.863.863,0,0,1,.215-.594.807.807,0,0,1,.637-.242.819.819,0,0,1,.641.242.854.854,0,0,1,.219.594.826.826,0,0,1-.219.586.834.834,0,0,1-.641.234.821.821,0,0,1-.637-.234A.834.834,0,0,1,35.328,30.3Zm8.8,8.453a1.064,1.064,0,0,0-.441-.91,4.249,4.249,0,0,0-1.539-.559,7.277,7.277,0,0,1-1.742-.562,2.479,2.479,0,0,1-.953-.781,1.869,1.869,0,0,1-.309-1.078,2.193,2.193,0,0,1,.879-1.758,3.432,3.432,0,0,1,2.246-.719,3.532,3.532,0,0,1,2.332.742,2.357,2.357,0,0,1,.895,1.9H44.039a1.3,1.3,0,0,0-.5-1.023,1.888,1.888,0,0,0-1.27-.43,1.976,1.976,0,0,0-1.234.344,1.082,1.082,0,0,0-.445.9.877.877,0,0,0,.414.789,5.1,5.1,0,0,0,1.5.508,7.8,7.8,0,0,1,1.754.578,2.558,2.558,0,0,1,1,.809,1.988,1.988,0,0,1,.324,1.152,2.163,2.163,0,0,1-.906,1.816,3.8,3.8,0,0,1-2.352.684,4.257,4.257,0,0,1-1.8-.359,2.922,2.922,0,0,1-1.223-1,2.42,2.42,0,0,1-.441-1.395H40.3a1.5,1.5,0,0,0,.582,1.152,2.258,2.258,0,0,0,1.434.426,2.331,2.331,0,0,0,1.316-.332A1.02,1.02,0,0,0,44.125,38.758ZM49.414,30.5v2.047h1.578v1.117H49.414v5.249a1.173,1.173,0,0,0,.211.763.888.888,0,0,0,.719.254,3.5,3.5,0,0,0,.688-.094V41a4.215,4.215,0,0,1-1.109.155,1.8,1.8,0,0,1-1.461-.586,2.517,2.517,0,0,1-.492-1.664V33.664H46.43V32.547h1.539V30.5Zm6.773,10.656a3.693,3.693,0,0,1-2.8-1.129,4.19,4.19,0,0,1-1.078-3.02v-.266a5.073,5.073,0,0,1,.48-2.246,3.748,3.748,0,0,1,1.344-1.547,3.378,3.378,0,0,1,1.871-.559,3.166,3.166,0,0,1,2.563,1.086,4.7,4.7,0,0,1,.914,3.109v.6H53.758a3,3,0,0,0,.73,2.02,2.3,2.3,0,0,0,1.777.77,2.517,2.517,0,0,0,1.3-.312,3.258,3.258,0,0,0,.93-.828l.883.688A3.55,3.55,0,0,1,56.188,41.156Zm-.18-7.578a1.928,1.928,0,0,0-1.469.637A3.1,3.1,0,0,0,53.8,36h4.234v-.109a2.753,2.753,0,0,0-.594-1.707A1.815,1.815,0,0,0,56.008,33.578Zm6.508-1.031.039.938a3.122,3.122,0,0,1,2.508-1.094,2.417,2.417,0,0,1,2.414,1.359,3.2,3.2,0,0,1,1.1-.984,3.242,3.242,0,0,1,1.6-.375q2.781,0,2.828,2.945V41H71.555V35.422a1.941,1.941,0,0,0-.414-1.355,1.823,1.823,0,0,0-1.391-.449,1.916,1.916,0,0,0-1.336.48,1.949,1.949,0,0,0-.617,1.293V41H66.344V35.461a1.613,1.613,0,0,0-1.8-1.844,1.934,1.934,0,0,0-1.945,1.211V41H61.148V32.547ZM80.4,41a3.036,3.036,0,0,1-.2-.891,3.225,3.225,0,0,1-2.406,1.047,2.984,2.984,0,0,1-2.051-.707,2.288,2.288,0,0,1-.8-1.793,2.39,2.39,0,0,1,1-2.051,4.733,4.733,0,0,1,2.824-.73h1.406v-.664A1.623,1.623,0,0,0,79.719,34a1.821,1.821,0,0,0-1.336-.449,2.107,2.107,0,0,0-1.3.391,1.151,1.151,0,0,0-.523.945H75.109a2,2,0,0,1,.449-1.223,3.066,3.066,0,0,1,1.219-.934,4.1,4.1,0,0,1,1.691-.344,3.342,3.342,0,0,1,2.289.73,2.635,2.635,0,0,1,.859,2.012v3.891a4.757,4.757,0,0,0,.3,1.852V41ZM78,39.9a2.54,2.54,0,0,0,1.289-.352,2.127,2.127,0,0,0,.883-.914V36.9H79.039q-2.656,0-2.656,1.555a1.316,1.316,0,0,0,.453,1.063A1.742,1.742,0,0,0,78,39.9Zm13.352,1.258a3.693,3.693,0,0,1-2.8-1.129,4.19,4.19,0,0,1-1.078-3.02v-.266a5.073,5.073,0,0,1,.48-2.246A3.748,3.748,0,0,1,89.3,32.949a3.378,3.378,0,0,1,1.871-.559,3.166,3.166,0,0,1,2.563,1.086,4.7,4.7,0,0,1,.914,3.109v.6H88.922a3,3,0,0,0,.73,2.02,2.3,2.3,0,0,0,1.777.77,2.517,2.517,0,0,0,1.3-.312,3.259,3.259,0,0,0,.93-.828l.883.688A3.55,3.55,0,0,1,91.352,41.156Zm-.18-7.578a1.928,1.928,0,0,0-1.469.637A3.1,3.1,0,0,0,88.969,36H93.2v-.109a2.753,2.753,0,0,0-.594-1.707A1.815,1.815,0,0,0,91.172,33.578Zm6.516-1.031.047,1.063a3.08,3.08,0,0,1,2.531-1.219q2.68,0,2.7,3.023V41h-1.445V35.406a1.946,1.946,0,0,0-.418-1.352,1.675,1.675,0,0,0-1.277-.437,2.086,2.086,0,0,0-1.234.375,2.546,2.546,0,0,0-.828.984V41H96.32V32.547ZM117.7,37.391a4.185,4.185,0,0,1-1.332,2.785,4.365,4.365,0,0,1-2.98.98,4.008,4.008,0,0,1-3.23-1.445,5.815,5.815,0,0,1-1.215-3.867V34.75a6.481,6.481,0,0,1,.566-2.789,4.231,4.231,0,0,1,1.605-1.848,4.47,4.47,0,0,1,2.406-.645,4.11,4.11,0,0,1,2.906,1.012,4.235,4.235,0,0,1,1.273,2.8H116.2a3.268,3.268,0,0,0-.848-1.975,2.565,2.565,0,0,0-1.824-.611,2.684,2.684,0,0,0-2.254,1.063,4.882,4.882,0,0,0-.816,3.026v1.1a5.018,5.018,0,0,0,.773,2.948,2.5,2.5,0,0,0,2.164,1.095,2.886,2.886,0,0,0,1.918-.566,3.143,3.143,0,0,0,.887-1.973Zm1.438-.7a4.993,4.993,0,0,1,.488-2.234,3.643,3.643,0,0,1,1.359-1.531,3.7,3.7,0,0,1,1.988-.539,3.565,3.565,0,0,1,2.793,1.2,4.6,4.6,0,0,1,1.066,3.18v.1a5.036,5.036,0,0,1-.473,2.215,3.589,3.589,0,0,1-1.352,1.527,3.743,3.743,0,0,1-2.02.547,3.556,3.556,0,0,1-2.785-1.2,4.575,4.575,0,0,1-1.066-3.164Zm1.453.172a3.616,3.616,0,0,0,.652,2.258,2.211,2.211,0,0,0,3.5-.012,3.955,3.955,0,0,0,.648-2.418,3.61,3.61,0,0,0-.66-2.254,2.1,2.1,0,0,0-1.754-.863,2.075,2.075,0,0,0-1.727.852A3.925,3.925,0,0,0,120.594,36.867ZM130.219,41h-1.445V29h1.445Zm1.93-4.3a4.993,4.993,0,0,1,.488-2.234A3.642,3.642,0,0,1,134,32.93a3.7,3.7,0,0,1,1.988-.539,3.565,3.565,0,0,1,2.793,1.2,4.6,4.6,0,0,1,1.066,3.18v.1a5.036,5.036,0,0,1-.473,2.215,3.589,3.589,0,0,1-1.352,1.527,3.743,3.743,0,0,1-2.02.547,3.556,3.556,0,0,1-2.785-1.2,4.575,4.575,0,0,1-1.066-3.164Zm1.453.172a3.616,3.616,0,0,0,.652,2.258,2.211,2.211,0,0,0,3.5-.012A3.954,3.954,0,0,0,138.4,36.7a3.61,3.61,0,0,0-.66-2.254,2.1,2.1,0,0,0-1.754-.863,2.075,2.075,0,0,0-1.727.852A3.925,3.925,0,0,0,133.6,36.867Zm9.414-4.32.039.938a3.122,3.122,0,0,1,2.508-1.094,2.417,2.417,0,0,1,2.414,1.359,3.2,3.2,0,0,1,1.1-.984,3.242,3.242,0,0,1,1.6-.375q2.781,0,2.828,2.945V41h-1.445V35.422a1.941,1.941,0,0,0-.414-1.355,1.823,1.823,0,0,0-1.391-.449,1.917,1.917,0,0,0-1.336.48,1.949,1.949,0,0,0-.617,1.293V41h-1.453V35.461a1.613,1.613,0,0,0-1.8-1.844,1.934,1.934,0,0,0-1.945,1.211V41h-1.445V32.547Zm19.82,4.32a5.026,5.026,0,0,1-.891,3.113,2.846,2.846,0,0,1-2.391,1.176,2.947,2.947,0,0,1-2.477-1.133l-.07.977H155.68V29h1.445v4.477a2.93,2.93,0,0,1,2.414-1.086,2.863,2.863,0,0,1,2.418,1.164,5.177,5.177,0,0,1,.879,3.188Zm-1.445-.164a3.906,3.906,0,0,0-.57-2.281,1.888,1.888,0,0,0-1.641-.8,2.122,2.122,0,0,0-2.055,1.328V38.6a2.181,2.181,0,0,0,2.07,1.328,1.878,1.878,0,0,0,1.617-.8A4.153,4.153,0,0,0,161.391,36.7Zm4.836,4.3h-1.445V32.547h1.445Zm-1.562-10.7a.863.863,0,0,1,.215-.594.807.807,0,0,1,.637-.242.819.819,0,0,1,.641.242.854.854,0,0,1,.219.594.826.826,0,0,1-.219.586.834.834,0,0,1-.641.234.821.821,0,0,1-.637-.234A.834.834,0,0,1,164.664,30.3ZM173.758,41a3.036,3.036,0,0,1-.2-.891,3.225,3.225,0,0,1-2.406,1.047,2.984,2.984,0,0,1-2.051-.707,2.287,2.287,0,0,1-.8-1.793,2.39,2.39,0,0,1,1-2.051,4.733,4.733,0,0,1,2.824-.73h1.406v-.664A1.623,1.623,0,0,0,173.078,34a1.821,1.821,0,0,0-1.336-.449,2.107,2.107,0,0,0-1.3.391,1.151,1.151,0,0,0-.523.945h-1.453a2,2,0,0,1,.449-1.223,3.066,3.066,0,0,1,1.219-.934,4.1,4.1,0,0,1,1.691-.344,3.342,3.342,0,0,1,2.289.73,2.635,2.635,0,0,1,.859,2.012v3.891a4.757,4.757,0,0,0,.3,1.852V41Zm-2.4-1.1a2.54,2.54,0,0,0,1.289-.352,2.127,2.127,0,0,0,.883-.914V36.9H172.4q-2.656,0-2.656,1.555a1.316,1.316,0,0,0,.453,1.063A1.742,1.742,0,0,0,171.359,39.9Zm7.578-2.115a4.663,4.663,0,0,1,.211-1.466,3.761,3.761,0,0,1,.8-1.193l1.023-1.053a2.36,2.36,0,0,0,.656-1.59,1.815,1.815,0,0,0-.43-1.282,1.62,1.62,0,0,0-1.25-.464,1.881,1.881,0,0,0-1.281.422,1.426,1.426,0,0,0-.484,1.133h-1.445a2.632,2.632,0,0,1,.9-2.043,3.374,3.374,0,0,1,2.309-.777,3.185,3.185,0,0,1,2.3.792,2.87,2.87,0,0,1,.824,2.172,3.926,3.926,0,0,1-1.266,2.691l-.852.842a2.623,2.623,0,0,0-.57,1.818Zm-.062,2.482a.861.861,0,0,1,.215-.6.81.81,0,0,1,.637-.241.822.822,0,0,1,.641.241.852.852,0,0,1,.219.6.824.824,0,0,1-.219.588.837.837,0,0,1-.641.233.774.774,0,0,1-.852-.82Z" transform="translate(521 8263.746)" fill="#12263f"/>
    <path id="Trazado_735367" data-name="Trazado 735367" d="M3.359,12.992V17H1.016V5.625H5.453a5.134,5.134,0,0,1,2.254.469A3.454,3.454,0,0,1,9.2,7.426a3.714,3.714,0,0,1,.523,1.965,3.266,3.266,0,0,1-1.145,2.637,4.767,4.767,0,0,1-3.168.965Zm0-1.9H5.453a2.059,2.059,0,0,0,1.418-.437,1.591,1.591,0,0,0,.488-1.25,1.876,1.876,0,0,0-.492-1.352,1.839,1.839,0,0,0-1.359-.531H3.359Zm12.578-.43a6.134,6.134,0,0,0-.812-.062,1.654,1.654,0,0,0-1.68.867V17H11.188V8.547H13.32l.063,1.008a2.092,2.092,0,0,1,1.883-1.164,2.366,2.366,0,0,1,.7.1Zm4.977,6.492a4.15,4.15,0,0,1-3.027-1.141,4.054,4.054,0,0,1-1.168-3.039v-.219a5.106,5.106,0,0,1,.492-2.277,3.612,3.612,0,0,1,1.395-1.547,3.914,3.914,0,0,1,2.059-.543,3.508,3.508,0,0,1,2.73,1.094,4.444,4.444,0,0,1,1,3.1v.922H19.008a2.1,2.1,0,0,0,.66,1.328,2,2,0,0,0,1.395.5,2.437,2.437,0,0,0,2.039-.945l1.109,1.242a3.389,3.389,0,0,1-1.375,1.121A4.511,4.511,0,0,1,20.914,17.156Zm-.258-6.945a1.411,1.411,0,0,0-1.09.455,2.357,2.357,0,0,0-.535,1.3h3.141v-.181a1.681,1.681,0,0,0-.406-1.165A1.456,1.456,0,0,0,20.656,10.211Zm4.688,2.5a4.954,4.954,0,0,1,.926-3.133,3,3,0,0,1,2.5-1.187,2.631,2.631,0,0,1,2.164.953l.094-.8H33.07v8.172a3.613,3.613,0,0,1-.5,1.93,3.236,3.236,0,0,1-1.418,1.25,4.985,4.985,0,0,1-2.141.43,4.635,4.635,0,0,1-1.812-.371A3.217,3.217,0,0,1,25.859,19l1-1.375a2.645,2.645,0,0,0,2.047.945,1.936,1.936,0,0,0,1.4-.48,1.8,1.8,0,0,0,.5-1.363v-.453a2.612,2.612,0,0,1-2.055.883,2.992,2.992,0,0,1-2.465-1.191,4.953,4.953,0,0,1-.941-3.16Zm2.258.168a3.085,3.085,0,0,0,.461,1.8,1.466,1.466,0,0,0,1.266.653,1.568,1.568,0,0,0,1.477-.775V11a1.564,1.564,0,0,0-1.461-.775,1.476,1.476,0,0,0-1.277.665A3.477,3.477,0,0,0,27.6,12.879Zm12.266,3.262a2.831,2.831,0,0,1-2.312,1.016,2.67,2.67,0,0,1-2.074-.781,3.335,3.335,0,0,1-.73-2.289V8.547h2.258v5.467q0,1.322,1.2,1.322a1.63,1.63,0,0,0,1.578-.8V8.547h2.266V17H39.93Zm5.969-7.594.07.977a2.951,2.951,0,0,1,2.43-1.133,2.453,2.453,0,0,1,2,.789,3.682,3.682,0,0,1,.672,2.359V17H48.75V11.594a1.465,1.465,0,0,0-.312-1.043,1.4,1.4,0,0,0-1.039-.324,1.553,1.553,0,0,0-1.43.813V17H43.711V8.547Zm9.586-2.078V8.547h1.445V10.2H55.422v4.219a1.007,1.007,0,0,0,.18.672.9.9,0,0,0,.688.2,3.6,3.6,0,0,0,.664-.055v1.711a4.648,4.648,0,0,1-1.367.2,2.156,2.156,0,0,1-2.422-2.4V10.2H51.93V8.547h1.234V6.469ZM63.023,17a2.507,2.507,0,0,1-.227-.758,2.732,2.732,0,0,1-2.133.914,3,3,0,0,1-2.059-.719,2.312,2.312,0,0,1-.816-1.812,2.389,2.389,0,0,1,1-2.062,4.915,4.915,0,0,1,2.879-.727H62.7v-.484a1.393,1.393,0,0,0-.3-.937,1.183,1.183,0,0,0-.949-.352,1.345,1.345,0,0,0-.895.273.929.929,0,0,0-.324.75H57.977a2.268,2.268,0,0,1,.453-1.359,3,3,0,0,1,1.281-.98,4.669,4.669,0,0,1,1.859-.355,3.689,3.689,0,0,1,2.48.785,2.747,2.747,0,0,1,.918,2.207v3.664a4.041,4.041,0,0,0,.336,1.82V17Zm-1.867-1.57a1.945,1.945,0,0,0,.922-.223,1.462,1.462,0,0,0,.625-.6V13.156h-.844q-1.7,0-1.8,1.172l-.008.133a.9.9,0,0,0,.3.7A1.153,1.153,0,0,0,61.156,15.43Zm9.18-2.719a5.094,5.094,0,0,1,.887-3.148,2.877,2.877,0,0,1,2.426-1.172,2.589,2.589,0,0,1,2.039.922V5h2.266V17H75.914l-.109-.9a2.657,2.657,0,0,1-2.172,1.055,2.869,2.869,0,0,1-2.395-1.176A5.258,5.258,0,0,1,70.336,12.711Zm2.258.168a3.337,3.337,0,0,0,.414,1.823,1.349,1.349,0,0,0,1.2.634,1.511,1.511,0,0,0,1.477-.884V11.111a1.489,1.489,0,0,0-1.461-.884Q72.594,10.227,72.594,12.879Zm11,4.277a4.15,4.15,0,0,1-3.027-1.141A4.054,4.054,0,0,1,79.4,12.977v-.219a5.106,5.106,0,0,1,.492-2.277,3.612,3.612,0,0,1,1.395-1.547,3.914,3.914,0,0,1,2.059-.543,3.508,3.508,0,0,1,2.73,1.094,4.444,4.444,0,0,1,1,3.1v.922H81.688a2.1,2.1,0,0,0,.66,1.328,2,2,0,0,0,1.395.5,2.437,2.437,0,0,0,2.039-.945l1.109,1.242a3.389,3.389,0,0,1-1.375,1.121A4.511,4.511,0,0,1,83.594,17.156Zm-.258-6.945a1.411,1.411,0,0,0-1.09.455,2.357,2.357,0,0,0-.535,1.3h3.141v-.181a1.681,1.681,0,0,0-.406-1.165A1.456,1.456,0,0,0,83.336,10.211Zm13.75.453a6.134,6.134,0,0,0-.812-.062,1.654,1.654,0,0,0-1.68.867V17H92.336V8.547h2.133l.063,1.008a2.092,2.092,0,0,1,1.883-1.164,2.366,2.366,0,0,1,.7.1Zm4.977,6.492a4.15,4.15,0,0,1-3.027-1.141,4.054,4.054,0,0,1-1.168-3.039v-.219a5.106,5.106,0,0,1,.492-2.277,3.612,3.612,0,0,1,1.395-1.547,3.914,3.914,0,0,1,2.059-.543,3.508,3.508,0,0,1,2.73,1.094,4.444,4.444,0,0,1,1,3.1v.922h-5.383a2.1,2.1,0,0,0,.66,1.328,2,2,0,0,0,1.395.5,2.437,2.437,0,0,0,2.039-.945l1.109,1.242a3.389,3.389,0,0,1-1.375,1.121A4.511,4.511,0,0,1,102.063,17.156Zm-.258-6.945a1.411,1.411,0,0,0-1.09.455,2.357,2.357,0,0,0-.535,1.3h3.141v-.181a1.681,1.681,0,0,0-.406-1.165A1.456,1.456,0,0,0,101.8,10.211Zm10.68-3.461a10.866,10.866,0,0,0-1.25-.078q-1.531,0-1.531,1.3v.57h1.68V10.2H109.7V17h-2.266V10.2H106.18V8.547h1.258V7.891a2.888,2.888,0,0,1,.922-2.262,3.769,3.769,0,0,1,2.563-.793q1.18,0,3.828.25V17h-2.266Zm8.031,10.406a4.15,4.15,0,0,1-3.027-1.141,4.054,4.054,0,0,1-1.168-3.039v-.219a5.106,5.106,0,0,1,.492-2.277,3.612,3.612,0,0,1,1.395-1.547,3.914,3.914,0,0,1,2.059-.543A3.508,3.508,0,0,1,123,9.484a4.444,4.444,0,0,1,1,3.1v.922h-5.383a2.1,2.1,0,0,0,.66,1.328,2,2,0,0,0,1.395.5,2.437,2.437,0,0,0,2.039-.945l1.109,1.242a3.389,3.389,0,0,1-1.375,1.121A4.511,4.511,0,0,1,120.516,17.156Zm-.258-6.945a1.411,1.411,0,0,0-1.09.455,2.357,2.357,0,0,0-.535,1.3h3.141v-.181a1.681,1.681,0,0,0-.406-1.165A1.456,1.456,0,0,0,120.258,10.211Zm8.234.859,1.422-2.523h2.414l-2.406,4.141L132.43,17h-2.422L128.5,14.344,127,17h-2.43l2.508-4.312-2.4-4.141H127.1ZM135.8,17h-2.266V8.547H135.8ZM133.4,6.359a1.112,1.112,0,0,1,.34-.836,1.465,1.465,0,0,1,1.848,0,1.105,1.105,0,0,1,.344.836,1.109,1.109,0,0,1-.348.844,1.448,1.448,0,0,1-1.836,0A1.109,1.109,0,0,1,133.4,6.359ZM137.3,12.7a5.013,5.013,0,0,1,.484-2.242,3.546,3.546,0,0,1,1.395-1.523,4.069,4.069,0,0,1,2.113-.539,3.849,3.849,0,0,1,2.793,1.047,4.2,4.2,0,0,1,1.207,2.844l.016.578a4.418,4.418,0,0,1-1.086,3.121,4.209,4.209,0,0,1-5.832,0A4.5,4.5,0,0,1,137.3,12.8Zm2.258.16a3.16,3.16,0,0,0,.453,1.843,1.628,1.628,0,0,0,2.578.008,3.457,3.457,0,0,0,.461-2.015,3.128,3.128,0,0,0-.461-1.831,1.5,1.5,0,0,0-1.3-.649,1.474,1.474,0,0,0-1.281.646A3.516,3.516,0,0,0,139.563,12.856ZM141.742,5H144.2l-2.164,2.422H140.2Zm7.039,3.547.07.977a2.951,2.951,0,0,1,2.43-1.133,2.453,2.453,0,0,1,2,.789,3.682,3.682,0,0,1,.672,2.359V17H151.7V11.594a1.465,1.465,0,0,0-.312-1.043,1.4,1.4,0,0,0-1.039-.324,1.553,1.553,0,0,0-1.43.813V17h-2.258V8.547Z" transform="translate(521 8225.746)" fill="#12263f"/>
    <path id="Polígono_1" data-name="Polígono 1" d="M27.5,0,55,54H0Z" transform="translate(447 8263.746) rotate(-90)" fill="#eaf0da"/>
    <g id="Grupo_965389" data-name="Grupo 965389" transform="translate(285 8136)">
      <g id="Grupo_965388" data-name="Grupo 965388" clip-path="url(#clip-path)">
        <g id="Grupo_965387" data-name="Grupo 965387" transform="translate(0 -0.001)">
          <g id="Grupo_965386" data-name="Grupo 965386" clip-path="url(#clip-path-2)">
            <path id="Trazado_729972" data-name="Trazado 729972" d="M771.4,900.869c.217,4.047.737,8.534,1.468,13.277h18.7c-1.515-8.888-2.551-14.381-2.551-14.381,0-6.582-7.553-80.482-11.994-94.7s-30.206-16.909-30.206-16.909-3.11,39.123,2.666,53.261,21.915,59.45,21.915,59.45" transform="translate(-600.823 -634.789)" fill="#f19367"/>
            <path id="Trazado_729973" data-name="Trazado 729973" d="M36.338,914.145c4.293-34.527,8.7-67.692,10.99-77.981,5.329-23.991,2.693-48.008,2.693-48.008S25.563,789.52,20.674,817.5c-2.343,13.429-3.563,55.392-4.2,96.641Z" transform="translate(-13.271 -634.789)" fill="#f19367"/>
            <path id="Trazado_729974" data-name="Trazado 729974" d="M18.753,1230.138a187.827,187.827,0,0,0,22.123,2.578c.458-3.559.911-7.046,1.356-10.436L19.258,1210.3c-.189,6.379-.359,13.04-.5,19.841" transform="translate(-15.104 -974.784)" fill="#bd502a"/>
            <path id="Trazado_729975" data-name="Trazado 729975" d="M28.623,964.768c-3.909.487-16.675-2.446-21.029-3.492,7.763,9,29.494,8.29,29.494,8.29,3.135-12.073,5.151-37.081,5.151-37.081v-43.3C34.477,908.019,20.451,941.3,22.7,940.054c2.369-1.32,10.955-3.419,10.955-3.419s-5.626,13.027-7.581,15.7,7.287,11.846,2.547,12.436" transform="translate(-6.116 -716.157)" fill="#7a94a1"/>
            <path id="Trazado_729976" data-name="Trazado 729976" d="M834.588,1188.283c5.484.3,13.533.236,19.885-1.934-.675-7.644-1.831-19.12-3.208-31.287l-23.228,15.088c2.49,6.838,4.825,13.323,6.552,18.133" transform="translate(-666.908 -930.297)" fill="#bd502a"/>
            <path id="Trazado_729977" data-name="Trazado 729977" d="M766.563,964.168c-.694-1.777,12.542-26.057,14.023-35.83s-1.778-6.518-1.778-6.518c-4.739,14.511-15.991,26.355-15.991,26.355s4.145-20.434,4.145-23.982-14.806-34.651-14.806-34.651l-3.617,9.416-2.549,35.989,16.234,34.5a33.058,33.058,0,0,0,15.475-1.27c-4.5-1.139-10.694-2.891-11.135-4.013" transform="translate(-600.827 -716.445)" fill="#7a94a1"/>
            <path id="Trazado_729978" data-name="Trazado 729978" d="M290.835,629.257c-.485-2.236-1-3.6-1.463-3.854-3.257-1.774-39.979-12.437-39.979-12.437-2.073-3.55-2.209-21.912-2.209-21.912l-15.627-5.842v-.086l-.116.043-.112-.043v.086L215.7,591.054s-.135,18.362-2.207,21.912c0,0-36.723,10.663-39.981,12.437-.464.251-.946,1.618-1.383,3.854Z" transform="translate(-138.635 -471.265)" fill="#e57a4e"/>
            <path id="Trazado_729979" data-name="Trazado 729979" d="M418.019,610.3a22.086,22.086,0,0,0,9.107-4.491c-.666-6.51-.726-14.754-.726-14.754l-15.627-5.842v-.086l-.116.043-.112-.043v.086l-15.629,5.842s-.028,4.007-.271,8.637c5.273,3.725,17.491,11.75,23.374,10.607" transform="translate(-317.851 -471.266)" fill="#bd502a"/>
            <path id="Trazado_729980" data-name="Trazado 729980" d="M30.972,834.663c1.875-7.217,3.347-19.052,4.23-27.408a141.084,141.084,0,0,0,4.851,16.462s1.288,22.744,2.83,36.894H143c-.225-9.614-.236-18.223.111-24.454,0,0,3.709-12.267,6.95-25.99L161.4,834.26c16.79,2.687,29.021-8.918,29.021-8.918s-5.084-65.134-10.659-74.351c-7.535-12.461-29.9-16.118-29.992-16.132l-39.513-13.171s-16.464,18.565-34.892,0l-41.3,12.934s-.034.156-.086.41c-34.706,3.306-31.453,56.63-31.453,56.63L0,824.234c5.924,11.254,30.972,10.429,30.972,10.429" transform="translate(0 -581.254)" fill="#95b1c1"/>
            <path id="Trazado_729981" data-name="Trazado 729981" d="M186.643,1206.064h23.189c.73-1.631,1.153-2.612,1.153-2.612-7.7-10.665-23.115-32.28-23.115-32.28,4.054,2,65.76,23.4,69.312,23.1s3.554-1.779,3.554-1.779c-16.09-3.016-67.175-32.92-82.243-41.888a142.3,142.3,0,0,0,5.32,18.566s1.289,22.744,2.83,36.894" transform="translate(-143.76 -926.707)" fill="#7a94a1"/>
            <path id="Trazado_729982" data-name="Trazado 729982" d="M664.222,354.532s3.986-7,10.192-7.1c3.686-.057,2.6,15.081-1.2,18.989s-9.325,2.609-10.554-.855Z" transform="translate(-533.712 -279.826)" fill="#f19367"/>
            <g id="Grupo_965379" data-name="Grupo 965379" transform="translate(131.361 71.104)" opacity="0.4">
              <g id="Grupo_965378" data-name="Grupo 965378">
                <g id="Grupo_965377" data-name="Grupo 965377" clip-path="url(#clip-path-3)">
                  <path id="Trazado_729983" data-name="Trazado 729983" d="M675.063,379.54s4.634,1.63,6.633-2.232,3.941-8.5,2.393-11.91c0,0-4.273.994-8.224,8.968,0,0,2.9,3.6-.8,5.175" transform="translate(-675.063 -365.398)" fill="#c6442b"/>
                </g>
              </g>
            </g>
            <path id="Trazado_729984" data-name="Trazado 729984" d="M682.858,368.693c-.041-.731-.082-1.459-.162-2.181a9.892,9.892,0,0,0-.409-2.083,1.01,1.01,0,0,0-.217-.365c-.093-.04-.036-.055-.191.025l-.484.256-.419.3c-.276.191-.557.4-.835.635s-.568.435-.823.689l-.788.733c-.262.244-.492.521-.74.78s-.5.513-.714.8-.451.555-.676.833a18.956,18.956,0,0,0-1.227,1.753,7.788,7.788,0,0,0-.5.94l-.477.956-.058-.355a6.594,6.594,0,0,1,.888,1.606,4.284,4.284,0,0,1,.243.891,2.669,2.669,0,0,1,.045.466,2.8,2.8,0,0,1-.026.471,3.178,3.178,0,0,1-.109.461l-.2.429-.287.368a2.352,2.352,0,0,1-.34.305,3.778,3.778,0,0,1-.762.466c-.273.111-.559.188-.832.282.259-.137.521-.261.767-.4a3.617,3.617,0,0,0,.664-.525,2.073,2.073,0,0,0,.272-.31l.21-.348a2.7,2.7,0,0,0,.182-.77,2.431,2.431,0,0,0-.009-.4,2.208,2.208,0,0,0-.068-.4,3.848,3.848,0,0,0-.273-.768,6.064,6.064,0,0,0-.9-1.375l-.145-.167.087-.187.475-1.017a8.427,8.427,0,0,1,.5-1,19.661,19.661,0,0,1,1.236-1.863c.231-.291.453-.591.692-.876s.509-.541.761-.814.508-.543.787-.788l.834-.738c.269-.255.58-.465.871-.695a6.8,6.8,0,0,1,.939-.647l.5-.3.5-.219a.731.731,0,0,1,.4-.082.665.665,0,0,1,.408.2,1.481,1.481,0,0,1,.31.585,7.674,7.674,0,0,1,.231,2.235,19.586,19.586,0,0,1-.135,2.2" transform="translate(-541.843 -292.738)" fill="#874237"/>
            <path id="Trazado_729985" data-name="Trazado 729985" d="M696.411,386.234a1.506,1.506,0,0,0-.2-.171,6.252,6.252,0,0,0-.511-.362c-.116-.055-.243-.1-.363-.17a1.556,1.556,0,0,0-.409-.141,3.224,3.224,0,0,0-.441-.115l-.477-.044a1.2,1.2,0,0,0-.484-.019c-.163.018-.326.012-.484.018a2.908,2.908,0,0,0-.462.018c-.146.028-.288.044-.42.058a6.033,6.033,0,0,1-.925.043,5.014,5.014,0,0,1,.8-.5c.125-.067.263-.138.413-.2a1.773,1.773,0,0,1,.5-.137c.178-.03.362-.075.553-.095a1.6,1.6,0,0,1,.585-.007l.591.09a2.371,2.371,0,0,1,.541.223,2.426,2.426,0,0,1,.806.627,2.2,2.2,0,0,1,.336.63.859.859,0,0,1,.056.255" transform="translate(-556.73 -309.587)" fill="#874237"/>
            <path id="Trazado_729986" data-name="Trazado 729986" d="M325.246,213.187s18.762-9.01,25.223-19.133c5.31-7.1,9.685-43.322,10.295-48.943.02-.189.041-.373.061-.557s.029-.278.029-.278l-.009.005c.1-1.162.166-2.335.166-3.526a39.264,39.264,0,0,0-78.528,0,39.792,39.792,0,0,0,.223,4.174h0s4.5,41.345,10.322,49.125c6.837,11.6,25.222,19.133,25.222,19.133a11.647,11.647,0,0,0,7,0" transform="translate(-227.514 -81.743)" fill="#f19367"/>
            <path id="Trazado_729987" data-name="Trazado 729987" d="M244.3,363.03s-3.986-7-10.191-7.094c-3.685-.055-2.6,15.079,1.2,18.986s9.327,2.605,10.554-.855Z" transform="translate(-186.727 -286.673)" fill="#f19367"/>
            <g id="Grupo_965382" data-name="Grupo 965382" transform="translate(47.141 72.754)" opacity="0.4">
              <g id="Grupo_965381" data-name="Grupo 965381">
                <g id="Grupo_965380" data-name="Grupo 965380" clip-path="url(#clip-path-4)">
                  <path id="Trazado_729988" data-name="Trazado 729988" d="M251.839,388.027s-4.634,1.629-6.63-2.234-3.942-8.5-2.392-11.912c0,0,4.273,1,8.224,8.971,0,0-2.9,3.593.8,5.175" transform="translate(-242.255 -373.881)" fill="#c6442b"/>
                </g>
              </g>
            </g>
            <path id="Trazado_729989" data-name="Trazado 729989" d="M241.33,377.168a19.645,19.645,0,0,1-.135-2.2,7.714,7.714,0,0,1,.231-2.236,1.5,1.5,0,0,1,.311-.586.668.668,0,0,1,.409-.2.728.728,0,0,1,.4.083l.5.219.5.3a6.8,6.8,0,0,1,.939.647c.291.23.6.44.872.7l.834.738c.279.247.523.527.787.789s.533.52.761.814l.692.878a19.839,19.839,0,0,1,1.235,1.864,8.437,8.437,0,0,1,.5,1l.474,1.018.087.187-.145.167a6.031,6.031,0,0,0-.9,1.374,3.794,3.794,0,0,0-.273.768,2.2,2.2,0,0,0-.068.4,2.241,2.241,0,0,0-.009.4,2.682,2.682,0,0,0,.183.77l.209.348a2.1,2.1,0,0,0,.272.31,3.646,3.646,0,0,0,.663.525c.247.143.509.267.767.4-.273-.094-.559-.17-.832-.283a3.818,3.818,0,0,1-.762-.465,2.384,2.384,0,0,1-.339-.3l-.287-.368-.2-.428a3.09,3.09,0,0,1-.109-.462,2.676,2.676,0,0,1-.026-.471,2.7,2.7,0,0,1,.044-.466,4.286,4.286,0,0,1,.243-.891,6.6,6.6,0,0,1,.888-1.6l-.058.354-.476-.956a7.782,7.782,0,0,0-.5-.94,18.845,18.845,0,0,0-1.227-1.755c-.225-.278-.458-.549-.676-.833s-.478-.533-.715-.8-.477-.537-.74-.781l-.788-.733c-.255-.255-.548-.461-.823-.69s-.559-.444-.836-.635l-.42-.3-.485-.257c-.154-.08-.1-.065-.19-.025a1,1,0,0,0-.217.365,9.849,9.849,0,0,0-.41,2.084c-.081.722-.121,1.451-.162,2.182" transform="translate(-194.26 -299.563)" fill="#874237"/>
            <path id="Trazado_729990" data-name="Trazado 729990" d="M248.758,394.726a.859.859,0,0,1,.056-.255,2.2,2.2,0,0,1,.336-.629,2.413,2.413,0,0,1,.806-.628,2.379,2.379,0,0,1,.541-.223l.591-.09a1.607,1.607,0,0,1,.585.007c.19.02.375.064.553.095a1.76,1.76,0,0,1,.5.137c.15.065.287.136.413.2a4.983,4.983,0,0,1,.795.5A6.033,6.033,0,0,1,253,393.8c-.132-.014-.275-.03-.421-.059a2.9,2.9,0,0,0-.462-.017c-.158-.006-.321,0-.484-.018a1.207,1.207,0,0,0-.483.019l-.478.044a3.205,3.205,0,0,0-.44.115,1.568,1.568,0,0,0-.409.141c-.12.066-.248.115-.364.17a6.2,6.2,0,0,0-.51.362,1.491,1.491,0,0,0-.2.171" transform="translate(-200.352 -316.426)" fill="#874237"/>
            <path id="Trazado_729991" data-name="Trazado 729991" d="M500.806,482.271s0,6.925-1.415,7.667.075-4.017,1.415-7.667" transform="translate(-401.753 -388.425)" fill="#521b14"/>
            <path id="Trazado_729992" data-name="Trazado 729992" d="M446.267,525.842a51.851,51.851,0,0,1-19.545-3.645.482.482,0,0,0-.635.205c-.273.4-.257,5.945,9.983,8.538,0,0,7.187,1.115,10.553-4.591,0,0-.006-.646-.356-.507" transform="translate(-343.118 -420.542)" fill="#6f0b17"/>
            <path id="Trazado_729993" data-name="Trazado 729993" d="M427.755,533.6c.73,1.864,2.9,4.582,8.815,6.28-.5-2.169-2.344-6.887-8.815-6.28" transform="translate(-344.518 -429.724)" fill="#e24464"/>
            <path id="Trazado_729994" data-name="Trazado 729994" d="M528.353,361.314s1.752-5.626,5.655-8.786c5.574-4.52,15.687-2.763,15.156,5.709,0,0-.386,7.81-7.453,8.834-5.717.827-11.236-1.709-13.357-5.758" transform="translate(-425.541 -281.979)" fill="#fff"/>
            <path id="Trazado_729995" data-name="Trazado 729995" d="M528.353,358.367a12.363,12.363,0,0,1,.334-1.311,19.959,19.959,0,0,1,1.339-3.326,18,18,0,0,1,1.252-2.074l.8-1.069c.283-.36.647-.669.979-1.014l.518-.511.6-.448c.193-.14.369-.286.578-.422l.691-.381a11.616,11.616,0,0,1,2.91-1.09,13.95,13.95,0,0,1,1.536-.235c.515-.042,1.033-.027,1.543-.036a10.565,10.565,0,0,1,2.945.6,6.852,6.852,0,0,1,1.312.608,5.871,5.871,0,0,1,1.137.8l.506.434c.151.159.284.331.418.5l.388.487c.112.17.2.354.292.523a7.421,7.421,0,0,1,.738,1.962,13.163,13.163,0,0,1,.122,1.581c-.073.873-.129,1.353-.129,1.353L549,353.962c-.061-.415-.247-.9-.377-1.451a8.253,8.253,0,0,0-.912-1.656c-.1-.138-.192-.288-.306-.422l-.39-.377c-.134-.124-.254-.265-.395-.388l-.47-.33a4.825,4.825,0,0,0-1.029-.59,7.1,7.1,0,0,0-1.157-.449,9.085,9.085,0,0,0-1.259-.285c-.431-.066-.88-.07-1.322-.122-.448.02-.9.013-1.353.057a13.334,13.334,0,0,0-1.346.23,10.232,10.232,0,0,0-2.539.894l-.576.291c-.2.111-.394.258-.59.384l-.548.363-.488.437c-.319.295-.656.56-.949.863l-.833.924a10.3,10.3,0,0,0-.734.932c-.227.311-.475.594-.663.9-.381.608-.77,1.149-1.051,1.667-.3.507-.555.957-.749,1.336-.4.75-.608,1.2-.608,1.2" transform="translate(-425.541 -279.033)" fill="#0e1115"/>
            <path id="Trazado_729996" data-name="Trazado 729996" d="M569.971,368.981c1.157-5.193,4.77-8.8,8.067-8.07,2.482.557,4.076,3.419,4.22,7.012-.391,2.17-1.869,6.987-7.316,7.774a15.077,15.077,0,0,1-4.834-.091,13.069,13.069,0,0,1-.137-6.625" transform="translate(-458.772 -290.604)" fill="#1d4b78"/>
            <path id="Trazado_729997" data-name="Trazado 729997" d="M572.982,368.71c-.311.73.537,1.788,1.9,2.362s2.707.457,3.017-.271-.538-1.791-1.895-2.365-2.707-.453-3.017.274" transform="translate(-461.433 -296.449)" fill="#fff"/>
            <path id="Trazado_729998" data-name="Trazado 729998" d="M329.332,352.587s1.754-5.624,5.654-8.786c5.574-4.521,15.688-2.757,15.156,5.713,0,0-.386,7.81-7.453,8.834-5.717.823-11.236-1.711-13.357-5.761" transform="translate(-265.247 -274.951)" fill="#fff"/>
            <path id="Trazado_729999" data-name="Trazado 729999" d="M329.332,349.642a12.448,12.448,0,0,1,.335-1.311,19.96,19.96,0,0,1,1.339-3.326,18.093,18.093,0,0,1,1.252-2.074l.8-1.069c.284-.36.646-.669.979-1.014l.518-.512.6-.448c.192-.139.368-.286.578-.422l.691-.381a11.594,11.594,0,0,1,2.911-1.09,14.133,14.133,0,0,1,1.536-.235c.515-.041,1.033-.026,1.543-.035a10.528,10.528,0,0,1,2.945.6,6.835,6.835,0,0,1,1.312.608,5.879,5.879,0,0,1,1.137.8q.256.22.506.434c.15.159.284.332.418.5l.387.488c.113.169.2.354.292.523a7.428,7.428,0,0,1,.739,1.962,13.173,13.173,0,0,1,.122,1.581c-.072.873-.129,1.353-.129,1.353l-.167-1.329c-.061-.415-.246-.9-.377-1.452a8.27,8.27,0,0,0-.912-1.656c-.1-.137-.191-.288-.306-.422l-.39-.376c-.134-.124-.254-.265-.395-.389l-.469-.331a4.84,4.84,0,0,0-1.029-.591,7.1,7.1,0,0,0-1.157-.45,9.089,9.089,0,0,0-1.259-.286c-.431-.066-.88-.069-1.323-.122-.448.02-.9.012-1.353.056a13.4,13.4,0,0,0-1.346.229,10.218,10.218,0,0,0-2.539.894l-.575.292c-.2.11-.394.257-.59.383l-.548.363-.488.437c-.319.295-.655.56-.949.863l-.833.924a10.383,10.383,0,0,0-.734.933c-.227.31-.475.594-.664.9-.38.609-.77,1.149-1.05,1.667-.3.507-.555.958-.749,1.336-.4.75-.609,1.2-.609,1.2" transform="translate(-265.247 -272.006)" fill="#0e1115"/>
            <path id="Trazado_730000" data-name="Trazado 730000" d="M370.953,360.267c1.159-5.189,4.77-8.8,8.067-8.063,2.482.551,4.079,3.411,4.222,7.012-.392,2.164-1.868,6.982-7.317,7.772a15.227,15.227,0,0,1-4.834-.091,13.135,13.135,0,0,1-.137-6.63" transform="translate(-298.483 -283.591)" fill="#1d4b78"/>
            <path id="Trazado_730001" data-name="Trazado 730001" d="M373.966,359.98c-.312.73.537,1.788,1.9,2.362s2.707.457,3.015-.269-.537-1.789-1.895-2.364-2.707-.457-3.016.271" transform="translate(-301.144 -289.417)" fill="#fff"/>
            <path id="Trazado_730002" data-name="Trazado 730002" d="M355.573,442.652a5.434,5.434,0,0,1,.37-.531c.124-.146.255-.329.421-.5l.516-.54.557-.5c.176-.16.365-.284.515-.4a5.193,5.193,0,0,1,.544-.351,5.319,5.319,0,0,1-.369.532c-.125.146-.255.33-.421.5l-.516.54-.557.5c-.177.159-.365.284-.515.4a5.366,5.366,0,0,1-.544.351" transform="translate(-286.382 -354.24)" fill="#79332d"/>
            <path id="Trazado_730003" data-name="Trazado 730003" d="M361.864,442.871s-.119.359-.345.873c-.12.252-.244.556-.406.864l-.508.968-.559.939c-.177.3-.373.564-.525.8-.32.461-.564.75-.564.75s.119-.359.345-.873c.12-.253.243-.557.407-.865l.508-.967.56-.939c.178-.3.373-.564.525-.8.32-.461.564-.75.564-.75" transform="translate(-289.107 -356.692)" fill="#79332d"/>
            <path id="Trazado_730004" data-name="Trazado 730004" d="M375.645,447.088a3.942,3.942,0,0,1-.164.528c-.066.149-.126.333-.22.511l-.294.562-.346.531c-.108.171-.24.312-.337.442a3.907,3.907,0,0,1-.381.4,3.883,3.883,0,0,1,.164-.528c.066-.149.125-.333.22-.511l.295-.561.346-.532c.11-.17.241-.312.338-.442a3.9,3.9,0,0,1,.38-.4" transform="translate(-301.143 -360.088)" fill="#79332d"/>
            <path id="Trazado_730005" data-name="Trazado 730005" d="M600.323,451.838a5.45,5.45,0,0,1-.544-.351c-.15-.12-.338-.244-.516-.4l-.558-.5-.517-.539c-.166-.171-.3-.356-.421-.5a5.288,5.288,0,0,1-.37-.531,5.267,5.267,0,0,1,.544.35c.15.12.34.244.516.4l.558.5.516.54c.165.171.3.355.421.5a5.387,5.387,0,0,1,.37.531" transform="translate(-481.15 -361.64)" fill="#79332d"/>
            <path id="Trazado_730006" data-name="Trazado 730006" d="M594.1,452.058s.244.29.564.75c.152.234.347.5.525.8l.56.939.508.968c.164.308.286.612.407.865.226.513.345.872.345.872s-.245-.289-.564-.75c-.152-.234-.348-.5-.525-.8l-.56-.939-.508-.967c-.163-.308-.286-.613-.406-.865-.226-.513-.345-.872-.345-.872" transform="translate(-478.493 -364.091)" fill="#79332d"/>
            <path id="Trazado_730007" data-name="Trazado 730007" d="M585.14,456.277a3.981,3.981,0,0,1,.38.4c.1.13.228.272.338.442l.346.531.295.56c.1.178.155.362.22.511a3.841,3.841,0,0,1,.164.528,3.942,3.942,0,0,1-.381-.4c-.1-.13-.23-.272-.338-.442l-.346-.531-.294-.561c-.095-.178-.155-.362-.22-.51a3.951,3.951,0,0,1-.164-.528" transform="translate(-471.277 -367.489)" fill="#79332d"/>
            <path id="Trazado_730008" data-name="Trazado 730008" d="M325.544,282.866s11.018-8.5,18.017-6.695c0,0,3.214,4.316,3.394,5.952,0,0-8.161-1.788-21.411.742" transform="translate(-262.196 -222.227)" fill="#2a1816"/>
            <path id="Trazado_730009" data-name="Trazado 730009" d="M534.606,289.753s11.018-8.5,18.018-6.7c0,0,3.213,4.315,3.392,5.954,0,0-8.158-1.789-21.41.746" transform="translate(-430.577 -227.771)" fill="#2a1816"/>
            <path id="Trazado_730010" data-name="Trazado 730010" d="M335.151,503.852a11.732,11.732,0,0,0,5.731.33c-26.3-8.777-37.409-41.8-37.409-41.8h0c1.753,9.676,3.987,19.031,6.458,22.336,6.837,11.6,25.222,19.133,25.222,19.133" transform="translate(-244.418 -372.408)" fill="#df7549"/>
            <path id="Trazado_730011" data-name="Trazado 730011" d="M241.183,75.3s4.027-11.489,5.516-19.229S249.928,39,253.65,37.659s23.462,7.157,29.862,8.429C301.622,49.7,309.9,40.175,309.9,40.175s6.537,10.532,5.472,15.895-.681,14.462,1.212,16.387l3.524-3.2s7.26-22.24,5.3-28.49c0,0-2.514-10.909-6.438-14.781,0,0,5.173-10.238-5.526-14.3A108.787,108.787,0,0,0,281.522.268C263.529-3.009,241.634,24.7,241.634,24.7s-8.77,4.153-12.062,11.894c-2.281,5.36,3.292,32.662,3.292,32.662s7.2,3.069,8.318,6.038" transform="translate(-184.459 0.002)" fill="#2a1816"/>
            <path id="Trazado_730012" data-name="Trazado 730012" d="M427.318,522.209a.471.471,0,0,0-.562.121c4.07,5.242,16.421,5.408,17.3,5.329.494-.037.853-.974,1.074-1.795a54.689,54.689,0,0,1-17.816-3.656" transform="translate(-343.713 -420.555)" fill="#fff"/>
            <path id="Trazado_730013" data-name="Trazado 730013" d="M378.485,15.22a11.073,11.073,0,0,0-5.069-3.527A108.789,108.789,0,0,0,341.5.266c-14.849-2.705-32.342,15.687-38.007,22.2,15.586-11.89,21.71-14.906,26.625-17.136s34.619,18.091,45.23,14.415c3.067-1.062,3.732-2.716,3.14-4.527" transform="translate(-244.434 0.003)" fill="#3d2322"/>
            <g id="Grupo_965385" data-name="Grupo 965385" transform="translate(44.566 30.649)" opacity="0.6">
              <g id="Grupo_965384" data-name="Grupo 965384">
                <g id="Grupo_965383" data-name="Grupo 965383" clip-path="url(#clip-path-5)">
                  <path id="Trazado_730014" data-name="Trazado 730014" d="M316.819,186.038c2.9-22.314-4.914-34.64-21.518-25.485s-31.193-2.682-40.19-2.682-6.082,14.488-15.684,26.149c-7.372,8.952-7.292-14.142-6.858-25.358a19.253,19.253,0,0,0-3,4.794c-2.281,5.36,3.292,32.662,3.292,32.662s7.2,3.069,8.318,6.038c0,0,4.027-11.489,5.516-19.229s3.229-17.069,6.951-18.41,23.462,7.157,29.862,8.429c18.111,3.615,26.386-5.913,26.386-5.913s6.537,10.532,5.472,15.895-.681,14.462,1.212,16.387l3.524-3.2s1.923-5.9,3.524-12.473c-5.4,10-6.811,2.393-6.811,2.393" transform="translate(-229.025 -157.503)" fill="#170e0d"/>
                </g>
              </g>
            </g>
          </g>
        </g>
      </g>
    </g>
  </g>
</svg>
