<svg xmlns="http://www.w3.org/2000/svg" xmlns:xlink="http://www.w3.org/1999/xlink" width="503.561" height="506.539" viewBox="0 0 503.561 506.539">
  <defs>
    <clipPath id="clip-path">
      <rect id="Rectángulo_341412" data-name="Rectángulo 341412" width="503.561" height="506.538" fill="none"/>
    </clipPath>
    <clipPath id="clip-path-3">
      <path id="Trazado_733477" data-name="Trazado 733477" d="M2.544,254.737A177.37,177.37,0,1,0,179.913,77.368,177.37,177.37,0,0,0,2.544,254.737" transform="translate(-2.544 -77.368)" fill="none"/>
    </clipPath>
    <radialGradient id="radial-gradient" cx="0.5" cy="0.5" r="0.613" gradientTransform="matrix(1, 0, 0, -1, 0, 2.031)" gradientUnits="objectBoundingBox">
      <stop offset="0" stop-color="#fff"/>
      <stop offset="0.345" stop-color="#fdfefe"/>
      <stop offset="0.47" stop-color="#f6fcfe"/>
      <stop offset="0.559" stop-color="#eaf8fe"/>
      <stop offset="0.631" stop-color="#d9f2fe"/>
      <stop offset="0.692" stop-color="#c3ebfd"/>
      <stop offset="0.747" stop-color="#a8e2fd"/>
      <stop offset="0.795" stop-color="#88d7fc"/>
      <stop offset="0.813" stop-color="#7bd3fc"/>
      <stop offset="1" stop-color="#4271d6"/>
    </radialGradient>
    <clipPath id="clip-path-5">
      <rect id="Rectángulo_341383" data-name="Rectángulo 341383" width="259.531" height="259.536" fill="none"/>
    </clipPath>
    <clipPath id="clip-path-6">
      <rect id="Rectángulo_341384" data-name="Rectángulo 341384" width="200.294" height="170.217" fill="none"/>
    </clipPath>
    <clipPath id="clip-path-7">
      <rect id="Rectángulo_341385" data-name="Rectángulo 341385" width="56.502" height="45.348" fill="none"/>
    </clipPath>
    <clipPath id="clip-path-8">
      <rect id="Rectángulo_341386" data-name="Rectángulo 341386" width="58.714" height="40.36" fill="none"/>
    </clipPath>
    <clipPath id="clip-path-9">
      <rect id="Rectángulo_341387" data-name="Rectángulo 341387" width="28.849" height="23.153" fill="none"/>
    </clipPath>
    <clipPath id="clip-path-10">
      <rect id="Rectángulo_341388" data-name="Rectángulo 341388" width="28.848" height="23.152" fill="none"/>
    </clipPath>
    <clipPath id="clip-path-11">
      <rect id="Rectángulo_341389" data-name="Rectángulo 341389" width="34.862" height="19.5" fill="none"/>
    </clipPath>
    <clipPath id="clip-path-12">
      <rect id="Rectángulo_341390" data-name="Rectángulo 341390" width="24.462" height="26.812" fill="none"/>
    </clipPath>
    <clipPath id="clip-path-13">
      <rect id="Rectángulo_341391" data-name="Rectángulo 341391" width="12" height="10.69" fill="none"/>
    </clipPath>
    <clipPath id="clip-path-14">
      <rect id="Rectángulo_341392" data-name="Rectángulo 341392" width="15.013" height="17.982" fill="none"/>
    </clipPath>
    <clipPath id="clip-path-15">
      <rect id="Rectángulo_341393" data-name="Rectángulo 341393" width="8.211" height="15.379" fill="none"/>
    </clipPath>
    <clipPath id="clip-path-16">
      <rect id="Rectángulo_341394" data-name="Rectángulo 341394" width="15.266" height="9.342" fill="none"/>
    </clipPath>
    <clipPath id="clip-path-17">
      <rect id="Rectángulo_341395" data-name="Rectángulo 341395" width="31.702" height="13.695" fill="none"/>
    </clipPath>
    <clipPath id="clip-path-18">
      <rect id="Rectángulo_341396" data-name="Rectángulo 341396" width="9.926" height="10.994" fill="none"/>
    </clipPath>
    <clipPath id="clip-path-19">
      <rect id="Rectángulo_341397" data-name="Rectángulo 341397" width="23.649" height="13.396" fill="none"/>
    </clipPath>
    <clipPath id="clip-path-20">
      <rect id="Rectángulo_341398" data-name="Rectángulo 341398" width="14.514" height="17.748" fill="none"/>
    </clipPath>
    <clipPath id="clip-path-21">
      <rect id="Rectángulo_341399" data-name="Rectángulo 341399" width="10.633" height="6.172" fill="none"/>
    </clipPath>
    <clipPath id="clip-path-22">
      <rect id="Rectángulo_341400" data-name="Rectángulo 341400" width="16.064" height="33.906" fill="none"/>
    </clipPath>
    <clipPath id="clip-path-23">
      <rect id="Rectángulo_341401" data-name="Rectángulo 341401" width="9.945" height="29.568" fill="none"/>
    </clipPath>
    <clipPath id="clip-path-24">
      <rect id="Rectángulo_341402" data-name="Rectángulo 341402" width="10.113" height="14.686" fill="none"/>
    </clipPath>
    <clipPath id="clip-path-25">
      <rect id="Rectángulo_341403" data-name="Rectángulo 341403" width="13.085" height="14.805" fill="none"/>
    </clipPath>
    <clipPath id="clip-path-26">
      <rect id="Rectángulo_341404" data-name="Rectángulo 341404" width="109.118" height="109.116" fill="none"/>
    </clipPath>
    <clipPath id="clip-path-27">
      <rect id="Rectángulo_341405" data-name="Rectángulo 341405" width="106.332" height="106.328" fill="none"/>
    </clipPath>
    <clipPath id="clip-path-28">
      <rect id="Rectángulo_341406" data-name="Rectángulo 341406" width="106.332" height="93.798" fill="none"/>
    </clipPath>
    <clipPath id="clip-path-29">
      <rect id="Rectángulo_341407" data-name="Rectángulo 341407" width="26.301" height="31.713" fill="none"/>
    </clipPath>
    <clipPath id="clip-path-30">
      <rect id="Rectángulo_341408" data-name="Rectángulo 341408" width="7.947" height="9.858" fill="none"/>
    </clipPath>
  </defs>
  <g id="Grupo_970017" data-name="Grupo 970017" transform="translate(-915 -4948.432)">
    <g id="Grupo_970016" data-name="Grupo 970016" transform="translate(915 4948.432)">
      <g id="Grupo_970015" data-name="Grupo 970015" clip-path="url(#clip-path)">
        <g id="Grupo_969932" data-name="Grupo 969932">
          <g id="Grupo_969931" data-name="Grupo 969931" clip-path="url(#clip-path)">
            <path id="Trazado_733476" data-name="Trazado 733476" d="M364.357,257.4A182.179,182.179,0,1,1,182.18,75.218,182.178,182.178,0,0,1,364.357,257.4" transform="translate(0 66.965)" fill="#26c9cb"/>
          </g>
        </g>
        <g id="Grupo_969934" data-name="Grupo 969934" transform="translate(4.809 146.247)">
          <g id="Grupo_969933" data-name="Grupo 969933" clip-path="url(#clip-path-3)">
            <rect id="Rectángulo_341382" data-name="Rectángulo 341382" width="354.739" height="354.738" transform="translate(0)" fill="url(#radial-gradient)"/>
          </g>
        </g>
        <g id="Grupo_970014" data-name="Grupo 970014">
          <g id="Grupo_970013" data-name="Grupo 970013" clip-path="url(#clip-path)">
            <g id="Grupo_969937" data-name="Grupo 969937" transform="translate(52.412 193.848)" opacity="0.42" style="mix-blend-mode: multiply;isolation: isolate">
              <g id="Grupo_969936" data-name="Grupo 969936">
                <g id="Grupo_969935" data-name="Grupo 969935" clip-path="url(#clip-path-5)">
                  <path id="Trazado_733478" data-name="Trazado 733478" d="M287.259,232.318A129.766,129.766,0,1,1,157.493,102.55,129.769,129.769,0,0,1,287.259,232.318" transform="translate(-27.728 -102.55)" fill="#7a97b6"/>
                </g>
              </g>
            </g>
            <path id="Trazado_733479" data-name="Trazado 733479" d="M277.9,229.322A123.4,123.4,0,1,1,154.5,105.915,123.408,123.408,0,0,1,277.9,229.322" transform="translate(27.681 94.294)" fill="#00a1dd"/>
            <path id="Trazado_733480" data-name="Trazado 733480" d="M266.631,214.507c0,58.78-51.934,106.436-116,106.436s-116-47.656-116-106.436,51.934-106.436,116-106.436,116,47.652,116,106.436" transform="translate(30.84 96.213)" fill="#60c3ef"/>
            <g id="Grupo_969940" data-name="Grupo 969940" transform="translate(82.005 208.228)" opacity="0.63" style="mix-blend-mode: screen;isolation: isolate">
              <g id="Grupo_969939" data-name="Grupo 969939">
                <g id="Grupo_969938" data-name="Grupo 969938" clip-path="url(#clip-path-6)">
                  <path id="Trazado_733481" data-name="Trazado 733481" d="M243.676,195.265c0,47-44.837,85.108-100.147,85.108S43.382,242.267,43.382,195.265s44.837-85.108,100.147-85.108,100.147,38.1,100.147,85.108" transform="translate(-43.382 -110.157)" fill="#60c3ef"/>
                </g>
              </g>
            </g>
            <path id="Trazado_733482" data-name="Trazado 733482" d="M156.405,290.312c-1.219-2.7-3-5.13-4.166-7.856-1.463-3.412-.174-6.47,1.21-9.657a48.763,48.763,0,0,0,2.474-7.578c.6-2.378,1.248-5.092.662-7.537-.611-2.542-2.892-3.164-5.247-3.181a79.871,79.871,0,0,0-8.425.8,23.889,23.889,0,0,1-6.145.068,13.5,13.5,0,0,1-4.682-1.8c-2.815-1.654-5.3-3.828-8.272-5.225a14.764,14.764,0,0,0-4.321-1.278,3.807,3.807,0,0,0-2.873.82,22.765,22.765,0,0,1-9.427,3.58c-6.582.943-13.557-.2-19.572,3.232q-.187-.462-.37-.924a48.54,48.54,0,0,0-2.206-5.822c-.03-.064-.066-.125-.1-.187-.51-1.389-1.028-2.773-1.516-4.17,1.369-1.928,3.637-3.2,4.892-5.242,2.435-3.954,4.949-7.871,7.23-11.916.883-1.563,1.556-2.527.749-4.336-.985-2.206-3-3.833-4.423-5.743-1.376-1.839-2.134-4.015-1.1-6.208,1.074-2.283,3.728-3.181,5.752-4.389.871-.522,1.909-1.2,2.06-2.3.159-1.129-.681-2.043-1.378-2.82-1.539-1.718-3.626-3.259-4.9-5.242a21.41,21.41,0,0,1,4.23-2.99,85.42,85.42,0,0,1,8.3-4.263c2.907-1.353,5.646-3.032,8.431-4.614,1.391-.58,2.777-1.176,4.14-1.822,1.161-.55,2.3-1.146,3.418-1.771.212-.062.416-.151.628-.2,2.055-.512,4.457-.851,6.16-2.21,2.094-1.671,1.138-4.38,1.391-6.669.338-3.045,1.909-5.8,2.319-8.835.346-2.565-.718-4.272-2.762-5.739-1.99-1.431-4.435-2.459-5.83-4.563a.794.794,0,0,0-.845-.255c-3.246.966-4.125,4.213-6.172,6.508a3.272,3.272,0,0,1-1.686,1.07c-.312-.465-.633-.919-.924-1.4a6.8,6.8,0,0,1-1.367-4.573c.556-4.274,4.52-7.306,6.809-10.68a9.586,9.586,0,0,0,1.8-5.079,4.031,4.031,0,0,0-.934-3.255c-1.637-1.491-4.7-.97-6.682-.773-2.777.276-5.637.794-8.419.312A10.792,10.792,0,0,1,99.9,131.71c-.612-.45-1.442-1.667-2.149-1.474a8.275,8.275,0,0,0-2.486,1.656,8.4,8.4,0,0,0-1.208,1.21,30.689,30.689,0,0,0-2.567,3.941c-1.646,2.807-3.232,6.009-5.777,8.123a5.757,5.757,0,0,1-3.61,1.5,4.153,4.153,0,0,1-3.713-2.452,6.989,6.989,0,0,0-4.446-3.639c-2.179-.582-4.506-.461-6.724-.879a.855.855,0,0,1-.609-.609,24.39,24.39,0,0,0-1.191-4.24c-.433-1.168-.989-2.937-1.983-3.771-1.066-.894-2.586-.669-3.83-.161a122.856,122.856,0,0,0-28.487,76.522c2.363.166,4.726.336,7.072.667,2.138.3,4.567.677,6.37,1.958,2.232,1.588,2.034,4.618,2.147,7.073a10.241,10.241,0,0,0,.524,3.554q.53,1.242,1.072,2.474c1.028,2.336,2.093,4.658,3.24,6.937a35.452,35.452,0,0,0,3.677,6.261,3.334,3.334,0,0,0,1.282,1.117,5.138,5.138,0,0,0,3.153-.575,24.113,24.113,0,0,0,3.306-1.862c2.818-.446,5.646-.83,8.506-1.051l.021,0c.223.047.446.091.669.136.342.353.688.7,1.034,1.051a26.245,26.245,0,0,0,1.939,3.259,30,30,0,0,0,0,5.5c.654,6.015,4.516,9.191,7.693,13.888.435.643.837,1.306,1.24,1.97,1.694,2.781,3.926,5.416,4.334,8.743a18.378,18.378,0,0,1-1.66,9.642c-.741,1.665-1.312,3.325-.66,5.125a11.077,11.077,0,0,0,2.677,3.788c2.123,2.159,4.627,3.939,6.663,6.187,3.23-1.4,6.537-.359,9,2.18a17.439,17.439,0,0,1,4.506,8.935c.263,1.51.149,3.07.5,4.565a4.537,4.537,0,0,0,1.643,2.463c1.4,1.214,2.953,2.255,4.416,3.389,1.637,1.27,3.185,2.645,4.694,4.062.654.459,1.306.922,2.007,1.333a5.172,5.172,0,0,0,5.7-.066c.4-.263.873-.921,1.333-1.144-.013.066.225.129.348.206a7.48,7.48,0,0,1,1.524,1.459c1.8,2.087,3.13,4.387,5.608,5.784,2.582,1.452,5.5,2.155,8.251,3.206a1.415,1.415,0,0,0,1.482-.667,8.633,8.633,0,0,0,.586-7.78c-.9-2.446-2.438-4.7-2.894-7.3-.928-5.289,4.728-8.234,8.225-10.909a14.178,14.178,0,0,0,4.6-5.189c1.129-2.5.526-5.079-.56-7.489" transform="translate(27.71 115.928)" fill="#298033"/>
            <path id="Trazado_733483" data-name="Trazado 733483" d="M151.121,119.007a9.82,9.82,0,0,0-1.055-.924,6.958,6.958,0,0,0-.72-.452c-5.319-.1-10.633-.391-15.929-.913a72.565,72.565,0,0,1-8.285-1.312c-.771-.166-1.552-.335-2.336-.486a33.924,33.924,0,0,0-4.576,1.563,69.048,69.048,0,0,0-11.748,7.491.89.89,0,0,1-1.057.136c-1.747-1.187-3.312-2.62-5-3.885a18.174,18.174,0,0,0-3.053-2,7.716,7.716,0,0,0-1.558,1.115c-1.393,1.248-2.072,2.987-3.185,4.452-.611.807-.618.805-1.493.454-.726-.293-1.4-.692-2.128-.985a9.241,9.241,0,0,0-2.6-.635c-1.446,1.066-2.907,2.111-4.429,3.066.312,1.231.663,2.452,1.038,3.667a7.552,7.552,0,0,1,3.454,2.6,43.278,43.278,0,0,1,3.677,3.476c.244.255.478.522.716.784,5.113-.866,10.323-1.181,15.351-2.527.707-.189,1.159.437,1.072,1.072-.507,3.741-1.251,7.436-2.034,11.124,1.117,1.064,2.225,2.14,3.331,3.215l.3-.034a11.445,11.445,0,0,1,4.289-.025,20.475,20.475,0,0,1,2.522,1.117c1.448-.193,2.892-.423,4.331-.677a5.726,5.726,0,0,0,1.331-1.355,7.165,7.165,0,0,1,1.41-1.945c.13-.1.289-.166.429-.257a19.939,19.939,0,0,0,3.4-1.017,8.393,8.393,0,0,0,2.885-1.875c1.019-.44,2.034-.892,3.028-1.4,2.24-1.153,5-2.629,7.342-.934a.88.88,0,0,0,.767.115c.4-.508.813-1.006,1.231-1.5,1.115-3.588.841-7.763,2.82-11.015,1.036-1.7,3.036-2.524,4.62-3.612.975-.669,2.745-1.565,3.079-2.864-.423-.938-.843-1.877-1.232-2.824" transform="translate(72.972 102.311)" fill="#298033"/>
            <path id="Trazado_733484" data-name="Trazado 733484" d="M181.984,132.473a8.516,8.516,0,0,1-3.868,3.134c-2.03.69-4.631-.648-6.465-1.406-2.255-.93-4.469-1.951-6.729-2.864-3.48-1.4-6.729-3.3-10.121-4.9-2.127,5.559-1.646,12.78-7.433,16.066-2.6,1.474-5.72,1.989-8.612,2.59a50.058,50.058,0,0,0-7.915,2.026,9.131,9.131,0,0,0-5.255,4.408c-1.34,2.858-.907,6.457-.938,9.525a30.027,30.027,0,0,1-1.236,9.2c-.187.573-.422,1.127-.648,1.682-.612.493-1.208,1.009-1.788,1.529-1.416,1.266-2.765,2.618-4.053,4.013A27.063,27.063,0,0,0,115,179.687c-.4.043-.941.367-.775.805.032.081.085.153.117.233a.61.61,0,0,0,.047.618c.217.248.425.5.639.756a16.549,16.549,0,0,0,1.206,1.726,9.633,9.633,0,0,0,1.694,2.108c.189.185.393.367.59.548l.178.2c1.541,1.769,2.818,3.886,4.877,5.113.6.355,1.291-.142,1.537-.688.44-.981.913-1.945,1.4-2.9a15.618,15.618,0,0,0,1.077-1.8c.389-.75.726-1.525,1.064-2.3.493-.932.983-1.864,1.459-2.805.682-1.352,1.242-2.748,1.83-4.143.064-.155.147-.3.217-.45l.618-.078c1.232.028,2.463.017,3.7-.038,2.123-.093,4.229-.469,6.346-.558.758-.032,1.516-.036,2.274-.055-1.433,1.939-2.985,3.788-4.336,5.786a.765.765,0,0,0,.106,1.055c2.44,1.618,4.867,3.261,7.419,4.7,2.032,1.147,4.418,2.624,6.743,3.055a4.078,4.078,0,0,0,3.461-.953c.3.832.571,1.677.817,2.531.127.442.25.9.372,1.355-1.361,1.077-2.661,2.231-3.909,3.208-.947.743-1.879,1.5-2.815,2.248-.025-.083-.059-.161-.083-.244a21.262,21.262,0,0,1-1.087-5.181.7.7,0,0,0-.718-.716c-2.42-.106-4.888-.433-7.327-.408-.832-.955-1.68-1.9-2.508-2.856-.8-.924-1.612-2.21-2.885-2.5-1.157-.268-2.144.662-2.9,1.4-.964.953-1.9,1.922-2.877,2.866-.679.654-1.325,1.329-1.958,2.013-1.289.085-2.582.07-3.869.147a46.543,46.543,0,0,0-5.189.726q-1.525.264-3.06.471a29.6,29.6,0,0,0-3.091.378c-.431.1-.516.614-.195.688l-.053.03c.1.036.214.057.319.085a3.38,3.38,0,0,0-1.094.754,16.592,16.592,0,0,0-2.087,3.54c-.8,1.527-1.561,3.081-2.317,4.635a100.92,100.92,0,0,1-4.811,9.085.759.759,0,0,0,.106,1.038c1.805,1.3,3.569,2.667,5.244,4.138.112.1.214.206.325.3-.013.238-.042.525-.059.694a9.743,9.743,0,0,1-.5,2.146c-.435,1.3-1.113,2.877-.817,4.28.314,1.486,1.873,1.958,3.2,2.072,1.578.134,3.123-.093,4.707.115a26.765,26.765,0,0,1,6.854,1.735,7.8,7.8,0,0,0,3.036.932,4.643,4.643,0,0,0,2.537-.868,15.757,15.757,0,0,0,1.389-1.106c1.454,2.081,3.032,4.083,4.544,6.092q1.316,1.747,2.593,3.535c.4,1.709.818,3.406,1.231,5.108a19.367,19.367,0,0,0-.811,2.728c-.115.476-.234.958-.355,1.439a19.15,19.15,0,0,0-.628,2.346,31.153,31.153,0,0,1-1.18,3.412.7.7,0,0,0,.223.828c.023.017.047.028.07.045.047.265.263.369.539.355a66.484,66.484,0,0,0,7.425,4.217,16.514,16.514,0,0,1,2.03,1.486.834.834,0,0,0,.8.1c.089.055.181.1.27.155.737.454,1.577-.193,1.888-.847a30.523,30.523,0,0,1,2.966-4.684c.507.121,1.017.214,1.486.308,1.123.221,2.242.5,3.359.783-.081.966-.11,1.932-.123,2.9-.569,3.909-.989,7.839-1.748,11.733a.614.614,0,0,0,.457.652c.146.04.282.108.425.153a13.741,13.741,0,0,0,3.1,3.868,71.206,71.206,0,0,0,6.909,6.045c.665.522,1.336,1.045,2.032,1.529-.008,1.6,3.176.083,3.767-.2,1.762-.841,3.4-1.964,5.193-2.739.469-.2,1.255-1.025.773-1.59-1.094-1.284-1.111-3.393-1.163-4.988-.057-1.792.079-3.593-.047-5.384-.055-.779-.159-1.575-.268-2.376a4.672,4.672,0,0,1,.922-1.979c2.043-2.455,5.576-3.109,7.673-5.557,1.338-1.561,1.4-3.27,1.452-5.229.008-.268.034-.541.057-.813a14.948,14.948,0,0,0,4.142.359c2.435-.215,4.109-2.125,5.143-4.179,2.427-4.824,2.637-10.487,5.306-15.224a11.3,11.3,0,0,1,5.832-5.1,33.78,33.78,0,0,1,3.754-1.076,124.59,124.59,0,0,0,.858-14.359,122.883,122.883,0,0,0-30.11-80.726" transform="translate(93.488 112.562)" fill="#298033"/>
            <path id="Trazado_733485" data-name="Trazado 733485" d="M156.405,289.179c-1.219-2.707-3-5.132-4.166-7.858-1.463-3.412-.174-6.47,1.21-9.657a48.764,48.764,0,0,0,2.474-7.578c.6-2.378,1.248-5.092.662-7.537-.611-2.542-2.892-3.164-5.247-3.179a79.36,79.36,0,0,0-8.425.8,23.8,23.8,0,0,1-6.145.066,13.421,13.421,0,0,1-4.682-1.8c-2.815-1.654-5.3-3.828-8.272-5.225a14.764,14.764,0,0,0-4.321-1.278,3.792,3.792,0,0,0-2.873.822,22.789,22.789,0,0,1-9.427,3.578c-6.582.943-13.557-.2-19.572,3.232q-.187-.462-.37-.924a48.662,48.662,0,0,0-2.206-5.822c-.03-.062-.066-.125-.1-.187-.51-1.389-1.028-2.773-1.516-4.17,1.369-1.926,3.637-3.2,4.892-5.242,2.435-3.954,4.949-7.869,7.23-11.916.883-1.563,1.556-2.527.749-4.336-.985-2.206-3-3.833-4.423-5.741-1.376-1.841-2.134-4.015-1.1-6.21,1.074-2.283,3.728-3.181,5.752-4.389.871-.522,1.909-1.2,2.06-2.3.159-1.128-.681-2.042-1.378-2.82-1.539-1.716-3.626-3.259-4.9-5.242a21.49,21.49,0,0,1,4.23-2.99,85.851,85.851,0,0,1,8.3-4.263c2.907-1.352,5.646-3.03,8.431-4.614,1.391-.58,2.777-1.174,4.14-1.822,1.161-.55,2.3-1.146,3.418-1.771.212-.062.416-.149.628-.2,2.055-.514,4.457-.853,6.16-2.212,2.094-1.673,1.138-4.378,1.391-6.667.338-3.045,1.909-5.8,2.319-8.835.346-2.567-.718-4.274-2.762-5.741-1.99-1.431-4.435-2.459-5.83-4.561a.794.794,0,0,0-.845-.255c-3.246.966-4.125,4.212-6.172,6.508a3.267,3.267,0,0,1-1.686,1.068c-.312-.463-.633-.919-.924-1.4a6.789,6.789,0,0,1-1.367-4.573c.556-4.274,4.52-7.306,6.809-10.68a9.586,9.586,0,0,0,1.8-5.079,4.031,4.031,0,0,0-.934-3.255c-1.637-1.491-4.7-.968-6.682-.771-2.777.276-5.637.792-8.419.31a10.792,10.792,0,0,1-4.406-1.888c-.612-.45-1.442-1.667-2.149-1.474a8.312,8.312,0,0,0-2.486,1.656,8.4,8.4,0,0,0-1.208,1.21,30.578,30.578,0,0,0-2.567,3.943c-1.646,2.8-3.232,6.007-5.777,8.123a5.756,5.756,0,0,1-3.61,1.493,4.154,4.154,0,0,1-3.713-2.452,6.98,6.98,0,0,0-4.446-3.637c-2.179-.584-4.506-.463-6.724-.883a.846.846,0,0,1-.609-.607,24.5,24.5,0,0,0-1.191-4.242c-.433-1.166-.989-2.936-1.983-3.769-1.066-.894-2.586-.669-3.83-.161A122.861,122.861,0,0,0,31.125,206.3c2.363.164,4.726.335,7.072.665,2.138.3,4.567.677,6.37,1.958,2.232,1.588,2.034,4.62,2.147,7.073a10.241,10.241,0,0,0,.524,3.554q.53,1.239,1.072,2.476c1.028,2.334,2.093,4.656,3.24,6.935a35.451,35.451,0,0,0,3.677,6.261,3.333,3.333,0,0,0,1.282,1.117,5.138,5.138,0,0,0,3.153-.575,23.718,23.718,0,0,0,3.306-1.862c2.818-.446,5.646-.828,8.506-1.051l.021,0c.223.047.446.091.669.136.342.353.688.7,1.034,1.053a26.525,26.525,0,0,0,1.939,3.259,29.977,29.977,0,0,0,0,5.5c.654,6.015,4.516,9.191,7.693,13.888.435.643.837,1.306,1.24,1.968,1.694,2.783,3.926,5.418,4.334,8.743a18.387,18.387,0,0,1-1.66,9.644c-.741,1.665-1.312,3.325-.66,5.125a11.059,11.059,0,0,0,2.677,3.788c2.123,2.161,4.627,3.939,6.663,6.187,3.23-1.4,6.537-.359,9,2.18a17.439,17.439,0,0,1,4.506,8.935c.263,1.508.149,3.07.5,4.565a4.548,4.548,0,0,0,1.643,2.465c1.4,1.212,2.953,2.253,4.416,3.389,1.637,1.268,3.185,2.643,4.694,4.06.654.459,1.306.922,2.007,1.335a5.176,5.176,0,0,0,5.7-.068c.4-.263.873-.919,1.333-1.142-.013.064.225.127.348.2a7.531,7.531,0,0,1,1.524,1.459c1.8,2.087,3.13,4.387,5.608,5.784,2.582,1.454,5.5,2.155,8.251,3.206a1.415,1.415,0,0,0,1.482-.667,8.629,8.629,0,0,0,.586-7.779c-.9-2.448-2.438-4.7-2.894-7.3-.928-5.289,4.728-8.234,8.225-10.909a14.178,14.178,0,0,0,4.6-5.189c1.129-2.5.526-5.079-.56-7.487" transform="translate(27.71 114.917)" fill="#92c83e"/>
            <path id="Trazado_733486" data-name="Trazado 733486" d="M151.121,117.872a10.07,10.07,0,0,0-1.055-.926,7.274,7.274,0,0,0-.72-.45c-5.319-.1-10.633-.391-15.929-.913a72.561,72.561,0,0,1-8.285-1.312c-.771-.166-1.552-.335-2.336-.486a33.919,33.919,0,0,0-4.576,1.563,69.048,69.048,0,0,0-11.748,7.491.89.89,0,0,1-1.057.136c-1.747-1.187-3.312-2.62-5-3.885a18.172,18.172,0,0,0-3.053-2A7.642,7.642,0,0,0,95.8,118.21c-1.393,1.248-2.072,2.987-3.185,4.452-.611.807-.618.805-1.493.454-.726-.293-1.4-.692-2.128-.985a9.178,9.178,0,0,0-2.6-.635c-1.446,1.066-2.907,2.111-4.429,3.064.312,1.232.663,2.454,1.038,3.669a7.552,7.552,0,0,1,3.454,2.6,43.276,43.276,0,0,1,3.677,3.476c.244.255.478.522.716.784,5.113-.868,10.323-1.181,15.351-2.527.707-.189,1.159.437,1.072,1.072-.507,3.741-1.251,7.436-2.034,11.124q1.676,1.6,3.331,3.215l.3-.034a11.445,11.445,0,0,1,4.289-.025,20.47,20.47,0,0,1,2.522,1.117c1.448-.193,2.892-.423,4.331-.677A5.726,5.726,0,0,0,121.338,147a7.137,7.137,0,0,1,1.41-1.945c.13-.1.289-.166.429-.257a19.774,19.774,0,0,0,3.4-1.019,8.361,8.361,0,0,0,2.885-1.873c1.019-.44,2.034-.892,3.028-1.4,2.24-1.153,5-2.629,7.342-.934a.88.88,0,0,0,.767.115c.4-.508.813-1.006,1.231-1.5,1.115-3.588.841-7.763,2.82-11.015,1.036-1.7,3.036-2.524,4.62-3.612.975-.669,2.745-1.565,3.079-2.864-.423-.938-.843-1.877-1.232-2.824" transform="translate(72.972 101.301)" fill="#92c83e"/>
            <path id="Trazado_733487" data-name="Trazado 733487" d="M181.984,131.338a8.515,8.515,0,0,1-3.868,3.134c-2.03.69-4.631-.648-6.465-1.4-2.255-.932-4.469-1.953-6.729-2.866-3.48-1.4-6.729-3.3-10.121-4.9-2.127,5.559-1.646,12.78-7.433,16.065-2.6,1.476-5.72,1.989-8.612,2.59a50.056,50.056,0,0,0-7.915,2.026,9.131,9.131,0,0,0-5.255,4.408c-1.34,2.858-.907,6.457-.938,9.525a30.027,30.027,0,0,1-1.236,9.2c-.187.573-.422,1.127-.648,1.682-.612.493-1.208,1.009-1.788,1.529-1.416,1.266-2.765,2.618-4.053,4.013A27.057,27.057,0,0,0,115,178.552c-.4.043-.941.367-.775.805.032.081.085.153.117.233a.61.61,0,0,0,.047.618c.217.248.425.5.639.756a16.553,16.553,0,0,0,1.206,1.726,9.632,9.632,0,0,0,1.694,2.108c.189.185.393.367.59.548l.178.2c1.541,1.769,2.818,3.886,4.877,5.113.6.355,1.291-.142,1.537-.688.44-.981.913-1.945,1.4-2.9a15.782,15.782,0,0,0,1.077-1.8c.389-.752.726-1.527,1.064-2.3.493-.932.983-1.864,1.459-2.805.682-1.352,1.242-2.749,1.83-4.143.064-.155.147-.3.217-.45l.618-.077c1.232.028,2.463.017,3.7-.038,2.123-.093,4.229-.469,6.346-.558.758-.032,1.516-.036,2.274-.053-1.433,1.938-2.985,3.788-4.336,5.784a.765.765,0,0,0,.106,1.055c2.44,1.618,4.867,3.261,7.419,4.7,2.032,1.147,4.418,2.624,6.743,3.055a4.079,4.079,0,0,0,3.461-.953c.3.832.571,1.677.817,2.531.127.442.25.9.372,1.355-1.361,1.077-2.661,2.23-3.909,3.21-.947.741-1.879,1.493-2.815,2.246-.025-.081-.059-.161-.083-.244a21.262,21.262,0,0,1-1.087-5.181.7.7,0,0,0-.718-.716c-2.42-.106-4.888-.433-7.327-.408-.832-.956-1.68-1.9-2.508-2.856-.8-.924-1.612-2.21-2.885-2.5-1.157-.268-2.144.662-2.9,1.4-.964.951-1.9,1.922-2.877,2.864-.679.654-1.325,1.329-1.958,2.013-1.289.085-2.582.07-3.869.147a46.543,46.543,0,0,0-5.189.726q-1.525.264-3.06.471a29.607,29.607,0,0,0-3.091.378c-.431.1-.516.614-.195.688l-.053.03c.1.036.214.057.319.085a3.381,3.381,0,0,0-1.094.754,16.591,16.591,0,0,0-2.087,3.54c-.8,1.529-1.561,3.081-2.317,4.635a100.917,100.917,0,0,1-4.811,9.085.759.759,0,0,0,.106,1.038c1.805,1.3,3.569,2.667,5.244,4.138.112.1.214.206.325.3-.013.238-.042.526-.059.694a9.742,9.742,0,0,1-.5,2.145c-.435,1.3-1.113,2.877-.817,4.28.314,1.486,1.873,1.958,3.2,2.072,1.578.134,3.123-.093,4.707.115a26.763,26.763,0,0,1,6.854,1.735,7.8,7.8,0,0,0,3.036.932,4.644,4.644,0,0,0,2.537-.868,15.762,15.762,0,0,0,1.389-1.106c1.454,2.081,3.032,4.083,4.544,6.092q1.316,1.747,2.593,3.535c.4,1.709.818,3.406,1.231,5.108a19.365,19.365,0,0,0-.811,2.728c-.115.476-.234.958-.355,1.439a19.15,19.15,0,0,0-.628,2.346,31.325,31.325,0,0,1-1.18,3.414.7.7,0,0,0,.223.826c.023.017.047.028.07.045.047.265.263.367.539.355a66.489,66.489,0,0,0,7.425,4.217,16.514,16.514,0,0,1,2.03,1.486.839.839,0,0,0,.8.1c.089.053.181.1.27.153.737.454,1.577-.193,1.888-.847a30.522,30.522,0,0,1,2.966-4.684c.507.121,1.017.214,1.486.308,1.123.221,2.242.5,3.359.783-.081.966-.11,1.932-.123,2.9-.569,3.909-.989,7.839-1.748,11.733a.613.613,0,0,0,.457.652c.146.04.282.106.425.153a13.74,13.74,0,0,0,3.1,3.867,71.2,71.2,0,0,0,6.909,6.045c.665.522,1.336,1.045,2.032,1.529-.008,1.6,3.176.083,3.767-.2,1.762-.841,3.4-1.964,5.193-2.739.469-.2,1.255-1.025.773-1.59-1.094-1.284-1.111-3.393-1.163-4.988-.057-1.792.079-3.593-.047-5.382-.055-.781-.159-1.577-.268-2.378a4.655,4.655,0,0,1,.922-1.977c2.043-2.457,5.576-3.111,7.673-5.559,1.338-1.561,1.4-3.27,1.452-5.228.008-.268.034-.541.057-.813a14.95,14.95,0,0,0,4.142.359c2.435-.215,4.109-2.125,5.143-4.179,2.427-4.822,2.637-10.487,5.306-15.224a11.3,11.3,0,0,1,5.832-5.1,33.78,33.78,0,0,1,3.754-1.076,124.591,124.591,0,0,0,.858-14.359,122.883,122.883,0,0,0-30.11-80.726" transform="translate(93.488 111.551)" fill="#92c83e"/>
            <path id="Trazado_733488" data-name="Trazado 733488" d="M78.233,204.639a6.078,6.078,0,0,0-3.786-2.385c1.195-2.934,1.4-6.2-.588-8.977a7.249,7.249,0,0,0-4.913-3.4,13.007,13.007,0,0,0-5.512.181,19.822,19.822,0,0,0-8.571-8.342c-4.539-2.27-10.009-1.584-14.495.457a16.009,16.009,0,0,0-8.514,8.353c-1.049,2.646-1.062,6.442.9,8.631a6.11,6.11,0,0,0-2.37,2.72,5.171,5.171,0,0,0-.24,2.242,10.693,10.693,0,0,0-3,1.382,9.135,9.135,0,0,0-3.83,9.253,9.715,9.715,0,0,0,8.334,7.565,10.921,10.921,0,0,0,6.888-1.714,8.71,8.71,0,0,0,6.255,4.873,13.31,13.31,0,0,0,9.423-2.155,17.825,17.825,0,0,0,1.76-1.359c2.662,1.166,6.531.858,8.916.467A21.148,21.148,0,0,0,77.382,214.9c2.463-2.973,3.183-6.992.851-10.264" transform="translate(20.612 160.514)" fill="#fff"/>
            <g id="Grupo_969943" data-name="Grupo 969943" transform="translate(43.764 340.81)" opacity="0.5" style="mix-blend-mode: multiply;isolation: isolate">
              <g id="Grupo_969942" data-name="Grupo 969942">
                <g id="Grupo_969941" data-name="Grupo 969941" clip-path="url(#clip-path-7)">
                  <path id="Trazado_733489" data-name="Trazado 733489" d="M78.233,204.64a6.076,6.076,0,0,0-3.784-2.387c1.195-2.932,1.4-6.2-.59-8.975a7.243,7.243,0,0,0-4.913-3.4,13.007,13.007,0,0,0-5.512.181,19.811,19.811,0,0,0-8.571-8.342c-4.54-2.27-10.007-1.584-14.493.456a16,16,0,0,0-8.516,8.355c-1.049,2.645-1.064,6.44.9,8.631a6.115,6.115,0,0,0-2.372,2.72,5.229,5.229,0,0,0-.24,2.242,10.653,10.653,0,0,0-3,1.382,9.138,9.138,0,0,0-3.832,9.253,9.715,9.715,0,0,0,8.336,7.563,10.908,10.908,0,0,0,6.888-1.713,8.714,8.714,0,0,0,6.255,4.873,13.324,13.324,0,0,0,9.425-2.155,18.044,18.044,0,0,0,1.76-1.359c2.66,1.166,6.529.858,8.916.467A21.165,21.165,0,0,0,77.384,214.9c2.463-2.975,3.181-6.992.849-10.264m-3.786,9.41a12.7,12.7,0,0,1-5.688,5.058c-3.809,1.922-9.674,3.206-12.973-.011-1.508,2.665-5.314,4.147-8.191,4.285-3.773.181-7.788-2.514-8.389-6.09a8.624,8.624,0,0,1-10.361,1.068c-4.506-3.064-4.289-10.438,1-12.533a.164.164,0,0,1,.206.153c-.206,1.905,1.059,3.3,2.268,4.6A17.064,17.064,0,0,1,31.5,204.8a8.579,8.579,0,0,1,2.578-5.476,12.736,12.736,0,0,1,5.832-3.244,6.519,6.519,0,0,0-3.032.049,11.906,11.906,0,0,0-3.435,2.032.16.16,0,0,1-.234-.094c-1.093-6.956,4.4-12.793,10.763-14.625a13.979,13.979,0,0,1,8.107.108,12.155,12.155,0,0,1,3.489,1.367,11.527,11.527,0,0,1,5.232,6.4,10.559,10.559,0,0,1,.465,3.316,5.034,5.034,0,0,1,3.869-1.268c2.66.319,4.671,2.465,5.811,4.769a15.488,15.488,0,0,1-.223,13.646,9.4,9.4,0,0,0,3.9-7.037.162.162,0,0,1,.3-.081c1.794,2.629.894,6.765-.478,9.389" transform="translate(-23.152 -180.296)" fill="#a0ddfe"/>
                </g>
              </g>
            </g>
            <path id="Trazado_733490" data-name="Trazado 733490" d="M145.582,175.34a6.5,6.5,0,0,1,3.93-2.121c-1.244-2.61-1.463-5.518.6-7.988a7.627,7.627,0,0,1,5.1-3.024,15.734,15.734,0,0,1,5.728.166,19.454,19.454,0,0,1,8.9-7.416c4.716-2.017,10.4-1.4,15.062.42,3.858,1.507,7.27,4.017,8.856,7.444,1.093,2.355,1.111,5.733-.93,7.678a5.789,5.789,0,0,1,2.467,2.423,4.025,4.025,0,0,1,.253,2,12.138,12.138,0,0,1,3.119,1.232,7.677,7.677,0,0,1,3.988,8.238c-.79,3.544-4.537,6.357-8.654,6.726a12.885,12.885,0,0,1-7.16-1.531,8.938,8.938,0,0,1-6.5,4.331,15.714,15.714,0,0,1-9.794-1.928,18.422,18.422,0,0,1-1.832-1.21c-2.762,1.034-6.782.758-9.264.406a22.937,22.937,0,0,1-12.986-6.707c-2.561-2.65-3.312-6.227-.89-9.136" transform="translate(128.297 136.838)" fill="#fff"/>
            <g id="Grupo_969946" data-name="Grupo 969946" transform="translate(272.404 290.54)" opacity="0.5" style="mix-blend-mode: multiply;isolation: isolate">
              <g id="Grupo_969945" data-name="Grupo 969945">
                <g id="Grupo_969944" data-name="Grupo 969944" clip-path="url(#clip-path-8)">
                  <path id="Trazado_733491" data-name="Trazado 733491" d="M145.581,175.34a6.507,6.507,0,0,1,3.93-2.121c-1.244-2.61-1.463-5.518.6-7.988a7.611,7.611,0,0,1,5.1-3.024,15.7,15.7,0,0,1,5.729.166,19.444,19.444,0,0,1,8.9-7.416c4.716-2.017,10.4-1.4,15.06.42,3.86,1.5,7.27,4.017,8.856,7.444,1.093,2.353,1.112,5.731-.928,7.678a5.811,5.811,0,0,1,2.467,2.423,4,4,0,0,1,.251,2,12.042,12.042,0,0,1,3.119,1.232,7.674,7.674,0,0,1,3.988,8.238c-.788,3.544-4.537,6.357-8.654,6.724a12.859,12.859,0,0,1-7.158-1.531,8.936,8.936,0,0,1-6.5,4.331,15.7,15.7,0,0,1-9.794-1.926,18.97,18.97,0,0,1-1.83-1.21c-2.764,1.034-6.782.756-9.264.406a22.942,22.942,0,0,1-12.988-6.707c-2.561-2.65-3.312-6.227-.89-9.136m3.943,8.378c1.236,2.026,3.576,3.5,5.915,4.508,3.96,1.713,10.054,2.86,13.48,0,1.571,2.374,5.525,3.7,8.516,3.822,3.92.164,8.09-2.231,8.71-5.414a10.141,10.141,0,0,0,10.767.96c4.678-2.722,4.446-9.285-1.047-11.153-.095-.032-.223.049-.212.136.214,1.7-1.1,2.934-2.355,4.1a13.165,13.165,0,0,0,.839-5.149,7.247,7.247,0,0,0-2.682-4.877,14.022,14.022,0,0,0-6.064-2.892,7.892,7.892,0,0,1,3.151.045,13.027,13.027,0,0,1,3.571,1.813c.081.047.229,0,.244-.083,1.129-6.191-4.584-11.391-11.2-13.026a16.86,16.86,0,0,0-8.425.087,13.935,13.935,0,0,0-3.624,1.214,10.735,10.735,0,0,0-5.431,5.694,8.169,8.169,0,0,0-.482,2.949,5.8,5.8,0,0,0-4.021-1.13,8.118,8.118,0,0,0-6.032,4.238,12.026,12.026,0,0,0,.244,12.145c-2.289-1.539-4.021-3.784-4.058-6.266,0-.147-.219-.189-.312-.074-1.862,2.338-.922,6.021.507,8.357" transform="translate(-144.108 -153.702)" fill="#a0ddfe"/>
                </g>
              </g>
            </g>
            <path id="Trazado_733492" data-name="Trazado 733492" d="M109.567,192.117A3.1,3.1,0,0,1,111.5,190.9a4.619,4.619,0,0,1,.3-4.582,3.7,3.7,0,0,1,2.508-1.739,6.624,6.624,0,0,1,2.815.095,10.113,10.113,0,0,1,4.376-4.261,8.712,8.712,0,0,1,7.4.234,8.18,8.18,0,0,1,4.348,4.264,4.5,4.5,0,0,1-.461,4.406,3.124,3.124,0,0,1,1.21,1.389,2.632,2.632,0,0,1,.123,1.144,5.5,5.5,0,0,1,1.533.707,4.661,4.661,0,0,1,1.955,4.724,4.959,4.959,0,0,1-4.255,3.862,5.569,5.569,0,0,1-3.516-.875,4.452,4.452,0,0,1-3.195,2.49,6.8,6.8,0,0,1-4.811-1.1,9.113,9.113,0,0,1-.9-.694,8.934,8.934,0,0,1-4.552.238A10.8,10.8,0,0,1,110,197.357a4.217,4.217,0,0,1-.433-5.24" transform="translate(96.899 159.972)" fill="#fff"/>
            <g id="Grupo_969949" data-name="Grupo 969949" transform="translate(205.738 339.66)" opacity="0.5" style="mix-blend-mode: multiply;isolation: isolate">
              <g id="Grupo_969948" data-name="Grupo 969948">
                <g id="Grupo_969947" data-name="Grupo 969947" clip-path="url(#clip-path-9)">
                  <path id="Trazado_733493" data-name="Trazado 733493" d="M109.567,192.116A3.1,3.1,0,0,1,111.5,190.9a4.623,4.623,0,0,1,.3-4.584,3.7,3.7,0,0,1,2.508-1.737,6.615,6.615,0,0,1,2.813.093,10.13,10.13,0,0,1,4.376-4.259,8.711,8.711,0,0,1,7.4.232,8.164,8.164,0,0,1,4.348,4.266,4.5,4.5,0,0,1-.459,4.406A3.12,3.12,0,0,1,134,190.7a2.64,2.64,0,0,1,.123,1.146,5.442,5.442,0,0,1,1.533.705,4.668,4.668,0,0,1,1.955,4.724,4.957,4.957,0,0,1-4.255,3.862,5.584,5.584,0,0,1-3.518-.873,4.443,4.443,0,0,1-3.193,2.488,6.807,6.807,0,0,1-4.813-1.1,9.162,9.162,0,0,1-.9-.694,8.963,8.963,0,0,1-4.554.238A10.819,10.819,0,0,1,110,197.357a4.217,4.217,0,0,1-.431-5.242m1.932,4.805a6.5,6.5,0,0,0,2.9,2.584c1.945.979,4.939,1.635,6.624-.008a5.341,5.341,0,0,0,4.183,2.189,4.194,4.194,0,0,0,4.282-3.111,4.4,4.4,0,0,0,5.291.546c2.3-1.563,2.189-5.329-.509-6.4a.084.084,0,0,0-.106.078,3.066,3.066,0,0,1-1.159,2.352,8.7,8.7,0,0,0,.416-2.954,4.383,4.383,0,0,0-1.316-2.8,6.524,6.524,0,0,0-2.979-1.656,3.354,3.354,0,0,1,1.55.025,6.142,6.142,0,0,1,1.752,1.038.084.084,0,0,0,.121-.047c.558-3.552-2.248-6.533-5.5-7.469a7.146,7.146,0,0,0-4.14.057,6.269,6.269,0,0,0-1.781.7,5.881,5.881,0,0,0-2.671,3.27,5.391,5.391,0,0,0-.238,1.692,2.573,2.573,0,0,0-1.975-.646,4.081,4.081,0,0,0-2.966,2.435,7.9,7.9,0,0,0,.113,6.968,4.8,4.8,0,0,1-1.992-3.593.082.082,0,0,0-.151-.042c-.917,1.342-.457,3.454.244,4.794" transform="translate(-108.84 -179.688)" fill="#a0ddfe"/>
                </g>
              </g>
            </g>
            <path id="Trazado_733494" data-name="Trazado 733494" d="M70.795,161.486a3.1,3.1,0,0,1,1.932-1.219,4.619,4.619,0,0,1,.3-4.582,3.7,3.7,0,0,1,2.508-1.739,6.625,6.625,0,0,1,2.815.094,10.114,10.114,0,0,1,4.376-4.261,8.712,8.712,0,0,1,7.4.234,8.18,8.18,0,0,1,4.348,4.264,4.5,4.5,0,0,1-.461,4.406,3.124,3.124,0,0,1,1.21,1.389,2.632,2.632,0,0,1,.123,1.144,5.5,5.5,0,0,1,1.533.707,4.661,4.661,0,0,1,1.955,4.724,4.959,4.959,0,0,1-4.255,3.862,5.568,5.568,0,0,1-3.516-.875,4.452,4.452,0,0,1-3.195,2.49,6.792,6.792,0,0,1-4.811-1.1,9.109,9.109,0,0,1-.9-.694,8.934,8.934,0,0,1-4.552.238,10.8,10.8,0,0,1-6.378-3.841,4.217,4.217,0,0,1-.433-5.24" transform="translate(62.381 132.702)" fill="#fff"/>
            <g id="Grupo_969952" data-name="Grupo 969952" transform="translate(132.451 281.759)" opacity="0.5" style="mix-blend-mode: multiply;isolation: isolate">
              <g id="Grupo_969951" data-name="Grupo 969951">
                <g id="Grupo_969950" data-name="Grupo 969950" clip-path="url(#clip-path-10)">
                  <path id="Trazado_733495" data-name="Trazado 733495" d="M70.8,161.486a3.1,3.1,0,0,1,1.932-1.217,4.623,4.623,0,0,1,.3-4.584,3.7,3.7,0,0,1,2.508-1.737,6.625,6.625,0,0,1,2.815.093,10.115,10.115,0,0,1,4.374-4.259,8.711,8.711,0,0,1,7.4.233,8.164,8.164,0,0,1,4.348,4.266,4.5,4.5,0,0,1-.459,4.406,3.12,3.12,0,0,1,1.21,1.387,2.641,2.641,0,0,1,.123,1.146,5.444,5.444,0,0,1,1.533.705,4.668,4.668,0,0,1,1.955,4.724,4.961,4.961,0,0,1-4.255,3.864,5.586,5.586,0,0,1-3.518-.875,4.443,4.443,0,0,1-3.193,2.488,6.807,6.807,0,0,1-4.813-1.1,9.162,9.162,0,0,1-.9-.694,8.963,8.963,0,0,1-4.554.238,10.819,10.819,0,0,1-6.378-3.841,4.217,4.217,0,0,1-.431-5.242m1.932,4.805a6.5,6.5,0,0,0,2.9,2.584c1.945.979,4.939,1.635,6.624-.008a5.341,5.341,0,0,0,4.183,2.189,4.194,4.194,0,0,0,4.281-3.111,4.4,4.4,0,0,0,5.291.546c2.3-1.563,2.189-5.329-.508-6.4a.085.085,0,0,0-.106.079,3.065,3.065,0,0,1-1.159,2.35,8.7,8.7,0,0,0,.416-2.954,4.387,4.387,0,0,0-1.316-2.8,6.524,6.524,0,0,0-2.979-1.656,3.354,3.354,0,0,1,1.55.025,6.143,6.143,0,0,1,1.752,1.038.084.084,0,0,0,.121-.047c.558-3.552-2.248-6.533-5.5-7.468a7.146,7.146,0,0,0-4.14.057,6.268,6.268,0,0,0-1.781.7,5.889,5.889,0,0,0-2.671,3.27,5.39,5.39,0,0,0-.238,1.692,2.573,2.573,0,0,0-1.975-.646,4.081,4.081,0,0,0-2.966,2.435,7.9,7.9,0,0,0,.113,6.968,4.8,4.8,0,0,1-1.992-3.593.082.082,0,0,0-.151-.042c-.917,1.342-.457,3.454.244,4.794" transform="translate(-70.069 -149.057)" fill="#a0ddfe"/>
                </g>
              </g>
            </g>
            <path id="Trazado_733496" data-name="Trazado 733496" d="M85.637,86.732c1.6-1.232,3.418-2.631,3.418-5.433a5.3,5.3,0,0,0-1.486-3.739H84.951C86.246,78.571,87.3,79.537,87.3,81.3c0,1.936-1.265,2.911-2.731,4.04-1.6,1.234-3.418,2.631-3.418,5.433s1.817,4.2,3.418,5.433c1.467,1.128,2.731,2.1,2.731,4.04s-1.265,2.911-2.731,4.04c-1.6,1.232-3.418,2.631-3.418,5.433s1.817,4.2,3.418,5.433c1.467,1.128,2.731,2.1,2.731,4.04s-1.265,2.911-2.731,4.04c-1.6,1.234-3.418,2.633-3.418,5.435h1.758c0-1.938,1.266-2.913,2.731-4.041,1.6-1.234,3.418-2.631,3.418-5.433s-1.815-4.2-3.418-5.433c-1.467-1.128-2.731-2.1-2.731-4.04s1.265-2.913,2.731-4.041c1.6-1.232,3.418-2.631,3.418-5.431s-1.815-4.2-3.418-5.433c-1.467-1.129-2.731-2.1-2.731-4.04s1.265-2.911,2.731-4.04" transform="translate(72.244 69.05)" fill="#ff4a59"/>
            <path id="Trazado_733497" data-name="Trazado 733497" d="M86.523,101.632h6.971l-6.971,14.3-6.971-14.3Z" transform="translate(70.823 90.481)" fill="#ff4a59"/>
            <path id="Trazado_733498" data-name="Trazado 733498" d="M95.071,86.732c1.6-1.232,3.418-2.631,3.418-5.433A5.3,5.3,0,0,0,97,77.56H94.385c1.295,1.011,2.346,1.977,2.346,3.739,0,1.936-1.265,2.911-2.731,4.04-1.6,1.234-3.418,2.631-3.418,5.433S92.4,94.969,94,96.2c1.467,1.128,2.731,2.1,2.731,4.04s-1.265,2.911-2.731,4.04c-1.6,1.232-3.418,2.631-3.418,5.433s1.817,4.2,3.418,5.433c1.467,1.128,2.731,2.1,2.731,4.04S95.466,122.1,94,123.227c-1.6,1.234-3.418,2.633-3.418,5.435H92.34c0-1.938,1.266-2.913,2.731-4.041,1.6-1.234,3.418-2.631,3.418-5.433s-1.815-4.2-3.418-5.433c-1.467-1.128-2.731-2.1-2.731-4.04s1.265-2.913,2.731-4.041c1.6-1.232,3.418-2.631,3.418-5.431s-1.815-4.2-3.418-5.433c-1.467-1.129-2.731-2.1-2.731-4.04s1.265-2.911,2.731-4.04" transform="translate(80.643 69.05)" fill="#ff4a59"/>
            <path id="Trazado_733499" data-name="Trazado 733499" d="M95.957,101.632h6.971l-6.971,14.3-6.971-14.3Z" transform="translate(79.222 90.481)" fill="#ff4a59"/>
            <path id="Trazado_733500" data-name="Trazado 733500" d="M104.506,86.732c1.6-1.232,3.418-2.631,3.418-5.433a5.289,5.289,0,0,0-1.486-3.739H103.82c1.295,1.011,2.348,1.977,2.348,3.739,0,1.936-1.266,2.911-2.733,4.04-1.6,1.234-3.418,2.631-3.418,5.433s1.817,4.2,3.418,5.433c1.467,1.128,2.733,2.1,2.733,4.04s-1.266,2.911-2.733,4.04c-1.6,1.232-3.418,2.631-3.418,5.433s1.817,4.2,3.418,5.433c1.467,1.128,2.733,2.1,2.733,4.04s-1.266,2.911-2.733,4.04c-1.6,1.234-3.418,2.633-3.418,5.435h1.758c0-1.938,1.266-2.913,2.731-4.041,1.6-1.234,3.418-2.631,3.418-5.433s-1.815-4.2-3.418-5.433c-1.467-1.128-2.731-2.1-2.731-4.04s1.265-2.913,2.731-4.041c1.6-1.232,3.418-2.631,3.418-5.431s-1.815-4.2-3.418-5.433c-1.467-1.129-2.731-2.1-2.731-4.04s1.265-2.911,2.731-4.04" transform="translate(89.043 69.05)" fill="#ff4a59"/>
            <path id="Trazado_733501" data-name="Trazado 733501" d="M105.392,101.632h6.971l-6.971,14.3-6.971-14.3Z" transform="translate(87.622 90.481)" fill="#ff4a59"/>
            <path id="Trazado_733502" data-name="Trazado 733502" d="M147.983,164.81l-1.242-1.242c1.981-1.979,4.253-1.686,6.257-1.423,1.835.236,3.421.444,4.79-.926s1.163-2.954.924-4.79c-.259-2-.556-4.276,1.425-6.257s4.257-1.684,6.257-1.425c1.839.242,3.421.446,4.79-.924s1.163-2.953.924-4.79c-.261-2-.556-4.276,1.425-6.257s4.247-1.682,6.257-1.423c1.832.234,3.418.444,4.788-.924s1.163-2.955.924-4.79c-.259-2-.556-4.276,1.425-6.257s4.247-1.682,6.257-1.423c1.832.234,3.418.444,4.788-.924s1.163-2.953.924-4.788c-.261-2.006-.556-4.276,1.423-6.257s4.249-1.682,6.257-1.423c1.832.238,3.42.444,4.788-.922s1.163-2.956.924-4.79c-.261-2-.556-4.278,1.423-6.257s4.249-1.684,6.257-1.423c1.834.24,3.421.444,4.788-.922s1.161-2.955.922-4.79c-.259-2-.556-4.278,1.425-6.257s4.253-1.684,6.257-1.423c1.83.24,3.418.446,4.788-.924s1.163-2.954.924-4.788c-.261-2-.556-4.278,1.423-6.257s4.251-1.686,6.257-1.425c1.832.24,3.42.448,4.788-.922l1.242,1.24c-1.977,1.981-4.247,1.686-6.257,1.427-1.832-.24-3.42-.446-4.788.922s-1.163,2.955-.924,4.788c.263,2.006.558,4.276-1.423,6.257s-4.249,1.684-6.257,1.425c-1.834-.24-3.42-.448-4.788.922s-1.163,2.955-.924,4.788c.263,2.006.556,4.278-1.423,6.259s-4.247,1.682-6.257,1.423c-1.832-.24-3.418-.446-4.788.922s-1.163,2.955-.924,4.788c.261,2.006.556,4.278-1.423,6.259s-4.249,1.682-6.257,1.423c-1.834-.238-3.42-.446-4.788.922s-1.163,2.953-.924,4.788c.261,2.006.556,4.276-1.423,6.257s-4.247,1.682-6.257,1.423c-1.832-.234-3.419-.442-4.788.924s-1.163,2.955-.924,4.79c.259,2,.556,4.276-1.425,6.257s-4.247,1.682-6.257,1.423c-1.832-.234-3.419-.442-4.788.924s-1.163,2.955-.924,4.79c.259,2.006.556,4.278-1.425,6.257s-4.259,1.684-6.257,1.425c-1.837-.238-3.421-.444-4.79.924s-1.163,2.954-.924,4.79c.259,2,.556,4.276-1.425,6.257s-4.253,1.686-6.257,1.425c-1.837-.232-3.421-.442-4.79.924" transform="translate(130.641 60.06)" fill="#ff4a59"/>
            <path id="Trazado_733503" data-name="Trazado 733503" d="M155.077,120.011l4.93,4.93-15.043,5.183,5.183-15.043Z" transform="translate(129.059 102.454)" fill="#ff4a59"/>
            <path id="Trazado_733504" data-name="Trazado 733504" d="M139.942,158.438l-1.284-1.2c1.915-2.047,4.195-1.826,6.206-1.635,1.837.174,3.433.331,4.754-1.087s1.064-2.992.764-4.818c-.327-2-.7-4.257,1.214-6.3s4.2-1.826,6.206-1.635c1.843.174,3.437.331,4.754-1.085s1.062-2.992.764-4.818c-.329-1.994-.7-4.255,1.212-6.3s4.195-1.826,6.2-1.633c1.843.18,3.435.329,4.756-1.087s1.062-2.99.764-4.816c-.329-1.994-.7-4.255,1.212-6.3s4.2-1.826,6.206-1.635c1.843.181,3.435.331,4.754-1.085s1.06-2.99.762-4.816c-.329-1.994-.7-4.255,1.212-6.3s4.2-1.828,6.206-1.635c1.845.18,3.433.331,4.752-1.083s1.062-2.992.764-4.818c-.329-2-.7-4.255,1.212-6.3s4.193-1.824,6.2-1.635c1.841.174,3.435.331,4.754-1.085s1.062-2.992.764-4.818c-.329-1.992-.7-4.253,1.212-6.3s4.195-1.826,6.2-1.633c1.839.18,3.433.331,4.754-1.085s1.064-2.992.762-4.816c-.329-2-.7-4.257,1.212-6.3s4.2-1.826,6.206-1.633c1.845.172,3.437.329,4.754-1.087l1.284,1.2c-1.909,2.047-4.191,1.83-6.206,1.635-1.837-.174-3.431-.329-4.754,1.085s-1.06,2.99-.762,4.815c.329,2,.7,4.257-1.212,6.3s-4.193,1.826-6.206,1.633c-1.839-.178-3.431-.329-4.752,1.085s-1.062,2.99-.764,4.816c.329,1.994.7,4.255-1.212,6.3s-4.193,1.828-6.206,1.635c-1.841-.174-3.431-.327-4.752,1.085s-1.062,2.99-.764,4.816c.329,2,.7,4.257-1.212,6.3s-4.189,1.828-6.2,1.635c-1.837-.181-3.433-.331-4.754,1.083s-1.06,2.992-.762,4.818c.329,1.994.7,4.253-1.212,6.3s-4.191,1.828-6.2,1.635c-1.837-.178-3.436-.331-4.756,1.085s-1.062,2.992-.764,4.816c.329,1.994.7,4.255-1.212,6.3s-4.191,1.828-6.206,1.635c-1.839-.178-3.433-.329-4.754,1.085s-1.062,2.99-.764,4.816c.329,2,.7,4.257-1.212,6.3s-4.193,1.83-6.206,1.635c-1.837-.174-3.433-.327-4.754,1.085s-1.062,2.992-.764,4.818c.329,2,.7,4.257-1.214,6.3s-4.189,1.832-6.206,1.637c-1.834-.174-3.431-.329-4.754,1.087" transform="translate(123.444 51.321)" fill="#ff4a59"/>
            <path id="Trazado_733505" data-name="Trazado 733505" d="M146.809,111.837l5.092,4.76-14.859,5.69,4.673-15.209Z" transform="translate(122.005 95.329)" fill="#ff4a59"/>
            <path id="Trazado_733506" data-name="Trazado 733506" d="M154.216,165.652l-1.115-1.357c2.162-1.777,4.4-1.265,6.365-.811,1.805.412,3.359.773,4.858-.457s1.442-2.826,1.386-4.677c-.066-2.021-.14-4.31,2.025-6.089s4.4-1.263,6.366-.813c1.8.414,3.359.773,4.856-.456s1.442-2.828,1.384-4.675c-.066-2.023-.14-4.314,2.024-6.09s4.395-1.265,6.366-.813c1.8.414,3.359.773,4.856-.456s1.442-2.828,1.384-4.675c-.066-2.021-.14-4.312,2.024-6.09s4.395-1.266,6.365-.811c1.8.414,3.359.773,4.856-.456s1.442-2.828,1.384-4.677c-.064-2.019-.138-4.31,2.023-6.09s4.393-1.263,6.366-.807c1.8.414,3.359.773,4.854-.456s1.444-2.828,1.384-4.677c-.064-2.021-.138-4.312,2.026-6.09s4.395-1.266,6.363-.811c1.8.416,3.359.775,4.856-.456s1.444-2.824,1.384-4.675c-.064-2.021-.138-4.31,2.025-6.089s4.4-1.266,6.366-.811c1.8.414,3.357.773,4.852-.456s1.444-2.828,1.384-4.677c-.064-2.021-.138-4.312,2.026-6.089s4.393-1.266,6.365-.811c1.8.414,3.359.773,4.856-.456l1.115,1.357c-2.162,1.779-4.395,1.266-6.365.811-1.805-.418-3.363-.775-4.856.456s-1.442,2.826-1.384,4.675c.064,2.021.138,4.312-2.024,6.09s-4.395,1.266-6.365.811c-1.8-.418-3.363-.775-4.856.456s-1.444,2.826-1.384,4.675c.064,2.021.138,4.312-2.024,6.089s-4.395,1.266-6.363.811c-1.805-.418-3.361-.775-4.856.456s-1.444,2.828-1.384,4.675c.064,2.023.138,4.314-2.026,6.092s-4.395,1.261-6.365.809c-1.8-.418-3.361-.777-4.856.454s-1.44,2.828-1.382,4.677c.066,2.021.14,4.312-2.025,6.09s-4.395,1.266-6.365.809c-1.8-.416-3.359-.775-4.856.457s-1.442,2.826-1.384,4.677c.066,2.021.138,4.31-2.025,6.089s-4.4,1.265-6.366.813c-1.805-.418-3.361-.775-4.856.456s-1.442,2.826-1.384,4.675c.066,2.023.138,4.312-2.025,6.09s-4.395,1.266-6.365.811c-1.809-.414-3.363-.775-4.858.457s-1.442,2.826-1.386,4.677c.064,2.021.138,4.312-2.025,6.089s-4.4,1.265-6.366.813c-1.805-.418-3.361-.775-4.856.456" transform="translate(136.303 70.157)" fill="#ff4a59"/>
            <path id="Trazado_733507" data-name="Trazado 733507" d="M161.919,126.3l4.429,5.385-15.476,3.7,6.618-14.47Z" transform="translate(134.319 107.649)" fill="#ff4a59"/>
            <path id="Trazado_733508" data-name="Trazado 733508" d="M129.572,123.309c.261,2.006.556,4.278-1.425,6.257a5.3,5.3,0,0,1-3.694,1.6l-1.852-1.852c1.631.2,3.058.261,4.3-.985,1.369-1.369,1.163-2.953.924-4.788-.261-2.006-.556-4.278,1.425-6.257s4.253-1.686,6.257-1.425c1.835.238,3.42.444,4.788-.924s1.164-2.955.924-4.788c-.261-2.006-.556-4.278,1.425-6.259s4.253-1.684,6.259-1.425c1.834.238,3.419.444,4.788-.924s1.164-2.955.924-4.788c-.259-2.006-.554-4.278,1.427-6.259l1.242,1.242c-1.37,1.369-1.164,2.955-.924,4.79.259,2.006.554,4.278-1.425,6.257s-4.253,1.686-6.259,1.425c-1.835-.238-3.421-.444-4.79.926s-1.163,2.953-.924,4.788c.261,2,.556,4.276-1.423,6.257s-4.253,1.686-6.259,1.425c-1.834-.24-3.42-.444-4.788.924s-1.163,2.953-.924,4.788" transform="translate(109.149 80.558)" fill="#ff4a59"/>
            <path id="Trazado_733509" data-name="Trazado 733509" d="M142,98.822l4.93,4.93,5.183-15.043-15.043,5.183Z" transform="translate(122.031 78.976)" fill="#ff4a59"/>
            <path id="Trazado_733510" data-name="Trazado 733510" d="M161.025,147.284c-.363,1.989-.775,4.242-3.265,5.525a5.3,5.3,0,0,1-4.006.391l-1.2-2.329c1.491.688,2.833,1.181,4.4.374,1.72-.885,2.009-2.457,2.342-4.278.363-1.989.775-4.242,3.265-5.525s4.563-.308,6.393.552c1.675.788,3.123,1.467,4.843.58s2.009-2.457,2.34-4.278c.365-1.989.777-4.244,3.266-5.525s4.563-.308,6.395.552c1.675.786,3.121,1.465,4.843.578s2.009-2.457,2.34-4.278c.365-1.989.777-4.244,3.266-5.525l.805,1.561c-1.722.887-2.009,2.459-2.342,4.28-.365,1.989-.777,4.244-3.265,5.525s-4.565.308-6.4-.552c-1.673-.786-3.121-1.465-4.843-.58s-2.007,2.459-2.34,4.28c-.363,1.989-.775,4.242-3.265,5.523s-4.565.308-6.395-.55c-1.675-.788-3.123-1.467-4.843-.58s-2.007,2.457-2.34,4.278" transform="translate(135.818 110.484)" fill="#ff4a59"/>
            <path id="Trazado_733511" data-name="Trazado 733511" d="M175.5,130.4l3.191,6.2,9.525-12.744-15.907.348Z" transform="translate(153.402 110.263)" fill="#ff4a59"/>
            <path id="Trazado_733512" data-name="Trazado 733512" d="M327.359,65.883a8.7,8.7,0,0,1,3.7,1.843,5,5,0,0,0,5.4.2,6.94,6.94,0,0,0,3.2-3.985c-.093.055-.185.113-.287.174-2.86,1.749-5.4,1.076-6.667-1.885-.919-2.13-2.087-5.892-4.637-6.6a7.272,7.272,0,0,0-7.151,1.7c-2.429,2.093-3.781-3.374-1.393-4.641.926-.491,2.386-.813,3.053-1.72,1.206-1.656.238-3.021-1.132-4.213a19.1,19.1,0,0,0-3.057-1.718c-2.178-1.28,0-4.665,2.232-4.421,1.112.121,2.127.671,3.257.762a9.23,9.23,0,0,0,1.973-.057,13.86,13.86,0,0,0,2.045-1.093,9.346,9.346,0,0,0,2.456-2.518,7.5,7.5,0,0,0,1.162-3.873c-1.015.652-1.748,2.053-2.949,2.427-3.9,1.212-7.531-4.1-9.794-6.429-4.143-4.259-10.468-6.975-14.967-1.834-.758,1.775-.212,4.072-1.416,5.6-1.164,1.471-3.586.463-4.546-.794a1.9,1.9,0,0,1-.232-2.217c.6-.887,1.65-1,1.922-2.215.478-2.13-1.181-3.427-2.881-4.321-3.106-1.629-7.75-2.8-7.387-7.266.183-2.293,2.512-3.308,4.276-4.21a8.674,8.674,0,0,0,1.775-1.157c.017-.125.03-.25.043-.376-1.673,1.314-3.435.486-5.673.287a7.317,7.317,0,0,0-4.82,1.353c-2.327,1.331-2.323,4.69-1.215,6.831a6.588,6.588,0,0,0,1.5,1.866c.418.38.822.779,1.2,1.2q2.257,2.277-1.79,5.159a3.123,3.123,0,0,1-1.658-.289,10.055,10.055,0,0,0-.732-7.357.344.344,0,0,1-.049-.091c-.013-.036-.028-.07-.04-.108q-.21-.445-.44-.856a9.2,9.2,0,0,0-2.217-2.578c-2.851-1.826-7-1.654-10.115-3.459a4.617,4.617,0,0,1-2.342-4.8,9.4,9.4,0,0,1,1.5-3.45c.168-.259.354-.524.543-.792a2.307,2.307,0,0,0-.733.459c-3.858,2.227-6.588,5.068-6.552,9.657-1.835-.586.319-4.794.777-5.769a4.506,4.506,0,0,0-.225-3.781A11.169,11.169,0,0,0,256.007,0a7.747,7.747,0,0,1,.65,8.476,10.229,10.229,0,0,1-4.573,4.077c-1.454,1.068-3.686,1.919-5.219,3.249a6.959,6.959,0,0,0-3.45,3.546c-.622,1.361-.756,2.817.331,3.905,5.652,5.665-7.3,4.384-5.648,1.618.973-1.626,2.24-2.393,2.193-4.361a3.331,3.331,0,0,0-2.265-2.885,11.324,11.324,0,0,0-5.166-.1c-1.378.2-2.743.172-4.132.267-2.034.138-2.981-.544-3.229-1.611a4.279,4.279,0,0,1,.006-3.618c.134-.352.295-.715.473-1.072a1,1,0,0,0-.741.454c-.3.51-.594.972-.853,1.418-1.964,2.741-5.671,6.236-2.006,9.181,1.887,1.514,5.905,2.115,4.9,5.465-1.648,5.514-14.387,5.174-10.778-1.658,1.021-1.932,2.11-3.593,1.629-5.788a4.658,4.658,0,0,0-4.421-3.248,15.259,15.259,0,0,0-4.119.522c-1.4.688-2.8,1.575-4.189,2.433a25.774,25.774,0,0,1-4.552,2.972c-2.261,1.076-5.945,1-7.616-.9a8.99,8.99,0,0,0,1.839,5.453,6,6,0,0,0,3.21,1.766c2.257.6,5.673-.977,6.641,2.219,1.18,3.9-5.074,6.068-7.417,8.329a10.888,10.888,0,0,0-2.745,8.735c.5,3.166,3.053,5.166,6.083,5.932,2.221.561,4.355.342,6.053,2.234,2.675,2.977-1.609,4.506-3.253,4.919-.722.18-2.2-2.5-2.212-2.518-.905-2.13-2.452-3.391-4.964-2.459a6.292,6.292,0,0,0-2.973,2.365,15.412,15.412,0,0,0-1.164,2.246c-.043.079-.108.134-.157.208-.871,1.675-2.1,3.285-4.113,3.117a5.577,5.577,0,0,1-3.646-2.145.7.7,0,0,0-.229.911c1.473,2.174,2.784,4.875,5.692,5.465,2.669.539,4.9-3.125,7.329-1.4,4.143,2.945-1.531,7.552-2.879,10.778-.905,2.161-.943,5.3,1.1,6.909.508.4,1.057.745,1.569,1.1a6.1,6.1,0,0,0,.556.93,8.505,8.505,0,0,1,1.191,4.849c.006,3.238-6.614,2.529-8.185,2.915a5.431,5.431,0,0,0-3.442,2.654,3.928,3.928,0,0,0-.459,1.877c.172,1.406,1.631,3.333.507,4.59a7.19,7.19,0,0,0-.888.648c1.081.07,2.17-1.059,2.618-2.164.408-1,.732-2.041,1.183-3.024.743-1.6,2.059-3.221,3.973-2.187a3.828,3.828,0,0,1,2.268,2.769c.125,1.512-.646,2.839-.936,4.285a4.544,4.544,0,0,0,2.567,4.97c.147.07.295.121.444.176a4.056,4.056,0,0,0,4.429-1.076c3.049-3.523,5.117,2.414,2.941,2.939-1.4.342-2.877.142-4.3.353a3.837,3.837,0,0,0-3.437,2.391c-.665,1.446-.261,7.045,1.476,7.567a9.966,9.966,0,0,1,.015-2.03,4.851,4.851,0,0,1,1.561-3.5c1.2-.877,2.748-.257,3.762.618a8.2,8.2,0,0,1,2.164,4.557c.095.433.174.873.251,1.316a6.623,6.623,0,0,0,2.559,2.59,2.04,2.04,0,0,0,2.083.359c.272-.121.541-.244.815-.367q1.009-.72.928,1.747a12.1,12.1,0,0,0-2.047.775c-2.051,1.48-3.973,3.452-3.263,6.107.5,1.837,1.418,3.486,1.82,5.382.363,1.694.3,4.113-.832,5.522a12.139,12.139,0,0,1-2.554,1.851,7.509,7.509,0,0,0,3.393,1.076,12.928,12.928,0,0,0,7.444-2.142.739.739,0,0,1,.238-.085,6.609,6.609,0,0,0,1.1-1.915,17.333,17.333,0,0,0,.72-2.739,3.664,3.664,0,0,1,2.731-3.077c1.688-.261,3.616.654,3.584,2.576a2.506,2.506,0,0,0,.372,1.862c.518.979,2.293,1.214,3.23,1.062,1.457-.231,2.437-.531,3.181-1.809,1.249-2.144,3.334-3.272,5.6-2.066,2.786,1.488.635,3.945-1.051,5.077s-3.614,3.164-2.9,5.157c2.274,1.915,5.866,1.805,7.692,4.431,1.457,2.1.592,5.085-.86,7.228,2.361.132,5.915-2.316,6.805-3.9a4.307,4.307,0,0,0-.157-5.039q-2.535-2.566,3.249-4.818a9.769,9.769,0,0,1,2.514,2.034,6.5,6.5,0,0,0,2.253,1.374,3.519,3.519,0,0,0,3.762-1.558c1.512-2.818,6.952-3.251,4.571.616a6.462,6.462,0,0,0-.656,3.259,4.469,4.469,0,0,0,1.5,3.435,35.421,35.421,0,0,0,3.851.6,16.464,16.464,0,0,1,1.747.34,11.447,11.447,0,0,1-2.361-2.27,3.737,3.737,0,0,1,.873-5.034c1.888-1.293,4.427-1.41,6.629-1.7,2.488-.327,5.571-.607,7.319-2.646a.225.225,0,0,1,.388.121,7.768,7.768,0,0,0,2.261-4.217,5.37,5.37,0,0,0,.31,1.518c.5,1.246,2.257,1.021,3.281.862a14.013,14.013,0,0,0,5.009-2.066c.614-.386,1.161-.8,1.7-1.181a.627.627,0,0,1,.18-.3,5.678,5.678,0,0,1,2.692-1.389,3.394,3.394,0,0,1,2.569.442,3.724,3.724,0,0,1,1.473,2.7,7.294,7.294,0,0,1-1.711,5.149.785.785,0,0,0,.471.047c3.172-.514,6.106-3.773,5.614-7.138a5.062,5.062,0,0,0-3.261-4.455c-1.019-.406-1.87-1.013-2.9-1.376a7.045,7.045,0,0,1-1.624-.588c-.686-.329-.14-1.134.448-1.766a1.753,1.753,0,0,0,2.516.679c2.586-1.263,6.6-4.421,8.773-2.057a2.817,2.817,0,0,0,.862-3.739c-.885-1.439-2.93-1.259-4.382-1.193a.773.773,0,0,1-.737-.968,4.7,4.7,0,0,1,2.582-3.06,6.306,6.306,0,0,1,7.06,1.062,6.05,6.05,0,0,1,.762.862,10.48,10.48,0,0,1,.953.947,9.3,9.3,0,0,1,1.631,2.48c.422,1.015.6,2.11,1,3.13a3.342,3.342,0,0,0,3.172,2.312,3.958,3.958,0,0,0,2.541-.639.375.375,0,0,0-.017-.049c-.049-.087-.108-.172-.163-.257a3.992,3.992,0,0,1-1.66-.756,5.463,5.463,0,0,1-1.7-5.257c.391-2.348,2.159-3.9,3.21-5.934a6.524,6.524,0,0,0,.756-2.677,6.559,6.559,0,0,0-1.692-3.618,10.456,10.456,0,0,0-2.52-2.127c-.847-.577-2.119-.856-3.057-1.425,1.272.051,2.747.735,3.86.745a4.583,4.583,0,0,0,3.017-1.423,6.562,6.562,0,0,0,1.478-3.38,3.194,3.194,0,0,1,.609-1.376c.7-1.924,2.036-3.73,4.268-3.743a3.546,3.546,0,0,1,2.442.951,3.716,3.716,0,0,0-.941-2,10.206,10.206,0,0,0-1.777-.866c-2.682-.352-4.58,1.817-6.928,2.709a3.167,3.167,0,0,1-4.251-2.314c-.711-2.522.068-8.739,3.748-8.627,1.777.057,2.257,1.6,2.858,2.979a4.369,4.369,0,0,0,2.259.665,3.816,3.816,0,0,0,3.593-2.981c.244-.962.253-1.964.431-2.937a7.152,7.152,0,0,1,1.045-2.563,10.144,10.144,0,0,1,1.274-1.558c-1.624,1-3.525,2.992-5.28,2.788a3.29,3.29,0,0,1-1.034-2.684,9.124,9.124,0,0,0-.594-4.323,3.978,3.978,0,0,0-3.142-2.3,16.212,16.212,0,0,0-2.535,0,4.491,4.491,0,0,0,.291-1.327c.1-1.272-.8-2.764-1.142-3.968a4.313,4.313,0,0,1-.155-.9c-.52-3.007.518-6.578,4.011-5.975" transform="translate(163.894 -0.001)" fill="#fab600"/>
            <g id="Grupo_969955" data-name="Grupo 969955" transform="translate(359.123 16.287)" style="mix-blend-mode: multiply;isolation: isolate">
              <g id="Grupo_969954" data-name="Grupo 969954">
                <g id="Grupo_969953" data-name="Grupo 969953" clip-path="url(#clip-path-11)">
                  <path id="Trazado_733513" data-name="Trazado 733513" d="M194.589,17.083c2.669-.223,4.671-2.248,6.85-3.614,1.679-1.053,4.166-2.537,6.177-1.5,2.741,1.416,1.847,5.009,1.246,7.359a8.734,8.734,0,0,0-.261,4.816,5.363,5.363,0,0,0,2.792,3.333c2.662,1.3,5.745.44,8.13-1.03,2.412-1.486,4.688-3.875,5.227-6.748a5.319,5.319,0,0,0-.788-4.017c-.871-1.185-2.524-1.106-3.809-1.486a4.675,4.675,0,0,1-3.2-5.582c-1.418,2.072-2.265,4.285.185,6.255,1.887,1.514,5.905,2.115,4.9,5.465-1.648,5.514-14.387,5.174-10.778-1.658,1.021-1.932,2.11-3.593,1.629-5.788a4.658,4.658,0,0,0-4.421-3.248,15.259,15.259,0,0,0-4.119.522c-1.4.688-2.8,1.575-4.189,2.433a25.843,25.843,0,0,1-4.552,2.972,8.071,8.071,0,0,1-5.624.329,6.694,6.694,0,0,0,4.6,1.185" transform="translate(-189.984 -8.616)" fill="#fab600"/>
                </g>
              </g>
            </g>
            <g id="Grupo_969958" data-name="Grupo 969958" transform="translate(430.09 3.954)" style="mix-blend-mode: multiply;isolation: isolate">
              <g id="Grupo_969957" data-name="Grupo 969957">
                <g id="Grupo_969956" data-name="Grupo 969956" clip-path="url(#clip-path-12)">
                  <path id="Trazado_733514" data-name="Trazado 733514" d="M229.81,2.884c.166-.259.353-.524.541-.792a2.3,2.3,0,0,0-.732.459c-.361.208-.7.427-1.038.646-1.034,2.395-1.624,4.985-.248,7.372,1.414,2.455,4.82,3.242,7.2,4.435,2.433,1.223,4.856,2.662,5.266,5.608.221,1.578-.363,3.145-.132,4.712A4.026,4.026,0,0,0,242.21,27.9c2.765,2.108,7.557.677,9.219-2.206,1.187-2.062.3-4.435-.955-6.249a29.186,29.186,0,0,0-2.947-3.353,14.232,14.232,0,0,1-2.476-2.718,3.269,3.269,0,0,1-.319-.9,6.191,6.191,0,0,0,.257,5.174,6.555,6.555,0,0,0,1.5,1.866q.627.57,1.2,1.2,2.254,2.277-1.79,5.159a3.13,3.13,0,0,1-1.66-.289,10.045,10.045,0,0,0-.73-7.357.3.3,0,0,1-.049-.091c-.013-.036-.028-.07-.04-.108q-.21-.445-.44-.856a9.228,9.228,0,0,0-2.217-2.578c-2.851-1.826-7-1.654-10.117-3.459a4.623,4.623,0,0,1-2.342-4.8,9.436,9.436,0,0,1,1.5-3.45" transform="translate(-227.527 -2.092)" fill="#fab600"/>
                </g>
              </g>
            </g>
            <g id="Grupo_969961" data-name="Grupo 969961" transform="translate(457.174 27.311)" style="mix-blend-mode: multiply;isolation: isolate">
              <g id="Grupo_969960" data-name="Grupo 969960">
                <g id="Grupo_969959" data-name="Grupo 969959" clip-path="url(#clip-path-13)">
                  <path id="Trazado_733515" data-name="Trazado 733515" d="M246.426,19.939a1.9,1.9,0,0,1-.234-2.217c.6-.887,1.652-1,1.924-2.215a3.09,3.09,0,0,0,.051-.992,12.2,12.2,0,0,1-2.61,1.607,7.962,7.962,0,0,0-3.319,2.5c-1.157,1.856.552,3.622,2,4.66,2.259,1.614,6.106,2.869,8.474.713,1.352-1.229,1.31-3.2.851-4.824a9.166,9.166,0,0,1-.5-4.716c-.231.217-.461.437-.682.69-.76,1.775-.214,4.072-1.416,5.6-1.166,1.471-3.586.463-4.546-.794" transform="translate(-241.855 -14.448)" fill="#fab600"/>
                </g>
              </g>
            </g>
            <g id="Grupo_969964" data-name="Grupo 969964" transform="translate(478.299 42.688)" style="mix-blend-mode: multiply;isolation: isolate">
              <g id="Grupo_969963" data-name="Grupo 969963">
                <g id="Grupo_969962" data-name="Grupo 969962" clip-path="url(#clip-path-14)">
                  <path id="Trazado_733516" data-name="Trazado 733516" d="M256.816,30.517c-1.306.747-2.73,1.4-3.342,2.879a5.636,5.636,0,0,0,.828,5.792,4.094,4.094,0,0,0,4.97.909,18.432,18.432,0,0,0,2.654-2.108,9.332,9.332,0,0,1,2.769-1.516,6.152,6.152,0,0,1,3.348-.185,3.56,3.56,0,0,0-1.338-.76,7.265,7.265,0,0,0-7.151,1.7c-2.431,2.093-3.784-3.372-1.4-4.639.926-.493,2.387-.815,3.053-1.72,1.208-1.656.24-3.021-1.132-4.213a18.832,18.832,0,0,0-3.058-1.718,1.8,1.8,0,0,1-.735-2.35.547.547,0,0,0-.459.711c.365,1.726,2.3,2.688,2.7,4.425.31,1.342-.658,2.195-1.714,2.8" transform="translate(-253.031 -22.583)" fill="#fab600"/>
                </g>
              </g>
            </g>
            <g id="Grupo_969967" data-name="Grupo 969967" transform="translate(485.575 64.752)" style="mix-blend-mode: multiply;isolation: isolate">
              <g id="Grupo_969966" data-name="Grupo 969966">
                <g id="Grupo_969965" data-name="Grupo 969965" clip-path="url(#clip-path-15)">
                  <path id="Trazado_733517" data-name="Trazado 733517" d="M262.988,48.86a5.05,5.05,0,0,1,2.1.773,3.84,3.84,0,0,0-3-2.074,15.96,15.96,0,0,0-2.533,0,4.615,4.615,0,0,0,.289-1.327c.094-1.274-.8-2.764-1.144-3.968a4.6,4.6,0,0,1-.155-.905c-.52-3.006.52-6.576,4.011-5.973l.006,0c-1.845-1.1-4.1-1.932-5.089.134-1.1,2.3-.473,4.746.257,7.028a10.663,10.663,0,0,1,.673,3.971,11.85,11.85,0,0,1-.728,3.026,13.415,13.415,0,0,1,5.312-.688" transform="translate(-256.88 -34.256)" fill="#fab600"/>
                </g>
              </g>
            </g>
            <g id="Grupo_969970" data-name="Grupo 969970" transform="translate(468.347 118.456)" style="mix-blend-mode: multiply;isolation: isolate">
              <g id="Grupo_969969" data-name="Grupo 969969">
                <g id="Grupo_969968" data-name="Grupo 969968" clip-path="url(#clip-path-16)">
                  <path id="Trazado_733518" data-name="Trazado 733518" d="M262.625,69.722c-1.121-3.631-3.4-7.922-7.939-6.9-3.586.805-8.043,5.247-6.663,9.189a10.609,10.609,0,0,1,7.276-.6c-.97-1.125-2.815-.983-4.16-.922a.773.773,0,0,1-.739-.968,4.712,4.712,0,0,1,2.582-3.06,6.305,6.305,0,0,1,7.06,1.062,6.053,6.053,0,0,1,.762.862,10.5,10.5,0,0,1,.953.949,10.362,10.362,0,0,1,1.274,1.826c-.127-.478-.259-.956-.4-1.429" transform="translate(-247.766 -62.666)" fill="#fab600"/>
                </g>
              </g>
            </g>
            <g id="Grupo_969973" data-name="Grupo 969973" transform="translate(431.742 138.9)" style="mix-blend-mode: multiply;isolation: isolate">
              <g id="Grupo_969972" data-name="Grupo 969972">
                <g id="Grupo_969971" data-name="Grupo 969971" clip-path="url(#clip-path-17)">
                  <path id="Trazado_733519" data-name="Trazado 733519" d="M255.543,74.15c-2.059.76-3.962,2.111-6.264,1.847a5.113,5.113,0,0,1-3.639-2.516,10.717,10.717,0,0,1-3.019,4.438,14.9,14.9,0,0,1-5.287,2.658c-2.223.682-4.773.934-6.752,2.229a4.917,4.917,0,0,0-2.176,4.37,3.334,3.334,0,0,1,1.355-2.034c1.887-1.293,4.425-1.41,6.629-1.7,2.488-.327,5.571-.607,7.319-2.646a.223.223,0,0,1,.386.121,7.777,7.777,0,0,0,2.263-4.217,5.317,5.317,0,0,0,.308,1.52c.5,1.244,2.259,1.019,3.283.86a14.026,14.026,0,0,0,5.009-2.066c.614-.386,1.159-.8,1.7-1.181a.613.613,0,0,1,.18-.3,5.656,5.656,0,0,1,2.692-1.391,4.4,4.4,0,0,1,.569-.06c-1.335-.777-3.189-.439-4.559.068" transform="translate(-228.401 -73.481)" fill="#fab600"/>
                </g>
              </g>
            </g>
            <g id="Grupo_969976" data-name="Grupo 969976" transform="translate(409.41 144.553)" style="mix-blend-mode: multiply;isolation: isolate">
              <g id="Grupo_969975" data-name="Grupo 969975">
                <g id="Grupo_969974" data-name="Grupo 969974" clip-path="url(#clip-path-18)">
                  <path id="Trazado_733520" data-name="Trazado 733520" d="M224.473,79.681c-.718-1.147-1.868-3.295-3.488-3.206A4.225,4.225,0,0,0,218.469,78c-1.238,1.268-2.242,2.858-1.758,4.688.423,1.6,1.645,2.748,2.6,4.032.181.242.357.49.524.743a4.42,4.42,0,0,0-.866-2.96q-2.535-2.563,3.249-4.816a9.833,9.833,0,0,1,2.514,2.034,5.872,5.872,0,0,0,1.775,1.166c-.762-1.023-1.391-2.172-2.04-3.208" transform="translate(-216.587 -76.471)" fill="#fab600"/>
                </g>
              </g>
            </g>
            <g id="Grupo_969979" data-name="Grupo 969979" transform="translate(382.027 134.165)" style="mix-blend-mode: multiply;isolation: isolate">
              <g id="Grupo_969978" data-name="Grupo 969978">
                <g id="Grupo_969977" data-name="Grupo 969977" clip-path="url(#clip-path-19)">
                  <path id="Trazado_733521" data-name="Trazado 733521" d="M222.336,76.443c2.786,1.488.635,3.945-1.049,5.077a7.969,7.969,0,0,0-2.686,2.852c1.682-1.849,4.8-2.9,6.374-4.694a3.572,3.572,0,0,0-.96-5.247,5.573,5.573,0,0,0-4.508-.55c-1.41.465-2.214,1.9-3.291,2.82-1.438,1.232-3.641,1.766-5.051.212-1.074-1.181-1.37-2.851-2.068-4.244a3.013,3.013,0,0,0-1.323-1.535,3.484,3.484,0,0,0-2.633.3c-2.346.977-3.1,2.917-3.036,5.334.038,1.478.274,3.043.459,4.612a7.469,7.469,0,0,0,.354-.75,17.28,17.28,0,0,0,.72-2.739,3.659,3.659,0,0,1,2.731-3.075c1.69-.263,3.616.652,3.586,2.575a2.5,2.5,0,0,0,.37,1.862c.518.979,2.293,1.214,3.232,1.062,1.456-.231,2.435-.531,3.179-1.809,1.251-2.144,3.334-3.272,5.6-2.066" transform="translate(-202.101 -70.976)" fill="#fab600"/>
                </g>
              </g>
            </g>
            <g id="Grupo_969982" data-name="Grupo 969982" transform="translate(366.813 115.356)" style="mix-blend-mode: multiply;isolation: isolate">
              <g id="Grupo_969981" data-name="Grupo 969981">
                <g id="Grupo_969980" data-name="Grupo 969980" clip-path="url(#clip-path-20)">
                  <path id="Trazado_733522" data-name="Trazado 733522" d="M198.394,68.593a6.636,6.636,0,0,0,2.559,2.59,2.04,2.04,0,0,0,2.083.359c.272-.121.543-.244.815-.367.673-.48.985.1.928,1.747a12.083,12.083,0,0,0-2.045.775c-1.777,1.282-3.45,2.934-3.406,5.077a5.259,5.259,0,0,1,1.319-1.223,29.859,29.859,0,0,1,4.646-1.877,4.78,4.78,0,0,0,3.077-3.062c.486-1.756.159-4.289-2.1-4.5-1.259-.119-2.425.752-3.712.662a3.431,3.431,0,0,1-2.27-1.14c-1.229-1.384-1.149-3.37-2.147-4.86-.62-.926-1.907-2.057-3.119-1.665a2.471,2.471,0,0,0-.973.631,4.3,4.3,0,0,1,1.926.983,8.206,8.206,0,0,1,2.164,4.557c.1.433.176.873.251,1.316" transform="translate(-194.052 -61.026)" fill="#fab600"/>
                </g>
              </g>
            </g>
            <g id="Grupo_969985" data-name="Grupo 969985" transform="translate(362.811 106.118)" style="mix-blend-mode: multiply;isolation: isolate">
              <g id="Grupo_969984" data-name="Grupo 969984">
                <g id="Grupo_969983" data-name="Grupo 969983" clip-path="url(#clip-path-21)">
                  <path id="Trazado_733523" data-name="Trazado 733523" d="M198.785,61.672a8.138,8.138,0,0,1-1.525.193c.287.057.565.11.828.155a11,11,0,0,0,3.144.25c.735-.095,1.185-.352,1.3-1.091a5.575,5.575,0,0,0-1.316-4.161,3.374,3.374,0,0,0-4.083-.37c-1.006.525-1.866,1.344-2.818,1.966a17.789,17.789,0,0,1-2.376,1.327,3.943,3.943,0,0,0,3.909-1.208c3.049-3.523,5.117,2.416,2.941,2.939" transform="translate(-191.935 -56.139)" fill="#fab600"/>
                </g>
              </g>
            </g>
            <g id="Grupo_969988" data-name="Grupo 969988" transform="translate(358.554 30.668)" style="mix-blend-mode: multiply;isolation: isolate">
              <g id="Grupo_969987" data-name="Grupo 969987">
                <g id="Grupo_969986" data-name="Grupo 969986" clip-path="url(#clip-path-22)">
                  <path id="Trazado_733524" data-name="Trazado 733524" d="M189.785,34.4c.5,3.164,3.053,5.164,6.085,5.93,2.221.563,4.353.344,6.053,2.234,2.673,2.979-1.609,4.506-3.253,4.919-.278.07-.669-.285-1.043-.749a6.212,6.212,0,0,0,1.488,2.981c1.414,1.295,3.743-.758,4.7-1.7a5.5,5.5,0,0,0,1.926-3.9,5.38,5.38,0,0,0-1.522-3.4c-2-2.229-4.743-3.3-7.533-4.149-2.5-.762-5.089-1.834-5.76-4.631-.716-2.989,1.457-5.45,3.646-7.153,1.076-.837,2.185-1.628,3.272-2.45a7.356,7.356,0,0,0,2.862-3.3c.6-1.9-.117-2.66-1.342-2.815a3.112,3.112,0,0,1,.578,1.11c1.18,3.9-5.074,6.068-7.417,8.33a10.9,10.9,0,0,0-2.745,8.735" transform="translate(-189.683 -16.224)" fill="#fab600"/>
                </g>
              </g>
            </g>
            <g id="Grupo_969991" data-name="Grupo 969991" transform="translate(355.635 65.328)" style="mix-blend-mode: multiply;isolation: isolate">
              <g id="Grupo_969990" data-name="Grupo 969990">
                <g id="Grupo_969989" data-name="Grupo 969989" clip-path="url(#clip-path-23)">
                  <path id="Trazado_733525" data-name="Trazado 733525" d="M197.464,39.993c.824-2.081.308-4.489-2.008-5.208-2.9-.9-5.4,1.011-7.317,3.35,1.892-.707,3.62-2.5,5.467-1.185,4.143,2.945-1.531,7.552-2.879,10.778-.905,2.161-.943,5.3,1.1,6.909.507.4,1.057.745,1.569,1.1a6,6,0,0,0,.556.928,8.515,8.515,0,0,1,1.191,4.85,2.22,2.22,0,0,1-1.667,2.064c1.214.471,2.773.964,3.652,0a5.1,5.1,0,0,0,.406-5.3,19.865,19.865,0,0,0-3.293-3.909,7.919,7.919,0,0,1-2.329-4.4,7.023,7.023,0,0,1,1.873-5.06c1.253-1.582,2.919-2.992,3.677-4.909" transform="translate(-188.139 -34.561)" fill="#fab600"/>
                </g>
              </g>
            </g>
            <g id="Grupo_969994" data-name="Grupo 969994" transform="translate(483.415 87.853)" style="mix-blend-mode: multiply;isolation: isolate">
              <g id="Grupo_969993" data-name="Grupo 969993">
                <g id="Grupo_969992" data-name="Grupo 969992" clip-path="url(#clip-path-24)">
                  <path id="Trazado_733526" data-name="Trazado 733526" d="M264.109,50.7c-.359-1.236-.34-2.679-1.387-3.58-2.348-2.024-5.081,1.18-5.953,3.219a13.079,13.079,0,0,0-.936,6.59c.316,2.31,2.036,4.6,4.637,4.181a5.559,5.559,0,0,0,1.552-.527,3.161,3.161,0,0,1-4.077-2.359c-.711-2.522.07-8.741,3.748-8.627,1.779.057,2.259,1.6,2.858,2.979a4.727,4.727,0,0,0,1.3.537,4.1,4.1,0,0,1-1.741-2.412" transform="translate(-255.737 -46.476)" fill="#fab600"/>
                </g>
              </g>
            </g>
            <g id="Grupo_969997" data-name="Grupo 969997" transform="translate(399.843 14.351)" style="mix-blend-mode: multiply;isolation: isolate">
              <g id="Grupo_969996" data-name="Grupo 969996">
                <g id="Grupo_969995" data-name="Grupo 969995" clip-path="url(#clip-path-25)">
                  <path id="Trazado_733527" data-name="Trazado 733527" d="M214.722,11.851a5.731,5.731,0,0,1-1.431,3.486c-1.043,1.418-2.535,3.688-1.3,5.431.949,1.338,2.9,1.654,4.425,1.628a7.141,7.141,0,0,0,5.034-1.892,2.642,2.642,0,0,0,.879-2.363,6.82,6.82,0,0,0-1.1-2.059c-.934-1.45-1.484-2.989-.611-4.62a13.029,13.029,0,0,1,3.992-3.869,13.251,13.251,0,0,0-2.168,1.45,6.959,6.959,0,0,0-3.45,3.546c-.622,1.361-.756,2.815.331,3.905,5.652,5.665-7.3,4.382-5.648,1.616.972-1.624,2.238-2.391,2.191-4.361a3.178,3.178,0,0,0-1.195-2.274c.013.125.049.248.051.376" transform="translate(-211.526 -7.592)" fill="#fab600"/>
                </g>
              </g>
            </g>
            <g id="Grupo_970000" data-name="Grupo 970000" transform="translate(370.559 29.078)" opacity="0.67" style="mix-blend-mode: multiply;isolation: isolate">
              <g id="Grupo_969999" data-name="Grupo 969999">
                <g id="Grupo_969998" data-name="Grupo 969998" clip-path="url(#clip-path-26)">
                  <path id="Trazado_733528" data-name="Trazado 733528" d="M305.152,69.94A54.559,54.559,0,1,1,250.6,15.383,54.559,54.559,0,0,1,305.152,69.94" transform="translate(-196.034 -15.383)" fill="#f6861f"/>
                </g>
              </g>
            </g>
            <path id="Trazado_733529" data-name="Trazado 733529" d="M303.1,69.372a53.166,53.166,0,1,1-53.164-53.164A53.165,53.165,0,0,1,303.1,69.372" transform="translate(175.181 14.43)" fill="#f18019"/>
            <g id="Grupo_970003" data-name="Grupo 970003" transform="translate(371.952 30.64)" opacity="0.3" style="mix-blend-mode: multiply;isolation: isolate">
              <g id="Grupo_970002" data-name="Grupo 970002">
                <g id="Grupo_970001" data-name="Grupo 970001" clip-path="url(#clip-path-27)">
                  <path id="Trazado_733530" data-name="Trazado 733530" d="M249.939,16.208A53.164,53.164,0,1,0,303.1,69.372a53.164,53.164,0,0,0-53.162-53.164m36.133,45.316A46.242,46.242,0,0,1,277.318,86c-10.225,14.315-28.173,23.92-45.96,20.048a35.561,35.561,0,0,1-21.638-14.185,44.074,44.074,0,0,1-7.635-24.443c-.163-8.828,1.86-18.1,6.557-25.657a46.669,46.669,0,0,1,10.788-12.1,32.663,32.663,0,0,1,4.085-2.745,36.457,36.457,0,0,1,8.425-3.773,51.364,51.364,0,0,1,6.278-1.629,44.659,44.659,0,0,1,14.593-.459,38.031,38.031,0,0,1,24.68,14.415,39.541,39.541,0,0,1,8.582,26.048" transform="translate(-196.771 -16.21)" fill="#f18419"/>
                </g>
              </g>
            </g>
            <g id="Grupo_970006" data-name="Grupo 970006" transform="translate(371.952 43.17)" opacity="0.3" style="mix-blend-mode: multiply;isolation: isolate">
              <g id="Grupo_970005" data-name="Grupo 970005">
                <g id="Grupo_970004" data-name="Grupo 970004" clip-path="url(#clip-path-28)">
                  <path id="Trazado_733531" data-name="Trazado 733531" d="M284.219,22.839A54.827,54.827,0,0,1,295.343,63.35a52.7,52.7,0,0,1-8.979,23.784,52.69,52.69,0,0,1-23.281,18.277,49.349,49.349,0,0,1-33.723,1.437c-9.593-3.117-18.137-8.786-23.606-17.377-4.971-7.813-7.389-17.009-8.145-26.177-.208-2.5-.3-5.013-.282-7.527a53.167,53.167,0,1,0,105.773,7.7,53.047,53.047,0,0,0-18.882-40.632" transform="translate(-196.771 -22.837)" fill="#f18419"/>
                </g>
              </g>
            </g>
            <g id="Grupo_970009" data-name="Grupo 970009" transform="translate(383.84 46.367)" opacity="0.4" style="mix-blend-mode: screen;isolation: isolate">
              <g id="Grupo_970008" data-name="Grupo 970008">
                <g id="Grupo_970007" data-name="Grupo 970007" clip-path="url(#clip-path-29)">
                  <path id="Trazado_733532" data-name="Trazado 733532" d="M228.008,26.464a5.709,5.709,0,0,0-5.213-1.911,12.051,12.051,0,0,0-6.612,2.609,19.375,19.375,0,0,0-3.971,2.769,29.988,29.988,0,0,0-7.644,11.627c-1.5,3.788-2.357,8.429-.246,12.141,2.268,3.983,6.508,2.548,9.7.692,3.99-2.319,7.351-6.274,9.947-10.015,2.65-3.811,4.905-8.376,5.351-13.039a6.085,6.085,0,0,0-1.306-4.873" transform="translate(-203.06 -24.528)" fill="#f7aa55"/>
                </g>
              </g>
            </g>
            <g id="Grupo_970012" data-name="Grupo 970012" transform="translate(382.014 79.193)" opacity="0.4" style="mix-blend-mode: screen;isolation: isolate">
              <g id="Grupo_970011" data-name="Grupo 970011">
                <g id="Grupo_970010" data-name="Grupo 970010" clip-path="url(#clip-path-30)">
                  <path id="Trazado_733533" data-name="Trazado 733533" d="M209.561,44.409c-1.318-2.707-5.457-3.686-6.958-.612a5.266,5.266,0,0,0-.474,2.9c-.164,2.607,1.446,5.251,4.363,5.047,3.282-.229,4.244-4.924,3.07-7.332" transform="translate(-202.095 -41.895)" fill="#f7aa55"/>
                </g>
              </g>
            </g>
            <path id="Trazado_733534" data-name="Trazado 733534" d="M189.838,106.167a2.986,2.986,0,1,1,2.985-2.985,2.985,2.985,0,0,1-2.985,2.985" transform="translate(166.352 89.203)" fill="#2e3192"/>
            <rect id="Rectángulo_341409" data-name="Rectángulo 341409" width="41.86" height="2.283" transform="translate(356.189 191.242)" fill="#2e3192"/>
            <path id="Trazado_733535" data-name="Trazado 733535" d="M69.563,89.344a2.986,2.986,0,1,1-2.985-2.985,2.985,2.985,0,0,1,2.985,2.985" transform="translate(56.615 76.884)" fill="#2e3192"/>
            <rect id="Rectángulo_341410" data-name="Rectángulo 341410" width="2.283" height="36.367" transform="translate(122.05 129.858)" fill="#2e3192"/>
          </g>
        </g>
      </g>
    </g>
    <text id="Atmósfera" transform="translate(1038 5066)" fill="#12263f" font-size="18" font-family="Roboto-Black, Roboto" font-weight="800"><tspan x="-42.776" y="0">Atmósfera</tspan></text>
    <text id="Reflexión_solar" data-name="Reflexión solar" transform="translate(1353 5176)" fill="#12263f" font-size="18" font-family="Roboto-Black, Roboto" font-weight="800"><tspan x="-61.176" y="0">Reflexión solar</tspan></text>
    <text id="Sol" transform="translate(1344 5037)" fill="#fff" font-size="18" font-family="Roboto-Black, Roboto" font-weight="800"><tspan x="-13.162" y="0">Sol</tspan></text>
  </g>
</svg>
