<svg id="Grupo_970514" data-name="Grupo 970514" xmlns="http://www.w3.org/2000/svg" xmlns:xlink="http://www.w3.org/1999/xlink" width="170.533" height="279.357" viewBox="0 0 170.533 279.357">
  <defs>
    <clipPath id="clip-path">
      <rect id="Rectángulo_341025" data-name="Rectángulo 341025" width="170.533" height="279.357" fill="none"/>
    </clipPath>
    <clipPath id="clip-path-2">
      <rect id="Rectángulo_341024" data-name="Rectángulo 341024" width="170.533" height="279.358" fill="none"/>
    </clipPath>
    <clipPath id="clip-path-3">
      <rect id="Rectángulo_341022" data-name="Rectángulo 341022" width="9.571" height="14.461" fill="none"/>
    </clipPath>
    <clipPath id="clip-path-4">
      <rect id="Rectángulo_341023" data-name="Rectángulo 341023" width="9.568" height="14.464" fill="none"/>
    </clipPath>
  </defs>
  <g id="Grupo_965398" data-name="Grupo 965398" clip-path="url(#clip-path)">
    <g id="Grupo_965397" data-name="Grupo 965397" transform="translate(0 -0.001)">
      <g id="Grupo_965396" data-name="Grupo 965396" clip-path="url(#clip-path-2)">
        <path id="Trazado_730015" data-name="Trazado 730015" d="M147.88,450.748s-19.9,17.627-3.1,25.041c0,0-24.491,15.016-8.939,24,0,0-19.5,11.327-5.756,19.975S180.82,510.9,180.82,510.9V454.192Z" transform="translate(-100.573 -362.157)" fill="#140a0a"/>
        <path id="Trazado_730016" data-name="Trazado 730016" d="M141.709,601.477s-16.674,14.281-4.412,20.4c1.777.885,2.7,1.777,2.992,2.657-3.983-.026-7.537-.717-10.208-2.4-13.747-8.648,5.756-19.975,5.756-19.975-15.553-8.986,8.939-24,8.939-24s-16.241,18.537-3.068,23.32" transform="translate(-100.573 -464.525)" fill="#230d0d"/>
        <path id="Trazado_730017" data-name="Trazado 730017" d="M493.012,432.692s7.209,21.983-3.612,26.99c0,0,27.217,12.849,9.4,20.386,0,0,9.2,4.214,3.212,7.32,0,0,23.158,22.509-.346,27.609s-54.631,2.087-54.631,2.087l-2.591-47.433,9.537-29.593Z" transform="translate(-357.093 -347.65)" fill="#140a0a"/>
        <path id="Trazado_730018" data-name="Trazado 730018" d="M15.873,1131.165c.328-2.178.609-4.279.825-6.266,0,0,8.593-31.931,14.554-48.2L9.346,1060.175c-4.181,37.078-5.954,54.965-7.875,63.1,0,0-.53,2.682-1.471,7.892Z" transform="translate(0 -851.807)" fill="#f19367"/>
        <path id="Trazado_730019" data-name="Trazado 730019" d="M724.048,1131.165h15.873c-.939-5.21-1.469-7.892-1.469-7.892-1.921-8.133-3.7-26.02-7.875-63.1L708.671,1076.7c5.958,16.266,14.554,48.2,14.554,48.2.216,1.988.5,4.089.824,6.266" transform="translate(-569.388 -851.807)" fill="#f19367"/>
        <path id="Trazado_730020" data-name="Trazado 730020" d="M132.554,648.792a8.767,8.767,0,0,1,3.01-4.5c3.255-1.774,38.371-11.765,38.371-11.765,6.322-8.842,4.981-21.882,4.981-21.882l12.825-5.834v-.085l.115.042.112-.042v.085l12.817,5.834s.02,16.111,4.992,21.882c0,0,36.667,10.638,39.918,12.413.464.252.944,1.618,1.38,3.849l-62.384,32.926Z" transform="translate(-106.502 -485.874)" fill="#e57a4e"/>
        <path id="Trazado_730021" data-name="Trazado 730021" d="M729.63,1181.132c.685-1.011,1.171-1.618,1.171-1.618l19.136-4.628c1.117,10.016,2.015,17.968,2.8,24.257a46.517,46.517,0,0,1-17.276,1.445c-1.744-6.058-3.8-13.011-5.832-19.456" transform="translate(-586.228 -943.972)" fill="#df7549"/>
        <path id="Trazado_730022" data-name="Trazado 730022" d="M678.788,942.828l-13.783-35.7.14-42.963c.364-1.846.627-2.552.761-1.745,1.063,6.516,8.25,9.029,18.281,32.943,9.162,21.85,4.689,43.674,3.846,47.284a24.924,24.924,0,0,1-9.245.184" transform="translate(-534.305 -692.65)" fill="#cc740f"/>
        <path id="Trazado_730023" data-name="Trazado 730023" d="M25.632,1162.544l20.08,8.537c-1.82,5.751-3.651,11.911-5.269,17.492a29.086,29.086,0,0,1-17.373-3.527c.728-6.09,1.557-13.509,2.563-22.5" transform="translate(-18.535 -934.056)" fill="#df7549"/>
        <path id="Trazado_730024" data-name="Trazado 730024" d="M84.346,931.316c-.288-13.305,17.809-46.57,17.809-46.57l5.353,11.361.094,29.224-13.783,35.7a24.853,24.853,0,0,1-9.462-.229c.047-3.028.245-17.626-.01-29.489" transform="translate(-67.766 -710.857)" fill="#cc740f"/>
        <path id="Trazado_730025" data-name="Trazado 730025" d="M387.293,620.81c-5.937,4.01-15.957,10.051-21.113,9.05a20.394,20.394,0,0,1-7.51-3.33,41.158,41.158,0,0,0,1.921-15.882l12.824-5.834v-.085l.115.042.112-.042v.085l12.817,5.834a75.512,75.512,0,0,0,.833,10.162" transform="translate(-288.178 -485.874)" fill="#bd502a"/>
        <path id="Trazado_730026" data-name="Trazado 730026" d="M32.065,862.136l5.357-13.877c1.957,8.3,3.855,14.223,3.855,14.223,2.328,8.186,3.639,18,4.08,28.835h91.3c1.815-15.327,7.382-32.1,7.382-32.1.921-2.532,1.7-5.079,2.384-7.627l4.071,10.545c16.764,2.683,24.581-11.089,24.581-11.089s-4.487-58.877-10.052-68.078c-7.54-12.471-28.117-16.115-28.117-16.115v.024l-16.862-5.106c-5.756,11.658-23.19,36.62-30.1,36.5-12.387-.223-28.936-36.613-28.936-36.613l-15.355,5.2S25.076,770.5,17.536,782.969c-5.565,9.2-10.052,68.078-10.052,68.078s7.817,13.772,24.581,11.089" transform="translate(-6.013 -611.959)" fill="#f1951e"/>
        <path id="Trazado_730027" data-name="Trazado 730027" d="M191.871,376.85s-3.975-6.982-10.175-7.079c-3.68-.057-2.592,15.052,1.2,18.955s9.31,2.6,10.539-.852Z" transform="translate(-144.164 -297.095)" fill="#f19367"/>
        <g id="Grupo_965392" data-name="Grupo 965392" transform="translate(37.289 76.162)" opacity="0.4">
          <g id="Grupo_965391" data-name="Grupo 965391">
            <g id="Grupo_965390" data-name="Grupo 965390" clip-path="url(#clip-path-3)">
              <path id="Trazado_730028" data-name="Trazado 730028" d="M199.3,401.628s-4.628,1.626-6.625-2.231-3.932-8.488-2.386-11.891c0,0,4.267.995,8.21,8.958,0,0-2.89,3.587.8,5.163" transform="translate(-189.729 -387.507)" fill="#c6442b"/>
            </g>
          </g>
        </g>
        <path id="Trazado_730029" data-name="Trazado 730029" d="M188.814,390.819a19.7,19.7,0,0,1-.135-2.193,7.7,7.7,0,0,1,.231-2.233,1.481,1.481,0,0,1,.31-.584.66.66,0,0,1,.409-.2.739.739,0,0,1,.4.082l.5.219.5.3a7.3,7.3,0,0,1,.94.642c.292.229.605.436.876.689a17.309,17.309,0,0,1,1.616,1.528c.25.274.529.521.755.817l.693.874a6.832,6.832,0,0,1,.644.911l.6.946a8.376,8.376,0,0,1,.5,1l.467,1.019.086.188-.144.166a6.025,6.025,0,0,0-.893,1.372,3.849,3.849,0,0,0-.273.767,2.279,2.279,0,0,0-.067.4,2.349,2.349,0,0,0-.009.4,2.692,2.692,0,0,0,.182.77l.209.347a2.1,2.1,0,0,0,.272.31,3.606,3.606,0,0,0,.662.524c.246.143.508.268.766.4-.273-.093-.558-.171-.831-.282a3.805,3.805,0,0,1-.761-.466,2.37,2.37,0,0,1-.339-.3l-.286-.368-.2-.428a3.151,3.151,0,0,1-.109-.461,2.747,2.747,0,0,1-.026-.47,2.7,2.7,0,0,1,.044-.465,4.347,4.347,0,0,1,.243-.89,6.564,6.564,0,0,1,.886-1.6l-.059.353-.482-.951a7.736,7.736,0,0,0-.507-.935,20.222,20.222,0,0,0-1.216-1.756l-.672-.835c-.213-.287-.48-.528-.718-.8s-.479-.532-.743-.774l-.785-.733c-.253-.256-.543-.463-.816-.694a10.235,10.235,0,0,0-.832-.637l-.418-.3-.484-.256c-.157-.081-.1-.065-.191-.026a.992.992,0,0,0-.216.364,9.866,9.866,0,0,0-.409,2.08c-.081.72-.121,1.448-.162,2.178" transform="translate(-151.595 -309.813)" fill="#874237"/>
        <path id="Trazado_730030" data-name="Trazado 730030" d="M196.154,408.129a.854.854,0,0,1,.056-.255,2.188,2.188,0,0,1,.335-.629,2.951,2.951,0,0,1,1.344-.85l.59-.091a1.617,1.617,0,0,1,.585.006c.19.02.374.064.552.095a1.736,1.736,0,0,1,.5.136c.149.065.287.136.412.2a4.977,4.977,0,0,1,.794.5,6.048,6.048,0,0,1-.924-.042c-.132-.014-.274-.031-.419-.058a2.872,2.872,0,0,0-.461-.017c-.158-.006-.321,0-.483-.018a1.194,1.194,0,0,0-.483.02l-.477.043a3.316,3.316,0,0,0-.44.116,1.539,1.539,0,0,0-.408.141c-.12.065-.247.115-.363.17a6.234,6.234,0,0,0-.509.362,1.533,1.533,0,0,0-.2.171" transform="translate(-157.602 -326.429)" fill="#874237"/>
        <path id="Trazado_730031" data-name="Trazado 730031" d="M263.292,238.157s-17.7-9-23.842-19.1c-5.057-7.092-11.011-43.251-11.621-48.866-.018-.188-.043-.372-.061-.559s-.029-.275-.029-.275l.008.005c-.1-1.163-.163-2.334-.163-3.521a39.2,39.2,0,0,1,78.405,0,39.621,39.621,0,0,1-.224,4.167h0s-6.109,41.28-11.646,49.049c-6.509,11.588-23.842,19.1-23.842,19.1a11.636,11.636,0,0,1-6.989,0" transform="translate(-182.855 -101.745)" fill="#f19367"/>
        <path id="Trazado_730032" data-name="Trazado 730032" d="M603.5,385.246s3.979-6.987,10.175-7.082c3.68-.057,2.592,15.055-1.2,18.957s-9.314,2.6-10.539-.854Z" transform="translate(-483.633 -303.839)" fill="#f19367"/>
        <g id="Grupo_965395" data-name="Grupo 965395" transform="translate(120.716 77.811)" opacity="0.4">
          <g id="Grupo_965394" data-name="Grupo 965394">
            <g id="Grupo_965393" data-name="Grupo 965393" clip-path="url(#clip-path-4)">
              <path id="Trazado_730033" data-name="Trazado 730033" d="M614.206,410.021s4.624,1.625,6.621-2.233,3.936-8.488,2.386-11.892c0,0-4.267.995-8.21,8.958,0,0,2.89,3.59-.8,5.167" transform="translate(-614.206 -395.897)" fill="#c6442b"/>
            </g>
          </g>
        </g>
        <path id="Trazado_730034" data-name="Trazado 730034" d="M622,399.215c-.041-.73-.082-1.458-.163-2.178a9.854,9.854,0,0,0-.409-2.08,1.017,1.017,0,0,0-.217-.364c-.093-.04-.038-.054-.19.025l-.485.256-.418.3a10.419,10.419,0,0,0-.831.637c-.273.231-.563.438-.817.694l-.784.733c-.264.241-.495.517-.744.774s-.505.508-.718.8l-.672.834a20.1,20.1,0,0,0-1.216,1.755,7.676,7.676,0,0,0-.507.935l-.483.95-.058-.353a6.576,6.576,0,0,1,.886,1.6,4.354,4.354,0,0,1,.243.89,2.658,2.658,0,0,1,.044.465,2.788,2.788,0,0,1-.026.47,3.165,3.165,0,0,1-.109.461l-.2.428-.286.368a2.4,2.4,0,0,1-.34.305,3.824,3.824,0,0,1-.76.466c-.273.111-.558.188-.831.282.259-.137.52-.261.766-.4a3.63,3.63,0,0,0,.663-.525,2.122,2.122,0,0,0,.271-.31l.209-.347a2.7,2.7,0,0,0,.181-.769,2.341,2.341,0,0,0-.009-.4,2.2,2.2,0,0,0-.067-.4,3.791,3.791,0,0,0-.272-.767,6.043,6.043,0,0,0-.893-1.373l-.145-.166.086-.188.467-1.019a8.5,8.5,0,0,1,.5-1l.6-.945a6.78,6.78,0,0,1,.645-.911l.694-.873c.226-.3.506-.543.755-.817a17.314,17.314,0,0,1,1.616-1.528c.27-.253.583-.461.875-.688a7.182,7.182,0,0,1,.94-.642l.5-.3.5-.219a.733.733,0,0,1,.4-.082.668.668,0,0,1,.407.2,1.488,1.488,0,0,1,.31.584,7.659,7.659,0,0,1,.232,2.233,19.486,19.486,0,0,1-.134,2.193" transform="translate(-491.646 -316.559)" fill="#874237"/>
        <path id="Trazado_730035" data-name="Trazado 730035" d="M635.357,416.53a1.5,1.5,0,0,0-.2-.17,6.07,6.07,0,0,0-.509-.362c-.115-.054-.242-.1-.363-.17a1.553,1.553,0,0,0-.408-.14,3.218,3.218,0,0,0-.439-.115l-.477-.043a1.192,1.192,0,0,0-.483-.019c-.163.018-.325.011-.483.018a2.744,2.744,0,0,0-.461.017c-.145.028-.287.044-.419.058a6.1,6.1,0,0,1-.923.042,5.006,5.006,0,0,1,.793-.5c.125-.067.263-.138.412-.2a1.733,1.733,0,0,1,.5-.136c.177-.03.362-.075.552-.094a1.6,1.6,0,0,1,.584-.007l.589.09a2.39,2.39,0,0,1,.54.222,2.416,2.416,0,0,1,.8.627,2.2,2.2,0,0,1,.335.628.851.851,0,0,1,.056.255" transform="translate(-506.337 -333.182)" fill="#874237"/>
        <path id="Trazado_730036" data-name="Trazado 730036" d="M397.769,499.537s-.05,5.131,1.363,5.876.58-2.88-1.363-5.876" transform="translate(-319.591 -401.357)" fill="#521b14"/>
        <path id="Trazado_730037" data-name="Trazado 730037" d="M298.434,383.585s-1.747-5.616-5.644-8.771c-5.565-4.513-15.665-2.756-15.131,5.7,0,0,.386,7.8,7.439,8.82,5.71.825,11.221-1.708,13.336-5.753" transform="translate(-223.071 -299.206)" fill="#fff"/>
        <path id="Trazado_730038" data-name="Trazado 730038" d="M297.977,380.679s-.2-.448-.607-1.2c-.194-.378-.447-.827-.747-1.334-.28-.517-.669-1.057-1.049-1.664-.188-.305-.436-.588-.662-.9a10.235,10.235,0,0,0-.733-.93l-.832-.923c-.294-.3-.63-.567-.948-.861l-.487-.436-.547-.363c-.2-.125-.394-.272-.589-.382l-.574-.29a10.2,10.2,0,0,0-2.535-.893,13.285,13.285,0,0,0-1.344-.229c-.451-.044-.9-.037-1.351-.056-.442.052-.89.056-1.321.123a9.035,9.035,0,0,0-1.256.285,7.073,7.073,0,0,0-1.156.45,4.81,4.81,0,0,0-1.027.589l-.468.33c-.14.124-.26.264-.394.388l-.389.376c-.115.133-.2.284-.306.42a8.266,8.266,0,0,0-.91,1.654c-.131.552-.316,1.035-.376,1.45-.106.845-.166,1.327-.166,1.327s-.057-.479-.129-1.35a13.024,13.024,0,0,1,.122-1.579,7.407,7.407,0,0,1,.736-1.959c.1-.17.18-.353.292-.522l.387-.487c.133-.165.267-.337.417-.5l.506-.433a5.924,5.924,0,0,1,1.134-.8,6.839,6.839,0,0,1,1.311-.606,10.52,10.52,0,0,1,2.94-.6c.509.008,1.027,0,1.541.036a14.186,14.186,0,0,1,1.533.234,11.634,11.634,0,0,1,2.907,1.089l.689.381c.21.136.385.282.577.421l.6.447.517.51c.332.345.7.654.978,1.013l.8,1.068a18,18,0,0,1,1.25,2.07,19.785,19.785,0,0,1,1.336,3.322,12.267,12.267,0,0,1,.334,1.309" transform="translate(-222.614 -296.3)" fill="#0e1115"/>
        <path id="Trazado_730039" data-name="Trazado 730039" d="M290.694,391.139c-1.157-5.183-4.765-8.791-8.055-8.056-2.48.551-4.073,3.41-4.217,7,.393,2.163,1.867,6.973,7.306,7.762a15.175,15.175,0,0,0,4.83-.09,13.109,13.109,0,0,0,.137-6.618" transform="translate(-223.7 -307.715)" fill="#34110f"/>
        <path id="Trazado_730040" data-name="Trazado 730040" d="M318.761,390.79c.306.73-.54,1.788-1.9,2.364s-2.7.452-3.013-.278.541-1.784,1.9-2.359,2.7-.454,3.014.272" transform="translate(-252.117 -313.472)" fill="#fff"/>
        <path id="Trazado_730041" data-name="Trazado 730041" d="M495.165,374.959s-1.751-5.616-5.648-8.773c-5.565-4.513-15.661-2.756-15.135,5.7,0,0,.385,7.8,7.447,8.818,5.706.825,11.215-1.7,13.336-5.749" transform="translate(-381.131 -292.274)" fill="#fff"/>
        <path id="Trazado_730042" data-name="Trazado 730042" d="M494.71,372.053s-.2-.448-.608-1.2c-.195-.378-.448-.827-.748-1.334-.281-.517-.669-1.056-1.05-1.664-.188-.3-.436-.587-.662-.9a10.291,10.291,0,0,0-.733-.931l-.832-.923c-.293-.3-.63-.567-.948-.862l-.487-.436-.547-.363c-.195-.126-.393-.272-.588-.383l-.575-.291a10.209,10.209,0,0,0-2.535-.892,13.251,13.251,0,0,0-1.344-.23c-.451-.044-.9-.037-1.351-.057-.442.053-.89.057-1.321.123a8.969,8.969,0,0,0-1.256.285,7.067,7.067,0,0,0-1.156.449,4.805,4.805,0,0,0-1.027.589l-.469.33c-.14.124-.261.264-.395.388l-.389.376c-.115.133-.2.283-.305.42a8.257,8.257,0,0,0-.911,1.654c-.131.552-.316,1.035-.377,1.45l-.167,1.327s-.056-.479-.128-1.351a13.261,13.261,0,0,1,.123-1.579,7.429,7.429,0,0,1,.738-1.959c.1-.169.18-.353.292-.522l.387-.487c.134-.165.268-.336.417-.5l.506-.433a5.876,5.876,0,0,1,1.135-.8,6.869,6.869,0,0,1,1.311-.607,10.531,10.531,0,0,1,2.941-.6c.509.009,1.027,0,1.54.036a13.959,13.959,0,0,1,1.534.234,11.569,11.569,0,0,1,2.907,1.089l.69.38c.21.136.385.282.577.421l.6.447.517.511c.332.345.695.653.977,1.013l.8,1.068a17.977,17.977,0,0,1,1.25,2.071,19.864,19.864,0,0,1,1.338,3.321,12.376,12.376,0,0,1,.334,1.308" transform="translate(-380.676 -289.368)" fill="#0e1115"/>
        <path id="Trazado_730043" data-name="Trazado 730043" d="M487.443,382.52c-1.157-5.185-4.762-8.79-8.052-8.056-2.476.55-4.073,3.41-4.214,7,.39,2.166,1.863,6.976,7.306,7.76a15.138,15.138,0,0,0,4.826-.088,13.07,13.07,0,0,0,.134-6.616" transform="translate(-381.785 -300.789)" fill="#34110f"/>
        <path id="Trazado_730044" data-name="Trazado 730044" d="M515.5,382.17c.314.728-.537,1.784-1.889,2.36s-2.707.454-3.014-.274.537-1.788,1.889-2.361,2.707-.452,3.013.274" transform="translate(-410.193 -306.545)" fill="#fff"/>
        <path id="Trazado_730045" data-name="Trazado 730045" d="M542.336,463.9a5.386,5.386,0,0,1-.542-.351c-.15-.119-.338-.243-.515-.4l-.555-.5-.515-.539c-.166-.171-.3-.355-.42-.5a5.267,5.267,0,0,1-.368-.531,5.222,5.222,0,0,1,.543.35c.149.12.338.243.514.4l.555.5.515.54c.165.172.3.356.419.5a5.337,5.337,0,0,1,.369.53" transform="translate(-433.402 -370.46)" fill="#79332d"/>
        <path id="Trazado_730046" data-name="Trazado 730046" d="M536.136,464.088s.244.289.563.749c.152.234.347.5.525.8l.559.937.508.966c.164.307.286.612.406.864.226.512.345.871.345.871s-.244-.289-.564-.749c-.152-.234-.348-.5-.524-.8l-.559-.938-.507-.966c-.163-.308-.286-.612-.406-.864-.225-.512-.345-.871-.345-.871" transform="translate(-430.763 -372.875)" fill="#79332d"/>
        <path id="Trazado_730047" data-name="Trazado 730047" d="M527.279,468.271a3.972,3.972,0,0,1,.38.4c.1.13.228.271.337.441l.346.53c.1.191.2.382.294.56s.154.361.22.51a3.89,3.89,0,0,1,.164.528,3.932,3.932,0,0,1-.38-.4c-.1-.13-.229-.271-.338-.441l-.345-.53-.294-.56c-.094-.179-.154-.362-.22-.51a3.951,3.951,0,0,1-.164-.527" transform="translate(-423.647 -376.236)" fill="#79332d"/>
        <path id="Trazado_730048" data-name="Trazado 730048" d="M300.336,472.989a5.445,5.445,0,0,1,.369-.531c.125-.145.256-.329.42-.5l.515-.539.557-.5c.176-.16.365-.284.515-.4a5.24,5.24,0,0,1,.543-.35,5.3,5.3,0,0,1-.369.531c-.124.145-.254.33-.42.5l-.515.539-.557.5c-.177.159-.365.284-.515.4a5.318,5.318,0,0,1-.543.351" transform="translate(-241.308 -377.761)" fill="#79332d"/>
        <path id="Trazado_730049" data-name="Trazado 730049" d="M306.593,473.177s-.119.358-.344.871c-.12.252-.243.555-.406.863l-.507.966-.558.937c-.176.3-.372.562-.524.8-.319.459-.563.748-.563.748s.119-.359.344-.871c.12-.251.242-.556.406-.863l.507-.965.559-.936c.177-.3.371-.563.524-.8.319-.46.562-.748.562-.748" transform="translate(-244.003 -380.178)" fill="#79332d"/>
        <path id="Trazado_730050" data-name="Trazado 730050" d="M320.2,477.349a3.932,3.932,0,0,1-.164.527c-.065.149-.125.332-.22.51s-.193.37-.294.561l-.345.53c-.108.17-.241.311-.337.441a3.926,3.926,0,0,1-.38.4,3.906,3.906,0,0,1,.164-.528c.066-.148.124-.332.22-.509l.294-.56.345-.53c.109-.17.24-.311.338-.441a3.952,3.952,0,0,1,.38-.4" transform="translate(-255.866 -383.53)" fill="#79332d"/>
        <path id="Trazado_730051" data-name="Trazado 730051" d="M496.135,322.047s-9.177-5.273-16.165-3.471c0,0-5.032,1.09-5.211,2.725,0,0,8.145-1.784,21.377.746" transform="translate(-381.449 -255.661)" fill="#230d0d"/>
        <path id="Trazado_730052" data-name="Trazado 730052" d="M285.034,328.855s-9.288-5.267-16.277-3.469c0,0-4.92,1.092-5.1,2.726,0,0,8.146-1.782,21.378.743" transform="translate(-211.837 -261.133)" fill="#230d0d"/>
        <path id="Trazado_730053" data-name="Trazado 730053" d="M562.163,371.2s3.6-2.588,2.773-9.148c0,0-2.434,3.766-6.263,4.1Z" transform="translate(-448.872 -290.893)" fill="#0e1115"/>
        <path id="Trazado_730054" data-name="Trazado 730054" d="M262.595,370.182a7.5,7.5,0,0,1-6.153-2.776s-.645,5.878,4.141,8.04a39.764,39.764,0,0,1,2.011-5.264" transform="translate(-206.017 -295.195)" fill="#0e1115"/>
        <path id="Trazado_730055" data-name="Trazado 730055" d="M394.248,547.98s.779,9.458-8.805,11.154c-8.568,1.518-10.175-7.958-10.175-7.958s4.891,1.7,7.652,1.455,11.375-4.3,11.328-4.65" transform="translate(-301.513 -440.279)" fill="#e23c43"/>
        <path id="Trazado_730056" data-name="Trazado 730056" d="M405.557,546.726s-9.822-3.017-12.737,2.454c0,0,4.552.512,12.737-2.454" transform="translate(-315.615 -438.605)" fill="#e23c43"/>
        <path id="Trazado_730057" data-name="Trazado 730057" d="M375.6,547.948a47.709,47.709,0,0,0,18-3.363.447.447,0,0,1,.587.195c.256.368-.735,6.365-9.195,7.862,0,0-6.621,1.028-9.721-4.229,0,0,0-.595.332-.465" transform="translate(-301.513 -437.516)" fill="#fff"/>
        <path id="Trazado_730058" data-name="Trazado 730058" d="M405.056,1206.944s-8.1,10.191-12.5,18.979H405c1.814-15.327,7.382-32.1,7.382-32.1a94.508,94.508,0,0,0,4.184-15.712,32.48,32.48,0,0,1-30.049,11.534c-21.1-3.107-36.184-10.265-45.051-6.686,0,0,26.611,4.022,34.151,10.676s21.615,13.307,29.437,13.307" transform="translate(-274.356 -946.565)" fill="#cc740f"/>
        <path id="Trazado_730059" data-name="Trazado 730059" d="M184.362,76.227s-3.514,4.727-4.762,5.175-5.34-22.614-5.179-30.6c0,0-26.387,4.435-36.508-10.424,0,0-16.133,21.837-30.871,26l-.447,12.4s-5.479-5.981-9.328-6.111c0,0-14.713-6.873-10.236-17.652,0,0-12.738-1.773-12.683-11.074.025-4.293,3.546-11.988,15.3-13.322,0,0-14.19-18.256,13.88-13.082,0,0,29.484-22.324,43.118-16.611l3.108,3.154a19.225,19.225,0,0,1,7.165-.883c3.107.442,26.672,1.256,33.1,35.185,0,0,28.03,23.189,10.737,33.106,0,0,12.415,17.19-9.85,17.089,0,0,4.75-16.376-6.542-12.355" transform="translate(-59.735 0.005)" fill="#230d0d"/>
        <path id="Trazado_730060" data-name="Trazado 730060" d="M265.954.931l3.107,3.154a19.227,19.227,0,0,1,7.165-.883,33.021,33.021,0,0,1,23.068,11.931c-9.649-6.387-22.033-11.455-31.351-4.466,0,0-1.622-4.656-5.331-4.656-6.369,0-23.252,2.642-39.777,11.532,0,0,29.484-22.324,43.118-16.611" transform="translate(-179.04 0.004)" fill="#341313"/>
        <path id="Trazado_730061" data-name="Trazado 730061" d="M218.593,88.527c-.645.346-.973.254-1.038-.182.338.057.685.115,1.038.182" transform="translate(-174.797 -70.981)" fill="#341313"/>
        <path id="Trazado_730062" data-name="Trazado 730062" d="M677.239,286.61s12.415,17.19-9.85,17.09a26.448,26.448,0,0,0,.955-7.754c9.649-4.394,3.572-14.447,3.572-14.447,8.506-.1,8.694-7.544,7.364-13.765,4.222,6.71,6.041,14.241-2.04,18.876" transform="translate(-536.22 -215.113)" fill="#140a0a"/>
        <path id="Trazado_730063" data-name="Trazado 730063" d="M156,172.275s-5.479-5.981-9.328-6.111c0,0-9.216-4.31-10.835-11.455,26.489,17.712,50.508-38.352,50.508-38.352,5.378,29.716,49.235,19.516,49.235,19.516-3.208,6.9-13.332,8.629-13.437,8.649-5.969.68-26.243,1.952-34.825-10.647,0,0-16.133,21.837-30.871,26Z" transform="translate(-109.138 -93.487)" fill="#140a0a"/>
        <path id="Trazado_730064" data-name="Trazado 730064" d="M74.346,169.154c.025-4.293,3.546-11.988,15.3-13.322,0,0,10.3,1.334,9.919,4.436s-32.98,5.018-17.124,18.7c-3.648-1.418-8.131-4.288-8.1-9.813" transform="translate(-59.734 -125.204)" fill="#341313"/>
      </g>
    </g>
  </g>
</svg>
