<svg id="red-mundial" xmlns="http://www.w3.org/2000/svg" width="76" height="76" viewBox="0 0 76 76">
  <path id="Trazado_722421" data-name="Trazado 722421" d="M85.281,63.153C76.108,82.39,61.991,86.547,51.749,86.547A35.874,35.874,0,0,1,22.67,71.391c-6.724-9.485-8.327-21.509-4.453-33l.713-1.469A36.117,36.117,0,0,1,51.749,15,35.874,35.874,0,0,1,80.828,30.155C87.552,39.641,89.156,51.664,85.281,63.153Z" transform="translate(-13.749 -12.773)" fill="#65b1fc"/>
  <path id="Trazado_722422" data-name="Trazado 722422" d="M289.532,63.153C280.358,82.39,266.242,86.547,256,86.547V15a35.874,35.874,0,0,1,29.079,15.155C291.8,39.641,293.406,51.664,289.532,63.153Z" transform="translate(-218 -12.773)" fill="#1689fc"/>
  <path id="Trazado_722423" data-name="Trazado 722423" d="M69.121,16.09A38.193,38.193,0,0,0,38.216,0a38.168,38.168,0,0,0-35,23.705l-.757,1.559c-4.089,12.45-2.5,24.243,4.854,34.645A38.193,38.193,0,0,0,38.216,76,38.293,38.293,0,0,0,73.04,52.829l.668-1.336C78.159,38.828,76.6,26.662,69.121,16.09ZM10.963,57.326C4.64,48.42,3.17,37.154,6.822,26.333l.579-1.2A33.938,33.938,0,0,1,26.727,6.59c-5.388,7.036-8.639,20.722-8.238,25.175a1.318,1.318,0,0,0-.089.445c-1.158,14.918,2.227,29.316,8.595,37.377A33.991,33.991,0,0,1,10.963,57.326ZM35.99,71.146A12.038,12.038,0,0,1,31.4,67.88c-6.234-6.724-9.663-20.93-8.55-35.313v-.4c0-.134.045-.312.045-.445C24.189,17.872,29.622,6.947,35.99,4.854Zm4.453-.045V4.854c6.858,2.271,12.6,14.888,13.27,29.94.623,13.894-2.85,26.941-8.862,33.265A11.273,11.273,0,0,1,40.443,71.1ZM69.611,49.667C64.623,60.177,57.588,66.648,49.438,69.543c5.967-7.526,9.351-20.945,8.728-34.927-.534-11.845-3.874-22.058-8.728-28.2A33.989,33.989,0,0,1,65.469,18.673C71.793,27.58,73.263,38.846,69.611,49.667Z" transform="translate(-0.216)" fill="#96ebe6"/>
  <path id="Trazado_722424" data-name="Trazado 722424" d="M286.9,16.09A38.193,38.193,0,0,0,256,0V76a38.293,38.293,0,0,0,34.823-23.171l.668-1.336C295.942,38.828,294.383,26.662,286.9,16.09ZM258.227,71.1V4.854c6.858,2.271,12.6,14.888,13.27,29.94.623,13.894-2.85,26.941-8.862,33.265A11.273,11.273,0,0,1,258.227,71.1Zm29.168-21.434c-4.987,10.509-12.023,16.981-20.173,19.876,5.967-7.526,9.351-20.945,8.728-34.927-.534-11.845-3.874-22.058-8.728-28.2a33.989,33.989,0,0,1,16.031,12.261C289.576,27.58,291.046,38.846,287.395,49.667Z" transform="translate(-218)" fill="#00c8c8"/>
  <path id="Trazado_722425" data-name="Trazado 722425" d="M69.172,151H6.828A6.8,6.8,0,0,0,0,157.68v17.813a6.8,6.8,0,0,0,6.828,6.68H69.172A6.8,6.8,0,0,0,76,175.492V157.68A6.8,6.8,0,0,0,69.172,151Z" transform="translate(0 -128.586)" fill="#0053bf"/>
  <path id="Trazado_722426" data-name="Trazado 722426" d="M294,157.68v17.813a6.8,6.8,0,0,1-6.828,6.68H256V151h31.172A6.8,6.8,0,0,1,294,157.68Z" transform="translate(-218 -128.586)" fill="#05377f"/>
  <path id="Trazado_722427" data-name="Trazado 722427" d="M203.027,214.19l-4.453,8.906a2.234,2.234,0,0,1-4.008,0l-2.449-4.9-2.449,4.9a2.336,2.336,0,0,1-4.008,0l-4.453-8.906a2.231,2.231,0,0,1,4.008-1.959l2.449,4.9,2.449-4.9a2.313,2.313,0,0,1,4.008,0l2.449,4.9,2.449-4.9a2.231,2.231,0,0,1,4.008,1.959Z" transform="translate(-154.116 -179.664)" fill="#e1f1fa"/>
  <path id="Trazado_722428" data-name="Trazado 722428" d="M346.2,224.369a2.227,2.227,0,0,1-1.992-1.231l-2.461-4.923-2.461,4.923a2.318,2.318,0,0,1-3.983,0l-4.266-8.534a2.2,2.2,0,0,1,1.526-3.581,2.45,2.45,0,0,1,2.27,1.218l2.462,4.923,2.461-4.923a2.318,2.318,0,0,1,3.983,0l2.461,4.923,2.461-4.923a2.227,2.227,0,1,1,3.983,1.992l-4.453,8.906A2.227,2.227,0,0,1,346.2,224.369Z" transform="translate(-281.477 -179.689)" fill="#bfe1ff"/>
  <path id="Trazado_722429" data-name="Trazado 722429" d="M51.178,211.014a2.329,2.329,0,0,0-2.135,1.226l-2.461,4.923L44.12,212.24a2.258,2.258,0,0,0-3.983,0l-2.461,4.923-2.461-4.923a2.227,2.227,0,0,0-3.983,1.992l4.453,8.906a2.227,2.227,0,0,0,3.983,0l2.461-4.923,2.461,4.923a2.227,2.227,0,0,0,3.983,0l4.194-8.389a2.252,2.252,0,0,0-1.589-3.736Z" transform="translate(-26.394 -179.689)" fill="#e1f1fa"/>
  <path id="Trazado_722430" data-name="Trazado 722430" d="M266.91,214.19l-4.453,8.906a2.234,2.234,0,0,1-4.008,0L256,218.2v-7.125a2.246,2.246,0,0,1,2,1.158l2.449,4.9,2.449-4.9a2.231,2.231,0,0,1,4.008,1.959Z" transform="translate(-218 -179.664)" fill="#bfe1ff"/>
</svg>
